<svg width="75" height="83" viewBox="0 0 75 83" fill="none" xmlns="http://www.w3.org/2000/svg">
<path d="M4.23082 18.4112L33.7236 1.50174C36.0554 0.166087 38.9393 0.166087 41.2764 1.50174L70.7692 18.4112C73.0795 19.7363 74.5 22.17 74.5 24.7991V58.2009C74.5 60.83 73.0795 63.2637 70.7692 64.5888L41.2764 81.4983C38.9446 82.8339 36.0607 82.8339 33.7236 81.4983L4.23082 64.5888C1.9205 63.2637 0.5 60.83 0.5 58.2009V24.7991C0.5 22.17 1.9205 19.7363 4.23082 18.4112Z" fill="#F7F7F5" fill-opacity="0.59" stroke="#8FB4F5" stroke-miterlimit="10"/>
<path d="M9.62658 21.788L34.337 7.355C36.2911 6.215 38.709 6.215 40.6631 7.355L65.3734 21.788C67.3067 22.9175 68.5 24.9936 68.5 27.2422V55.7578C68.5 58.0064 67.3119 60.0825 65.3734 61.212L40.6631 75.645C38.709 76.785 36.2911 76.785 34.337 75.645L9.62658 61.212C7.69331 60.0825 6.5 58.0064 6.5 55.7578V27.2422C6.5 24.9936 7.6881 22.9175 9.62658 21.788Z" fill="url(#paint0_linear_375_6288)"/>
<g filter="url(#filter0_d_375_6288)">
<path d="M20.8159 35.1582V27C20.8159 25.8954 21.7113 25 22.8159 25H30.9741C32.0785 25.0002 32.9741 25.8955 32.9741 27C32.9741 28.1045 32.0785 28.9998 30.9741 29H24.8159V35.1582C24.8157 36.2626 23.9203 37.1582 22.8159 37.1582C21.7114 37.1582 20.816 36.2626 20.8159 35.1582ZM50.184 35.1582V29H44.0268C42.9222 29 42.0268 28.1046 42.0268 27C42.0268 25.8954 42.9222 25 44.0268 25H52.184C53.2886 25 54.184 25.8954 54.184 27V35.1582C54.1839 36.2626 53.2885 37.1582 52.184 37.1582C51.0797 37.1581 50.1842 36.2625 50.184 35.1582Z" fill="white"/>
<path d="M35.5004 55.9999V44.4364C35.5069 43.8337 35.3922 43.2357 35.1645 42.6776C34.9368 42.1196 34.6005 41.6125 34.1743 41.1864L21.4018 28.4139C20.6207 27.6329 20.6207 26.3669 21.4018 25.5858C22.1828 24.8048 23.4489 24.8048 24.2299 25.5858L37.0024 38.3573C37.1324 38.4873 37.2563 38.6229 37.3774 38.7606L50.7817 25.5741C51.5691 24.7995 52.8352 24.8102 53.6098 25.5975C54.3843 26.3849 54.3745 27.651 53.5873 28.4257L39.2856 42.495C39.4319 43.1375 39.5059 43.7959 39.5004 44.4579V55.9999C39.5004 57.1043 38.6048 57.9997 37.5004 57.9999C36.3959 57.9999 35.5004 57.1044 35.5004 55.9999Z" fill="white"/>
</g>
<defs>
<filter id="filter0_d_375_6288" x="11.5" y="21.5" width="52" height="52" filterUnits="userSpaceOnUse" color-interpolation-filters="sRGB">
<feFlood flood-opacity="0" result="BackgroundImageFix"/>
<feColorMatrix in="SourceAlpha" type="matrix" values="0 0 0 0 0 0 0 0 0 0 0 0 0 0 0 0 0 0 127 0" result="hardAlpha"/>
<feOffset dy="6"/>
<feGaussianBlur stdDeviation="4"/>
<feComposite in2="hardAlpha" operator="out"/>
<feColorMatrix type="matrix" values="0 0 0 0 0.118632 0 0 0 0 0.372589 0 0 0 0 0.812782 0 0 0 0.4 0"/>
<feBlend mode="normal" in2="BackgroundImageFix" result="effect1_dropShadow_375_6288"/>
<feBlend mode="normal" in="SourceGraphic" in2="effect1_dropShadow_375_6288" result="shape"/>
</filter>
<linearGradient id="paint0_linear_375_6288" x1="37.5" y1="76.5" x2="37.5" y2="6.5" gradientUnits="userSpaceOnUse">
<stop stop-color="#2D7AFF"/>
<stop offset="1" stop-color="#A6C7FF"/>
</linearGradient>
</defs>
</svg>
