<svg width="75" height="83" viewBox="0 0 75 83" fill="none" xmlns="http://www.w3.org/2000/svg">
<path d="M4.23082 18.4112L33.7236 1.50174C36.0554 0.166087 38.9393 0.166087 41.2764 1.50174L70.7692 18.4112C73.0795 19.7363 74.5 22.17 74.5 24.7991V58.2009C74.5 60.83 73.0795 63.2637 70.7692 64.5888L41.2764 81.4983C38.9446 82.8339 36.0607 82.8339 33.7236 81.4983L4.23082 64.5888C1.9205 63.2637 0.5 60.83 0.5 58.2009V24.7991C0.5 22.17 1.9205 19.7363 4.23082 18.4112Z" fill="#F7F7F5" fill-opacity="0.59" stroke="#8FB4F5" stroke-miterlimit="10"/>
<path d="M9.62658 21.788L34.337 7.355C36.2911 6.215 38.709 6.215 40.6631 7.355L65.3734 21.788C67.3067 22.9175 68.5 24.9936 68.5 27.2422V55.7578C68.5 58.0064 67.3119 60.0825 65.3734 61.212L40.6631 75.645C38.709 76.785 36.2911 76.785 34.337 75.645L9.62658 61.212C7.69331 60.0825 6.5 58.0064 6.5 55.7578V27.2422C6.5 24.9936 7.6881 22.9175 9.62658 21.788Z" fill="url(#paint0_linear_375_6298)"/>
<g filter="url(#filter0_d_375_6298)">
<path d="M49.7778 41.4998C49.7778 38.6138 48.7615 35.8196 46.9066 33.6086C45.0519 31.3976 42.4771 29.9112 39.6352 29.4093C36.7931 28.9075 33.8647 29.4226 31.3649 30.8647C28.8651 32.3068 26.9531 34.5836 25.9648 37.295C24.9764 40.0065 24.9746 42.9801 25.9602 45.6926C26.9457 48.4051 28.8555 50.6837 31.3538 52.1284C33.8522 53.5732 36.7797 54.0919 39.6223 53.5931C41.2807 53.302 42.8484 52.6753 44.2356 51.7651C45.3259 51.0497 46.7898 51.3536 47.5052 52.4439C48.2204 53.5341 47.9166 54.9972 46.8264 55.7125C44.9057 56.9728 42.735 57.8412 40.4385 58.2443C36.5027 58.9349 32.4492 58.2165 28.9899 56.2161C25.5307 54.2157 22.8866 51.0606 21.522 47.3048C20.1575 43.549 20.1592 39.4326 21.5276 35.6782C22.896 31.9239 25.5434 28.7711 29.0047 26.7743C32.4661 24.7775 36.5208 24.0642 40.456 24.759C44.3912 25.4539 47.9557 27.5128 50.5239 30.5742C53.0921 33.6356 54.5 37.5038 54.5 41.4998C54.5 42.8038 53.4429 43.8609 52.1389 43.8609C50.8349 43.8609 49.7778 42.8038 49.7778 41.4998Z" fill="white"/>
</g>
<defs>
<filter id="filter0_d_375_6298" x="11.5" y="21.5" width="52" height="52" filterUnits="userSpaceOnUse" color-interpolation-filters="sRGB">
<feFlood flood-opacity="0" result="BackgroundImageFix"/>
<feColorMatrix in="SourceAlpha" type="matrix" values="0 0 0 0 0 0 0 0 0 0 0 0 0 0 0 0 0 0 127 0" result="hardAlpha"/>
<feOffset dy="6"/>
<feGaussianBlur stdDeviation="4"/>
<feComposite in2="hardAlpha" operator="out"/>
<feColorMatrix type="matrix" values="0 0 0 0 0.118632 0 0 0 0 0.372589 0 0 0 0 0.812782 0 0 0 0.4 0"/>
<feBlend mode="normal" in2="BackgroundImageFix" result="effect1_dropShadow_375_6298"/>
<feBlend mode="normal" in="SourceGraphic" in2="effect1_dropShadow_375_6298" result="shape"/>
</filter>
<linearGradient id="paint0_linear_375_6298" x1="37.5" y1="76.5" x2="37.5" y2="6.5" gradientUnits="userSpaceOnUse">
<stop stop-color="#2D7AFF"/>
<stop offset="1" stop-color="#A6C7FF"/>
</linearGradient>
</defs>
</svg>
