<svg width="167" height="177" viewBox="0 0 167 177" fill="none" xmlns="http://www.w3.org/2000/svg">
<path d="M132.947 118.631L89.1763 93.3102C87.394 92.2791 85.1966 92.2791 83.4143 93.3102L21.8726 128.911C20.0948 129.939 19 131.837 19 133.891V137.95C19 139.319 19.7299 140.584 20.9151 141.27L65.1635 166.867C67.2429 168.07 69.8065 168.07 71.8859 166.867L133.905 130.99C135.09 130.304 135.82 129.039 135.82 127.67V123.611C135.82 121.558 134.725 119.659 132.947 118.631Z" fill="#ECF5FF" fill-opacity="0.41" stroke="#3497F9" stroke-width="1.26" stroke-linecap="round" stroke-linejoin="round"/>
<path d="M19.789 131.03L65.6436 157.556C67.4259 158.587 69.6233 158.587 71.4056 157.556L135.025 120.753" stroke="#3497F9" stroke-width="1.26" stroke-linecap="round" stroke-linejoin="round"/>
<path d="M19.789 131.676L65.6435 158.202C67.4258 159.233 69.6233 159.233 71.4056 158.202L135.053 121.388C135.547 122.247 135.82 123.233 135.82 124.258V128.316C135.82 129.685 135.09 130.951 133.905 131.636L71.8859 167.513C69.8065 168.716 67.2429 168.716 65.1635 167.513L20.9151 141.916C19.7299 141.23 19 139.965 19 138.596V134.538C19 133.675 19.1931 132.84 19.5488 132.085L19.789 131.676Z" fill="#3497F9" fill-opacity="0.28"/>
<path fill-rule="evenodd" clip-rule="evenodd" d="M106.889 19.4402C101.595 16.7361 94.466 17.3274 86.623 21.8641C70.2938 31.3103 57.0561 54.2833 57.0561 73.1756V145.455C57.0561 146.193 56.2563 146.655 55.617 146.285L41.8123 138.299V64.3573C41.8123 45.4653 55.0497 22.4923 71.3789 13.0462C79.1928 8.52583 86.2989 7.92212 91.585 10.5918C97.346 13.5009 106.889 19.4402 106.889 19.4402Z" fill="url(#paint0_linear_375_5942)"/>
<path fill-rule="evenodd" clip-rule="evenodd" d="M106.889 19.4402C101.595 16.7361 94.6909 18.7048 86.8479 23.2416C70.5184 32.6881 58.6799 54.3942 58.6799 73.2865L58.8905 145.44C58.8926 146.157 58.1351 146.622 57.496 146.297L42.8589 138.833C42.2167 138.505 41.8123 137.845 41.8123 137.124V64.3573C41.8123 45.4653 55.0497 22.4923 71.3789 13.0462C79.1931 8.52583 86.2989 7.92212 91.585 10.5918C97.346 13.5009 106.889 19.4402 106.889 19.4402Z" stroke="#3497F9" stroke-width="1.26" stroke-linecap="round" stroke-linejoin="round"/>
<path fill-rule="evenodd" clip-rule="evenodd" d="M62.0801 118.497L94.4863 99.7511C95.3752 99.2369 95.9226 98.2878 95.9226 97.2609V34.1757C95.9226 30.9469 95.4567 28.1131 94.5979 25.7157C104.237 23.9682 111.166 30.5407 111.166 42.994C111.166 65.5531 111.166 97.0429 111.166 105.548C111.166 106.918 110.437 108.16 109.251 108.846L64.9583 134.469C63.6798 135.209 62.0801 134.286 62.0801 132.809V118.497Z" fill="white" stroke="#3497F9" stroke-width="1.26"/>
<circle cx="22.7288" cy="22.7288" r="22.7288" transform="matrix(-1 0 0 1 106.54 54.1475)" fill="url(#paint1_linear_375_5942)"/>
<path fill-rule="evenodd" clip-rule="evenodd" d="M57.056 73.1763C57.056 54.284 70.2934 31.3114 86.6226 21.8653C102.952 12.4194 116.19 20.0765 116.19 38.9688C116.19 67.6479 116.19 104.987 116.19 111.814C116.19 112.495 115.828 113.122 115.24 113.466L57.9531 146.985L57.056 73.1763ZM62.0798 71.3893C62.0798 55.7071 73.0678 36.6377 86.6226 28.7964C100.177 20.9555 111.166 27.3114 111.166 42.9939C111.166 69.2959 111.166 107.738 111.166 107.738L64.958 134.469C63.6794 135.208 62.0798 134.306 62.0798 132.829C62.0798 122.961 62.0798 93.0562 62.0798 71.3893Z" fill="#C7E3FF"/>
<path fill-rule="evenodd" clip-rule="evenodd" d="M57.056 73.1765C57.056 54.2842 70.2934 31.3115 86.6226 21.8654C102.952 12.4193 116.19 20.0767 116.19 38.969C116.19 65.8247 116.19 100.274 116.19 110.152C116.19 111.866 115.275 113.438 113.791 114.294L57.9935 146.485L57.056 73.1765ZM62.0798 71.3895C62.0798 55.7073 73.0678 36.6378 86.6226 28.7966C100.178 20.9553 111.166 27.3116 111.166 42.9941C111.166 65.5531 111.166 97.0429 111.166 105.549C111.166 106.918 110.436 108.16 109.251 108.846L64.958 134.469C63.6794 135.209 62.0798 134.306 62.0798 132.829C62.0798 122.961 62.0798 93.0563 62.0798 71.3895Z" stroke="#3497F9" stroke-width="1.26" stroke-linecap="round" stroke-linejoin="round"/>
<defs>
<linearGradient id="paint0_linear_375_5942" x1="74.3505" y1="147.117" x2="74.3505" y2="9" gradientUnits="userSpaceOnUse">
<stop stop-color="#E6F2FF"/>
<stop offset="1" stop-color="#ECF5FF"/>
</linearGradient>
<linearGradient id="paint1_linear_375_5942" x1="27.0552" y1="45.4575" x2="14.1816" y2="10.5249" gradientUnits="userSpaceOnUse">
<stop stop-color="#2C7AFF"/>
<stop offset="1" stop-color="#93BBFF"/>
</linearGradient>
</defs>
</svg>
