<svg width="75" height="83" viewBox="0 0 75 83" fill="none" xmlns="http://www.w3.org/2000/svg">
<path d="M4.23082 18.4112L33.7236 1.50174C36.0554 0.166087 38.9393 0.166087 41.2764 1.50174L70.7692 18.4112C73.0795 19.7363 74.5 22.17 74.5 24.7991V58.2009C74.5 60.83 73.0795 63.2637 70.7692 64.5888L41.2764 81.4983C38.9446 82.8339 36.0607 82.8339 33.7236 81.4983L4.23082 64.5888C1.9205 63.2637 0.5 60.83 0.5 58.2009V24.7991C0.5 22.17 1.9205 19.7363 4.23082 18.4112Z" fill="#F7F7F5" fill-opacity="0.59" stroke="#8FB4F5" stroke-miterlimit="10"/>
<path d="M9.62658 21.788L34.337 7.355C36.2911 6.215 38.709 6.215 40.6631 7.355L65.3734 21.788C67.3067 22.9175 68.5 24.9936 68.5 27.2422V55.7578C68.5 58.0064 67.3119 60.0825 65.3734 61.212L40.6631 75.645C38.709 76.785 36.2911 76.785 34.337 75.645L9.62658 61.212C7.69331 60.0825 6.5 58.0064 6.5 55.7578V27.2422C6.5 24.9936 7.6881 22.9175 9.62658 21.788Z" fill="url(#paint0_linear_375_6278)"/>
<g filter="url(#filter0_d_375_6278)">
<path fill-rule="evenodd" clip-rule="evenodd" d="M38.3054 27.6032C40.0526 25.9113 42.3948 24.9739 44.8269 24.9935C47.2589 25.013 49.5858 25.9878 51.3056 27.7075C53.0254 29.4273 54.0002 31.7542 54.0197 34.1863C54.0392 36.6183 53.1019 38.9606 51.4099 40.7077L51.3847 40.7329L46.9907 45.1289C46.051 46.0686 44.9202 46.7951 43.675 47.2594C42.4299 47.7237 41.0995 47.9148 39.774 47.8199C38.4485 47.7249 37.1589 47.346 35.9927 46.7089C34.8265 46.0719 33.8109 45.1915 33.0147 44.1275C32.7185 43.7147 32.596 43.2023 32.6734 42.7002C32.7508 42.1981 33.022 41.7464 33.4288 41.442C33.8356 41.1376 34.3454 41.0049 34.849 41.0722C35.3525 41.1396 35.8096 41.4017 36.122 41.8023C36.5843 42.4212 37.1744 42.9333 37.8522 43.3039C38.53 43.6745 39.2796 43.8948 40.0501 43.9501C40.8206 44.0053 41.594 43.8941 42.3177 43.624C43.0414 43.3539 43.6985 42.9312 44.2444 42.3846L48.6287 38.0003C49.5877 36.9799 50.1117 35.6263 50.0898 34.2263C50.0679 32.8262 49.5018 31.4897 48.5115 30.4998C47.5211 29.51 46.1843 28.9445 44.7842 28.9234C43.3841 28.9022 42.0308 29.4269 41.011 30.3864L38.5015 32.8823C38.1344 33.2349 37.6436 33.4293 37.1346 33.4235C36.6257 33.4177 36.1394 33.2122 35.7805 32.8513C35.4216 32.4903 35.2189 32.0029 35.216 31.4939C35.2131 30.9849 35.4102 30.4952 35.7649 30.1302L38.2841 27.6246L38.3054 27.6032ZM31.3243 35.7392C33.2009 35.0394 35.2537 34.9664 37.1752 35.5312C39.0968 36.0959 40.7837 37.2679 41.9833 38.8717C42.2795 39.2844 42.402 39.7969 42.3246 40.299C42.2472 40.8011 41.976 41.2528 41.5693 41.5572C41.1625 41.8615 40.6526 41.9943 40.1491 41.9269C39.6455 41.8595 39.1885 41.5974 38.876 41.1968C38.4135 40.5782 37.8233 40.0664 37.1456 39.696C36.4678 39.3256 35.7183 39.1053 34.9479 39.0501C34.1775 38.9949 33.4042 39.106 32.6805 39.3759C31.9569 39.6459 31.2997 40.0683 30.7537 40.6146L26.3713 44.9989C25.3976 46.0159 24.8609 47.3738 24.8762 48.7817C24.8914 50.1896 25.4574 51.5355 26.4529 52.5312C27.4483 53.5269 28.7941 54.0932 30.202 54.1088C31.6098 54.1244 32.9679 53.5881 33.9851 52.6147L36.4791 50.1208C36.6582 49.9354 36.8723 49.7875 37.1091 49.6858C37.3459 49.5841 37.6006 49.5306 37.8583 49.5283C38.116 49.5261 38.3715 49.5752 38.6101 49.6728C38.8486 49.7704 39.0653 49.9145 39.2475 50.0967C39.4297 50.2789 39.5739 50.4956 39.6714 50.7341C39.769 50.9727 39.8181 51.2282 39.8159 51.4859C39.8137 51.7436 39.7601 51.9983 39.6584 52.2351C39.5567 52.4719 39.4088 52.6861 39.2235 52.8651L36.7178 55.3707L36.6945 55.3959C34.9474 57.0879 32.6051 58.0252 30.1731 58.0057C27.7411 57.9862 25.4141 57.0114 23.6944 55.2916C21.9746 53.5718 20.9998 51.2449 20.9803 48.8129C20.9608 46.3808 21.8981 44.0386 23.59 42.2914L23.6133 42.2662L28.0093 37.8702C28.9497 36.9316 30.08 36.205 31.3243 35.7392Z" fill="white"/>
</g>
<defs>
<filter id="filter0_d_375_6278" x="11.5" y="21.5" width="52" height="52" filterUnits="userSpaceOnUse" color-interpolation-filters="sRGB">
<feFlood flood-opacity="0" result="BackgroundImageFix"/>
<feColorMatrix in="SourceAlpha" type="matrix" values="0 0 0 0 0 0 0 0 0 0 0 0 0 0 0 0 0 0 127 0" result="hardAlpha"/>
<feOffset dy="6"/>
<feGaussianBlur stdDeviation="4"/>
<feComposite in2="hardAlpha" operator="out"/>
<feColorMatrix type="matrix" values="0 0 0 0 0.118632 0 0 0 0 0.372589 0 0 0 0 0.812782 0 0 0 0.4 0"/>
<feBlend mode="normal" in2="BackgroundImageFix" result="effect1_dropShadow_375_6278"/>
<feBlend mode="normal" in="SourceGraphic" in2="effect1_dropShadow_375_6278" result="shape"/>
</filter>
<linearGradient id="paint0_linear_375_6278" x1="37.5" y1="76.5" x2="37.5" y2="6.5" gradientUnits="userSpaceOnUse">
<stop stop-color="#2D7AFF"/>
<stop offset="1" stop-color="#A6C7FF"/>
</linearGradient>
</defs>
</svg>
