<svg width="75" height="83" viewBox="0 0 75 83" fill="none" xmlns="http://www.w3.org/2000/svg">
<path d="M4.23082 18.4112L33.7236 1.50174C36.0554 0.166087 38.9393 0.166087 41.2764 1.50174L70.7692 18.4112C73.0795 19.7363 74.5 22.17 74.5 24.7991V58.2009C74.5 60.83 73.0795 63.2637 70.7692 64.5888L41.2764 81.4983C38.9446 82.8339 36.0607 82.8339 33.7236 81.4983L4.23082 64.5888C1.9205 63.2637 0.5 60.83 0.5 58.2009V24.7991C0.5 22.17 1.9205 19.7363 4.23082 18.4112Z" fill="#F7F7F5" fill-opacity="0.59" stroke="#8FB4F5" stroke-miterlimit="10"/>
<path d="M9.62658 21.788L34.337 7.355C36.2911 6.215 38.709 6.215 40.6631 7.355L65.3734 21.788C67.3067 22.9175 68.5 24.9936 68.5 27.2422V55.7578C68.5 58.0064 67.3119 60.0825 65.3734 61.212L40.6631 75.645C38.709 76.785 36.2911 76.785 34.337 75.645L9.62658 61.212C7.69331 60.0825 6.5 58.0064 6.5 55.7578V27.2422C6.5 24.9936 7.6881 22.9175 9.62658 21.788Z" fill="url(#paint0_linear_375_6293)"/>
<g filter="url(#filter0_d_375_6293)">
<path d="M23.6064 52.9052V44.6064C23.6064 44.2726 23.4732 43.9521 23.2372 43.716C23.001 43.4798 22.6807 43.3467 22.3467 43.3467C21.2087 43.3467 20.2861 42.4242 20.2861 41.2861C20.2861 40.1481 21.2087 39.2255 22.3467 39.2255C22.6807 39.2255 23.001 39.0924 23.2372 38.8563C23.4732 38.6201 23.6064 38.2997 23.6064 37.9658V29.6671C23.6064 28.2401 24.1731 26.8708 25.1821 25.8618C26.1911 24.8529 27.5595 24.2862 28.9864 24.2861H30.6465C31.7845 24.2862 32.7071 25.2087 32.7071 26.3467C32.7071 27.4847 31.7845 28.4073 30.6465 28.4073H28.9864C28.6524 28.4074 28.332 28.5405 28.0959 28.7766C27.8599 29.0127 27.7277 29.3332 27.7277 29.6671V37.9658C27.7277 39.1761 27.318 40.3436 26.5786 41.2861C27.3181 42.2286 27.7277 43.3962 27.7277 44.6064V52.9052C27.7277 53.5931 28.2985 54.1649 28.9864 54.1649H30.6465C31.7845 54.165 32.7071 55.0875 32.7071 56.2255C32.7071 57.3635 31.7845 58.2861 30.6465 58.2861H28.9864C26.0224 58.2861 23.6064 55.8691 23.6064 52.9052ZM46.8446 52.9052V44.6064C46.8446 43.3563 47.2751 42.2033 47.9946 41.2881C47.2544 40.3453 46.8446 39.1768 46.8446 37.9658V29.6671C46.8446 29.3332 46.7123 29.0127 46.4764 28.7766C46.2402 28.5405 45.9198 28.4074 45.5859 28.4073H43.9258C42.7878 28.4073 41.8651 27.4847 41.8651 26.3467C41.8651 25.2087 42.7878 24.2862 43.9258 24.2861H45.5859C47.0128 24.2862 48.3812 24.8529 49.3902 25.8618C50.3992 26.8708 50.9658 28.2401 50.9658 29.6671V37.9658C50.9658 38.2997 51.0991 38.6201 51.3351 38.8563C51.5712 39.0924 51.8916 39.2255 52.2255 39.2255C53.3636 39.2255 54.2861 40.1481 54.2861 41.2861C54.2861 42.4242 53.3636 43.3467 52.2255 43.3467C51.5376 43.3467 50.9658 43.9186 50.9658 44.6064V52.9052C50.9658 54.3322 50.3992 55.7015 49.3902 56.7105C48.3812 57.7194 47.0128 58.2861 45.5859 58.2861H43.9258C42.7878 58.2861 41.8651 57.3635 41.8651 56.2255C41.8651 55.0875 42.7878 54.165 43.9258 54.1649H45.5859C45.9198 54.1649 46.2402 54.0318 46.4764 53.7957C46.7123 53.5595 46.8446 53.2391 46.8446 52.9052Z" fill="white"/>
</g>
<defs>
<filter id="filter0_d_375_6293" x="11.5" y="21.5" width="52" height="52" filterUnits="userSpaceOnUse" color-interpolation-filters="sRGB">
<feFlood flood-opacity="0" result="BackgroundImageFix"/>
<feColorMatrix in="SourceAlpha" type="matrix" values="0 0 0 0 0 0 0 0 0 0 0 0 0 0 0 0 0 0 127 0" result="hardAlpha"/>
<feOffset dy="6"/>
<feGaussianBlur stdDeviation="4"/>
<feComposite in2="hardAlpha" operator="out"/>
<feColorMatrix type="matrix" values="0 0 0 0 0.118632 0 0 0 0 0.372589 0 0 0 0 0.812782 0 0 0 0.4 0"/>
<feBlend mode="normal" in2="BackgroundImageFix" result="effect1_dropShadow_375_6293"/>
<feBlend mode="normal" in="SourceGraphic" in2="effect1_dropShadow_375_6293" result="shape"/>
</filter>
<linearGradient id="paint0_linear_375_6293" x1="37.5" y1="76.5" x2="37.5" y2="6.5" gradientUnits="userSpaceOnUse">
<stop stop-color="#2D7AFF"/>
<stop offset="1" stop-color="#A6C7FF"/>
</linearGradient>
</defs>
</svg>
