<svg width="75" height="83" viewBox="0 0 75 83" fill="none" xmlns="http://www.w3.org/2000/svg">
<path d="M4.23082 18.4112L33.7236 1.50174C36.0554 0.166087 38.9393 0.166087 41.2764 1.50174L70.7692 18.4112C73.0795 19.7363 74.5 22.17 74.5 24.7991V58.2009C74.5 60.83 73.0795 63.2637 70.7692 64.5888L41.2764 81.4983C38.9446 82.8339 36.0607 82.8339 33.7236 81.4983L4.23082 64.5888C1.9205 63.2637 0.5 60.83 0.5 58.2009V24.7991C0.5 22.17 1.9205 19.7363 4.23082 18.4112Z" fill="#F7F7F5" fill-opacity="0.59" stroke="#8FB4F5" stroke-miterlimit="10"/>
<path d="M9.62658 21.788L34.337 7.355C36.2911 6.215 38.709 6.215 40.6631 7.355L65.3734 21.788C67.3067 22.9175 68.5 24.9936 68.5 27.2422V55.7578C68.5 58.0064 67.3119 60.0825 65.3734 61.212L40.6631 75.645C38.709 76.785 36.2911 76.785 34.337 75.645L9.62658 61.212C7.69331 60.0825 6.5 58.0064 6.5 55.7578V27.2422C6.5 24.9936 7.6881 22.9175 9.62658 21.788Z" fill="url(#paint0_linear_375_6283)"/>
<g filter="url(#filter0_d_375_6283)">
<path fill-rule="evenodd" clip-rule="evenodd" d="M33.5877 25.5622C35.882 24.6794 39.0666 24.6818 41.361 25.5573C43.2717 26.2852 45.2833 27.0672 47.1571 27.9672C49.0359 28.8673 50.6737 29.8411 52.1983 30.7608C53.2016 31.3682 54.0992 32.3518 54.0968 33.6847C54.0968 35.0126 53.1943 35.9963 52.186 36.6012C50.6614 37.516 49.0236 38.4751 47.1571 39.3726C45.2956 40.2653 43.3086 41.0448 41.4126 41.7752C39.1182 42.658 35.9312 42.6556 33.6344 41.7801C31.7237 41.0522 29.7121 40.2702 27.8407 39.3702C26.1158 38.5216 24.4334 37.5893 22.7995 36.5766C21.7962 35.9668 20.8961 34.9831 20.9011 33.6552C20.9035 32.3223 21.806 31.3411 22.8118 30.7362C24.3364 29.8214 25.9742 28.8623 27.8432 27.9648C29.7023 27.0721 31.6892 26.2926 33.5877 25.5622ZM23.6036 47.2345C23.927 47.4614 24.1506 47.8041 24.2279 48.1915C24.3053 48.5788 24.2306 48.9811 24.0192 49.3149C24.1289 49.429 24.2539 49.5275 24.3905 49.6075C25.9054 50.5223 27.4349 51.4273 29.1735 52.2634C30.9171 53.0995 32.818 53.8397 34.7312 54.57C36.3247 55.1774 38.7297 55.1774 40.3134 54.57C42.2069 53.8397 44.0906 53.0946 45.8292 52.2634C47.4617 51.4588 49.0561 50.5791 50.6073 49.6272C50.7446 49.5481 50.8704 49.4505 50.9811 49.337C50.8664 49.1707 50.7857 48.9834 50.7434 48.7859C50.7011 48.5884 50.6982 48.3845 50.7347 48.1858C50.8085 47.7846 51.0386 47.4291 51.3745 47.1976C51.7104 46.966 52.1245 46.8774 52.5257 46.9512C52.7244 46.9877 52.9139 47.0631 53.0835 47.1728C53.253 47.2826 53.3993 47.4247 53.514 47.591C54.0623 48.3534 54.2714 49.3075 53.9468 50.2567C53.6443 51.142 52.9606 51.8011 52.1885 52.2634C50.6638 53.1782 49.0261 54.1372 47.1596 55.0348C45.298 55.9275 43.311 56.707 41.4151 57.4374C39.1207 58.3177 35.9337 58.3177 33.6369 57.4423C31.7261 56.7144 29.7146 55.9324 27.8432 55.0323C26.1182 54.183 24.4358 53.2499 22.802 52.2363C22.0396 51.7765 21.3634 51.1248 21.0609 50.2543C20.9083 49.8132 20.8652 49.3416 20.9355 48.8802C21.0057 48.4188 21.1872 47.9814 21.4642 47.6058C21.6989 47.2732 22.056 47.0473 22.4571 46.9777C22.8582 46.908 23.2705 47.0004 23.6036 47.2345ZM23.6036 39.6972C23.9277 39.9242 24.1517 40.2674 24.2291 40.6554C24.3065 41.0433 24.2313 41.4462 24.0192 41.7801C24.1267 41.8961 24.252 41.9941 24.3905 42.0703C25.9054 42.9876 27.4349 43.8901 29.1735 44.7262C30.9171 45.5623 32.818 46.3025 34.7312 47.0328C36.3247 47.6402 38.7297 47.6402 40.3134 47.0328C42.2069 46.3025 44.0906 45.5598 45.8292 44.7262C47.4617 43.9216 49.0561 43.0419 50.6073 42.09C50.7446 42.0109 50.8704 41.9133 50.9811 41.7998C50.7495 41.4639 50.6609 41.0498 50.7347 40.6486C50.8085 40.2474 51.0386 39.8919 51.3745 39.6604C51.7104 39.4288 52.1245 39.3402 52.5257 39.414C52.9269 39.4878 53.2824 39.7179 53.514 40.0538C54.0623 40.8161 54.2714 41.7703 53.9468 42.722C53.6443 43.6073 52.9606 44.2638 52.1885 44.7262C50.6638 45.6409 49.0261 46.6 47.1596 47.4976C45.298 48.3902 43.311 49.1698 41.4151 49.9002C39.1207 50.783 35.9337 50.7805 33.6369 49.9051C31.7261 49.1772 29.7146 48.3976 27.8432 47.4951C26.1183 46.6466 24.4359 45.7143 22.802 44.7016C22.0396 44.2417 21.3634 43.59 21.0609 42.717C20.9091 42.2767 20.8665 41.806 20.9368 41.3456C21.007 40.8851 21.188 40.4486 21.4642 40.0735C21.6985 39.7405 22.0555 39.5141 22.4566 39.444C22.8577 39.3739 23.2702 39.4634 23.6036 39.6972Z" fill="white"/>
</g>
<defs>
<filter id="filter0_d_375_6283" x="11.5" y="21.5" width="52" height="52" filterUnits="userSpaceOnUse" color-interpolation-filters="sRGB">
<feFlood flood-opacity="0" result="BackgroundImageFix"/>
<feColorMatrix in="SourceAlpha" type="matrix" values="0 0 0 0 0 0 0 0 0 0 0 0 0 0 0 0 0 0 127 0" result="hardAlpha"/>
<feOffset dy="6"/>
<feGaussianBlur stdDeviation="4"/>
<feComposite in2="hardAlpha" operator="out"/>
<feColorMatrix type="matrix" values="0 0 0 0 0.118632 0 0 0 0 0.372589 0 0 0 0 0.812782 0 0 0 0.4 0"/>
<feBlend mode="normal" in2="BackgroundImageFix" result="effect1_dropShadow_375_6283"/>
<feBlend mode="normal" in="SourceGraphic" in2="effect1_dropShadow_375_6283" result="shape"/>
</filter>
<linearGradient id="paint0_linear_375_6283" x1="37.5" y1="76.5" x2="37.5" y2="6.5" gradientUnits="userSpaceOnUse">
<stop stop-color="#2D7AFF"/>
<stop offset="1" stop-color="#A6C7FF"/>
</linearGradient>
</defs>
</svg>
