<svg width="27" height="27" viewBox="0 0 27 27" fill="none" xmlns="http://www.w3.org/2000/svg">
<path d="M9 11.25H18M9 20.25H18M9 15.75H13.5M4.5 24.075V2.925C4.5 2.74598 4.57112 2.57429 4.6977 2.4477C4.82429 2.32112 4.99598 2.25 5.175 2.25H18.2835C18.4625 2.25016 18.634 2.32138 18.7605 2.448L22.302 5.9895C22.365 6.05239 22.4149 6.1271 22.4489 6.20935C22.4828 6.2916 22.5002 6.37976 22.5 6.46875V24.075C22.5 24.1636 22.4825 24.2514 22.4486 24.3333C22.4147 24.4152 22.365 24.4896 22.3023 24.5523C22.2396 24.615 22.1652 24.6647 22.0833 24.6986C22.0014 24.7325 21.9136 24.75 21.825 24.75H5.175C5.08636 24.75 4.99858 24.7325 4.91669 24.6986C4.83479 24.6647 4.76038 24.615 4.6977 24.5523C4.63502 24.4896 4.5853 24.4152 4.55138 24.3333C4.51746 24.2514 4.5 24.1636 4.5 24.075Z" stroke="#2D7AFF" stroke-width="1.25" stroke-linecap="round" stroke-linejoin="round"/>
<path d="M18 2.25V6.075C18 6.25402 18.0711 6.42571 18.1977 6.5523C18.3243 6.67888 18.496 6.75 18.675 6.75H22.5" stroke="#2D7AFF" stroke-width="1.25" stroke-linecap="round" stroke-linejoin="round"/>
</svg>
