<svg width="27" height="27" viewBox="0 0 27 27" fill="none" xmlns="http://www.w3.org/2000/svg">
<path d="M15.75 22.95V16.425C15.75 16.246 15.8211 16.0743 15.9477 15.9477C16.0743 15.8211 16.246 15.75 16.425 15.75H22.95C23.129 15.75 23.3007 15.8211 23.4273 15.9477C23.5539 16.0743 23.625 16.246 23.625 16.425V22.95C23.625 23.129 23.5539 23.3007 23.4273 23.4273C23.3007 23.5539 23.129 23.625 22.95 23.625H16.425C16.246 23.625 16.0743 23.5539 15.9477 23.4273C15.8211 23.3007 15.75 23.129 15.75 22.95ZM3.375 22.95V16.425C3.375 16.246 3.44612 16.0743 3.5727 15.9477C3.69929 15.8211 3.87098 15.75 4.05 15.75H10.575C10.754 15.75 10.9257 15.8211 11.0523 15.9477C11.1789 16.0743 11.25 16.246 11.25 16.425V22.95C11.25 23.129 11.1789 23.3007 11.0523 23.4273C10.9257 23.5539 10.754 23.625 10.575 23.625H4.05C3.87098 23.625 3.69929 23.5539 3.5727 23.4273C3.44612 23.3007 3.375 23.129 3.375 22.95ZM15.75 10.575V4.05C15.75 3.87098 15.8211 3.69929 15.9477 3.5727C16.0743 3.44612 16.246 3.375 16.425 3.375H22.95C23.129 3.375 23.3007 3.44612 23.4273 3.5727C23.5539 3.69929 23.625 3.87098 23.625 4.05V10.575C23.625 10.754 23.5539 10.9257 23.4273 11.0523C23.3007 11.1789 23.129 11.25 22.95 11.25H16.425C16.246 11.25 16.0743 11.1789 15.9477 11.0523C15.8211 10.9257 15.75 10.754 15.75 10.575ZM3.375 10.575V4.05C3.375 3.87098 3.44612 3.69929 3.5727 3.5727C3.69929 3.44612 3.87098 3.375 4.05 3.375H10.575C10.754 3.375 10.9257 3.44612 11.0523 3.5727C11.1789 3.69929 11.25 3.87098 11.25 4.05V10.575C11.25 10.754 11.1789 10.9257 11.0523 11.0523C10.9257 11.1789 10.754 11.25 10.575 11.25H4.05C3.87098 11.25 3.69929 11.1789 3.5727 11.0523C3.44612 10.9257 3.375 10.754 3.375 10.575Z" stroke="#2D7AFF" stroke-width="1.25"/>
</svg>
