<svg width="27" height="27" viewBox="0 0 27 27" fill="none" xmlns="http://www.w3.org/2000/svg">
<path d="M13.5 12.375H19.125M13.5 7.875H19.125M9 16.875V4.05C9 3.87098 9.07112 3.69929 9.1977 3.5727C9.32429 3.44612 9.49598 3.375 9.675 3.375H22.95C23.129 3.375 23.3007 3.44612 23.4273 3.5727C23.5539 3.69929 23.625 3.87098 23.625 4.05V19.125C23.625 20.3185 23.1509 21.4631 22.307 22.307C21.4631 23.1509 20.3185 23.625 19.125 23.625" stroke="#2D7AFF" stroke-width="1.25" stroke-linecap="round" stroke-linejoin="round"/>
<path d="M5.625 16.875H13.95C14.3224 16.875 14.6284 17.1754 14.6587 17.5466C14.7971 19.2544 15.5025 23.625 19.125 23.625H6.75C5.85489 23.625 4.99645 23.2694 4.36351 22.6365C3.73058 22.0036 3.375 21.1451 3.375 20.25V19.125C3.375 18.5283 3.61205 17.956 4.03401 17.534C4.45597 17.1121 5.02826 16.875 5.625 16.875Z" stroke="#2D7AFF" stroke-width="1.25" stroke-linecap="round" stroke-linejoin="round"/>
</svg>
