<svg width="27" height="27" viewBox="0 0 27 27" fill="none" xmlns="http://www.w3.org/2000/svg">
<path d="M8.15093 15.7771L11.3329 18.9591L18.2195 15.3515C19.1871 14.8449 20.0174 14.111 20.6389 13.2129C21.2605 12.3148 21.6548 11.2792 21.7881 10.1951L22.3648 5.49775C22.3774 5.39592 22.3666 5.29256 22.3332 5.19554C22.2998 5.09852 22.2448 5.01039 22.1722 4.93784C22.0997 4.86529 22.0115 4.81023 21.9145 4.77685C21.8175 4.74347 21.7141 4.73265 21.6123 4.74521L16.9149 5.32194C15.8308 5.4552 14.7953 5.84954 13.8971 6.4711C12.999 7.09267 12.2651 7.9229 11.7585 8.89053L8.15093 15.7771ZM8.15093 15.7771L4.17346 14.9816C4.17346 14.9816 5.76445 10.2087 10.5374 11.0042M5.76445 18.1636C4.17346 19.7546 4.96895 22.1411 4.96895 22.1411C4.96895 22.1411 7.35544 22.9366 8.94643 21.3456M16.4487 16.9155C17.2442 21.6885 12.4713 23.2794 12.4713 23.2794L11.6758 19.302" stroke="#2D7AFF" stroke-width="1.25" stroke-linecap="round" stroke-linejoin="round"/>
<path d="M14.5145 12.5952C14.0925 12.1733 13.8555 11.601 13.8555 11.0042C13.8555 10.4075 14.0925 9.83521 14.5145 9.41326C14.9364 8.9913 15.5087 8.75425 16.1055 8.75425C16.7022 8.75425 17.2745 8.9913 17.6965 9.41326C18.1184 9.83521 18.3555 10.4075 18.3555 11.0042C18.3555 11.601 18.1184 12.1733 17.6965 12.5952C17.2745 13.0172 16.7022 13.2542 16.1055 13.2542C15.5087 13.2542 14.9364 13.0172 14.5145 12.5952Z" stroke="#2D7AFF" stroke-width="1.25" stroke-linecap="round" stroke-linejoin="round"/>
</svg>
