<svg width="27" height="27" viewBox="0 0 27 27" fill="none" xmlns="http://www.w3.org/2000/svg">
<path d="M3.375 14.625C7.425 5.625 19.575 5.625 23.625 14.625" stroke="#2D7AFF" stroke-width="1.25" stroke-linecap="round" stroke-linejoin="round"/>
<path d="M13.5 19.125C13.0568 19.125 12.6179 19.0377 12.2084 18.8681C11.799 18.6985 11.4269 18.4499 11.1135 18.1365C10.8001 17.8231 10.5515 17.451 10.3819 17.0416C10.2123 16.6321 10.125 16.1932 10.125 15.75C10.125 15.3068 10.2123 14.8679 10.3819 14.4584C10.5515 14.049 10.8001 13.6769 11.1135 13.3635C11.4269 13.0501 11.799 12.8015 12.2084 12.6319C12.6179 12.4623 13.0568 12.375 13.5 12.375C14.3951 12.375 15.2536 12.7306 15.8865 13.3635C16.5194 13.9964 16.875 14.8549 16.875 15.75C16.875 16.6451 16.5194 17.5036 15.8865 18.1365C15.2536 18.7694 14.3951 19.125 13.5 19.125Z" stroke="#2D7AFF" stroke-width="1.25" stroke-linecap="round" stroke-linejoin="round"/>
</svg>
