<svg width="27" height="27" viewBox="0 0 27 27" fill="none" xmlns="http://www.w3.org/2000/svg">
<path d="M15.134 11.0518L15.3673 10.7019C15.9547 9.91866 16.7738 9.34007 17.7083 9.04813C18.6429 8.7562 19.6456 8.76571 20.5745 9.07533C21.5033 9.38495 22.3112 9.97898 22.8837 10.7733C23.4562 11.5676 23.7643 12.5218 23.7643 13.5009C23.7643 14.48 23.4562 15.4343 22.8837 16.2286C22.3112 17.0229 21.5033 17.6169 20.5745 17.9265C19.6456 18.2362 18.6429 18.2457 17.7083 17.9537C16.7738 17.6618 15.9547 17.0832 15.3673 16.2999L11.6353 10.7019C11.0478 9.91866 10.2288 9.34007 9.29423 9.04813C8.35967 8.7562 7.35694 8.76571 6.42808 9.07533C5.49922 9.38495 4.69133 9.97898 4.11884 10.7733C3.54635 11.5676 3.23828 12.5218 3.23828 13.5009C3.23828 14.48 3.54635 15.4343 4.11884 16.2286C4.69133 17.0229 5.49922 17.6169 6.42808 17.9265C7.35694 18.2362 8.35967 18.2457 9.29423 17.9537C10.2288 17.6618 11.0478 17.0832 11.6353 16.2999L11.9469 15.8334" stroke="#2D7AFF" stroke-width="1.25" stroke-linecap="round" stroke-linejoin="round"/>
</svg>
