<svg width="27" height="27" viewBox="0 0 27 27" fill="none" xmlns="http://www.w3.org/2000/svg">
<path d="M13.5 11.25C13.9476 11.25 14.3768 11.0722 14.6932 10.7557C15.0097 10.4393 15.1875 10.0101 15.1875 9.5625C15.1875 9.11495 15.0097 8.68572 14.6932 8.36926C14.3768 8.05279 13.9476 7.875 13.5 7.875C13.0524 7.875 12.6232 8.05279 12.3068 8.36926C11.9903 8.68572 11.8125 9.11495 11.8125 9.5625C11.8125 10.0101 11.9903 10.4393 12.3068 10.7557C12.6232 11.0722 13.0524 11.25 13.5 11.25ZM13.5 11.25V16.875M13.5 16.875C13.9476 16.875 14.3768 17.0528 14.6932 17.3693C15.0097 17.6857 15.1875 18.1149 15.1875 18.5625C15.1875 19.0101 15.0097 19.4393 14.6932 19.7557C14.3768 20.0722 13.9476 20.25 13.5 20.25C13.0524 20.25 12.6232 20.0722 12.3068 19.7557C11.9903 19.4393 11.8125 19.0101 11.8125 18.5625C11.8125 18.1149 11.9903 17.6857 12.3068 17.3693C12.6232 17.0528 13.0524 16.875 13.5 16.875ZM9.28125 5.34375L11.8125 7.875M14.9062 10.9687L16.5938 12.6562M18.2812 16.0312C18.7288 16.0312 19.158 15.8535 19.4745 15.537C19.791 15.2205 19.9688 14.7913 19.9688 14.3437C19.9688 13.8962 19.791 13.467 19.4745 13.1505C19.158 12.834 18.7288 12.6562 18.2812 12.6562C17.8337 12.6562 17.4045 12.834 17.088 13.1505C16.7715 13.467 16.5938 13.8962 16.5938 14.3437C16.5938 14.7913 16.7715 15.2205 17.088 15.537C17.4045 15.8535 17.8337 16.0312 18.2812 16.0312Z" stroke="#2D7AFF" stroke-width="1.25" stroke-linecap="round" stroke-linejoin="round"/>
<path d="M13.0247 1.6017C13.1512 1.4753 13.3228 1.4043 13.5017 1.4043C13.6805 1.4043 13.8521 1.4753 13.9787 1.6017L25.3997 13.0227C25.5261 13.1493 25.5971 13.3208 25.5971 13.4997C25.5971 13.6786 25.5261 13.8501 25.3997 13.9767L13.9787 25.3977C13.8521 25.5241 13.6805 25.5951 13.5017 25.5951C13.3228 25.5951 13.1512 25.5241 13.0247 25.3977L1.60366 13.9767C1.47725 13.8501 1.40625 13.6786 1.40625 13.4997C1.40625 13.3208 1.47725 13.1493 1.60366 13.0227L13.0247 1.6017Z" stroke="#2D7AFF" stroke-width="1.25" stroke-linecap="round" stroke-linejoin="round"/>
</svg>
