<svg width="27" height="27" viewBox="0 0 27 27" fill="none" xmlns="http://www.w3.org/2000/svg">
<path d="M7.76925 5.10415C7.66677 5.04339 7.55003 5.01083 7.43089 5.00979C7.31176 5.00875 7.19447 5.03926 7.09094 5.09822C6.98742 5.15719 6.90134 5.2425 6.84146 5.3455C6.78158 5.4485 6.75002 5.56551 6.75 5.68465V21.3154C6.75002 21.4345 6.78158 21.5515 6.84146 21.6545C6.90134 21.7575 6.98742 21.8429 7.09094 21.9018C7.19447 21.9608 7.31176 21.9913 7.43089 21.9903C7.55003 21.9892 7.66677 21.9567 7.76925 21.8959L20.9576 14.0805C21.0583 14.0208 21.1418 13.9358 21.1997 13.834C21.2577 13.7323 21.2882 13.6171 21.2882 13.5C21.2882 13.3829 21.2577 13.2678 21.1997 13.166C21.1418 13.0642 21.0583 12.9793 20.9576 12.9195L7.76925 5.10415Z" stroke="#2D7AFF" stroke-width="1.25" stroke-linecap="round" stroke-linejoin="round"/>
</svg>
