<svg width="27" height="27" viewBox="0 0 27 27" fill="none" xmlns="http://www.w3.org/2000/svg">
<path d="M12.375 23.625V15.3C12.375 15.121 12.3039 14.9493 12.1773 14.8227C12.0507 14.6961 11.879 14.625 11.7 14.625H3.375M12.375 23.625H4.05C3.87098 23.625 3.69929 23.5539 3.5727 23.4273C3.44612 23.3007 3.375 23.129 3.375 22.95V14.625M12.375 23.625H15.75M3.375 14.625V11.25M6.75 3.375H4.05C3.87098 3.375 3.69929 3.44612 3.5727 3.5727C3.44612 3.69929 3.375 3.87098 3.375 4.05V6.75M15.75 3.375H11.25M23.625 11.25V15.75M20.25 3.375H22.95C23.129 3.375 23.3007 3.44612 23.4273 3.5727C23.5539 3.69929 23.625 3.87098 23.625 4.05V6.75M20.25 23.625H22.95C23.129 23.625 23.3007 23.5539 23.4273 23.4273C23.5539 23.3007 23.625 23.129 23.625 22.95V20.25M12.375 11.25H15.75V14.625" stroke="#2D7AFF" stroke-width="1.25" stroke-linecap="round" stroke-linejoin="round"/>
</svg>
