<svg width="27" height="27" viewBox="0 0 27 27" fill="none" xmlns="http://www.w3.org/2000/svg">
<path d="M14.625 23.625H4.5C3.90326 23.625 3.33097 23.3879 2.90901 22.966C2.48705 22.544 2.25 21.9717 2.25 21.375V5.625C2.25 5.02826 2.48705 4.45597 2.90901 4.03401C3.33097 3.61205 3.90326 3.375 4.5 3.375H22.5C23.0967 3.375 23.669 3.61205 24.091 4.03401C24.5129 4.45597 24.75 5.02826 24.75 5.625V13.5" stroke="#2D7AFF" stroke-width="1.25" stroke-linecap="round"/>
<path d="M2.25 7.87417H24.75M5.625 5.63542L5.63625 5.62305M9 5.63542L9.01125 5.62305M12.375 5.63542L12.3863 5.62305M21.366 15.8898L24.2415 16.6199C24.5408 16.6964 24.7511 16.9687 24.7421 17.2769C24.5486 23.7547 20.8125 24.7492 20.8125 24.7492C20.8125 24.7492 17.0764 23.7547 16.8829 17.2769C16.8798 17.127 16.9276 16.9804 17.0185 16.8611C17.1095 16.7418 17.2381 16.6568 17.3835 16.6199L20.259 15.8898C20.6224 15.7975 21.0026 15.7975 21.366 15.8898Z" stroke="#2D7AFF" stroke-width="1.25" stroke-linecap="round" stroke-linejoin="round"/>
</svg>
