<svg width="27" height="27" viewBox="0 0 27 27" fill="none" xmlns="http://www.w3.org/2000/svg">
<path d="M19.6875 9C19.6875 9 21.375 10.6875 21.375 13.5C21.375 16.3125 19.6875 18 19.6875 18M23.0625 5.625C23.0625 5.625 25.875 8.4375 25.875 13.5C25.875 18.5625 23.0625 21.375 23.0625 21.375M7.3125 9C7.3125 9 5.625 10.6875 5.625 13.5C5.625 16.3125 7.3125 18 7.3125 18M3.9375 5.625C3.9375 5.625 1.125 8.4375 1.125 13.5C1.125 18.5625 3.9375 21.375 3.9375 21.375" stroke="#2D7AFF" stroke-width="1.25" stroke-linecap="round" stroke-linejoin="round"/>
<path d="M13.5 14.625C13.7984 14.625 14.0845 14.5065 14.2955 14.2955C14.5065 14.0845 14.625 13.7984 14.625 13.5C14.625 13.2016 14.5065 12.9155 14.2955 12.7045C14.0845 12.4935 13.7984 12.375 13.5 12.375C13.2016 12.375 12.9155 12.4935 12.7045 12.7045C12.4935 12.9155 12.375 13.2016 12.375 13.5C12.375 13.7984 12.4935 14.0845 12.7045 14.2955C12.9155 14.5065 13.2016 14.625 13.5 14.625Z" fill="#2D7AFF" stroke="#2D7AFF" stroke-width="1.25" stroke-linecap="round" stroke-linejoin="round"/>
</svg>
