<svg width="74" height="83" viewBox="0 0 74 83" fill="none" xmlns="http://www.w3.org/2000/svg">
<path d="M4.16012 18.3418L33.094 1.49786C35.3816 0.167381 38.2108 0.167381 40.5037 1.49786L69.4376 18.3418C71.7041 19.6617 73.0977 22.086 73.0977 24.7049V57.9773C73.0977 60.5962 71.7041 63.0205 69.4376 64.3405L40.5037 81.1844C38.2161 82.5149 35.3868 82.5149 33.094 81.1844L4.16012 64.3405C1.89358 63.0205 0.5 60.5962 0.5 57.9773V24.7049C0.5 22.086 1.89358 19.6617 4.16012 18.3418Z" fill="#F7F7F5" fill-opacity="0.59" stroke="#8FB4F5" stroke-miterlimit="10"/>
<path d="M8.667 21.5167L33.6042 7.00239C35.5763 5.85597 38.0163 5.85597 39.9884 7.00239L64.9256 21.5167C66.8766 22.6526 68.0809 24.7403 68.0809 27.0016V55.6778C68.0809 57.9391 66.8819 60.0268 64.9256 61.1627L39.9884 75.677C38.0163 76.8234 35.5763 76.8234 33.6042 75.677L8.667 61.1627C6.71598 60.0268 5.51172 57.9391 5.51172 55.6778V27.0016C5.51172 24.7403 6.71072 22.6526 8.667 21.5167Z" fill="url(#paint0_linear_109_1809)"/>
<g filter="url(#filter0_d_109_1809)">
<path d="M43.8346 32.3971C43.8346 34.2813 43.0862 36.0883 41.7539 37.4205C40.4216 38.7528 38.6146 39.5013 36.7305 39.5013C34.8463 39.5013 33.0394 38.7528 31.7071 37.4205C30.3748 36.0883 29.6263 34.2813 29.6263 32.3971C29.6263 30.513 30.3748 28.706 31.7071 27.3737C33.0394 26.0414 34.8463 25.293 36.7305 25.293C38.6146 25.293 40.4216 26.0414 41.7539 27.3737C43.0862 28.706 43.8346 30.513 43.8346 32.3971ZM34.9544 48.3815C34.9544 50.2657 34.206 52.0726 32.8737 53.4049C31.5414 54.7372 29.7344 55.4857 27.8503 55.4857C25.9661 55.4857 24.1591 54.7372 22.8269 53.4049C21.4946 52.0726 20.7461 50.2657 20.7461 48.3815C20.7461 46.4974 21.4946 44.6904 22.8269 43.3581C24.1591 42.0258 25.9661 41.2773 27.8503 41.2773C29.7344 41.2773 31.5414 42.0258 32.8737 43.3581C34.206 44.6904 34.9544 46.4974 34.9544 48.3815ZM52.7148 48.3815C52.7148 50.2657 51.9664 52.0726 50.6341 53.4049C49.3018 54.7372 47.4948 55.4857 45.6107 55.4857C43.7265 55.4857 41.9196 54.7372 40.5873 53.4049C39.255 52.0726 38.5065 50.2657 38.5065 48.3815C38.5065 46.4974 39.255 44.6904 40.5873 43.3581C41.9196 42.0258 43.7265 41.2773 45.6107 41.2773C47.4948 41.2773 49.3018 42.0258 50.6341 43.3581C51.9664 44.6904 52.7148 46.4974 52.7148 48.3815Z" fill="white"/>
</g>
<defs>
<filter id="filter0_d_109_1809" x="12.7461" y="23.293" width="47.9688" height="46.1934" filterUnits="userSpaceOnUse" color-interpolation-filters="sRGB">
<feFlood flood-opacity="0" result="BackgroundImageFix"/>
<feColorMatrix in="SourceAlpha" type="matrix" values="0 0 0 0 0 0 0 0 0 0 0 0 0 0 0 0 0 0 127 0" result="hardAlpha"/>
<feOffset dy="6"/>
<feGaussianBlur stdDeviation="4"/>
<feComposite in2="hardAlpha" operator="out"/>
<feColorMatrix type="matrix" values="0 0 0 0 0.118632 0 0 0 0 0.372589 0 0 0 0 0.812782 0 0 0 0.4 0"/>
<feBlend mode="normal" in2="BackgroundImageFix" result="effect1_dropShadow_109_1809"/>
<feBlend mode="normal" in="SourceGraphic" in2="effect1_dropShadow_109_1809" result="shape"/>
</filter>
<linearGradient id="paint0_linear_109_1809" x1="36.7963" y1="76.5368" x2="36.7963" y2="6.14258" gradientUnits="userSpaceOnUse">
<stop stop-color="#2D7AFF"/>
<stop offset="1" stop-color="#A6C7FF"/>
</linearGradient>
</defs>
</svg>
