<svg width="74" height="83" viewBox="0 0 74 83" fill="none" xmlns="http://www.w3.org/2000/svg">
<path d="M4.16012 18.3418L33.094 1.49786C35.3816 0.167381 38.2108 0.167381 40.5037 1.49786L69.4376 18.3418C71.7041 19.6617 73.0977 22.086 73.0977 24.7049V57.9773C73.0977 60.5962 71.7041 63.0205 69.4376 64.3405L40.5037 81.1844C38.2161 82.5149 35.3868 82.5149 33.094 81.1844L4.16012 64.3405C1.89358 63.0205 0.5 60.5962 0.5 57.9773V24.7049C0.5 22.086 1.89358 19.6617 4.16012 18.3418Z" fill="#F7F7F5" fill-opacity="0.59" stroke="#8FB4F5" stroke-miterlimit="10"/>
<path d="M8.667 21.5167L33.6042 7.00239C35.5763 5.85597 38.0163 5.85597 39.9884 7.00239L64.9256 21.5167C66.8766 22.6526 68.0809 24.7403 68.0809 27.0016V55.6778C68.0809 57.9391 66.8819 60.0268 64.9256 61.1627L39.9884 75.677C38.0163 76.8234 35.5763 76.8234 33.6042 75.677L8.667 61.1627C6.71598 60.0268 5.51172 57.9391 5.51172 55.6778V27.0016C5.51172 24.7403 6.71072 22.6526 8.667 21.5167Z" fill="url(#paint0_linear_109_1821)"/>
<g filter="url(#filter0_d_109_1821)">
<path d="M31.0567 46.9063H25.3854C24.6537 46.9063 24.1122 46.5789 23.7609 45.9239C23.4097 45.269 23.4481 44.636 23.8762 44.025L37.5511 24.3586C37.856 23.9318 38.2524 23.6348 38.7402 23.4677C39.2281 23.3006 39.7312 23.3079 40.2495 23.4897C40.7679 23.6714 41.149 23.9915 41.3929 24.4501C41.6368 24.9087 41.7283 25.3965 41.6673 25.9137L40.2038 37.7592H47.2928C48.0856 37.7592 48.6423 38.1098 48.9631 38.8111C49.2838 39.5124 49.1844 40.1679 48.6649 40.7777L33.6179 58.7976C33.2825 59.194 32.8708 59.4532 32.383 59.5751C31.8951 59.6971 31.4225 59.6513 30.9652 59.4379C30.5078 59.2245 30.1499 58.897 29.8913 58.4555C29.6328 58.014 29.5334 57.5335 29.5931 57.0139L31.0567 46.9063Z" fill="white"/>
</g>
<defs>
<filter id="filter0_d_109_1821" x="15.5234" y="21.3477" width="41.625" height="52.2949" filterUnits="userSpaceOnUse" color-interpolation-filters="sRGB">
<feFlood flood-opacity="0" result="BackgroundImageFix"/>
<feColorMatrix in="SourceAlpha" type="matrix" values="0 0 0 0 0 0 0 0 0 0 0 0 0 0 0 0 0 0 127 0" result="hardAlpha"/>
<feOffset dy="6"/>
<feGaussianBlur stdDeviation="4"/>
<feComposite in2="hardAlpha" operator="out"/>
<feColorMatrix type="matrix" values="0 0 0 0 0.118632 0 0 0 0 0.372589 0 0 0 0 0.812782 0 0 0 0.4 0"/>
<feBlend mode="normal" in2="BackgroundImageFix" result="effect1_dropShadow_109_1821"/>
<feBlend mode="normal" in="SourceGraphic" in2="effect1_dropShadow_109_1821" result="shape"/>
</filter>
<linearGradient id="paint0_linear_109_1821" x1="36.7963" y1="76.5368" x2="36.7963" y2="6.14258" gradientUnits="userSpaceOnUse">
<stop stop-color="#2D7AFF"/>
<stop offset="1" stop-color="#A6C7FF"/>
</linearGradient>
</defs>
</svg>
