<svg width="639" height="507" viewBox="0 0 639 507" fill="none" xmlns="http://www.w3.org/2000/svg">
<g clip-path="url(#clip0_162_16065)">
<rect width="639" height="507" rx="17.8015" fill="#A2C4FF"/>
<rect x="-175" y="-5.64062" width="965.259" height="594.006" fill="url(#paint0_linear_162_16065)"/>
<rect x="40" y="40" width="559" height="427" rx="9.75141" fill="white"/>
<path d="M160.512 84.5859H478.488" stroke="url(#paint1_linear_162_16065)" stroke-width="2" stroke-linecap="round"/>
<rect x="143" y="68.0859" width="33" height="33" rx="16.5" fill="#2D7AFF"/>
<path d="M161.534 79.1094V91.1094H159.36V81.2246H159.29L156.483 83.0176V81.0254L159.466 79.1094H161.534Z" fill="white"/>
<path d="M123.596 117.758C123.556 117.386 123.388 117.096 123.093 116.888C122.8 116.681 122.42 116.577 121.951 116.577C121.621 116.577 121.339 116.627 121.103 116.727C120.867 116.826 120.687 116.961 120.562 117.131C120.437 117.302 120.373 117.496 120.37 117.715C120.37 117.897 120.411 118.055 120.494 118.188C120.579 118.322 120.694 118.435 120.839 118.529C120.984 118.62 121.144 118.697 121.32 118.759C121.496 118.822 121.674 118.874 121.853 118.917L122.671 119.121C123.001 119.198 123.317 119.302 123.621 119.433C123.928 119.563 124.202 119.728 124.444 119.927C124.688 120.126 124.881 120.366 125.023 120.647C125.165 120.928 125.237 121.258 125.237 121.636C125.237 122.147 125.106 122.597 124.844 122.987C124.583 123.373 124.205 123.675 123.711 123.894C123.219 124.11 122.624 124.218 121.925 124.218C121.246 124.218 120.657 124.113 120.157 123.903C119.66 123.692 119.271 123.386 118.989 122.982C118.711 122.579 118.56 122.087 118.538 121.508H120.093C120.116 121.812 120.21 122.065 120.374 122.266C120.539 122.468 120.754 122.619 121.018 122.718C121.285 122.817 121.583 122.867 121.913 122.867C122.256 122.867 122.558 122.816 122.816 122.714C123.077 122.609 123.282 122.464 123.43 122.279C123.577 122.092 123.653 121.873 123.656 121.623C123.653 121.396 123.586 121.208 123.455 121.06C123.325 120.91 123.141 120.785 122.906 120.685C122.673 120.583 122.4 120.492 122.087 120.413L121.094 120.157C120.376 119.972 119.808 119.692 119.39 119.317C118.975 118.94 118.768 118.438 118.768 117.813C118.768 117.299 118.907 116.849 119.185 116.462C119.467 116.076 119.849 115.776 120.332 115.563C120.815 115.347 121.362 115.239 121.972 115.239C122.592 115.239 123.134 115.347 123.6 115.563C124.069 115.776 124.437 116.073 124.704 116.454C124.971 116.832 125.109 117.266 125.117 117.758H123.596ZM129.475 124.214C128.819 124.214 128.252 124.077 127.775 123.805C127.301 123.529 126.936 123.14 126.68 122.637C126.424 122.131 126.297 121.536 126.297 120.852C126.297 120.178 126.424 119.587 126.68 119.079C126.939 118.567 127.299 118.17 127.762 117.886C128.225 117.599 128.77 117.455 129.395 117.455C129.798 117.455 130.179 117.521 130.537 117.651C130.897 117.779 131.216 117.978 131.491 118.248C131.77 118.518 131.988 118.862 132.147 119.279C132.306 119.694 132.386 120.188 132.386 120.762V121.235H127.021V120.195H130.907C130.904 119.9 130.841 119.637 130.716 119.407C130.591 119.174 130.416 118.991 130.191 118.857C129.97 118.724 129.711 118.657 129.416 118.657C129.1 118.657 128.824 118.734 128.585 118.887C128.346 119.038 128.16 119.237 128.027 119.484C127.896 119.728 127.829 119.996 127.826 120.289V121.197C127.826 121.577 127.896 121.904 128.035 122.177C128.174 122.447 128.369 122.654 128.619 122.799C128.869 122.941 129.162 123.012 129.497 123.012C129.721 123.012 129.924 122.981 130.106 122.918C130.288 122.853 130.446 122.758 130.579 122.633C130.713 122.508 130.814 122.353 130.882 122.168L132.322 122.33C132.231 122.711 132.058 123.043 131.802 123.327C131.549 123.609 131.225 123.827 130.831 123.984C130.436 124.137 129.984 124.214 129.475 124.214ZM133.691 124.086V117.54H135.187V118.631H135.255C135.374 118.254 135.579 117.962 135.869 117.758C136.161 117.55 136.495 117.447 136.87 117.447C136.955 117.447 137.05 117.451 137.156 117.46C137.263 117.465 137.353 117.475 137.424 117.489V118.908C137.359 118.886 137.255 118.866 137.113 118.849C136.974 118.829 136.839 118.819 136.708 118.819C136.427 118.819 136.174 118.88 135.95 119.002C135.728 119.121 135.553 119.288 135.425 119.501C135.298 119.714 135.234 119.96 135.234 120.238V124.086H133.691ZM144.495 117.54L142.164 124.086H140.459L138.128 117.54H139.773L141.277 122.403H141.346L142.854 117.54H144.495ZM145.562 124.086V117.54H147.105V124.086H145.562ZM146.338 116.612C146.093 116.612 145.883 116.531 145.707 116.369C145.531 116.204 145.443 116.006 145.443 115.776C145.443 115.543 145.531 115.346 145.707 115.184C145.883 115.019 146.093 114.937 146.338 114.937C146.585 114.937 146.795 115.019 146.968 115.184C147.145 115.346 147.233 115.543 147.233 115.776C147.233 116.006 147.145 116.204 146.968 116.369C146.795 116.531 146.585 116.612 146.338 116.612ZM151.546 124.214C150.893 124.214 150.332 124.07 149.863 123.783C149.397 123.496 149.038 123.1 148.785 122.594C148.535 122.086 148.41 121.501 148.41 120.839C148.41 120.174 148.538 119.587 148.793 119.079C149.049 118.567 149.41 118.17 149.876 117.886C150.344 117.599 150.898 117.455 151.538 117.455C152.069 117.455 152.539 117.553 152.948 117.749C153.36 117.942 153.688 118.217 153.933 118.572C154.177 118.924 154.316 119.336 154.35 119.808H152.876C152.816 119.492 152.674 119.229 152.45 119.019C152.228 118.806 151.931 118.7 151.559 118.7C151.244 118.7 150.967 118.785 150.728 118.955C150.489 119.123 150.303 119.364 150.17 119.68C150.039 119.995 149.974 120.373 149.974 120.813C149.974 121.259 150.039 121.643 150.17 121.964C150.3 122.282 150.484 122.528 150.719 122.701C150.958 122.871 151.238 122.957 151.559 122.957C151.786 122.957 151.989 122.914 152.168 122.829C152.35 122.741 152.502 122.614 152.624 122.45C152.746 122.285 152.83 122.085 152.876 121.849H154.35C154.313 122.312 154.177 122.722 153.941 123.08C153.705 123.435 153.384 123.714 152.978 123.915C152.572 124.114 152.094 124.214 151.546 124.214ZM158.515 124.214C157.858 124.214 157.292 124.077 156.814 123.805C156.34 123.529 155.975 123.14 155.719 122.637C155.463 122.131 155.336 121.536 155.336 120.852C155.336 120.178 155.463 119.587 155.719 119.079C155.978 118.567 156.338 118.17 156.801 117.886C157.265 117.599 157.809 117.455 158.434 117.455C158.837 117.455 159.218 117.521 159.576 117.651C159.936 117.779 160.255 117.978 160.53 118.248C160.809 118.518 161.027 118.862 161.186 119.279C161.346 119.694 161.425 120.188 161.425 120.762V121.235H156.06V120.195H159.946C159.944 119.9 159.88 119.637 159.755 119.407C159.63 119.174 159.455 118.991 159.23 118.857C159.009 118.724 158.75 118.657 158.455 118.657C158.14 118.657 157.863 118.734 157.624 118.887C157.385 119.038 157.199 119.237 157.066 119.484C156.935 119.728 156.868 119.996 156.865 120.289V121.197C156.865 121.577 156.935 121.904 157.074 122.177C157.213 122.447 157.408 122.654 157.658 122.799C157.908 122.941 158.201 123.012 158.536 123.012C158.76 123.012 158.963 122.981 159.145 122.918C159.327 122.853 159.485 122.758 159.618 122.633C159.752 122.508 159.853 122.353 159.921 122.168L161.361 122.33C161.27 122.711 161.097 123.043 160.841 123.327C160.588 123.609 160.265 123.827 159.87 123.984C159.475 124.137 159.023 124.214 158.515 124.214ZM167.356 115.359V124.086H165.775V115.359H167.356ZM170.542 120.251V124.086H169V117.54H170.474V118.653H170.551C170.701 118.286 170.941 117.995 171.271 117.779C171.603 117.563 172.014 117.455 172.502 117.455C172.954 117.455 173.348 117.552 173.683 117.745C174.021 117.938 174.282 118.218 174.467 118.585C174.654 118.951 174.747 119.396 174.744 119.918V124.086H173.201V120.157C173.201 119.719 173.088 119.377 172.86 119.13C172.636 118.883 172.325 118.759 171.927 118.759C171.657 118.759 171.417 118.819 171.207 118.938C171 119.055 170.836 119.224 170.717 119.445C170.6 119.667 170.542 119.935 170.542 120.251ZM179.627 117.54V118.734H175.758V117.54H179.627ZM176.725 124.086V116.923C176.725 116.482 176.816 116.116 176.998 115.823C177.183 115.531 177.43 115.312 177.74 115.167C178.049 115.022 178.393 114.95 178.771 114.95C179.038 114.95 179.275 114.971 179.483 115.013C179.69 115.056 179.843 115.094 179.943 115.129L179.636 116.322C179.571 116.302 179.488 116.282 179.389 116.262C179.289 116.239 179.179 116.228 179.056 116.228C178.77 116.228 178.566 116.298 178.447 116.437C178.331 116.573 178.272 116.769 178.272 117.025V124.086H176.725ZM183.445 124.214C182.805 124.214 182.251 124.073 181.783 123.792C181.314 123.511 180.95 123.117 180.692 122.612C180.436 122.106 180.308 121.515 180.308 120.839C180.308 120.163 180.436 119.57 180.692 119.062C180.95 118.553 181.314 118.158 181.783 117.877C182.251 117.596 182.805 117.455 183.445 117.455C184.084 117.455 184.638 117.596 185.107 117.877C185.575 118.158 185.938 118.553 186.193 119.062C186.452 119.57 186.581 120.163 186.581 120.839C186.581 121.515 186.452 122.106 186.193 122.612C185.938 123.117 185.575 123.511 185.107 123.792C184.638 124.073 184.084 124.214 183.445 124.214ZM183.453 122.978C183.8 122.978 184.089 122.883 184.322 122.692C184.555 122.499 184.729 122.241 184.842 121.917C184.959 121.593 185.017 121.232 185.017 120.835C185.017 120.434 184.959 120.072 184.842 119.748C184.729 119.421 184.555 119.161 184.322 118.968C184.089 118.775 183.8 118.678 183.453 118.678C183.098 118.678 182.803 118.775 182.567 118.968C182.334 119.161 182.159 119.421 182.043 119.748C181.929 120.072 181.872 120.434 181.872 120.835C181.872 121.232 181.929 121.593 182.043 121.917C182.159 122.241 182.334 122.499 182.567 122.692C182.803 122.883 183.098 122.978 183.453 122.978ZM193.475 124.214C192.878 124.214 192.365 124.106 191.936 123.89C191.507 123.674 191.176 123.383 190.944 123.016C190.713 122.647 190.598 122.231 190.598 121.768C190.598 121.418 190.669 121.109 190.811 120.839C190.956 120.569 191.155 120.319 191.408 120.089C191.664 119.859 191.959 119.63 192.294 119.403L193.841 118.35C194.069 118.202 194.24 118.046 194.357 117.881C194.476 117.717 194.536 117.523 194.536 117.302C194.536 117.114 194.456 116.937 194.297 116.769C194.141 116.602 193.925 116.518 193.65 116.518C193.465 116.518 193.301 116.562 193.159 116.65C193.02 116.735 192.911 116.847 192.831 116.987C192.755 117.126 192.716 117.273 192.716 117.43C192.716 117.62 192.769 117.813 192.874 118.009C192.982 118.205 193.121 118.408 193.292 118.619C193.465 118.829 193.65 119.052 193.846 119.288L197.941 124.086H196.27L192.87 120.191C192.617 119.896 192.373 119.604 192.137 119.317C191.904 119.031 191.712 118.732 191.561 118.423C191.414 118.11 191.34 117.772 191.34 117.408C191.34 116.996 191.435 116.629 191.625 116.305C191.816 115.978 192.081 115.721 192.422 115.533C192.766 115.346 193.168 115.252 193.628 115.252C194.088 115.252 194.483 115.343 194.813 115.525C195.142 115.707 195.397 115.948 195.576 116.249C195.755 116.55 195.844 116.879 195.844 117.234C195.844 117.646 195.742 118.015 195.537 118.342C195.333 118.665 195.049 118.96 194.685 119.224L192.921 120.515C192.631 120.725 192.424 120.938 192.299 121.154C192.174 121.367 192.111 121.549 192.111 121.7C192.111 121.93 192.169 122.138 192.286 122.326C192.402 122.513 192.566 122.664 192.776 122.778C192.989 122.888 193.238 122.944 193.522 122.944C193.834 122.944 194.142 122.874 194.446 122.735C194.75 122.593 195.027 122.391 195.277 122.13C195.527 121.869 195.726 121.556 195.874 121.192C196.022 120.826 196.096 120.42 196.096 119.974H197.421C197.421 120.525 197.36 121.005 197.238 121.414C197.115 121.82 196.958 122.164 196.765 122.445C196.571 122.724 196.367 122.947 196.151 123.114C196.083 123.163 196.017 123.211 195.955 123.259C195.892 123.308 195.827 123.356 195.759 123.404C195.452 123.683 195.093 123.887 194.681 124.018C194.272 124.148 193.87 124.214 193.475 124.214ZM141.35 133.758C141.31 133.386 141.142 133.096 140.847 132.888C140.554 132.681 140.174 132.577 139.705 132.577C139.375 132.577 139.093 132.627 138.857 132.727C138.621 132.826 138.441 132.961 138.316 133.131C138.191 133.302 138.127 133.496 138.124 133.715C138.124 133.897 138.165 134.055 138.248 134.188C138.333 134.322 138.448 134.435 138.593 134.529C138.738 134.62 138.898 134.697 139.074 134.759C139.25 134.822 139.428 134.874 139.607 134.917L140.425 135.121C140.755 135.198 141.071 135.302 141.375 135.433C141.682 135.563 141.956 135.728 142.198 135.927C142.442 136.126 142.635 136.366 142.777 136.647C142.919 136.928 142.99 137.258 142.99 137.636C142.99 138.147 142.86 138.597 142.598 138.987C142.337 139.373 141.959 139.675 141.465 139.894C140.973 140.11 140.378 140.218 139.679 140.218C139 140.218 138.411 140.113 137.911 139.903C137.414 139.692 137.025 139.386 136.743 138.982C136.465 138.579 136.314 138.087 136.292 137.508H137.847C137.87 137.812 137.963 138.065 138.128 138.266C138.293 138.468 138.507 138.619 138.772 138.718C139.039 138.817 139.337 138.867 139.667 138.867C140.01 138.867 140.311 138.816 140.57 138.714C140.831 138.609 141.036 138.464 141.184 138.279C141.331 138.092 141.407 137.873 141.409 137.623C141.407 137.396 141.34 137.208 141.209 137.06C141.078 136.91 140.895 136.785 140.659 136.685C140.426 136.583 140.154 136.492 139.841 136.413L138.848 136.157C138.13 135.972 137.561 135.692 137.144 135.317C136.729 134.94 136.522 134.438 136.522 133.813C136.522 133.299 136.661 132.849 136.939 132.462C137.221 132.076 137.603 131.776 138.086 131.563C138.569 131.347 139.115 131.239 139.726 131.239C140.346 131.239 140.888 131.347 141.354 131.563C141.823 131.776 142.191 132.073 142.458 132.454C142.725 132.832 142.863 133.266 142.871 133.758H141.35ZM147.187 140.214C146.548 140.214 145.994 140.073 145.525 139.792C145.056 139.511 144.692 139.117 144.434 138.612C144.178 138.106 144.05 137.515 144.05 136.839C144.05 136.163 144.178 135.57 144.434 135.062C144.692 134.553 145.056 134.158 145.525 133.877C145.994 133.596 146.548 133.455 147.187 133.455C147.826 133.455 148.38 133.596 148.849 133.877C149.317 134.158 149.68 134.553 149.935 135.062C150.194 135.57 150.323 136.163 150.323 136.839C150.323 137.515 150.194 138.106 149.935 138.612C149.68 139.117 149.317 139.511 148.849 139.792C148.38 140.073 147.826 140.214 147.187 140.214ZM147.195 138.978C147.542 138.978 147.832 138.883 148.065 138.692C148.298 138.499 148.471 138.241 148.585 137.917C148.701 137.593 148.759 137.232 148.759 136.835C148.759 136.434 148.701 136.072 148.585 135.748C148.471 135.421 148.298 135.161 148.065 134.968C147.832 134.775 147.542 134.678 147.195 134.678C146.84 134.678 146.545 134.775 146.309 134.968C146.076 135.161 145.901 135.421 145.785 135.748C145.671 136.072 145.614 136.434 145.614 136.835C145.614 137.232 145.671 137.593 145.785 137.917C145.901 138.241 146.076 138.499 146.309 138.692C146.545 138.883 146.84 138.978 147.195 138.978ZM155.804 137.333V133.54H157.347V140.086H155.851V138.923H155.783C155.635 139.289 155.392 139.589 155.054 139.822C154.719 140.055 154.306 140.171 153.814 140.171C153.385 140.171 153.006 140.076 152.676 139.886C152.35 139.692 152.094 139.413 151.909 139.046C151.725 138.677 151.632 138.231 151.632 137.708V133.54H153.175V137.469C153.175 137.884 153.289 138.214 153.516 138.458C153.743 138.702 154.042 138.825 154.411 138.825C154.638 138.825 154.858 138.769 155.071 138.658C155.284 138.548 155.459 138.383 155.596 138.164C155.735 137.942 155.804 137.665 155.804 137.333ZM158.933 140.086V133.54H160.429V134.631H160.497C160.616 134.254 160.821 133.962 161.111 133.758C161.403 133.55 161.737 133.447 162.112 133.447C162.197 133.447 162.293 133.451 162.398 133.46C162.506 133.465 162.595 133.475 162.666 133.489V134.908C162.601 134.886 162.497 134.866 162.355 134.849C162.216 134.829 162.081 134.819 161.95 134.819C161.669 134.819 161.416 134.88 161.192 135.002C160.97 135.121 160.795 135.288 160.668 135.501C160.54 135.714 160.476 135.96 160.476 136.238V140.086H158.933ZM166.277 140.214C165.623 140.214 165.062 140.07 164.593 139.783C164.127 139.496 163.768 139.1 163.515 138.594C163.265 138.086 163.14 137.501 163.14 136.839C163.14 136.174 163.268 135.587 163.524 135.079C163.779 134.567 164.14 134.17 164.606 133.886C165.075 133.599 165.629 133.455 166.268 133.455C166.799 133.455 167.27 133.553 167.679 133.749C168.091 133.942 168.419 134.217 168.663 134.572C168.907 134.924 169.047 135.336 169.081 135.808H167.606C167.547 135.492 167.404 135.229 167.18 135.019C166.958 134.806 166.662 134.7 166.289 134.7C165.974 134.7 165.697 134.785 165.458 134.955C165.22 135.123 165.034 135.364 164.9 135.68C164.77 135.995 164.704 136.373 164.704 136.813C164.704 137.259 164.77 137.643 164.9 137.964C165.031 138.282 165.214 138.528 165.45 138.701C165.689 138.871 165.968 138.957 166.289 138.957C166.517 138.957 166.72 138.914 166.899 138.829C167.081 138.741 167.233 138.614 167.355 138.45C167.477 138.285 167.561 138.085 167.606 137.849H169.081C169.044 138.312 168.907 138.722 168.672 139.08C168.436 139.435 168.115 139.714 167.708 139.915C167.302 140.114 166.825 140.214 166.277 140.214ZM173.245 140.214C172.589 140.214 172.022 140.077 171.545 139.805C171.07 139.529 170.705 139.14 170.45 138.637C170.194 138.131 170.066 137.536 170.066 136.852C170.066 136.178 170.194 135.587 170.45 135.079C170.708 134.567 171.069 134.17 171.532 133.886C171.995 133.599 172.539 133.455 173.164 133.455C173.567 133.455 173.948 133.521 174.306 133.651C174.667 133.779 174.985 133.978 175.261 134.248C175.539 134.518 175.758 134.862 175.917 135.279C176.076 135.694 176.156 136.188 176.156 136.762V137.235H170.79V136.195H174.677C174.674 135.9 174.61 135.637 174.485 135.407C174.36 135.174 174.185 134.991 173.961 134.857C173.739 134.724 173.481 134.657 173.185 134.657C172.87 134.657 172.593 134.734 172.354 134.887C172.116 135.038 171.93 135.237 171.796 135.484C171.665 135.728 171.599 135.996 171.596 136.289V137.197C171.596 137.577 171.665 137.904 171.805 138.177C171.944 138.447 172.138 138.654 172.388 138.799C172.638 138.941 172.931 139.012 173.266 139.012C173.491 139.012 173.694 138.981 173.876 138.918C174.058 138.853 174.215 138.758 174.349 138.633C174.482 138.508 174.583 138.353 174.651 138.168L176.092 138.33C176.001 138.711 175.827 139.043 175.572 139.327C175.319 139.609 174.995 139.827 174.6 139.984C174.205 140.137 173.754 140.214 173.245 140.214ZM182.634 135.271L181.228 135.424C181.188 135.282 181.118 135.148 181.019 135.023C180.922 134.898 180.792 134.798 180.627 134.721C180.462 134.644 180.26 134.606 180.022 134.606C179.701 134.606 179.431 134.675 179.212 134.815C178.996 134.954 178.89 135.134 178.892 135.356C178.89 135.546 178.959 135.701 179.101 135.82C179.246 135.94 179.485 136.038 179.817 136.114L180.934 136.353C181.553 136.487 182.013 136.698 182.314 136.988C182.618 137.278 182.772 137.657 182.775 138.126C182.772 138.538 182.651 138.901 182.412 139.217C182.176 139.529 181.848 139.773 181.428 139.95C181.007 140.126 180.525 140.214 179.979 140.214C179.178 140.214 178.533 140.046 178.044 139.711C177.556 139.373 177.265 138.903 177.171 138.3L178.675 138.156C178.743 138.451 178.888 138.674 179.11 138.825C179.331 138.975 179.62 139.05 179.975 139.05C180.341 139.05 180.635 138.975 180.857 138.825C181.081 138.674 181.194 138.488 181.194 138.266C181.194 138.079 181.121 137.924 180.976 137.802C180.834 137.68 180.613 137.586 180.311 137.521L179.195 137.286C178.567 137.156 178.103 136.935 177.801 136.626C177.5 136.313 177.351 135.918 177.354 135.441C177.351 135.038 177.461 134.688 177.682 134.393C177.907 134.094 178.218 133.864 178.615 133.702C179.016 133.538 179.478 133.455 180 133.455C180.767 133.455 181.371 133.619 181.811 133.945C182.255 134.272 182.529 134.714 182.634 135.271Z" fill="#535862"/>
<rect x="305" y="68.0859" width="33" height="33" rx="16.5" fill="#E6EBF2"/>
<path d="M317.169 91.1094V89.5391L321.335 85.4551C321.733 85.0527 322.065 84.6953 322.331 84.3828C322.597 84.0703 322.796 83.7676 322.929 83.4746C323.062 83.1816 323.128 82.8691 323.128 82.5371C323.128 82.1582 323.042 81.834 322.87 81.5645C322.698 81.291 322.462 81.0801 322.161 80.9316C321.86 80.7832 321.519 80.709 321.136 80.709C320.741 80.709 320.396 80.791 320.099 80.9551C319.802 81.1152 319.571 81.3437 319.407 81.6406C319.247 81.9375 319.167 82.291 319.167 82.7012H317.099C317.099 81.9395 317.272 81.2773 317.62 80.7148C317.968 80.1523 318.446 79.7168 319.056 79.4082C319.669 79.0996 320.372 78.9453 321.165 78.9453C321.97 78.9453 322.677 79.0957 323.286 79.3965C323.896 79.6973 324.368 80.1094 324.704 80.6328C325.044 81.1562 325.214 81.7539 325.214 82.4258C325.214 82.875 325.128 83.3164 324.956 83.75C324.784 84.1836 324.481 84.6641 324.048 85.1914C323.618 85.7187 323.015 86.3574 322.237 87.1074L320.169 89.2109V89.293H325.396V91.1094H317.169Z" fill="white"/>
<path d="M306.371 124.086V115.359H309.711C310.342 115.359 310.866 115.458 311.284 115.657C311.704 115.853 312.018 116.121 312.226 116.462C312.436 116.803 312.541 117.19 312.541 117.621C312.541 117.977 312.473 118.281 312.336 118.533C312.2 118.783 312.017 118.987 311.787 119.143C311.557 119.299 311.3 119.411 311.015 119.479V119.565C311.325 119.582 311.622 119.677 311.906 119.85C312.193 120.021 312.427 120.262 312.609 120.575C312.791 120.887 312.882 121.265 312.882 121.708C312.882 122.16 312.773 122.566 312.554 122.927C312.335 123.285 312.006 123.567 311.565 123.775C311.125 123.982 310.571 124.086 309.903 124.086H306.371ZM307.952 122.765H309.652C310.226 122.765 310.639 122.656 310.892 122.437C311.148 122.215 311.275 121.931 311.275 121.585C311.275 121.326 311.211 121.093 311.084 120.886C310.956 120.675 310.774 120.511 310.538 120.391C310.302 120.269 310.021 120.208 309.694 120.208H307.952V122.765ZM307.952 119.07H309.515C309.788 119.07 310.034 119.021 310.253 118.921C310.471 118.819 310.643 118.675 310.768 118.491C310.896 118.303 310.96 118.082 310.96 117.826C310.96 117.488 310.841 117.21 310.602 116.991C310.366 116.772 310.015 116.663 309.55 116.663H307.952V119.07ZM318.361 121.333V117.54H319.904V124.086H318.408V122.923H318.34C318.192 123.289 317.949 123.589 317.611 123.822C317.276 124.055 316.862 124.171 316.371 124.171C315.942 124.171 315.563 124.076 315.233 123.886C314.906 123.692 314.651 123.413 314.466 123.046C314.281 122.677 314.189 122.231 314.189 121.708V117.54H315.732V121.469C315.732 121.884 315.845 122.214 316.073 122.458C316.3 122.702 316.598 122.825 316.968 122.825C317.195 122.825 317.415 122.769 317.628 122.658C317.841 122.548 318.016 122.383 318.152 122.164C318.291 121.942 318.361 121.665 318.361 121.333ZM321.49 124.086V117.54H323.032V124.086H321.49ZM322.265 116.612C322.021 116.612 321.811 116.531 321.635 116.369C321.459 116.204 321.371 116.006 321.371 115.776C321.371 115.543 321.459 115.346 321.635 115.184C321.811 115.019 322.021 114.937 322.265 114.937C322.513 114.937 322.723 115.019 322.896 115.184C323.072 115.346 323.16 115.543 323.16 115.776C323.16 116.006 323.072 116.204 322.896 116.369C322.723 116.531 322.513 116.612 322.265 116.612ZM326.161 115.359V124.086H324.619V115.359H326.161ZM330.177 124.201C329.662 124.201 329.202 124.069 328.796 123.805C328.39 123.54 328.069 123.157 327.833 122.654C327.597 122.151 327.479 121.54 327.479 120.822C327.479 120.094 327.599 119.481 327.837 118.981C328.079 118.478 328.404 118.099 328.813 117.843C329.222 117.585 329.678 117.455 330.181 117.455C330.564 117.455 330.88 117.521 331.127 117.651C331.374 117.779 331.57 117.934 331.715 118.116C331.86 118.295 331.972 118.464 332.052 118.623H332.116V115.359H333.662V124.086H332.145V123.055H332.052C331.972 123.214 331.857 123.383 331.706 123.562C331.556 123.738 331.357 123.888 331.11 124.013C330.863 124.138 330.552 124.201 330.177 124.201ZM330.607 122.935C330.934 122.935 331.212 122.847 331.442 122.671C331.672 122.492 331.847 122.244 331.966 121.925C332.086 121.607 332.145 121.237 332.145 120.813C332.145 120.39 332.086 120.022 331.966 119.71C331.85 119.397 331.677 119.154 331.447 118.981C331.219 118.808 330.939 118.721 330.607 118.721C330.263 118.721 329.976 118.81 329.746 118.989C329.516 119.168 329.343 119.415 329.226 119.731C329.11 120.046 329.052 120.407 329.052 120.813C329.052 121.222 329.11 121.587 329.226 121.908C329.346 122.227 329.52 122.478 329.751 122.663C329.983 122.844 330.269 122.935 330.607 122.935ZM289.923 134.303H288.329C288.284 134.042 288.2 133.81 288.078 133.609C287.955 133.404 287.803 133.231 287.622 133.089C287.44 132.947 287.232 132.84 286.999 132.769C286.769 132.695 286.521 132.658 286.254 132.658C285.779 132.658 285.359 132.778 284.992 133.016C284.626 133.252 284.339 133.599 284.132 134.056C283.924 134.511 283.82 135.066 283.82 135.722C283.82 136.39 283.924 136.952 284.132 137.41C284.342 137.864 284.629 138.208 284.992 138.441C285.359 138.671 285.778 138.786 286.249 138.786C286.511 138.786 286.755 138.752 286.982 138.684C287.213 138.613 287.419 138.509 287.6 138.373C287.785 138.237 287.94 138.069 288.065 137.87C288.193 137.671 288.281 137.444 288.329 137.188L289.923 137.197C289.863 137.612 289.734 138.001 289.535 138.364C289.339 138.728 289.082 139.049 288.764 139.327C288.445 139.603 288.073 139.819 287.647 139.975C287.221 140.129 286.748 140.205 286.228 140.205C285.461 140.205 284.776 140.028 284.174 139.673C283.572 139.317 283.097 138.805 282.751 138.134C282.404 137.464 282.231 136.66 282.231 135.722C282.231 134.782 282.406 133.978 282.755 133.31C283.105 132.64 283.58 132.127 284.183 131.772C284.785 131.417 285.467 131.239 286.228 131.239C286.714 131.239 287.166 131.308 287.583 131.444C288.001 131.58 288.373 131.781 288.7 132.045C289.026 132.306 289.295 132.627 289.505 133.008C289.718 133.386 289.857 133.817 289.923 134.303ZM294.157 140.214C293.518 140.214 292.964 140.073 292.496 139.792C292.027 139.511 291.663 139.117 291.405 138.612C291.149 138.106 291.021 137.515 291.021 136.839C291.021 136.163 291.149 135.57 291.405 135.062C291.663 134.553 292.027 134.158 292.496 133.877C292.964 133.596 293.518 133.455 294.157 133.455C294.797 133.455 295.351 133.596 295.819 133.877C296.288 134.158 296.65 134.553 296.906 135.062C297.165 135.57 297.294 136.163 297.294 136.839C297.294 137.515 297.165 138.106 296.906 138.612C296.65 139.117 296.288 139.511 295.819 139.792C295.351 140.073 294.797 140.214 294.157 140.214ZM294.166 138.978C294.513 138.978 294.802 138.883 295.035 138.692C295.268 138.499 295.442 138.241 295.555 137.917C295.672 137.593 295.73 137.232 295.73 136.835C295.73 136.434 295.672 136.072 295.555 135.748C295.442 135.421 295.268 135.161 295.035 134.968C294.802 134.775 294.513 134.678 294.166 134.678C293.811 134.678 293.515 134.775 293.28 134.968C293.047 135.161 292.872 135.421 292.756 135.748C292.642 136.072 292.585 136.434 292.585 136.835C292.585 137.232 292.642 137.593 292.756 137.917C292.872 138.241 293.047 138.499 293.28 138.692C293.515 138.883 293.811 138.978 294.166 138.978ZM300.146 136.251V140.086H298.603V133.54H300.078V134.653H300.154C300.305 134.286 300.545 133.995 300.874 133.779C301.207 133.563 301.617 133.455 302.106 133.455C302.558 133.455 302.951 133.552 303.286 133.745C303.624 133.938 303.886 134.218 304.07 134.585C304.258 134.951 304.35 135.396 304.347 135.918V140.086H302.805V136.157C302.805 135.719 302.691 135.377 302.464 135.13C302.24 134.883 301.928 134.759 301.531 134.759C301.261 134.759 301.021 134.819 300.811 134.938C300.603 135.055 300.44 135.224 300.32 135.445C300.204 135.667 300.146 135.935 300.146 136.251ZM309.231 133.54V134.734H305.362V133.54H309.231ZM306.329 140.086V132.923C306.329 132.482 306.42 132.116 306.602 131.823C306.786 131.531 307.034 131.312 307.343 131.167C307.653 131.022 307.997 130.95 308.374 130.95C308.642 130.95 308.879 130.971 309.086 131.013C309.294 131.056 309.447 131.094 309.546 131.129L309.24 132.322C309.174 132.302 309.092 132.282 308.992 132.262C308.893 132.239 308.782 132.228 308.66 132.228C308.373 132.228 308.17 132.298 308.051 132.437C307.934 132.573 307.876 132.769 307.876 133.025V140.086H306.329ZM310.439 140.086V133.54H311.982V140.086H310.439ZM311.215 132.612C310.97 132.612 310.76 132.531 310.584 132.369C310.408 132.204 310.32 132.006 310.32 131.776C310.32 131.543 310.408 131.346 310.584 131.184C310.76 131.019 310.97 130.937 311.215 130.937C311.462 130.937 311.672 131.019 311.845 131.184C312.021 131.346 312.11 131.543 312.11 131.776C312.11 132.006 312.021 132.204 311.845 132.369C311.672 132.531 311.462 132.612 311.215 132.612ZM316.415 142.677C315.861 142.677 315.385 142.602 314.987 142.451C314.589 142.303 314.27 142.104 314.028 141.854C313.787 141.604 313.619 141.327 313.525 141.023L314.915 140.687C314.977 140.815 315.068 140.941 315.187 141.066C315.307 141.194 315.467 141.299 315.669 141.381C315.873 141.467 316.131 141.509 316.44 141.509C316.878 141.509 317.24 141.403 317.527 141.19C317.814 140.979 317.957 140.633 317.957 140.15V138.91H317.881C317.801 139.069 317.684 139.232 317.531 139.4C317.381 139.567 317.18 139.708 316.93 139.822C316.683 139.935 316.372 139.992 315.997 139.992C315.494 139.992 315.038 139.874 314.629 139.638C314.223 139.4 313.899 139.045 313.657 138.573C313.419 138.099 313.3 137.505 313.3 136.792C313.3 136.073 313.419 135.467 313.657 134.972C313.899 134.475 314.224 134.099 314.633 133.843C315.042 133.585 315.498 133.455 316.001 133.455C316.385 133.455 316.7 133.521 316.947 133.651C317.197 133.779 317.396 133.934 317.544 134.116C317.692 134.295 317.804 134.464 317.881 134.623H317.966V133.54H319.487V140.192C319.487 140.752 319.354 141.215 319.086 141.582C318.819 141.948 318.454 142.222 317.991 142.404C317.528 142.586 317.003 142.677 316.415 142.677ZM316.427 138.782C316.754 138.782 317.032 138.702 317.263 138.543C317.493 138.384 317.667 138.156 317.787 137.857C317.906 137.559 317.966 137.201 317.966 136.783C317.966 136.371 317.906 136.011 317.787 135.701C317.67 135.391 317.497 135.151 317.267 134.981C317.04 134.808 316.76 134.721 316.427 134.721C316.084 134.721 315.797 134.81 315.567 134.989C315.336 135.168 315.163 135.414 315.047 135.727C314.93 136.036 314.872 136.388 314.872 136.783C314.872 137.184 314.93 137.535 315.047 137.836C315.166 138.134 315.341 138.367 315.571 138.535C315.804 138.7 316.089 138.782 316.427 138.782ZM325.24 137.333V133.54H326.782V140.086H325.287V138.923H325.219C325.071 139.289 324.828 139.589 324.49 139.822C324.155 140.055 323.741 140.171 323.25 140.171C322.821 140.171 322.442 140.076 322.112 139.886C321.785 139.692 321.53 139.413 321.345 139.046C321.16 138.677 321.068 138.231 321.068 137.708V133.54H322.611V137.469C322.611 137.884 322.724 138.214 322.952 138.458C323.179 138.702 323.477 138.825 323.846 138.825C324.074 138.825 324.294 138.769 324.507 138.658C324.72 138.548 324.895 138.383 325.031 138.164C325.17 137.942 325.24 137.665 325.24 137.333ZM328.369 140.086V133.54H329.865V134.631H329.933C330.052 134.254 330.257 133.962 330.546 133.758C330.839 133.55 331.173 133.447 331.548 133.447C331.633 133.447 331.728 133.451 331.833 133.46C331.941 133.465 332.031 133.475 332.102 133.489V134.908C332.036 134.886 331.933 134.866 331.791 134.849C331.651 134.829 331.517 134.819 331.386 134.819C331.105 134.819 330.852 134.88 330.627 135.002C330.406 135.121 330.231 135.288 330.103 135.501C329.975 135.714 329.911 135.96 329.911 136.238V140.086H328.369ZM334.893 140.218C334.478 140.218 334.105 140.144 333.772 139.996C333.443 139.846 333.181 139.624 332.988 139.332C332.798 139.039 332.703 138.678 332.703 138.249C332.703 137.88 332.771 137.575 332.907 137.333C333.044 137.092 333.23 136.898 333.465 136.754C333.701 136.609 333.967 136.499 334.262 136.425C334.561 136.349 334.869 136.293 335.187 136.259C335.57 136.219 335.882 136.184 336.12 136.153C336.359 136.119 336.532 136.067 336.64 135.999C336.751 135.928 336.806 135.819 336.806 135.671V135.646C336.806 135.325 336.711 135.076 336.521 134.9C336.33 134.724 336.056 134.636 335.698 134.636C335.32 134.636 335.021 134.718 334.799 134.883C334.58 135.048 334.433 135.242 334.356 135.467L332.916 135.262C333.029 134.864 333.217 134.532 333.478 134.265C333.74 133.995 334.059 133.793 334.437 133.66C334.815 133.523 335.232 133.455 335.69 133.455C336.005 133.455 336.319 133.492 336.632 133.566C336.944 133.64 337.23 133.762 337.488 133.933C337.747 134.1 337.954 134.329 338.11 134.619C338.269 134.908 338.349 135.271 338.349 135.705V140.086H336.866V139.187H336.815C336.721 139.369 336.589 139.539 336.419 139.698C336.251 139.854 336.039 139.981 335.784 140.077C335.531 140.171 335.234 140.218 334.893 140.218ZM335.294 139.085C335.603 139.085 335.872 139.023 336.099 138.901C336.326 138.776 336.501 138.612 336.623 138.407C336.748 138.202 336.811 137.979 336.811 137.738V136.967C336.762 137.006 336.68 137.043 336.563 137.077C336.45 137.112 336.322 137.141 336.18 137.167C336.038 137.192 335.897 137.215 335.758 137.235C335.619 137.255 335.498 137.272 335.396 137.286C335.166 137.317 334.96 137.369 334.778 137.44C334.596 137.511 334.453 137.61 334.347 137.738C334.242 137.863 334.19 138.025 334.19 138.224C334.19 138.508 334.294 138.722 334.501 138.867C334.708 139.012 334.972 139.085 335.294 139.085ZM343.169 133.54V134.734H339.406V133.54H343.169ZM340.335 131.972H341.877V138.117C341.877 138.325 341.909 138.484 341.971 138.594C342.036 138.702 342.122 138.776 342.227 138.816C342.332 138.856 342.448 138.876 342.576 138.876C342.673 138.876 342.761 138.869 342.84 138.854C342.923 138.84 342.985 138.827 343.028 138.816L343.288 140.022C343.205 140.05 343.088 140.082 342.934 140.116C342.784 140.15 342.599 140.17 342.38 140.175C341.994 140.187 341.646 140.129 341.336 140.001C341.026 139.87 340.781 139.668 340.599 139.396C340.42 139.123 340.332 138.782 340.335 138.373V131.972ZM344.459 140.086V133.54H346.001V140.086H344.459ZM345.234 132.612C344.99 132.612 344.78 132.531 344.604 132.369C344.427 132.204 344.339 132.006 344.339 131.776C344.339 131.543 344.427 131.346 344.604 131.184C344.78 131.019 344.99 130.937 345.234 130.937C345.481 130.937 345.692 131.019 345.865 131.184C346.041 131.346 346.129 131.543 346.129 131.776C346.129 132.006 346.041 132.204 345.865 132.369C345.692 132.531 345.481 132.612 345.234 132.612ZM350.443 140.214C349.803 140.214 349.249 140.073 348.781 139.792C348.312 139.511 347.948 139.117 347.69 138.612C347.434 138.106 347.306 137.515 347.306 136.839C347.306 136.163 347.434 135.57 347.69 135.062C347.948 134.553 348.312 134.158 348.781 133.877C349.249 133.596 349.803 133.455 350.443 133.455C351.082 133.455 351.636 133.596 352.105 133.877C352.573 134.158 352.936 134.553 353.191 135.062C353.45 135.57 353.579 136.163 353.579 136.839C353.579 137.515 353.45 138.106 353.191 138.612C352.936 139.117 352.573 139.511 352.105 139.792C351.636 140.073 351.082 140.214 350.443 140.214ZM350.451 138.978C350.798 138.978 351.088 138.883 351.32 138.692C351.553 138.499 351.727 138.241 351.84 137.917C351.957 137.593 352.015 137.232 352.015 136.835C352.015 136.434 351.957 136.072 351.84 135.748C351.727 135.421 351.553 135.161 351.32 134.968C351.088 134.775 350.798 134.678 350.451 134.678C350.096 134.678 349.801 134.775 349.565 134.968C349.332 135.161 349.157 135.421 349.041 135.748C348.927 136.072 348.87 136.434 348.87 136.835C348.87 137.232 348.927 137.593 349.041 137.917C349.157 138.241 349.332 138.499 349.565 138.692C349.801 138.883 350.096 138.978 350.451 138.978ZM356.431 136.251V140.086H354.888V133.54H356.363V134.653H356.439C356.59 134.286 356.83 133.995 357.16 133.779C357.492 133.563 357.903 133.455 358.391 133.455C358.843 133.455 359.236 133.552 359.572 133.745C359.91 133.938 360.171 134.218 360.356 134.585C360.543 134.951 360.635 135.396 360.633 135.918V140.086H359.09V136.157C359.09 135.719 358.976 135.377 358.749 135.13C358.525 134.883 358.214 134.759 357.816 134.759C357.546 134.759 357.306 134.819 357.096 134.938C356.888 135.055 356.725 135.224 356.606 135.445C356.489 135.667 356.431 135.935 356.431 136.251Z" fill="#A6AFC1"/>
<rect x="465" y="68.0859" width="33" height="33" rx="16.5" fill="#E6EBF2"/>
<path d="M481.226 91.2734C480.382 91.2734 479.632 91.1289 478.976 90.8398C478.323 90.5508 477.808 90.1484 477.429 89.6328C477.05 89.1172 476.849 88.5215 476.825 87.8457H479.029C479.048 88.1699 479.156 88.4531 479.351 88.6953C479.546 88.9336 479.806 89.1191 480.13 89.252C480.454 89.3848 480.818 89.4512 481.22 89.4512C481.65 89.4512 482.031 89.377 482.363 89.2285C482.695 89.0762 482.954 88.8652 483.142 88.5957C483.329 88.3262 483.421 88.0156 483.417 87.6641C483.421 87.3008 483.327 86.9805 483.136 86.7031C482.945 86.4258 482.667 86.209 482.304 86.0527C481.945 85.8965 481.511 85.8184 481.003 85.8184H479.943V84.1426H481.003C481.421 84.1426 481.786 84.0703 482.099 83.9258C482.415 83.7812 482.663 83.5781 482.843 83.3164C483.023 83.0508 483.111 82.7441 483.107 82.3965C483.111 82.0566 483.034 81.7617 482.878 81.5117C482.726 81.2578 482.509 81.0605 482.228 80.9199C481.95 80.7793 481.624 80.709 481.249 80.709C480.882 80.709 480.542 80.7754 480.23 80.9082C479.917 81.041 479.665 81.2305 479.474 81.4766C479.282 81.7187 479.181 82.0078 479.169 82.3438H477.077C477.093 81.6719 477.286 81.082 477.657 80.5742C478.032 80.0625 478.532 79.6641 479.157 79.3789C479.782 79.0898 480.484 78.9453 481.261 78.9453C482.062 78.9453 482.757 79.0957 483.347 79.3965C483.941 79.6934 484.4 80.0937 484.724 80.5977C485.048 81.1016 485.21 81.6582 485.21 82.2676C485.214 82.9434 485.015 83.5098 484.613 83.9668C484.214 84.4238 483.691 84.7227 483.042 84.8633V84.957C483.886 85.0742 484.532 85.3867 484.982 85.8945C485.435 86.3984 485.659 87.0254 485.656 87.7754C485.656 88.4473 485.464 89.0488 485.081 89.5801C484.702 90.1074 484.179 90.5215 483.511 90.8223C482.847 91.123 482.085 91.2734 481.226 91.2734Z" fill="white"/>
<path d="M448.738 124.086H445.781V115.359H448.798C449.664 115.359 450.409 115.533 451.031 115.883C451.656 116.229 452.136 116.728 452.471 117.379C452.806 118.029 452.974 118.808 452.974 119.714C452.974 120.623 452.805 121.404 452.467 122.058C452.132 122.711 451.647 123.212 451.014 123.562C450.383 123.911 449.624 124.086 448.738 124.086ZM447.362 122.718H448.661C449.269 122.718 449.776 122.607 450.183 122.386C450.589 122.161 450.894 121.827 451.099 121.384C451.303 120.938 451.406 120.381 451.406 119.714C451.406 119.046 451.303 118.492 451.099 118.052C450.894 117.609 450.592 117.278 450.191 117.059C449.794 116.837 449.299 116.727 448.708 116.727H447.362V122.718ZM457.306 124.214C456.649 124.214 456.083 124.077 455.605 123.805C455.131 123.529 454.766 123.14 454.51 122.637C454.254 122.131 454.127 121.536 454.127 120.852C454.127 120.178 454.254 119.587 454.51 119.079C454.769 118.567 455.129 118.17 455.593 117.886C456.056 117.599 456.6 117.455 457.225 117.455C457.628 117.455 458.009 117.521 458.367 117.651C458.727 117.779 459.046 117.978 459.321 118.248C459.6 118.518 459.818 118.862 459.977 119.279C460.137 119.694 460.216 120.188 460.216 120.762V121.235H454.851V120.195H458.737C458.735 119.9 458.671 119.637 458.546 119.407C458.421 119.174 458.246 118.991 458.021 118.857C457.8 118.724 457.541 118.657 457.246 118.657C456.931 118.657 456.654 118.734 456.415 118.887C456.176 119.038 455.99 119.237 455.857 119.484C455.726 119.728 455.659 119.996 455.656 120.289V121.197C455.656 121.577 455.726 121.904 455.865 122.177C456.004 122.447 456.199 122.654 456.449 122.799C456.699 122.941 456.992 123.012 457.327 123.012C457.551 123.012 457.754 122.981 457.936 122.918C458.118 122.853 458.276 122.758 458.409 122.633C458.543 122.508 458.644 122.353 458.712 122.168L460.152 122.33C460.061 122.711 459.888 123.043 459.632 123.327C459.379 123.609 459.056 123.827 458.661 123.984C458.266 124.137 457.814 124.214 457.306 124.214ZM461.521 126.54V117.54H463.038V118.623H463.128C463.207 118.464 463.319 118.295 463.464 118.116C463.609 117.934 463.805 117.779 464.052 117.651C464.3 117.521 464.615 117.455 464.998 117.455C465.504 117.455 465.96 117.585 466.366 117.843C466.775 118.099 467.099 118.478 467.338 118.981C467.579 119.481 467.7 120.094 467.7 120.822C467.7 121.54 467.582 122.151 467.346 122.654C467.111 123.157 466.79 123.54 466.383 123.805C465.977 124.069 465.517 124.201 465.003 124.201C464.628 124.201 464.317 124.138 464.069 124.013C463.822 123.888 463.623 123.738 463.473 123.562C463.325 123.383 463.21 123.214 463.128 123.055H463.064V126.54H461.521ZM463.034 120.813C463.034 121.237 463.094 121.607 463.213 121.925C463.335 122.244 463.51 122.492 463.737 122.671C463.967 122.847 464.246 122.935 464.572 122.935C464.913 122.935 465.199 122.844 465.429 122.663C465.659 122.478 465.832 122.227 465.949 121.908C466.068 121.587 466.128 121.222 466.128 120.813C466.128 120.407 466.069 120.046 465.953 119.731C465.836 119.415 465.663 119.168 465.433 118.989C465.203 118.81 464.916 118.721 464.572 118.721C464.243 118.721 463.963 118.808 463.733 118.981C463.503 119.154 463.328 119.397 463.209 119.71C463.092 120.022 463.034 120.39 463.034 120.813ZM470.564 115.359V124.086H469.021V115.359H470.564ZM475.005 124.214C474.366 124.214 473.812 124.073 473.343 123.792C472.874 123.511 472.511 123.117 472.252 122.612C471.997 122.106 471.869 121.515 471.869 120.839C471.869 120.163 471.997 119.57 472.252 119.062C472.511 118.553 472.874 118.158 473.343 117.877C473.812 117.596 474.366 117.455 475.005 117.455C475.644 117.455 476.198 117.596 476.667 117.877C477.136 118.158 477.498 118.553 477.754 119.062C478.012 119.57 478.142 120.163 478.142 120.839C478.142 121.515 478.012 122.106 477.754 122.612C477.498 123.117 477.136 123.511 476.667 123.792C476.198 124.073 475.644 124.214 475.005 124.214ZM475.014 122.978C475.36 122.978 475.65 122.883 475.883 122.692C476.116 122.499 476.289 122.241 476.403 121.917C476.519 121.593 476.578 121.232 476.578 120.835C476.578 120.434 476.519 120.072 476.403 119.748C476.289 119.421 476.116 119.161 475.883 118.968C475.65 118.775 475.36 118.678 475.014 118.678C474.659 118.678 474.363 118.775 474.127 118.968C473.894 119.161 473.72 119.421 473.603 119.748C473.49 120.072 473.433 120.434 473.433 120.835C473.433 121.232 473.49 121.593 473.603 121.917C473.72 122.241 473.894 122.499 474.127 122.692C474.363 122.883 474.659 122.978 475.014 122.978ZM480.187 126.54C479.977 126.54 479.782 126.523 479.603 126.489C479.427 126.458 479.286 126.421 479.181 126.379L479.539 125.177C479.764 125.242 479.964 125.273 480.14 125.271C480.316 125.268 480.471 125.212 480.605 125.104C480.741 124.999 480.856 124.823 480.95 124.576L481.082 124.222L478.708 117.54H480.345L481.853 122.484H481.921L483.434 117.54H485.075L482.454 124.879C482.332 125.225 482.17 125.522 481.968 125.769C481.767 126.019 481.519 126.21 481.227 126.34C480.937 126.474 480.59 126.54 480.187 126.54ZM486.142 124.086V117.54H487.617V118.653H487.693C487.83 118.278 488.056 117.985 488.371 117.775C488.686 117.562 489.063 117.455 489.5 117.455C489.943 117.455 490.317 117.563 490.621 117.779C490.928 117.992 491.144 118.283 491.269 118.653H491.337C491.482 118.289 491.726 117.999 492.07 117.783C492.416 117.565 492.827 117.455 493.301 117.455C493.904 117.455 494.395 117.646 494.776 118.026C495.156 118.407 495.347 118.962 495.347 119.692V124.086H493.8V119.931C493.8 119.525 493.692 119.228 493.476 119.04C493.26 118.85 492.996 118.755 492.683 118.755C492.311 118.755 492.02 118.871 491.81 119.104C491.602 119.335 491.499 119.634 491.499 120.004V124.086H489.986V119.867C489.986 119.529 489.884 119.259 489.679 119.058C489.477 118.856 489.213 118.755 488.887 118.755C488.665 118.755 488.463 118.812 488.281 118.925C488.1 119.036 487.955 119.194 487.847 119.398C487.739 119.6 487.685 119.836 487.685 120.106V124.086H486.142ZM499.809 124.214C499.153 124.214 498.586 124.077 498.109 123.805C497.635 123.529 497.27 123.14 497.014 122.637C496.758 122.131 496.631 121.536 496.631 120.852C496.631 120.178 496.758 119.587 497.014 119.079C497.273 118.567 497.633 118.17 498.096 117.886C498.559 117.599 499.104 117.455 499.729 117.455C500.132 117.455 500.513 117.521 500.871 117.651C501.231 117.779 501.55 117.978 501.825 118.248C502.104 118.518 502.322 118.862 502.481 119.279C502.64 119.694 502.72 120.188 502.72 120.762V121.235H497.355V120.195H501.241C501.238 119.9 501.175 119.637 501.05 119.407C500.925 119.174 500.75 118.991 500.525 118.857C500.304 118.724 500.045 118.657 499.75 118.657C499.434 118.657 499.157 118.734 498.919 118.887C498.68 119.038 498.494 119.237 498.361 119.484C498.23 119.728 498.163 119.996 498.16 120.289V121.197C498.16 121.577 498.23 121.904 498.369 122.177C498.508 122.447 498.703 122.654 498.953 122.799C499.203 122.941 499.496 123.012 499.831 123.012C500.055 123.012 500.258 122.981 500.44 122.918C500.622 122.853 500.78 122.758 500.913 122.633C501.047 122.508 501.148 122.353 501.216 122.168L502.656 122.33C502.565 122.711 502.392 123.043 502.136 123.327C501.883 123.609 501.559 123.827 501.165 123.984C500.77 124.137 500.318 124.214 499.809 124.214ZM505.568 120.251V124.086H504.025V117.54H505.499V118.653H505.576C505.727 118.286 505.967 117.995 506.296 117.779C506.629 117.563 507.039 117.455 507.528 117.455C507.98 117.455 508.373 117.552 508.708 117.745C509.046 117.938 509.308 118.218 509.492 118.585C509.68 118.951 509.772 119.396 509.769 119.918V124.086H508.227V120.157C508.227 119.719 508.113 119.377 507.886 119.13C507.661 118.883 507.35 118.759 506.953 118.759C506.683 118.759 506.443 118.819 506.232 118.938C506.025 119.055 505.862 119.224 505.742 119.445C505.626 119.667 505.568 119.935 505.568 120.251ZM514.606 117.54V118.734H510.843V117.54H514.606ZM511.772 115.972H513.315V122.117C513.315 122.325 513.346 122.484 513.409 122.594C513.474 122.702 513.559 122.776 513.664 122.816C513.769 122.856 513.886 122.876 514.014 122.876C514.11 122.876 514.198 122.869 514.278 122.854C514.36 122.84 514.423 122.827 514.465 122.816L514.725 124.022C514.643 124.05 514.525 124.082 514.372 124.116C514.221 124.15 514.036 124.17 513.818 124.175C513.431 124.187 513.083 124.129 512.774 124.001C512.464 123.87 512.218 123.668 512.036 123.396C511.857 123.123 511.769 122.782 511.772 122.373V115.972ZM449.923 134.303H448.329C448.284 134.042 448.2 133.81 448.078 133.609C447.955 133.404 447.803 133.231 447.622 133.089C447.44 132.947 447.232 132.84 446.999 132.769C446.769 132.695 446.521 132.658 446.254 132.658C445.779 132.658 445.359 132.778 444.992 133.016C444.626 133.252 444.339 133.599 444.132 134.056C443.924 134.511 443.82 135.066 443.82 135.722C443.82 136.39 443.924 136.952 444.132 137.41C444.342 137.864 444.629 138.208 444.992 138.441C445.359 138.671 445.778 138.786 446.249 138.786C446.511 138.786 446.755 138.752 446.982 138.684C447.213 138.613 447.419 138.509 447.6 138.373C447.785 138.237 447.94 138.069 448.065 137.87C448.193 137.671 448.281 137.444 448.329 137.188L449.923 137.197C449.863 137.612 449.734 138.001 449.535 138.364C449.339 138.728 449.082 139.049 448.764 139.327C448.445 139.603 448.073 139.819 447.647 139.975C447.221 140.129 446.748 140.205 446.228 140.205C445.461 140.205 444.776 140.028 444.174 139.673C443.572 139.317 443.097 138.805 442.751 138.134C442.404 137.464 442.231 136.66 442.231 135.722C442.231 134.782 442.406 133.978 442.755 133.31C443.105 132.64 443.58 132.127 444.183 131.772C444.785 131.417 445.467 131.239 446.228 131.239C446.714 131.239 447.166 131.308 447.583 131.444C448.001 131.58 448.373 131.781 448.7 132.045C449.026 132.306 449.295 132.627 449.505 133.008C449.718 133.386 449.857 133.817 449.923 134.303ZM454.157 140.214C453.518 140.214 452.964 140.073 452.496 139.792C452.027 139.511 451.663 139.117 451.405 138.612C451.149 138.106 451.021 137.515 451.021 136.839C451.021 136.163 451.149 135.57 451.405 135.062C451.663 134.553 452.027 134.158 452.496 133.877C452.964 133.596 453.518 133.455 454.157 133.455C454.797 133.455 455.351 133.596 455.819 133.877C456.288 134.158 456.65 134.553 456.906 135.062C457.165 135.57 457.294 136.163 457.294 136.839C457.294 137.515 457.165 138.106 456.906 138.612C456.65 139.117 456.288 139.511 455.819 139.792C455.351 140.073 454.797 140.214 454.157 140.214ZM454.166 138.978C454.513 138.978 454.802 138.883 455.035 138.692C455.268 138.499 455.442 138.241 455.555 137.917C455.672 137.593 455.73 137.232 455.73 136.835C455.73 136.434 455.672 136.072 455.555 135.748C455.442 135.421 455.268 135.161 455.035 134.968C454.802 134.775 454.513 134.678 454.166 134.678C453.811 134.678 453.515 134.775 453.28 134.968C453.047 135.161 452.872 135.421 452.756 135.748C452.642 136.072 452.585 136.434 452.585 136.835C452.585 137.232 452.642 137.593 452.756 137.917C452.872 138.241 453.047 138.499 453.28 138.692C453.515 138.883 453.811 138.978 454.166 138.978ZM460.146 136.251V140.086H458.603V133.54H460.078V134.653H460.154C460.305 134.286 460.545 133.995 460.874 133.779C461.207 133.563 461.617 133.455 462.106 133.455C462.558 133.455 462.951 133.552 463.286 133.745C463.624 133.938 463.886 134.218 464.07 134.585C464.258 134.951 464.35 135.396 464.347 135.918V140.086H462.805V136.157C462.805 135.719 462.691 135.377 462.464 135.13C462.24 134.883 461.928 134.759 461.531 134.759C461.261 134.759 461.021 134.819 460.811 134.938C460.603 135.055 460.44 135.224 460.32 135.445C460.204 135.667 460.146 135.935 460.146 136.251ZM469.231 133.54V134.734H465.362V133.54H469.231ZM466.329 140.086V132.923C466.329 132.482 466.42 132.116 466.602 131.823C466.786 131.531 467.034 131.312 467.343 131.167C467.653 131.022 467.997 130.95 468.374 130.95C468.642 130.95 468.879 130.971 469.086 131.013C469.294 131.056 469.447 131.094 469.546 131.129L469.24 132.322C469.174 132.302 469.092 132.282 468.992 132.262C468.893 132.239 468.782 132.228 468.66 132.228C468.373 132.228 468.17 132.298 468.051 132.437C467.934 132.573 467.876 132.769 467.876 133.025V140.086H466.329ZM470.439 140.086V133.54H471.982V140.086H470.439ZM471.215 132.612C470.97 132.612 470.76 132.531 470.584 132.369C470.408 132.204 470.32 132.006 470.32 131.776C470.32 131.543 470.408 131.346 470.584 131.184C470.76 131.019 470.97 130.937 471.215 130.937C471.462 130.937 471.672 131.019 471.845 131.184C472.021 131.346 472.11 131.543 472.11 131.776C472.11 132.006 472.021 132.204 471.845 132.369C471.672 132.531 471.462 132.612 471.215 132.612ZM476.415 142.677C475.861 142.677 475.385 142.602 474.987 142.451C474.589 142.303 474.27 142.104 474.028 141.854C473.787 141.604 473.619 141.327 473.525 141.023L474.915 140.687C474.977 140.815 475.068 140.941 475.187 141.066C475.307 141.194 475.467 141.299 475.669 141.381C475.873 141.467 476.131 141.509 476.44 141.509C476.878 141.509 477.24 141.403 477.527 141.19C477.814 140.979 477.957 140.633 477.957 140.15V138.91H477.881C477.801 139.069 477.684 139.232 477.531 139.4C477.381 139.567 477.18 139.708 476.93 139.822C476.683 139.935 476.372 139.992 475.997 139.992C475.494 139.992 475.038 139.874 474.629 139.638C474.223 139.4 473.899 139.045 473.657 138.573C473.419 138.099 473.3 137.505 473.3 136.792C473.3 136.073 473.419 135.467 473.657 134.972C473.899 134.475 474.224 134.099 474.633 133.843C475.042 133.585 475.498 133.455 476.001 133.455C476.385 133.455 476.7 133.521 476.947 133.651C477.197 133.779 477.396 133.934 477.544 134.116C477.692 134.295 477.804 134.464 477.881 134.623H477.966V133.54H479.487V140.192C479.487 140.752 479.354 141.215 479.086 141.582C478.819 141.948 478.454 142.222 477.991 142.404C477.528 142.586 477.003 142.677 476.415 142.677ZM476.427 138.782C476.754 138.782 477.032 138.702 477.263 138.543C477.493 138.384 477.667 138.156 477.787 137.857C477.906 137.559 477.966 137.201 477.966 136.783C477.966 136.371 477.906 136.011 477.787 135.701C477.67 135.391 477.497 135.151 477.267 134.981C477.04 134.808 476.76 134.721 476.427 134.721C476.084 134.721 475.797 134.81 475.567 134.989C475.336 135.168 475.163 135.414 475.047 135.727C474.93 136.036 474.872 136.388 474.872 136.783C474.872 137.184 474.93 137.535 475.047 137.836C475.166 138.134 475.341 138.367 475.571 138.535C475.804 138.7 476.089 138.782 476.427 138.782ZM485.24 137.333V133.54H486.782V140.086H485.287V138.923H485.219C485.071 139.289 484.828 139.589 484.49 139.822C484.155 140.055 483.741 140.171 483.25 140.171C482.821 140.171 482.442 140.076 482.112 139.886C481.785 139.692 481.53 139.413 481.345 139.046C481.16 138.677 481.068 138.231 481.068 137.708V133.54H482.611V137.469C482.611 137.884 482.724 138.214 482.952 138.458C483.179 138.702 483.477 138.825 483.846 138.825C484.074 138.825 484.294 138.769 484.507 138.658C484.72 138.548 484.895 138.383 485.031 138.164C485.17 137.942 485.24 137.665 485.24 137.333ZM488.369 140.086V133.54H489.865V134.631H489.933C490.052 134.254 490.257 133.962 490.546 133.758C490.839 133.55 491.173 133.447 491.548 133.447C491.633 133.447 491.728 133.451 491.833 133.46C491.941 133.465 492.031 133.475 492.102 133.489V134.908C492.036 134.886 491.933 134.866 491.791 134.849C491.651 134.829 491.517 134.819 491.386 134.819C491.105 134.819 490.852 134.88 490.627 135.002C490.406 135.121 490.231 135.288 490.103 135.501C489.975 135.714 489.911 135.96 489.911 136.238V140.086H488.369ZM494.893 140.218C494.478 140.218 494.105 140.144 493.772 139.996C493.443 139.846 493.181 139.624 492.988 139.332C492.798 139.039 492.703 138.678 492.703 138.249C492.703 137.88 492.771 137.575 492.907 137.333C493.044 137.092 493.23 136.898 493.465 136.754C493.701 136.609 493.967 136.499 494.262 136.425C494.561 136.349 494.869 136.293 495.187 136.259C495.57 136.219 495.882 136.184 496.12 136.153C496.359 136.119 496.532 136.067 496.64 135.999C496.751 135.928 496.806 135.819 496.806 135.671V135.646C496.806 135.325 496.711 135.076 496.521 134.9C496.33 134.724 496.056 134.636 495.698 134.636C495.32 134.636 495.021 134.718 494.799 134.883C494.58 135.048 494.433 135.242 494.356 135.467L492.916 135.262C493.029 134.864 493.217 134.532 493.478 134.265C493.74 133.995 494.059 133.793 494.437 133.66C494.815 133.523 495.232 133.455 495.69 133.455C496.005 133.455 496.319 133.492 496.632 133.566C496.944 133.64 497.23 133.762 497.488 133.933C497.747 134.1 497.954 134.329 498.11 134.619C498.269 134.908 498.349 135.271 498.349 135.705V140.086H496.866V139.187H496.815C496.721 139.369 496.589 139.539 496.419 139.698C496.251 139.854 496.039 139.981 495.784 140.077C495.531 140.171 495.234 140.218 494.893 140.218ZM495.294 139.085C495.603 139.085 495.872 139.023 496.099 138.901C496.326 138.776 496.501 138.612 496.623 138.407C496.748 138.202 496.811 137.979 496.811 137.738V136.967C496.762 137.006 496.68 137.043 496.563 137.077C496.45 137.112 496.322 137.141 496.18 137.167C496.038 137.192 495.897 137.215 495.758 137.235C495.619 137.255 495.498 137.272 495.396 137.286C495.166 137.317 494.96 137.369 494.778 137.44C494.596 137.511 494.453 137.61 494.347 137.738C494.242 137.863 494.19 138.025 494.19 138.224C494.19 138.508 494.294 138.722 494.501 138.867C494.708 139.012 494.972 139.085 495.294 139.085ZM503.169 133.54V134.734H499.406V133.54H503.169ZM500.335 131.972H501.877V138.117C501.877 138.325 501.909 138.484 501.971 138.594C502.036 138.702 502.122 138.776 502.227 138.816C502.332 138.856 502.448 138.876 502.576 138.876C502.673 138.876 502.761 138.869 502.84 138.854C502.923 138.84 502.985 138.827 503.028 138.816L503.288 140.022C503.205 140.05 503.088 140.082 502.934 140.116C502.784 140.15 502.599 140.17 502.38 140.175C501.994 140.187 501.646 140.129 501.336 140.001C501.026 139.87 500.781 139.668 500.599 139.396C500.42 139.123 500.332 138.782 500.335 138.373V131.972ZM504.459 140.086V133.54H506.001V140.086H504.459ZM505.234 132.612C504.99 132.612 504.78 132.531 504.604 132.369C504.427 132.204 504.339 132.006 504.339 131.776C504.339 131.543 504.427 131.346 504.604 131.184C504.78 131.019 504.99 130.937 505.234 130.937C505.481 130.937 505.692 131.019 505.865 131.184C506.041 131.346 506.129 131.543 506.129 131.776C506.129 132.006 506.041 132.204 505.865 132.369C505.692 132.531 505.481 132.612 505.234 132.612ZM510.443 140.214C509.803 140.214 509.249 140.073 508.781 139.792C508.312 139.511 507.948 139.117 507.69 138.612C507.434 138.106 507.306 137.515 507.306 136.839C507.306 136.163 507.434 135.57 507.69 135.062C507.948 134.553 508.312 134.158 508.781 133.877C509.249 133.596 509.803 133.455 510.443 133.455C511.082 133.455 511.636 133.596 512.105 133.877C512.573 134.158 512.936 134.553 513.191 135.062C513.45 135.57 513.579 136.163 513.579 136.839C513.579 137.515 513.45 138.106 513.191 138.612C512.936 139.117 512.573 139.511 512.105 139.792C511.636 140.073 511.082 140.214 510.443 140.214ZM510.451 138.978C510.798 138.978 511.088 138.883 511.32 138.692C511.553 138.499 511.727 138.241 511.84 137.917C511.957 137.593 512.015 137.232 512.015 136.835C512.015 136.434 511.957 136.072 511.84 135.748C511.727 135.421 511.553 135.161 511.32 134.968C511.088 134.775 510.798 134.678 510.451 134.678C510.096 134.678 509.801 134.775 509.565 134.968C509.332 135.161 509.157 135.421 509.041 135.748C508.927 136.072 508.87 136.434 508.87 136.835C508.87 137.232 508.927 137.593 509.041 137.917C509.157 138.241 509.332 138.499 509.565 138.692C509.801 138.883 510.096 138.978 510.451 138.978ZM516.431 136.251V140.086H514.888V133.54H516.363V134.653H516.439C516.59 134.286 516.83 133.995 517.16 133.779C517.492 133.563 517.903 133.455 518.391 133.455C518.843 133.455 519.236 133.552 519.572 133.745C519.91 133.938 520.171 134.218 520.356 134.585C520.543 134.951 520.635 135.396 520.633 135.918V140.086H519.09V136.157C519.09 135.719 518.976 135.377 518.749 135.13C518.525 134.883 518.214 134.759 517.816 134.759C517.546 134.759 517.306 134.819 517.096 134.938C516.888 135.055 516.725 135.224 516.606 135.445C516.489 135.667 516.431 135.935 516.431 136.251Z" fill="#A6AFC1"/>
<rect x="501" y="411.121" width="78" height="35.88" rx="5.55576" fill="#2D7AFF"/>
<path d="M534.033 424.335V433.062H532.626L528.514 427.118H528.442V433.062H526.861V424.335H528.276L532.384 430.284H532.46V424.335H534.033ZM538.585 433.19C537.929 433.19 537.362 433.054 536.885 432.781C536.41 432.506 536.045 432.116 535.789 431.614C535.534 431.108 535.406 430.513 535.406 429.828C535.406 429.155 535.534 428.564 535.789 428.055C536.048 427.544 536.409 427.146 536.872 426.862C537.335 426.575 537.879 426.432 538.504 426.432C538.907 426.432 539.288 426.497 539.646 426.628C540.007 426.756 540.325 426.955 540.6 427.224C540.879 427.494 541.098 427.838 541.257 428.256C541.416 428.67 541.495 429.165 541.495 429.739V430.212H536.13V429.172H540.017C540.014 428.876 539.95 428.614 539.825 428.384C539.7 428.151 539.525 427.967 539.301 427.834C539.079 427.7 538.821 427.634 538.525 427.634C538.21 427.634 537.933 427.71 537.694 427.864C537.456 428.014 537.27 428.213 537.136 428.46C537.005 428.705 536.939 428.973 536.936 429.266V430.173C536.936 430.554 537.005 430.881 537.145 431.153C537.284 431.423 537.478 431.631 537.728 431.776C537.978 431.918 538.271 431.989 538.606 431.989C538.831 431.989 539.034 431.957 539.216 431.895C539.397 431.83 539.555 431.734 539.689 431.609C539.822 431.484 539.923 431.33 539.991 431.145L541.431 431.307C541.341 431.687 541.167 432.02 540.912 432.304C540.659 432.585 540.335 432.804 539.94 432.96C539.545 433.114 539.093 433.19 538.585 433.19ZM543.921 426.517L545.242 428.933L546.585 426.517H548.217L546.244 429.79L548.251 433.062H546.627L545.242 430.706L543.87 433.062H542.234L544.228 429.79L542.285 426.517H543.921ZM552.678 426.517V427.71H548.915V426.517H552.678ZM549.844 424.949H551.387V431.094C551.387 431.301 551.418 431.46 551.481 431.571C551.546 431.679 551.631 431.753 551.737 431.793C551.842 431.832 551.958 431.852 552.086 431.852C552.183 431.852 552.271 431.845 552.35 431.831C552.433 431.817 552.495 431.804 552.538 431.793L552.798 432.999C552.715 433.027 552.597 433.058 552.444 433.092C552.293 433.126 552.109 433.146 551.89 433.152C551.504 433.163 551.156 433.105 550.846 432.977C550.536 432.847 550.29 432.645 550.109 432.372C549.93 432.099 549.842 431.759 549.844 431.349V424.949Z" fill="white"/>
<path d="M69.1619 171.036H67.4354C67.3861 170.753 67.2953 170.502 67.163 170.284C67.0307 170.062 66.866 169.874 66.669 169.721C66.4721 169.567 66.2474 169.451 65.995 169.374C65.7457 169.294 65.4764 169.254 65.1871 169.254C64.6732 169.254 64.2177 169.384 63.8207 169.642C63.4237 169.897 63.1128 170.273 62.8881 170.768C62.6635 171.261 62.5511 171.863 62.5511 172.574C62.5511 173.297 62.6635 173.906 62.8881 174.402C63.1159 174.894 63.4267 175.266 63.8207 175.519C64.2177 175.768 64.6716 175.893 65.1825 175.893C65.4657 175.893 65.7304 175.856 65.9766 175.782C66.2259 175.705 66.449 175.593 66.646 175.445C66.846 175.297 67.0137 175.116 67.1491 174.9C67.2876 174.685 67.383 174.439 67.4354 174.162L69.1619 174.171C69.0973 174.62 68.9573 175.042 68.7418 175.436C68.5295 175.83 68.2509 176.177 67.9062 176.479C67.5616 176.778 67.1584 177.011 66.6967 177.181C66.2351 177.347 65.7227 177.43 65.1594 177.43C64.3285 177.43 63.5868 177.238 62.9343 176.853C62.2818 176.468 61.7679 175.913 61.3924 175.186C61.0169 174.46 60.8292 173.589 60.8292 172.574C60.8292 171.555 61.0185 170.684 61.397 169.961C61.7756 169.234 62.2911 168.679 62.9435 168.294C63.596 167.909 64.3346 167.717 65.1594 167.717C65.6857 167.717 66.1751 167.791 66.6275 167.939C67.0799 168.086 67.4831 168.303 67.837 168.589C68.1909 168.873 68.4818 169.22 68.7095 169.633C68.9403 170.042 69.0911 170.51 69.1619 171.036ZM73.7496 177.439C73.0571 177.439 72.4569 177.287 71.9491 176.982C71.4413 176.678 71.0474 176.251 70.7673 175.703C70.4903 175.156 70.3518 174.516 70.3518 173.783C70.3518 173.051 70.4903 172.409 70.7673 171.858C71.0474 171.307 71.4413 170.879 71.9491 170.575C72.4569 170.27 73.0571 170.118 73.7496 170.118C74.442 170.118 75.0422 170.27 75.55 170.575C76.0578 170.879 76.4502 171.307 76.7272 171.858C77.0073 172.409 77.1473 173.051 77.1473 173.783C77.1473 174.516 77.0073 175.156 76.7272 175.703C76.4502 176.251 76.0578 176.678 75.55 176.982C75.0422 177.287 74.442 177.439 73.7496 177.439ZM73.7588 176.1C74.1343 176.1 74.4482 175.997 74.7006 175.791C74.9529 175.582 75.1407 175.302 75.2638 174.951C75.3899 174.6 75.453 174.209 75.453 173.778C75.453 173.344 75.3899 172.952 75.2638 172.601C75.1407 172.247 74.9529 171.966 74.7006 171.756C74.4482 171.547 74.1343 171.442 73.7588 171.442C73.3741 171.442 73.054 171.547 72.7986 171.756C72.5462 171.966 72.3569 172.247 72.2307 172.601C72.1076 172.952 72.0461 173.344 72.0461 173.778C72.0461 174.209 72.1076 174.6 72.2307 174.951C72.3569 175.302 72.5462 175.582 72.7986 175.791C73.054 175.997 73.3741 176.1 73.7588 176.1ZM81.1971 177.425C80.64 177.425 80.1415 177.282 79.7013 176.996C79.2612 176.71 78.9135 176.294 78.658 175.75C78.4026 175.205 78.2749 174.543 78.2749 173.765C78.2749 172.977 78.4041 172.312 78.6626 171.77C78.9242 171.225 79.2766 170.815 79.7198 170.538C80.163 170.258 80.657 170.118 81.2017 170.118C81.6172 170.118 81.9588 170.188 82.2266 170.33C82.4943 170.468 82.7067 170.636 82.8636 170.833C83.0206 171.027 83.1422 171.21 83.2283 171.382H83.2976V167.846H84.9734V177.301H83.3299V176.184H83.2283C83.1422 176.356 83.0175 176.539 82.8544 176.733C82.6913 176.924 82.4759 177.087 82.2081 177.222C81.9403 177.358 81.6033 177.425 81.1971 177.425ZM81.6634 176.054C82.0173 176.054 82.3189 175.959 82.5682 175.768C82.8175 175.574 83.0067 175.305 83.136 174.96C83.2653 174.616 83.3299 174.214 83.3299 173.755C83.3299 173.297 83.2653 172.898 83.136 172.56C83.0098 172.221 82.8221 171.958 82.5728 171.77C82.3266 171.583 82.0234 171.489 81.6634 171.489C81.291 171.489 80.9801 171.586 80.7308 171.779C80.4815 171.973 80.2938 172.241 80.1676 172.583C80.0414 172.924 79.9783 173.315 79.9783 173.755C79.9783 174.199 80.0414 174.594 80.1676 174.942C80.2969 175.286 80.4862 175.559 80.7354 175.759C80.9878 175.956 81.2971 176.054 81.6634 176.054ZM89.8934 177.439C89.1824 177.439 88.5684 177.292 88.0514 176.996C87.5374 176.698 87.142 176.276 86.865 175.731C86.588 175.183 86.4495 174.539 86.4495 173.797C86.4495 173.067 86.588 172.427 86.865 171.876C87.145 171.322 87.5359 170.892 88.0376 170.584C88.5392 170.273 89.1286 170.118 89.8057 170.118C90.2427 170.118 90.6551 170.188 91.0429 170.33C91.4337 170.468 91.7784 170.684 92.077 170.976C92.3786 171.269 92.6156 171.641 92.7879 172.093C92.9603 172.543 93.0464 173.078 93.0464 173.7V174.212H87.2343V173.086H91.4445C91.4414 172.766 91.3722 172.481 91.2368 172.232C91.1014 171.98 90.9121 171.781 90.6689 171.636C90.4289 171.492 90.1488 171.419 89.8287 171.419C89.4871 171.419 89.1871 171.502 88.9285 171.669C88.67 171.832 88.4684 172.047 88.3238 172.315C88.1822 172.58 88.1099 172.871 88.1068 173.188V174.171C88.1068 174.583 88.1822 174.937 88.333 175.233C88.4838 175.525 88.6946 175.75 88.9655 175.907C89.2363 176.06 89.5533 176.137 89.9165 176.137C90.1596 176.137 90.3796 176.104 90.5766 176.036C90.7736 175.965 90.9444 175.862 91.089 175.727C91.2337 175.591 91.343 175.423 91.4168 175.223L92.9772 175.399C92.8787 175.811 92.691 176.171 92.414 176.479C92.1401 176.784 91.7892 177.021 91.3614 177.19C90.9336 177.356 90.4443 177.439 89.8934 177.439ZM97.7587 177.301V167.846H99.4714V175.865H103.635V177.301H97.7587ZM108.141 177.439C107.449 177.439 106.849 177.287 106.341 176.982C105.833 176.678 105.439 176.251 105.159 175.703C104.882 175.156 104.743 174.516 104.743 173.783C104.743 173.051 104.882 172.409 105.159 171.858C105.439 171.307 105.833 170.879 106.341 170.575C106.849 170.27 107.449 170.118 108.141 170.118C108.834 170.118 109.434 170.27 109.942 170.575C110.449 170.879 110.842 171.307 111.119 171.858C111.399 172.409 111.539 173.051 111.539 173.783C111.539 174.516 111.399 175.156 111.119 175.703C110.842 176.251 110.449 176.678 109.942 176.982C109.434 177.287 108.834 177.439 108.141 177.439ZM108.15 176.1C108.526 176.1 108.84 175.997 109.092 175.791C109.345 175.582 109.532 175.302 109.655 174.951C109.782 174.6 109.845 174.209 109.845 173.778C109.845 173.344 109.782 172.952 109.655 172.601C109.532 172.247 109.345 171.966 109.092 171.756C108.84 171.547 108.526 171.442 108.15 171.442C107.766 171.442 107.446 171.547 107.19 171.756C106.938 171.966 106.749 172.247 106.622 172.601C106.499 172.952 106.438 173.344 106.438 173.778C106.438 174.209 106.499 174.6 106.622 174.951C106.749 175.302 106.938 175.582 107.19 175.791C107.446 175.997 107.766 176.1 108.15 176.1ZM116.05 177.439C115.342 177.439 114.735 177.284 114.227 176.973C113.722 176.662 113.333 176.233 113.059 175.685C112.788 175.134 112.653 174.5 112.653 173.783C112.653 173.063 112.791 172.427 113.068 171.876C113.345 171.322 113.736 170.892 114.241 170.584C114.748 170.273 115.349 170.118 116.041 170.118C116.617 170.118 117.126 170.224 117.569 170.436C118.015 170.645 118.371 170.942 118.636 171.327C118.9 171.709 119.051 172.155 119.088 172.666H117.491C117.426 172.324 117.272 172.04 117.029 171.812C116.789 171.581 116.467 171.466 116.064 171.466C115.723 171.466 115.422 171.558 115.164 171.743C114.905 171.924 114.704 172.186 114.559 172.527C114.418 172.869 114.347 173.278 114.347 173.755C114.347 174.239 114.418 174.654 114.559 175.002C114.701 175.346 114.899 175.613 115.155 175.8C115.413 175.985 115.716 176.077 116.064 176.077C116.31 176.077 116.53 176.031 116.724 175.939C116.921 175.844 117.086 175.707 117.218 175.528C117.351 175.35 117.441 175.133 117.491 174.877H119.088C119.048 175.379 118.9 175.824 118.645 176.211C118.389 176.596 118.042 176.898 117.601 177.116C117.161 177.332 116.644 177.439 116.05 177.439ZM122.501 177.444C122.051 177.444 121.647 177.364 121.287 177.204C120.93 177.041 120.646 176.801 120.437 176.484C120.231 176.167 120.128 175.776 120.128 175.311C120.128 174.911 120.202 174.58 120.349 174.319C120.497 174.057 120.699 173.848 120.954 173.691C121.21 173.534 121.497 173.415 121.817 173.335C122.141 173.252 122.475 173.192 122.819 173.155C123.235 173.112 123.572 173.074 123.83 173.04C124.089 173.003 124.277 172.947 124.393 172.874C124.513 172.797 124.574 172.678 124.574 172.518V172.49C124.574 172.143 124.47 171.873 124.264 171.683C124.058 171.492 123.761 171.396 123.373 171.396C122.964 171.396 122.639 171.486 122.399 171.664C122.162 171.843 122.002 172.053 121.919 172.297L120.359 172.075C120.482 171.644 120.685 171.284 120.968 170.995C121.251 170.702 121.597 170.484 122.007 170.339C122.416 170.191 122.868 170.118 123.364 170.118C123.706 170.118 124.046 170.158 124.384 170.238C124.723 170.318 125.032 170.45 125.312 170.635C125.592 170.816 125.817 171.064 125.986 171.378C126.158 171.692 126.245 172.084 126.245 172.555V177.301H124.638V176.327H124.583C124.481 176.524 124.338 176.708 124.153 176.881C123.972 177.05 123.743 177.187 123.466 177.292C123.192 177.393 122.87 177.444 122.501 177.444ZM122.935 176.216C123.27 176.216 123.561 176.15 123.807 176.017C124.053 175.882 124.243 175.703 124.375 175.482C124.51 175.26 124.578 175.019 124.578 174.757V173.922C124.526 173.965 124.437 174.005 124.31 174.042C124.187 174.078 124.049 174.111 123.895 174.138C123.741 174.166 123.589 174.191 123.438 174.212C123.287 174.234 123.156 174.252 123.045 174.268C122.796 174.302 122.573 174.357 122.376 174.434C122.179 174.511 122.024 174.619 121.91 174.757C121.796 174.893 121.739 175.068 121.739 175.283C121.739 175.591 121.851 175.824 122.076 175.98C122.301 176.137 122.587 176.216 122.935 176.216ZM131.466 170.21V171.502H127.39V170.21H131.466ZM128.396 168.511H130.067V175.168C130.067 175.393 130.101 175.565 130.169 175.685C130.239 175.802 130.332 175.882 130.446 175.925C130.56 175.968 130.686 175.99 130.824 175.99C130.929 175.99 131.024 175.982 131.11 175.967C131.2 175.951 131.267 175.937 131.314 175.925L131.595 177.232C131.506 177.262 131.378 177.296 131.212 177.333C131.049 177.37 130.849 177.392 130.612 177.398C130.193 177.41 129.816 177.347 129.481 177.208C129.145 177.067 128.879 176.848 128.682 176.553C128.488 176.257 128.393 175.888 128.396 175.445V168.511ZM132.864 177.301V170.21H134.535V177.301H132.864ZM133.704 169.203C133.439 169.203 133.211 169.116 133.021 168.94C132.83 168.762 132.734 168.548 132.734 168.299C132.734 168.046 132.83 167.832 133.021 167.657C133.211 167.478 133.439 167.389 133.704 167.389C133.972 167.389 134.199 167.478 134.387 167.657C134.578 167.832 134.673 168.046 134.673 168.299C134.673 168.548 134.578 168.762 134.387 168.94C134.199 169.116 133.972 169.203 133.704 169.203ZM139.346 177.439C138.654 177.439 138.054 177.287 137.546 176.982C137.038 176.678 136.644 176.251 136.364 175.703C136.087 175.156 135.949 174.516 135.949 173.783C135.949 173.051 136.087 172.409 136.364 171.858C136.644 171.307 137.038 170.879 137.546 170.575C138.054 170.27 138.654 170.118 139.346 170.118C140.039 170.118 140.639 170.27 141.147 170.575C141.654 170.879 142.047 171.307 142.324 171.858C142.604 172.409 142.744 173.051 142.744 173.783C142.744 174.516 142.604 175.156 142.324 175.703C142.047 176.251 141.654 176.678 141.147 176.982C140.639 177.287 140.039 177.439 139.346 177.439ZM139.355 176.1C139.731 176.1 140.045 175.997 140.297 175.791C140.55 175.582 140.737 175.302 140.86 174.951C140.987 174.6 141.05 174.209 141.05 173.778C141.05 173.344 140.987 172.952 140.86 172.601C140.737 172.247 140.55 171.966 140.297 171.756C140.045 171.547 139.731 171.442 139.355 171.442C138.971 171.442 138.651 171.547 138.395 171.756C138.143 171.966 137.954 172.247 137.827 172.601C137.704 172.952 137.643 173.344 137.643 173.778C137.643 174.209 137.704 174.6 137.827 174.951C137.954 175.302 138.143 175.582 138.395 175.791C138.651 175.997 138.971 176.1 139.355 176.1ZM145.834 173.146V177.301H144.162V170.21H145.76V171.415H145.843C146.006 171.018 146.266 170.702 146.623 170.468C146.983 170.234 147.428 170.118 147.957 170.118C148.446 170.118 148.873 170.222 149.236 170.431C149.602 170.641 149.885 170.944 150.085 171.341C150.288 171.738 150.388 172.22 150.385 172.786V177.301H148.714V173.044C148.714 172.57 148.591 172.2 148.345 171.932C148.102 171.664 147.765 171.53 147.334 171.53C147.042 171.53 146.781 171.595 146.554 171.724C146.329 171.85 146.152 172.033 146.023 172.273C145.897 172.513 145.834 172.804 145.834 173.146Z" fill="#3F434A"/>
<rect x="60.6367" y="193.801" width="518" height="46" rx="7.5" fill="white"/>
<rect x="60.6367" y="193.801" width="518" height="46" rx="7.5" stroke="#E9EAEB"/>
<rect x="77.7734" y="209.555" width="255.918" height="14" rx="5" fill="#E6EBF2"/>
<path d="M66.2074 264.445C66.1643 264.042 65.9827 263.728 65.6626 263.504C65.3456 263.279 64.9332 263.167 64.4254 263.167C64.0684 263.167 63.7622 263.22 63.5067 263.328C63.2513 263.436 63.0559 263.582 62.9205 263.767C62.785 263.951 62.7158 264.162 62.7127 264.399C62.7127 264.596 62.7573 264.767 62.8466 264.912C62.9389 265.056 63.0636 265.179 63.2205 265.281C63.3775 265.379 63.5514 265.462 63.7422 265.53C63.933 265.598 64.1254 265.655 64.3192 265.701L65.2056 265.923C65.5626 266.006 65.9058 266.118 66.2351 266.26C66.5675 266.401 66.8645 266.58 67.1261 266.795C67.3907 267.011 67.6 267.271 67.7539 267.575C67.9078 267.88 67.9847 268.237 67.9847 268.646C67.9847 269.2 67.8432 269.688 67.56 270.11C67.2769 270.528 66.8675 270.856 66.332 271.093C65.7996 271.327 65.1548 271.444 64.3977 271.444C63.6622 271.444 63.0236 271.33 62.4819 271.102C61.9433 270.875 61.5217 270.542 61.217 270.105C60.9154 269.668 60.7522 269.136 60.7276 268.508H62.4126C62.4373 268.837 62.5388 269.111 62.7173 269.33C62.8958 269.548 63.1282 269.711 63.4144 269.819C63.7037 269.927 64.0269 269.98 64.3839 269.98C64.7563 269.98 65.0825 269.925 65.3626 269.814C65.6457 269.7 65.8673 269.543 66.0273 269.343C66.1874 269.14 66.2689 268.903 66.272 268.632C66.2689 268.386 66.1966 268.183 66.055 268.023C65.9135 267.86 65.715 267.725 65.4595 267.617C65.2071 267.506 64.9117 267.408 64.5732 267.321L63.4975 267.044C62.7189 266.844 62.1033 266.541 61.6509 266.135C61.2016 265.726 60.9769 265.182 60.9769 264.505C60.9769 263.948 61.1277 263.46 61.4293 263.042C61.734 262.623 62.148 262.299 62.6712 262.068C63.1944 261.834 63.7868 261.717 64.4485 261.717C65.1194 261.717 65.7073 261.834 66.212 262.068C66.7198 262.299 67.1184 262.62 67.4077 263.033C67.697 263.442 67.8462 263.913 67.8555 264.445H66.2074ZM72.577 271.439C71.866 271.439 71.252 271.292 70.735 270.996C70.221 270.698 69.8256 270.276 69.5486 269.731C69.2716 269.183 69.1331 268.539 69.1331 267.797C69.1331 267.067 69.2716 266.427 69.5486 265.876C69.8286 265.322 70.2195 264.892 70.7211 264.584C71.2228 264.273 71.8122 264.118 72.4893 264.118C72.9263 264.118 73.3387 264.188 73.7265 264.33C74.1173 264.468 74.462 264.684 74.7606 264.976C75.0622 265.269 75.2992 265.641 75.4715 266.093C75.6439 266.543 75.73 267.078 75.73 267.7V268.212H69.9179V267.086H74.1281C74.125 266.766 74.0558 266.481 73.9204 266.232C73.7849 265.98 73.5957 265.781 73.3525 265.636C73.1125 265.492 72.8324 265.419 72.5123 265.419C72.1707 265.419 71.8707 265.502 71.6121 265.669C71.3536 265.832 71.152 266.047 71.0074 266.315C70.8658 266.58 70.7935 266.871 70.7904 267.188V268.171C70.7904 268.583 70.8658 268.937 71.0166 269.233C71.1674 269.525 71.3782 269.75 71.6491 269.907C71.9199 270.06 72.2369 270.137 72.6001 270.137C72.8432 270.137 73.0632 270.104 73.2602 270.036C73.4572 269.965 73.628 269.862 73.7726 269.727C73.9173 269.591 74.0265 269.423 74.1004 269.223L75.6608 269.399C75.5623 269.811 75.3746 270.171 75.0976 270.479C74.8237 270.784 74.4728 271.021 74.045 271.19C73.6172 271.356 73.1279 271.439 72.577 271.439ZM77.1438 271.301V264.21H78.7642V265.392H78.8381C78.9673 264.982 79.1889 264.667 79.5028 264.445C79.8198 264.221 80.1815 264.108 80.5877 264.108C80.68 264.108 80.7831 264.113 80.897 264.122C81.014 264.128 81.1109 264.139 81.1879 264.154V265.692C81.1171 265.667 81.0047 265.646 80.8509 265.627C80.7 265.606 80.5539 265.595 80.4123 265.595C80.1076 265.595 79.8337 265.661 79.5906 265.793C79.3505 265.923 79.1612 266.103 79.0227 266.333C78.8842 266.564 78.815 266.83 78.815 267.132V271.301H77.1438ZM88.8477 264.21L86.3225 271.301H84.4759L81.9507 264.21H83.7327L85.3623 269.477H85.4362L87.0704 264.21H88.8477ZM90.0042 271.301V264.21H91.6753V271.301H90.0042ZM90.8444 263.203C90.5797 263.203 90.3519 263.116 90.1611 262.94C89.9703 262.762 89.8749 262.548 89.8749 262.299C89.8749 262.046 89.9703 261.832 90.1611 261.657C90.3519 261.478 90.5797 261.389 90.8444 261.389C91.1121 261.389 91.3399 261.478 91.5276 261.657C91.7184 261.832 91.8138 262.046 91.8138 262.299C91.8138 262.548 91.7184 262.762 91.5276 262.94C91.3399 263.116 91.1121 263.203 90.8444 263.203ZM96.4869 271.439C95.779 271.439 95.1712 271.284 94.6634 270.973C94.1586 270.662 93.7693 270.233 93.4954 269.685C93.2246 269.134 93.0891 268.5 93.0891 267.783C93.0891 267.063 93.2276 266.427 93.5046 265.876C93.7816 265.322 94.1725 264.892 94.6772 264.584C95.185 264.273 95.7852 264.118 96.4776 264.118C97.0531 264.118 97.5625 264.224 98.0057 264.436C98.4519 264.645 98.8074 264.942 99.0721 265.327C99.3368 265.709 99.4876 266.155 99.5245 266.666H97.9272C97.8626 266.324 97.7087 266.04 97.4656 265.812C97.2255 265.581 96.9039 265.466 96.5007 265.466C96.1591 265.466 95.859 265.558 95.6005 265.743C95.342 265.924 95.1404 266.186 94.9957 266.527C94.8542 266.869 94.7834 267.278 94.7834 267.755C94.7834 268.239 94.8542 268.654 94.9957 269.002C95.1373 269.346 95.3358 269.613 95.5913 269.8C95.8498 269.985 96.1529 270.077 96.5007 270.077C96.7469 270.077 96.967 270.031 97.1609 269.939C97.3578 269.844 97.5225 269.707 97.6548 269.528C97.7872 269.35 97.878 269.133 97.9272 268.877H99.5245C99.4845 269.379 99.3368 269.824 99.0813 270.211C98.8259 270.596 98.4781 270.898 98.038 271.116C97.5979 271.332 97.0808 271.439 96.4869 271.439ZM104.036 271.439C103.325 271.439 102.711 271.292 102.194 270.996C101.68 270.698 101.285 270.276 101.008 269.731C100.731 269.183 100.592 268.539 100.592 267.797C100.592 267.067 100.731 266.427 101.008 265.876C101.288 265.322 101.678 264.892 102.18 264.584C102.682 264.273 103.271 264.118 103.948 264.118C104.385 264.118 104.798 264.188 105.185 264.33C105.576 264.468 105.921 264.684 106.22 264.976C106.521 265.269 106.758 265.641 106.93 266.093C107.103 266.543 107.189 267.078 107.189 267.7V268.212H101.377V267.086H105.587C105.584 266.766 105.515 266.481 105.379 266.232C105.244 265.98 105.055 265.781 104.812 265.636C104.571 265.492 104.291 265.419 103.971 265.419C103.63 265.419 103.33 265.502 103.071 265.669C102.813 265.832 102.611 266.047 102.466 266.315C102.325 266.58 102.252 266.871 102.249 267.188V268.171C102.249 268.583 102.325 268.937 102.476 269.233C102.626 269.525 102.837 269.75 103.108 269.907C103.379 270.06 103.696 270.137 104.059 270.137C104.302 270.137 104.522 270.104 104.719 270.036C104.916 269.965 105.087 269.862 105.232 269.727C105.376 269.591 105.486 269.423 105.559 269.223L107.12 269.399C107.021 269.811 106.834 270.171 106.557 270.479C106.283 270.784 105.932 271.021 105.504 271.19C105.076 271.356 104.587 271.439 104.036 271.439ZM119.671 261.846V271.301H118.147L113.692 264.861H113.614V271.301H111.901V261.846H113.434L117.884 268.291H117.967V261.846H119.671ZM123.504 271.444C123.054 271.444 122.65 271.364 122.29 271.204C121.932 271.041 121.649 270.801 121.44 270.484C121.234 270.167 121.131 269.776 121.131 269.311C121.131 268.911 121.205 268.58 121.352 268.319C121.5 268.057 121.702 267.848 121.957 267.691C122.213 267.534 122.5 267.415 122.82 267.335C123.144 267.252 123.477 267.192 123.822 267.155C124.238 267.112 124.575 267.074 124.833 267.04C125.092 267.003 125.279 266.947 125.396 266.874C125.516 266.797 125.576 266.678 125.576 266.518V266.49C125.576 266.143 125.473 265.873 125.267 265.683C125.061 265.492 124.764 265.396 124.376 265.396C123.967 265.396 123.642 265.486 123.402 265.664C123.165 265.843 123.005 266.053 122.922 266.297L121.362 266.075C121.485 265.644 121.688 265.284 121.971 264.995C122.254 264.702 122.6 264.484 123.01 264.339C123.419 264.191 123.871 264.118 124.367 264.118C124.709 264.118 125.049 264.158 125.387 264.238C125.726 264.318 126.035 264.45 126.315 264.635C126.595 264.816 126.82 265.064 126.989 265.378C127.161 265.692 127.248 266.084 127.248 266.555V271.301H125.641V270.327H125.586C125.484 270.524 125.341 270.708 125.156 270.881C124.975 271.05 124.745 271.187 124.468 271.292C124.195 271.393 123.873 271.444 123.504 271.444ZM123.938 270.216C124.273 270.216 124.564 270.15 124.81 270.017C125.056 269.882 125.246 269.703 125.378 269.482C125.513 269.26 125.581 269.019 125.581 268.757V267.922C125.529 267.965 125.439 268.005 125.313 268.042C125.19 268.078 125.052 268.111 124.898 268.138C124.744 268.166 124.592 268.191 124.441 268.212C124.29 268.234 124.159 268.252 124.048 268.268C123.799 268.302 123.576 268.357 123.379 268.434C123.182 268.511 123.027 268.619 122.913 268.757C122.799 268.893 122.742 269.068 122.742 269.283C122.742 269.591 122.854 269.824 123.079 269.98C123.304 270.137 123.59 270.216 123.938 270.216ZM128.928 271.301V264.21H130.525V265.415H130.608C130.756 265.009 131.001 264.692 131.342 264.464C131.684 264.233 132.092 264.118 132.566 264.118C133.046 264.118 133.451 264.234 133.78 264.468C134.112 264.699 134.346 265.015 134.482 265.415H134.555C134.712 265.021 134.977 264.707 135.35 264.473C135.725 264.236 136.17 264.118 136.684 264.118C137.336 264.118 137.869 264.324 138.281 264.736C138.693 265.149 138.9 265.75 138.9 266.541V271.301H137.224V266.8C137.224 266.36 137.107 266.038 136.873 265.835C136.639 265.629 136.353 265.526 136.014 265.526C135.611 265.526 135.296 265.652 135.068 265.904C134.843 266.153 134.731 266.478 134.731 266.878V271.301H133.092V266.73C133.092 266.364 132.981 266.072 132.76 265.853C132.541 265.635 132.255 265.526 131.901 265.526C131.661 265.526 131.442 265.587 131.245 265.71C131.049 265.83 130.892 266.001 130.775 266.223C130.658 266.441 130.599 266.697 130.599 266.989V271.301H128.928ZM143.734 271.439C143.023 271.439 142.409 271.292 141.892 270.996C141.378 270.698 140.983 270.276 140.706 269.731C140.429 269.183 140.29 268.539 140.29 267.797C140.29 267.067 140.429 266.427 140.706 265.876C140.986 265.322 141.377 264.892 141.878 264.584C142.38 264.273 142.969 264.118 143.646 264.118C144.084 264.118 144.496 264.188 144.884 264.33C145.275 264.468 145.619 264.684 145.918 264.976C146.219 265.269 146.456 265.641 146.629 266.093C146.801 266.543 146.887 267.078 146.887 267.7V268.212H141.075V267.086H145.285C145.282 266.766 145.213 266.481 145.078 266.232C144.942 265.98 144.753 265.781 144.51 265.636C144.27 265.492 143.99 265.419 143.67 265.419C143.328 265.419 143.028 265.502 142.769 265.669C142.511 265.832 142.309 266.047 142.165 266.315C142.023 266.58 141.951 266.871 141.948 267.188V268.171C141.948 268.583 142.023 268.937 142.174 269.233C142.325 269.525 142.535 269.75 142.806 269.907C143.077 270.06 143.394 270.137 143.757 270.137C144 270.137 144.22 270.104 144.417 270.036C144.614 269.965 144.785 269.862 144.93 269.727C145.075 269.591 145.184 269.423 145.258 269.223L146.818 269.399C146.72 269.811 146.532 270.171 146.255 270.479C145.981 270.784 145.63 271.021 145.202 271.19C144.774 271.356 144.285 271.439 143.734 271.439Z" fill="#3F434A"/>
<rect x="60.6367" y="287.801" width="518" height="46" rx="7.5" fill="white"/>
<rect x="60.6367" y="287.801" width="518" height="46" rx="7.5" stroke="#E9EAEB"/>
<rect x="77.7734" y="303.855" width="125.812" height="14" rx="5" fill="#E6EBF2"/>
<rect x="60.6367" y="348.801" width="518" height="46" rx="7.5" fill="white"/>
<rect x="60.6367" y="348.801" width="518" height="46" rx="7.5" stroke="#E9EAEB"/>
<rect x="77.7734" y="364.855" width="125.812" height="14" rx="5" fill="#E6EBF2"/>
</g>
<rect x="0.556298" y="0.556298" width="637.887" height="505.887" rx="17.2452" stroke="#E5E5E5" stroke-width="1.1126"/>
<defs>
<linearGradient id="paint0_linear_162_16065" x1="543.929" y1="98.7915" x2="543.929" y2="1079.47" gradientUnits="userSpaceOnUse">
<stop stop-color="#2D7BFF"/>
<stop offset="1" stop-color="white" stop-opacity="0"/>
</linearGradient>
<linearGradient id="paint1_linear_162_16065" x1="247.919" y1="85.0859" x2="160.512" y2="85.0859" gradientUnits="userSpaceOnUse">
<stop stop-color="#E6EBF2"/>
<stop offset="1" stop-color="#2D7AFF"/>
</linearGradient>
<clipPath id="clip0_162_16065">
<rect width="639" height="507" rx="17.8015" fill="white"/>
</clipPath>
</defs>
</svg>
