<svg width="74" height="83" viewBox="0 0 74 83" fill="none" xmlns="http://www.w3.org/2000/svg">
<path d="M4.16012 18.3418L33.094 1.49786C35.3816 0.167381 38.2108 0.167381 40.5037 1.49786L69.4376 18.3418C71.7041 19.6617 73.0977 22.086 73.0977 24.7049V57.9773C73.0977 60.5962 71.7041 63.0205 69.4376 64.3405L40.5037 81.1844C38.2161 82.5149 35.3868 82.5149 33.094 81.1844L4.16012 64.3405C1.89358 63.0205 0.5 60.5962 0.5 57.9773V24.7049C0.5 22.086 1.89358 19.6617 4.16012 18.3418Z" fill="#F7F7F5" fill-opacity="0.59" stroke="#8FB4F5" stroke-miterlimit="10"/>
<path d="M8.667 21.5167L33.6042 7.00239C35.5763 5.85597 38.0163 5.85597 39.9884 7.00239L64.9256 21.5167C66.8766 22.6526 68.0809 24.7403 68.0809 27.0016V55.6778C68.0809 57.9391 66.8819 60.0268 64.9256 61.1627L39.9884 75.677C38.0163 76.8234 35.5763 76.8234 33.6042 75.677L8.667 61.1627C6.71598 60.0268 5.51172 57.9391 5.51172 55.6778V27.0016C5.51172 24.7403 6.71072 22.6526 8.667 21.5167Z" fill="url(#paint0_linear_109_1800)"/>
<g filter="url(#filter0_d_109_1800)">
<path d="M56.1653 45.7545C56.1036 45.7545 56.042 45.7545 56.042 45.6929C56.042 45.6312 55.9187 45.6312 55.7954 45.6312C55.5489 45.5696 55.3023 45.5696 55.0557 45.5696C54.9324 45.5696 54.8092 45.5696 54.6859 45.508H54.6242C53.9462 45.4463 53.2065 45.323 52.5284 45.1381C52.3435 45.0765 52.1586 44.8915 52.097 44.7066L51.6038 44.5833C51.8504 42.7958 51.7271 40.9465 51.3573 39.1589C50.9258 37.3713 50.1861 35.6454 49.1998 34.1044L49.5697 33.7345V33.6729C49.5697 33.488 49.6313 33.2414 49.7546 33.1181C50.3094 32.625 50.8641 32.2551 51.4806 31.8853C51.6038 31.8237 51.7271 31.762 51.8504 31.7004C52.097 31.5771 52.2819 31.4538 52.5284 31.3305C52.5901 31.2689 52.6517 31.2689 52.7134 31.2073C52.775 31.1456 52.7134 31.1456 52.7134 31.084C53.2681 30.6525 53.3914 29.9128 52.9599 29.358C52.775 29.1115 52.4052 28.9265 52.097 28.9265C51.7888 28.9265 51.4806 29.0498 51.234 29.2347L51.1723 29.2964C51.1107 29.358 51.0491 29.4197 50.9874 29.4197C50.8025 29.6046 50.6176 29.7895 50.4943 29.9744C50.4327 30.0977 50.3094 30.1594 50.2477 30.221C49.8162 30.7141 49.2615 31.2073 48.7067 31.5771C48.5834 31.6387 48.4601 31.7004 48.3369 31.7004C48.2752 31.7004 48.1519 31.7004 48.0903 31.6387H48.0287L47.5355 31.9469C47.0424 31.4538 46.4876 30.9607 45.9945 30.4676C43.7138 28.68 40.8783 27.5704 37.9812 27.2622L37.9195 26.7691V26.8307C37.7346 26.7075 37.673 26.5225 37.6113 26.3376C37.6113 25.6596 37.6113 24.9815 37.7346 24.2418V24.1802C37.7346 24.0569 37.7963 23.9336 37.7963 23.8103C37.8579 23.5638 37.8579 23.3172 37.9195 23.0706V22.7008C37.9812 22.0844 37.4881 21.468 36.8716 21.4063C36.5018 21.3447 36.132 21.5296 35.8237 21.8378C35.5772 22.0844 35.4539 22.3926 35.4539 22.7008V23.009C35.4539 23.2556 35.5155 23.5021 35.5772 23.7487C35.6388 23.872 35.6388 23.9953 35.6388 24.1185V24.1802C35.7621 24.8582 35.7621 25.5363 35.7621 26.276C35.7005 26.4609 35.6388 26.6458 35.4539 26.7691V26.8924L35.3923 27.3855C34.7142 27.4472 34.0362 27.5704 33.2965 27.6937C30.3993 28.3101 27.7488 29.8512 25.7146 32.0086L25.3448 31.762H25.2831C25.2215 31.762 25.1599 31.8237 25.0366 31.8237C24.9133 31.8237 24.79 31.762 24.6667 31.7004C24.112 31.2689 23.5572 30.7758 23.1257 30.2826C23.0641 30.1594 22.9408 30.0977 22.8792 30.0361C22.6942 29.8512 22.5709 29.6662 22.386 29.4813C22.3244 29.4197 22.2627 29.4197 22.2011 29.358C22.1395 29.2964 22.1395 29.2964 22.1395 29.2964C21.8929 29.1115 21.5847 28.9882 21.2765 28.9882C20.9066 28.9882 20.5984 29.1115 20.4135 29.4197C20.0437 29.9744 20.1669 30.7141 20.6601 31.1456C20.7217 31.1456 20.7217 31.2073 20.7217 31.2073C20.7217 31.2073 20.845 31.3305 20.9066 31.3305C21.0916 31.4538 21.3381 31.5771 21.5847 31.7004C21.708 31.762 21.8313 31.8237 21.9545 31.8853C22.5709 32.2551 23.1874 32.625 23.6805 33.1181C23.8038 33.2414 23.927 33.488 23.8654 33.6729V33.6113L24.2353 33.9811C24.1736 34.1044 24.112 34.166 24.0503 34.2893C22.1395 37.3097 21.3381 40.8849 21.8929 44.3984L21.3998 44.5217C21.3998 44.5833 21.3381 44.5833 21.3381 44.5833C21.2765 44.7683 21.0916 44.8915 20.9066 45.0148C20.2286 45.1998 19.5505 45.323 18.8108 45.3847C18.6876 45.3847 18.5643 45.3847 18.441 45.4463C18.1944 45.4463 17.9479 45.508 17.7013 45.508C17.6397 45.508 17.578 45.5696 17.4547 45.5696C17.3931 45.5696 17.3931 45.5696 17.3315 45.6312C16.6534 45.7545 16.2219 46.3709 16.3452 47.049C16.4685 47.6037 17.0233 47.9736 17.578 47.912C17.7013 47.912 17.763 47.9119 17.8862 47.8503C17.9479 47.8503 17.9479 47.8503 17.9479 47.7887C17.9479 47.727 18.1328 47.7887 18.1944 47.7887C18.441 47.727 18.6876 47.6037 18.8725 47.5421C18.9958 47.4805 19.1191 47.4188 19.2423 47.4188H19.304C19.982 47.1723 20.5984 46.9873 21.3381 46.8641H21.3998C21.5847 46.8641 21.7696 46.9257 21.8929 47.049C21.9545 47.049 21.9545 47.1106 21.9545 47.1106L22.5093 47.049C23.4339 49.8845 25.1599 52.4117 27.5639 54.261C28.1186 54.6925 28.6118 55.0623 29.2282 55.3705L28.92 55.802C28.92 55.8636 28.9816 55.8636 28.9816 55.8636C29.1049 56.0486 29.1049 56.2951 29.0432 56.48C28.7967 57.0965 28.4268 57.7129 28.057 58.2676V58.3293C27.9953 58.4526 27.9337 58.5142 27.8104 58.6375C27.6871 58.7608 27.5639 59.0073 27.3789 59.2539C27.3173 59.3155 27.3173 59.3772 27.2557 59.4388C27.2557 59.4388 27.2557 59.5004 27.194 59.5004C26.8858 60.1169 27.1324 60.8565 27.6871 61.1648C27.8104 61.2264 27.9954 61.288 28.1186 61.288C28.6118 61.288 29.0432 60.9798 29.2898 60.5483C29.2898 60.5483 29.2898 60.4867 29.3515 60.4867C29.3515 60.4251 29.4131 60.3634 29.4747 60.3018C29.5364 60.0552 29.6597 59.8703 29.7213 59.6237L29.8446 59.2539C30.0295 58.5758 30.3377 57.9594 30.6459 57.343C30.7692 57.1581 30.9541 57.0348 31.139 56.9732C31.2007 56.9732 31.2007 56.9732 31.2007 56.9115L31.4472 56.4184C33.1732 57.0965 34.9608 57.4047 36.81 57.4047C37.9195 57.4047 39.0291 57.2814 40.1386 56.9732C40.8167 56.8499 41.4947 56.6033 42.1111 56.4184L42.3577 56.8499C42.4193 56.8499 42.4193 56.8499 42.4193 56.9115C42.6043 56.9732 42.7892 57.0965 42.9125 57.2814C43.2207 57.8978 43.5289 58.5142 43.7138 59.1922V59.2539L43.8371 59.6237C43.8987 59.8703 43.9604 60.1169 44.0836 60.3018C44.1453 60.3634 44.1453 60.4251 44.2069 60.4867C44.2069 60.4867 44.2069 60.5483 44.2686 60.5483C44.5151 60.9798 44.9466 61.288 45.4397 61.288C45.6247 61.288 45.7479 61.2264 45.9329 61.1648C46.1794 61.0415 46.426 60.7949 46.4876 60.4867C46.5493 60.1785 46.5493 59.8703 46.426 59.5621C46.426 59.5004 46.3644 59.5004 46.3644 59.5004C46.3644 59.4388 46.3027 59.3772 46.2411 59.3155C46.1178 59.069 45.9945 58.884 45.8096 58.6991C45.7479 58.5758 45.6863 58.5142 45.563 58.3909V58.2676C45.1315 57.7129 44.8233 57.0965 44.5768 56.48C44.5151 56.2951 44.5151 56.0486 44.6384 55.8636C44.6384 55.802 44.7 55.802 44.7 55.802L44.5151 55.3089C47.6588 53.398 50.0628 50.4392 51.1723 46.9257L51.6655 46.9873C51.7271 46.9873 51.7271 46.9257 51.7271 46.9257C51.8504 46.8024 52.0353 46.7408 52.2202 46.7408H52.2819C52.9599 46.8641 53.638 47.049 54.2544 47.2955H54.316C54.4393 47.3572 54.5626 47.4188 54.6859 47.4188C54.9324 47.5421 55.1174 47.6654 55.3639 47.727C55.4256 47.727 55.4872 47.7887 55.6105 47.7887C55.6721 47.7887 55.6721 47.7887 55.7338 47.8503C55.8571 47.9119 55.9187 47.912 56.042 47.912C56.5968 47.912 57.0899 47.5421 57.2748 47.049C57.2132 46.3709 56.72 45.8778 56.1653 45.7545ZM38.351 43.8436L36.6867 44.645L35.0224 43.8436L34.5909 42.0561L35.7621 40.5767H37.6113L38.7825 42.0561L38.351 43.8436ZM48.3985 39.837C48.7067 41.1314 48.7683 42.4259 48.6451 43.7204L42.7892 42.0561C42.2344 41.9328 41.9262 41.378 42.0495 40.8232C42.1111 40.6383 42.1728 40.515 42.296 40.3918L46.9191 36.2002C47.5972 37.3097 48.0903 38.5425 48.3985 39.837ZM45.0699 33.9195L40.0153 37.4946C39.5838 37.7412 38.9674 37.6796 38.6592 37.2481C38.536 37.1248 38.4743 37.0015 38.4743 36.8166L38.1045 30.5908C40.8167 30.899 43.2207 32.0702 45.0699 33.9195ZM33.9129 30.7758L35.1457 30.5292L34.8375 36.6933C34.8375 37.2481 34.3444 37.6796 33.7896 37.6796C33.6047 37.6796 33.4814 37.6179 33.2965 37.5563L28.1803 33.9195C29.7829 32.3784 31.7554 31.2689 33.9129 30.7758ZM26.3927 36.2002L30.9541 40.2685C31.3856 40.6383 31.4472 41.2547 31.0774 41.6862C30.9541 41.8711 30.8308 41.9328 30.5843 41.9944L24.6051 43.7204C24.4202 41.1314 25.0366 38.4809 26.3927 36.2002ZM25.3448 46.6175L31.4472 45.5696C31.9404 45.5696 32.4335 45.8778 32.4951 46.3709C32.5568 46.5559 32.5568 46.8024 32.4335 46.9873L30.0911 52.6583C27.9337 51.2406 26.2078 49.0831 25.3448 46.6175ZM39.3373 54.261C38.4743 54.4459 37.6113 54.5692 36.6867 54.5692C35.3923 54.5692 34.0362 54.3226 32.8033 53.9528L35.8237 48.4667C36.132 48.0969 36.6251 47.9736 37.0566 48.2202C37.2415 48.3434 37.3648 48.4667 37.5497 48.6516L40.5085 54.0144C40.1386 54.076 39.7688 54.1377 39.3373 54.261ZM46.8575 48.8982C45.9329 50.3776 44.6384 51.672 43.159 52.5967L40.755 46.8024C40.6317 46.3093 40.8783 45.8162 41.3098 45.6312C41.4947 45.5696 41.6796 45.508 41.8646 45.508L48.0287 46.5559C47.7205 47.4188 47.3506 48.2202 46.8575 48.8982Z" fill="white"/>
</g>
<defs>
<filter id="filter0_d_109_1800" x="8.32422" y="19.3945" width="56.9492" height="55.8926" filterUnits="userSpaceOnUse" color-interpolation-filters="sRGB">
<feFlood flood-opacity="0" result="BackgroundImageFix"/>
<feColorMatrix in="SourceAlpha" type="matrix" values="0 0 0 0 0 0 0 0 0 0 0 0 0 0 0 0 0 0 127 0" result="hardAlpha"/>
<feOffset dy="6"/>
<feGaussianBlur stdDeviation="4"/>
<feComposite in2="hardAlpha" operator="out"/>
<feColorMatrix type="matrix" values="0 0 0 0 0.118632 0 0 0 0 0.372589 0 0 0 0 0.812782 0 0 0 0.4 0"/>
<feBlend mode="normal" in2="BackgroundImageFix" result="effect1_dropShadow_109_1800"/>
<feBlend mode="normal" in="SourceGraphic" in2="effect1_dropShadow_109_1800" result="shape"/>
</filter>
<linearGradient id="paint0_linear_109_1800" x1="36.7963" y1="76.5368" x2="36.7963" y2="6.14258" gradientUnits="userSpaceOnUse">
<stop stop-color="#2D7AFF"/>
<stop offset="1" stop-color="#A6C7FF"/>
</linearGradient>
</defs>
</svg>
