<svg width="163" height="87" viewBox="0 0 163 87" fill="none" xmlns="http://www.w3.org/2000/svg">
<g clip-path="url(#clip0_263_35393)">
<path d="M162.505 54.0934C162.505 54.0523 162.505 54.0171 162.505 53.976C162.505 53.8528 162.499 53.7295 162.493 53.6121C162.493 53.5769 162.493 53.5475 162.487 53.5123C162.487 53.4536 162.475 53.3949 162.475 53.3362C162.469 53.2599 162.463 53.1836 162.458 53.1073C162.446 52.9958 162.434 52.8784 162.417 52.7668L157.674 19.7434C157.644 19.5263 157.603 19.3208 157.556 19.1154C157.539 19.0449 157.521 18.9804 157.504 18.9158C157.474 18.8043 157.451 18.6928 157.421 18.5812C157.415 18.5577 157.404 18.5401 157.398 18.5167C157.369 18.411 157.333 18.3171 157.298 18.2173C157.269 18.141 157.251 18.0588 157.222 17.9825C157.21 17.959 157.204 17.9356 157.192 17.9121C157.175 17.8651 157.151 17.8123 157.134 17.7653C157.104 17.6949 157.081 17.6245 157.046 17.5599C157.016 17.4953 156.987 17.4308 156.952 17.3662C156.934 17.3368 156.922 17.3075 156.911 17.2781C156.899 17.2605 156.893 17.237 156.881 17.2194C156.828 17.1255 156.782 17.0316 156.723 16.9377C156.699 16.9025 156.682 16.8673 156.658 16.832C156.647 16.8144 156.635 16.7909 156.623 16.7733C156.605 16.7499 156.594 16.7205 156.576 16.697C156.529 16.6266 156.482 16.5562 156.429 16.4857C156.4 16.4446 156.365 16.4035 156.335 16.3625C156.33 16.3507 156.318 16.339 156.312 16.3331C156.306 16.3214 156.294 16.3096 156.288 16.2979C156.242 16.2392 156.195 16.1864 156.148 16.1277C156.101 16.0748 156.054 16.0279 156.007 15.975C156.001 15.9692 155.989 15.9574 155.983 15.9516C155.977 15.9457 155.971 15.9398 155.966 15.934C155.936 15.9046 155.901 15.8694 155.872 15.84C155.825 15.799 155.778 15.752 155.731 15.7168C155.69 15.6816 155.643 15.6463 155.602 15.6111L136.384 0.907312C136.384 0.907312 136.372 0.895572 136.366 0.889702C136.319 0.854484 136.267 0.819265 136.22 0.784046C136.167 0.748828 136.12 0.719479 136.067 0.69013C136.044 0.67839 136.02 0.666651 136.002 0.654911C135.991 0.654911 135.985 0.643171 135.973 0.637302C135.956 0.625562 135.932 0.613822 135.914 0.602083C135.862 0.572734 135.809 0.549255 135.75 0.525776C135.691 0.502297 135.639 0.478817 135.58 0.455338C135.58 0.455338 135.58 0.455338 135.574 0.455338C135.574 0.455338 135.574 0.455338 135.568 0.455338C135.515 0.437729 135.457 0.42012 135.404 0.40251C135.339 0.384901 135.275 0.367292 135.216 0.355552C135.198 0.355552 135.187 0.355552 135.169 0.349682C135.151 0.349682 135.14 0.349682 135.122 0.343812C135.081 0.337943 135.046 0.332073 135.005 0.326203C134.928 0.314464 134.852 0.314464 134.776 0.308594C134.758 0.308594 134.74 0.308594 134.717 0.308594H124.68C124.815 0.308594 124.95 0.320333 125.079 0.343812C125.096 0.343812 125.108 0.343812 125.126 0.349682C125.261 0.373161 125.39 0.40838 125.525 0.455338C125.525 0.455338 125.525 0.455338 125.531 0.455338C125.666 0.502297 125.795 0.566864 125.93 0.637302C125.942 0.637302 125.948 0.649041 125.959 0.654911C126.088 0.731218 126.218 0.813395 126.347 0.907312L145.553 15.6052C145.682 15.705 145.805 15.8107 145.922 15.9281C145.928 15.934 145.934 15.9398 145.94 15.9457C146.057 16.0631 146.169 16.1864 146.275 16.3214C146.28 16.3331 146.292 16.3448 146.298 16.3507C146.398 16.4798 146.492 16.6149 146.586 16.7616C146.597 16.7792 146.609 16.8027 146.621 16.8203C146.709 16.9612 146.791 17.1079 146.867 17.2664C146.885 17.2957 146.897 17.3251 146.909 17.3544C146.973 17.4836 147.032 17.6186 147.085 17.7536C147.102 17.8005 147.126 17.8475 147.143 17.9003C147.184 18.0001 147.214 18.1058 147.249 18.2114C147.284 18.3112 147.319 18.411 147.349 18.5108C147.39 18.6399 147.419 18.7749 147.454 18.9099C147.472 18.9745 147.49 19.0391 147.501 19.1095C147.548 19.315 147.584 19.5263 147.619 19.7434L152.362 52.7668C152.391 52.9547 152.409 53.1484 152.42 53.3421C152.42 53.4008 152.432 53.4595 152.432 53.5182C152.444 53.7119 152.45 53.9056 152.45 54.0993C152.45 54.1228 152.45 54.1521 152.45 54.1756C152.45 54.381 152.444 54.5865 152.426 54.7861C152.426 54.8037 152.426 54.8154 152.426 54.833C152.409 55.0443 152.385 55.2615 152.356 55.4669C152.356 55.4787 152.356 55.4904 152.356 55.5022C152.326 55.7076 152.291 55.913 152.244 56.1126C152.244 56.1244 152.244 56.1302 152.238 56.142C152.191 56.3474 152.144 56.5411 152.086 56.7407C152.086 56.7524 152.08 56.77 152.074 56.7818C152.015 56.9755 151.951 57.1692 151.874 57.357C151.874 57.357 151.874 57.3629 151.874 57.3688C151.798 57.5625 151.716 57.7444 151.628 57.9264L138.339 84.4108C138.251 84.5811 138.163 84.7454 138.063 84.898C138.057 84.9098 138.045 84.9274 138.039 84.9391C137.951 85.08 137.857 85.2091 137.763 85.3324C137.74 85.3617 137.722 85.3852 137.699 85.4146C137.605 85.5261 137.511 85.6376 137.411 85.7374C137.4 85.755 137.382 85.7668 137.37 85.7844C137.353 85.802 137.335 85.8137 137.317 85.8313C137.194 85.9487 137.071 86.0544 136.942 86.1483C136.895 86.1835 136.842 86.2129 136.795 86.2422C136.695 86.3068 136.589 86.3713 136.484 86.4242C136.431 86.4535 136.372 86.477 136.319 86.5005C136.208 86.5474 136.096 86.5827 135.985 86.612C135.932 86.6238 135.885 86.6414 135.832 86.6531C135.668 86.6883 135.504 86.7059 135.339 86.7059H145.377C145.541 86.7059 145.705 86.6824 145.87 86.6531C145.922 86.6414 145.969 86.6238 146.022 86.612C146.134 86.5827 146.245 86.5474 146.357 86.5005C146.415 86.477 146.468 86.4535 146.521 86.4242C146.627 86.3713 146.732 86.3127 146.832 86.2422C146.879 86.2129 146.932 86.1835 146.979 86.1483C147.108 86.0544 147.231 85.9487 147.355 85.8313C147.372 85.8196 147.384 85.8078 147.402 85.7902C147.402 85.7902 147.402 85.7844 147.407 85.7785C147.419 85.7668 147.437 85.7492 147.449 85.7315C147.525 85.6494 147.601 85.5731 147.677 85.485C147.695 85.4615 147.713 85.4381 147.736 85.4146C147.76 85.3911 147.777 85.3617 147.801 85.3324C147.83 85.2913 147.859 85.2561 147.889 85.2209C147.948 85.1446 148 85.0624 148.059 84.9743C148.065 84.9626 148.071 84.9509 148.083 84.9391C148.088 84.9274 148.1 84.9098 148.106 84.898C148.141 84.8452 148.171 84.7924 148.206 84.7396C148.247 84.6632 148.294 84.5869 148.335 84.5106C148.353 84.4754 148.37 84.4461 148.388 84.4108L161.677 57.9264C161.7 57.8853 161.718 57.8442 161.741 57.7973C161.777 57.7209 161.812 57.6446 161.841 57.5683C161.871 57.5038 161.9 57.4333 161.923 57.3688C161.923 57.3688 161.923 57.3629 161.923 57.357C161.923 57.357 161.923 57.3511 161.923 57.3453C161.953 57.269 161.982 57.1927 162.006 57.1164C162.035 57.0401 162.058 56.9637 162.082 56.8874C162.094 56.8522 162.105 56.817 162.111 56.7818C162.111 56.77 162.123 56.7524 162.123 56.7407C162.129 56.7113 162.141 56.6879 162.147 56.6585C162.17 56.5822 162.188 56.5 162.211 56.4237C162.229 56.3415 162.252 56.2652 162.27 56.1831C162.27 56.1713 162.27 56.1596 162.276 56.1478C162.276 56.1361 162.276 56.1244 162.282 56.1185C162.293 56.0598 162.305 56.0011 162.317 55.9365C162.334 55.8544 162.346 55.7663 162.364 55.6841C162.375 55.6254 162.381 55.5667 162.393 55.508C162.393 55.4963 162.393 55.4846 162.393 55.4669C162.393 55.4493 162.393 55.4376 162.399 55.42C162.411 55.3319 162.422 55.2439 162.434 55.1558C162.446 55.0678 162.452 54.9739 162.458 54.88C162.458 54.8624 162.458 54.8448 162.458 54.833C162.458 54.8154 162.458 54.8037 162.458 54.7861C162.458 54.7215 162.469 54.6628 162.469 54.5982C162.469 54.4984 162.475 54.3986 162.481 54.2989C162.481 54.2578 162.481 54.2108 162.481 54.1697C162.481 54.1462 162.481 54.1169 162.481 54.0934H162.505Z" fill="white" stroke="#3497F9" stroke-width="0.586978" stroke-miterlimit="10"/>
<path d="M124.678 0.300781C125.247 0.300781 125.817 0.500354 126.345 0.905369L145.551 15.6033C146.602 16.4075 147.365 17.9336 147.623 19.7415L152.366 52.7649C152.624 54.5787 152.354 56.4746 151.626 57.9244L138.337 84.4089C137.609 85.8646 136.5 86.7099 135.338 86.7099H114.019C112.85 86.7099 111.747 85.8646 111.019 84.4089L97.7299 57.9244C97.002 56.4687 96.732 54.5728 96.9903 52.7649L101.733 19.7415C101.991 17.9336 102.754 16.4075 103.805 15.6033L123.017 0.905369C123.545 0.500354 124.115 0.300781 124.684 0.300781H124.678Z" fill="white" stroke="#3497F9" stroke-opacity="0.33" stroke-width="0.586978" stroke-miterlimit="10"/>
<path d="M126.863 86.7014H123.459C122.273 86.7014 121.152 85.8444 120.412 84.3652L106.912 59.4656C106.172 57.9923 105.896 56.067 106.161 54.2239L110.98 20.6898C111.244 18.8526 112.019 17.303 113.087 16.4871L130.35 3.96094" stroke="#3497F9" stroke-opacity="0.33" stroke-width="0.598718" stroke-miterlimit="10"/>
<path d="M146.898 17.5977H157.047" stroke="#3497F9" stroke-opacity="0.33" stroke-width="0.598718" stroke-miterlimit="10"/>
<path d="M152.254 56.0977H162.503" stroke="#3497F9" stroke-opacity="0.33" stroke-width="0.598718" stroke-miterlimit="10"/>
<path d="M36.5742 0.300781H37.4547" stroke="#3497F9" stroke-opacity="0.33" stroke-width="0.598718" stroke-miterlimit="10"/>
<path d="M39.2461 0.300781H124.194" stroke="#3497F9" stroke-opacity="0.43" stroke-width="0.598718" stroke-miterlimit="10" stroke-dasharray="1.79 1.79"/>
<path d="M125.09 0.300781H125.97" stroke="#3497F9" stroke-opacity="0.33" stroke-width="0.598718" stroke-miterlimit="10"/>
<path d="M59.9727 17.5977H60.8531" stroke="#3497F9" stroke-opacity="0.33" stroke-width="0.598718" stroke-miterlimit="10"/>
<path d="M62.5898 17.5977H145.148" stroke="#3497F9" stroke-opacity="0.43" stroke-width="0.598718" stroke-miterlimit="10" stroke-dasharray="1.74 1.74"/>
<path d="M146.016 17.5977H146.896" stroke="#3497F9" stroke-opacity="0.33" stroke-width="0.598718" stroke-miterlimit="10"/>
<path d="M36.5742 86.7031H37.4547" stroke="#3497F9" stroke-opacity="0.33" stroke-width="0.598718" stroke-miterlimit="10"/>
<path d="M39.2461 86.7031H124.194" stroke="#3497F9" stroke-opacity="0.43" stroke-width="0.598718" stroke-miterlimit="10" stroke-dasharray="1.79 1.79"/>
<path d="M125.09 86.7031H125.97" stroke="#3497F9" stroke-opacity="0.33" stroke-width="0.598718" stroke-miterlimit="10"/>
<path d="M52.875 56.0977H53.7555" stroke="#3497F9" stroke-opacity="0.33" stroke-width="0.598718" stroke-miterlimit="10"/>
<path d="M55.5352 56.0977H150.702" stroke="#3497F9" stroke-opacity="0.43" stroke-width="0.598718" stroke-miterlimit="10" stroke-dasharray="1.78 1.78"/>
<path d="M151.586 56.0977H152.466" stroke="#3497F9" stroke-opacity="0.33" stroke-width="0.598718" stroke-miterlimit="10"/>
<path d="M130.348 3.96875L112.715 16.8177C112.715 16.8177 111.7 17.8684 111.383 19.0424C111.066 20.2163 108.325 39.2051 108.325 39.2051L106.077 55.1885C106.077 55.1885 105.865 57.4307 106.752 59.1212C107.638 60.8117 120.804 85.2535 120.804 85.2535C120.804 85.2535 121.837 86.7092 123.457 86.7092C125.077 86.7092 135.831 86.6564 135.831 86.6564C135.831 86.6564 136.641 86.6094 137.697 85.2359C138.754 83.8624 141.049 79.0022 141.049 79.0022L152.002 57.014C152.002 57.014 152.466 55.1709 152.454 53.8443C152.442 52.5177 151.984 50.1405 151.984 50.1405L147.641 19.9111C147.641 19.9111 148.21 17.6453 144.788 15.0274L130.342 3.97462L130.348 3.96875Z" fill="#2D7AFF" fill-opacity="0.3" stroke="#3497F9" stroke-opacity="0.33" stroke-width="0.586978" stroke-miterlimit="10"/>
<g opacity="0.3">
<mask id="mask0_263_35393" style="mask-type:luminance" maskUnits="userSpaceOnUse" x="111" y="17" width="35" height="53">
<path d="M145.521 17.9023H111.887V69.0986H145.521V17.9023Z" fill="white"/>
</mask>
<g mask="url(#mask0_263_35393)">
<path d="M128.732 60.1452C127.652 60.1452 126.578 59.8694 125.545 59.3235L127.969 52.4969C128.121 52.0567 128.415 51.8043 128.714 51.8043C128.849 51.8043 128.984 51.8571 129.113 51.9628C129.26 52.086 129.377 52.268 129.454 52.491H129.471L131.902 59.3352C131.59 59.4996 131.262 59.6346 130.933 59.7578C130.205 60.0161 129.466 60.1452 128.726 60.1452M124.353 48.6815C124.406 48.6639 124.464 48.6581 124.517 48.6581C124.981 48.6757 125.351 49.2627 125.345 49.9905C125.345 50.1666 125.321 50.331 125.275 50.4894L125.286 50.5188L123.373 57.7034C121.541 55.8779 120.138 53.1602 119.399 49.967L124.335 48.6698L124.347 48.6874M134.073 57.7328L132.142 50.466V50.4542C131.966 49.8085 132.148 49.0572 132.559 48.752C132.659 48.6757 132.77 48.6287 132.882 48.6228C132.899 48.6228 132.911 48.6228 132.929 48.6228C132.976 48.6228 133.029 48.6287 133.075 48.6463V48.6287L138.059 49.9318C137.325 53.1485 135.922 55.8896 134.073 57.7269M128.72 47.4782L127.341 46.4393L126.994 44.1207L127.957 42.2659H129.489L130.446 44.1266L130.105 46.4452L128.726 47.4782M138.581 46.3043L133.745 44.1383V44.109C133.287 43.9212 133.029 43.1933 133.152 42.4948C133.199 42.2541 133.287 42.0252 133.41 41.855V41.8432L137.143 36.6426C138.288 39.5306 138.793 42.9292 138.581 46.3043ZM118.871 46.3336C118.636 42.9526 119.123 39.5423 120.268 36.6367L124.018 41.8609V41.8902C124.371 42.3657 124.4 43.1933 124.095 43.7392C123.983 43.9329 123.842 44.0738 123.684 44.1383V44.1618L118.865 46.3219M125.873 38.2568L121.759 33.7253C123.067 31.7237 124.711 30.3267 126.501 29.7045C126.836 29.5871 127.176 29.4932 127.523 29.4287L127.235 37.2296L127.217 37.2472C127.2 37.9516 126.824 38.5033 126.378 38.5033C126.366 38.5033 126.355 38.5033 126.343 38.5033C126.178 38.4916 126.014 38.4094 125.879 38.2568H125.873ZM131.05 38.474C130.792 38.474 130.534 38.2862 130.369 37.934C130.27 37.7227 130.217 37.4761 130.205 37.2237L129.918 29.4287C132.083 29.8454 134.091 31.3539 135.646 33.7312L131.561 38.2392L131.549 38.2275C131.397 38.3977 131.226 38.4799 131.05 38.4799M128.714 17.9004C128.227 17.9004 127.81 18.4756 127.763 19.2446C127.757 19.3444 127.757 19.4442 127.763 19.5439V19.585C127.763 19.7083 127.763 19.855 127.763 19.9666C127.787 20.442 127.834 20.9116 127.892 21.3812C127.986 22.2675 128.022 23.1715 128.004 24.0754C127.951 24.3689 127.84 24.6389 127.693 24.8444L127.669 25.4724C127.088 25.5487 126.513 25.6837 125.944 25.8833C123.549 26.7227 121.377 28.6538 119.698 31.4361C119.581 31.307 119.469 31.1837 119.358 31.0546C119.287 31.0898 119.211 31.1074 119.141 31.1074C119.017 31.1074 118.9 31.0605 118.788 30.9724C118.325 30.4324 117.89 29.8278 117.503 29.1586C117.303 28.7947 117.098 28.4484 116.869 28.1197C116.81 28.0375 116.722 27.9319 116.658 27.8556C116.47 27.6149 116.235 27.4799 115.994 27.4623C115.977 27.4623 115.959 27.4623 115.942 27.4623C115.666 27.4623 115.407 27.656 115.231 27.9906C114.908 28.7008 115.014 29.6811 115.466 30.18L115.484 30.1976C115.542 30.2798 115.625 30.3854 115.683 30.4441C115.936 30.7083 116.206 30.9489 116.476 31.1661C116.981 31.6122 117.456 32.1346 117.896 32.7216C118.014 32.974 118.078 33.2734 118.09 33.5786L118.395 34.0071C116.705 37.9516 116.006 42.7296 116.44 47.4254L116.041 47.6074C115.936 47.8656 115.795 48.0887 115.625 48.2531C115.067 48.4878 114.492 48.6346 113.911 48.6933C113.605 48.705 113.294 48.7402 112.995 48.8107C112.919 48.8342 112.819 48.8752 112.743 48.8987H112.731L112.719 48.9105C112.191 49.0161 111.821 49.7675 111.891 50.5834C111.956 51.3347 112.367 51.8806 112.836 51.8806C112.878 51.8806 112.924 51.8806 112.966 51.8688C113.024 51.8571 113.083 51.8395 113.142 51.8101H113.159L113.177 51.7925C113.253 51.769 113.353 51.7338 113.423 51.7104C113.717 51.5636 113.999 51.3934 114.28 51.1997C114.82 50.8592 115.378 50.6068 115.947 50.4366C116.147 50.4542 116.335 50.5599 116.499 50.736L116.916 50.6244C117.849 55.1207 119.81 58.9302 122.428 61.3309L122.252 61.9825C122.334 62.2407 122.363 62.5401 122.334 62.8219C122.099 63.6671 121.805 64.483 121.465 65.2402C121.283 65.6217 121.107 66.015 120.954 66.4318C120.919 66.5433 120.872 66.7135 120.831 66.8309C120.561 67.5353 120.708 68.451 121.16 68.8795C121.312 69.0203 121.483 69.0908 121.653 69.0908C121.976 69.0908 122.299 68.8325 122.475 68.3688C122.504 68.2866 122.533 68.1927 122.551 68.1047C122.586 67.9814 122.639 67.8288 122.668 67.7173C122.78 67.2712 122.868 66.8192 122.944 66.3555C123.109 65.4163 123.361 64.5182 123.684 63.6847C123.801 63.5204 123.942 63.4088 124.095 63.3736L124.312 62.769C125.738 63.6201 127.247 64.0486 128.749 64.0486C130.252 64.0486 131.72 63.6319 133.134 62.7984C133.193 62.9686 133.31 63.2914 133.34 63.3736C133.539 63.4206 133.709 63.5849 133.827 63.8315C134.097 64.6297 134.314 65.4691 134.484 66.332C134.561 66.7957 134.654 67.2535 134.76 67.6938C134.789 67.8053 134.842 67.9579 134.877 68.0753C135.018 68.6916 135.388 69.0732 135.781 69.0732C135.887 69.0732 135.999 69.0438 136.104 68.9851C136.603 68.7034 136.867 67.8523 136.685 67.0716C136.668 66.9835 136.638 66.8896 136.609 66.8074C136.574 66.69 136.521 66.5198 136.486 66.4083C136.327 65.9974 136.157 65.6041 135.975 65.2226C135.646 64.4771 135.359 63.6847 135.124 62.8629C135.077 62.5695 135.101 62.2525 135.2 61.9883C135.142 61.7946 135.083 61.5951 135.042 61.3838C137.666 58.9654 139.632 55.1266 140.554 50.5951C140.677 50.6244 140.894 50.6831 140.964 50.7125C141.099 50.5129 141.281 50.4014 141.469 50.4014C141.475 50.4014 141.487 50.4014 141.493 50.4014C142.062 50.5716 142.62 50.824 143.16 51.1645C143.436 51.364 143.729 51.5343 144.017 51.681C144.087 51.7104 144.181 51.7338 144.263 51.7632H144.281L144.293 51.7749C144.392 51.8277 144.492 51.8512 144.592 51.8512C144.997 51.8512 145.373 51.4521 145.502 50.824C145.666 50.0375 145.39 49.1981 144.885 48.9398C144.833 48.9105 144.774 48.8929 144.709 48.8752C144.627 48.8518 144.51 48.7931 144.433 48.7755C144.134 48.7109 143.823 48.6698 143.518 48.6581C142.943 48.5994 142.367 48.4526 141.804 48.2178C141.628 48.0711 141.487 47.8422 141.393 47.5722L141.006 47.3961C141.422 42.7061 140.712 37.9457 139.016 34.0071C139.115 33.8721 139.303 33.6079 139.356 33.5375C139.344 33.2323 139.409 32.9329 139.538 32.6923C139.978 32.1053 140.454 31.5829 140.959 31.1368C141.234 30.9196 141.499 30.6848 141.751 30.4206C141.81 30.3443 141.898 30.2328 141.962 30.1565C142.408 29.7104 142.543 28.7888 142.256 28.0903C142.074 27.6442 141.763 27.3977 141.446 27.3977C141.27 27.3977 141.094 27.474 140.929 27.6325C140.871 27.6912 140.818 27.7558 140.771 27.8321C140.7 27.9084 140.612 28.014 140.559 28.0903C140.336 28.4191 140.125 28.7654 139.925 29.1293C139.532 29.7985 139.104 30.4089 138.64 30.9489C138.511 31.0311 138.376 31.0663 138.241 31.0663C138.182 31.0663 138.118 31.0605 138.059 31.0428L137.695 31.4479C135.599 28.0316 132.782 25.9068 129.759 25.4783C129.747 25.2846 129.741 24.9207 129.736 24.815C129.571 24.6389 129.46 24.3689 129.424 24.0695C129.407 23.1656 129.442 22.2616 129.536 21.3694C129.595 20.9057 129.642 20.4361 129.665 19.9607C129.665 19.8374 129.665 19.6672 129.665 19.5381C129.718 18.7163 129.331 17.9826 128.808 17.9004C128.773 17.9004 128.744 17.8945 128.708 17.8945" fill="white"/>
</g>
</g>
<path d="M106.458 22.2919L111.867 19.1428C112.296 18.8951 112.823 18.8951 113.251 19.1428L118.661 22.2919C119.086 22.5396 119.345 22.9917 119.345 23.4793V29.6989C119.345 30.1903 119.086 30.6425 118.661 30.8862L113.251 34.0354C112.823 34.283 112.296 34.283 111.867 34.0354L106.458 30.8862C106.033 30.6385 105.773 30.1864 105.773 29.6989V23.4793C105.773 22.9878 106.033 22.5357 106.458 22.2919Z" fill="#F7F7F5" fill-opacity="0.59" stroke="#878F9E" stroke-width="0.374589" stroke-miterlimit="10"/>
<path d="M107.906 23.3132L112.03 20.915C112.356 20.7263 112.761 20.7263 113.084 20.915L117.208 23.3132C117.53 23.5019 117.731 23.8479 117.731 24.2214V28.9628C117.731 29.3363 117.53 29.6822 117.208 29.871L113.084 32.2692C112.757 32.4579 112.352 32.4579 112.03 32.2692L107.906 29.871C107.583 29.6822 107.383 29.3363 107.383 28.9628V24.2214C107.383 23.8479 107.583 23.5019 107.906 23.3132Z" fill="#88B4FF"/>
<path d="M91.9271 41.386L98.0852 37.8013C98.573 37.5194 99.1727 37.5194 99.6605 37.8013L105.819 41.386C106.302 41.668 106.597 42.1827 106.597 42.7376V49.8176C106.597 50.377 106.302 50.8916 105.819 51.1691L99.6605 54.7539C99.1727 55.0358 98.573 55.0358 98.0852 54.7539L91.9271 51.1691C91.4438 50.8872 91.1484 50.3725 91.1484 49.8176V42.7376C91.1484 42.1782 91.4438 41.6635 91.9271 41.386Z" fill="#F7F7F5" fill-opacity="0.59" stroke="#878F9E" stroke-width="0.374589" stroke-miterlimit="10"/>
<path d="M93.5757 42.5512L98.2703 39.8213C98.6417 39.6065 99.1027 39.6065 99.4697 39.8213L104.164 42.5512C104.531 42.766 104.76 43.1599 104.76 43.585V48.9823C104.76 49.4074 104.531 49.8013 104.164 50.0161L99.4697 52.746C99.0982 52.9608 98.6373 52.9608 98.2703 52.746L93.5757 50.0161C93.2087 49.8013 92.9805 49.4074 92.9805 48.9823V43.585C92.9805 43.1599 93.2087 42.766 93.5757 42.5512Z" fill="#88B4FF"/>
<path d="M78.938 65.249L84.3477 62.0998C84.7763 61.8521 85.3031 61.8521 85.7316 62.0998L91.1414 65.249C91.566 65.4967 91.8255 65.9488 91.8255 66.4363V72.6559C91.8255 73.1474 91.566 73.5995 91.1414 73.8432L85.7316 76.9924C85.3031 77.2401 84.7763 77.2401 84.3477 76.9924L78.938 73.8432C78.5134 73.5956 78.2539 73.1434 78.2539 72.6559V66.4363C78.2539 65.9448 78.5134 65.4927 78.938 65.249Z" fill="#F7F7F5" fill-opacity="0.59" stroke="#878F9E" stroke-width="0.374589" stroke-miterlimit="10"/>
<path d="M80.3862 66.2663L84.5103 63.8681C84.8366 63.6794 85.2416 63.6794 85.564 63.8681L89.6881 66.2663C90.0105 66.455 90.211 66.801 90.211 67.1745V71.9159C90.211 72.2894 90.0105 72.6354 89.6881 72.8241L85.564 75.2223C85.2377 75.411 84.8327 75.411 84.5103 75.2223L80.3862 72.8241C80.0638 72.6354 79.8633 72.2894 79.8633 71.9159V67.1745C79.8633 66.801 80.0638 66.455 80.3862 66.2663Z" fill="#88B4FF"/>
<path d="M115.63 59.8939L121.788 56.3091C122.276 56.0272 122.876 56.0272 123.364 56.3091L129.522 59.8939C130.005 60.1758 130.3 60.6905 130.3 61.2454V68.3254C130.3 68.8848 130.005 69.3995 129.522 69.6769L123.364 73.2617C122.876 73.5436 122.276 73.5436 121.788 73.2617L115.63 69.6769C115.147 69.395 114.852 68.8803 114.852 68.3254V61.2454C114.852 60.686 115.147 60.1713 115.63 59.8939Z" fill="#F7F7F5" fill-opacity="0.59" stroke="#878F9E" stroke-width="0.374589" stroke-miterlimit="10"/>
<path d="M117.279 61.0551L121.973 58.3252C122.345 58.1104 122.806 58.1104 123.173 58.3252L127.867 61.0551C128.234 61.2699 128.463 61.6638 128.463 62.0889V67.4862C128.463 67.9113 128.234 68.3052 127.867 68.52L123.173 71.2499C122.801 71.4648 122.34 71.4648 121.973 71.2499L117.279 68.52C116.912 68.3052 116.684 67.9113 116.684 67.4862V62.0889C116.684 61.6638 116.912 61.2699 117.279 61.0551Z" fill="#88B4FF"/>
<path d="M69.0326 23.3079L75.1907 19.7232C75.6785 19.4412 76.2782 19.4412 76.766 19.7232L82.9241 23.3079C83.4074 23.5899 83.7028 24.1045 83.7028 24.6595V31.7394C83.7028 32.2989 83.4074 32.8135 82.9241 33.091L76.766 36.6757C76.2782 36.9577 75.6785 36.9577 75.1907 36.6757L69.0326 33.091C68.5493 32.809 68.2539 32.2944 68.2539 31.7394V24.6595C68.2539 24.1001 68.5493 23.5854 69.0326 23.3079Z" fill="#F7F7F5" fill-opacity="0.59" stroke="#878F9E" stroke-width="0.374589" stroke-miterlimit="10"/>
<path d="M70.6811 24.4692L75.3758 21.7392C75.7472 21.5244 76.2082 21.5244 76.5752 21.7392L81.2698 24.4692C81.6368 24.684 81.865 25.0778 81.865 25.503V30.9002C81.865 31.3254 81.6368 31.7192 81.2698 31.934L76.5752 34.664C76.2037 34.8788 75.7427 34.8788 75.3758 34.664L70.6811 31.934C70.3142 31.7192 70.0859 31.3254 70.0859 30.9002V25.503C70.0859 25.0778 70.3142 24.684 70.6811 24.4692Z" fill="#88B4FF"/>
<path d="M58.2475 51.2103L64.4055 47.6255C64.8933 47.3436 65.493 47.3436 65.9808 47.6255L72.1389 51.2103C72.6222 51.4922 72.9176 52.0069 72.9176 52.5618V59.6418C72.9176 60.2012 72.6222 60.7159 72.1389 60.9933L65.9808 64.5781C65.493 64.86 64.8933 64.86 64.4055 64.5781L58.2475 60.9933C57.7641 60.7114 57.4688 60.1967 57.4688 59.6418V52.5618C57.4688 52.0024 57.7641 51.4877 58.2475 51.2103Z" fill="#F7F7F5" fill-opacity="0.59" stroke="#878F9E" stroke-width="0.374589" stroke-miterlimit="10"/>
<path d="M59.896 52.3715L64.5906 49.6416C64.9621 49.4268 65.423 49.4268 65.79 49.6416L70.4846 52.3715C70.8516 52.5863 71.0798 52.9802 71.0798 53.4053V58.8026C71.0798 59.2277 70.8516 59.6216 70.4846 59.8364L65.79 62.5663C65.4186 62.7812 64.9576 62.7812 64.5906 62.5663L59.896 59.8364C59.529 59.6216 59.3008 59.2277 59.3008 58.8026V53.4053C59.3008 52.9802 59.529 52.5863 59.896 52.3715Z" fill="#88B4FF"/>
<path opacity="0.3" d="M103.916 0.300781C104.486 0.300781 105.055 0.500354 105.583 0.905369L124.789 15.6033C125.84 16.4075 126.603 17.9336 126.861 19.7415L131.604 52.7649C131.862 54.5787 131.592 56.4746 130.865 57.9244L117.575 84.4089C116.847 85.8646 115.738 86.7099 114.576 86.7099H93.2568C92.0887 86.7099 90.9852 85.8646 90.2574 84.4089L76.9682 57.9244C76.2403 56.4687 75.9703 54.5728 76.2286 52.7649L80.9714 19.7415C81.2296 17.9336 81.9927 16.4075 83.0434 15.6033L102.249 0.905369C102.778 0.500354 103.347 0.300781 103.916 0.300781Z" stroke="#3497F9" stroke-opacity="0.43" stroke-width="0.586978" stroke-miterlimit="10"/>
<path opacity="0.3" d="M81.9437 0.300781C82.5131 0.300781 83.0824 0.500354 83.6107 0.905369L102.817 15.6033C103.867 16.4075 104.63 17.9336 104.889 19.7415L109.631 52.7649C109.89 54.5787 109.62 56.4746 108.892 57.9244L95.6027 84.4089C94.8748 85.8646 93.7654 86.7099 92.6032 86.7099H71.2842C70.1161 86.7099 69.0125 85.8646 68.2847 84.4089L54.9955 57.9244C54.2677 56.4687 53.9976 54.5728 54.2559 52.7649L58.9987 19.7415C59.257 17.9336 60.02 16.4075 61.0707 15.6033L80.2825 0.905369C80.8108 0.500354 81.3802 0.300781 81.9495 0.300781H81.9437Z" stroke="#3497F9" stroke-opacity="0.43" stroke-width="0.586978" stroke-miterlimit="10"/>
<path opacity="0.3" d="M59.971 0.300781C60.5404 0.300781 61.1098 0.500354 61.638 0.905369L80.844 15.6033C81.8947 16.4075 82.6577 17.9336 82.916 19.7415L87.6588 52.7649C87.9171 54.5787 87.6471 56.4746 86.9192 57.9244L73.63 84.4089C72.9022 85.8646 71.7928 86.7099 70.6305 86.7099H49.3115C48.1434 86.7099 47.0399 85.8646 46.312 84.4089L33.0228 57.9244C32.295 56.4687 32.025 54.5728 32.2833 52.7649L37.026 19.7415C37.2843 17.9336 38.0474 16.4075 39.0981 15.6033L58.304 0.905369C58.8323 0.500354 59.4017 0.300781 59.971 0.300781Z" stroke="#3497F9" stroke-opacity="0.43" stroke-width="0.586978" stroke-miterlimit="10"/>
<g opacity="0.3">
<path d="M9.20312 56.0977H10.0836" stroke="#3497F9" stroke-opacity="0.33" stroke-width="0.598718" stroke-miterlimit="10"/>
<path d="M11.8086 56.0977H59.1953" stroke="#3497F9" stroke-opacity="0.33" stroke-width="0.598718" stroke-miterlimit="10" stroke-dasharray="1.73 1.73"/>
<path d="M60.0586 56.0977H60.9391" stroke="#3497F9" stroke-opacity="0.33" stroke-width="0.598718" stroke-miterlimit="10"/>
</g>
<g opacity="0.3">
<path d="M15.0781 17.5977H15.9586" stroke="#3497F9" stroke-opacity="0.33" stroke-width="0.598718" stroke-miterlimit="10"/>
<path d="M17.7188 17.5977H59.177" stroke="#3497F9" stroke-opacity="0.33" stroke-width="0.598718" stroke-miterlimit="10" stroke-dasharray="1.77 1.77"/>
<path d="M60.0586 17.5977H60.9391" stroke="#3497F9" stroke-opacity="0.33" stroke-width="0.598718" stroke-miterlimit="10"/>
</g>
<path opacity="0.3" d="M30.0039 86.7033H26.5994C25.4137 86.7033 24.2926 85.8463 23.553 84.3672L10.0525 59.4675C9.31291 57.9942 9.03703 56.0689 9.30117 54.2258L14.1203 20.6918C14.3844 18.8545 15.1592 17.3049 16.2275 16.489L33.4847 3.96875" stroke="#3497F9" stroke-opacity="0.43" stroke-width="0.598718" stroke-miterlimit="10"/>
<path d="M65.8991 54.0934C65.8991 54.0523 65.8991 54.0171 65.8991 53.976C65.8991 53.8528 65.8932 53.7295 65.8874 53.6121C65.8874 53.5769 65.8874 53.5475 65.8815 53.5123C65.8815 53.4536 65.8698 53.3949 65.8698 53.3362C65.8639 53.2599 65.858 53.1836 65.8521 53.1073C65.8404 52.9958 65.8287 52.8784 65.8111 52.7668L61.0683 19.7434C61.0389 19.5263 60.9978 19.3208 60.9509 19.1154C60.9333 19.0449 60.9157 18.9804 60.898 18.9158C60.8687 18.8043 60.8452 18.6928 60.8159 18.5812C60.81 18.5577 60.7983 18.5401 60.7924 18.5167C60.763 18.411 60.7278 18.3171 60.6926 18.2173C60.6633 18.141 60.6456 18.0588 60.6163 17.9825C60.6046 17.959 60.5987 17.9356 60.5869 17.9121C60.5693 17.8651 60.5459 17.8123 60.5283 17.7653C60.4989 17.6949 60.4754 17.6245 60.4402 17.5599C60.4109 17.4953 60.3815 17.4308 60.3463 17.3662C60.3287 17.3368 60.3169 17.3075 60.3052 17.2781C60.2935 17.2605 60.2876 17.237 60.2758 17.2194C60.223 17.1255 60.1761 17.0316 60.1174 16.9377C60.0939 16.9025 60.0763 16.8673 60.0528 16.832C60.0411 16.8144 60.0293 16.7909 60.0176 16.7733C60 16.7499 59.9882 16.7205 59.9706 16.697C59.9237 16.6266 59.8767 16.5562 59.8239 16.4857C59.7945 16.4446 59.7593 16.4035 59.73 16.3625C59.7241 16.3507 59.7123 16.339 59.7065 16.3331C59.7006 16.3214 59.6889 16.3096 59.683 16.2979C59.636 16.2392 59.5891 16.1864 59.5421 16.1277C59.4952 16.0748 59.4482 16.0279 59.4012 15.975C59.3954 15.9692 59.3836 15.9574 59.3778 15.9516C59.3719 15.9457 59.366 15.9398 59.3602 15.934C59.3308 15.9046 59.2956 15.8694 59.2662 15.84C59.2193 15.799 59.1723 15.752 59.1254 15.7168C59.0843 15.6816 59.0373 15.6463 58.9962 15.6111L39.7786 0.907312C39.7786 0.907312 39.7668 0.895572 39.761 0.889702C39.714 0.854484 39.6612 0.819265 39.6142 0.784046C39.5614 0.748828 39.5144 0.719479 39.4616 0.69013C39.4381 0.67839 39.4146 0.666651 39.397 0.654911C39.3853 0.654911 39.3794 0.643171 39.3677 0.637302C39.3501 0.625562 39.3266 0.613822 39.309 0.602083C39.2562 0.572734 39.2033 0.549255 39.1446 0.525776C39.0859 0.502297 39.0331 0.478817 38.9744 0.455338C38.9744 0.455338 38.9744 0.455338 38.9685 0.455338C38.9685 0.455338 38.9685 0.455338 38.9627 0.455338C38.9098 0.437729 38.8511 0.42012 38.7983 0.40251C38.7337 0.384901 38.6692 0.367292 38.6105 0.355552C38.5929 0.355552 38.5811 0.355552 38.5635 0.349682C38.5459 0.349682 38.5342 0.349682 38.5166 0.343812C38.4755 0.337943 38.4403 0.332073 38.3992 0.326203C38.3229 0.314464 38.2466 0.314464 38.1702 0.308594C38.1526 0.308594 38.135 0.308594 38.1115 0.308594H28.0742C28.2092 0.308594 28.3442 0.320333 28.4734 0.343812C28.491 0.343812 28.5027 0.343812 28.5203 0.349682C28.6553 0.373161 28.7845 0.40838 28.9195 0.455338C28.9195 0.455338 28.9195 0.455338 28.9253 0.455338C29.0603 0.502297 29.1895 0.566864 29.3245 0.637302C29.3362 0.637302 29.3421 0.649041 29.3538 0.654911C29.483 0.731218 29.6121 0.813395 29.7412 0.907312L48.9472 15.6052C49.0763 15.705 49.1996 15.8107 49.317 15.9281C49.3228 15.934 49.3287 15.9398 49.3346 15.9457C49.452 16.0631 49.5635 16.1864 49.6692 16.3214C49.675 16.3331 49.6868 16.3448 49.6926 16.3507C49.7924 16.4798 49.8863 16.6149 49.9802 16.7616C49.992 16.7792 50.0037 16.8027 50.0155 16.8203C50.1035 16.9612 50.1857 17.1079 50.262 17.2664C50.2796 17.2957 50.2913 17.3251 50.3031 17.3544C50.3677 17.4836 50.4264 17.6186 50.4792 17.7536C50.4968 17.8005 50.5203 17.8475 50.5379 17.9003C50.579 18.0001 50.6083 18.1058 50.6435 18.2114C50.6788 18.3112 50.714 18.411 50.7433 18.5108C50.7844 18.6399 50.8138 18.7749 50.849 18.9099C50.8666 18.9745 50.8842 19.0391 50.8959 19.1095C50.9429 19.315 50.9781 19.5263 51.0133 19.7434L55.7561 52.7668C55.7855 52.9547 55.8031 53.1484 55.8148 53.3421C55.8148 53.4008 55.8266 53.4595 55.8266 53.5182C55.8383 53.7119 55.8442 53.9056 55.8442 54.0993C55.8442 54.1228 55.8442 54.1521 55.8442 54.1756C55.8442 54.381 55.8383 54.5865 55.8207 54.7861C55.8207 54.8037 55.8207 54.8154 55.8207 54.833C55.8031 55.0443 55.7796 55.2615 55.7502 55.4669C55.7502 55.4787 55.7502 55.4904 55.7502 55.5022C55.7209 55.7076 55.6857 55.913 55.6387 56.1126C55.6387 56.1244 55.6387 56.1302 55.6328 56.142C55.5859 56.3474 55.5389 56.5411 55.4802 56.7407C55.4802 56.7524 55.4744 56.77 55.4685 56.7818C55.4098 56.9755 55.3452 57.1692 55.2689 57.357C55.2689 57.357 55.2689 57.3629 55.2689 57.3688C55.1926 57.5625 55.1104 57.7444 55.0224 57.9264L41.7332 84.4108C41.6452 84.5811 41.5571 84.7454 41.4573 84.898C41.4515 84.9098 41.4397 84.9274 41.4338 84.9391C41.3458 85.08 41.2519 85.2091 41.158 85.3324C41.1345 85.3617 41.1169 85.3852 41.0934 85.4146C40.9995 85.5261 40.9056 85.6376 40.8058 85.7374C40.794 85.755 40.7764 85.7668 40.7647 85.7844C40.7471 85.802 40.7295 85.8137 40.7119 85.8313C40.5886 85.9487 40.4653 86.0544 40.3362 86.1483C40.2892 86.1835 40.2364 86.2129 40.1895 86.2422C40.0897 86.3068 39.984 86.3713 39.8784 86.4242C39.8255 86.4535 39.7668 86.477 39.714 86.5005C39.6025 86.5474 39.4909 86.5827 39.3794 86.612C39.3266 86.6238 39.2796 86.6414 39.2268 86.6531C39.0625 86.6883 38.8981 86.7059 38.7337 86.7059H48.7711C48.9354 86.7059 49.0998 86.6824 49.2641 86.6531C49.317 86.6414 49.3639 86.6238 49.4168 86.612C49.5283 86.5827 49.6398 86.5474 49.7513 86.5005C49.81 86.477 49.8629 86.4535 49.9157 86.4242C50.0213 86.3713 50.127 86.3127 50.2268 86.2422C50.2737 86.2129 50.3266 86.1835 50.3735 86.1483C50.5027 86.0544 50.6259 85.9487 50.7492 85.8313C50.7668 85.8196 50.7785 85.8078 50.7961 85.7902C50.7961 85.7902 50.7962 85.7844 50.802 85.7785C50.8138 85.7668 50.8314 85.7492 50.8431 85.7315C50.9194 85.6494 50.9957 85.5731 51.072 85.485C51.0896 85.4615 51.1072 85.4381 51.1307 85.4146C51.1542 85.3911 51.1718 85.3617 51.1953 85.3324C51.2246 85.2913 51.254 85.2561 51.2833 85.2209C51.342 85.1446 51.3949 85.0624 51.4536 84.9743C51.4594 84.9626 51.4653 84.9509 51.477 84.9391C51.4829 84.9274 51.4947 84.9098 51.5005 84.898C51.5357 84.8452 51.5651 84.7924 51.6003 84.7396C51.6414 84.6632 51.6884 84.5869 51.7294 84.5106C51.7471 84.4754 51.7647 84.4461 51.7823 84.4108L65.0715 57.9264C65.0949 57.8853 65.1126 57.8442 65.136 57.7973C65.1712 57.7209 65.2065 57.6446 65.2358 57.5683C65.2652 57.5038 65.2945 57.4333 65.318 57.3688C65.318 57.3688 65.318 57.3629 65.318 57.357C65.318 57.357 65.318 57.3511 65.318 57.3453C65.3473 57.269 65.3767 57.1927 65.4002 57.1164C65.4295 57.0401 65.453 56.9637 65.4765 56.8874C65.4882 56.8522 65.5 56.817 65.5058 56.7818C65.5058 56.77 65.5176 56.7524 65.5176 56.7407C65.5234 56.7113 65.5352 56.6879 65.541 56.6585C65.5645 56.5822 65.5821 56.5 65.6056 56.4237C65.6232 56.3415 65.6467 56.2652 65.6643 56.1831C65.6643 56.1713 65.6643 56.1596 65.6702 56.1478C65.6702 56.1361 65.6702 56.1244 65.676 56.1185C65.6878 56.0598 65.6995 56.0011 65.7113 55.9365C65.7289 55.8544 65.7406 55.7663 65.7582 55.6841C65.77 55.6254 65.7758 55.5667 65.7876 55.508C65.7876 55.4963 65.7876 55.4846 65.7876 55.4669C65.7876 55.4493 65.7876 55.4376 65.7934 55.42C65.8052 55.3319 65.8169 55.2439 65.8287 55.1558C65.8404 55.0678 65.8463 54.9739 65.8521 54.88C65.8521 54.8624 65.8521 54.8448 65.8521 54.833C65.8521 54.8154 65.8521 54.8037 65.8521 54.7861C65.8521 54.7215 65.8639 54.6628 65.8639 54.5982C65.8639 54.4984 65.8698 54.3986 65.8756 54.2989C65.8756 54.2578 65.8756 54.2108 65.8756 54.1697C65.8756 54.1462 65.8756 54.1169 65.8756 54.0934H65.8991Z" fill="white" stroke="#3497F9" stroke-width="0.586978" stroke-miterlimit="10"/>
<path d="M28.0804 0.300781C28.6498 0.300781 29.2191 0.500354 29.7474 0.905369L48.9533 15.6033C50.004 16.4075 50.7671 17.9336 51.0254 19.7415L55.7682 52.7649C56.0264 54.5787 55.7564 56.4746 55.0286 57.9244L41.7394 84.4089C41.0115 85.8646 39.9021 86.7099 38.7399 86.7099H17.4209C16.2528 86.7099 15.1493 85.8646 14.4214 84.4089L1.13222 57.9244C0.404368 56.4687 0.134359 54.5728 0.392629 52.7649L5.13541 19.7415C5.39368 17.9336 6.15676 16.4075 7.20745 15.6033L26.4134 0.905369C26.9417 0.500354 27.511 0.300781 28.0804 0.300781Z" fill="#2D7AFF" stroke="#3497F9" stroke-opacity="0.33" stroke-width="0.586978" stroke-miterlimit="10"/>
<path d="M50.7891 17.5977H60.9379" stroke="#3497F9" stroke-opacity="0.33" stroke-width="0.598718" stroke-miterlimit="10"/>
<path d="M55.8125 56.0977H66.0611" stroke="#3497F9" stroke-opacity="0.33" stroke-width="0.598718" stroke-miterlimit="10"/>
<mask id="mask1_263_35393" style="mask-type:luminance" maskUnits="userSpaceOnUse" x="11" y="17" width="34" height="53">
<path d="M44.8682 17.9023H11.2344V69.0986H44.8682V17.9023Z" fill="white"/>
</mask>
<g mask="url(#mask1_263_35393)">
<path d="M28.0795 60.1452C26.9994 60.1452 25.9253 59.8694 24.8922 59.3235L27.3164 52.4969C27.469 52.0567 27.7625 51.8043 28.0619 51.8043C28.1969 51.8043 28.3319 51.8571 28.461 51.9628C28.6078 52.086 28.7252 52.268 28.8015 52.491H28.8191L31.2492 59.3352C30.9381 59.4996 30.6094 59.6346 30.2806 59.7578C29.5528 60.0161 28.8132 60.1452 28.0736 60.1452M23.7006 48.6815C23.7534 48.6639 23.8121 48.6581 23.865 48.6581C24.3287 48.6757 24.6985 49.2627 24.6926 49.9905C24.6926 50.1666 24.6691 50.331 24.6222 50.4894L24.6339 50.5188L22.7204 57.7034C20.889 55.8779 19.4861 53.1602 18.7465 49.967L23.683 48.6698L23.6947 48.6874M33.421 57.7328L31.4898 50.466V50.4542C31.3137 49.8085 31.4957 49.0572 31.9066 48.752C32.0064 48.6757 32.1179 48.6287 32.2294 48.6228C32.247 48.6228 32.2588 48.6228 32.2764 48.6228C32.3233 48.6228 32.3762 48.6287 32.4231 48.6463V48.6287L37.4066 49.9318C36.6728 53.1485 35.27 55.8896 33.421 57.7269M28.0677 47.4782L26.6883 46.4393L26.342 44.1207L27.3047 42.2659H28.8367L29.7935 44.1266L29.453 46.4452L28.0736 47.4782M37.929 46.3043L33.0923 44.1383V44.109C32.6344 43.9212 32.3762 43.1933 32.4994 42.4948C32.5464 42.2541 32.6344 42.0252 32.7577 41.855V41.8432L36.4909 36.6426C37.6355 39.5306 38.1403 42.9292 37.929 46.3043ZM18.2182 46.3336C17.9835 42.9526 18.4706 39.5423 19.6153 36.6367L23.366 41.8609V41.8902C23.7182 42.3657 23.7476 43.1933 23.4423 43.7392C23.3308 43.9329 23.19 44.0738 23.0315 44.1383V44.1618L18.2124 46.3219M25.2209 38.2568L21.1062 33.7253C22.4151 31.7237 24.0587 30.3267 25.849 29.7045C26.1835 29.5871 26.524 29.4932 26.8703 29.4287L26.5827 37.2296L26.5651 37.2472C26.5475 37.9516 26.1718 38.5033 25.7257 38.5033C25.714 38.5033 25.7022 38.5033 25.6905 38.5033C25.5261 38.4916 25.3618 38.4094 25.2268 38.2568H25.2209ZM30.398 38.474C30.1398 38.474 29.8815 38.2862 29.7171 37.934C29.6174 37.7227 29.5645 37.4761 29.5528 37.2237L29.2652 29.4287C31.4311 29.8454 33.4386 31.3539 34.9941 33.7312L30.9087 38.2392L30.897 38.2275C30.7444 38.3977 30.5741 38.4799 30.398 38.4799M28.0619 17.9004C27.5747 17.9004 27.1579 18.4756 27.111 19.2446C27.1051 19.3444 27.1051 19.4442 27.111 19.5439V19.585C27.111 19.7083 27.111 19.855 27.111 19.9666C27.1344 20.442 27.1814 20.9116 27.2401 21.3812C27.334 22.2675 27.3692 23.1715 27.3516 24.0754C27.2988 24.3689 27.1873 24.6389 27.0405 24.8444L27.017 25.4724C26.4359 25.5487 25.8607 25.6837 25.2913 25.8833C22.8965 26.7227 20.7246 28.6538 19.0459 31.4361C18.9285 31.307 18.817 31.1837 18.7054 31.0546C18.635 31.0898 18.5587 31.1074 18.4883 31.1074C18.365 31.1074 18.2476 31.0605 18.1361 30.9724C17.6724 30.4324 17.238 29.8278 16.8506 29.1586C16.651 28.7947 16.4456 28.4484 16.2166 28.1197C16.1579 28.0375 16.0699 27.9319 16.0053 27.8556C15.8175 27.6149 15.5827 27.4799 15.342 27.4623C15.3244 27.4623 15.3068 27.4623 15.2892 27.4623C15.0133 27.4623 14.7551 27.656 14.579 27.9906C14.2561 28.7008 14.3618 29.6811 14.8138 30.18L14.8314 30.1976C14.8901 30.2798 14.9723 30.3854 15.031 30.4441C15.2834 30.7083 15.5534 30.9489 15.8234 31.1661C16.3282 31.6122 16.8036 32.1346 17.2439 32.7216C17.3613 32.974 17.4258 33.2734 17.4376 33.5786L17.7428 34.0071C16.0523 37.9516 15.3538 42.7296 15.7882 47.4254L15.389 47.6074C15.2834 47.8656 15.1425 48.0887 14.9723 48.2531C14.4146 48.4878 13.8394 48.6346 13.2583 48.6933C12.953 48.705 12.6419 48.7402 12.3426 48.8107C12.2663 48.8342 12.1665 48.8752 12.0902 48.8987H12.0785L12.0667 48.9105C11.5384 49.0161 11.1686 49.7675 11.2391 50.5834C11.3036 51.3347 11.7145 51.8806 12.1841 51.8806C12.2252 51.8806 12.2722 51.8806 12.3132 51.8688C12.3719 51.8571 12.4306 51.8395 12.4893 51.8101H12.5069L12.5246 51.7925C12.6009 51.769 12.7006 51.7338 12.7711 51.7104C13.0646 51.5636 13.3463 51.3934 13.6281 51.1997C14.1681 50.8592 14.7257 50.6068 15.2951 50.4366C15.4947 50.4542 15.6825 50.5599 15.8469 50.736L16.2636 50.6244C17.1969 55.1207 19.1574 58.9302 21.7753 61.3309L21.5992 61.9825C21.6814 62.2407 21.7108 62.5401 21.6814 62.8219C21.4466 63.6671 21.1531 64.483 20.8127 65.2402C20.6307 65.6217 20.4546 66.015 20.302 66.4318C20.2668 66.5433 20.2198 66.7135 20.1788 66.8309C19.9087 67.5353 20.0555 68.451 20.5075 68.8795C20.6601 69.0203 20.8303 69.0908 21.0005 69.0908C21.3234 69.0908 21.6462 68.8325 21.8223 68.3688C21.8516 68.2866 21.881 68.1927 21.8986 68.1047C21.9338 67.9814 21.9866 67.8288 22.016 67.7173C22.1275 67.2712 22.2156 66.8192 22.2919 66.3555C22.4562 65.4163 22.7086 64.5182 23.0315 63.6847C23.1489 63.5204 23.2897 63.4088 23.4423 63.3736L23.6595 62.769C25.0859 63.6201 26.5944 64.0486 28.0971 64.0486C29.5998 64.0486 31.0672 63.6319 32.4818 62.7984C32.5405 62.9686 32.6579 63.2914 32.6873 63.3736C32.8868 63.4206 33.0571 63.5849 33.1744 63.8315C33.4445 64.6297 33.6616 65.4691 33.8319 66.332C33.9082 66.7957 34.0021 67.2535 34.1077 67.6938C34.1371 67.8053 34.1899 67.9579 34.2251 68.0753C34.366 68.6916 34.7358 69.0732 35.1291 69.0732C35.2347 69.0732 35.3463 69.0438 35.4519 68.9851C35.9509 68.7034 36.215 67.8523 36.033 67.0716C36.0154 66.9835 35.9861 66.8896 35.9567 66.8074C35.9215 66.69 35.8687 66.5198 35.8335 66.4083C35.675 65.9974 35.5048 65.6041 35.3228 65.2226C34.9941 64.4771 34.7065 63.6847 34.4717 62.8629C34.4247 62.5695 34.4482 62.2525 34.548 61.9883C34.4893 61.7946 34.4306 61.5951 34.3895 61.3838C37.0133 58.9654 38.9797 55.1266 39.9012 50.5951C40.0245 50.6244 40.2417 50.6831 40.3121 50.7125C40.4471 50.5129 40.6291 50.4014 40.8169 50.4014C40.8228 50.4014 40.8345 50.4014 40.8404 50.4014C41.4098 50.5716 41.9674 50.824 42.5074 51.1645C42.7833 51.364 43.0768 51.5343 43.3644 51.681C43.4348 51.7104 43.5287 51.7338 43.6109 51.7632H43.6285L43.6403 51.7749C43.7401 51.8277 43.8398 51.8512 43.9396 51.8512C44.3446 51.8512 44.7203 51.4521 44.8494 50.824C45.0138 50.0375 44.7379 49.1981 44.2331 48.9398C44.1803 48.9105 44.1216 48.8929 44.057 48.8752C43.9748 48.8518 43.8575 48.7931 43.7811 48.7755C43.4818 48.7109 43.1707 48.6698 42.8655 48.6581C42.2902 48.5994 41.715 48.4526 41.1515 48.2178C40.9754 48.0711 40.8345 47.8422 40.7406 47.5722L40.3532 47.3961C40.7699 42.7061 40.0597 37.9457 38.3633 34.0071C38.4631 33.8721 38.651 33.6079 38.7038 33.5375C38.692 33.2323 38.7566 32.9329 38.8857 32.6923C39.326 32.1053 39.8014 31.5829 40.3062 31.1368C40.5821 30.9196 40.8463 30.6848 41.0987 30.4206C41.1574 30.3443 41.2454 30.2328 41.31 30.1565C41.7561 29.7104 41.8911 28.7888 41.6035 28.0903C41.4215 27.6442 41.1104 27.3977 40.7934 27.3977C40.6173 27.3977 40.4412 27.474 40.2769 27.6325C40.2182 27.6912 40.1654 27.7558 40.1184 27.8321C40.048 27.9084 39.9599 28.014 39.9071 28.0903C39.684 28.4191 39.4727 28.7654 39.2732 29.1293C38.8799 29.7985 38.4514 30.4089 37.9877 30.9489C37.8585 31.0311 37.7235 31.0663 37.5885 31.0663C37.5298 31.0663 37.4653 31.0605 37.4066 31.0428L37.0426 31.4479C34.9471 28.0316 32.1296 25.9068 29.1067 25.4783C29.095 25.2846 29.0891 24.9207 29.0832 24.815C28.9189 24.6389 28.8073 24.3689 28.7721 24.0695C28.7545 23.1656 28.7897 22.2616 28.8836 21.3694C28.9423 20.9057 28.9893 20.4361 29.0128 19.9607C29.0128 19.8374 29.0128 19.6672 29.0128 19.5381C29.0656 18.7163 28.6782 17.9826 28.1558 17.9004C28.1206 17.9004 28.0912 17.8945 28.056 17.8945" fill="white"/>
</g>
</g>
<defs>
<clipPath id="clip0_263_35393">
<rect width="162.798" height="87.0019" fill="white"/>
</clipPath>
</defs>
</svg>
