<svg width="278" height="149" viewBox="0 0 278 149" fill="none" xmlns="http://www.w3.org/2000/svg">
<g clip-path="url(#clip0_215_31525)">
<path d="M276.85 92.1534C276.85 92.0834 276.85 92.0234 276.85 91.9534C276.85 91.7434 276.84 91.5334 276.83 91.3334C276.83 91.2734 276.83 91.2234 276.82 91.1634C276.82 91.0634 276.8 90.9634 276.8 90.8634C276.79 90.7334 276.78 90.6034 276.77 90.4734C276.75 90.2834 276.73 90.0834 276.7 89.8934L268.62 33.6334C268.57 33.2634 268.5 32.9134 268.42 32.5634C268.39 32.4434 268.36 32.3334 268.33 32.2234C268.28 32.0334 268.24 31.8434 268.19 31.6534C268.18 31.6134 268.16 31.5834 268.15 31.5434C268.1 31.3634 268.04 31.2034 267.98 31.0334C267.93 30.9034 267.9 30.7634 267.85 30.6334C267.83 30.5934 267.82 30.5534 267.8 30.5134C267.77 30.4334 267.73 30.3434 267.7 30.2634C267.65 30.1434 267.61 30.0234 267.55 29.9134C267.5 29.8034 267.45 29.6934 267.39 29.5834C267.36 29.5334 267.34 29.4834 267.32 29.4334C267.3 29.4034 267.29 29.3634 267.27 29.3334C267.18 29.1734 267.1 29.0134 267 28.8534C266.96 28.7934 266.93 28.7334 266.89 28.6734C266.87 28.6434 266.85 28.6034 266.83 28.5734C266.8 28.5334 266.78 28.4834 266.75 28.4434C266.67 28.3234 266.59 28.2034 266.5 28.0834C266.45 28.0134 266.39 27.9434 266.34 27.8734C266.33 27.8534 266.31 27.8334 266.3 27.8234C266.29 27.8034 266.27 27.7834 266.26 27.7634C266.18 27.6634 266.1 27.5734 266.02 27.4734C265.94 27.3834 265.86 27.3034 265.78 27.2134C265.77 27.2034 265.75 27.1834 265.74 27.1734C265.73 27.1634 265.72 27.1534 265.71 27.1434C265.66 27.0934 265.6 27.0334 265.55 26.9834C265.47 26.9134 265.39 26.8334 265.31 26.7734C265.24 26.7134 265.16 26.6534 265.09 26.5934L232.35 1.54344C232.35 1.54344 232.33 1.52344 232.32 1.51344C232.24 1.45344 232.15 1.39344 232.07 1.33344C231.98 1.27344 231.9 1.22344 231.81 1.17344C231.77 1.15344 231.73 1.13344 231.7 1.11344C231.68 1.11344 231.67 1.09344 231.65 1.08344C231.62 1.06344 231.58 1.04344 231.55 1.02344C231.46 0.973437 231.37 0.933438 231.27 0.893438C231.17 0.853438 231.08 0.813437 230.98 0.773438C230.98 0.773438 230.98 0.773438 230.97 0.773438C230.97 0.773438 230.97 0.773438 230.96 0.773438C230.87 0.743438 230.77 0.713438 230.68 0.683438C230.57 0.653438 230.46 0.623438 230.36 0.603438C230.33 0.603438 230.31 0.603437 230.28 0.593437C230.25 0.593437 230.23 0.593438 230.2 0.583438C230.13 0.573438 230.07 0.563438 230 0.553438C229.87 0.533438 229.74 0.533437 229.61 0.523438C229.58 0.523438 229.55 0.523438 229.51 0.523438H212.41C212.64 0.523438 212.87 0.543438 213.09 0.583438C213.12 0.583438 213.14 0.583437 213.17 0.593437C213.4 0.633437 213.62 0.693438 213.85 0.773438C213.85 0.773438 213.85 0.773438 213.86 0.773438C214.09 0.853437 214.31 0.963438 214.54 1.08344C214.56 1.08344 214.57 1.10344 214.59 1.11344C214.81 1.24344 215.03 1.38344 215.25 1.54344L247.97 26.5834C248.19 26.7534 248.4 26.9334 248.6 27.1334C248.61 27.1434 248.62 27.1534 248.63 27.1634C248.83 27.3634 249.02 27.5734 249.2 27.8034C249.21 27.8234 249.23 27.8434 249.24 27.8534C249.41 28.0734 249.57 28.3034 249.73 28.5534C249.75 28.5834 249.77 28.6234 249.79 28.6534C249.94 28.8934 250.08 29.1434 250.21 29.4134C250.24 29.4634 250.26 29.5134 250.28 29.5634C250.39 29.7834 250.49 30.0134 250.58 30.2434C250.61 30.3234 250.65 30.4034 250.68 30.4934C250.75 30.6634 250.8 30.8434 250.86 31.0234C250.92 31.1934 250.98 31.3634 251.03 31.5334C251.1 31.7534 251.15 31.9834 251.21 32.2134C251.24 32.3234 251.27 32.4334 251.29 32.5534C251.37 32.9034 251.43 33.2634 251.49 33.6334L259.57 89.8934C259.62 90.2134 259.65 90.5434 259.67 90.8734C259.67 90.9734 259.69 91.0734 259.69 91.1734C259.71 91.5034 259.72 91.8334 259.72 92.1634C259.72 92.2034 259.72 92.2534 259.72 92.2934C259.72 92.6434 259.71 92.9934 259.68 93.3334C259.68 93.3634 259.68 93.3834 259.68 93.4134C259.65 93.7734 259.61 94.1434 259.56 94.4934C259.56 94.5134 259.56 94.5334 259.56 94.5534C259.51 94.9034 259.45 95.2534 259.37 95.5934C259.37 95.6134 259.37 95.6234 259.36 95.6434C259.28 95.9934 259.2 96.3234 259.1 96.6634C259.1 96.6834 259.09 96.7134 259.08 96.7334C258.98 97.0634 258.87 97.3934 258.74 97.7134C258.74 97.7134 258.74 97.7234 258.74 97.7334C258.61 98.0634 258.47 98.3734 258.32 98.6834L235.68 143.803C235.53 144.093 235.38 144.373 235.21 144.633C235.2 144.653 235.18 144.683 235.17 144.703C235.02 144.943 234.86 145.163 234.7 145.373C234.66 145.423 234.63 145.463 234.59 145.513C234.43 145.703 234.27 145.893 234.1 146.063C234.08 146.093 234.05 146.113 234.03 146.143C234 146.173 233.97 146.193 233.94 146.223C233.73 146.423 233.52 146.603 233.3 146.763C233.22 146.823 233.13 146.873 233.05 146.923C232.88 147.033 232.7 147.143 232.52 147.233C232.43 147.283 232.33 147.323 232.24 147.363C232.05 147.443 231.86 147.503 231.67 147.553C231.58 147.573 231.5 147.603 231.41 147.623C231.13 147.683 230.85 147.713 230.57 147.713H247.67C247.95 147.713 248.23 147.673 248.51 147.623C248.6 147.603 248.68 147.573 248.77 147.553C248.96 147.503 249.15 147.443 249.34 147.363C249.44 147.323 249.53 147.283 249.62 147.233C249.8 147.143 249.98 147.043 250.15 146.923C250.23 146.873 250.32 146.823 250.4 146.763C250.62 146.603 250.83 146.423 251.04 146.223C251.07 146.203 251.09 146.183 251.12 146.153C251.12 146.153 251.12 146.143 251.13 146.133C251.15 146.113 251.18 146.083 251.2 146.053C251.33 145.913 251.46 145.783 251.59 145.633C251.62 145.593 251.65 145.553 251.69 145.513C251.73 145.473 251.76 145.423 251.8 145.373C251.85 145.303 251.9 145.243 251.95 145.183C252.05 145.053 252.14 144.913 252.24 144.763C252.25 144.743 252.26 144.723 252.28 144.703C252.29 144.683 252.31 144.653 252.32 144.633C252.38 144.543 252.43 144.453 252.49 144.363C252.56 144.233 252.64 144.103 252.71 143.973C252.74 143.913 252.77 143.863 252.8 143.803L275.44 98.6834C275.48 98.6134 275.51 98.5434 275.55 98.4634C275.61 98.3334 275.67 98.2034 275.72 98.0734C275.77 97.9634 275.82 97.8434 275.86 97.7334C275.86 97.7334 275.86 97.7234 275.86 97.7134C275.86 97.7134 275.86 97.7034 275.86 97.6934C275.91 97.5634 275.96 97.4334 276 97.3034C276.05 97.1734 276.09 97.0434 276.13 96.9134C276.15 96.8534 276.17 96.7934 276.18 96.7334C276.18 96.7134 276.2 96.6834 276.2 96.6634C276.21 96.6134 276.23 96.5734 276.24 96.5234C276.28 96.3934 276.31 96.2534 276.35 96.1234C276.38 95.9834 276.42 95.8534 276.45 95.7134C276.45 95.6934 276.45 95.6734 276.46 95.6534C276.46 95.6334 276.46 95.6134 276.47 95.6034C276.49 95.5034 276.51 95.4034 276.53 95.2934C276.56 95.1534 276.58 95.0034 276.61 94.8634C276.63 94.7634 276.64 94.6634 276.66 94.5634C276.66 94.5434 276.66 94.5234 276.66 94.4934C276.66 94.4634 276.66 94.4434 276.67 94.4134C276.69 94.2634 276.71 94.1134 276.73 93.9634C276.75 93.8134 276.76 93.6534 276.77 93.4934C276.77 93.4634 276.77 93.4334 276.77 93.4134C276.77 93.3834 276.77 93.3634 276.77 93.3334C276.77 93.2234 276.79 93.1234 276.79 93.0134C276.79 92.8434 276.8 92.6734 276.81 92.5034C276.81 92.4334 276.81 92.3534 276.81 92.2834C276.81 92.2434 276.81 92.1934 276.81 92.1534H276.85Z" fill="white" stroke="#3497F9" stroke-miterlimit="10"/>
<path d="M212.411 0.511719C213.381 0.511719 214.351 0.851719 215.251 1.54172L247.971 26.5817C249.761 27.9517 251.061 30.5517 251.501 33.6317L259.581 89.8917C260.021 92.9817 259.561 96.2117 258.321 98.6817L235.681 143.802C234.441 146.282 232.551 147.722 230.571 147.722H194.251C192.261 147.722 190.381 146.282 189.141 143.802L166.501 98.6817C165.261 96.2017 164.801 92.9717 165.241 89.8917L173.321 33.6317C173.761 30.5517 175.061 27.9517 176.851 26.5817L209.581 1.54172C210.481 0.851719 211.451 0.511719 212.421 0.511719H212.411Z" fill="white" stroke="#3497F9" stroke-opacity="0.33" stroke-miterlimit="10"/>
<path d="M216.132 147.71H210.332C208.312 147.71 206.402 146.25 205.142 143.73L182.142 101.31C180.882 98.8 180.412 95.52 180.862 92.38L189.072 35.25C189.522 32.12 190.842 29.48 192.662 28.09L222.072 6.75" stroke="#3497F9" stroke-opacity="0.33" stroke-width="1.02" stroke-miterlimit="10"/>
<path d="M250.262 29.9805H267.552" stroke="#3497F9" stroke-opacity="0.33" stroke-width="1.02" stroke-miterlimit="10"/>
<path d="M259.391 95.5703H276.851" stroke="#3497F9" stroke-opacity="0.33" stroke-width="1.02" stroke-miterlimit="10"/>
<path d="M62.3125 0.511719H63.8125" stroke="#3497F9" stroke-opacity="0.33" stroke-width="1.02" stroke-miterlimit="10"/>
<path d="M66.8633 0.511719H211.583" stroke="#3497F9" stroke-opacity="0.43" stroke-width="1.02" stroke-miterlimit="10" stroke-dasharray="3.05 3.05"/>
<path d="M213.113 0.511719H214.613" stroke="#3497F9" stroke-opacity="0.33" stroke-width="1.02" stroke-miterlimit="10"/>
<path d="M102.172 29.9805H103.672" stroke="#3497F9" stroke-opacity="0.33" stroke-width="1.02" stroke-miterlimit="10"/>
<path d="M106.633 29.9805H247.283" stroke="#3497F9" stroke-opacity="0.43" stroke-width="1.02" stroke-miterlimit="10" stroke-dasharray="2.96 2.96"/>
<path d="M248.762 29.9805H250.262" stroke="#3497F9" stroke-opacity="0.33" stroke-width="1.02" stroke-miterlimit="10"/>
<path d="M62.3125 147.711H63.8125" stroke="#3497F9" stroke-opacity="0.33" stroke-width="1.02" stroke-miterlimit="10"/>
<path d="M66.8633 147.711H211.583" stroke="#3497F9" stroke-opacity="0.43" stroke-width="1.02" stroke-miterlimit="10" stroke-dasharray="3.05 3.05"/>
<path d="M213.113 147.711H214.613" stroke="#3497F9" stroke-opacity="0.33" stroke-width="1.02" stroke-miterlimit="10"/>
<path d="M90.082 95.5703H91.582" stroke="#3497F9" stroke-opacity="0.33" stroke-width="1.02" stroke-miterlimit="10"/>
<path d="M94.6133 95.5703H256.743" stroke="#3497F9" stroke-opacity="0.43" stroke-width="1.02" stroke-miterlimit="10" stroke-dasharray="3.03 3.03"/>
<path d="M258.254 95.5703H259.754" stroke="#3497F9" stroke-opacity="0.33" stroke-width="1.02" stroke-miterlimit="10"/>
<path d="M222.071 6.76172L192.031 28.6517C192.031 28.6517 190.301 30.4417 189.761 32.4417C189.221 34.4417 184.551 66.7917 184.551 66.7917L180.721 94.0217C180.721 94.0217 180.361 97.8417 181.871 100.722C183.381 103.602 205.811 145.242 205.811 145.242C205.811 145.242 207.571 147.722 210.331 147.722C213.091 147.722 231.411 147.632 231.411 147.632C231.411 147.632 232.791 147.552 234.591 145.212C236.391 142.872 240.301 134.592 240.301 134.592L258.961 97.1317C258.961 97.1317 259.751 93.9917 259.731 91.7317C259.711 89.4717 258.931 85.4217 258.931 85.4217L251.531 33.9217C251.531 33.9217 252.501 30.0617 246.671 25.6017L222.061 6.77172L222.071 6.76172Z" fill="#2D7AFF" fill-opacity="0.3" stroke="#3497F9" stroke-opacity="0.33" stroke-miterlimit="10"/>
<g opacity="0.3">
<mask id="mask0_215_31525" style="mask-type:luminance" maskUnits="userSpaceOnUse" x="190" y="30" width="58" height="88">
<path d="M247.917 30.5H190.617V117.72H247.917V30.5Z" fill="white"/>
</mask>
<g mask="url(#mask0_215_31525)">
<path d="M219.318 102.468C217.478 102.468 215.648 101.998 213.888 101.068L218.018 89.4383C218.278 88.6883 218.778 88.2583 219.288 88.2583C219.518 88.2583 219.748 88.3483 219.968 88.5283C220.218 88.7383 220.418 89.0483 220.548 89.4283H220.578L224.718 101.088C224.188 101.368 223.628 101.598 223.068 101.808C221.828 102.248 220.568 102.468 219.308 102.468M211.858 82.9383C211.948 82.9083 212.048 82.8983 212.138 82.8983C212.928 82.9283 213.558 83.9283 213.548 85.1683C213.548 85.4683 213.508 85.7483 213.428 86.0183L213.448 86.0683L210.188 98.3083C207.068 95.1983 204.678 90.5683 203.418 85.1283L211.828 82.9183L211.848 82.9483M228.418 98.3583L225.128 85.9783V85.9583C224.828 84.8583 225.138 83.5783 225.838 83.0583C226.008 82.9283 226.198 82.8483 226.388 82.8383C226.418 82.8383 226.438 82.8383 226.468 82.8383C226.548 82.8383 226.638 82.8483 226.718 82.8783V82.8483L235.208 85.0683C233.958 90.5483 231.568 95.2183 228.418 98.3483M219.298 80.8883L216.948 79.1183L216.358 75.1683L217.998 72.0083H220.608L222.238 75.1783L221.658 79.1283L219.308 80.8883M236.098 78.8883L227.858 75.1983V75.1483C227.078 74.8283 226.638 73.5883 226.848 72.3983C226.928 71.9883 227.078 71.5983 227.288 71.3083V71.2883L233.648 62.4283C235.598 67.3483 236.458 73.1383 236.098 78.8883ZM202.518 78.9383C202.118 73.1783 202.948 67.3683 204.898 62.4183L211.288 71.3183V71.3683C211.888 72.1783 211.938 73.5883 211.418 74.5183C211.228 74.8483 210.988 75.0883 210.718 75.1983V75.2383L202.508 78.9183M214.448 65.1783L207.438 57.4583C209.668 54.0483 212.468 51.6683 215.518 50.6083C216.088 50.4083 216.668 50.2483 217.258 50.1383L216.768 63.4283L216.738 63.4583C216.708 64.6583 216.068 65.5983 215.308 65.5983C215.288 65.5983 215.268 65.5983 215.248 65.5983C214.968 65.5783 214.688 65.4383 214.458 65.1783H214.448ZM223.268 65.5483C222.828 65.5483 222.388 65.2283 222.108 64.6283C221.938 64.2683 221.848 63.8483 221.828 63.4183L221.338 50.1383C225.028 50.8483 228.448 53.4183 231.098 57.4683L224.138 65.1483L224.118 65.1283C223.858 65.4183 223.568 65.5583 223.268 65.5583M219.288 30.4983C218.458 30.4983 217.748 31.4783 217.668 32.7883C217.658 32.9583 217.658 33.1283 217.668 33.2983V33.3683C217.668 33.5783 217.668 33.8283 217.668 34.0183C217.708 34.8283 217.788 35.6283 217.888 36.4283C218.048 37.9383 218.108 39.4783 218.078 41.0183C217.988 41.5183 217.798 41.9783 217.548 42.3283L217.508 43.3983C216.518 43.5283 215.538 43.7583 214.568 44.0983C210.488 45.5283 206.788 48.8183 203.928 53.5583C203.728 53.3383 203.538 53.1283 203.348 52.9083C203.228 52.9683 203.098 52.9983 202.978 52.9983C202.768 52.9983 202.568 52.9183 202.378 52.7683C201.588 51.8483 200.848 50.8183 200.188 49.6783C199.848 49.0583 199.498 48.4683 199.108 47.9083C199.008 47.7683 198.858 47.5883 198.748 47.4583C198.428 47.0483 198.028 46.8183 197.618 46.7883C197.588 46.7883 197.558 46.7883 197.528 46.7883C197.058 46.7883 196.618 47.1183 196.318 47.6883C195.768 48.8983 195.948 50.5683 196.718 51.4183L196.748 51.4483C196.848 51.5883 196.988 51.7683 197.088 51.8683C197.518 52.3183 197.978 52.7283 198.438 53.0983C199.298 53.8583 200.108 54.7483 200.858 55.7483C201.058 56.1783 201.168 56.6883 201.188 57.2083L201.708 57.9383C198.828 64.6583 197.638 72.7983 198.378 80.7983L197.698 81.1083C197.518 81.5483 197.278 81.9283 196.988 82.2083C196.038 82.6083 195.058 82.8583 194.068 82.9583C193.548 82.9783 193.018 83.0383 192.508 83.1583C192.378 83.1983 192.208 83.2683 192.078 83.3083H192.058L192.038 83.3283C191.138 83.5083 190.508 84.7883 190.628 86.1783C190.738 87.4583 191.438 88.3883 192.238 88.3883C192.308 88.3883 192.388 88.3883 192.458 88.3683C192.558 88.3483 192.658 88.3183 192.758 88.2683H192.788L192.818 88.2383C192.948 88.1983 193.118 88.1383 193.238 88.0983C193.738 87.8483 194.218 87.5583 194.698 87.2283C195.618 86.6483 196.568 86.2183 197.538 85.9283C197.878 85.9583 198.198 86.1383 198.478 86.4383L199.188 86.2483C200.778 93.9083 204.118 100.398 208.578 104.488L208.278 105.598C208.418 106.038 208.468 106.548 208.418 107.028C208.018 108.468 207.518 109.858 206.938 111.148C206.628 111.798 206.328 112.468 206.068 113.178C206.008 113.368 205.928 113.658 205.858 113.858C205.398 115.058 205.648 116.618 206.418 117.348C206.678 117.588 206.968 117.708 207.258 117.708C207.808 117.708 208.358 117.268 208.658 116.478C208.708 116.338 208.758 116.178 208.788 116.028C208.848 115.818 208.938 115.558 208.988 115.368C209.178 114.608 209.328 113.838 209.458 113.048C209.738 111.448 210.168 109.918 210.718 108.498C210.918 108.218 211.158 108.028 211.418 107.968L211.788 106.938C214.218 108.388 216.788 109.118 219.348 109.118C221.908 109.118 224.408 108.408 226.818 106.988C226.918 107.278 227.118 107.828 227.168 107.968C227.508 108.048 227.798 108.328 227.998 108.748C228.458 110.108 228.828 111.538 229.118 113.008C229.248 113.798 229.408 114.578 229.588 115.328C229.638 115.518 229.728 115.778 229.788 115.978C230.028 117.028 230.658 117.678 231.328 117.678C231.508 117.678 231.698 117.628 231.878 117.528C232.728 117.048 233.178 115.598 232.868 114.268C232.838 114.118 232.788 113.958 232.738 113.818C232.678 113.618 232.588 113.328 232.528 113.138C232.258 112.438 231.968 111.768 231.658 111.118C231.098 109.848 230.608 108.498 230.208 107.098C230.128 106.598 230.168 106.058 230.338 105.608C230.238 105.278 230.138 104.938 230.068 104.578C234.538 100.458 237.888 93.9183 239.458 86.1983C239.668 86.2483 240.038 86.3483 240.158 86.3983C240.388 86.0583 240.698 85.8683 241.018 85.8683C241.028 85.8683 241.048 85.8683 241.058 85.8683C242.028 86.1583 242.978 86.5883 243.898 87.1683C244.368 87.5083 244.868 87.7983 245.358 88.0483C245.478 88.0983 245.638 88.1383 245.778 88.1883H245.808L245.828 88.2083C245.998 88.2983 246.168 88.3383 246.338 88.3383C247.028 88.3383 247.668 87.6583 247.888 86.5883C248.168 85.2483 247.698 83.8183 246.838 83.3783C246.748 83.3283 246.648 83.2983 246.538 83.2683C246.398 83.2283 246.198 83.1283 246.068 83.0983C245.558 82.9883 245.028 82.9183 244.508 82.8983C243.528 82.7983 242.548 82.5483 241.588 82.1483C241.288 81.8983 241.048 81.5083 240.888 81.0483L240.228 80.7483C240.938 72.7583 239.728 64.6483 236.838 57.9383C237.008 57.7083 237.328 57.2583 237.418 57.1383C237.398 56.6183 237.508 56.1083 237.728 55.6983C238.478 54.6983 239.288 53.8083 240.148 53.0483C240.618 52.6783 241.068 52.2783 241.498 51.8283C241.598 51.6983 241.748 51.5083 241.858 51.3783C242.618 50.6183 242.848 49.0483 242.358 47.8583C242.048 47.0983 241.518 46.6783 240.978 46.6783C240.678 46.6783 240.378 46.8083 240.098 47.0783C239.998 47.1783 239.908 47.2883 239.828 47.4183C239.708 47.5483 239.558 47.7283 239.468 47.8583C239.088 48.4183 238.728 49.0083 238.388 49.6283C237.718 50.7683 236.988 51.8083 236.198 52.7283C235.978 52.8683 235.748 52.9283 235.518 52.9283C235.418 52.9283 235.308 52.9183 235.208 52.8883L234.588 53.5783C231.018 47.7583 226.218 44.1383 221.068 43.4083C221.048 43.0783 221.038 42.4583 221.028 42.2783C220.748 41.9783 220.558 41.5183 220.498 41.0083C220.468 39.4683 220.528 37.9283 220.688 36.4083C220.788 35.6183 220.868 34.8183 220.908 34.0083C220.908 33.7983 220.908 33.5083 220.908 33.2883C220.998 31.8883 220.338 30.6383 219.448 30.4983C219.388 30.4983 219.338 30.4883 219.278 30.4883" fill="white"/>
</g>
</g>
<path d="M181.369 37.9784L190.585 32.6133C191.315 32.1914 192.212 32.1914 192.943 32.6133L202.159 37.9784C202.882 38.4003 203.324 39.1706 203.324 40.0011V50.5972C203.324 51.4344 202.882 52.2046 202.159 52.6199L192.943 57.9849C192.212 58.4069 191.315 58.4069 190.585 57.9849L181.369 52.6199C180.645 52.1979 180.203 51.4277 180.203 50.5972V40.0011C180.203 39.1639 180.645 38.3936 181.369 37.9784Z" fill="#F7F7F5" fill-opacity="0.59" stroke="#878F9E" stroke-width="0.638165" stroke-miterlimit="10"/>
<path d="M183.836 39.7175L190.862 35.6317C191.418 35.3103 192.108 35.3103 192.657 35.6317L199.683 39.7175C200.233 40.039 200.574 40.6284 200.574 41.2647V49.3423C200.574 49.9786 200.233 50.568 199.683 50.8895L192.657 54.9752C192.101 55.2967 191.411 55.2967 190.862 54.9752L183.836 50.8895C183.287 50.568 182.945 49.9786 182.945 49.3423V41.2647C182.945 40.6284 183.287 40.039 183.836 39.7175Z" fill="#88B4FF"/>
<path d="M156.612 70.5103L167.103 64.4032C167.934 63.9229 168.956 63.9229 169.787 64.4032L180.278 70.5103C181.101 70.9907 181.604 71.8675 181.604 72.8129V84.8746C181.604 85.8277 181.101 86.7045 180.278 87.1772L169.787 93.2843C168.956 93.7646 167.934 93.7646 167.103 93.2843L156.612 87.1772C155.788 86.6968 155.285 85.82 155.285 84.8746V72.8129C155.285 71.8598 155.788 70.983 156.612 70.5103Z" fill="#F7F7F5" fill-opacity="0.59" stroke="#878F9E" stroke-width="0.638165" stroke-miterlimit="10"/>
<path d="M159.42 72.4917L167.418 67.8409C168.051 67.4749 168.836 67.4749 169.462 67.8409L177.46 72.4917C178.085 72.8577 178.474 73.5287 178.474 74.253V83.4479C178.474 84.1723 178.085 84.8432 177.46 85.2092L169.462 89.86C168.829 90.226 168.043 90.226 167.418 89.86L159.42 85.2092C158.795 84.8432 158.406 84.1723 158.406 83.4479V74.253C158.406 73.5287 158.795 72.8577 159.42 72.4917Z" fill="#88B4FF"/>
<path d="M134.486 111.158L143.702 105.793C144.432 105.371 145.33 105.371 146.06 105.793L155.276 111.158C155.999 111.58 156.441 112.35 156.441 113.181V123.777C156.441 124.614 155.999 125.384 155.276 125.8L146.06 131.165C145.33 131.587 144.432 131.587 143.702 131.165L134.486 125.8C133.762 125.378 133.32 124.607 133.32 123.777V113.181C133.32 112.344 133.762 111.573 134.486 111.158Z" fill="#F7F7F5" fill-opacity="0.59" stroke="#878F9E" stroke-width="0.638165" stroke-miterlimit="10"/>
<path d="M136.953 112.897L143.979 108.811C144.535 108.49 145.225 108.49 145.774 108.811L152.8 112.897C153.35 113.219 153.691 113.808 153.691 114.444V122.522C153.691 123.158 153.35 123.748 152.8 124.069L145.774 128.155C145.219 128.476 144.529 128.476 143.979 128.155L136.953 124.069C136.404 123.748 136.062 123.158 136.062 122.522V114.444C136.062 113.808 136.404 113.219 136.953 112.897Z" fill="#88B4FF"/>
<path d="M196.995 102.038L207.486 95.9306C208.317 95.4502 209.338 95.4502 210.17 95.9306L220.661 102.038C221.484 102.518 221.987 103.395 221.987 104.34V116.402C221.987 117.355 221.484 118.232 220.661 118.705L210.17 124.812C209.338 125.292 208.317 125.292 207.486 124.812L196.995 118.705C196.171 118.224 195.668 117.347 195.668 116.402V104.34C195.668 103.387 196.171 102.51 196.995 102.038Z" fill="#F7F7F5" fill-opacity="0.59" stroke="#878F9E" stroke-width="0.638165" stroke-miterlimit="10"/>
<path d="M199.803 104.019L207.801 99.3682C208.434 99.0023 209.219 99.0023 209.844 99.3682L217.842 104.019C218.468 104.385 218.856 105.056 218.856 105.78V114.975C218.856 115.7 218.468 116.371 217.842 116.737L209.844 121.387C209.212 121.753 208.426 121.753 207.801 121.387L199.803 116.737C199.178 116.371 198.789 115.7 198.789 114.975V105.78C198.789 105.056 199.178 104.385 199.803 104.019Z" fill="#88B4FF"/>
<path d="M117.612 39.7056L128.103 33.5985C128.934 33.1182 129.956 33.1182 130.787 33.5985L141.278 39.7056C142.101 40.186 142.604 41.0628 142.604 42.0082V54.0699C142.604 55.023 142.101 55.8998 141.278 56.3725L130.787 62.4796C129.956 62.9599 128.934 62.9599 128.103 62.4796L117.612 56.3725C116.788 55.8922 116.285 55.0154 116.285 54.0699V42.0082C116.285 41.0552 116.788 40.1784 117.612 39.7056Z" fill="#F7F7F5" fill-opacity="0.59" stroke="#878F9E" stroke-width="0.638165" stroke-miterlimit="10"/>
<path d="M120.42 41.6871L128.418 37.0362C129.051 36.6702 129.836 36.6702 130.462 37.0362L138.46 41.6871C139.085 42.053 139.474 42.724 139.474 43.4483V52.6433C139.474 53.3676 139.085 54.0385 138.46 54.4045L130.462 59.0553C129.829 59.4213 129.043 59.4213 128.418 59.0553L120.42 54.4045C119.795 54.0385 119.406 53.3676 119.406 52.6433V43.4483C119.406 42.724 119.795 42.053 120.42 41.6871Z" fill="#88B4FF"/>
<path d="M99.2329 87.2447L109.724 81.1376C110.555 80.6573 111.577 80.6573 112.408 81.1376L122.899 87.2447C123.722 87.725 124.226 88.6018 124.226 89.5473V101.609C124.226 102.562 123.722 103.439 122.899 103.912L112.408 110.019C111.577 110.499 110.555 110.499 109.724 110.019L99.2329 103.912C98.4095 103.431 97.9062 102.554 97.9062 101.609V89.5473C97.9062 88.5942 98.4095 87.7174 99.2329 87.2447Z" fill="#F7F7F5" fill-opacity="0.59" stroke="#878F9E" stroke-width="0.638165" stroke-miterlimit="10"/>
<path d="M102.041 89.2261L110.039 84.5753C110.672 84.2093 111.457 84.2093 112.083 84.5753L120.081 89.2261C120.706 89.5921 121.095 90.263 121.095 90.9873V100.182C121.095 100.907 120.706 101.578 120.081 101.944L112.083 106.594C111.45 106.96 110.664 106.96 110.039 106.594L102.041 101.944C101.416 101.578 101.027 100.907 101.027 100.182V90.9873C101.027 90.263 101.416 89.5921 102.041 89.2261Z" fill="#88B4FF"/>
<path opacity="0.3" d="M177.04 0.511719C178.01 0.511719 178.98 0.851719 179.88 1.54172L212.6 26.5817C214.39 27.9517 215.69 30.5517 216.13 33.6317L224.21 89.8917C224.65 92.9817 224.19 96.2117 222.95 98.6817L200.31 143.802C199.07 146.282 197.18 147.722 195.2 147.722H158.88C156.89 147.722 155.01 146.282 153.77 143.802L131.13 98.6817C129.89 96.2017 129.43 92.9717 129.87 89.8917L137.95 33.6317C138.39 30.5517 139.69 27.9517 141.48 26.5817L174.2 1.54172C175.1 0.851719 176.07 0.511719 177.04 0.511719Z" stroke="#3497F9" stroke-opacity="0.43" stroke-miterlimit="10"/>
<path opacity="0.3" d="M139.603 0.511719C140.573 0.511719 141.543 0.851719 142.443 1.54172L175.163 26.5817C176.953 27.9517 178.253 30.5517 178.693 33.6317L186.773 89.8917C187.213 92.9817 186.753 96.2117 185.513 98.6817L162.873 143.802C161.633 146.282 159.743 147.722 157.763 147.722H121.443C119.453 147.722 117.573 146.282 116.333 143.802L93.6927 98.6817C92.4527 96.2017 91.9927 92.9717 92.4327 89.8917L100.513 33.6317C100.953 30.5517 102.253 27.9517 104.043 26.5817L136.773 1.54172C137.673 0.851719 138.643 0.511719 139.613 0.511719H139.603Z" stroke="#3497F9" stroke-opacity="0.43" stroke-miterlimit="10"/>
<path opacity="0.3" d="M102.169 0.511719C103.139 0.511719 104.109 0.851719 105.009 1.54172L137.729 26.5817C139.519 27.9517 140.819 30.5517 141.259 33.6317L149.339 89.8917C149.779 92.9817 149.319 96.2117 148.079 98.6817L125.439 143.802C124.199 146.282 122.309 147.722 120.329 147.722H84.0091C82.0191 147.722 80.1391 146.282 78.8991 143.802L56.2591 98.6817C55.0191 96.2017 54.5591 92.9717 54.9991 89.8917L63.0791 33.6317C63.5191 30.5517 64.8191 27.9517 66.6091 26.5817L99.3291 1.54172C100.229 0.851719 101.199 0.511719 102.169 0.511719Z" stroke="#3497F9" stroke-opacity="0.43" stroke-miterlimit="10"/>
<g opacity="0.3">
<path d="M15.6797 95.5703H17.1797" stroke="#3497F9" stroke-opacity="0.33" stroke-width="1.02" stroke-miterlimit="10"/>
<path d="M20.1211 95.5703H100.851" stroke="#3497F9" stroke-opacity="0.33" stroke-width="1.02" stroke-miterlimit="10" stroke-dasharray="2.94 2.94"/>
<path d="M102.32 95.5703H103.82" stroke="#3497F9" stroke-opacity="0.33" stroke-width="1.02" stroke-miterlimit="10"/>
</g>
<g opacity="0.3">
<path d="M25.6914 29.9805H27.1914" stroke="#3497F9" stroke-opacity="0.33" stroke-width="1.02" stroke-miterlimit="10"/>
<path d="M30.1914 29.9805H100.821" stroke="#3497F9" stroke-opacity="0.33" stroke-width="1.02" stroke-miterlimit="10" stroke-dasharray="3.01 3.01"/>
<path d="M102.32 29.9805H103.82" stroke="#3497F9" stroke-opacity="0.33" stroke-width="1.02" stroke-miterlimit="10"/>
</g>
<path opacity="0.3" d="M51.1206 147.712H45.3206C43.3006 147.712 41.3906 146.252 40.1306 143.732L17.1306 101.312C15.8706 98.8017 15.4006 95.5217 15.8506 92.3817L24.0606 35.2517C24.5106 32.1217 25.8306 29.4817 27.6506 28.0917L57.0506 6.76172" stroke="#3497F9" stroke-opacity="0.43" stroke-width="1.02" stroke-miterlimit="10"/>
<path d="M112.272 92.1534C112.272 92.0834 112.272 92.0234 112.272 91.9534C112.272 91.7434 112.262 91.5334 112.252 91.3334C112.252 91.2734 112.252 91.2234 112.242 91.1634C112.242 91.0634 112.222 90.9634 112.222 90.8634C112.212 90.7334 112.202 90.6034 112.192 90.4734C112.172 90.2834 112.152 90.0834 112.122 89.8934L104.042 33.6334C103.992 33.2634 103.922 32.9134 103.842 32.5634C103.812 32.4434 103.782 32.3334 103.752 32.2234C103.702 32.0334 103.662 31.8434 103.612 31.6534C103.602 31.6134 103.582 31.5834 103.572 31.5434C103.522 31.3634 103.462 31.2034 103.402 31.0334C103.352 30.9034 103.322 30.7634 103.272 30.6334C103.252 30.5934 103.242 30.5534 103.222 30.5134C103.192 30.4334 103.152 30.3434 103.122 30.2634C103.072 30.1434 103.032 30.0234 102.972 29.9134C102.922 29.8034 102.872 29.6934 102.812 29.5834C102.782 29.5334 102.762 29.4834 102.742 29.4334C102.722 29.4034 102.712 29.3634 102.692 29.3334C102.602 29.1734 102.522 29.0134 102.422 28.8534C102.382 28.7934 102.352 28.7334 102.312 28.6734C102.292 28.6434 102.272 28.6034 102.252 28.5734C102.222 28.5334 102.202 28.4834 102.172 28.4434C102.092 28.3234 102.012 28.2034 101.922 28.0834C101.872 28.0134 101.812 27.9434 101.762 27.8734C101.752 27.8534 101.732 27.8334 101.722 27.8234C101.712 27.8034 101.692 27.7834 101.682 27.7634C101.602 27.6634 101.522 27.5734 101.442 27.4734C101.362 27.3834 101.282 27.3034 101.202 27.2134C101.192 27.2034 101.172 27.1834 101.162 27.1734C101.152 27.1634 101.142 27.1534 101.132 27.1434C101.082 27.0934 101.022 27.0334 100.972 26.9834C100.892 26.9134 100.812 26.8334 100.732 26.7734C100.662 26.7134 100.582 26.6534 100.512 26.5934L67.772 1.54344C67.772 1.54344 67.752 1.52344 67.742 1.51344C67.662 1.45344 67.572 1.39344 67.492 1.33344C67.402 1.27344 67.322 1.22344 67.232 1.17344C67.192 1.15344 67.152 1.13344 67.122 1.11344C67.102 1.11344 67.092 1.09344 67.072 1.08344C67.042 1.06344 67.002 1.04344 66.972 1.02344C66.882 0.973437 66.792 0.933438 66.692 0.893438C66.592 0.853438 66.502 0.813437 66.402 0.773438C66.402 0.773438 66.402 0.773438 66.392 0.773438C66.392 0.773438 66.392 0.773438 66.382 0.773438C66.292 0.743438 66.192 0.713438 66.102 0.683438C65.992 0.653438 65.882 0.623438 65.782 0.603438C65.752 0.603438 65.732 0.603437 65.702 0.593437C65.672 0.593437 65.652 0.593438 65.622 0.583438C65.552 0.573438 65.492 0.563438 65.422 0.553438C65.292 0.533438 65.162 0.533437 65.032 0.523438C65.002 0.523438 64.972 0.523438 64.932 0.523438H47.832C48.062 0.523438 48.292 0.543438 48.512 0.583438C48.542 0.583438 48.562 0.583437 48.592 0.593437C48.822 0.633437 49.042 0.693438 49.272 0.773438C49.272 0.773438 49.272 0.773438 49.282 0.773438C49.512 0.853437 49.732 0.963438 49.962 1.08344C49.982 1.08344 49.992 1.10344 50.012 1.11344C50.232 1.24344 50.452 1.38344 50.672 1.54344L83.392 26.5834C83.612 26.7534 83.822 26.9334 84.022 27.1334C84.032 27.1434 84.042 27.1534 84.052 27.1634C84.252 27.3634 84.442 27.5734 84.622 27.8034C84.632 27.8234 84.652 27.8434 84.662 27.8534C84.832 28.0734 84.992 28.3034 85.152 28.5534C85.172 28.5834 85.192 28.6234 85.212 28.6534C85.362 28.8934 85.502 29.1434 85.632 29.4134C85.662 29.4634 85.682 29.5134 85.702 29.5634C85.812 29.7834 85.912 30.0134 86.002 30.2434C86.032 30.3234 86.072 30.4034 86.102 30.4934C86.172 30.6634 86.222 30.8434 86.282 31.0234C86.342 31.1934 86.402 31.3634 86.452 31.5334C86.522 31.7534 86.572 31.9834 86.632 32.2134C86.662 32.3234 86.692 32.4334 86.712 32.5534C86.792 32.9034 86.852 33.2634 86.912 33.6334L94.992 89.8934C95.042 90.2134 95.072 90.5434 95.092 90.8734C95.092 90.9734 95.112 91.0734 95.112 91.1734C95.132 91.5034 95.142 91.8334 95.142 92.1634C95.142 92.2034 95.142 92.2534 95.142 92.2934C95.142 92.6434 95.132 92.9934 95.102 93.3334C95.102 93.3634 95.102 93.3834 95.102 93.4134C95.072 93.7734 95.032 94.1434 94.982 94.4934C94.982 94.5134 94.982 94.5334 94.982 94.5534C94.932 94.9034 94.872 95.2534 94.792 95.5934C94.792 95.6134 94.792 95.6234 94.782 95.6434C94.702 95.9934 94.622 96.3234 94.522 96.6634C94.522 96.6834 94.512 96.7134 94.502 96.7334C94.402 97.0634 94.292 97.3934 94.162 97.7134C94.162 97.7134 94.162 97.7234 94.162 97.7334C94.032 98.0634 93.892 98.3734 93.742 98.6834L71.102 143.803C70.952 144.093 70.802 144.373 70.632 144.633C70.622 144.653 70.602 144.683 70.592 144.703C70.442 144.943 70.282 145.163 70.122 145.373C70.082 145.423 70.052 145.463 70.012 145.513C69.852 145.703 69.692 145.893 69.522 146.063C69.502 146.093 69.472 146.113 69.452 146.143C69.422 146.173 69.392 146.193 69.362 146.223C69.152 146.423 68.942 146.603 68.722 146.763C68.642 146.823 68.552 146.873 68.472 146.923C68.302 147.033 68.122 147.143 67.942 147.233C67.852 147.283 67.752 147.323 67.662 147.363C67.472 147.443 67.282 147.503 67.092 147.553C67.002 147.573 66.922 147.603 66.832 147.623C66.552 147.683 66.272 147.713 65.992 147.713H83.092C83.372 147.713 83.652 147.673 83.932 147.623C84.022 147.603 84.102 147.573 84.192 147.553C84.382 147.503 84.572 147.443 84.762 147.363C84.862 147.323 84.952 147.283 85.042 147.233C85.222 147.143 85.402 147.043 85.572 146.923C85.652 146.873 85.742 146.823 85.822 146.763C86.042 146.603 86.252 146.423 86.462 146.223C86.492 146.203 86.512 146.183 86.542 146.153C86.542 146.153 86.542 146.143 86.552 146.133C86.572 146.113 86.602 146.083 86.622 146.053C86.752 145.913 86.882 145.783 87.012 145.633C87.042 145.593 87.072 145.553 87.112 145.513C87.152 145.473 87.182 145.423 87.222 145.373C87.272 145.303 87.322 145.243 87.372 145.183C87.472 145.053 87.562 144.913 87.662 144.763C87.672 144.743 87.682 144.723 87.702 144.703C87.712 144.683 87.732 144.653 87.742 144.633C87.802 144.543 87.852 144.453 87.912 144.363C87.982 144.233 88.062 144.103 88.132 143.973C88.162 143.913 88.192 143.863 88.222 143.803L110.862 98.6834C110.902 98.6134 110.932 98.5434 110.972 98.4634C111.032 98.3334 111.092 98.2034 111.142 98.0734C111.192 97.9634 111.242 97.8434 111.282 97.7334C111.282 97.7334 111.282 97.7234 111.282 97.7134C111.282 97.7134 111.282 97.7034 111.282 97.6934C111.332 97.5634 111.382 97.4334 111.422 97.3034C111.472 97.1734 111.512 97.0434 111.552 96.9134C111.572 96.8534 111.592 96.7934 111.602 96.7334C111.602 96.7134 111.622 96.6834 111.622 96.6634C111.632 96.6134 111.652 96.5734 111.662 96.5234C111.702 96.3934 111.732 96.2534 111.772 96.1234C111.802 95.9834 111.842 95.8534 111.872 95.7134C111.872 95.6934 111.872 95.6734 111.882 95.6534C111.882 95.6334 111.882 95.6134 111.892 95.6034C111.912 95.5034 111.932 95.4034 111.952 95.2934C111.982 95.1534 112.002 95.0034 112.032 94.8634C112.052 94.7634 112.062 94.6634 112.082 94.5634C112.082 94.5434 112.082 94.5234 112.082 94.4934C112.082 94.4634 112.082 94.4434 112.092 94.4134C112.112 94.2634 112.132 94.1134 112.152 93.9634C112.172 93.8134 112.182 93.6534 112.192 93.4934C112.192 93.4634 112.192 93.4334 112.192 93.4134C112.192 93.3834 112.192 93.3634 112.192 93.3334C112.192 93.2234 112.212 93.1234 112.212 93.0134C112.212 92.8434 112.222 92.6734 112.232 92.5034C112.232 92.4334 112.232 92.3534 112.232 92.2834C112.232 92.2434 112.232 92.1934 112.232 92.1534H112.272Z" fill="white" stroke="#3497F9" stroke-miterlimit="10"/>
<path d="M47.8409 0.511719C48.8109 0.511719 49.7809 0.851719 50.6809 1.54172L83.4009 26.5817C85.1909 27.9517 86.4909 30.5517 86.9309 33.6317L95.0109 89.8917C95.4509 92.9817 94.9909 96.2117 93.7509 98.6817L71.1109 143.802C69.8709 146.282 67.9809 147.722 66.0009 147.722H29.6809C27.6909 147.722 25.8109 146.282 24.5709 143.802L1.93094 98.6817C0.690943 96.2017 0.230943 92.9717 0.670943 89.8917L8.75094 33.6317C9.19094 30.5517 10.4909 27.9517 12.2809 26.5817L45.0009 1.54172C45.9009 0.851719 46.8709 0.511719 47.8409 0.511719Z" fill="#2D7AFF" stroke="#3497F9" stroke-opacity="0.33" stroke-miterlimit="10"/>
<path d="M86.5312 29.9805H103.821" stroke="#3497F9" stroke-opacity="0.33" stroke-width="1.02" stroke-miterlimit="10"/>
<path d="M95.0898 95.5703H112.55" stroke="#3497F9" stroke-opacity="0.33" stroke-width="1.02" stroke-miterlimit="10"/>
<mask id="mask1_215_31525" style="mask-type:luminance" maskUnits="userSpaceOnUse" x="19" y="30" width="58" height="88">
<path d="M76.4406 30.5H19.1406V117.72H76.4406V30.5Z" fill="white"/>
</mask>
<g mask="url(#mask1_215_31525)">
<path d="M47.8414 102.468C46.0014 102.468 44.1714 101.998 42.4114 101.068L46.5414 89.4383C46.8014 88.6883 47.3014 88.2583 47.8114 88.2583C48.0414 88.2583 48.2714 88.3483 48.4914 88.5283C48.7414 88.7383 48.9414 89.0483 49.0714 89.4283H49.1014L53.2414 101.088C52.7114 101.368 52.1514 101.598 51.5914 101.808C50.3514 102.248 49.0914 102.468 47.8314 102.468M40.3814 82.9383C40.4714 82.9083 40.5714 82.8983 40.6614 82.8983C41.4514 82.9283 42.0814 83.9283 42.0714 85.1683C42.0714 85.4683 42.0314 85.7483 41.9514 86.0183L41.9714 86.0683L38.7114 98.3083C35.5914 95.1983 33.2014 90.5683 31.9414 85.1283L40.3514 82.9183L40.3714 82.9483M56.9414 98.3583L53.6514 85.9783V85.9583C53.3514 84.8583 53.6614 83.5783 54.3614 83.0583C54.5314 82.9283 54.7214 82.8483 54.9114 82.8383C54.9414 82.8383 54.9614 82.8383 54.9914 82.8383C55.0714 82.8383 55.1614 82.8483 55.2414 82.8783V82.8483L63.7314 85.0683C62.4814 90.5483 60.0914 95.2183 56.9414 98.3483M47.8214 80.8883L45.4714 79.1183L44.8814 75.1683L46.5214 72.0083H49.1314L50.7614 75.1783L50.1814 79.1283L47.8314 80.8883M64.6214 78.8883L56.3814 75.1983V75.1483C55.6014 74.8283 55.1614 73.5883 55.3714 72.3983C55.4514 71.9883 55.6014 71.5983 55.8114 71.3083V71.2883L62.1714 62.4283C64.1214 67.3483 64.9814 73.1383 64.6214 78.8883ZM31.0414 78.9383C30.6414 73.1783 31.4714 67.3683 33.4214 62.4183L39.8114 71.3183V71.3683C40.4114 72.1783 40.4614 73.5883 39.9414 74.5183C39.7514 74.8483 39.5114 75.0883 39.2414 75.1983V75.2383L31.0314 78.9183M42.9714 65.1783L35.9614 57.4583C38.1914 54.0483 40.9914 51.6683 44.0414 50.6083C44.6114 50.4083 45.1914 50.2483 45.7814 50.1383L45.2914 63.4283L45.2614 63.4583C45.2314 64.6583 44.5914 65.5983 43.8314 65.5983C43.8114 65.5983 43.7914 65.5983 43.7714 65.5983C43.4914 65.5783 43.2114 65.4383 42.9814 65.1783H42.9714ZM51.7914 65.5483C51.3514 65.5483 50.9114 65.2283 50.6314 64.6283C50.4614 64.2683 50.3714 63.8483 50.3514 63.4183L49.8614 50.1383C53.5514 50.8483 56.9714 53.4183 59.6214 57.4683L52.6614 65.1483L52.6414 65.1283C52.3814 65.4183 52.0914 65.5583 51.7914 65.5583M47.8114 30.4983C46.9814 30.4983 46.2714 31.4783 46.1914 32.7883C46.1814 32.9583 46.1814 33.1283 46.1914 33.2983V33.3683C46.1914 33.5783 46.1914 33.8283 46.1914 34.0183C46.2314 34.8283 46.3114 35.6283 46.4114 36.4283C46.5714 37.9383 46.6314 39.4783 46.6014 41.0183C46.5114 41.5183 46.3214 41.9783 46.0714 42.3283L46.0314 43.3983C45.0414 43.5283 44.0614 43.7583 43.0914 44.0983C39.0114 45.5283 35.3114 48.8183 32.4514 53.5583C32.2514 53.3383 32.0614 53.1283 31.8714 52.9083C31.7514 52.9683 31.6214 52.9983 31.5014 52.9983C31.2914 52.9983 31.0914 52.9183 30.9014 52.7683C30.1114 51.8483 29.3714 50.8183 28.7114 49.6783C28.3714 49.0583 28.0214 48.4683 27.6314 47.9083C27.5314 47.7683 27.3814 47.5883 27.2714 47.4583C26.9514 47.0483 26.5514 46.8183 26.1414 46.7883C26.1114 46.7883 26.0814 46.7883 26.0514 46.7883C25.5814 46.7883 25.1414 47.1183 24.8414 47.6883C24.2914 48.8983 24.4714 50.5683 25.2414 51.4183L25.2714 51.4483C25.3714 51.5883 25.5114 51.7683 25.6114 51.8683C26.0414 52.3183 26.5014 52.7283 26.9614 53.0983C27.8214 53.8583 28.6314 54.7483 29.3814 55.7483C29.5814 56.1783 29.6914 56.6883 29.7114 57.2083L30.2314 57.9383C27.3514 64.6583 26.1614 72.7983 26.9014 80.7983L26.2214 81.1083C26.0414 81.5483 25.8014 81.9283 25.5114 82.2083C24.5614 82.6083 23.5814 82.8583 22.5914 82.9583C22.0714 82.9783 21.5414 83.0383 21.0314 83.1583C20.9014 83.1983 20.7314 83.2683 20.6014 83.3083H20.5814L20.5614 83.3283C19.6614 83.5083 19.0314 84.7883 19.1514 86.1783C19.2614 87.4583 19.9614 88.3883 20.7614 88.3883C20.8314 88.3883 20.9114 88.3883 20.9814 88.3683C21.0814 88.3483 21.1814 88.3183 21.2814 88.2683H21.3114L21.3414 88.2383C21.4714 88.1983 21.6414 88.1383 21.7614 88.0983C22.2614 87.8483 22.7414 87.5583 23.2214 87.2283C24.1414 86.6483 25.0914 86.2183 26.0614 85.9283C26.4014 85.9583 26.7214 86.1383 27.0014 86.4383L27.7114 86.2483C29.3014 93.9083 32.6414 100.398 37.1014 104.488L36.8014 105.598C36.9414 106.038 36.9914 106.548 36.9414 107.028C36.5414 108.468 36.0414 109.858 35.4614 111.148C35.1514 111.798 34.8514 112.468 34.5914 113.178C34.5314 113.368 34.4514 113.658 34.3814 113.858C33.9214 115.058 34.1714 116.618 34.9414 117.348C35.2014 117.588 35.4914 117.708 35.7814 117.708C36.3314 117.708 36.8814 117.268 37.1814 116.478C37.2314 116.338 37.2814 116.178 37.3114 116.028C37.3714 115.818 37.4614 115.558 37.5114 115.368C37.7014 114.608 37.8514 113.838 37.9814 113.048C38.2614 111.448 38.6914 109.918 39.2414 108.498C39.4414 108.218 39.6814 108.028 39.9414 107.968L40.3114 106.938C42.7414 108.388 45.3114 109.118 47.8714 109.118C50.4314 109.118 52.9314 108.408 55.3414 106.988C55.4414 107.278 55.6414 107.828 55.6914 107.968C56.0314 108.048 56.3214 108.328 56.5214 108.748C56.9814 110.108 57.3514 111.538 57.6414 113.008C57.7714 113.798 57.9314 114.578 58.1114 115.328C58.1614 115.518 58.2514 115.778 58.3114 115.978C58.5514 117.028 59.1814 117.678 59.8514 117.678C60.0314 117.678 60.2214 117.628 60.4014 117.528C61.2514 117.048 61.7014 115.598 61.3914 114.268C61.3614 114.118 61.3114 113.958 61.2614 113.818C61.2014 113.618 61.1114 113.328 61.0514 113.138C60.7814 112.438 60.4914 111.768 60.1814 111.118C59.6214 109.848 59.1314 108.498 58.7314 107.098C58.6514 106.598 58.6914 106.058 58.8614 105.608C58.7614 105.278 58.6614 104.938 58.5914 104.578C63.0614 100.458 66.4114 93.9183 67.9814 86.1983C68.1914 86.2483 68.5614 86.3483 68.6814 86.3983C68.9114 86.0583 69.2214 85.8683 69.5414 85.8683C69.5514 85.8683 69.5714 85.8683 69.5814 85.8683C70.5514 86.1583 71.5014 86.5883 72.4214 87.1683C72.8914 87.5083 73.3914 87.7983 73.8814 88.0483C74.0014 88.0983 74.1614 88.1383 74.3014 88.1883H74.3314L74.3514 88.2083C74.5214 88.2983 74.6914 88.3383 74.8614 88.3383C75.5514 88.3383 76.1914 87.6583 76.4114 86.5883C76.6914 85.2483 76.2214 83.8183 75.3614 83.3783C75.2714 83.3283 75.1714 83.2983 75.0614 83.2683C74.9214 83.2283 74.7214 83.1283 74.5914 83.0983C74.0814 82.9883 73.5514 82.9183 73.0314 82.8983C72.0514 82.7983 71.0714 82.5483 70.1114 82.1483C69.8114 81.8983 69.5714 81.5083 69.4114 81.0483L68.7514 80.7483C69.4614 72.7583 68.2514 64.6483 65.3614 57.9383C65.5314 57.7083 65.8514 57.2583 65.9414 57.1383C65.9214 56.6183 66.0314 56.1083 66.2514 55.6983C67.0014 54.6983 67.8114 53.8083 68.6714 53.0483C69.1414 52.6783 69.5914 52.2783 70.0214 51.8283C70.1214 51.6983 70.2714 51.5083 70.3814 51.3783C71.1414 50.6183 71.3714 49.0483 70.8814 47.8583C70.5714 47.0983 70.0414 46.6783 69.5014 46.6783C69.2014 46.6783 68.9014 46.8083 68.6214 47.0783C68.5214 47.1783 68.4314 47.2883 68.3514 47.4183C68.2314 47.5483 68.0814 47.7283 67.9914 47.8583C67.6114 48.4183 67.2514 49.0083 66.9114 49.6283C66.2414 50.7683 65.5114 51.8083 64.7214 52.7283C64.5014 52.8683 64.2714 52.9283 64.0414 52.9283C63.9414 52.9283 63.8314 52.9183 63.7314 52.8883L63.1114 53.5783C59.5414 47.7583 54.7414 44.1383 49.5914 43.4083C49.5714 43.0783 49.5614 42.4583 49.5514 42.2783C49.2714 41.9783 49.0814 41.5183 49.0214 41.0083C48.9914 39.4683 49.0514 37.9283 49.2114 36.4083C49.3114 35.6183 49.3914 34.8183 49.4314 34.0083C49.4314 33.7983 49.4314 33.5083 49.4314 33.2883C49.5214 31.8883 48.8614 30.6383 47.9714 30.4983C47.9114 30.4983 47.8614 30.4883 47.8014 30.4883" fill="white"/>
</g>
</g>
<defs>
<clipPath id="clip0_215_31525">
<rect width="277.35" height="148.22" fill="white"/>
</clipPath>
</defs>
</svg>
