<svg width="74" height="83" viewBox="0 0 74 83" fill="none" xmlns="http://www.w3.org/2000/svg">
<path d="M4.16012 18.3418L33.094 1.49786C35.3816 0.167381 38.2108 0.167381 40.5037 1.49786L69.4376 18.3418C71.7041 19.6617 73.0977 22.086 73.0977 24.7049V57.9773C73.0977 60.5962 71.7041 63.0205 69.4376 64.3405L40.5037 81.1844C38.2161 82.5149 35.3868 82.5149 33.094 81.1844L4.16012 64.3405C1.89358 63.0205 0.5 60.5962 0.5 57.9773V24.7049C0.5 22.086 1.89358 19.6617 4.16012 18.3418Z" fill="#F7F7F5" fill-opacity="0.59" stroke="#8FB4F5" stroke-miterlimit="10"/>
<path d="M8.667 21.5167L33.6042 7.00239C35.5763 5.85597 38.0163 5.85597 39.9884 7.00239L64.9256 21.5167C66.8766 22.6526 68.0809 24.7403 68.0809 27.0016V55.6778C68.0809 57.9391 66.8819 60.0268 64.9256 61.1627L39.9884 75.677C38.0163 76.8234 35.5763 76.8234 33.6042 75.677L8.667 61.1627C6.71598 60.0268 5.51172 57.9391 5.51172 55.6778V27.0016C5.51172 24.7403 6.71072 22.6526 8.667 21.5167Z" fill="url(#paint0_linear_109_1816)"/>
<g filter="url(#filter0_d_109_1816)">
<path d="M28.2975 35.9242H40.6579V33.1774C40.6579 32.0329 40.2573 31.0601 39.4562 30.259C38.655 29.4579 37.6822 29.0573 36.5378 29.0573C35.3933 29.0573 34.4205 29.4579 33.6193 30.259C32.8182 31.0601 32.4176 32.0329 32.4176 33.1774H29.6709C29.6709 31.2776 30.3406 29.6584 31.6801 28.3198C33.0196 26.9812 34.6388 26.3115 36.5378 26.3105C38.4367 26.3096 40.0563 26.9794 41.3968 28.3198C42.7372 29.6602 43.4065 31.2794 43.4046 33.1774V35.9242H44.778C45.5334 35.9242 46.1802 36.1933 46.7186 36.7317C47.2569 37.2701 47.5257 37.9165 47.5247 38.6709V52.4046C47.5247 53.16 47.256 53.8068 46.7186 54.3452C46.1811 54.8836 45.5343 55.1523 44.778 55.1514H28.2975C27.5422 55.1514 26.8958 54.8826 26.3583 54.3452C25.8209 53.8078 25.5517 53.1609 25.5508 52.4046V38.6709C25.5508 37.9155 25.82 37.2691 26.3583 36.7317C26.8967 36.1943 27.5431 35.9251 28.2975 35.9242ZM36.5378 48.2845C37.2931 48.2845 37.94 48.0158 38.4783 47.4783C39.0167 46.9409 39.2854 46.294 39.2845 45.5378C39.2836 44.7815 39.0149 44.1351 38.4783 43.5986C37.9418 43.062 37.2949 42.7928 36.5378 42.791C35.7806 42.7892 35.1342 43.0584 34.5986 43.5986C34.0629 44.1388 33.7938 44.7852 33.791 45.5378C33.7883 46.2904 34.0575 46.9372 34.5986 47.4783C35.1397 48.0194 35.7861 48.2882 36.5378 48.2845Z" fill="white"/>
</g>
<defs>
<filter id="filter0_d_109_1816" x="17.5508" y="24.3105" width="37.9727" height="44.8418" filterUnits="userSpaceOnUse" color-interpolation-filters="sRGB">
<feFlood flood-opacity="0" result="BackgroundImageFix"/>
<feColorMatrix in="SourceAlpha" type="matrix" values="0 0 0 0 0 0 0 0 0 0 0 0 0 0 0 0 0 0 127 0" result="hardAlpha"/>
<feOffset dy="6"/>
<feGaussianBlur stdDeviation="4"/>
<feComposite in2="hardAlpha" operator="out"/>
<feColorMatrix type="matrix" values="0 0 0 0 0.118632 0 0 0 0 0.372589 0 0 0 0 0.812782 0 0 0 0.4 0"/>
<feBlend mode="normal" in2="BackgroundImageFix" result="effect1_dropShadow_109_1816"/>
<feBlend mode="normal" in="SourceGraphic" in2="effect1_dropShadow_109_1816" result="shape"/>
</filter>
<linearGradient id="paint0_linear_109_1816" x1="36.7963" y1="76.5368" x2="36.7963" y2="6.14258" gradientUnits="userSpaceOnUse">
<stop stop-color="#2D7AFF"/>
<stop offset="1" stop-color="#A6C7FF"/>
</linearGradient>
</defs>
</svg>
