<svg width="74" height="83" viewBox="0 0 74 83" fill="none" xmlns="http://www.w3.org/2000/svg">
<path d="M4.16012 18.3418L33.094 1.49786C35.3816 0.167381 38.2108 0.167381 40.5037 1.49786L69.4376 18.3418C71.7041 19.6617 73.0977 22.086 73.0977 24.7049V57.9773C73.0977 60.5962 71.7041 63.0205 69.4376 64.3405L40.5037 81.1844C38.2161 82.5149 35.3868 82.5149 33.094 81.1844L4.16012 64.3405C1.89358 63.0205 0.5 60.5962 0.5 57.9773V24.7049C0.5 22.086 1.89358 19.6617 4.16012 18.3418Z" fill="#F7F7F5" fill-opacity="0.59" stroke="#8FB4F5" stroke-miterlimit="10"/>
<path d="M8.667 21.5186L33.6042 7.00434C35.5763 5.85793 38.0163 5.85793 39.9884 7.00434L64.9256 21.5186C66.8766 22.6545 68.0809 24.7423 68.0809 27.0035V55.6798C68.0809 57.941 66.8819 60.0288 64.9256 61.1647L39.9884 75.679C38.0163 76.8254 35.5763 76.8254 33.6042 75.679L8.667 61.1647C6.71598 60.0288 5.51172 57.941 5.51172 55.6798V27.0035C5.51172 24.7423 6.71072 22.6545 8.667 21.5186Z" fill="url(#paint0_linear_207_31399)"/>
<g filter="url(#filter0_d_207_31399)">
<path d="M27.8951 54V50.5928L36.9344 41.7314C37.7989 40.8585 38.5194 40.0829 39.0957 39.4049C39.6721 38.7268 40.1043 38.07 40.3925 37.4343C40.6807 36.7986 40.8248 36.1205 40.8248 35.4001C40.8248 34.578 40.6383 33.8745 40.2654 33.2897C39.8924 32.6964 39.3797 32.2387 38.727 31.9166C38.0744 31.5945 37.3328 31.4335 36.5022 31.4335C35.6461 31.4335 34.896 31.6115 34.2519 31.9675C33.6077 32.315 33.1076 32.8108 32.7517 33.4549C32.4042 34.0991 32.2304 34.8661 32.2304 35.7561H27.7425C27.7425 34.1033 28.1197 32.6667 28.874 31.4462C29.6284 30.2257 30.6667 29.2807 31.9889 28.6111C33.3195 27.9415 34.8452 27.6067 36.5657 27.6067C38.3117 27.6067 39.8458 27.933 41.168 28.5857C42.4902 29.2383 43.5158 30.1325 44.2447 31.2682C44.9821 32.404 45.3508 33.7007 45.3508 35.1586C45.3508 36.1333 45.1643 37.091 44.7914 38.0318C44.4184 38.9726 43.7616 40.0151 42.8208 41.1593C41.8885 42.3036 40.579 43.6893 38.8923 45.3167L34.4044 49.8808V50.0588H45.7449V54H27.8951Z" fill="white"/>
</g>
<defs>
<filter id="filter0_d_207_31399" x="19.7422" y="25.6055" width="34.0039" height="42.3945" filterUnits="userSpaceOnUse" color-interpolation-filters="sRGB">
<feFlood flood-opacity="0" result="BackgroundImageFix"/>
<feColorMatrix in="SourceAlpha" type="matrix" values="0 0 0 0 0 0 0 0 0 0 0 0 0 0 0 0 0 0 127 0" result="hardAlpha"/>
<feOffset dy="6"/>
<feGaussianBlur stdDeviation="4"/>
<feComposite in2="hardAlpha" operator="out"/>
<feColorMatrix type="matrix" values="0 0 0 0 0.118632 0 0 0 0 0.372589 0 0 0 0 0.812782 0 0 0 0.4 0"/>
<feBlend mode="normal" in2="BackgroundImageFix" result="effect1_dropShadow_207_31399"/>
<feBlend mode="normal" in="SourceGraphic" in2="effect1_dropShadow_207_31399" result="shape"/>
</filter>
<linearGradient id="paint0_linear_207_31399" x1="36.7963" y1="76.5388" x2="36.7963" y2="6.14453" gradientUnits="userSpaceOnUse">
<stop stop-color="#2D7AFF"/>
<stop offset="1" stop-color="#A6C7FF"/>
</linearGradient>
</defs>
</svg>
