<svg width="74" height="83" viewBox="0 0 74 83" fill="none" xmlns="http://www.w3.org/2000/svg">
<path d="M4.16012 18.3418L33.094 1.49786C35.3816 0.167381 38.2108 0.167381 40.5037 1.49786L69.4376 18.3418C71.7041 19.6617 73.0977 22.086 73.0977 24.7049V57.9773C73.0977 60.5962 71.7041 63.0205 69.4376 64.3405L40.5037 81.1844C38.2161 82.5149 35.3868 82.5149 33.094 81.1844L4.16012 64.3405C1.89358 63.0205 0.5 60.5962 0.5 57.9773V24.7049C0.5 22.086 1.89358 19.6617 4.16012 18.3418Z" fill="#F7F7F5" fill-opacity="0.59" stroke="#8FB4F5" stroke-miterlimit="10"/>
<path d="M8.667 21.5186L33.6042 7.00434C35.5763 5.85793 38.0163 5.85793 39.9884 7.00434L64.9256 21.5186C66.8766 22.6545 68.0809 24.7423 68.0809 27.0035V55.6798C68.0809 57.941 66.8819 60.0288 64.9256 61.1647L39.9884 75.679C38.0163 76.8254 35.5763 76.8254 33.6042 75.679L8.667 61.1647C6.71598 60.0288 5.51172 57.941 5.51172 55.6798V27.0035C5.51172 24.7423 6.71072 22.6545 8.667 21.5186Z" fill="url(#paint0_linear_207_31404)"/>
<g filter="url(#filter0_d_207_31404)">
<path d="M36.1976 54.356C34.3669 54.356 32.7396 54.0424 31.3156 53.4152C29.9002 52.788 28.7814 51.915 27.9593 50.7962C27.1371 49.6774 26.7006 48.3849 26.6498 46.9186H31.4301C31.4724 47.622 31.7055 48.2365 32.1293 48.762C32.5531 49.279 33.1167 49.6816 33.8202 49.9698C34.5237 50.258 35.3119 50.4021 36.1849 50.4021C37.1172 50.4021 37.9436 50.241 38.6641 49.919C39.3845 49.5884 39.9481 49.1307 40.355 48.5459C40.7618 47.9611 40.961 47.2873 40.9525 46.5244C40.961 45.7362 40.7575 45.0412 40.3422 44.4394C39.9269 43.8377 39.3252 43.3673 38.5369 43.0282C37.7572 42.6892 36.8164 42.5197 35.7145 42.5197H33.4134V38.8836H35.7145C36.6214 38.8836 37.4139 38.7268 38.0919 38.4132C38.7785 38.0996 39.3167 37.6589 39.7066 37.091C40.0964 36.5147 40.2871 35.8493 40.2787 35.095C40.2871 34.3576 40.1219 33.7177 39.7828 33.1752C39.4523 32.6243 38.9819 32.1963 38.3716 31.8912C37.7699 31.5861 37.0622 31.4335 36.2485 31.4335C35.4518 31.4335 34.7144 31.5776 34.0363 31.8658C33.3583 32.1539 32.8116 32.565 32.3963 33.099C31.981 33.6245 31.7606 34.2517 31.7352 34.9806H27.1965C27.2304 33.5227 27.6499 32.2429 28.4551 31.1411C29.2688 30.0308 30.3536 29.1662 31.7098 28.5475C33.0659 27.9203 34.5873 27.6067 36.2739 27.6067C38.0114 27.6067 39.5201 27.933 40.7999 28.5857C42.0882 29.2298 43.0841 30.0986 43.7876 31.1919C44.4911 32.2853 44.8428 33.4931 44.8428 34.8153C44.8513 36.2816 44.419 37.5106 43.546 38.5022C42.6815 39.4939 41.5458 40.1423 40.1388 40.4474V40.6508C41.9696 40.9051 43.3723 41.5831 44.347 42.685C45.3302 43.7783 45.8175 45.1387 45.8091 46.766C45.8091 48.2238 45.3937 49.5291 44.5631 50.6818C43.741 51.826 42.6052 52.7244 41.1559 53.377C39.715 54.0297 38.0623 54.356 36.1976 54.356Z" fill="white"/>
</g>
<defs>
<filter id="filter0_d_207_31404" x="18.6484" y="25.6055" width="35.1719" height="42.75" filterUnits="userSpaceOnUse" color-interpolation-filters="sRGB">
<feFlood flood-opacity="0" result="BackgroundImageFix"/>
<feColorMatrix in="SourceAlpha" type="matrix" values="0 0 0 0 0 0 0 0 0 0 0 0 0 0 0 0 0 0 127 0" result="hardAlpha"/>
<feOffset dy="6"/>
<feGaussianBlur stdDeviation="4"/>
<feComposite in2="hardAlpha" operator="out"/>
<feColorMatrix type="matrix" values="0 0 0 0 0.118632 0 0 0 0 0.372589 0 0 0 0 0.812782 0 0 0 0.4 0"/>
<feBlend mode="normal" in2="BackgroundImageFix" result="effect1_dropShadow_207_31404"/>
<feBlend mode="normal" in="SourceGraphic" in2="effect1_dropShadow_207_31404" result="shape"/>
</filter>
<linearGradient id="paint0_linear_207_31404" x1="36.7963" y1="76.5388" x2="36.7963" y2="6.14453" gradientUnits="userSpaceOnUse">
<stop stop-color="#2D7AFF"/>
<stop offset="1" stop-color="#A6C7FF"/>
</linearGradient>
</defs>
</svg>
