<svg width="639" height="507" viewBox="0 0 639 507" fill="none" xmlns="http://www.w3.org/2000/svg">
<g clip-path="url(#clip0_165_19904)">
<rect width="639" height="507" rx="17.8015" fill="#A2C4FF"/>
<rect x="-175" y="-5.64062" width="965.259" height="594.006" fill="url(#paint0_linear_165_19904)"/>
<g filter="url(#filter0_d_165_19904)">
<rect x="148" y="40" width="451" height="325" rx="9.75" fill="white"/>
<rect x="148.379" y="40.3789" width="450.242" height="324.242" rx="9.37107" stroke="#E9EAEB" stroke-width="0.757863"/>
<path d="M173.409 77H169.219V64.6364H173.494C174.721 64.6364 175.776 64.8839 176.657 65.3789C177.542 65.8699 178.223 66.5762 178.697 67.4979C179.172 68.4195 179.41 69.5223 179.41 70.8061C179.41 72.094 179.17 73.2008 178.691 74.1264C178.217 75.0521 177.53 75.7624 176.633 76.2575C175.739 76.7525 174.665 77 173.409 77ZM171.459 75.0621H173.3C174.162 75.0621 174.88 74.9052 175.456 74.5913C176.031 74.2733 176.464 73.8004 176.754 73.1726C177.043 72.5407 177.188 71.7519 177.188 70.8061C177.188 69.8603 177.043 69.0755 176.754 68.4517C176.464 67.8239 176.035 67.355 175.468 67.0451C174.904 66.7312 174.204 66.5742 173.367 66.5742H171.459V75.0621ZM185.546 77.1811C184.617 77.1811 183.814 76.9879 183.138 76.6016C182.465 76.2112 181.948 75.6598 181.586 74.9474C181.224 74.2311 181.043 73.3879 181.043 72.418C181.043 71.4641 181.224 70.627 181.586 69.9066C181.952 69.1822 182.463 68.6187 183.119 68.2163C183.776 67.8098 184.546 67.6065 185.432 67.6065C186.003 67.6065 186.542 67.6991 187.05 67.8842C187.561 68.0653 188.011 68.3471 188.402 68.7294C188.796 69.1117 189.106 69.5987 189.331 70.1903C189.557 70.7779 189.67 71.4782 189.67 72.2912V72.9613H182.069V71.4883H187.575C187.571 71.0697 187.48 70.6974 187.303 70.3714C187.126 70.0414 186.878 69.7818 186.561 69.5927C186.247 69.4035 185.88 69.3089 185.462 69.3089C185.015 69.3089 184.623 69.4176 184.285 69.6349C183.947 69.8482 183.683 70.13 183.494 70.4801C183.309 70.8262 183.214 71.2066 183.21 71.6211V72.907C183.21 73.4463 183.309 73.9091 183.506 74.2955C183.703 74.6778 183.979 74.9716 184.333 75.1768C184.687 75.3781 185.102 75.4787 185.577 75.4787C185.894 75.4787 186.182 75.4344 186.44 75.3459C186.697 75.2533 186.921 75.1185 187.11 74.9414C187.299 74.7643 187.442 74.545 187.539 74.2834L189.579 74.5128C189.45 75.0521 189.205 75.523 188.843 75.9254C188.484 76.3239 188.026 76.6338 187.466 76.8551C186.907 77.0724 186.267 77.1811 185.546 77.1811ZM191.518 80.4773V67.7273H193.668V69.2607H193.794C193.907 69.0353 194.066 68.7958 194.271 68.5423C194.476 68.2847 194.754 68.0653 195.104 67.8842C195.454 67.6991 195.901 67.6065 196.445 67.6065C197.161 67.6065 197.807 67.7897 198.382 68.1559C198.962 68.5181 199.421 69.0554 199.759 69.7678C200.101 70.4761 200.272 71.3454 200.272 72.3757C200.272 73.3939 200.105 74.2592 199.771 74.9716C199.437 75.6839 198.982 76.2273 198.407 76.6016C197.831 76.9759 197.179 77.163 196.451 77.163C195.919 77.163 195.479 77.0745 195.128 76.8974C194.778 76.7203 194.497 76.507 194.283 76.2575C194.074 76.0039 193.911 75.7644 193.794 75.5391H193.704V80.4773H191.518ZM193.661 72.3636C193.661 72.9633 193.746 73.4885 193.915 73.9393C194.088 74.39 194.336 74.7422 194.658 74.9957C194.984 75.2453 195.378 75.37 195.841 75.37C196.324 75.37 196.728 75.2412 197.054 74.9837C197.38 74.7221 197.626 74.3659 197.791 73.9151C197.96 73.4603 198.044 72.9432 198.044 72.3636C198.044 71.7881 197.962 71.277 197.797 70.8303C197.632 70.3835 197.386 70.0334 197.06 69.7798C196.734 69.5263 196.328 69.3995 195.841 69.3995C195.374 69.3995 194.978 69.5223 194.652 69.7678C194.326 70.0133 194.078 70.3574 193.909 70.8001C193.744 71.2428 193.661 71.764 193.661 72.3636ZM204.329 64.6364V77H202.143V64.6364H204.329ZM210.621 77.1811C209.715 77.1811 208.93 76.9819 208.266 76.5835C207.602 76.185 207.087 75.6276 206.721 74.9112C206.359 74.1948 206.178 73.3577 206.178 72.3999C206.178 71.442 206.359 70.6029 206.721 69.8825C207.087 69.162 207.602 68.6026 208.266 68.2042C208.93 67.8058 209.715 67.6065 210.621 67.6065C211.526 67.6065 212.311 67.8058 212.975 68.2042C213.639 68.6026 214.152 69.162 214.515 69.8825C214.881 70.6029 215.064 71.442 215.064 72.3999C215.064 73.3577 214.881 74.1948 214.515 74.9112C214.152 75.6276 213.639 76.185 212.975 76.5835C212.311 76.9819 211.526 77.1811 210.621 77.1811ZM210.633 75.4304C211.124 75.4304 211.534 75.2956 211.864 75.0259C212.194 74.7522 212.44 74.386 212.601 73.9272C212.766 73.4684 212.848 72.9573 212.848 72.3938C212.848 71.8263 212.766 71.3132 212.601 70.8544C212.44 70.3916 212.194 70.0233 211.864 69.7496C211.534 69.476 211.124 69.3391 210.633 69.3391C210.13 69.3391 209.711 69.476 209.377 69.7496C209.047 70.0233 208.8 70.3916 208.635 70.8544C208.474 71.3132 208.393 71.8263 208.393 72.3938C208.393 72.9573 208.474 73.4684 208.635 73.9272C208.8 74.386 209.047 74.7522 209.377 75.0259C209.711 75.2956 210.13 75.4304 210.633 75.4304ZM217.962 80.4773C217.664 80.4773 217.388 80.4531 217.135 80.4048C216.885 80.3606 216.686 80.3082 216.537 80.2479L217.044 78.5455C217.362 78.638 217.646 78.6823 217.895 78.6783C218.145 78.6742 218.364 78.5958 218.553 78.4428C218.746 78.2939 218.909 78.0444 219.042 77.6942L219.229 77.1932L215.867 67.7273H218.185L220.322 74.7301H220.419L222.562 67.7273H224.886L221.173 78.1229C221 78.6139 220.771 79.0344 220.485 79.3846C220.199 79.7388 219.849 80.0084 219.435 80.1935C219.024 80.3827 218.533 80.4773 217.962 80.4773ZM226.398 77V67.7273H228.487V69.3029H228.596C228.789 68.7717 229.109 68.3571 229.556 68.0593C230.002 67.7575 230.536 67.6065 231.155 67.6065C231.783 67.6065 232.312 67.7595 232.743 68.0653C233.178 68.3672 233.484 68.7797 233.661 69.3029H233.757C233.963 68.7878 234.309 68.3772 234.796 68.0714C235.287 67.7615 235.868 67.6065 236.54 67.6065C237.394 67.6065 238.09 67.8762 238.629 68.4155C239.168 68.9548 239.438 69.7416 239.438 70.7759V77H237.247V71.114C237.247 70.5385 237.094 70.1179 236.788 69.8523C236.482 69.5826 236.108 69.4478 235.665 69.4478C235.138 69.4478 234.725 69.6128 234.427 69.9428C234.134 70.2688 233.987 70.6934 233.987 71.2166V77H231.844V71.0234C231.844 70.5445 231.699 70.1622 231.409 69.8764C231.123 69.5907 230.749 69.4478 230.286 69.4478C229.972 69.4478 229.686 69.5283 229.429 69.6893C229.171 69.8462 228.966 70.0696 228.813 70.3594C228.66 70.6451 228.584 70.9792 228.584 71.3615V77H226.398ZM245.76 77.1811C244.831 77.1811 244.028 76.9879 243.351 76.6016C242.679 76.2112 242.162 75.6598 241.8 74.9474C241.438 74.2311 241.257 73.3879 241.257 72.418C241.257 71.4641 241.438 70.627 241.8 69.9066C242.166 69.1822 242.677 68.6187 243.333 68.2163C243.989 67.8098 244.76 67.6065 245.646 67.6065C246.217 67.6065 246.756 67.6991 247.263 67.8842C247.775 68.0653 248.225 68.3471 248.616 68.7294C249.01 69.1117 249.32 69.5987 249.545 70.1903C249.771 70.7779 249.883 71.4782 249.883 72.2912V72.9613H242.283V71.4883H247.789C247.785 71.0697 247.694 70.6974 247.517 70.3714C247.34 70.0414 247.092 69.7818 246.774 69.5927C246.46 69.4035 246.094 69.3089 245.676 69.3089C245.229 69.3089 244.837 69.4176 244.498 69.6349C244.16 69.8482 243.897 70.13 243.708 70.4801C243.523 70.8262 243.428 71.2066 243.424 71.6211V72.907C243.424 73.4463 243.523 73.9091 243.72 74.2955C243.917 74.6778 244.193 74.9716 244.547 75.1768C244.901 75.3781 245.315 75.4787 245.79 75.4787C246.108 75.4787 246.396 75.4344 246.654 75.3459C246.911 75.2533 247.135 75.1185 247.324 74.9414C247.513 74.7643 247.656 74.545 247.752 74.2834L249.793 74.5128C249.664 75.0521 249.419 75.523 249.056 75.9254C248.698 76.3239 248.239 76.6338 247.68 76.8551C247.121 77.0724 246.481 77.1811 245.76 77.1811ZM253.918 71.5668V77H251.732V67.7273H253.821V69.3029H253.93C254.143 68.7837 254.483 68.3712 254.95 68.0653C255.421 67.7595 256.002 67.6065 256.695 67.6065C257.335 67.6065 257.892 67.7434 258.367 68.017C258.846 68.2907 259.216 68.6871 259.478 69.2063C259.743 69.7255 259.874 70.3554 259.87 71.0959V77H257.685V71.4339C257.685 70.8142 257.524 70.3292 257.202 69.979C256.884 69.6289 256.443 69.4538 255.88 69.4538C255.497 69.4538 255.157 69.5384 254.859 69.7074C254.566 69.8724 254.334 70.1119 254.165 70.4258C254 70.7397 253.918 71.12 253.918 71.5668ZM266.722 67.7273V69.4176H261.391V67.7273H266.722ZM262.707 65.5057H264.893V74.2109C264.893 74.5047 264.937 74.7301 265.026 74.8871C265.118 75.04 265.239 75.1446 265.388 75.201C265.537 75.2573 265.702 75.2855 265.883 75.2855C266.02 75.2855 266.144 75.2754 266.257 75.2553C266.374 75.2352 266.462 75.2171 266.523 75.201L266.891 76.9094C266.774 76.9497 266.607 76.994 266.39 77.0423C266.177 77.0906 265.915 77.1187 265.605 77.1268C265.058 77.1429 264.565 77.0604 264.126 76.8793C263.687 76.6941 263.339 76.4084 263.082 76.022C262.828 75.6357 262.703 75.1527 262.707 74.5732V65.5057ZM275.746 70.1783L273.753 70.3956C273.697 70.1944 273.599 70.0052 273.458 69.8281C273.321 69.651 273.136 69.5082 272.902 69.3995C272.669 69.2908 272.383 69.2365 272.045 69.2365C271.59 69.2365 271.208 69.3351 270.898 69.5323C270.592 69.7295 270.441 69.9851 270.445 70.299C270.441 70.5687 270.54 70.788 270.741 70.957C270.946 71.1261 271.284 71.2649 271.755 71.3736L273.337 71.7116C274.214 71.9008 274.866 72.2006 275.293 72.6112C275.724 73.0217 275.941 73.5589 275.945 74.223C275.941 74.8066 275.77 75.3217 275.432 75.7685C275.098 76.2112 274.633 76.5573 274.037 76.8068C273.442 77.0563 272.757 77.1811 271.985 77.1811C270.85 77.1811 269.936 76.9437 269.244 76.4688C268.552 75.9898 268.139 75.3237 268.006 74.4705L270.137 74.2653C270.234 74.6838 270.439 74.9998 270.753 75.2131C271.067 75.4264 271.476 75.533 271.979 75.533C272.498 75.533 272.914 75.4264 273.228 75.2131C273.546 74.9998 273.705 74.7362 273.705 74.4222C273.705 74.1566 273.603 73.9373 273.397 73.7642C273.196 73.5911 272.882 73.4583 272.456 73.3658L270.874 73.0337C269.984 72.8486 269.326 72.5367 268.9 72.098C268.473 71.6553 268.262 71.0959 268.266 70.4197C268.262 69.8482 268.417 69.3532 268.731 68.9347C269.049 68.5121 269.489 68.1861 270.053 67.9567C270.62 67.7232 271.274 67.6065 272.015 67.6065C273.101 67.6065 273.957 67.8379 274.581 68.3008C275.208 68.7636 275.597 69.3894 275.746 70.1783ZM282.507 70.8182C282.507 69.3089 282.706 67.9225 283.105 66.6587C283.507 65.391 284.105 64.2198 284.898 63.1452H286.956C286.65 63.5437 286.365 64.0327 286.099 64.6122C285.833 65.1877 285.602 65.8196 285.405 66.5078C285.212 67.192 285.059 67.9023 284.946 68.6388C284.837 69.3754 284.783 70.1018 284.783 70.8182C284.783 71.772 284.878 72.7379 285.067 73.7159C285.26 74.6939 285.519 75.6014 285.845 76.4386C286.175 77.2717 286.546 77.9538 286.956 78.4851H284.898C284.105 77.4105 283.507 76.2414 283.105 74.9776C282.706 73.7099 282.507 72.3234 282.507 70.8182ZM288.751 77V64.6364H290.99V75.1225H296.436V77H288.751ZM300.951 77.1871C300.364 77.1871 299.835 77.0825 299.364 76.8732C298.897 76.6599 298.527 76.346 298.253 75.9315C297.983 75.5169 297.848 75.0058 297.848 74.3981C297.848 73.8749 297.945 73.4422 298.138 73.1001C298.331 72.758 298.595 72.4844 298.929 72.2791C299.263 72.0739 299.639 71.9189 300.058 71.8143C300.48 71.7056 300.917 71.6271 301.368 71.5788C301.911 71.5225 302.352 71.4722 302.69 71.4279C303.028 71.3796 303.274 71.3072 303.426 71.2106C303.583 71.11 303.662 70.955 303.662 70.7457V70.7095C303.662 70.2547 303.527 69.9026 303.257 69.6531C302.988 69.4035 302.599 69.2788 302.092 69.2788C301.557 69.2788 301.132 69.3955 300.819 69.6289C300.509 69.8623 300.299 70.138 300.191 70.456L298.15 70.1662C298.311 69.6027 298.577 69.1319 298.947 68.7536C299.317 68.3712 299.77 68.0855 300.305 67.8963C300.841 67.7031 301.432 67.6065 302.08 67.6065C302.527 67.6065 302.972 67.6589 303.414 67.7635C303.857 67.8681 304.262 68.0412 304.628 68.2827C304.994 68.5201 305.288 68.8441 305.509 69.2546C305.735 69.6651 305.847 70.1783 305.847 70.794V77H303.746V75.7262H303.674C303.541 75.9838 303.354 76.2253 303.113 76.4506C302.875 76.672 302.575 76.8511 302.213 76.9879C301.855 77.1207 301.434 77.1871 300.951 77.1871ZM301.519 75.5813C301.958 75.5813 302.338 75.4948 302.66 75.3217C302.982 75.1446 303.229 74.9112 303.402 74.6214C303.579 74.3317 303.668 74.0157 303.668 73.6737V72.581C303.6 72.6373 303.483 72.6896 303.318 72.7379C303.157 72.7862 302.976 72.8285 302.775 72.8647C302.573 72.9009 302.374 72.9331 302.177 72.9613C301.98 72.9895 301.809 73.0136 301.664 73.0337C301.338 73.078 301.046 73.1504 300.788 73.2511C300.531 73.3517 300.328 73.4925 300.179 73.6737C300.03 73.8507 299.955 74.0801 299.955 74.3619C299.955 74.7643 300.102 75.0682 300.396 75.2734C300.69 75.4787 301.064 75.5813 301.519 75.5813ZM315.374 70.1783L313.381 70.3956C313.325 70.1944 313.226 70.0052 313.086 69.8281C312.949 69.651 312.764 69.5082 312.53 69.3995C312.297 69.2908 312.011 69.2365 311.673 69.2365C311.218 69.2365 310.836 69.3351 310.526 69.5323C310.22 69.7295 310.069 69.9851 310.073 70.299C310.069 70.5687 310.168 70.788 310.369 70.957C310.574 71.1261 310.912 71.2649 311.383 71.3736L312.965 71.7116C313.842 71.9008 314.494 72.2006 314.921 72.6112C315.351 73.0217 315.569 73.5589 315.573 74.223C315.569 74.8066 315.398 75.3217 315.06 75.7685C314.726 76.2112 314.261 76.5573 313.665 76.8068C313.069 77.0563 312.385 77.1811 311.613 77.1811C310.478 77.1811 309.564 76.9437 308.872 76.4688C308.18 75.9898 307.767 75.3237 307.634 74.4705L309.765 74.2653C309.862 74.6838 310.067 74.9998 310.381 75.2131C310.695 75.4264 311.103 75.533 311.607 75.533C312.126 75.533 312.542 75.4264 312.856 75.2131C313.174 74.9998 313.333 74.7362 313.333 74.4222C313.333 74.1566 313.23 73.9373 313.025 73.7642C312.824 73.5911 312.51 73.4583 312.083 73.3658L310.502 73.0337C309.612 72.8486 308.954 72.5367 308.528 72.098C308.101 71.6553 307.89 71.0959 307.894 70.4197C307.89 69.8482 308.045 69.3532 308.359 68.9347C308.677 68.5121 309.117 68.1861 309.681 67.9567C310.248 67.7232 310.902 67.6065 311.643 67.6065C312.729 67.6065 313.585 67.8379 314.208 68.3008C314.836 68.7636 315.225 69.3894 315.374 70.1783ZM322.005 67.7273V69.4176H316.675V67.7273H322.005ZM317.991 65.5057H320.176V74.2109C320.176 74.5047 320.22 74.7301 320.309 74.8871C320.401 75.04 320.522 75.1446 320.671 75.201C320.82 75.2573 320.985 75.2855 321.166 75.2855C321.303 75.2855 321.428 75.2754 321.54 75.2553C321.657 75.2352 321.746 75.2171 321.806 75.201L322.174 76.9094C322.057 76.9497 321.89 76.994 321.673 77.0423C321.46 77.0906 321.198 77.1187 320.888 77.1268C320.341 77.1429 319.848 77.0604 319.409 76.8793C318.971 76.6941 318.622 76.4084 318.365 76.022C318.111 75.6357 317.987 75.1527 317.991 74.5732V65.5057ZM333.054 64.6364V77H330.815V66.8157H330.742L327.85 68.663V66.6104L330.923 64.6364H333.054ZM335.97 74.706V72.9251L341.216 64.6364H342.701V67.1719H341.796L338.264 72.7681V72.8647H345.587V74.706H335.97ZM341.868 77V74.1626L341.892 73.3658V64.6364H344.005V77H341.868ZM356.043 77H351.853V64.6364H356.127C357.355 64.6364 358.409 64.8839 359.291 65.3789C360.176 65.8699 360.856 66.5762 361.331 67.4979C361.806 68.4195 362.044 69.5223 362.044 70.8061C362.044 72.094 361.804 73.2008 361.325 74.1264C360.85 75.0521 360.164 75.7624 359.267 76.2575C358.373 76.7525 357.299 77 356.043 77ZM354.093 75.0621H355.934C356.795 75.0621 357.514 74.9052 358.089 74.5913C358.665 74.2733 359.098 73.8004 359.387 73.1726C359.677 72.5407 359.822 71.7519 359.822 70.8061C359.822 69.8603 359.677 69.0755 359.387 68.4517C359.098 67.8239 358.669 67.355 358.101 67.0451C357.538 66.7312 356.838 66.5742 356.001 66.5742H354.093V75.0621ZM366.743 77.1871C366.156 77.1871 365.627 77.0825 365.156 76.8732C364.689 76.6599 364.319 76.346 364.045 75.9315C363.775 75.5169 363.64 75.0058 363.64 74.3981C363.64 73.8749 363.737 73.4422 363.93 73.1001C364.123 72.758 364.387 72.4844 364.721 72.2791C365.055 72.0739 365.431 71.9189 365.85 71.8143C366.272 71.7056 366.709 71.6271 367.16 71.5788C367.703 71.5225 368.144 71.4722 368.482 71.4279C368.82 71.3796 369.066 71.3072 369.218 71.2106C369.375 71.11 369.454 70.955 369.454 70.7457V70.7095C369.454 70.2547 369.319 69.9026 369.049 69.6531C368.78 69.4035 368.391 69.2788 367.884 69.2788C367.349 69.2788 366.924 69.3955 366.611 69.6289C366.301 69.8623 366.091 70.138 365.983 70.456L363.942 70.1662C364.103 69.6027 364.369 69.1319 364.739 68.7536C365.109 68.3712 365.562 68.0855 366.097 67.8963C366.633 67.7031 367.224 67.6065 367.872 67.6065C368.319 67.6065 368.764 67.6589 369.206 67.7635C369.649 67.8681 370.054 68.0412 370.42 68.2827C370.786 68.5201 371.08 68.8441 371.301 69.2546C371.527 69.6651 371.639 70.1783 371.639 70.794V77H369.538V75.7262H369.466C369.333 75.9838 369.146 76.2253 368.905 76.4506C368.667 76.672 368.367 76.8511 368.005 76.9879C367.647 77.1207 367.226 77.1871 366.743 77.1871ZM367.311 75.5813C367.749 75.5813 368.13 75.4948 368.452 75.3217C368.774 75.1446 369.021 74.9112 369.194 74.6214C369.371 74.3317 369.46 74.0157 369.46 73.6737V72.581C369.392 72.6373 369.275 72.6896 369.11 72.7379C368.949 72.7862 368.768 72.8285 368.566 72.8647C368.365 72.9009 368.166 72.9331 367.969 72.9613C367.772 72.9895 367.601 73.0136 367.456 73.0337C367.13 73.078 366.838 73.1504 366.58 73.2511C366.323 73.3517 366.12 73.4925 365.971 73.6737C365.822 73.8507 365.747 74.0801 365.747 74.3619C365.747 74.7643 365.894 75.0682 366.188 75.2734C366.482 75.4787 366.856 75.5813 367.311 75.5813ZM374.863 80.4773C374.565 80.4773 374.29 80.4531 374.036 80.4048C373.786 80.3606 373.587 80.3082 373.438 80.2479L373.945 78.5455C374.263 78.638 374.547 78.6823 374.797 78.6783C375.046 78.6742 375.265 78.5958 375.455 78.4428C375.648 78.2939 375.811 78.0444 375.944 77.6942L376.131 77.1932L372.768 67.7273H375.086L377.223 74.7301H377.32L379.463 67.7273H381.787L378.075 78.1229C377.902 78.6139 377.672 79.0344 377.386 79.3846C377.101 79.7388 376.751 80.0084 376.336 80.1935C375.926 80.3827 375.435 80.4773 374.863 80.4773ZM390.628 70.1783L388.636 70.3956C388.58 70.1944 388.481 70.0052 388.34 69.8281C388.204 69.651 388.018 69.5082 387.785 69.3995C387.552 69.2908 387.266 69.2365 386.928 69.2365C386.473 69.2365 386.091 69.3351 385.781 69.5323C385.475 69.7295 385.324 69.9851 385.328 70.299C385.324 70.5687 385.423 70.788 385.624 70.957C385.829 71.1261 386.167 71.2649 386.638 71.3736L388.22 71.7116C389.097 71.9008 389.749 72.2006 390.176 72.6112C390.606 73.0217 390.824 73.5589 390.828 74.223C390.824 74.8066 390.653 75.3217 390.315 75.7685C389.98 76.2112 389.516 76.5573 388.92 76.8068C388.324 77.0563 387.64 77.1811 386.867 77.1811C385.733 77.1811 384.819 76.9437 384.127 76.4688C383.434 75.9898 383.022 75.3237 382.889 74.4705L385.02 74.2653C385.117 74.6838 385.322 74.9998 385.636 75.2131C385.95 75.4264 386.358 75.533 386.861 75.533C387.381 75.533 387.797 75.4264 388.111 75.2131C388.429 74.9998 388.588 74.7362 388.588 74.4222C388.588 74.1566 388.485 73.9373 388.28 73.7642C388.079 73.5911 387.765 73.4583 387.338 73.3658L385.757 73.0337C384.867 72.8486 384.209 72.5367 383.783 72.098C383.356 71.6553 383.145 71.0959 383.149 70.4197C383.145 69.8482 383.3 69.3532 383.614 68.9347C383.931 68.5121 384.372 68.1861 384.936 67.9567C385.503 67.7232 386.157 67.6065 386.898 67.6065C387.984 67.6065 388.84 67.8379 389.463 68.3008C390.091 68.7636 390.48 69.3894 390.628 70.1783ZM396.53 71.9592C396.53 73.4644 396.328 74.8509 395.926 76.1186C395.527 77.3823 394.932 78.5515 394.139 79.6261H392.08C392.39 79.2276 392.676 78.7406 392.938 78.1651C393.203 77.5896 393.433 76.9577 393.626 76.2695C393.823 75.5813 393.976 74.869 394.085 74.1325C394.197 73.396 394.254 72.6715 394.254 71.9592C394.254 71.0053 394.157 70.0394 393.964 69.0614C393.775 68.0835 393.515 67.1759 393.185 66.3388C392.859 65.5017 392.491 64.8175 392.08 64.2862H394.139C394.932 65.3608 395.527 66.532 395.926 67.7997C396.328 69.0634 396.53 70.4499 396.53 71.9592Z" fill="#181D27"/>
<path d="M168 110.645V335.344H578.11" stroke="#E9EAEB"/>
<path d="M168 111V335.699" stroke="#E9EAEB"/>
<path d="M219.25 111V335.699" stroke="#E9EAEB"/>
<path d="M270.5 111V335.699" stroke="#E9EAEB"/>
<path d="M321.75 111V335.699" stroke="#E9EAEB"/>
<path d="M373 111V335.699" stroke="#E9EAEB"/>
<path d="M424.25 111V335.699" stroke="#E9EAEB"/>
<path d="M475.5 111V335.699" stroke="#E9EAEB"/>
<path d="M526.75 111V335.699" stroke="#E9EAEB"/>
<path d="M578 111V335.699" stroke="#E9EAEB"/>
<path d="M234.905 293.151L178.355 331.41H578.109V129.367L531.309 156.865L468.909 239.354L435.758 183.165L390.908 210.661L348.008 268.046L312.908 239.354L234.905 293.151Z" fill="url(#paint1_linear_165_19904)"/>
<path d="M178.355 331.41L234.905 293.151L312.908 239.354L348.008 268.046L390.908 210.661L435.758 183.165L468.909 239.354L531.309 156.865L578.109 129.367" stroke="#2D7AFF" stroke-width="3"/>
</g>
<g filter="url(#filter1_d_165_19904)">
<rect x="40" y="172" width="307" height="295" rx="9.75141" fill="white"/>
<g clip-path="url(#clip1_165_19904)">
<path d="M198.179 244.02V351.334L191.034 346.144L115 290.905L111.358 288.26L114.005 284.619C133.164 258.26 161.091 244.02 193.679 244.02H198.179Z" fill="#AAC9FF" stroke="white" stroke-width="9" stroke-miterlimit="10"/>
<path d="M120.291 283.621L196.325 338.859L201.336 342.5L196.325 346.141L120.291 401.379L116.649 404.024L114.005 400.383C88.4568 365.209 88.4568 319.78 114.006 284.616L116.65 280.977L120.291 283.621Z" fill="#8ECFE3" stroke="white" stroke-width="9" stroke-miterlimit="10"/>
<path d="M197.319 339.855L252.558 415.89L255.202 419.53L251.562 422.175C207.564 454.138 145.969 444.393 114.004 400.383L111.359 396.742L115 394.098L191.034 338.859L194.675 336.215L197.319 339.855Z" fill="#FFDD94" stroke="white" stroke-width="9" stroke-miterlimit="10"/>
<path d="M193.68 244.02C248.075 244.02 292.163 288.108 292.163 342.503C292.163 375.089 277.923 403.029 251.562 422.178L247.922 424.822L245.277 421.182L190.039 345.147L189.18 343.965V244.02H193.68Z" fill="#2D7AFF" stroke="white" stroke-width="9" stroke-miterlimit="10"/>
</g>
<circle cx="193.5" cy="342.5" r="65.3047" fill="white"/>
<path d="M67.9386 200.035C67.8822 199.508 67.6448 199.097 67.2262 198.804C66.8117 198.51 66.2724 198.363 65.6083 198.363C65.1415 198.363 64.741 198.433 64.407 198.574C64.0729 198.715 63.8174 198.906 63.6403 199.148C63.4632 199.389 63.3726 199.665 63.3686 199.975C63.3686 200.232 63.427 200.456 63.5437 200.645C63.6644 200.834 63.8274 200.995 64.0327 201.128C64.2379 201.257 64.4653 201.365 64.7148 201.454C64.9644 201.542 65.2159 201.617 65.4695 201.677L66.6286 201.967C67.0954 202.076 67.5442 202.223 67.9748 202.408C68.4094 202.593 68.7978 202.826 69.1399 203.108C69.486 203.39 69.7597 203.73 69.9609 204.128C70.1622 204.527 70.2628 204.993 70.2628 205.529C70.2628 206.253 70.0777 206.891 69.7074 207.442C69.3371 207.99 68.8018 208.418 68.1016 208.728C67.4053 209.034 66.5621 209.187 65.5721 209.187C64.6102 209.187 63.7751 209.038 63.0668 208.74C62.3625 208.443 61.8111 208.008 61.4126 207.436C61.0182 206.865 60.8049 206.169 60.7727 205.348H62.9762C63.0084 205.778 63.1412 206.136 63.3746 206.422C63.6081 206.708 63.9119 206.921 64.2862 207.062C64.6645 207.203 65.0871 207.273 65.554 207.273C66.041 207.273 66.4676 207.201 66.8338 207.056C67.2041 206.907 67.4938 206.702 67.7031 206.44C67.9124 206.175 68.0191 205.865 68.0231 205.511C68.0191 205.189 67.9245 204.923 67.7393 204.714C67.5542 204.5 67.2946 204.323 66.9606 204.183C66.6306 204.038 66.2442 203.909 65.8015 203.796L64.3949 203.434C63.3767 203.172 62.5717 202.776 61.9801 202.245C61.3925 201.709 61.0987 200.999 61.0987 200.114C61.0987 199.385 61.2959 198.747 61.6903 198.2C62.0888 197.653 62.6301 197.228 63.3143 196.926C63.9985 196.62 64.7732 196.467 65.6385 196.467C66.5159 196.467 67.2846 196.62 67.9446 196.926C68.6087 197.228 69.1299 197.649 69.5082 198.188C69.8865 198.723 70.0817 199.339 70.0938 200.035H67.9386ZM76.268 209.181C75.3383 209.181 74.5354 208.988 73.8593 208.602C73.1872 208.211 72.67 207.66 72.3078 206.947C71.9456 206.231 71.7645 205.388 71.7645 204.418C71.7645 203.464 71.9456 202.627 72.3078 201.907C72.674 201.182 73.1852 200.619 73.8412 200.216C74.4972 199.81 75.2679 199.607 76.1533 199.607C76.7248 199.607 77.2641 199.699 77.7712 199.884C78.2823 200.065 78.7331 200.347 79.1235 200.729C79.5179 201.112 79.8278 201.599 80.0532 202.19C80.2786 202.778 80.3912 203.478 80.3912 204.291V204.961H72.7907V203.488H78.2964C78.2924 203.07 78.2019 202.697 78.0248 202.371C77.8477 202.041 77.6002 201.782 77.2822 201.593C76.9683 201.404 76.6021 201.309 76.1835 201.309C75.7368 201.309 75.3444 201.418 75.0063 201.635C74.6682 201.848 74.4046 202.13 74.2155 202.48C74.0303 202.826 73.9358 203.207 73.9317 203.621V204.907C73.9317 205.446 74.0303 205.909 74.2275 206.295C74.4247 206.678 74.7004 206.972 75.0546 207.177C75.4088 207.378 75.8233 207.479 76.2982 207.479C76.6162 207.479 76.9039 207.434 77.1615 207.346C77.4191 207.253 77.6424 207.118 77.8316 206.941C78.0207 206.764 78.1636 206.545 78.2602 206.283L80.3007 206.513C80.1719 207.052 79.9264 207.523 79.5642 207.925C79.206 208.324 78.7472 208.634 78.1878 208.855C77.6283 209.072 76.9884 209.181 76.268 209.181ZM82.2401 209V199.727H84.359V201.273H84.4556C84.6246 200.737 84.9144 200.325 85.3249 200.035C85.7395 199.741 86.2124 199.594 86.7436 199.594C86.8643 199.594 86.9992 199.6 87.1481 199.613C87.301 199.621 87.4278 199.635 87.5284 199.655V201.665C87.4358 201.633 87.2889 201.605 87.0877 201.581C86.8905 201.552 86.6993 201.538 86.5142 201.538C86.1158 201.538 85.7576 201.625 85.4396 201.798C85.1257 201.967 84.8782 202.202 84.6971 202.504C84.516 202.806 84.4254 203.154 84.4254 203.549V209H82.2401ZM97.5452 199.727L94.243 209H91.8282L88.526 199.727H90.8563L92.9873 206.615H93.0839L95.221 199.727H97.5452ZM99.0574 209V199.727H101.243V209H99.0574ZM100.156 198.411C99.81 198.411 99.5122 198.297 99.2627 198.067C99.0132 197.834 98.8884 197.554 98.8884 197.228C98.8884 196.898 99.0132 196.618 99.2627 196.389C99.5122 196.155 99.81 196.039 100.156 196.039C100.506 196.039 100.804 196.155 101.05 196.389C101.299 196.618 101.424 196.898 101.424 197.228C101.424 197.554 101.299 197.834 101.05 198.067C100.804 198.297 100.506 198.411 100.156 198.411ZM107.535 209.181C106.609 209.181 105.814 208.978 105.15 208.571C104.49 208.165 103.981 207.603 103.623 206.887C103.269 206.167 103.092 205.338 103.092 204.4C103.092 203.458 103.273 202.627 103.635 201.907C103.997 201.182 104.508 200.619 105.168 200.216C105.832 199.81 106.617 199.607 107.523 199.607C108.275 199.607 108.941 199.745 109.521 200.023C110.105 200.297 110.569 200.685 110.915 201.188C111.262 201.687 111.459 202.271 111.507 202.939H109.418C109.334 202.492 109.133 202.12 108.815 201.822C108.501 201.52 108.08 201.369 107.553 201.369C107.106 201.369 106.714 201.49 106.376 201.732C106.038 201.969 105.774 202.311 105.585 202.758C105.4 203.205 105.307 203.74 105.307 204.364C105.307 204.996 105.4 205.539 105.585 205.994C105.77 206.444 106.03 206.792 106.364 207.038C106.702 207.279 107.098 207.4 107.553 207.4C107.875 207.4 108.163 207.34 108.416 207.219C108.674 207.094 108.889 206.915 109.062 206.682C109.235 206.448 109.354 206.165 109.418 205.831H111.507C111.455 206.487 111.262 207.068 110.928 207.575C110.594 208.078 110.139 208.473 109.563 208.759C108.988 209.04 108.312 209.181 107.535 209.181ZM117.407 209.181C116.477 209.181 115.674 208.988 114.998 208.602C114.326 208.211 113.809 207.66 113.446 206.947C113.084 206.231 112.903 205.388 112.903 204.418C112.903 203.464 113.084 202.627 113.446 201.907C113.813 201.182 114.324 200.619 114.98 200.216C115.636 199.81 116.407 199.607 117.292 199.607C117.863 199.607 118.403 199.699 118.91 199.884C119.421 200.065 119.872 200.347 120.262 200.729C120.657 201.112 120.966 201.599 121.192 202.19C121.417 202.778 121.53 203.478 121.53 204.291V204.961H113.929V203.488H119.435C119.431 203.07 119.341 202.697 119.163 202.371C118.986 202.041 118.739 201.782 118.421 201.593C118.107 201.404 117.741 201.309 117.322 201.309C116.875 201.309 116.483 201.418 116.145 201.635C115.807 201.848 115.543 202.13 115.354 202.48C115.169 202.826 115.074 203.207 115.07 203.621V204.907C115.07 205.446 115.169 205.909 115.366 206.295C115.563 206.678 115.839 206.972 116.193 207.177C116.547 207.378 116.962 207.479 117.437 207.479C117.755 207.479 118.043 207.434 118.3 207.346C118.558 207.253 118.781 207.118 118.97 206.941C119.159 206.764 119.302 206.545 119.399 206.283L121.439 206.513C121.311 207.052 121.065 207.523 120.703 207.925C120.345 208.324 119.886 208.634 119.326 208.855C118.767 209.072 118.127 209.181 117.407 209.181ZM127.149 198.514V196.636H137.013V198.514H133.192V209H130.97V198.514H127.149ZM139.114 212.477C138.816 212.477 138.54 212.453 138.287 212.405C138.037 212.361 137.838 212.308 137.689 212.248L138.196 210.545C138.514 210.638 138.798 210.682 139.048 210.678C139.297 210.674 139.516 210.596 139.706 210.443C139.899 210.294 140.062 210.044 140.195 209.694L140.382 209.193L137.019 199.727H139.337L141.474 206.73H141.571L143.714 199.727H146.038L142.326 210.123C142.153 210.614 141.923 211.034 141.637 211.385C141.352 211.739 141.002 212.008 140.587 212.194C140.176 212.383 139.685 212.477 139.114 212.477ZM147.551 212.477V199.727H149.7V201.261H149.827C149.939 201.035 150.098 200.796 150.303 200.542C150.509 200.285 150.786 200.065 151.137 199.884C151.487 199.699 151.933 199.607 152.477 199.607C153.193 199.607 153.839 199.79 154.415 200.156C154.994 200.518 155.453 201.055 155.791 201.768C156.133 202.476 156.304 203.345 156.304 204.376C156.304 205.394 156.137 206.259 155.803 206.972C155.469 207.684 155.014 208.227 154.439 208.602C153.863 208.976 153.211 209.163 152.483 209.163C151.952 209.163 151.511 209.074 151.161 208.897C150.811 208.72 150.529 208.507 150.316 208.257C150.106 208.004 149.943 207.764 149.827 207.539H149.736V212.477H147.551ZM149.694 204.364C149.694 204.963 149.778 205.489 149.947 205.939C150.12 206.39 150.368 206.742 150.69 206.996C151.016 207.245 151.41 207.37 151.873 207.37C152.356 207.37 152.76 207.241 153.086 206.984C153.412 206.722 153.658 206.366 153.823 205.915C153.992 205.46 154.077 204.943 154.077 204.364C154.077 203.788 153.994 203.277 153.829 202.83C153.664 202.384 153.419 202.033 153.093 201.78C152.767 201.526 152.36 201.4 151.873 201.4C151.406 201.4 151.01 201.522 150.684 201.768C150.358 202.013 150.11 202.357 149.941 202.8C149.776 203.243 149.694 203.764 149.694 204.364ZM162.281 209.181C161.351 209.181 160.548 208.988 159.872 208.602C159.2 208.211 158.683 207.66 158.32 206.947C157.958 206.231 157.777 205.388 157.777 204.418C157.777 203.464 157.958 202.627 158.32 201.907C158.687 201.182 159.198 200.619 159.854 200.216C160.51 199.81 161.281 199.607 162.166 199.607C162.738 199.607 163.277 199.699 163.784 199.884C164.295 200.065 164.746 200.347 165.136 200.729C165.531 201.112 165.84 201.599 166.066 202.19C166.291 202.778 166.404 203.478 166.404 204.291V204.961H158.803V203.488H164.309C164.305 203.07 164.215 202.697 164.037 202.371C163.86 202.041 163.613 201.782 163.295 201.593C162.981 201.404 162.615 201.309 162.196 201.309C161.749 201.309 161.357 201.418 161.019 201.635C160.681 201.848 160.417 202.13 160.228 202.48C160.043 202.826 159.948 203.207 159.944 203.621V204.907C159.944 205.446 160.043 205.909 160.24 206.295C160.437 206.678 160.713 206.972 161.067 207.177C161.421 207.378 161.836 207.479 162.311 207.479C162.629 207.479 162.917 207.434 163.174 207.346C163.432 207.253 163.655 207.118 163.844 206.941C164.033 206.764 164.176 206.545 164.273 206.283L166.313 206.513C166.185 207.052 165.939 207.523 165.577 207.925C165.219 208.324 164.76 208.634 164.2 208.855C163.641 209.072 163.001 209.181 162.281 209.181ZM175.582 202.178L173.589 202.396C173.533 202.194 173.434 202.005 173.294 201.828C173.157 201.651 172.972 201.508 172.738 201.4C172.505 201.291 172.219 201.237 171.881 201.237C171.426 201.237 171.044 201.335 170.734 201.532C170.428 201.73 170.277 201.985 170.281 202.299C170.277 202.569 170.376 202.788 170.577 202.957C170.782 203.126 171.12 203.265 171.591 203.374L173.173 203.712C174.05 203.901 174.702 204.201 175.129 204.611C175.559 205.022 175.777 205.559 175.781 206.223C175.777 206.807 175.606 207.322 175.268 207.768C174.934 208.211 174.469 208.557 173.873 208.807C173.277 209.056 172.593 209.181 171.821 209.181C170.686 209.181 169.772 208.944 169.08 208.469C168.388 207.99 167.975 207.324 167.842 206.471L169.973 206.265C170.07 206.684 170.275 207 170.589 207.213C170.903 207.426 171.311 207.533 171.815 207.533C172.334 207.533 172.75 207.426 173.064 207.213C173.382 207 173.541 206.736 173.541 206.422C173.541 206.157 173.438 205.937 173.233 205.764C173.032 205.591 172.718 205.458 172.291 205.366L170.71 205.034C169.82 204.849 169.162 204.537 168.736 204.098C168.309 203.655 168.098 203.096 168.102 202.42C168.098 201.848 168.253 201.353 168.567 200.935C168.885 200.512 169.325 200.186 169.889 199.957C170.456 199.723 171.11 199.607 171.851 199.607C172.937 199.607 173.793 199.838 174.416 200.301C175.044 200.764 175.433 201.389 175.582 202.178ZM181.896 209V196.636H186.629C187.523 196.636 188.265 196.777 188.857 197.059C189.452 197.337 189.897 197.717 190.191 198.2C190.489 198.683 190.638 199.23 190.638 199.842C190.638 200.345 190.541 200.776 190.348 201.134C190.155 201.488 189.895 201.776 189.569 201.997C189.243 202.219 188.879 202.377 188.476 202.474V202.595C188.915 202.619 189.336 202.754 189.738 202.999C190.145 203.241 190.477 203.583 190.734 204.026C190.992 204.468 191.121 205.004 191.121 205.631C191.121 206.271 190.966 206.847 190.656 207.358C190.346 207.865 189.879 208.266 189.255 208.559C188.631 208.853 187.847 209 186.901 209H181.896ZM184.136 207.129H186.545C187.358 207.129 187.943 206.974 188.301 206.664C188.664 206.35 188.845 205.947 188.845 205.456C188.845 205.09 188.754 204.76 188.573 204.466C188.392 204.168 188.134 203.935 187.8 203.766C187.466 203.593 187.068 203.506 186.605 203.506H184.136V207.129ZM184.136 201.895H186.351C186.738 201.895 187.086 201.824 187.396 201.683C187.706 201.538 187.949 201.335 188.126 201.074C188.307 200.808 188.398 200.494 188.398 200.132C188.398 199.653 188.229 199.258 187.891 198.949C187.557 198.639 187.06 198.484 186.4 198.484H184.136V201.895ZM192.972 209V199.727H195.091V201.273H195.188C195.357 200.737 195.647 200.325 196.057 200.035C196.472 199.741 196.945 199.594 197.476 199.594C197.597 199.594 197.732 199.6 197.881 199.613C198.033 199.621 198.16 199.635 198.261 199.655V201.665C198.168 201.633 198.021 201.605 197.82 201.581C197.623 201.552 197.432 201.538 197.247 201.538C196.848 201.538 196.49 201.625 196.172 201.798C195.858 201.967 195.611 202.202 195.43 202.504C195.248 202.806 195.158 203.154 195.158 203.549V209H192.972ZM203.436 209.181C202.506 209.181 201.703 208.988 201.027 208.602C200.355 208.211 199.838 207.66 199.476 206.947C199.114 206.231 198.932 205.388 198.932 204.418C198.932 203.464 199.114 202.627 199.476 201.907C199.842 201.182 200.353 200.619 201.009 200.216C201.665 199.81 202.436 199.607 203.321 199.607C203.893 199.607 204.432 199.699 204.939 199.884C205.45 200.065 205.901 200.347 206.291 200.729C206.686 201.112 206.996 201.599 207.221 202.19C207.447 202.778 207.559 203.478 207.559 204.291V204.961H199.959V203.488H205.464C205.46 203.07 205.37 202.697 205.193 202.371C205.016 202.041 204.768 201.782 204.45 201.593C204.136 201.404 203.77 201.309 203.351 201.309C202.905 201.309 202.512 201.418 202.174 201.635C201.836 201.848 201.573 202.13 201.383 202.48C201.198 202.826 201.104 203.207 201.1 203.621V204.907C201.1 205.446 201.198 205.909 201.396 206.295C201.593 206.678 201.868 206.972 202.223 207.177C202.577 207.378 202.991 207.479 203.466 207.479C203.784 207.479 204.072 207.434 204.329 207.346C204.587 207.253 204.81 207.118 205 206.941C205.189 206.764 205.332 206.545 205.428 206.283L207.469 206.513C207.34 207.052 207.094 207.523 206.732 207.925C206.374 208.324 205.915 208.634 205.356 208.855C204.796 209.072 204.156 209.181 203.436 209.181ZM212.076 209.187C211.489 209.187 210.96 209.083 210.489 208.873C210.022 208.66 209.652 208.346 209.378 207.931C209.108 207.517 208.973 207.006 208.973 206.398C208.973 205.875 209.07 205.442 209.263 205.1C209.456 204.758 209.72 204.484 210.054 204.279C210.388 204.074 210.764 203.919 211.183 203.814C211.605 203.706 212.042 203.627 212.493 203.579C213.036 203.522 213.477 203.472 213.815 203.428C214.153 203.38 214.399 203.307 214.551 203.211C214.708 203.11 214.787 202.955 214.787 202.746V202.71C214.787 202.255 214.652 201.903 214.382 201.653C214.113 201.404 213.724 201.279 213.217 201.279C212.682 201.279 212.257 201.395 211.944 201.629C211.634 201.862 211.424 202.138 211.316 202.456L209.275 202.166C209.436 201.603 209.702 201.132 210.072 200.754C210.442 200.371 210.895 200.085 211.43 199.896C211.966 199.703 212.557 199.607 213.205 199.607C213.652 199.607 214.097 199.659 214.539 199.763C214.982 199.868 215.387 200.041 215.753 200.283C216.119 200.52 216.413 200.844 216.634 201.255C216.86 201.665 216.972 202.178 216.972 202.794V209H214.871V207.726H214.799C214.666 207.984 214.479 208.225 214.238 208.451C214 208.672 213.7 208.851 213.338 208.988C212.98 209.121 212.559 209.187 212.076 209.187ZM212.644 207.581C213.083 207.581 213.463 207.495 213.785 207.322C214.107 207.145 214.354 206.911 214.527 206.621C214.704 206.332 214.793 206.016 214.793 205.674V204.581C214.725 204.637 214.608 204.69 214.443 204.738C214.282 204.786 214.101 204.828 213.9 204.865C213.698 204.901 213.499 204.933 213.302 204.961C213.105 204.989 212.934 205.014 212.789 205.034C212.463 205.078 212.171 205.15 211.913 205.251C211.656 205.352 211.453 205.493 211.304 205.674C211.155 205.851 211.08 206.08 211.08 206.362C211.08 206.764 211.227 207.068 211.521 207.273C211.815 207.479 212.189 207.581 212.644 207.581ZM221.162 206.09L221.156 203.452H221.506L224.838 199.727H227.392L223.293 204.291H222.84L221.162 206.09ZM219.17 209V196.636H221.355V209H219.17ZM224.989 209L221.971 204.78L223.444 203.241L227.603 209H224.989ZM231.908 209.163C231.179 209.163 230.527 208.976 229.952 208.602C229.376 208.227 228.921 207.684 228.587 206.972C228.253 206.259 228.086 205.394 228.086 204.376C228.086 203.345 228.255 202.476 228.593 201.768C228.935 201.055 229.396 200.518 229.976 200.156C230.555 199.79 231.201 199.607 231.914 199.607C232.457 199.607 232.904 199.699 233.254 199.884C233.604 200.065 233.882 200.285 234.087 200.542C234.292 200.796 234.451 201.035 234.564 201.261H234.654V196.636H236.846V209H234.697V207.539H234.564C234.451 207.764 234.288 208.004 234.075 208.257C233.862 208.507 233.58 208.72 233.23 208.897C232.88 209.074 232.439 209.163 231.908 209.163ZM232.517 207.37C232.98 207.37 233.375 207.245 233.701 206.996C234.027 206.742 234.274 206.39 234.443 205.939C234.612 205.489 234.697 204.963 234.697 204.364C234.697 203.764 234.612 203.243 234.443 202.8C234.278 202.357 234.033 202.013 233.707 201.768C233.385 201.522 232.988 201.4 232.517 201.4C232.03 201.4 231.624 201.526 231.298 201.78C230.972 202.033 230.726 202.384 230.561 202.83C230.396 203.277 230.314 203.788 230.314 204.364C230.314 204.943 230.396 205.46 230.561 205.915C230.73 206.366 230.978 206.722 231.304 206.984C231.634 207.241 232.038 207.37 232.517 207.37ZM243.219 209.181C242.314 209.181 241.529 208.982 240.865 208.583C240.201 208.185 239.686 207.628 239.32 206.911C238.957 206.195 238.776 205.358 238.776 204.4C238.776 203.442 238.957 202.603 239.32 201.882C239.686 201.162 240.201 200.603 240.865 200.204C241.529 199.806 242.314 199.607 243.219 199.607C244.125 199.607 244.91 199.806 245.574 200.204C246.238 200.603 246.751 201.162 247.113 201.882C247.479 202.603 247.663 203.442 247.663 204.4C247.663 205.358 247.479 206.195 247.113 206.911C246.751 207.628 246.238 208.185 245.574 208.583C244.91 208.982 244.125 209.181 243.219 209.181ZM243.231 207.43C243.722 207.43 244.133 207.296 244.463 207.026C244.793 206.752 245.039 206.386 245.199 205.927C245.364 205.468 245.447 204.957 245.447 204.394C245.447 203.826 245.364 203.313 245.199 202.854C245.039 202.392 244.793 202.023 244.463 201.75C244.133 201.476 243.722 201.339 243.231 201.339C242.728 201.339 242.31 201.476 241.976 201.75C241.646 202.023 241.398 202.392 241.233 202.854C241.072 203.313 240.992 203.826 240.992 204.394C240.992 204.957 241.072 205.468 241.233 205.927C241.398 206.386 241.646 206.752 241.976 207.026C242.31 207.296 242.728 207.43 243.231 207.43ZM251.165 209L248.545 199.727H250.773L252.403 206.247H252.488L254.154 199.727H256.357L258.023 206.211H258.114L259.72 199.727H261.953L259.327 209H257.051L255.313 202.734H255.186L253.447 209H251.165ZM265.665 203.567V209H263.479V199.727H265.568V201.303H265.677C265.89 200.784 266.23 200.371 266.697 200.065C267.168 199.759 267.749 199.607 268.442 199.607C269.082 199.607 269.639 199.743 270.114 200.017C270.593 200.291 270.963 200.687 271.225 201.206C271.49 201.725 271.621 202.355 271.617 203.096V209H269.432V203.434C269.432 202.814 269.271 202.329 268.949 201.979C268.631 201.629 268.19 201.454 267.627 201.454C267.244 201.454 266.904 201.538 266.606 201.707C266.313 201.872 266.081 202.112 265.912 202.426C265.747 202.74 265.665 203.12 265.665 203.567Z" fill="#181D27"/>
<g filter="url(#filter2_d_165_19904)">
<path d="M275.648 343.083C275.117 341.161 277.175 339.557 278.91 340.541L304.058 354.802C305.792 355.785 305.472 358.374 303.551 358.905L293.061 361.807C292.573 361.942 292.147 362.242 291.856 362.655L291.837 362.68L291.822 362.708L287.195 370.586C286.194 372.291 283.636 371.955 283.108 370.05L275.648 343.083Z" fill="#153A7B" stroke="white" stroke-width="1.49197"/>
</g>
<g filter="url(#filter3_d_165_19904)">
<rect x="199.305" y="273" width="119" height="36" rx="9.75141" fill="#111111"/>
<path d="M209.766 287.839V286.556H216.503V287.839H213.893V295H212.376V287.839H209.766ZM217.938 297.375C217.735 297.375 217.546 297.358 217.373 297.325C217.203 297.295 217.067 297.259 216.965 297.218L217.311 296.055C217.528 296.119 217.722 296.149 217.893 296.146C218.063 296.143 218.213 296.09 218.342 295.985C218.474 295.884 218.585 295.713 218.676 295.474L218.804 295.132L216.507 288.667H218.091L219.55 293.45H219.616L221.08 288.667H222.667L220.131 295.767C220.013 296.102 219.856 296.389 219.661 296.629C219.466 296.87 219.227 297.055 218.944 297.181C218.664 297.31 218.328 297.375 217.938 297.375ZM223.7 297.375V288.667H225.167V289.714H225.254C225.331 289.561 225.44 289.397 225.58 289.224C225.72 289.048 225.91 288.898 226.149 288.774C226.388 288.648 226.693 288.585 227.064 288.585C227.553 288.585 227.994 288.71 228.387 288.96C228.783 289.207 229.097 289.574 229.327 290.061C229.561 290.545 229.678 291.138 229.678 291.842C229.678 292.537 229.564 293.128 229.336 293.615C229.108 294.101 228.797 294.472 228.404 294.728C228.011 294.984 227.566 295.111 227.068 295.111C226.705 295.111 226.404 295.051 226.165 294.93C225.926 294.809 225.734 294.663 225.588 294.493C225.445 294.32 225.334 294.156 225.254 294.002H225.192V297.375H223.7ZM225.163 291.834C225.163 292.243 225.221 292.602 225.336 292.91C225.455 293.218 225.624 293.458 225.844 293.631C226.066 293.802 226.336 293.887 226.652 293.887C226.981 293.887 227.258 293.799 227.48 293.623C227.703 293.444 227.871 293.201 227.983 292.893C228.099 292.583 228.157 292.229 228.157 291.834C228.157 291.441 228.1 291.092 227.987 290.786C227.875 290.481 227.707 290.242 227.484 290.069C227.262 289.896 226.984 289.809 226.652 289.809C226.333 289.809 226.062 289.893 225.839 290.061C225.617 290.228 225.448 290.463 225.332 290.766C225.22 291.068 225.163 291.424 225.163 291.834ZM233.759 295.124C233.125 295.124 232.576 294.992 232.114 294.728C231.655 294.461 231.302 294.085 231.055 293.598C230.808 293.109 230.684 292.533 230.684 291.871C230.684 291.219 230.808 290.648 231.055 290.156C231.305 289.661 231.654 289.276 232.102 289.001C232.55 288.724 233.076 288.585 233.681 288.585C234.071 288.585 234.44 288.648 234.786 288.774C235.135 288.898 235.443 289.091 235.71 289.352C235.979 289.613 236.191 289.945 236.345 290.349C236.498 290.751 236.575 291.229 236.575 291.784V292.242H231.385V291.236H235.145C235.142 290.95 235.08 290.696 234.959 290.473C234.838 290.248 234.669 290.07 234.452 289.941C234.238 289.812 233.988 289.747 233.702 289.747C233.397 289.747 233.129 289.822 232.898 289.97C232.667 290.116 232.487 290.308 232.358 290.547C232.231 290.784 232.167 291.043 232.164 291.327V292.205C232.164 292.573 232.231 292.889 232.366 293.153C232.501 293.414 232.689 293.615 232.931 293.755C233.173 293.892 233.456 293.961 233.78 293.961C233.997 293.961 234.194 293.931 234.37 293.87C234.546 293.807 234.698 293.715 234.827 293.594C234.956 293.473 235.054 293.323 235.12 293.145L236.514 293.301C236.426 293.67 236.258 293.991 236.011 294.266C235.766 294.538 235.453 294.75 235.071 294.901C234.689 295.049 234.251 295.124 233.759 295.124ZM242.493 288.878C242.454 288.517 242.292 288.237 242.006 288.036C241.723 287.836 241.355 287.736 240.901 287.736C240.582 287.736 240.309 287.784 240.081 287.88C239.853 287.976 239.678 288.107 239.557 288.271C239.436 288.436 239.374 288.625 239.372 288.836C239.372 289.012 239.412 289.165 239.491 289.294C239.574 289.423 239.685 289.533 239.825 289.624C239.965 289.712 240.121 289.786 240.291 289.846C240.462 289.907 240.633 289.958 240.807 289.999L241.598 290.197C241.917 290.271 242.223 290.371 242.517 290.498C242.814 290.624 243.08 290.784 243.313 290.976C243.55 291.168 243.736 291.401 243.874 291.673C244.011 291.945 244.08 292.264 244.08 292.629C244.08 293.124 243.954 293.56 243.701 293.936C243.448 294.31 243.082 294.603 242.604 294.814C242.129 295.023 241.553 295.128 240.877 295.128C240.22 295.128 239.649 295.026 239.166 294.823C238.685 294.619 238.308 294.322 238.036 293.932C237.767 293.542 237.621 293.066 237.599 292.506H239.104C239.126 292.8 239.216 293.044 239.376 293.24C239.535 293.435 239.743 293.58 239.998 293.677C240.257 293.773 240.545 293.821 240.864 293.821C241.197 293.821 241.488 293.771 241.738 293.672C241.991 293.571 242.189 293.431 242.332 293.252C242.475 293.07 242.548 292.859 242.55 292.617C242.548 292.397 242.483 292.216 242.357 292.073C242.23 291.927 242.053 291.806 241.825 291.71C241.599 291.611 241.336 291.523 241.033 291.446L240.073 291.199C239.377 291.02 238.828 290.749 238.423 290.387C238.022 290.021 237.822 289.536 237.822 288.931C237.822 288.434 237.956 287.998 238.226 287.624C238.498 287.25 238.867 286.96 239.335 286.754C239.802 286.545 240.331 286.441 240.922 286.441C241.521 286.441 242.046 286.545 242.497 286.754C242.95 286.96 243.306 287.248 243.565 287.616C243.823 287.982 243.956 288.402 243.965 288.878H242.493ZM248.14 295.124C247.508 295.124 246.965 294.985 246.512 294.707C246.061 294.43 245.713 294.046 245.468 293.557C245.227 293.065 245.106 292.499 245.106 291.858C245.106 291.215 245.229 290.648 245.477 290.156C245.724 289.661 246.073 289.276 246.524 289.001C246.977 288.724 247.513 288.585 248.132 288.585C248.646 288.585 249.101 288.68 249.496 288.869C249.895 289.056 250.212 289.321 250.449 289.665C250.685 290.006 250.82 290.404 250.853 290.861H249.426C249.369 290.556 249.231 290.301 249.014 290.098C248.8 289.892 248.512 289.789 248.152 289.789C247.847 289.789 247.579 289.871 247.348 290.036C247.118 290.198 246.938 290.432 246.808 290.737C246.682 291.042 246.619 291.408 246.619 291.834C246.619 292.265 246.682 292.636 246.808 292.947C246.935 293.255 247.112 293.492 247.34 293.66C247.571 293.825 247.842 293.907 248.152 293.907C248.372 293.907 248.569 293.866 248.742 293.784C248.918 293.699 249.065 293.576 249.183 293.417C249.301 293.257 249.382 293.064 249.426 292.835H250.853C250.817 293.284 250.685 293.681 250.457 294.027C250.229 294.371 249.918 294.64 249.525 294.835C249.132 295.027 248.671 295.124 248.14 295.124ZM252.078 295V288.667H253.526V289.723H253.592C253.707 289.357 253.905 289.075 254.185 288.878C254.468 288.677 254.791 288.577 255.154 288.577C255.237 288.577 255.329 288.581 255.43 288.589C255.535 288.594 255.621 288.604 255.69 288.618V289.991C255.627 289.969 255.527 289.949 255.389 289.933C255.254 289.914 255.124 289.904 254.997 289.904C254.725 289.904 254.481 289.963 254.264 290.081C254.049 290.197 253.88 290.358 253.756 290.564C253.633 290.77 253.571 291.008 253.571 291.277V295H252.078ZM256.682 295V288.667H258.174V295H256.682ZM257.432 287.768C257.196 287.768 256.992 287.69 256.822 287.533C256.651 287.374 256.566 287.183 256.566 286.96C256.566 286.735 256.651 286.544 256.822 286.387C256.992 286.228 257.196 286.148 257.432 286.148C257.671 286.148 257.874 286.228 258.042 286.387C258.213 286.544 258.298 286.735 258.298 286.96C258.298 287.183 258.213 287.374 258.042 287.533C257.874 287.69 257.671 287.768 257.432 287.768ZM259.709 297.375V288.667H261.177V289.714H261.263C261.34 289.561 261.449 289.397 261.589 289.224C261.729 289.048 261.919 288.898 262.158 288.774C262.397 288.648 262.702 288.585 263.073 288.585C263.562 288.585 264.003 288.71 264.397 288.96C264.792 289.207 265.106 289.574 265.337 290.061C265.57 290.545 265.687 291.138 265.687 291.842C265.687 292.537 265.573 293.128 265.345 293.615C265.117 294.101 264.806 294.472 264.413 294.728C264.02 294.984 263.575 295.111 263.077 295.111C262.714 295.111 262.413 295.051 262.174 294.93C261.935 294.809 261.743 294.663 261.597 294.493C261.454 294.32 261.343 294.156 261.263 294.002H261.201V297.375H259.709ZM261.172 291.834C261.172 292.243 261.23 292.602 261.346 292.91C261.464 293.218 261.633 293.458 261.853 293.631C262.075 293.802 262.345 293.887 262.661 293.887C262.991 293.887 263.267 293.799 263.489 293.623C263.712 293.444 263.88 293.201 263.992 292.893C264.108 292.583 264.166 292.229 264.166 291.834C264.166 291.441 264.109 291.092 263.997 290.786C263.884 290.481 263.716 290.242 263.494 290.069C263.271 289.896 262.993 289.809 262.661 289.809C262.342 289.809 262.071 289.893 261.849 290.061C261.626 290.228 261.457 290.463 261.341 290.766C261.229 291.068 261.172 291.424 261.172 291.834ZM270.127 288.667V289.822H266.487V288.667H270.127ZM267.386 287.15H268.878V293.095C268.878 293.296 268.908 293.45 268.969 293.557C269.032 293.661 269.114 293.733 269.216 293.771C269.318 293.81 269.431 293.829 269.554 293.829C269.648 293.829 269.733 293.822 269.81 293.808C269.89 293.795 269.95 293.782 269.991 293.771L270.243 294.938C270.163 294.966 270.049 294.996 269.901 295.029C269.755 295.062 269.576 295.081 269.365 295.087C268.991 295.098 268.654 295.041 268.354 294.918C268.055 294.791 267.817 294.596 267.641 294.332C267.468 294.068 267.383 293.738 267.386 293.343V287.15ZM279.293 290.164V291.392H273.488V290.164H279.293ZM282.771 293.433V292.217L286.354 286.556H287.368V288.288H286.75L284.338 292.11V292.176H289.339V293.433H282.771ZM286.799 295V293.062L286.816 292.518V286.556H288.259V295H286.799ZM293.777 295.161C293.098 295.161 292.516 294.989 292.029 294.645C291.545 294.299 291.173 293.8 290.912 293.149C290.653 292.495 290.524 291.707 290.524 290.786C290.527 289.866 290.657 289.082 290.916 288.436C291.177 287.788 291.549 287.293 292.033 286.952C292.52 286.611 293.101 286.441 293.777 286.441C294.453 286.441 295.035 286.611 295.521 286.952C296.008 287.293 296.38 287.788 296.638 288.436C296.9 289.085 297.03 289.868 297.03 290.786C297.03 291.71 296.9 292.499 296.638 293.153C296.38 293.804 296.008 294.302 295.521 294.645C295.037 294.989 294.456 295.161 293.777 295.161ZM293.777 293.87C294.305 293.87 294.721 293.611 295.026 293.091C295.334 292.569 295.488 291.801 295.488 290.786C295.488 290.116 295.418 289.552 295.278 289.096C295.138 288.64 294.94 288.296 294.684 288.065C294.429 287.832 294.126 287.715 293.777 287.715C293.252 287.715 292.837 287.976 292.532 288.498C292.227 289.018 292.073 289.78 292.07 290.786C292.068 291.46 292.135 292.026 292.272 292.485C292.412 292.944 292.61 293.29 292.866 293.524C293.122 293.755 293.425 293.87 293.777 293.87ZM302.914 293.417V292.972C302.914 292.644 302.983 292.343 303.121 292.069C303.261 291.794 303.464 291.573 303.731 291.405C303.997 291.237 304.32 291.153 304.7 291.153C305.09 291.153 305.417 291.237 305.681 291.405C305.945 291.57 306.144 291.79 306.279 292.065C306.416 292.339 306.485 292.642 306.485 292.972V293.417C306.485 293.744 306.416 294.045 306.279 294.32C306.141 294.595 305.939 294.816 305.673 294.984C305.409 295.151 305.084 295.235 304.7 295.235C304.315 295.235 303.989 295.151 303.723 294.984C303.456 294.816 303.254 294.595 303.116 294.32C302.982 294.045 302.914 293.744 302.914 293.417ZM303.991 292.972V293.417C303.991 293.634 304.043 293.833 304.147 294.015C304.252 294.196 304.436 294.287 304.7 294.287C304.966 294.287 305.149 294.197 305.248 294.019C305.35 293.837 305.401 293.637 305.401 293.417V292.972C305.401 292.752 305.352 292.551 305.256 292.37C305.16 292.185 304.974 292.093 304.7 292.093C304.441 292.093 304.258 292.185 304.151 292.37C304.044 292.551 303.991 292.752 303.991 292.972ZM298.623 288.585V288.14C298.623 287.81 298.693 287.507 298.833 287.233C298.973 286.958 299.176 286.738 299.443 286.573C299.71 286.405 300.033 286.321 300.412 286.321C300.799 286.321 301.125 286.405 301.389 286.573C301.656 286.738 301.856 286.958 301.991 287.233C302.126 287.507 302.193 287.81 302.193 288.14V288.585C302.193 288.915 302.124 289.217 301.987 289.492C301.852 289.764 301.651 289.982 301.385 290.147C301.118 290.312 300.794 290.395 300.412 290.395C300.024 290.395 299.697 290.312 299.431 290.147C299.167 289.982 298.966 289.763 298.829 289.488C298.691 289.213 298.623 288.912 298.623 288.585ZM299.707 288.14V288.585C299.707 288.805 299.758 289.005 299.859 289.187C299.964 289.365 300.148 289.455 300.412 289.455C300.676 289.455 300.857 289.365 300.956 289.187C301.058 289.005 301.109 288.805 301.109 288.585V288.14C301.109 287.92 301.061 287.719 300.964 287.538C300.868 287.353 300.684 287.261 300.412 287.261C300.151 287.261 299.968 287.353 299.864 287.538C299.759 287.722 299.707 287.922 299.707 288.14ZM299.093 295L304.898 286.556H305.928L300.123 295H299.093Z" fill="white"/>
</g>
</g>
</g>
<rect x="0.556298" y="0.556298" width="637.887" height="505.887" rx="17.2452" stroke="#E5E5E5" stroke-width="1.1126"/>
<defs>
<filter id="filter0_d_165_19904" x="146.484" y="39.2421" width="454.031" height="328.031" filterUnits="userSpaceOnUse" color-interpolation-filters="sRGB">
<feFlood flood-opacity="0" result="BackgroundImageFix"/>
<feColorMatrix in="SourceAlpha" type="matrix" values="0 0 0 0 0 0 0 0 0 0 0 0 0 0 0 0 0 0 127 0" result="hardAlpha"/>
<feOffset dy="0.757863"/>
<feGaussianBlur stdDeviation="0.757863"/>
<feColorMatrix type="matrix" values="0 0 0 0 0.0392157 0 0 0 0 0.0496732 0 0 0 0 0.0705882 0 0 0 0.05 0"/>
<feBlend mode="normal" in2="BackgroundImageFix" result="effect1_dropShadow_165_19904"/>
<feBlend mode="normal" in="SourceGraphic" in2="effect1_dropShadow_165_19904" result="shape"/>
</filter>
<filter id="filter1_d_165_19904" x="18.1" y="118.1" width="384.8" height="372.8" filterUnits="userSpaceOnUse" color-interpolation-filters="sRGB">
<feFlood flood-opacity="0" result="BackgroundImageFix"/>
<feColorMatrix in="SourceAlpha" type="matrix" values="0 0 0 0 0 0 0 0 0 0 0 0 0 0 0 0 0 0 127 0" result="hardAlpha"/>
<feOffset dx="17" dy="-15"/>
<feGaussianBlur stdDeviation="19.45"/>
<feComposite in2="hardAlpha" operator="out"/>
<feColorMatrix type="matrix" values="0 0 0 0 0 0 0 0 0 0.0901756 0 0 0 0 0.216421 0 0 0 0.09 0"/>
<feBlend mode="normal" in2="BackgroundImageFix" result="effect1_dropShadow_165_19904"/>
<feBlend mode="normal" in="SourceGraphic" in2="effect1_dropShadow_165_19904" result="shape"/>
</filter>
<filter id="filter2_d_165_19904" x="255.152" y="328.437" width="70.4494" height="72.2736" filterUnits="userSpaceOnUse" color-interpolation-filters="sRGB">
<feFlood flood-opacity="0" result="BackgroundImageFix"/>
<feColorMatrix in="SourceAlpha" type="matrix" values="0 0 0 0 0 0 0 0 0 0 0 0 0 0 0 0 0 0 127 0" result="hardAlpha"/>
<feOffset dy="8.60866"/>
<feGaussianBlur stdDeviation="9.83208"/>
<feColorMatrix type="matrix" values="0 0 0 0 0 0 0 0 0 0 0 0 0 0 0 0 0 0 0.22 0"/>
<feBlend mode="normal" in2="BackgroundImageFix" result="effect1_dropShadow_165_19904"/>
<feBlend mode="normal" in="SourceGraphic" in2="effect1_dropShadow_165_19904" result="shape"/>
</filter>
<filter id="filter3_d_165_19904" x="143.405" y="219.1" width="196.8" height="113.8" filterUnits="userSpaceOnUse" color-interpolation-filters="sRGB">
<feFlood flood-opacity="0" result="BackgroundImageFix"/>
<feColorMatrix in="SourceAlpha" type="matrix" values="0 0 0 0 0 0 0 0 0 0 0 0 0 0 0 0 0 0 127 0" result="hardAlpha"/>
<feOffset dx="-17" dy="-15"/>
<feGaussianBlur stdDeviation="19.45"/>
<feComposite in2="hardAlpha" operator="out"/>
<feColorMatrix type="matrix" values="0 0 0 0 0 0 0 0 0 0.0901756 0 0 0 0 0.216421 0 0 0 0.09 0"/>
<feBlend mode="normal" in2="BackgroundImageFix" result="effect1_dropShadow_165_19904"/>
<feBlend mode="normal" in="SourceGraphic" in2="effect1_dropShadow_165_19904" result="shape"/>
</filter>
<linearGradient id="paint0_linear_165_19904" x1="543.929" y1="98.7915" x2="543.929" y2="1079.47" gradientUnits="userSpaceOnUse">
<stop stop-color="#2D7BFF"/>
<stop offset="1" stop-color="white" stop-opacity="0"/>
</linearGradient>
<linearGradient id="paint1_linear_165_19904" x1="378.232" y1="162.529" x2="378.232" y2="477.204" gradientUnits="userSpaceOnUse">
<stop stop-color="#EFF5FF"/>
<stop offset="1" stop-color="white" stop-opacity="0"/>
</linearGradient>
<clipPath id="clip0_165_19904">
<rect width="639" height="507" rx="17.8015" fill="white"/>
</clipPath>
<clipPath id="clip1_165_19904">
<rect width="188.855" height="188.501" fill="white" transform="translate(99.0742 248.25)"/>
</clipPath>
</defs>
</svg>
