<svg width="74" height="83" viewBox="0 0 74 83" fill="none" xmlns="http://www.w3.org/2000/svg">
<path d="M4.16012 18.3418L33.094 1.49786C35.3816 0.167381 38.2108 0.167381 40.5037 1.49786L69.4376 18.3418C71.7041 19.6617 73.0977 22.086 73.0977 24.7049V57.9773C73.0977 60.5962 71.7041 63.0205 69.4376 64.3405L40.5037 81.1844C38.2161 82.5149 35.3868 82.5149 33.094 81.1844L4.16012 64.3405C1.89358 63.0205 0.5 60.5962 0.5 57.9773V24.7049C0.5 22.086 1.89358 19.6617 4.16012 18.3418Z" fill="#F7F7F5" fill-opacity="0.59" stroke="#8FB4F5" stroke-miterlimit="10"/>
<path d="M8.667 21.5167L33.6042 7.00239C35.5763 5.85597 38.0163 5.85597 39.9884 7.00239L64.9256 21.5167C66.8766 22.6526 68.0809 24.7403 68.0809 27.0016V55.6778C68.0809 57.9391 66.8819 60.0268 64.9256 61.1627L39.9884 75.677C38.0163 76.8234 35.5763 76.8234 33.6042 75.677L8.667 61.1627C6.71598 60.0268 5.51172 57.9391 5.51172 55.6778V27.0016C5.51172 24.7403 6.71072 22.6526 8.667 21.5167Z" fill="url(#paint0_linear_109_1795)"/>
<g filter="url(#filter0_d_109_1795)">
<path d="M30.222 25.844C32.4929 25.2265 34.9062 24.6719 36.3504 24.6719C37.7945 24.6719 40.2078 25.2265 42.4787 25.844C44.802 26.4719 47.144 27.2149 48.5213 27.6649C49.0971 27.855 49.6075 28.2038 49.9941 28.671C50.3806 29.1382 50.6275 29.705 50.7064 30.3063C51.9538 39.6767 49.0592 46.6214 45.5471 51.2155C44.0572 53.1803 42.2814 54.9109 40.2789 56.3497C39.5873 56.8488 38.8533 57.2865 38.0855 57.6578C37.4994 57.9341 36.8694 58.1602 36.3504 58.1602C35.8313 58.1602 35.2034 57.9341 34.6152 57.6578C33.8474 57.2865 33.1134 56.8488 32.4218 56.3497C30.4193 54.9109 28.6435 53.1803 27.1536 51.2155C23.6415 46.6214 20.7469 39.6767 21.9943 30.3063C22.0732 29.705 22.3201 29.1382 22.7066 28.671C23.0932 28.2038 23.6036 27.855 24.1795 27.6649C26.1788 27.0098 28.1936 26.4026 30.222 25.844Z" fill="white"/>
</g>
<defs>
<filter id="filter0_d_109_1795" x="13.6992" y="22.6719" width="45.3008" height="49.4883" filterUnits="userSpaceOnUse" color-interpolation-filters="sRGB">
<feFlood flood-opacity="0" result="BackgroundImageFix"/>
<feColorMatrix in="SourceAlpha" type="matrix" values="0 0 0 0 0 0 0 0 0 0 0 0 0 0 0 0 0 0 127 0" result="hardAlpha"/>
<feOffset dy="6"/>
<feGaussianBlur stdDeviation="4"/>
<feComposite in2="hardAlpha" operator="out"/>
<feColorMatrix type="matrix" values="0 0 0 0 0.118632 0 0 0 0 0.372589 0 0 0 0 0.812782 0 0 0 0.4 0"/>
<feBlend mode="normal" in2="BackgroundImageFix" result="effect1_dropShadow_109_1795"/>
<feBlend mode="normal" in="SourceGraphic" in2="effect1_dropShadow_109_1795" result="shape"/>
</filter>
<linearGradient id="paint0_linear_109_1795" x1="36.7963" y1="76.5368" x2="36.7963" y2="6.14258" gradientUnits="userSpaceOnUse">
<stop stop-color="#2D7AFF"/>
<stop offset="1" stop-color="#A6C7FF"/>
</linearGradient>
</defs>
</svg>
