<svg width="74" height="83" viewBox="0 0 74 83" fill="none" xmlns="http://www.w3.org/2000/svg">
<path d="M4.16012 18.3418L33.094 1.49786C35.3816 0.167381 38.2108 0.167381 40.5037 1.49786L69.4376 18.3418C71.7041 19.6617 73.0977 22.086 73.0977 24.7049V57.9773C73.0977 60.5962 71.7041 63.0205 69.4376 64.3405L40.5037 81.1844C38.2161 82.5149 35.3868 82.5149 33.094 81.1844L4.16012 64.3405C1.89358 63.0205 0.5 60.5962 0.5 57.9773V24.7049C0.5 22.086 1.89358 19.6617 4.16012 18.3418Z" fill="#F7F7F5" fill-opacity="0.59" stroke="#8FB4F5" stroke-miterlimit="10"/>
<path d="M8.667 21.5167L33.6042 7.00239C35.5763 5.85597 38.0163 5.85597 39.9884 7.00239L64.9256 21.5167C66.8766 22.6526 68.0809 24.7403 68.0809 27.0016V55.6778C68.0809 57.9391 66.8819 60.0268 64.9256 61.1627L39.9884 75.677C38.0163 76.8234 35.5763 76.8234 33.6042 75.677L8.667 61.1627C6.71598 60.0268 5.51172 57.9391 5.51172 55.6778V27.0016C5.51172 24.7403 6.71072 22.6526 8.667 21.5167Z" fill="url(#paint0_linear_109_1804)"/>
<g filter="url(#filter0_d_109_1804)">
<path d="M48.4505 33.0975C48.6411 32.9069 48.8765 32.7673 49.1352 32.6915C49.3939 32.6157 49.6675 32.6062 49.9308 32.6638C50.1941 32.7215 50.4387 32.8444 50.6421 33.0213C50.8455 33.1982 51.0011 33.4234 51.0947 33.6762C51.8423 35.6844 52.001 37.8643 51.5521 39.9596C51.1033 42.0549 50.0655 43.9785 48.5609 45.5042C47.0563 47.0299 45.1473 48.0944 43.0585 48.5724C40.9696 49.0504 38.7878 48.922 36.7693 48.2025L30.3188 54.6531C29.8709 55.1009 29.3393 55.4561 28.7542 55.6985C28.1691 55.9409 27.5419 56.0656 26.9086 56.0656C26.2753 56.0656 25.6482 55.9409 25.0631 55.6985C24.4779 55.4561 23.9463 55.1009 23.4985 54.6531C23.0506 54.2052 22.6954 53.6736 22.453 53.0885C22.2107 52.5034 22.0859 51.8762 22.0859 51.2429C22.0859 50.6096 22.2107 49.9825 22.453 49.3974C22.6954 48.8123 23.0506 48.2806 23.4985 47.8328L29.9491 41.3822C29.2291 39.3653 29.0997 37.1849 29.576 35.0971C30.0523 33.0092 31.1145 31.1007 32.6379 29.5955C34.1612 28.0904 36.0824 27.0513 38.1759 26.6001C40.2693 26.149 42.448 26.3047 44.456 27.0488C44.7088 27.1424 44.9341 27.298 45.111 27.5014C45.2879 27.7048 45.4108 27.9494 45.4684 28.2127C45.5261 28.476 45.5165 28.7496 45.4407 29.0083C45.365 29.267 45.2253 29.5024 45.0347 29.693L41.2476 33.4801C40.7953 33.9322 40.5411 34.5455 40.541 35.185C40.5408 35.8245 40.7947 36.4379 41.2468 36.8903C41.6989 37.3426 42.3122 37.5968 42.9517 37.5969C43.5912 37.5971 44.2046 37.3432 44.657 36.8911L48.4505 33.0975Z" fill="white"/>
</g>
<defs>
<filter id="filter0_d_109_1804" x="14.0859" y="24.3477" width="45.7148" height="45.7188" filterUnits="userSpaceOnUse" color-interpolation-filters="sRGB">
<feFlood flood-opacity="0" result="BackgroundImageFix"/>
<feColorMatrix in="SourceAlpha" type="matrix" values="0 0 0 0 0 0 0 0 0 0 0 0 0 0 0 0 0 0 127 0" result="hardAlpha"/>
<feOffset dy="6"/>
<feGaussianBlur stdDeviation="4"/>
<feComposite in2="hardAlpha" operator="out"/>
<feColorMatrix type="matrix" values="0 0 0 0 0.118632 0 0 0 0 0.372589 0 0 0 0 0.812782 0 0 0 0.4 0"/>
<feBlend mode="normal" in2="BackgroundImageFix" result="effect1_dropShadow_109_1804"/>
<feBlend mode="normal" in="SourceGraphic" in2="effect1_dropShadow_109_1804" result="shape"/>
</filter>
<linearGradient id="paint0_linear_109_1804" x1="36.7963" y1="76.5368" x2="36.7963" y2="6.14258" gradientUnits="userSpaceOnUse">
<stop stop-color="#2D7AFF"/>
<stop offset="1" stop-color="#A6C7FF"/>
</linearGradient>
</defs>
</svg>
