<svg width="600" height="400" viewBox="0 0 600 400" fill="none" xmlns="http://www.w3.org/2000/svg">
  <rect width="600" height="400" fill="#F8FAFC"/>
  <rect x="20" y="20" width="560" height="60" rx="8" fill="white" stroke="#E2E8F0"/>
  <rect x="40" y="40" width="120" height="20" rx="4" fill="#1E293B"/>
  <rect x="440" y="35" width="120" height="30" rx="6" fill="#0052FF"/>
  <rect x="20" y="100" width="176" height="140" rx="8" fill="white" stroke="#E2E8F0"/>
  <rect x="36" y="116" width="40" height="40" rx="8" fill="#DBEAFE"/>
  <circle cx="56" cy="136" r="12" fill="#0052FF"/>
  <rect x="36" y="168" width="100" height="14" rx="2" fill="#1E293B"/>
  <rect x="36" y="188" width="144" height="10" rx="2" fill="#94A3B8"/>
  <rect x="36" y="204" width="120" height="10" rx="2" fill="#94A3B8"/>
  <rect x="36" y="220" width="60" height="8" rx="2" fill="#10B981"/>
  <rect x="212" y="100" width="176" height="140" rx="8" fill="white" stroke="#E2E8F0"/>
  <rect x="228" y="116" width="40" height="40" rx="8" fill="#FEF3C7"/>
  <circle cx="248" cy="136" r="12" fill="#F59E0B"/>
  <rect x="228" y="168" width="100" height="14" rx="2" fill="#1E293B"/>
  <rect x="228" y="188" width="144" height="10" rx="2" fill="#94A3B8"/>
  <rect x="228" y="204" width="120" height="10" rx="2" fill="#94A3B8"/>
  <rect x="228" y="220" width="60" height="8" rx="2" fill="#10B981"/>
  <rect x="404" y="100" width="176" height="140" rx="8" fill="white" stroke="#E2E8F0"/>
  <rect x="420" y="116" width="40" height="40" rx="8" fill="#FCE7F3"/>
  <circle cx="440" cy="136" r="12" fill="#EC4899"/>
  <rect x="420" y="168" width="100" height="14" rx="2" fill="#1E293B"/>
  <rect x="420" y="188" width="144" height="10" rx="2" fill="#94A3B8"/>
  <rect x="420" y="204" width="120" height="10" rx="2" fill="#94A3B8"/>
  <rect x="420" y="220" width="60" height="8" rx="2" fill="#10B981"/>
  <rect x="20" y="260" width="176" height="120" rx="8" fill="white" stroke="#E2E8F0"/>
  <rect x="36" y="276" width="40" height="40" rx="8" fill="#E0E7FF"/>
  <circle cx="56" cy="296" r="12" fill="#6366F1"/>
  <rect x="36" y="328" width="80" height="14" rx="2" fill="#1E293B"/>
  <rect x="36" y="348" width="144" height="10" rx="2" fill="#94A3B8"/>
  <rect x="212" y="260" width="176" height="120" rx="8" fill="white" stroke="#E2E8F0"/>
  <rect x="228" y="276" width="40" height="40" rx="8" fill="#D1FAE5"/>
  <circle cx="248" cy="296" r="12" fill="#10B981"/>
  <rect x="228" y="328" width="80" height="14" rx="2" fill="#1E293B"/>
  <rect x="228" y="348" width="144" height="10" rx="2" fill="#94A3B8"/>
  <rect x="404" y="260" width="176" height="120" rx="8" fill="white" stroke="#E2E8F0"/>
  <rect x="420" y="276" width="40" height="40" rx="8" fill="#FEE2E2"/>
  <circle cx="440" cy="296" r="12" fill="#EF4444"/>
  <rect x="420" y="328" width="80" height="14" rx="2" fill="#1E293B"/>
  <rect x="420" y="348" width="144" height="10" rx="2" fill="#94A3B8"/>
</svg>
