<svg width="600" height="400" viewBox="0 0 600 400" fill="none" xmlns="http://www.w3.org/2000/svg">
  <rect width="600" height="400" fill="#F8FAFC"/>
  <rect x="20" y="20" width="160" height="360" rx="8" fill="#1E293B"/>
  <rect x="32" y="32" width="136" height="40" rx="4" fill="#334155"/>
  <rect x="32" y="84" width="136" height="32" rx="4" fill="#0052FF"/>
  <rect x="32" y="124" width="136" height="32" rx="4" fill="#334155"/>
  <rect x="32" y="164" width="136" height="32" rx="4" fill="#334155"/>
  <rect x="32" y="204" width="136" height="32" rx="4" fill="#334155"/>
  <rect x="32" y="280" width="136" height="24" rx="4" fill="#475569"/>
  <rect x="32" y="312" width="136" height="24" rx="4" fill="#475569"/>
  <rect x="200" y="20" width="380" height="360" rx="8" fill="white" stroke="#E2E8F0"/>
  <rect x="220" y="40" width="200" height="24" rx="4" fill="#E2E8F0"/>
  <rect x="220" y="80" width="340" height="120" rx="8" fill="#F1F5F9" stroke="#E2E8F0"/>
  <rect x="240" y="100" width="80" height="16" rx="2" fill="#CBD5E1"/>
  <rect x="240" y="124" width="120" height="12" rx="2" fill="#E2E8F0"/>
  <rect x="240" y="144" width="100" height="12" rx="2" fill="#E2E8F0"/>
  <rect x="240" y="168" width="60" height="20" rx="4" fill="#0052FF"/>
  <rect x="220" y="220" width="340" height="80" rx="8" fill="#F1F5F9" stroke="#E2E8F0"/>
  <rect x="240" y="240" width="100" height="12" rx="2" fill="#CBD5E1"/>
  <rect x="240" y="260" width="280" height="8" rx="2" fill="#E2E8F0"/>
  <rect x="240" y="276" width="200" height="8" rx="2" fill="#E2E8F0"/>
  <rect x="220" y="320" width="160" height="40" rx="8" fill="#F1F5F9" stroke="#E2E8F0"/>
  <rect x="400" y="320" width="160" height="40" rx="8" fill="#F1F5F9" stroke="#E2E8F0"/>
</svg>
