<svg width="600" height="400" viewBox="0 0 600 400" fill="none" xmlns="http://www.w3.org/2000/svg">
  <rect width="600" height="400" fill="#F8FAFC"/>
  <text x="300" y="40" text-anchor="middle" fill="#64748B" font-family="system-ui" font-size="14" font-weight="500">Integrated Tools</text>
  <!-- Row 1 -->
  <rect x="60" y="70" width="100" height="100" rx="12" fill="white" stroke="#E2E8F0" stroke-width="2"/>
  <rect x="85" y="95" width="50" height="50" rx="8" fill="#326CE5"/>
  <text x="110" y="185" text-anchor="middle" fill="#1E293B" font-family="system-ui" font-size="11" font-weight="500">Kubernetes</text>
  <rect x="190" y="70" width="100" height="100" rx="12" fill="white" stroke="#E2E8F0" stroke-width="2"/>
  <rect x="215" y="95" width="50" height="50" rx="8" fill="#FF6C37"/>
  <text x="240" y="185" text-anchor="middle" fill="#1E293B" font-family="system-ui" font-size="11" font-weight="500">ArgoCD</text>
  <rect x="320" y="70" width="100" height="100" rx="12" fill="white" stroke="#E2E8F0" stroke-width="2"/>
  <rect x="345" y="95" width="50" height="50" rx="8" fill="#0DB7ED"/>
  <text x="370" y="185" text-anchor="middle" fill="#1E293B" font-family="system-ui" font-size="11" font-weight="500">Docker</text>
  <rect x="450" y="70" width="100" height="100" rx="12" fill="white" stroke="#E2E8F0" stroke-width="2"/>
  <rect x="475" y="95" width="50" height="50" rx="8" fill="#E6522C"/>
  <text x="500" y="185" text-anchor="middle" fill="#1E293B" font-family="system-ui" font-size="11" font-weight="500">Grafana</text>
  <!-- Row 2 -->
  <rect x="60" y="210" width="100" height="100" rx="12" fill="white" stroke="#E2E8F0" stroke-width="2"/>
  <rect x="85" y="235" width="50" height="50" rx="8" fill="#466BB0"/>
  <text x="110" y="325" text-anchor="middle" fill="#1E293B" font-family="system-ui" font-size="11" font-weight="500">Helm</text>
  <rect x="190" y="210" width="100" height="100" rx="12" fill="white" stroke="#E2E8F0" stroke-width="2"/>
  <rect x="215" y="235" width="50" height="50" rx="8" fill="#E95420"/>
  <text x="240" y="325" text-anchor="middle" fill="#1E293B" font-family="system-ui" font-size="11" font-weight="500">Prometheus</text>
  <rect x="320" y="210" width="100" height="100" rx="12" fill="white" stroke="#E2E8F0" stroke-width="2"/>
  <rect x="345" y="235" width="50" height="50" rx="8" fill="#4285F4"/>
  <text x="370" y="325" text-anchor="middle" fill="#1E293B" font-family="system-ui" font-size="11" font-weight="500">GKE</text>
  <rect x="450" y="210" width="100" height="100" rx="12" fill="white" stroke="#E2E8F0" stroke-width="2"/>
  <rect x="475" y="235" width="50" height="50" rx="8" fill="#FF9900"/>
  <text x="500" y="325" text-anchor="middle" fill="#1E293B" font-family="system-ui" font-size="11" font-weight="500">AWS EKS</text>
  <!-- Bottom text -->
  <text x="300" y="370" text-anchor="middle" fill="#94A3B8" font-family="system-ui" font-size="12">+ 50 more integrations</text>
</svg>
