<svg width="74" height="83" viewBox="0 0 74 83" fill="none" xmlns="http://www.w3.org/2000/svg">
<path d="M4.16012 18.3418L33.094 1.49786C35.3816 0.167381 38.2108 0.167381 40.5037 1.49786L69.4376 18.3418C71.7041 19.6617 73.0977 22.086 73.0977 24.7049V57.9773C73.0977 60.5962 71.7041 63.0205 69.4376 64.3405L40.5037 81.1844C38.2161 82.5149 35.3868 82.5149 33.094 81.1844L4.16012 64.3405C1.89358 63.0205 0.5 60.5962 0.5 57.9773V24.7049C0.5 22.086 1.89358 19.6617 4.16012 18.3418Z" fill="#F7F7F5" fill-opacity="0.59" stroke="#8FB4F5" stroke-miterlimit="10"/>
<path d="M8.667 21.5167L33.6042 7.00239C35.5763 5.85597 38.0163 5.85597 39.9884 7.00239L64.9256 21.5167C66.8766 22.6526 68.0809 24.7403 68.0809 27.0016V55.6778C68.0809 57.9391 66.8819 60.0268 64.9256 61.1627L39.9884 75.677C38.0163 76.8234 35.5763 76.8234 33.6042 75.677L8.667 61.1627C6.71598 60.0268 5.51172 57.9391 5.51172 55.6778V27.0016C5.51172 24.7403 6.71072 22.6526 8.667 21.5167Z" fill="url(#paint0_linear_375_5705)"/>
<g filter="url(#filter0_d_375_5705)">
<path d="M29.1934 26.6631C30.6654 26.6632 32.0782 27.2481 33.1191 28.2891C34.1599 29.33 34.745 30.7419 34.7451 32.2139C34.7451 33.686 34.16 35.0986 33.1191 36.1396C32.7005 36.5583 32.2205 36.9013 31.7021 37.1641V45.5176C32.2206 45.7803 32.7004 46.1243 33.1191 46.543C34.1599 47.5839 34.745 48.9958 34.7451 50.4678C34.7451 51.9399 34.16 53.3525 33.1191 54.3936C32.0782 55.4345 30.6654 56.0194 29.1934 56.0195C27.7214 56.0194 26.3095 55.4343 25.2686 54.3936C24.2275 53.3525 23.6426 51.94 23.6426 50.4678C23.6427 48.9957 24.2276 47.5839 25.2686 46.543C25.687 46.1246 26.1664 45.7812 26.6846 45.5186V37.1631C26.1666 36.9005 25.6869 36.5579 25.2686 36.1396C24.2275 35.0986 23.6426 33.6861 23.6426 32.2139C23.6427 30.7417 24.2276 29.33 25.2686 28.2891C26.3095 27.2482 27.7213 26.6632 29.1934 26.6631ZM44.4053 26.6631C45.8774 26.6632 47.2901 27.2481 48.3311 28.2891C49.3717 29.33 49.9569 30.742 49.957 32.2139C49.957 33.686 49.3719 35.0986 48.3311 36.1396C47.9125 36.5582 47.4323 36.9014 46.9141 37.1641V45.5176C47.4325 45.7803 47.9124 46.1243 48.3311 46.543C49.3717 47.5839 49.9569 48.9959 49.957 50.4678C49.957 51.9398 49.3718 53.3525 48.3311 54.3936C47.2901 55.4345 45.8774 56.0194 44.4053 56.0195C42.9333 56.0195 41.5214 55.4343 40.4805 54.3936C39.4394 53.3525 38.8545 51.94 38.8545 50.4678C38.8546 48.9957 39.4395 47.5839 40.4805 46.543C40.8991 46.1245 41.3782 45.7802 41.8965 45.5176V37.1641C41.3783 36.9014 40.899 36.558 40.4805 36.1396C39.4394 35.0986 38.8545 33.6861 38.8545 32.2139C38.8546 30.7417 39.4395 29.33 40.4805 28.2891C41.5215 27.2483 42.9332 26.6631 44.4053 26.6631Z" fill="white"/>
</g>
<defs>
<filter id="filter0_d_375_5705" x="15.6426" y="24.6631" width="42.3145" height="45.3564" filterUnits="userSpaceOnUse" color-interpolation-filters="sRGB">
<feFlood flood-opacity="0" result="BackgroundImageFix"/>
<feColorMatrix in="SourceAlpha" type="matrix" values="0 0 0 0 0 0 0 0 0 0 0 0 0 0 0 0 0 0 127 0" result="hardAlpha"/>
<feOffset dy="6"/>
<feGaussianBlur stdDeviation="4"/>
<feComposite in2="hardAlpha" operator="out"/>
<feColorMatrix type="matrix" values="0 0 0 0 0.118632 0 0 0 0 0.372589 0 0 0 0 0.812782 0 0 0 0.4 0"/>
<feBlend mode="normal" in2="BackgroundImageFix" result="effect1_dropShadow_375_5705"/>
<feBlend mode="normal" in="SourceGraphic" in2="effect1_dropShadow_375_5705" result="shape"/>
</filter>
<linearGradient id="paint0_linear_375_5705" x1="36.7963" y1="76.5368" x2="36.7963" y2="6.14258" gradientUnits="userSpaceOnUse">
<stop stop-color="#2D7AFF"/>
<stop offset="1" stop-color="#A6C7FF"/>
</linearGradient>
</defs>
</svg>
