<svg width="74" height="83" viewBox="0 0 74 83" fill="none" xmlns="http://www.w3.org/2000/svg">
<path d="M4.16012 18.3418L33.094 1.49786C35.3816 0.167381 38.2108 0.167381 40.5037 1.49786L69.4376 18.3418C71.7041 19.6617 73.0977 22.086 73.0977 24.7049V57.9773C73.0977 60.5962 71.7041 63.0205 69.4376 64.3405L40.5037 81.1844C38.2161 82.5149 35.3868 82.5149 33.094 81.1844L4.16012 64.3405C1.89358 63.0205 0.5 60.5962 0.5 57.9773V24.7049C0.5 22.086 1.89358 19.6617 4.16012 18.3418Z" fill="#F7F7F5" fill-opacity="0.59" stroke="#8FB4F5" stroke-miterlimit="10"/>
<path d="M8.667 21.5167L33.6042 7.00239C35.5763 5.85597 38.0163 5.85597 39.9884 7.00239L64.9256 21.5167C66.8766 22.6526 68.0809 24.7403 68.0809 27.0016V55.6778C68.0809 57.9391 66.8819 60.0268 64.9256 61.1627L39.9884 75.677C38.0163 76.8234 35.5763 76.8234 33.6042 75.677L8.667 61.1627C6.71598 60.0268 5.51172 57.9391 5.51172 55.6778V27.0016C5.51172 24.7403 6.71072 22.6526 8.667 21.5167Z" fill="url(#paint0_linear_375_5722)"/>
<g filter="url(#filter0_d_375_5722)">
<path d="M36.7987 57.3772C34.6071 57.3772 32.5357 56.956 30.5847 56.1136C28.6336 55.2711 26.93 54.1219 25.4739 52.6658C24.0178 51.2097 22.8685 49.5061 22.0261 47.555C21.1837 45.6039 20.7625 43.5326 20.7625 41.341C20.7625 39.1226 21.1837 37.0448 22.0261 35.1077C22.8685 33.1705 24.0178 31.4733 25.4739 30.0161C26.93 28.559 28.6336 27.4097 30.5847 26.5683C32.5357 25.727 34.6071 25.3058 36.7987 25.3047C39.0171 25.3047 41.0954 25.7259 43.0336 26.5683C44.9719 27.4108 46.6685 28.5601 48.1235 30.0161C49.5786 31.4722 50.7278 33.1694 51.5713 35.1077C52.4148 37.0459 52.8361 39.1237 52.835 41.341C52.835 43.5326 52.4138 45.6039 51.5713 47.555C50.7289 49.5061 49.5796 51.2102 48.1235 52.6674C46.6674 54.1245 44.9703 55.2738 43.032 56.1152C41.0938 56.9566 39.016 57.3772 36.7987 57.3772ZM36.7987 54.0898C37.4936 53.1276 38.095 52.1254 38.6028 51.083C39.1106 50.0406 39.5249 48.9315 39.8456 47.7555H33.7518C34.0726 48.9315 34.4868 50.0406 34.9946 51.083C35.5025 52.1254 36.1038 53.1276 36.7987 54.0898ZM32.6293 53.4483C32.1482 52.5664 31.7275 51.6507 31.3672 50.7013C31.007 49.752 30.706 48.77 30.4644 47.7555H25.7337C26.5088 49.0918 27.4779 50.2545 28.6411 51.2434C29.8042 52.2323 31.1336 52.9673 32.6293 53.4483ZM40.9682 53.4483C42.4649 52.9673 43.7948 52.2323 44.958 51.2434C46.1211 50.2545 47.0897 49.0918 47.8638 47.7555H43.1331C42.8925 48.7711 42.5921 49.7536 42.2318 50.7029C41.8715 51.6523 41.4503 52.5674 40.9682 53.4483ZM24.3706 44.5482H29.8229C29.7428 44.0137 29.6829 43.4861 29.6433 42.9654C29.6038 42.4448 29.5835 41.9033 29.5824 41.341C29.5813 40.7786 29.6016 40.2377 29.6433 39.7181C29.685 39.1985 29.7449 38.6704 29.8229 38.1337H24.3706C24.237 38.6682 24.137 39.1964 24.0707 39.7181C24.0045 40.2398 23.9708 40.7808 23.9697 41.341C23.9686 41.9012 24.0023 42.4427 24.0707 42.9654C24.1392 43.4882 24.2391 44.0158 24.3706 44.5482ZM33.0302 44.5482H40.5673C40.6474 44.0137 40.7078 43.4861 40.7485 42.9654C40.7891 42.4448 40.8089 41.9033 40.8078 41.341C40.8067 40.7786 40.7864 40.2377 40.7469 39.7181C40.7073 39.1985 40.6474 38.6704 40.5673 38.1337H33.0302C32.95 38.6682 32.8902 39.1964 32.8506 39.7181C32.811 40.2398 32.7907 40.7808 32.7897 41.341C32.7886 41.9012 32.8089 42.4427 32.8506 42.9654C32.8923 43.4882 32.9522 44.0158 33.0302 44.5482ZM43.7745 44.5482H49.2268C49.3605 44.0137 49.461 43.4861 49.5283 42.9654C49.5957 42.4448 49.6288 41.9033 49.6277 41.341C49.6267 40.7786 49.5935 40.2377 49.5283 39.7181C49.4631 39.1985 49.3626 38.6704 49.2268 38.1337H43.7745C43.8547 38.6682 43.9151 39.1964 43.9557 39.7181C43.9963 40.2398 44.0161 40.7808 44.015 41.341C44.014 41.9012 43.9937 42.4427 43.9541 42.9654C43.9146 43.4882 43.8547 44.0158 43.7745 44.5482ZM43.1331 34.9265H47.8638C47.0887 33.5901 46.1201 32.4275 44.958 31.4386C43.7959 30.4497 42.4659 29.7147 40.9682 29.2336C41.4492 30.1156 41.8705 31.0312 42.2318 31.9806C42.5932 32.9299 42.8936 33.9119 43.1331 34.9265ZM33.7518 34.9265H39.8456C39.5249 33.7505 39.1106 32.6413 38.6028 31.5989C38.095 30.5566 37.4936 29.5543 36.7987 28.5921C36.1038 29.5543 35.5025 30.5566 34.9946 31.5989C34.4868 32.6413 34.0726 33.7505 33.7518 34.9265ZM25.7337 34.9265H30.4644C30.7049 33.9108 31.0059 32.9283 31.3672 31.979C31.7286 31.0296 32.1493 30.1145 32.6293 29.2336C31.1326 29.7147 29.8026 30.4497 28.6395 31.4386C27.4763 32.4275 26.5077 33.5901 25.7337 34.9265Z" fill="white"/>
</g>
<defs>
<filter id="filter0_d_375_5722" x="12.7625" y="23.3047" width="48.0725" height="48.0723" filterUnits="userSpaceOnUse" color-interpolation-filters="sRGB">
<feFlood flood-opacity="0" result="BackgroundImageFix"/>
<feColorMatrix in="SourceAlpha" type="matrix" values="0 0 0 0 0 0 0 0 0 0 0 0 0 0 0 0 0 0 127 0" result="hardAlpha"/>
<feOffset dy="6"/>
<feGaussianBlur stdDeviation="4"/>
<feComposite in2="hardAlpha" operator="out"/>
<feColorMatrix type="matrix" values="0 0 0 0 0.118632 0 0 0 0 0.372589 0 0 0 0 0.812782 0 0 0 0.4 0"/>
<feBlend mode="normal" in2="BackgroundImageFix" result="effect1_dropShadow_375_5722"/>
<feBlend mode="normal" in="SourceGraphic" in2="effect1_dropShadow_375_5722" result="shape"/>
</filter>
<linearGradient id="paint0_linear_375_5722" x1="36.7963" y1="76.5368" x2="36.7963" y2="6.14258" gradientUnits="userSpaceOnUse">
<stop stop-color="#2D7AFF"/>
<stop offset="1" stop-color="#A6C7FF"/>
</linearGradient>
</defs>
</svg>
