<svg width="74" height="83" viewBox="0 0 74 83" fill="none" xmlns="http://www.w3.org/2000/svg">
<path d="M4.16012 18.3418L33.094 1.49786C35.3816 0.167381 38.2108 0.167381 40.5037 1.49786L69.4376 18.3418C71.7041 19.6617 73.0977 22.086 73.0977 24.7049V57.9773C73.0977 60.5962 71.7041 63.0205 69.4376 64.3405L40.5037 81.1844C38.2161 82.5149 35.3868 82.5149 33.094 81.1844L4.16012 64.3405C1.89358 63.0205 0.5 60.5962 0.5 57.9773V24.7049C0.5 22.086 1.89358 19.6617 4.16012 18.3418Z" fill="#F7F7F5" fill-opacity="0.59" stroke="#8FB4F5" stroke-miterlimit="10"/>
<path d="M8.667 21.5167L33.6042 7.00239C35.5763 5.85597 38.0163 5.85597 39.9884 7.00239L64.9256 21.5167C66.8766 22.6526 68.0809 24.7403 68.0809 27.0016V55.6778C68.0809 57.9391 66.8819 60.0268 64.9256 61.1627L39.9884 75.677C38.0163 76.8234 35.5763 76.8234 33.6042 75.677L8.667 61.1627C6.71598 60.0268 5.51172 57.9391 5.51172 55.6778V27.0016C5.51172 24.7403 6.71072 22.6526 8.667 21.5167Z" fill="url(#paint0_linear_375_5732)"/>
<g clip-path="url(#clip0_375_5732)" filter="url(#filter0_d_375_5732)">
<path d="M28.5711 24.8857C25.1644 24.8857 22.4004 27.6497 22.4004 31.0565V51.6257C22.4004 55.0325 25.1644 57.7965 28.5711 57.7965H49.1403C50.2781 57.7965 51.1973 56.8773 51.1973 55.7395C51.1973 54.6018 50.2781 53.6826 49.1403 53.6826V49.5688C50.2781 49.5688 51.1973 48.6496 51.1973 47.5119V26.9427C51.1973 25.8049 50.2781 24.8857 49.1403 24.8857H28.5711ZM28.5711 49.5688H45.0265V53.6826H28.5711C27.4334 53.6826 26.5142 52.7634 26.5142 51.6257C26.5142 50.488 27.4334 49.5688 28.5711 49.5688ZM30.6281 34.1419C30.6281 33.5762 31.0909 33.1134 31.6565 33.1134H43.998C44.5637 33.1134 45.0265 33.5762 45.0265 34.1419C45.0265 34.7075 44.5637 35.1703 43.998 35.1703H31.6565C31.0909 35.1703 30.6281 34.7075 30.6281 34.1419ZM31.6565 37.2273H43.998C44.5637 37.2273 45.0265 37.6901 45.0265 38.2557C45.0265 38.8214 44.5637 39.2842 43.998 39.2842H31.6565C31.0909 39.2842 30.6281 38.8214 30.6281 38.2557C30.6281 37.6901 31.0909 37.2273 31.6565 37.2273Z" fill="white"/>
</g>
<defs>
<filter id="filter0_d_375_5732" x="14.4004" y="22.8857" width="44.7969" height="48.9111" filterUnits="userSpaceOnUse" color-interpolation-filters="sRGB">
<feFlood flood-opacity="0" result="BackgroundImageFix"/>
<feColorMatrix in="SourceAlpha" type="matrix" values="0 0 0 0 0 0 0 0 0 0 0 0 0 0 0 0 0 0 127 0" result="hardAlpha"/>
<feOffset dy="6"/>
<feGaussianBlur stdDeviation="4"/>
<feComposite in2="hardAlpha" operator="out"/>
<feColorMatrix type="matrix" values="0 0 0 0 0.118632 0 0 0 0 0.372589 0 0 0 0 0.812782 0 0 0 0.4 0"/>
<feBlend mode="normal" in2="BackgroundImageFix" result="effect1_dropShadow_375_5732"/>
<feBlend mode="normal" in="SourceGraphic" in2="effect1_dropShadow_375_5732" result="shape"/>
</filter>
<linearGradient id="paint0_linear_375_5732" x1="36.7963" y1="76.5368" x2="36.7963" y2="6.14258" gradientUnits="userSpaceOnUse">
<stop stop-color="#2D7AFF"/>
<stop offset="1" stop-color="#A6C7FF"/>
</linearGradient>
<clipPath id="clip0_375_5732">
<rect width="28.7969" height="32.9107" fill="white" transform="translate(22.4004 24.8857)"/>
</clipPath>
</defs>
</svg>
