<svg width="74" height="83" viewBox="0 0 74 83" fill="none" xmlns="http://www.w3.org/2000/svg">
<path d="M4.16012 18.3418L33.094 1.49786C35.3816 0.167381 38.2108 0.167381 40.5037 1.49786L69.4376 18.3418C71.7041 19.6617 73.0977 22.086 73.0977 24.7049V57.9773C73.0977 60.5962 71.7041 63.0205 69.4376 64.3405L40.5037 81.1844C38.2161 82.5149 35.3868 82.5149 33.094 81.1844L4.16012 64.3405C1.89358 63.0205 0.5 60.5962 0.5 57.9773V24.7049C0.5 22.086 1.89358 19.6617 4.16012 18.3418Z" fill="#F7F7F5" fill-opacity="0.59" stroke="#8FB4F5" stroke-miterlimit="10"/>
<path d="M8.667 21.5167L33.6042 7.00239C35.5763 5.85597 38.0163 5.85597 39.9884 7.00239L64.9256 21.5167C66.8766 22.6526 68.0809 24.7403 68.0809 27.0016V55.6778C68.0809 57.9391 66.8819 60.0268 64.9256 61.1627L39.9884 75.677C38.0163 76.8234 35.5763 76.8234 33.6042 75.677L8.667 61.1627C6.71598 60.0268 5.51172 57.9391 5.51172 55.6778V27.0016C5.51172 24.7403 6.71072 22.6526 8.667 21.5167Z" fill="url(#paint0_linear_375_5712)"/>
<g filter="url(#filter0_d_375_5712)">
<path fill-rule="evenodd" clip-rule="evenodd" d="M32.8863 25.403C35.1807 24.5202 38.3653 24.5227 40.6596 25.3981C42.5704 26.126 44.5819 26.908 46.4558 27.808C48.3346 28.7081 49.9723 29.6819 51.497 30.6016C52.5003 31.209 53.3979 32.1927 53.3954 33.5255C53.3954 34.8534 52.4929 35.8371 51.4847 36.442C49.96 37.3568 48.3223 38.3159 46.4558 39.2135C44.5942 40.1061 42.6073 40.8857 40.7113 41.616C38.4169 42.4989 35.2299 42.4964 32.9331 41.6209C31.0223 40.893 29.0108 40.111 27.1394 39.211C25.4145 38.3625 23.7321 37.4302 22.0982 36.4174C21.0948 35.8076 20.1948 34.8239 20.1997 33.496C20.2022 32.1632 21.1047 31.182 22.1105 30.577C23.6351 29.6622 25.2729 28.7032 27.1418 27.8056C29.0009 26.9129 30.9879 26.1334 32.8863 25.403ZM22.9023 47.0753C23.2257 47.3022 23.4492 47.6449 23.5266 48.0323C23.604 48.4197 23.5293 48.822 23.3179 49.1557C23.4276 49.2699 23.5526 49.3683 23.6892 49.4483C25.204 50.3631 26.7336 51.2681 28.4722 52.1042C30.2157 52.9403 32.1166 53.6805 34.0298 54.4108C35.6234 55.0182 38.0284 55.0182 39.6121 54.4108C41.5056 53.6805 43.3893 52.9354 45.1279 52.1042C46.7604 51.2996 48.3547 50.4199 49.9059 49.468C50.0433 49.389 50.1691 49.2913 50.2797 49.1778C50.1651 49.0115 50.0843 48.8243 50.0421 48.6267C49.9998 48.4292 49.9968 48.2253 50.0334 48.0266C50.1072 47.6254 50.3373 47.2699 50.6732 47.0384C51.0091 46.8069 51.4232 46.7182 51.8244 46.792C52.0231 46.8286 52.2126 46.9039 52.3821 47.0137C52.5517 47.1234 52.698 47.2655 52.8126 47.4319C53.361 48.1942 53.57 49.1483 53.2454 50.0975C52.943 50.9828 52.2593 51.6419 51.4872 52.1042C49.9625 53.019 48.3247 53.978 46.4583 54.8756C44.5967 55.7683 42.6097 56.5478 40.7137 57.2782C38.4194 58.1586 35.2324 58.1586 32.9355 57.2831C31.0248 56.5552 29.0132 55.7732 27.1418 54.8732C25.4169 54.0238 23.7345 53.0907 22.1006 52.0771C21.3383 51.6173 20.662 50.9656 20.3596 50.0951C20.2069 49.654 20.1639 49.1824 20.2342 48.721C20.3044 48.2596 20.4859 47.8222 20.7629 47.4466C20.9976 47.114 21.3547 46.8881 21.7558 46.8185C22.1569 46.7489 22.5692 46.8412 22.9023 47.0753ZM22.9023 39.5381C23.2263 39.765 23.4504 40.1082 23.5278 40.4962C23.6052 40.8841 23.53 41.287 23.3179 41.6209C23.4253 41.7369 23.5507 41.8349 23.6892 41.9111C25.204 42.8284 26.7336 43.7309 28.4722 44.567C30.2157 45.4031 32.1166 46.1433 34.0298 46.8736C35.6234 47.481 38.0284 47.481 39.6121 46.8736C41.5056 46.1433 43.3893 45.4006 45.1279 44.567C46.7604 43.7624 48.3547 42.8827 49.9059 41.9308C50.0433 41.8517 50.1691 41.7541 50.2797 41.6406C50.0482 41.3047 49.9596 40.8906 50.0334 40.4894C50.1072 40.0882 50.3373 39.7327 50.6732 39.5012C51.0091 39.2696 51.4232 39.181 51.8244 39.2548C52.2256 39.3286 52.5811 39.5588 52.8126 39.8946C53.361 40.657 53.57 41.6111 53.2454 42.5628C52.943 43.4481 52.2593 44.1047 51.4872 44.567C49.9625 45.4818 48.3247 46.4408 46.4583 47.3384C44.5967 48.2311 42.6097 49.0106 40.7137 49.741C38.4194 50.6238 35.2324 50.6213 32.9355 49.7459C31.0248 49.018 29.0132 48.2384 27.1418 47.3359C25.4169 46.4874 23.7345 45.5551 22.1006 44.5424C21.3383 44.0825 20.662 43.4309 20.3596 42.5579C20.2078 42.1175 20.1652 41.6469 20.2354 41.1864C20.3057 40.7259 20.4867 40.2894 20.7629 39.9143C20.9972 39.5813 21.3541 39.3549 21.7553 39.2848C22.1564 39.2147 22.5689 39.3042 22.9023 39.5381Z" fill="white"/>
</g>
<defs>
<filter id="filter0_d_375_5712" x="11.585" y="22.127" width="50.4277" height="50.4277" filterUnits="userSpaceOnUse" color-interpolation-filters="sRGB">
<feFlood flood-opacity="0" result="BackgroundImageFix"/>
<feColorMatrix in="SourceAlpha" type="matrix" values="0 0 0 0 0 0 0 0 0 0 0 0 0 0 0 0 0 0 127 0" result="hardAlpha"/>
<feOffset dy="6"/>
<feGaussianBlur stdDeviation="4"/>
<feComposite in2="hardAlpha" operator="out"/>
<feColorMatrix type="matrix" values="0 0 0 0 0.118632 0 0 0 0 0.372589 0 0 0 0 0.812782 0 0 0 0.4 0"/>
<feBlend mode="normal" in2="BackgroundImageFix" result="effect1_dropShadow_375_5712"/>
<feBlend mode="normal" in="SourceGraphic" in2="effect1_dropShadow_375_5712" result="shape"/>
</filter>
<linearGradient id="paint0_linear_375_5712" x1="36.7963" y1="76.5368" x2="36.7963" y2="6.14258" gradientUnits="userSpaceOnUse">
<stop stop-color="#2D7AFF"/>
<stop offset="1" stop-color="#A6C7FF"/>
</linearGradient>
</defs>
</svg>
