<svg width="676" height="467" viewBox="0 0 676 467" fill="none" xmlns="http://www.w3.org/2000/svg">
<g clip-path="url(#clip0_375_2975)">
<path d="M0 18C0 8.05887 8.05887 0 18 0H658C667.941 0 676 8.05888 676 18V467H0V18Z" fill="#A2C4FF"/>
<rect x="-176" y="-5.50391" width="965.259" height="594.006" fill="url(#paint0_linear_375_2975)"/>
<path d="M39.5 50C39.5 44.4772 43.9772 40 49.5 40H626.5C632.023 40 636.5 44.4772 636.5 50V467H39.5V50Z" fill="white"/>
<path d="M179.012 84.5859H496.988" stroke="url(#paint1_linear_375_2975)" stroke-width="2" stroke-linecap="round"/>
<rect x="161.5" y="68.0859" width="33" height="33" rx="16.5" fill="#2D7AFF"/>
<path d="M180.033 79.1113V91.1113H177.86V81.2266H177.789L174.983 83.0195V81.0273L177.965 79.1113H180.033Z" fill="white"/>
<path d="M142.096 117.758C142.056 117.386 141.888 117.096 141.593 116.888C141.3 116.681 140.92 116.577 140.451 116.577C140.121 116.577 139.839 116.627 139.603 116.727C139.367 116.826 139.187 116.961 139.062 117.131C138.937 117.302 138.873 117.496 138.87 117.715C138.87 117.897 138.911 118.055 138.994 118.188C139.079 118.322 139.194 118.435 139.339 118.529C139.484 118.62 139.644 118.697 139.82 118.759C139.996 118.822 140.174 118.874 140.353 118.917L141.171 119.121C141.501 119.198 141.817 119.302 142.121 119.433C142.428 119.563 142.702 119.728 142.944 119.927C143.188 120.126 143.381 120.366 143.523 120.647C143.665 120.928 143.737 121.258 143.737 121.636C143.737 122.147 143.606 122.597 143.344 122.987C143.083 123.373 142.705 123.675 142.211 123.894C141.719 124.11 141.124 124.218 140.425 124.218C139.746 124.218 139.157 124.113 138.657 123.903C138.16 123.692 137.771 123.386 137.489 122.982C137.211 122.579 137.06 122.087 137.038 121.508H138.593C138.616 121.812 138.71 122.065 138.874 122.266C139.039 122.468 139.254 122.619 139.518 122.718C139.785 122.817 140.083 122.867 140.413 122.867C140.756 122.867 141.058 122.816 141.316 122.714C141.577 122.609 141.782 122.464 141.93 122.279C142.077 122.092 142.153 121.873 142.156 121.623C142.153 121.396 142.086 121.208 141.955 121.06C141.825 120.91 141.641 120.785 141.406 120.685C141.173 120.583 140.9 120.492 140.587 120.413L139.594 120.157C138.876 119.972 138.308 119.692 137.89 119.317C137.475 118.94 137.268 118.438 137.268 117.813C137.268 117.299 137.407 116.849 137.685 116.462C137.967 116.076 138.349 115.776 138.832 115.563C139.315 115.347 139.862 115.239 140.472 115.239C141.092 115.239 141.634 115.347 142.1 115.563C142.569 115.776 142.937 116.073 143.204 116.454C143.471 116.832 143.609 117.266 143.617 117.758H142.096ZM147.975 124.214C147.319 124.214 146.752 124.077 146.275 123.805C145.801 123.529 145.436 123.14 145.18 122.637C144.924 122.131 144.797 121.536 144.797 120.852C144.797 120.178 144.924 119.587 145.18 119.079C145.439 118.567 145.799 118.17 146.262 117.886C146.725 117.599 147.27 117.455 147.895 117.455C148.298 117.455 148.679 117.521 149.037 117.651C149.397 117.779 149.716 117.978 149.991 118.248C150.27 118.518 150.488 118.862 150.647 119.279C150.806 119.694 150.886 120.188 150.886 120.762V121.235H145.521V120.195H149.407C149.404 119.9 149.341 119.637 149.216 119.407C149.091 119.174 148.916 118.991 148.691 118.857C148.47 118.724 148.211 118.657 147.916 118.657C147.6 118.657 147.324 118.734 147.085 118.887C146.846 119.038 146.66 119.237 146.527 119.484C146.396 119.728 146.329 119.996 146.326 120.289V121.197C146.326 121.577 146.396 121.904 146.535 122.177C146.674 122.447 146.869 122.654 147.119 122.799C147.369 122.941 147.662 123.012 147.997 123.012C148.221 123.012 148.424 122.981 148.606 122.918C148.788 122.853 148.946 122.758 149.079 122.633C149.213 122.508 149.314 122.353 149.382 122.168L150.822 122.33C150.731 122.711 150.558 123.043 150.302 123.327C150.049 123.609 149.725 123.827 149.331 123.984C148.936 124.137 148.484 124.214 147.975 124.214ZM152.191 124.086V117.54H153.687V118.631H153.755C153.874 118.254 154.079 117.962 154.369 117.758C154.661 117.55 154.995 117.447 155.37 117.447C155.455 117.447 155.55 117.451 155.656 117.46C155.763 117.465 155.853 117.475 155.924 117.489V118.908C155.859 118.886 155.755 118.866 155.613 118.849C155.474 118.829 155.339 118.819 155.208 118.819C154.927 118.819 154.674 118.88 154.45 119.002C154.228 119.121 154.053 119.288 153.925 119.501C153.798 119.714 153.734 119.96 153.734 120.238V124.086H152.191ZM162.995 117.54L160.664 124.086H158.959L156.628 117.54H158.273L159.777 122.403H159.846L161.354 117.54H162.995ZM164.062 124.086V117.54H165.605V124.086H164.062ZM164.838 116.612C164.593 116.612 164.383 116.531 164.207 116.369C164.031 116.204 163.943 116.006 163.943 115.776C163.943 115.543 164.031 115.346 164.207 115.184C164.383 115.019 164.593 114.937 164.838 114.937C165.085 114.937 165.295 115.019 165.468 115.184C165.645 115.346 165.733 115.543 165.733 115.776C165.733 116.006 165.645 116.204 165.468 116.369C165.295 116.531 165.085 116.612 164.838 116.612ZM170.046 124.214C169.393 124.214 168.832 124.07 168.363 123.783C167.897 123.496 167.538 123.1 167.285 122.594C167.035 122.086 166.91 121.501 166.91 120.839C166.91 120.174 167.038 119.587 167.293 119.079C167.549 118.567 167.91 118.17 168.376 117.886C168.844 117.599 169.398 117.455 170.038 117.455C170.569 117.455 171.039 117.553 171.448 117.749C171.86 117.942 172.188 118.217 172.433 118.572C172.677 118.924 172.816 119.336 172.85 119.808H171.376C171.316 119.492 171.174 119.229 170.95 119.019C170.728 118.806 170.431 118.7 170.059 118.7C169.744 118.7 169.467 118.785 169.228 118.955C168.989 119.123 168.803 119.364 168.67 119.68C168.539 119.995 168.474 120.373 168.474 120.813C168.474 121.259 168.539 121.643 168.67 121.964C168.8 122.282 168.984 122.528 169.219 122.701C169.458 122.871 169.738 122.957 170.059 122.957C170.286 122.957 170.489 122.914 170.668 122.829C170.85 122.741 171.002 122.614 171.124 122.45C171.246 122.285 171.33 122.085 171.376 121.849H172.85C172.813 122.312 172.677 122.722 172.441 123.08C172.205 123.435 171.884 123.714 171.478 123.915C171.072 124.114 170.594 124.214 170.046 124.214ZM177.015 124.214C176.358 124.214 175.792 124.077 175.314 123.805C174.84 123.529 174.475 123.14 174.219 122.637C173.963 122.131 173.836 121.536 173.836 120.852C173.836 120.178 173.963 119.587 174.219 119.079C174.478 118.567 174.838 118.17 175.301 117.886C175.765 117.599 176.309 117.455 176.934 117.455C177.337 117.455 177.718 117.521 178.076 117.651C178.436 117.779 178.755 117.978 179.03 118.248C179.309 118.518 179.527 118.862 179.686 119.279C179.846 119.694 179.925 120.188 179.925 120.762V121.235H174.56V120.195H178.446C178.444 119.9 178.38 119.637 178.255 119.407C178.13 119.174 177.955 118.991 177.73 118.857C177.509 118.724 177.25 118.657 176.955 118.657C176.64 118.657 176.363 118.734 176.124 118.887C175.885 119.038 175.699 119.237 175.566 119.484C175.435 119.728 175.368 119.996 175.365 120.289V121.197C175.365 121.577 175.435 121.904 175.574 122.177C175.713 122.447 175.908 122.654 176.158 122.799C176.408 122.941 176.701 123.012 177.036 123.012C177.26 123.012 177.463 122.981 177.645 122.918C177.827 122.853 177.985 122.758 178.118 122.633C178.252 122.508 178.353 122.353 178.421 122.168L179.861 122.33C179.77 122.711 179.597 123.043 179.341 123.327C179.088 123.609 178.765 123.827 178.37 123.984C177.975 124.137 177.523 124.214 177.015 124.214ZM185.856 115.359V124.086H184.275V115.359H185.856ZM189.042 120.251V124.086H187.5V117.54H188.974V118.653H189.051C189.201 118.286 189.441 117.995 189.771 117.779C190.103 117.563 190.514 117.455 191.002 117.455C191.454 117.455 191.848 117.552 192.183 117.745C192.521 117.938 192.782 118.218 192.967 118.585C193.154 118.951 193.247 119.396 193.244 119.918V124.086H191.701V120.157C191.701 119.719 191.588 119.377 191.36 119.13C191.136 118.883 190.825 118.759 190.427 118.759C190.157 118.759 189.917 118.819 189.707 118.938C189.5 119.055 189.336 119.224 189.217 119.445C189.1 119.667 189.042 119.935 189.042 120.251ZM198.127 117.54V118.734H194.258V117.54H198.127ZM195.225 124.086V116.923C195.225 116.482 195.316 116.116 195.498 115.823C195.683 115.531 195.93 115.312 196.24 115.167C196.549 115.022 196.893 114.95 197.271 114.95C197.538 114.95 197.775 114.971 197.983 115.013C198.19 115.056 198.343 115.094 198.443 115.129L198.136 116.322C198.071 116.302 197.988 116.282 197.889 116.262C197.789 116.239 197.679 116.228 197.556 116.228C197.27 116.228 197.066 116.298 196.947 116.437C196.831 116.573 196.772 116.769 196.772 117.025V124.086H195.225ZM201.945 124.214C201.305 124.214 200.751 124.073 200.283 123.792C199.814 123.511 199.45 123.117 199.192 122.612C198.936 122.106 198.808 121.515 198.808 120.839C198.808 120.163 198.936 119.57 199.192 119.062C199.45 118.553 199.814 118.158 200.283 117.877C200.751 117.596 201.305 117.455 201.945 117.455C202.584 117.455 203.138 117.596 203.607 117.877C204.075 118.158 204.438 118.553 204.693 119.062C204.952 119.57 205.081 120.163 205.081 120.839C205.081 121.515 204.952 122.106 204.693 122.612C204.438 123.117 204.075 123.511 203.607 123.792C203.138 124.073 202.584 124.214 201.945 124.214ZM201.953 122.978C202.3 122.978 202.589 122.883 202.822 122.692C203.055 122.499 203.229 122.241 203.342 121.917C203.459 121.593 203.517 121.232 203.517 120.835C203.517 120.434 203.459 120.072 203.342 119.748C203.229 119.421 203.055 119.161 202.822 118.968C202.589 118.775 202.3 118.678 201.953 118.678C201.598 118.678 201.303 118.775 201.067 118.968C200.834 119.161 200.659 119.421 200.543 119.748C200.429 120.072 200.372 120.434 200.372 120.835C200.372 121.232 200.429 121.593 200.543 121.917C200.659 122.241 200.834 122.499 201.067 122.692C201.303 122.883 201.598 122.978 201.953 122.978ZM211.975 124.214C211.378 124.214 210.865 124.106 210.436 123.89C210.007 123.674 209.676 123.383 209.444 123.016C209.213 122.647 209.098 122.231 209.098 121.768C209.098 121.418 209.169 121.109 209.311 120.839C209.456 120.569 209.655 120.319 209.908 120.089C210.164 119.859 210.459 119.63 210.794 119.403L212.341 118.35C212.569 118.202 212.74 118.046 212.857 117.881C212.976 117.717 213.036 117.523 213.036 117.302C213.036 117.114 212.956 116.937 212.797 116.769C212.641 116.602 212.425 116.518 212.15 116.518C211.965 116.518 211.801 116.562 211.659 116.65C211.52 116.735 211.411 116.847 211.331 116.987C211.255 117.126 211.216 117.273 211.216 117.43C211.216 117.62 211.269 117.813 211.374 118.009C211.482 118.205 211.621 118.408 211.792 118.619C211.965 118.829 212.15 119.052 212.346 119.288L216.441 124.086H214.77L211.37 120.191C211.117 119.896 210.873 119.604 210.637 119.317C210.404 119.031 210.212 118.732 210.061 118.423C209.914 118.11 209.84 117.772 209.84 117.408C209.84 116.996 209.935 116.629 210.125 116.305C210.316 115.978 210.581 115.721 210.922 115.533C211.266 115.346 211.668 115.252 212.128 115.252C212.588 115.252 212.983 115.343 213.313 115.525C213.642 115.707 213.897 115.948 214.076 116.249C214.255 116.55 214.344 116.879 214.344 117.234C214.344 117.646 214.242 118.015 214.037 118.342C213.833 118.665 213.549 118.96 213.185 119.224L211.421 120.515C211.131 120.725 210.924 120.938 210.799 121.154C210.674 121.367 210.611 121.549 210.611 121.7C210.611 121.93 210.669 122.138 210.786 122.326C210.902 122.513 211.066 122.664 211.276 122.778C211.489 122.888 211.738 122.944 212.022 122.944C212.334 122.944 212.642 122.874 212.946 122.735C213.25 122.593 213.527 122.391 213.777 122.13C214.027 121.869 214.226 121.556 214.374 121.192C214.522 120.826 214.596 120.42 214.596 119.974H215.921C215.921 120.525 215.86 121.005 215.738 121.414C215.615 121.82 215.458 122.164 215.265 122.445C215.071 122.724 214.867 122.947 214.651 123.114C214.583 123.163 214.517 123.211 214.455 123.259C214.392 123.308 214.327 123.356 214.259 123.404C213.952 123.683 213.593 123.887 213.181 124.018C212.772 124.148 212.37 124.214 211.975 124.214ZM159.85 133.758C159.81 133.386 159.642 133.096 159.347 132.888C159.054 132.681 158.674 132.577 158.205 132.577C157.875 132.577 157.593 132.627 157.357 132.727C157.121 132.826 156.941 132.961 156.816 133.131C156.691 133.302 156.627 133.496 156.624 133.715C156.624 133.897 156.665 134.055 156.748 134.188C156.833 134.322 156.948 134.435 157.093 134.529C157.238 134.62 157.398 134.697 157.574 134.759C157.75 134.822 157.928 134.874 158.107 134.917L158.925 135.121C159.255 135.198 159.571 135.302 159.875 135.433C160.182 135.563 160.456 135.728 160.698 135.927C160.942 136.126 161.135 136.366 161.277 136.647C161.419 136.928 161.49 137.258 161.49 137.636C161.49 138.147 161.36 138.597 161.098 138.987C160.837 139.373 160.459 139.675 159.965 139.894C159.473 140.11 158.878 140.218 158.179 140.218C157.5 140.218 156.911 140.113 156.411 139.903C155.914 139.692 155.525 139.386 155.243 138.982C154.965 138.579 154.814 138.087 154.792 137.508H156.347C156.37 137.812 156.463 138.065 156.628 138.266C156.793 138.468 157.007 138.619 157.272 138.718C157.539 138.817 157.837 138.867 158.167 138.867C158.51 138.867 158.811 138.816 159.07 138.714C159.331 138.609 159.536 138.464 159.684 138.279C159.831 138.092 159.907 137.873 159.909 137.623C159.907 137.396 159.84 137.208 159.709 137.06C159.578 136.91 159.395 136.785 159.159 136.685C158.926 136.583 158.654 136.492 158.341 136.413L157.348 136.157C156.63 135.972 156.061 135.692 155.644 135.317C155.229 134.94 155.022 134.438 155.022 133.813C155.022 133.299 155.161 132.849 155.439 132.462C155.721 132.076 156.103 131.776 156.586 131.563C157.069 131.347 157.615 131.239 158.226 131.239C158.846 131.239 159.388 131.347 159.854 131.563C160.323 131.776 160.691 132.073 160.958 132.454C161.225 132.832 161.363 133.266 161.371 133.758H159.85ZM165.687 140.214C165.048 140.214 164.494 140.073 164.025 139.792C163.556 139.511 163.192 139.117 162.934 138.612C162.678 138.106 162.55 137.515 162.55 136.839C162.55 136.163 162.678 135.57 162.934 135.062C163.192 134.553 163.556 134.158 164.025 133.877C164.494 133.596 165.048 133.455 165.687 133.455C166.326 133.455 166.88 133.596 167.349 133.877C167.817 134.158 168.18 134.553 168.435 135.062C168.694 135.57 168.823 136.163 168.823 136.839C168.823 137.515 168.694 138.106 168.435 138.612C168.18 139.117 167.817 139.511 167.349 139.792C166.88 140.073 166.326 140.214 165.687 140.214ZM165.695 138.978C166.042 138.978 166.332 138.883 166.565 138.692C166.798 138.499 166.971 138.241 167.085 137.917C167.201 137.593 167.259 137.232 167.259 136.835C167.259 136.434 167.201 136.072 167.085 135.748C166.971 135.421 166.798 135.161 166.565 134.968C166.332 134.775 166.042 134.678 165.695 134.678C165.34 134.678 165.045 134.775 164.809 134.968C164.576 135.161 164.401 135.421 164.285 135.748C164.171 136.072 164.114 136.434 164.114 136.835C164.114 137.232 164.171 137.593 164.285 137.917C164.401 138.241 164.576 138.499 164.809 138.692C165.045 138.883 165.34 138.978 165.695 138.978ZM174.304 137.333V133.54H175.847V140.086H174.351V138.923H174.283C174.135 139.289 173.892 139.589 173.554 139.822C173.219 140.055 172.806 140.171 172.314 140.171C171.885 140.171 171.506 140.076 171.176 139.886C170.85 139.692 170.594 139.413 170.409 139.046C170.225 138.677 170.132 138.231 170.132 137.708V133.54H171.675V137.469C171.675 137.884 171.789 138.214 172.016 138.458C172.243 138.702 172.542 138.825 172.911 138.825C173.138 138.825 173.358 138.769 173.571 138.658C173.784 138.548 173.959 138.383 174.096 138.164C174.235 137.942 174.304 137.665 174.304 137.333ZM177.433 140.086V133.54H178.929V134.631H178.997C179.116 134.254 179.321 133.962 179.611 133.758C179.903 133.55 180.237 133.447 180.612 133.447C180.697 133.447 180.793 133.451 180.898 133.46C181.006 133.465 181.095 133.475 181.166 133.489V134.908C181.101 134.886 180.997 134.866 180.855 134.849C180.716 134.829 180.581 134.819 180.45 134.819C180.169 134.819 179.916 134.88 179.692 135.002C179.47 135.121 179.295 135.288 179.168 135.501C179.04 135.714 178.976 135.96 178.976 136.238V140.086H177.433ZM184.777 140.214C184.123 140.214 183.562 140.07 183.093 139.783C182.627 139.496 182.268 139.1 182.015 138.594C181.765 138.086 181.64 137.501 181.64 136.839C181.64 136.174 181.768 135.587 182.024 135.079C182.279 134.567 182.64 134.17 183.106 133.886C183.575 133.599 184.129 133.455 184.768 133.455C185.299 133.455 185.77 133.553 186.179 133.749C186.591 133.942 186.919 134.217 187.163 134.572C187.407 134.924 187.547 135.336 187.581 135.808H186.106C186.047 135.492 185.904 135.229 185.68 135.019C185.458 134.806 185.162 134.7 184.789 134.7C184.474 134.7 184.197 134.785 183.958 134.955C183.72 135.123 183.534 135.364 183.4 135.68C183.27 135.995 183.204 136.373 183.204 136.813C183.204 137.259 183.27 137.643 183.4 137.964C183.531 138.282 183.714 138.528 183.95 138.701C184.189 138.871 184.468 138.957 184.789 138.957C185.017 138.957 185.22 138.914 185.399 138.829C185.581 138.741 185.733 138.614 185.855 138.45C185.977 138.285 186.061 138.085 186.106 137.849H187.581C187.544 138.312 187.407 138.722 187.172 139.08C186.936 139.435 186.615 139.714 186.208 139.915C185.802 140.114 185.325 140.214 184.777 140.214ZM191.745 140.214C191.089 140.214 190.522 140.077 190.045 139.805C189.57 139.529 189.205 139.14 188.95 138.637C188.694 138.131 188.566 137.536 188.566 136.852C188.566 136.178 188.694 135.587 188.95 135.079C189.208 134.567 189.569 134.17 190.032 133.886C190.495 133.599 191.039 133.455 191.664 133.455C192.067 133.455 192.448 133.521 192.806 133.651C193.167 133.779 193.485 133.978 193.761 134.248C194.039 134.518 194.258 134.862 194.417 135.279C194.576 135.694 194.656 136.188 194.656 136.762V137.235H189.29V136.195H193.177C193.174 135.9 193.11 135.637 192.985 135.407C192.86 135.174 192.685 134.991 192.461 134.857C192.239 134.724 191.981 134.657 191.685 134.657C191.37 134.657 191.093 134.734 190.854 134.887C190.616 135.038 190.43 135.237 190.296 135.484C190.165 135.728 190.099 135.996 190.096 136.289V137.197C190.096 137.577 190.165 137.904 190.305 138.177C190.444 138.447 190.638 138.654 190.888 138.799C191.138 138.941 191.431 139.012 191.766 139.012C191.991 139.012 192.194 138.981 192.376 138.918C192.558 138.853 192.715 138.758 192.849 138.633C192.982 138.508 193.083 138.353 193.151 138.168L194.592 138.33C194.501 138.711 194.327 139.043 194.072 139.327C193.819 139.609 193.495 139.827 193.1 139.984C192.705 140.137 192.254 140.214 191.745 140.214ZM201.134 135.271L199.728 135.424C199.688 135.282 199.618 135.148 199.519 135.023C199.422 134.898 199.292 134.798 199.127 134.721C198.962 134.644 198.76 134.606 198.522 134.606C198.201 134.606 197.931 134.675 197.712 134.815C197.496 134.954 197.39 135.134 197.392 135.356C197.39 135.546 197.459 135.701 197.601 135.82C197.746 135.94 197.985 136.038 198.317 136.114L199.434 136.353C200.053 136.487 200.513 136.698 200.814 136.988C201.118 137.278 201.272 137.657 201.275 138.126C201.272 138.538 201.151 138.901 200.912 139.217C200.676 139.529 200.348 139.773 199.928 139.95C199.507 140.126 199.025 140.214 198.479 140.214C197.678 140.214 197.033 140.046 196.544 139.711C196.056 139.373 195.765 138.903 195.671 138.3L197.175 138.156C197.243 138.451 197.388 138.674 197.61 138.825C197.831 138.975 198.12 139.05 198.475 139.05C198.841 139.05 199.135 138.975 199.357 138.825C199.581 138.674 199.694 138.488 199.694 138.266C199.694 138.079 199.621 137.924 199.476 137.802C199.334 137.68 199.113 137.586 198.811 137.521L197.695 137.286C197.067 137.156 196.603 136.935 196.301 136.626C196 136.313 195.851 135.918 195.854 135.441C195.851 135.038 195.961 134.688 196.182 134.393C196.407 134.094 196.718 133.864 197.115 133.702C197.516 133.538 197.978 133.455 198.5 133.455C199.267 133.455 199.871 133.619 200.311 133.945C200.755 134.272 201.029 134.714 201.134 135.271Z" fill="#535862"/>
<rect x="323.5" y="68.0859" width="33" height="33" rx="16.5" fill="#E6EBF2"/>
<path d="M335.667 91.1113V89.541L339.833 85.457C340.232 85.0547 340.564 84.6973 340.83 84.3848C341.095 84.0723 341.294 83.7695 341.427 83.4766C341.56 83.1836 341.626 82.8711 341.626 82.5391C341.626 82.1602 341.541 81.8359 341.369 81.5664C341.197 81.293 340.96 81.082 340.66 80.9336C340.359 80.7852 340.017 80.7109 339.634 80.7109C339.24 80.7109 338.894 80.793 338.597 80.957C338.3 81.1172 338.07 81.3457 337.906 81.6426C337.746 81.9395 337.666 82.293 337.666 82.7031H335.597C335.597 81.9414 335.771 81.2793 336.119 80.7168C336.466 80.1543 336.945 79.7187 337.554 79.4102C338.167 79.1016 338.871 78.9473 339.664 78.9473C340.468 78.9473 341.175 79.0977 341.785 79.3984C342.394 79.6992 342.867 80.1113 343.203 80.6348C343.542 81.1582 343.712 81.7559 343.712 82.4277C343.712 82.877 343.626 83.3184 343.455 83.752C343.283 84.1855 342.98 84.666 342.546 85.1934C342.117 85.7207 341.513 86.3594 340.736 87.1094L338.667 89.2129V89.2949H343.894V91.1113H335.667Z" fill="white"/>
<path d="M324.871 124.086V115.359H328.211C328.842 115.359 329.366 115.458 329.784 115.657C330.204 115.853 330.518 116.121 330.726 116.462C330.936 116.803 331.041 117.19 331.041 117.621C331.041 117.977 330.973 118.281 330.836 118.533C330.7 118.783 330.517 118.987 330.287 119.143C330.057 119.299 329.8 119.411 329.515 119.479V119.565C329.825 119.582 330.122 119.677 330.406 119.85C330.693 120.021 330.927 120.262 331.109 120.575C331.291 120.887 331.382 121.265 331.382 121.708C331.382 122.16 331.273 122.566 331.054 122.927C330.835 123.285 330.506 123.567 330.065 123.775C329.625 123.982 329.071 124.086 328.403 124.086H324.871ZM326.452 122.765H328.152C328.726 122.765 329.139 122.656 329.392 122.437C329.648 122.215 329.775 121.931 329.775 121.585C329.775 121.326 329.711 121.093 329.584 120.886C329.456 120.675 329.274 120.511 329.038 120.391C328.802 120.269 328.521 120.208 328.194 120.208H326.452V122.765ZM326.452 119.07H328.015C328.288 119.07 328.534 119.021 328.753 118.921C328.971 118.819 329.143 118.675 329.268 118.491C329.396 118.303 329.46 118.082 329.46 117.826C329.46 117.488 329.341 117.21 329.102 116.991C328.866 116.772 328.515 116.663 328.05 116.663H326.452V119.07ZM336.861 121.333V117.54H338.404V124.086H336.908V122.923H336.84C336.692 123.289 336.449 123.589 336.111 123.822C335.776 124.055 335.362 124.171 334.871 124.171C334.442 124.171 334.063 124.076 333.733 123.886C333.406 123.692 333.151 123.413 332.966 123.046C332.781 122.677 332.689 122.231 332.689 121.708V117.54H334.232V121.469C334.232 121.884 334.345 122.214 334.573 122.458C334.8 122.702 335.098 122.825 335.468 122.825C335.695 122.825 335.915 122.769 336.128 122.658C336.341 122.548 336.516 122.383 336.652 122.164C336.791 121.942 336.861 121.665 336.861 121.333ZM339.99 124.086V117.54H341.532V124.086H339.99ZM340.765 116.612C340.521 116.612 340.311 116.531 340.135 116.369C339.959 116.204 339.871 116.006 339.871 115.776C339.871 115.543 339.959 115.346 340.135 115.184C340.311 115.019 340.521 114.937 340.765 114.937C341.013 114.937 341.223 115.019 341.396 115.184C341.572 115.346 341.66 115.543 341.66 115.776C341.66 116.006 341.572 116.204 341.396 116.369C341.223 116.531 341.013 116.612 340.765 116.612ZM344.661 115.359V124.086H343.119V115.359H344.661ZM348.677 124.201C348.162 124.201 347.702 124.069 347.296 123.805C346.89 123.54 346.569 123.157 346.333 122.654C346.097 122.151 345.979 121.54 345.979 120.822C345.979 120.094 346.099 119.481 346.337 118.981C346.579 118.478 346.904 118.099 347.313 117.843C347.722 117.585 348.178 117.455 348.681 117.455C349.064 117.455 349.38 117.521 349.627 117.651C349.874 117.779 350.07 117.934 350.215 118.116C350.36 118.295 350.472 118.464 350.552 118.623H350.616V115.359H352.162V124.086H350.645V123.055H350.552C350.472 123.214 350.357 123.383 350.206 123.562C350.056 123.738 349.857 123.888 349.61 124.013C349.363 124.138 349.052 124.201 348.677 124.201ZM349.107 122.935C349.434 122.935 349.712 122.847 349.942 122.671C350.172 122.492 350.347 122.244 350.466 121.925C350.586 121.607 350.645 121.237 350.645 120.813C350.645 120.39 350.586 120.022 350.466 119.71C350.35 119.397 350.177 119.154 349.947 118.981C349.719 118.808 349.439 118.721 349.107 118.721C348.763 118.721 348.476 118.81 348.246 118.989C348.016 119.168 347.843 119.415 347.726 119.731C347.61 120.046 347.552 120.407 347.552 120.813C347.552 121.222 347.61 121.587 347.726 121.908C347.846 122.227 348.02 122.478 348.251 122.663C348.483 122.844 348.769 122.935 349.107 122.935ZM308.423 134.303H306.829C306.784 134.042 306.7 133.81 306.578 133.609C306.455 133.404 306.303 133.231 306.122 133.089C305.94 132.947 305.732 132.84 305.499 132.769C305.269 132.695 305.021 132.658 304.754 132.658C304.279 132.658 303.859 132.778 303.492 133.016C303.126 133.252 302.839 133.599 302.632 134.056C302.424 134.511 302.32 135.066 302.32 135.722C302.32 136.39 302.424 136.952 302.632 137.41C302.842 137.864 303.129 138.208 303.492 138.441C303.859 138.671 304.278 138.786 304.749 138.786C305.011 138.786 305.255 138.752 305.482 138.684C305.713 138.613 305.919 138.509 306.1 138.373C306.285 138.237 306.44 138.069 306.565 137.87C306.693 137.671 306.781 137.444 306.829 137.188L308.423 137.197C308.363 137.612 308.234 138.001 308.035 138.364C307.839 138.728 307.582 139.049 307.264 139.327C306.945 139.603 306.573 139.819 306.147 139.975C305.721 140.129 305.248 140.205 304.728 140.205C303.961 140.205 303.276 140.028 302.674 139.673C302.072 139.317 301.597 138.805 301.251 138.134C300.904 137.464 300.731 136.66 300.731 135.722C300.731 134.782 300.906 133.978 301.255 133.31C301.605 132.64 302.08 132.127 302.683 131.772C303.285 131.417 303.967 131.239 304.728 131.239C305.214 131.239 305.666 131.308 306.083 131.444C306.501 131.58 306.873 131.781 307.2 132.045C307.526 132.306 307.795 132.627 308.005 133.008C308.218 133.386 308.357 133.817 308.423 134.303ZM312.657 140.214C312.018 140.214 311.464 140.073 310.996 139.792C310.527 139.511 310.163 139.117 309.905 138.612C309.649 138.106 309.521 137.515 309.521 136.839C309.521 136.163 309.649 135.57 309.905 135.062C310.163 134.553 310.527 134.158 310.996 133.877C311.464 133.596 312.018 133.455 312.657 133.455C313.297 133.455 313.851 133.596 314.319 133.877C314.788 134.158 315.15 134.553 315.406 135.062C315.665 135.57 315.794 136.163 315.794 136.839C315.794 137.515 315.665 138.106 315.406 138.612C315.15 139.117 314.788 139.511 314.319 139.792C313.851 140.073 313.297 140.214 312.657 140.214ZM312.666 138.978C313.013 138.978 313.302 138.883 313.535 138.692C313.768 138.499 313.942 138.241 314.055 137.917C314.172 137.593 314.23 137.232 314.23 136.835C314.23 136.434 314.172 136.072 314.055 135.748C313.942 135.421 313.768 135.161 313.535 134.968C313.302 134.775 313.013 134.678 312.666 134.678C312.311 134.678 312.015 134.775 311.78 134.968C311.547 135.161 311.372 135.421 311.256 135.748C311.142 136.072 311.085 136.434 311.085 136.835C311.085 137.232 311.142 137.593 311.256 137.917C311.372 138.241 311.547 138.499 311.78 138.692C312.015 138.883 312.311 138.978 312.666 138.978ZM318.646 136.251V140.086H317.103V133.54H318.578V134.653H318.654C318.805 134.286 319.045 133.995 319.374 133.779C319.707 133.563 320.117 133.455 320.606 133.455C321.058 133.455 321.451 133.552 321.786 133.745C322.124 133.938 322.386 134.218 322.57 134.585C322.758 134.951 322.85 135.396 322.847 135.918V140.086H321.305V136.157C321.305 135.719 321.191 135.377 320.964 135.13C320.74 134.883 320.428 134.759 320.031 134.759C319.761 134.759 319.521 134.819 319.311 134.938C319.103 135.055 318.94 135.224 318.82 135.445C318.704 135.667 318.646 135.935 318.646 136.251ZM327.731 133.54V134.734H323.862V133.54H327.731ZM324.829 140.086V132.923C324.829 132.482 324.92 132.116 325.102 131.823C325.286 131.531 325.534 131.312 325.843 131.167C326.153 131.022 326.497 130.95 326.874 130.95C327.142 130.95 327.379 130.971 327.586 131.013C327.794 131.056 327.947 131.094 328.046 131.129L327.74 132.322C327.674 132.302 327.592 132.282 327.492 132.262C327.393 132.239 327.282 132.228 327.16 132.228C326.873 132.228 326.67 132.298 326.551 132.437C326.434 132.573 326.376 132.769 326.376 133.025V140.086H324.829ZM328.939 140.086V133.54H330.482V140.086H328.939ZM329.715 132.612C329.47 132.612 329.26 132.531 329.084 132.369C328.908 132.204 328.82 132.006 328.82 131.776C328.82 131.543 328.908 131.346 329.084 131.184C329.26 131.019 329.47 130.937 329.715 130.937C329.962 130.937 330.172 131.019 330.345 131.184C330.521 131.346 330.61 131.543 330.61 131.776C330.61 132.006 330.521 132.204 330.345 132.369C330.172 132.531 329.962 132.612 329.715 132.612ZM334.915 142.677C334.361 142.677 333.885 142.602 333.487 142.451C333.089 142.303 332.77 142.104 332.528 141.854C332.287 141.604 332.119 141.327 332.025 141.023L333.415 140.687C333.477 140.815 333.568 140.941 333.687 141.066C333.807 141.194 333.967 141.299 334.169 141.381C334.373 141.467 334.631 141.509 334.94 141.509C335.378 141.509 335.74 141.403 336.027 141.19C336.314 140.979 336.457 140.633 336.457 140.15V138.91H336.381C336.301 139.069 336.184 139.232 336.031 139.4C335.881 139.567 335.68 139.708 335.43 139.822C335.183 139.935 334.872 139.992 334.497 139.992C333.994 139.992 333.538 139.874 333.129 139.638C332.723 139.4 332.399 139.045 332.157 138.573C331.919 138.099 331.8 137.505 331.8 136.792C331.8 136.073 331.919 135.467 332.157 134.972C332.399 134.475 332.724 134.099 333.133 133.843C333.542 133.585 333.998 133.455 334.501 133.455C334.885 133.455 335.2 133.521 335.447 133.651C335.697 133.779 335.896 133.934 336.044 134.116C336.192 134.295 336.304 134.464 336.381 134.623H336.466V133.54H337.987V140.192C337.987 140.752 337.854 141.215 337.586 141.582C337.319 141.948 336.954 142.222 336.491 142.404C336.028 142.586 335.503 142.677 334.915 142.677ZM334.927 138.782C335.254 138.782 335.532 138.702 335.763 138.543C335.993 138.384 336.167 138.156 336.287 137.857C336.406 137.559 336.466 137.201 336.466 136.783C336.466 136.371 336.406 136.011 336.287 135.701C336.17 135.391 335.997 135.151 335.767 134.981C335.54 134.808 335.26 134.721 334.927 134.721C334.584 134.721 334.297 134.81 334.067 134.989C333.836 135.168 333.663 135.414 333.547 135.727C333.43 136.036 333.372 136.388 333.372 136.783C333.372 137.184 333.43 137.535 333.547 137.836C333.666 138.134 333.841 138.367 334.071 138.535C334.304 138.7 334.589 138.782 334.927 138.782ZM343.74 137.333V133.54H345.282V140.086H343.787V138.923H343.719C343.571 139.289 343.328 139.589 342.99 139.822C342.655 140.055 342.241 140.171 341.75 140.171C341.321 140.171 340.942 140.076 340.612 139.886C340.285 139.692 340.03 139.413 339.845 139.046C339.66 138.677 339.568 138.231 339.568 137.708V133.54H341.111V137.469C341.111 137.884 341.224 138.214 341.452 138.458C341.679 138.702 341.977 138.825 342.346 138.825C342.574 138.825 342.794 138.769 343.007 138.658C343.22 138.548 343.395 138.383 343.531 138.164C343.67 137.942 343.74 137.665 343.74 137.333ZM346.869 140.086V133.54H348.365V134.631H348.433C348.552 134.254 348.757 133.962 349.046 133.758C349.339 133.55 349.673 133.447 350.048 133.447C350.133 133.447 350.228 133.451 350.333 133.46C350.441 133.465 350.531 133.475 350.602 133.489V134.908C350.536 134.886 350.433 134.866 350.291 134.849C350.151 134.829 350.017 134.819 349.886 134.819C349.605 134.819 349.352 134.88 349.127 135.002C348.906 135.121 348.731 135.288 348.603 135.501C348.475 135.714 348.411 135.96 348.411 136.238V140.086H346.869ZM353.393 140.218C352.978 140.218 352.605 140.144 352.272 139.996C351.943 139.846 351.681 139.624 351.488 139.332C351.298 139.039 351.203 138.678 351.203 138.249C351.203 137.88 351.271 137.575 351.407 137.333C351.544 137.092 351.73 136.898 351.965 136.754C352.201 136.609 352.467 136.499 352.762 136.425C353.061 136.349 353.369 136.293 353.687 136.259C354.07 136.219 354.382 136.184 354.62 136.153C354.859 136.119 355.032 136.067 355.14 135.999C355.251 135.928 355.306 135.819 355.306 135.671V135.646C355.306 135.325 355.211 135.076 355.021 134.9C354.83 134.724 354.556 134.636 354.198 134.636C353.82 134.636 353.521 134.718 353.299 134.883C353.08 135.048 352.933 135.242 352.856 135.467L351.416 135.262C351.529 134.864 351.717 134.532 351.978 134.265C352.24 133.995 352.559 133.793 352.937 133.66C353.315 133.523 353.732 133.455 354.19 133.455C354.505 133.455 354.819 133.492 355.132 133.566C355.444 133.64 355.73 133.762 355.988 133.933C356.247 134.1 356.454 134.329 356.61 134.619C356.769 134.908 356.849 135.271 356.849 135.705V140.086H355.366V139.187H355.315C355.221 139.369 355.089 139.539 354.919 139.698C354.751 139.854 354.539 139.981 354.284 140.077C354.031 140.171 353.734 140.218 353.393 140.218ZM353.794 139.085C354.103 139.085 354.372 139.023 354.599 138.901C354.826 138.776 355.001 138.612 355.123 138.407C355.248 138.202 355.311 137.979 355.311 137.738V136.967C355.262 137.006 355.18 137.043 355.063 137.077C354.95 137.112 354.822 137.141 354.68 137.167C354.538 137.192 354.397 137.215 354.258 137.235C354.119 137.255 353.998 137.272 353.896 137.286C353.666 137.317 353.46 137.369 353.278 137.44C353.096 137.511 352.953 137.61 352.847 137.738C352.742 137.863 352.69 138.025 352.69 138.224C352.69 138.508 352.794 138.722 353.001 138.867C353.208 139.012 353.472 139.085 353.794 139.085ZM361.669 133.54V134.734H357.906V133.54H361.669ZM358.835 131.972H360.377V138.117C360.377 138.325 360.409 138.484 360.471 138.594C360.536 138.702 360.622 138.776 360.727 138.816C360.832 138.856 360.948 138.876 361.076 138.876C361.173 138.876 361.261 138.869 361.34 138.854C361.423 138.84 361.485 138.827 361.528 138.816L361.788 140.022C361.705 140.05 361.588 140.082 361.434 140.116C361.284 140.15 361.099 140.17 360.88 140.175C360.494 140.187 360.146 140.129 359.836 140.001C359.526 139.87 359.281 139.668 359.099 139.396C358.92 139.123 358.832 138.782 358.835 138.373V131.972ZM362.959 140.086V133.54H364.501V140.086H362.959ZM363.734 132.612C363.49 132.612 363.28 132.531 363.104 132.369C362.927 132.204 362.839 132.006 362.839 131.776C362.839 131.543 362.927 131.346 363.104 131.184C363.28 131.019 363.49 130.937 363.734 130.937C363.981 130.937 364.192 131.019 364.365 131.184C364.541 131.346 364.629 131.543 364.629 131.776C364.629 132.006 364.541 132.204 364.365 132.369C364.192 132.531 363.981 132.612 363.734 132.612ZM368.943 140.214C368.303 140.214 367.749 140.073 367.281 139.792C366.812 139.511 366.448 139.117 366.19 138.612C365.934 138.106 365.806 137.515 365.806 136.839C365.806 136.163 365.934 135.57 366.19 135.062C366.448 134.553 366.812 134.158 367.281 133.877C367.749 133.596 368.303 133.455 368.943 133.455C369.582 133.455 370.136 133.596 370.605 133.877C371.073 134.158 371.436 134.553 371.691 135.062C371.95 135.57 372.079 136.163 372.079 136.839C372.079 137.515 371.95 138.106 371.691 138.612C371.436 139.117 371.073 139.511 370.605 139.792C370.136 140.073 369.582 140.214 368.943 140.214ZM368.951 138.978C369.298 138.978 369.588 138.883 369.82 138.692C370.053 138.499 370.227 138.241 370.34 137.917C370.457 137.593 370.515 137.232 370.515 136.835C370.515 136.434 370.457 136.072 370.34 135.748C370.227 135.421 370.053 135.161 369.82 134.968C369.588 134.775 369.298 134.678 368.951 134.678C368.596 134.678 368.301 134.775 368.065 134.968C367.832 135.161 367.657 135.421 367.541 135.748C367.427 136.072 367.37 136.434 367.37 136.835C367.37 137.232 367.427 137.593 367.541 137.917C367.657 138.241 367.832 138.499 368.065 138.692C368.301 138.883 368.596 138.978 368.951 138.978ZM374.931 136.251V140.086H373.388V133.54H374.863V134.653H374.939C375.09 134.286 375.33 133.995 375.66 133.779C375.992 133.563 376.403 133.455 376.891 133.455C377.343 133.455 377.736 133.552 378.072 133.745C378.41 133.938 378.671 134.218 378.856 134.585C379.043 134.951 379.135 135.396 379.133 135.918V140.086H377.59V136.157C377.59 135.719 377.476 135.377 377.249 135.13C377.025 134.883 376.714 134.759 376.316 134.759C376.046 134.759 375.806 134.819 375.596 134.938C375.388 135.055 375.225 135.224 375.106 135.445C374.989 135.667 374.931 135.935 374.931 136.251Z" fill="#A6AFC1"/>
<rect x="483.5" y="68.0859" width="33" height="33" rx="16.5" fill="#E6EBF2"/>
<path d="M499.724 91.2754C498.881 91.2754 498.131 91.1309 497.474 90.8418C496.822 90.5527 496.306 90.1504 495.927 89.6348C495.549 89.1191 495.347 88.5234 495.324 87.8477H497.527C497.547 88.1719 497.654 88.4551 497.849 88.6973C498.045 88.9355 498.304 89.1211 498.629 89.2539C498.953 89.3867 499.316 89.4531 499.719 89.4531C500.148 89.4531 500.529 89.3789 500.861 89.2305C501.193 89.0781 501.453 88.8672 501.64 88.5977C501.828 88.3281 501.92 88.0176 501.916 87.666C501.92 87.3027 501.826 86.9824 501.635 86.7051C501.443 86.4277 501.166 86.2109 500.802 86.0547C500.443 85.8984 500.01 85.8203 499.502 85.8203H498.441V84.1445H499.502C499.92 84.1445 500.285 84.0723 500.597 83.9277C500.914 83.7832 501.162 83.5801 501.342 83.3184C501.521 83.0527 501.609 82.7461 501.605 82.3984C501.609 82.0586 501.533 81.7637 501.377 81.5137C501.224 81.2598 501.008 81.0625 500.726 80.9219C500.449 80.7812 500.123 80.7109 499.748 80.7109C499.381 80.7109 499.041 80.7773 498.728 80.9102C498.416 81.043 498.164 81.2324 497.972 81.4785C497.781 81.7207 497.679 82.0098 497.668 82.3457H495.576C495.592 81.6738 495.785 81.084 496.156 80.5762C496.531 80.0645 497.031 79.666 497.656 79.3809C498.281 79.0918 498.982 78.9473 499.76 78.9473C500.56 78.9473 501.256 79.0977 501.845 79.3984C502.439 79.6953 502.898 80.0957 503.222 80.5996C503.547 81.1035 503.709 81.6602 503.709 82.2695C503.713 82.9453 503.513 83.5117 503.111 83.9687C502.713 84.4258 502.189 84.7246 501.541 84.8652V84.959C502.385 85.0762 503.031 85.3887 503.48 85.8965C503.933 86.4004 504.158 87.0273 504.154 87.7773C504.154 88.4492 503.963 89.0508 503.58 89.582C503.201 90.1094 502.677 90.5234 502.01 90.8242C501.345 91.125 500.584 91.2754 499.724 91.2754Z" fill="white"/>
<path d="M467.238 124.086H464.281V115.359H467.298C468.164 115.359 468.909 115.533 469.531 115.883C470.156 116.229 470.636 116.728 470.971 117.379C471.306 118.029 471.474 118.808 471.474 119.714C471.474 120.623 471.305 121.404 470.967 122.058C470.632 122.711 470.147 123.212 469.514 123.562C468.883 123.911 468.124 124.086 467.238 124.086ZM465.862 122.718H467.161C467.769 122.718 468.276 122.607 468.683 122.386C469.089 122.161 469.394 121.827 469.599 121.384C469.803 120.938 469.906 120.381 469.906 119.714C469.906 119.046 469.803 118.492 469.599 118.052C469.394 117.609 469.092 117.278 468.691 117.059C468.294 116.837 467.799 116.727 467.208 116.727H465.862V122.718ZM475.806 124.214C475.149 124.214 474.583 124.077 474.105 123.805C473.631 123.529 473.266 123.14 473.01 122.637C472.754 122.131 472.627 121.536 472.627 120.852C472.627 120.178 472.754 119.587 473.01 119.079C473.269 118.567 473.629 118.17 474.093 117.886C474.556 117.599 475.1 117.455 475.725 117.455C476.128 117.455 476.509 117.521 476.867 117.651C477.227 117.779 477.546 117.978 477.821 118.248C478.1 118.518 478.318 118.862 478.477 119.279C478.637 119.694 478.716 120.188 478.716 120.762V121.235H473.351V120.195H477.237C477.235 119.9 477.171 119.637 477.046 119.407C476.921 119.174 476.746 118.991 476.521 118.857C476.3 118.724 476.041 118.657 475.746 118.657C475.431 118.657 475.154 118.734 474.915 118.887C474.676 119.038 474.49 119.237 474.357 119.484C474.226 119.728 474.159 119.996 474.156 120.289V121.197C474.156 121.577 474.226 121.904 474.365 122.177C474.504 122.447 474.699 122.654 474.949 122.799C475.199 122.941 475.492 123.012 475.827 123.012C476.051 123.012 476.254 122.981 476.436 122.918C476.618 122.853 476.776 122.758 476.909 122.633C477.043 122.508 477.144 122.353 477.212 122.168L478.652 122.33C478.561 122.711 478.388 123.043 478.132 123.327C477.879 123.609 477.556 123.827 477.161 123.984C476.766 124.137 476.314 124.214 475.806 124.214ZM480.021 126.54V117.54H481.538V118.623H481.628C481.707 118.464 481.819 118.295 481.964 118.116C482.109 117.934 482.305 117.779 482.552 117.651C482.8 117.521 483.115 117.455 483.498 117.455C484.004 117.455 484.46 117.585 484.866 117.843C485.275 118.099 485.599 118.478 485.838 118.981C486.079 119.481 486.2 120.094 486.2 120.822C486.2 121.54 486.082 122.151 485.846 122.654C485.611 123.157 485.29 123.54 484.883 123.805C484.477 124.069 484.017 124.201 483.503 124.201C483.128 124.201 482.817 124.138 482.569 124.013C482.322 123.888 482.123 123.738 481.973 123.562C481.825 123.383 481.71 123.214 481.628 123.055H481.564V126.54H480.021ZM481.534 120.813C481.534 121.237 481.594 121.607 481.713 121.925C481.835 122.244 482.01 122.492 482.237 122.671C482.467 122.847 482.746 122.935 483.072 122.935C483.413 122.935 483.699 122.844 483.929 122.663C484.159 122.478 484.332 122.227 484.449 121.908C484.568 121.587 484.628 121.222 484.628 120.813C484.628 120.407 484.569 120.046 484.453 119.731C484.336 119.415 484.163 119.168 483.933 118.989C483.703 118.81 483.416 118.721 483.072 118.721C482.743 118.721 482.463 118.808 482.233 118.981C482.003 119.154 481.828 119.397 481.709 119.71C481.592 120.022 481.534 120.39 481.534 120.813ZM489.064 115.359V124.086H487.521V115.359H489.064ZM493.505 124.214C492.866 124.214 492.312 124.073 491.843 123.792C491.374 123.511 491.011 123.117 490.752 122.612C490.497 122.106 490.369 121.515 490.369 120.839C490.369 120.163 490.497 119.57 490.752 119.062C491.011 118.553 491.374 118.158 491.843 117.877C492.312 117.596 492.866 117.455 493.505 117.455C494.144 117.455 494.698 117.596 495.167 117.877C495.636 118.158 495.998 118.553 496.254 119.062C496.512 119.57 496.642 120.163 496.642 120.839C496.642 121.515 496.512 122.106 496.254 122.612C495.998 123.117 495.636 123.511 495.167 123.792C494.698 124.073 494.144 124.214 493.505 124.214ZM493.514 122.978C493.86 122.978 494.15 122.883 494.383 122.692C494.616 122.499 494.789 122.241 494.903 121.917C495.019 121.593 495.078 121.232 495.078 120.835C495.078 120.434 495.019 120.072 494.903 119.748C494.789 119.421 494.616 119.161 494.383 118.968C494.15 118.775 493.86 118.678 493.514 118.678C493.159 118.678 492.863 118.775 492.627 118.968C492.394 119.161 492.22 119.421 492.103 119.748C491.99 120.072 491.933 120.434 491.933 120.835C491.933 121.232 491.99 121.593 492.103 121.917C492.22 122.241 492.394 122.499 492.627 122.692C492.863 122.883 493.159 122.978 493.514 122.978ZM498.687 126.54C498.477 126.54 498.282 126.523 498.103 126.489C497.927 126.458 497.786 126.421 497.681 126.379L498.039 125.177C498.264 125.242 498.464 125.273 498.64 125.271C498.816 125.268 498.971 125.212 499.105 125.104C499.241 124.999 499.356 124.823 499.45 124.576L499.582 124.222L497.208 117.54H498.845L500.353 122.484H500.421L501.934 117.54H503.575L500.954 124.879C500.832 125.225 500.67 125.522 500.468 125.769C500.267 126.019 500.019 126.21 499.727 126.34C499.437 126.474 499.09 126.54 498.687 126.54ZM504.642 124.086V117.54H506.117V118.653H506.193C506.33 118.278 506.556 117.985 506.871 117.775C507.186 117.562 507.563 117.455 508 117.455C508.443 117.455 508.817 117.563 509.121 117.779C509.428 117.992 509.644 118.283 509.769 118.653H509.837C509.982 118.289 510.226 117.999 510.57 117.783C510.916 117.565 511.327 117.455 511.801 117.455C512.404 117.455 512.895 117.646 513.276 118.026C513.656 118.407 513.847 118.962 513.847 119.692V124.086H512.3V119.931C512.3 119.525 512.192 119.228 511.976 119.04C511.76 118.85 511.496 118.755 511.183 118.755C510.811 118.755 510.52 118.871 510.31 119.104C510.102 119.335 509.999 119.634 509.999 120.004V124.086H508.486V119.867C508.486 119.529 508.384 119.259 508.179 119.058C507.977 118.856 507.713 118.755 507.387 118.755C507.165 118.755 506.963 118.812 506.781 118.925C506.6 119.036 506.455 119.194 506.347 119.398C506.239 119.6 506.185 119.836 506.185 120.106V124.086H504.642ZM518.309 124.214C517.653 124.214 517.086 124.077 516.609 123.805C516.135 123.529 515.77 123.14 515.514 122.637C515.258 122.131 515.131 121.536 515.131 120.852C515.131 120.178 515.258 119.587 515.514 119.079C515.773 118.567 516.133 118.17 516.596 117.886C517.059 117.599 517.604 117.455 518.229 117.455C518.632 117.455 519.013 117.521 519.371 117.651C519.731 117.779 520.05 117.978 520.325 118.248C520.604 118.518 520.822 118.862 520.981 119.279C521.14 119.694 521.22 120.188 521.22 120.762V121.235H515.855V120.195H519.741C519.738 119.9 519.675 119.637 519.55 119.407C519.425 119.174 519.25 118.991 519.025 118.857C518.804 118.724 518.545 118.657 518.25 118.657C517.934 118.657 517.657 118.734 517.419 118.887C517.18 119.038 516.994 119.237 516.861 119.484C516.73 119.728 516.663 119.996 516.66 120.289V121.197C516.66 121.577 516.73 121.904 516.869 122.177C517.008 122.447 517.203 122.654 517.453 122.799C517.703 122.941 517.996 123.012 518.331 123.012C518.555 123.012 518.758 122.981 518.94 122.918C519.122 122.853 519.28 122.758 519.413 122.633C519.547 122.508 519.648 122.353 519.716 122.168L521.156 122.33C521.065 122.711 520.892 123.043 520.636 123.327C520.383 123.609 520.059 123.827 519.665 123.984C519.27 124.137 518.818 124.214 518.309 124.214ZM524.068 120.251V124.086H522.525V117.54H523.999V118.653H524.076C524.227 118.286 524.467 117.995 524.796 117.779C525.129 117.563 525.539 117.455 526.028 117.455C526.48 117.455 526.873 117.552 527.208 117.745C527.546 117.938 527.808 118.218 527.992 118.585C528.18 118.951 528.272 119.396 528.269 119.918V124.086H526.727V120.157C526.727 119.719 526.613 119.377 526.386 119.13C526.161 118.883 525.85 118.759 525.453 118.759C525.183 118.759 524.943 118.819 524.732 118.938C524.525 119.055 524.362 119.224 524.242 119.445C524.126 119.667 524.068 119.935 524.068 120.251ZM533.106 117.54V118.734H529.343V117.54H533.106ZM530.272 115.972H531.815V122.117C531.815 122.325 531.846 122.484 531.909 122.594C531.974 122.702 532.059 122.776 532.164 122.816C532.269 122.856 532.386 122.876 532.514 122.876C532.61 122.876 532.698 122.869 532.778 122.854C532.86 122.84 532.923 122.827 532.965 122.816L533.225 124.022C533.143 124.05 533.025 124.082 532.872 124.116C532.721 124.15 532.536 124.17 532.318 124.175C531.931 124.187 531.583 124.129 531.274 124.001C530.964 123.87 530.718 123.668 530.536 123.396C530.357 123.123 530.269 122.782 530.272 122.373V115.972ZM468.423 134.303H466.829C466.784 134.042 466.7 133.81 466.578 133.609C466.455 133.404 466.303 133.231 466.122 133.089C465.94 132.947 465.732 132.84 465.499 132.769C465.269 132.695 465.021 132.658 464.754 132.658C464.279 132.658 463.859 132.778 463.492 133.016C463.126 133.252 462.839 133.599 462.632 134.056C462.424 134.511 462.32 135.066 462.32 135.722C462.32 136.39 462.424 136.952 462.632 137.41C462.842 137.864 463.129 138.208 463.492 138.441C463.859 138.671 464.278 138.786 464.749 138.786C465.011 138.786 465.255 138.752 465.482 138.684C465.713 138.613 465.919 138.509 466.1 138.373C466.285 138.237 466.44 138.069 466.565 137.87C466.693 137.671 466.781 137.444 466.829 137.188L468.423 137.197C468.363 137.612 468.234 138.001 468.035 138.364C467.839 138.728 467.582 139.049 467.264 139.327C466.945 139.603 466.573 139.819 466.147 139.975C465.721 140.129 465.248 140.205 464.728 140.205C463.961 140.205 463.276 140.028 462.674 139.673C462.072 139.317 461.597 138.805 461.251 138.134C460.904 137.464 460.731 136.66 460.731 135.722C460.731 134.782 460.906 133.978 461.255 133.31C461.605 132.64 462.08 132.127 462.683 131.772C463.285 131.417 463.967 131.239 464.728 131.239C465.214 131.239 465.666 131.308 466.083 131.444C466.501 131.58 466.873 131.781 467.2 132.045C467.526 132.306 467.795 132.627 468.005 133.008C468.218 133.386 468.357 133.817 468.423 134.303ZM472.657 140.214C472.018 140.214 471.464 140.073 470.996 139.792C470.527 139.511 470.163 139.117 469.905 138.612C469.649 138.106 469.521 137.515 469.521 136.839C469.521 136.163 469.649 135.57 469.905 135.062C470.163 134.553 470.527 134.158 470.996 133.877C471.464 133.596 472.018 133.455 472.657 133.455C473.297 133.455 473.851 133.596 474.319 133.877C474.788 134.158 475.15 134.553 475.406 135.062C475.665 135.57 475.794 136.163 475.794 136.839C475.794 137.515 475.665 138.106 475.406 138.612C475.15 139.117 474.788 139.511 474.319 139.792C473.851 140.073 473.297 140.214 472.657 140.214ZM472.666 138.978C473.013 138.978 473.302 138.883 473.535 138.692C473.768 138.499 473.942 138.241 474.055 137.917C474.172 137.593 474.23 137.232 474.23 136.835C474.23 136.434 474.172 136.072 474.055 135.748C473.942 135.421 473.768 135.161 473.535 134.968C473.302 134.775 473.013 134.678 472.666 134.678C472.311 134.678 472.015 134.775 471.78 134.968C471.547 135.161 471.372 135.421 471.256 135.748C471.142 136.072 471.085 136.434 471.085 136.835C471.085 137.232 471.142 137.593 471.256 137.917C471.372 138.241 471.547 138.499 471.78 138.692C472.015 138.883 472.311 138.978 472.666 138.978ZM478.646 136.251V140.086H477.103V133.54H478.578V134.653H478.654C478.805 134.286 479.045 133.995 479.374 133.779C479.707 133.563 480.117 133.455 480.606 133.455C481.058 133.455 481.451 133.552 481.786 133.745C482.124 133.938 482.386 134.218 482.57 134.585C482.758 134.951 482.85 135.396 482.847 135.918V140.086H481.305V136.157C481.305 135.719 481.191 135.377 480.964 135.13C480.74 134.883 480.428 134.759 480.031 134.759C479.761 134.759 479.521 134.819 479.311 134.938C479.103 135.055 478.94 135.224 478.82 135.445C478.704 135.667 478.646 135.935 478.646 136.251ZM487.731 133.54V134.734H483.862V133.54H487.731ZM484.829 140.086V132.923C484.829 132.482 484.92 132.116 485.102 131.823C485.286 131.531 485.534 131.312 485.843 131.167C486.153 131.022 486.497 130.95 486.874 130.95C487.142 130.95 487.379 130.971 487.586 131.013C487.794 131.056 487.947 131.094 488.046 131.129L487.74 132.322C487.674 132.302 487.592 132.282 487.492 132.262C487.393 132.239 487.282 132.228 487.16 132.228C486.873 132.228 486.67 132.298 486.551 132.437C486.434 132.573 486.376 132.769 486.376 133.025V140.086H484.829ZM488.939 140.086V133.54H490.482V140.086H488.939ZM489.715 132.612C489.47 132.612 489.26 132.531 489.084 132.369C488.908 132.204 488.82 132.006 488.82 131.776C488.82 131.543 488.908 131.346 489.084 131.184C489.26 131.019 489.47 130.937 489.715 130.937C489.962 130.937 490.172 131.019 490.345 131.184C490.521 131.346 490.61 131.543 490.61 131.776C490.61 132.006 490.521 132.204 490.345 132.369C490.172 132.531 489.962 132.612 489.715 132.612ZM494.915 142.677C494.361 142.677 493.885 142.602 493.487 142.451C493.089 142.303 492.77 142.104 492.528 141.854C492.287 141.604 492.119 141.327 492.025 141.023L493.415 140.687C493.477 140.815 493.568 140.941 493.687 141.066C493.807 141.194 493.967 141.299 494.169 141.381C494.373 141.467 494.631 141.509 494.94 141.509C495.378 141.509 495.74 141.403 496.027 141.19C496.314 140.979 496.457 140.633 496.457 140.15V138.91H496.381C496.301 139.069 496.184 139.232 496.031 139.4C495.881 139.567 495.68 139.708 495.43 139.822C495.183 139.935 494.872 139.992 494.497 139.992C493.994 139.992 493.538 139.874 493.129 139.638C492.723 139.4 492.399 139.045 492.157 138.573C491.919 138.099 491.8 137.505 491.8 136.792C491.8 136.073 491.919 135.467 492.157 134.972C492.399 134.475 492.724 134.099 493.133 133.843C493.542 133.585 493.998 133.455 494.501 133.455C494.885 133.455 495.2 133.521 495.447 133.651C495.697 133.779 495.896 133.934 496.044 134.116C496.192 134.295 496.304 134.464 496.381 134.623H496.466V133.54H497.987V140.192C497.987 140.752 497.854 141.215 497.586 141.582C497.319 141.948 496.954 142.222 496.491 142.404C496.028 142.586 495.503 142.677 494.915 142.677ZM494.927 138.782C495.254 138.782 495.532 138.702 495.763 138.543C495.993 138.384 496.167 138.156 496.287 137.857C496.406 137.559 496.466 137.201 496.466 136.783C496.466 136.371 496.406 136.011 496.287 135.701C496.17 135.391 495.997 135.151 495.767 134.981C495.54 134.808 495.26 134.721 494.927 134.721C494.584 134.721 494.297 134.81 494.067 134.989C493.836 135.168 493.663 135.414 493.547 135.727C493.43 136.036 493.372 136.388 493.372 136.783C493.372 137.184 493.43 137.535 493.547 137.836C493.666 138.134 493.841 138.367 494.071 138.535C494.304 138.7 494.589 138.782 494.927 138.782ZM503.74 137.333V133.54H505.282V140.086H503.787V138.923H503.719C503.571 139.289 503.328 139.589 502.99 139.822C502.655 140.055 502.241 140.171 501.75 140.171C501.321 140.171 500.942 140.076 500.612 139.886C500.285 139.692 500.03 139.413 499.845 139.046C499.66 138.677 499.568 138.231 499.568 137.708V133.54H501.111V137.469C501.111 137.884 501.224 138.214 501.452 138.458C501.679 138.702 501.977 138.825 502.346 138.825C502.574 138.825 502.794 138.769 503.007 138.658C503.22 138.548 503.395 138.383 503.531 138.164C503.67 137.942 503.74 137.665 503.74 137.333ZM506.869 140.086V133.54H508.365V134.631H508.433C508.552 134.254 508.757 133.962 509.046 133.758C509.339 133.55 509.673 133.447 510.048 133.447C510.133 133.447 510.228 133.451 510.333 133.46C510.441 133.465 510.531 133.475 510.602 133.489V134.908C510.536 134.886 510.433 134.866 510.291 134.849C510.151 134.829 510.017 134.819 509.886 134.819C509.605 134.819 509.352 134.88 509.127 135.002C508.906 135.121 508.731 135.288 508.603 135.501C508.475 135.714 508.411 135.96 508.411 136.238V140.086H506.869ZM513.393 140.218C512.978 140.218 512.605 140.144 512.272 139.996C511.943 139.846 511.681 139.624 511.488 139.332C511.298 139.039 511.203 138.678 511.203 138.249C511.203 137.88 511.271 137.575 511.407 137.333C511.544 137.092 511.73 136.898 511.965 136.754C512.201 136.609 512.467 136.499 512.762 136.425C513.061 136.349 513.369 136.293 513.687 136.259C514.07 136.219 514.382 136.184 514.62 136.153C514.859 136.119 515.032 136.067 515.14 135.999C515.251 135.928 515.306 135.819 515.306 135.671V135.646C515.306 135.325 515.211 135.076 515.021 134.9C514.83 134.724 514.556 134.636 514.198 134.636C513.82 134.636 513.521 134.718 513.299 134.883C513.08 135.048 512.933 135.242 512.856 135.467L511.416 135.262C511.529 134.864 511.717 134.532 511.978 134.265C512.24 133.995 512.559 133.793 512.937 133.66C513.315 133.523 513.732 133.455 514.19 133.455C514.505 133.455 514.819 133.492 515.132 133.566C515.444 133.64 515.73 133.762 515.988 133.933C516.247 134.1 516.454 134.329 516.61 134.619C516.769 134.908 516.849 135.271 516.849 135.705V140.086H515.366V139.187H515.315C515.221 139.369 515.089 139.539 514.919 139.698C514.751 139.854 514.539 139.981 514.284 140.077C514.031 140.171 513.734 140.218 513.393 140.218ZM513.794 139.085C514.103 139.085 514.372 139.023 514.599 138.901C514.826 138.776 515.001 138.612 515.123 138.407C515.248 138.202 515.311 137.979 515.311 137.738V136.967C515.262 137.006 515.18 137.043 515.063 137.077C514.95 137.112 514.822 137.141 514.68 137.167C514.538 137.192 514.397 137.215 514.258 137.235C514.119 137.255 513.998 137.272 513.896 137.286C513.666 137.317 513.46 137.369 513.278 137.44C513.096 137.511 512.953 137.61 512.847 137.738C512.742 137.863 512.69 138.025 512.69 138.224C512.69 138.508 512.794 138.722 513.001 138.867C513.208 139.012 513.472 139.085 513.794 139.085ZM521.669 133.54V134.734H517.906V133.54H521.669ZM518.835 131.972H520.377V138.117C520.377 138.325 520.409 138.484 520.471 138.594C520.536 138.702 520.622 138.776 520.727 138.816C520.832 138.856 520.948 138.876 521.076 138.876C521.173 138.876 521.261 138.869 521.34 138.854C521.423 138.84 521.485 138.827 521.528 138.816L521.788 140.022C521.705 140.05 521.588 140.082 521.434 140.116C521.284 140.15 521.099 140.17 520.88 140.175C520.494 140.187 520.146 140.129 519.836 140.001C519.526 139.87 519.281 139.668 519.099 139.396C518.92 139.123 518.832 138.782 518.835 138.373V131.972ZM522.959 140.086V133.54H524.501V140.086H522.959ZM523.734 132.612C523.49 132.612 523.28 132.531 523.104 132.369C522.927 132.204 522.839 132.006 522.839 131.776C522.839 131.543 522.927 131.346 523.104 131.184C523.28 131.019 523.49 130.937 523.734 130.937C523.981 130.937 524.192 131.019 524.365 131.184C524.541 131.346 524.629 131.543 524.629 131.776C524.629 132.006 524.541 132.204 524.365 132.369C524.192 132.531 523.981 132.612 523.734 132.612ZM528.943 140.214C528.303 140.214 527.749 140.073 527.281 139.792C526.812 139.511 526.448 139.117 526.19 138.612C525.934 138.106 525.806 137.515 525.806 136.839C525.806 136.163 525.934 135.57 526.19 135.062C526.448 134.553 526.812 134.158 527.281 133.877C527.749 133.596 528.303 133.455 528.943 133.455C529.582 133.455 530.136 133.596 530.605 133.877C531.073 134.158 531.436 134.553 531.691 135.062C531.95 135.57 532.079 136.163 532.079 136.839C532.079 137.515 531.95 138.106 531.691 138.612C531.436 139.117 531.073 139.511 530.605 139.792C530.136 140.073 529.582 140.214 528.943 140.214ZM528.951 138.978C529.298 138.978 529.588 138.883 529.82 138.692C530.053 138.499 530.227 138.241 530.34 137.917C530.457 137.593 530.515 137.232 530.515 136.835C530.515 136.434 530.457 136.072 530.34 135.748C530.227 135.421 530.053 135.161 529.82 134.968C529.588 134.775 529.298 134.678 528.951 134.678C528.596 134.678 528.301 134.775 528.065 134.968C527.832 135.161 527.657 135.421 527.541 135.748C527.427 136.072 527.37 136.434 527.37 136.835C527.37 137.232 527.427 137.593 527.541 137.917C527.657 138.241 527.832 138.499 528.065 138.692C528.301 138.883 528.596 138.978 528.951 138.978ZM534.931 136.251V140.086H533.388V133.54H534.863V134.653H534.939C535.09 134.286 535.33 133.995 535.66 133.779C535.992 133.563 536.403 133.455 536.891 133.455C537.343 133.455 537.736 133.552 538.072 133.745C538.41 133.938 538.671 134.218 538.856 134.585C539.043 134.951 539.135 135.396 539.133 135.918V140.086H537.59V136.157C537.59 135.719 537.476 135.377 537.249 135.13C537.025 134.883 536.714 134.759 536.316 134.759C536.046 134.759 535.806 134.819 535.596 134.938C535.388 135.055 535.225 135.224 535.106 135.445C534.989 135.667 534.931 135.935 534.931 136.251Z" fill="#A6AFC1"/>
<rect x="538.5" y="411.121" width="78" height="35.88" rx="5.55576" fill="#2D7AFF"/>
<path d="M571.533 424.334V433.062H570.126L566.014 427.117H565.942V433.062H564.361V424.334H565.776L569.884 430.283H569.96V424.334H571.533ZM576.085 433.189C575.429 433.189 574.862 433.053 574.385 432.78C573.91 432.505 573.545 432.116 573.289 431.613C573.034 431.107 572.906 430.512 572.906 429.827C572.906 429.154 573.034 428.563 573.289 428.054C573.548 427.543 573.909 427.145 574.372 426.861C574.835 426.574 575.379 426.431 576.004 426.431C576.407 426.431 576.788 426.496 577.146 426.627C577.507 426.755 577.825 426.954 578.1 427.223C578.379 427.493 578.598 427.837 578.757 428.255C578.916 428.669 578.995 429.164 578.995 429.738V430.211H573.63V429.171H577.517C577.514 428.875 577.45 428.613 577.325 428.383C577.2 428.15 577.025 427.966 576.801 427.833C576.579 427.699 576.321 427.633 576.025 427.633C575.71 427.633 575.433 427.709 575.194 427.863C574.956 428.013 574.77 428.212 574.636 428.459C574.505 428.704 574.439 428.972 574.436 429.265V430.172C574.436 430.553 574.505 430.88 574.645 431.152C574.784 431.422 574.978 431.63 575.228 431.775C575.478 431.917 575.771 431.988 576.106 431.988C576.331 431.988 576.534 431.956 576.716 431.894C576.897 431.829 577.055 431.733 577.189 431.608C577.322 431.483 577.423 431.329 577.491 431.144L578.931 431.306C578.841 431.687 578.667 432.019 578.412 432.303C578.159 432.584 577.835 432.803 577.44 432.959C577.045 433.113 576.593 433.189 576.085 433.189ZM581.421 426.516L582.742 428.932L584.085 426.516H585.717L583.744 429.789L585.751 433.062H584.127L582.742 430.705L581.37 433.062H579.734L581.728 429.789L579.785 426.516H581.421ZM590.178 426.516V427.709H586.415V426.516H590.178ZM587.344 424.948H588.887V431.093C588.887 431.3 588.918 431.459 588.981 431.57C589.046 431.678 589.131 431.752 589.237 431.792C589.342 431.831 589.458 431.851 589.586 431.851C589.683 431.851 589.771 431.844 589.85 431.83C589.933 431.816 589.995 431.803 590.038 431.792L590.298 432.998C590.215 433.026 590.097 433.057 589.944 433.091C589.793 433.125 589.609 433.145 589.39 433.151C589.004 433.162 588.656 433.104 588.346 432.976C588.036 432.846 587.79 432.644 587.609 432.371C587.43 432.098 587.342 431.758 587.344 431.348V424.948Z" fill="white"/>
<path d="M68.5252 170.735H66.7987C66.7494 170.452 66.6586 170.201 66.5263 169.983C66.3939 169.761 66.2293 169.574 66.0323 169.42C65.8353 169.266 65.6107 169.15 65.3583 169.074C65.109 168.993 64.8397 168.953 64.5504 168.953C64.0365 168.953 63.581 169.083 63.1839 169.341C62.7869 169.597 62.4761 169.972 62.2514 170.468C62.0268 170.96 61.9144 171.562 61.9144 172.273C61.9144 172.996 62.0268 173.605 62.2514 174.101C62.4792 174.593 62.79 174.966 63.1839 175.218C63.581 175.467 64.0349 175.592 64.5458 175.592C64.829 175.592 65.0936 175.555 65.3398 175.481C65.5891 175.404 65.8123 175.292 66.0092 175.144C66.2093 174.996 66.377 174.815 66.5124 174.599C66.6509 174.384 66.7463 174.138 66.7987 173.861L68.5252 173.87C68.4606 174.319 68.3205 174.741 68.1051 175.135C67.8928 175.529 67.6142 175.877 67.2695 176.178C66.9248 176.477 66.5217 176.711 66.06 176.88C65.5984 177.046 65.0859 177.129 64.5227 177.129C63.6918 177.129 62.95 176.937 62.2976 176.552C61.6451 176.167 61.1312 175.612 60.7557 174.886C60.3802 174.159 60.1925 173.288 60.1925 172.273C60.1925 171.254 60.3817 170.383 60.7603 169.66C61.1388 168.933 61.6544 168.378 62.3068 167.993C62.9593 167.609 63.6979 167.416 64.5227 167.416C65.049 167.416 65.5384 167.49 65.9908 167.638C66.4432 167.786 66.8464 168.002 67.2003 168.289C67.5542 168.572 67.8451 168.92 68.0728 169.332C68.3036 169.741 68.4544 170.209 68.5252 170.735ZM73.1128 177.138C72.4204 177.138 71.8202 176.986 71.3124 176.681C70.8046 176.377 70.4107 175.951 70.1306 175.403C69.8536 174.855 69.7151 174.215 69.7151 173.482C69.7151 172.75 69.8536 172.108 70.1306 171.557C70.4107 171.006 70.8046 170.578 71.3124 170.274C71.8202 169.969 72.4204 169.817 73.1128 169.817C73.8053 169.817 74.4055 169.969 74.9133 170.274C75.4211 170.578 75.8135 171.006 76.0905 171.557C76.3705 172.108 76.5106 172.75 76.5106 173.482C76.5106 174.215 76.3705 174.855 76.0905 175.403C75.8135 175.951 75.4211 176.377 74.9133 176.681C74.4055 176.986 73.8053 177.138 73.1128 177.138ZM73.1221 175.8C73.4975 175.8 73.8115 175.697 74.0638 175.49C74.3162 175.281 74.5039 175.001 74.627 174.65C74.7532 174.299 74.8163 173.908 74.8163 173.478C74.8163 173.044 74.7532 172.651 74.627 172.3C74.5039 171.946 74.3162 171.665 74.0638 171.456C73.8115 171.246 73.4975 171.142 73.1221 171.142C72.7374 171.142 72.4173 171.246 72.1618 171.456C71.9095 171.665 71.7202 171.946 71.594 172.3C71.4709 172.651 71.4094 173.044 71.4094 173.478C71.4094 173.908 71.4709 174.299 71.594 174.65C71.7202 175.001 71.9095 175.281 72.1618 175.49C72.4173 175.697 72.7374 175.8 73.1221 175.8ZM80.5604 177.125C80.0033 177.125 79.5047 176.982 79.0646 176.695C78.6245 176.409 78.2768 175.994 78.0213 175.449C77.7659 174.904 77.6381 174.242 77.6381 173.464C77.6381 172.676 77.7674 172.011 78.0259 171.469C78.2875 170.925 78.6399 170.514 79.0831 170.237C79.5263 169.957 80.0202 169.817 80.565 169.817C80.9805 169.817 81.3221 169.888 81.5898 170.029C81.8576 170.168 82.07 170.335 82.2269 170.532C82.3839 170.726 82.5054 170.909 82.5916 171.082H82.6609V167.545H84.3366V177H82.6932V175.883H82.5916C82.5054 176.055 82.3808 176.238 82.2177 176.432C82.0546 176.623 81.8391 176.786 81.5714 176.922C81.3036 177.057 80.9666 177.125 80.5604 177.125ZM81.0266 175.754C81.3806 175.754 81.6822 175.658 81.9315 175.467C82.1808 175.273 82.37 175.004 82.4993 174.659C82.6286 174.315 82.6932 173.913 82.6932 173.455C82.6932 172.996 82.6286 172.597 82.4993 172.259C82.3731 171.92 82.1854 171.657 81.9361 171.469C81.6899 171.282 81.3867 171.188 81.0266 171.188C80.6542 171.188 80.3434 171.285 80.0941 171.479C79.8448 171.673 79.6571 171.94 79.5309 172.282C79.4047 172.624 79.3416 173.014 79.3416 173.455C79.3416 173.898 79.4047 174.293 79.5309 174.641C79.6602 174.986 79.8494 175.258 80.0987 175.458C80.3511 175.655 80.6604 175.754 81.0266 175.754ZM89.2567 177.138C88.5457 177.138 87.9317 176.991 87.4147 176.695C86.9007 176.397 86.5052 175.975 86.2282 175.43C85.9513 174.883 85.8128 174.238 85.8128 173.496C85.8128 172.767 85.9513 172.127 86.2282 171.576C86.5083 171.022 86.8992 170.591 87.4008 170.283C87.9025 169.972 88.4919 169.817 89.1689 169.817C89.606 169.817 90.0184 169.888 90.4062 170.029C90.797 170.168 91.1417 170.383 91.4403 170.675C91.7419 170.968 91.9788 171.34 92.1512 171.793C92.3235 172.242 92.4097 172.777 92.4097 173.399V173.912H86.5976V172.785H90.8078C90.8047 172.465 90.7355 172.18 90.6001 171.931C90.4646 171.679 90.2754 171.48 90.0322 171.336C89.7922 171.191 89.5121 171.119 89.192 171.119C88.8504 171.119 88.5503 171.202 88.2918 171.368C88.0333 171.531 87.8317 171.746 87.6871 172.014C87.5455 172.279 87.4732 172.57 87.4701 172.887V173.87C87.4701 174.282 87.5455 174.636 87.6963 174.932C87.8471 175.224 88.0579 175.449 88.3287 175.606C88.5996 175.76 88.9166 175.837 89.2797 175.837C89.5229 175.837 89.7429 175.803 89.9399 175.735C90.1369 175.664 90.3077 175.561 90.4523 175.426C90.597 175.29 90.7062 175.123 90.7801 174.923L92.3405 175.098C92.242 175.51 92.0542 175.871 91.7773 176.178C91.5033 176.483 91.1525 176.72 90.7247 176.889C90.2969 177.055 89.8076 177.138 89.2567 177.138ZM97.122 177V167.545H98.8347V175.564H102.999V177H97.122ZM107.504 177.138C106.812 177.138 106.212 176.986 105.704 176.681C105.196 176.377 104.802 175.951 104.522 175.403C104.245 174.855 104.107 174.215 104.107 173.482C104.107 172.75 104.245 172.108 104.522 171.557C104.802 171.006 105.196 170.578 105.704 170.274C106.212 169.969 106.812 169.817 107.504 169.817C108.197 169.817 108.797 169.969 109.305 170.274C109.813 170.578 110.205 171.006 110.482 171.557C110.762 172.108 110.902 172.75 110.902 173.482C110.902 174.215 110.762 174.855 110.482 175.403C110.205 175.951 109.813 176.377 109.305 176.681C108.797 176.986 108.197 177.138 107.504 177.138ZM107.514 175.8C107.889 175.8 108.203 175.697 108.455 175.49C108.708 175.281 108.896 175.001 109.019 174.65C109.145 174.299 109.208 173.908 109.208 173.478C109.208 173.044 109.145 172.651 109.019 172.3C108.896 171.946 108.708 171.665 108.455 171.456C108.203 171.246 107.889 171.142 107.514 171.142C107.129 171.142 106.809 171.246 106.553 171.456C106.301 171.665 106.112 171.946 105.986 172.3C105.863 172.651 105.801 173.044 105.801 173.478C105.801 173.908 105.863 174.299 105.986 174.65C106.112 175.001 106.301 175.281 106.553 175.49C106.809 175.697 107.129 175.8 107.514 175.8ZM115.414 177.138C114.706 177.138 114.098 176.983 113.59 176.672C113.085 176.361 112.696 175.932 112.422 175.384C112.151 174.833 112.016 174.199 112.016 173.482C112.016 172.762 112.154 172.127 112.431 171.576C112.708 171.022 113.099 170.591 113.604 170.283C114.112 169.972 114.712 169.817 115.404 169.817C115.98 169.817 116.489 169.923 116.932 170.135C117.379 170.345 117.734 170.642 117.999 171.026C118.264 171.408 118.414 171.854 118.451 172.365H116.854C116.789 172.023 116.635 171.739 116.392 171.511C116.152 171.28 115.831 171.165 115.427 171.165C115.086 171.165 114.786 171.257 114.527 171.442C114.269 171.623 114.067 171.885 113.922 172.227C113.781 172.568 113.71 172.978 113.71 173.455C113.71 173.938 113.781 174.353 113.922 174.701C114.064 175.046 114.263 175.312 114.518 175.5C114.777 175.684 115.08 175.777 115.427 175.777C115.674 175.777 115.894 175.73 116.088 175.638C116.285 175.543 116.449 175.406 116.582 175.227C116.714 175.049 116.805 174.832 116.854 174.576H118.451C118.411 175.078 118.264 175.523 118.008 175.911C117.753 176.295 117.405 176.597 116.965 176.815C116.525 177.031 116.008 177.138 115.414 177.138ZM121.864 177.143C121.415 177.143 121.01 177.063 120.65 176.903C120.293 176.74 120.01 176.5 119.8 176.183C119.594 175.866 119.491 175.475 119.491 175.01C119.491 174.61 119.565 174.279 119.713 174.018C119.86 173.756 120.062 173.547 120.317 173.39C120.573 173.233 120.861 173.114 121.181 173.034C121.504 172.951 121.838 172.891 122.183 172.854C122.598 172.811 122.935 172.773 123.194 172.739C123.452 172.702 123.64 172.647 123.757 172.573C123.877 172.496 123.937 172.377 123.937 172.217V172.19C123.937 171.842 123.834 171.573 123.627 171.382C123.421 171.191 123.124 171.096 122.737 171.096C122.327 171.096 122.002 171.185 121.762 171.363C121.525 171.542 121.365 171.753 121.282 171.996L119.722 171.774C119.845 171.343 120.048 170.983 120.331 170.694C120.614 170.402 120.961 170.183 121.37 170.038C121.779 169.891 122.232 169.817 122.727 169.817C123.069 169.817 123.409 169.857 123.748 169.937C124.086 170.017 124.395 170.149 124.675 170.334C124.955 170.515 125.18 170.763 125.349 171.077C125.522 171.391 125.608 171.783 125.608 172.254V177H124.001V176.026H123.946C123.844 176.223 123.701 176.408 123.517 176.58C123.335 176.749 123.106 176.886 122.829 176.991C122.555 177.092 122.233 177.143 121.864 177.143ZM122.298 175.915C122.633 175.915 122.924 175.849 123.17 175.717C123.417 175.581 123.606 175.403 123.738 175.181C123.874 174.96 123.941 174.718 123.941 174.456V173.621C123.889 173.664 123.8 173.704 123.674 173.741C123.551 173.778 123.412 173.81 123.258 173.838C123.104 173.865 122.952 173.89 122.801 173.912C122.65 173.933 122.52 173.952 122.409 173.967C122.159 174.001 121.936 174.056 121.739 174.133C121.542 174.21 121.387 174.318 121.273 174.456C121.159 174.592 121.102 174.767 121.102 174.983C121.102 175.29 121.215 175.523 121.439 175.68C121.664 175.837 121.95 175.915 122.298 175.915ZM130.829 169.909V171.202H126.753V169.909H130.829ZM127.759 168.21H129.43V174.867C129.43 175.092 129.464 175.264 129.532 175.384C129.603 175.501 129.695 175.581 129.809 175.624C129.923 175.667 130.049 175.689 130.188 175.689C130.292 175.689 130.388 175.681 130.474 175.666C130.563 175.65 130.631 175.637 130.677 175.624L130.958 176.931C130.869 176.962 130.741 176.995 130.575 177.032C130.412 177.069 130.212 177.091 129.975 177.097C129.557 177.109 129.18 177.046 128.844 176.908C128.509 176.766 128.242 176.548 128.045 176.252C127.852 175.957 127.756 175.587 127.759 175.144V168.21ZM132.227 177V169.909H133.898V177H132.227ZM133.067 168.903C132.802 168.903 132.575 168.815 132.384 168.64C132.193 168.461 132.098 168.247 132.098 167.998C132.098 167.746 132.193 167.532 132.384 167.356C132.575 167.178 132.802 167.088 133.067 167.088C133.335 167.088 133.563 167.178 133.75 167.356C133.941 167.532 134.036 167.746 134.036 167.998C134.036 168.247 133.941 168.461 133.75 168.64C133.563 168.815 133.335 168.903 133.067 168.903ZM138.71 177.138C138.017 177.138 137.417 176.986 136.909 176.681C136.401 176.377 136.007 175.951 135.727 175.403C135.45 174.855 135.312 174.215 135.312 173.482C135.312 172.75 135.45 172.108 135.727 171.557C136.007 171.006 136.401 170.578 136.909 170.274C137.417 169.969 138.017 169.817 138.71 169.817C139.402 169.817 140.002 169.969 140.51 170.274C141.018 170.578 141.41 171.006 141.687 171.557C141.967 172.108 142.107 172.75 142.107 173.482C142.107 174.215 141.967 174.855 141.687 175.403C141.41 175.951 141.018 176.377 140.51 176.681C140.002 176.986 139.402 177.138 138.71 177.138ZM138.719 175.8C139.094 175.8 139.408 175.697 139.661 175.49C139.913 175.281 140.101 175.001 140.224 174.65C140.35 174.299 140.413 173.908 140.413 173.478C140.413 173.044 140.35 172.651 140.224 172.3C140.101 171.946 139.913 171.665 139.661 171.456C139.408 171.246 139.094 171.142 138.719 171.142C138.334 171.142 138.014 171.246 137.759 171.456C137.506 171.665 137.317 171.946 137.191 172.3C137.068 172.651 137.006 173.044 137.006 173.478C137.006 173.908 137.068 174.299 137.191 174.65C137.317 175.001 137.506 175.281 137.759 175.49C138.014 175.697 138.334 175.8 138.719 175.8ZM145.197 172.845V177H143.526V169.909H145.123V171.114H145.206C145.369 170.717 145.629 170.402 145.986 170.168C146.346 169.934 146.791 169.817 147.32 169.817C147.81 169.817 148.236 169.921 148.599 170.131C148.965 170.34 149.249 170.643 149.449 171.04C149.652 171.437 149.752 171.919 149.749 172.485V177H148.078V172.744C148.078 172.27 147.954 171.899 147.708 171.631C147.465 171.363 147.128 171.229 146.697 171.229C146.405 171.229 146.145 171.294 145.917 171.423C145.692 171.549 145.515 171.733 145.386 171.973C145.26 172.213 145.197 172.504 145.197 172.845Z" fill="#3F434A"/>
<rect x="60" y="193.5" width="556" height="46" rx="7.5" fill="white"/>
<rect x="60" y="193.5" width="556" height="46" rx="7.5" stroke="#E9EAEB"/>
<rect x="77.1367" y="209.254" width="255.918" height="14" rx="5" fill="#E6EBF2"/>
<path d="M65.5707 264.145C65.5276 263.741 65.346 263.427 65.0259 263.203C64.7089 262.978 64.2965 262.866 63.7887 262.866C63.4317 262.866 63.1255 262.92 62.87 263.027C62.6146 263.135 62.4192 263.281 62.2837 263.466C62.1483 263.651 62.0791 263.861 62.076 264.098C62.076 264.295 62.1206 264.466 62.2099 264.611C62.3022 264.755 62.4268 264.879 62.5838 264.98C62.7408 265.079 62.9147 265.162 63.1055 265.229C63.2963 265.297 63.4886 265.354 63.6825 265.4L64.5689 265.622C64.9259 265.705 65.2691 265.817 65.5984 265.959C65.9308 266.1 66.2277 266.279 66.4893 266.494C66.754 266.71 66.9633 266.97 67.1172 267.275C67.2711 267.579 67.348 267.936 67.348 268.346C67.348 268.9 67.2064 269.387 66.9233 269.809C66.6402 270.228 66.2308 270.555 65.6953 270.792C65.1629 271.026 64.5181 271.143 63.761 271.143C63.0254 271.143 62.3868 271.029 61.8452 270.801C61.3066 270.574 60.8849 270.241 60.5803 269.804C60.2786 269.367 60.1155 268.835 60.0909 268.207H61.7759C61.8005 268.536 61.9021 268.81 62.0806 269.029C62.2591 269.247 62.4915 269.41 62.7777 269.518C63.067 269.626 63.3902 269.68 63.7472 269.68C64.1196 269.68 64.4458 269.624 64.7259 269.513C65.009 269.4 65.2306 269.243 65.3906 269.043C65.5507 268.839 65.6322 268.603 65.6353 268.332C65.6322 268.085 65.5599 267.882 65.4183 267.722C65.2768 267.559 65.0782 267.424 64.8228 267.316C64.5704 267.205 64.275 267.107 63.9364 267.021L62.8608 266.744C62.0821 266.544 61.4666 266.24 61.0142 265.834C60.5649 265.425 60.3402 264.882 60.3402 264.205C60.3402 263.647 60.491 263.16 60.7926 262.741C61.0973 262.323 61.5112 261.998 62.0344 261.767C62.5576 261.533 63.1501 261.416 63.8118 261.416C64.4827 261.416 65.0705 261.533 65.5753 261.767C66.0831 261.998 66.4817 262.319 66.771 262.732C67.0603 263.141 67.2095 263.612 67.2188 264.145H65.5707ZM71.9403 271.138C71.2293 271.138 70.6153 270.991 70.0983 270.695C69.5843 270.397 69.1888 269.975 68.9118 269.43C68.6349 268.883 68.4964 268.238 68.4964 267.496C68.4964 266.767 68.6349 266.127 68.9118 265.576C69.1919 265.022 69.5828 264.591 70.0844 264.283C70.5861 263.972 71.1755 263.817 71.8525 263.817C72.2896 263.817 72.702 263.888 73.0898 264.029C73.4806 264.168 73.8253 264.383 74.1238 264.675C74.4255 264.968 74.6624 265.34 74.8348 265.793C75.0071 266.242 75.0933 266.777 75.0933 267.399V267.912H69.2812V266.785H73.4914C73.4883 266.465 73.4191 266.18 73.2836 265.931C73.1482 265.679 72.959 265.48 72.7158 265.336C72.4758 265.191 72.1957 265.119 71.8756 265.119C71.534 265.119 71.2339 265.202 70.9754 265.368C70.7169 265.531 70.5153 265.746 70.3706 266.014C70.2291 266.279 70.1568 266.57 70.1537 266.887V267.87C70.1537 268.282 70.2291 268.636 70.3799 268.932C70.5307 269.224 70.7415 269.449 71.0123 269.606C71.2832 269.76 71.6002 269.837 71.9633 269.837C72.2065 269.837 72.4265 269.803 72.6235 269.735C72.8205 269.664 72.9913 269.561 73.1359 269.426C73.2806 269.29 73.3898 269.123 73.4637 268.923L75.0241 269.098C74.9256 269.51 74.7378 269.871 74.4608 270.178C74.1869 270.483 73.8361 270.72 73.4083 270.889C72.9805 271.055 72.4912 271.138 71.9403 271.138ZM76.5071 271V263.909H78.1275V265.091H78.2013C78.3306 264.682 78.5522 264.366 78.8661 264.145C79.1831 263.92 79.5447 263.808 79.951 263.808C80.0433 263.808 80.1464 263.812 80.2603 263.821C80.3772 263.828 80.4742 263.838 80.5511 263.854V265.391C80.4804 265.366 80.368 265.345 80.2141 265.326C80.0633 265.305 79.9171 265.294 79.7756 265.294C79.4709 265.294 79.197 265.36 78.9538 265.493C78.7138 265.622 78.5245 265.802 78.386 266.033C78.2475 266.263 78.1783 266.53 78.1783 266.831V271H76.5071ZM88.211 263.909L85.6858 271H83.8392L81.314 263.909H83.096L84.7256 269.176H84.7994L86.4337 263.909H88.211ZM89.3675 271V263.909H91.0386V271H89.3675ZM90.2077 262.903C89.943 262.903 89.7152 262.815 89.5244 262.64C89.3336 262.461 89.2382 262.247 89.2382 261.998C89.2382 261.746 89.3336 261.532 89.5244 261.356C89.7152 261.178 89.943 261.088 90.2077 261.088C90.4754 261.088 90.7032 261.178 90.8909 261.356C91.0817 261.532 91.1771 261.746 91.1771 261.998C91.1771 262.247 91.0817 262.461 90.8909 262.64C90.7032 262.815 90.4754 262.903 90.2077 262.903ZM95.8501 271.138C95.1423 271.138 94.5344 270.983 94.0266 270.672C93.5219 270.361 93.1326 269.932 92.8587 269.384C92.5878 268.833 92.4524 268.199 92.4524 267.482C92.4524 266.762 92.5909 266.127 92.8679 265.576C93.1449 265.022 93.5357 264.591 94.0405 264.283C94.5483 263.972 95.1484 263.817 95.8409 263.817C96.4164 263.817 96.9258 263.923 97.369 264.135C97.8152 264.345 98.1707 264.642 98.4354 265.026C98.7 265.408 98.8509 265.854 98.8878 266.365H97.2905C97.2259 266.023 97.072 265.739 96.8288 265.511C96.5888 265.28 96.2672 265.165 95.864 265.165C95.5224 265.165 95.2223 265.257 94.9638 265.442C94.7053 265.623 94.5037 265.885 94.359 266.227C94.2174 266.568 94.1467 266.978 94.1467 267.455C94.1467 267.938 94.2174 268.353 94.359 268.701C94.5006 269.046 94.6991 269.312 94.9545 269.5C95.2131 269.684 95.5162 269.777 95.864 269.777C96.1102 269.777 96.3303 269.73 96.5241 269.638C96.7211 269.543 96.8858 269.406 97.0181 269.227C97.1505 269.049 97.2412 268.832 97.2905 268.576H98.8878C98.8478 269.078 98.7 269.523 98.4446 269.911C98.1892 270.295 97.8414 270.597 97.4013 270.815C96.9612 271.031 96.4441 271.138 95.8501 271.138ZM103.399 271.138C102.688 271.138 102.074 270.991 101.557 270.695C101.043 270.397 100.648 269.975 100.371 269.43C100.094 268.883 99.9553 268.238 99.9553 267.496C99.9553 266.767 100.094 266.127 100.371 265.576C100.651 265.022 101.042 264.591 101.543 264.283C102.045 263.972 102.634 263.817 103.312 263.817C103.749 263.817 104.161 263.888 104.549 264.029C104.94 264.168 105.284 264.383 105.583 264.675C105.884 264.968 106.121 265.34 106.294 265.793C106.466 266.242 106.552 266.777 106.552 267.399V267.912H100.74V266.785H104.95C104.947 266.465 104.878 266.18 104.743 265.931C104.607 265.679 104.418 265.48 104.175 265.336C103.935 265.191 103.655 265.119 103.335 265.119C102.993 265.119 102.693 265.202 102.434 265.368C102.176 265.531 101.974 265.746 101.83 266.014C101.688 266.279 101.616 266.57 101.613 266.887V267.87C101.613 268.282 101.688 268.636 101.839 268.932C101.99 269.224 102.2 269.449 102.471 269.606C102.742 269.76 103.059 269.837 103.422 269.837C103.665 269.837 103.886 269.803 104.082 269.735C104.279 269.664 104.45 269.561 104.595 269.426C104.74 269.29 104.849 269.123 104.923 268.923L106.483 269.098C106.385 269.51 106.197 269.871 105.92 270.178C105.646 270.483 105.295 270.72 104.867 270.889C104.439 271.055 103.95 271.138 103.399 271.138ZM119.034 261.545V271H117.511L113.056 264.56H112.977V271H111.265V261.545H112.797L117.248 267.99H117.331V261.545H119.034ZM122.867 271.143C122.418 271.143 122.013 271.063 121.653 270.903C121.296 270.74 121.013 270.5 120.803 270.183C120.597 269.866 120.494 269.475 120.494 269.01C120.494 268.61 120.568 268.279 120.716 268.018C120.863 267.756 121.065 267.547 121.32 267.39C121.576 267.233 121.864 267.114 122.184 267.034C122.507 266.951 122.841 266.891 123.185 266.854C123.601 266.811 123.938 266.773 124.196 266.739C124.455 266.702 124.643 266.647 124.76 266.573C124.88 266.496 124.94 266.377 124.94 266.217V266.19C124.94 265.842 124.837 265.573 124.63 265.382C124.424 265.191 124.127 265.096 123.739 265.096C123.33 265.096 123.005 265.185 122.765 265.363C122.528 265.542 122.368 265.753 122.285 265.996L120.725 265.774C120.848 265.343 121.051 264.983 121.334 264.694C121.617 264.402 121.964 264.183 122.373 264.038C122.782 263.891 123.235 263.817 123.73 263.817C124.072 263.817 124.412 263.857 124.75 263.937C125.089 264.017 125.398 264.149 125.678 264.334C125.958 264.515 126.183 264.763 126.352 265.077C126.525 265.391 126.611 265.783 126.611 266.254V271H125.004V270.026H124.949C124.847 270.223 124.704 270.408 124.52 270.58C124.338 270.749 124.109 270.886 123.832 270.991C123.558 271.092 123.236 271.143 122.867 271.143ZM123.301 269.915C123.636 269.915 123.927 269.849 124.173 269.717C124.42 269.581 124.609 269.403 124.741 269.181C124.877 268.96 124.944 268.718 124.944 268.456V267.621C124.892 267.664 124.803 267.704 124.677 267.741C124.553 267.778 124.415 267.81 124.261 267.838C124.107 267.865 123.955 267.89 123.804 267.912C123.653 267.933 123.522 267.952 123.412 267.967C123.162 268.001 122.939 268.056 122.742 268.133C122.545 268.21 122.39 268.318 122.276 268.456C122.162 268.592 122.105 268.767 122.105 268.983C122.105 269.29 122.218 269.523 122.442 269.68C122.667 269.837 122.953 269.915 123.301 269.915ZM128.291 271V263.909H129.889V265.114H129.972C130.119 264.708 130.364 264.391 130.706 264.163C131.047 263.932 131.455 263.817 131.929 263.817C132.409 263.817 132.814 263.934 133.143 264.168C133.476 264.398 133.709 264.714 133.845 265.114H133.919C134.076 264.72 134.34 264.406 134.713 264.172C135.088 263.935 135.533 263.817 136.047 263.817C136.699 263.817 137.232 264.023 137.644 264.435C138.057 264.848 138.263 265.449 138.263 266.24V271H136.587V266.499C136.587 266.059 136.47 265.737 136.236 265.534C136.002 265.328 135.716 265.225 135.378 265.225C134.974 265.225 134.659 265.351 134.431 265.603C134.207 265.853 134.094 266.177 134.094 266.577V271H132.455V266.43C132.455 266.063 132.345 265.771 132.123 265.553C131.904 265.334 131.618 265.225 131.264 265.225C131.024 265.225 130.806 265.286 130.609 265.409C130.412 265.529 130.255 265.7 130.138 265.922C130.021 266.14 129.962 266.396 129.962 266.688V271H128.291ZM143.097 271.138C142.387 271.138 141.773 270.991 141.256 270.695C140.742 270.397 140.346 269.975 140.069 269.43C139.792 268.883 139.654 268.238 139.654 267.496C139.654 266.767 139.792 266.127 140.069 265.576C140.349 265.022 140.74 264.591 141.242 264.283C141.743 263.972 142.333 263.817 143.01 263.817C143.447 263.817 143.859 263.888 144.247 264.029C144.638 264.168 144.983 264.383 145.281 264.675C145.583 264.968 145.82 265.34 145.992 265.793C146.164 266.242 146.251 266.777 146.251 267.399V267.912H140.438V266.785H144.649C144.646 266.465 144.576 266.18 144.441 265.931C144.305 265.679 144.116 265.48 143.873 265.336C143.633 265.191 143.353 265.119 143.033 265.119C142.691 265.119 142.391 265.202 142.133 265.368C141.874 265.531 141.673 265.746 141.528 266.014C141.386 266.279 141.314 266.57 141.311 266.887V267.87C141.311 268.282 141.386 268.636 141.537 268.932C141.688 269.224 141.899 269.449 142.17 269.606C142.44 269.76 142.757 269.837 143.121 269.837C143.364 269.837 143.584 269.803 143.781 269.735C143.978 269.664 144.148 269.561 144.293 269.426C144.438 269.29 144.547 269.123 144.621 268.923L146.181 269.098C146.083 269.51 145.895 269.871 145.618 270.178C145.344 270.483 144.993 270.72 144.566 270.889C144.138 271.055 143.648 271.138 143.097 271.138Z" fill="#3F434A"/>
<rect x="60" y="287.5" width="556" height="46" rx="7.5" fill="white"/>
<rect x="60" y="287.5" width="556" height="46" rx="7.5" stroke="#E9EAEB"/>
<rect x="77.1367" y="303.555" width="125.812" height="14" rx="5" fill="#E6EBF2"/>
<rect x="60" y="348.5" width="556" height="46" rx="7.5" fill="white"/>
<rect x="60" y="348.5" width="556" height="46" rx="7.5" stroke="#E9EAEB"/>
<rect x="77.1367" y="364.555" width="125.812" height="14" rx="5" fill="#E6EBF2"/>
</g>
<defs>
<linearGradient id="paint0_linear_375_2975" x1="306.63" y1="-5.50392" x2="542.929" y2="522.373" gradientUnits="userSpaceOnUse">
<stop stop-color="#2D7BFF"/>
<stop offset="1" stop-color="white" stop-opacity="0"/>
</linearGradient>
<linearGradient id="paint1_linear_375_2975" x1="266.419" y1="85.0859" x2="179.012" y2="85.0859" gradientUnits="userSpaceOnUse">
<stop stop-color="#E6EBF2"/>
<stop offset="1" stop-color="#2D7AFF"/>
</linearGradient>
<clipPath id="clip0_375_2975">
<path d="M0 18C0 8.05887 8.05887 0 18 0H658C667.941 0 676 8.05888 676 18V467H0V18Z" fill="white"/>
</clipPath>
</defs>
</svg>
