<svg width="74" height="83" viewBox="0 0 74 83" fill="none" xmlns="http://www.w3.org/2000/svg">
<path d="M4.16012 18.3418L33.094 1.49786C35.3816 0.167381 38.2108 0.167381 40.5037 1.49786L69.4376 18.3418C71.7041 19.6617 73.0977 22.086 73.0977 24.7049V57.9773C73.0977 60.5962 71.7041 63.0205 69.4376 64.3405L40.5037 81.1844C38.2161 82.5149 35.3868 82.5149 33.094 81.1844L4.16012 64.3405C1.89358 63.0205 0.5 60.5962 0.5 57.9773V24.7049C0.5 22.086 1.89358 19.6617 4.16012 18.3418Z" fill="#F7F7F5" fill-opacity="0.59" stroke="#8FB4F5" stroke-miterlimit="10"/>
<path d="M8.667 21.5167L33.6042 7.00239C35.5763 5.85597 38.0163 5.85597 39.9884 7.00239L64.9256 21.5167C66.8766 22.6526 68.0809 24.7403 68.0809 27.0016V55.6778C68.0809 57.9391 66.8819 60.0268 64.9256 61.1627L39.9884 75.677C38.0163 76.8234 35.5763 76.8234 33.6042 75.677L8.667 61.1627C6.71598 60.0268 5.51172 57.9391 5.51172 55.6778V27.0016C5.51172 24.7403 6.71072 22.6526 8.667 21.5167Z" fill="url(#paint0_linear_375_5727)"/>
<g filter="url(#filter0_d_375_5727)">
<path d="M34.2434 57.2275L30.4505 56.127C30.0526 56.0151 29.8288 55.5985 29.9407 55.2005L38.428 25.9644C38.5399 25.5665 38.9565 25.3426 39.3544 25.4546L43.1473 26.5551C43.5452 26.667 43.7691 27.0836 43.6572 27.4816L35.1699 56.7177C35.0517 57.1156 34.6413 57.3457 34.2434 57.2275ZM27.1551 50.2512L29.8598 47.3661C30.1459 47.0614 30.1272 46.5764 29.8101 46.2966L24.1768 41.341L29.8101 36.3855C30.1272 36.1057 30.1521 35.6207 29.8598 35.316L27.1551 32.4309C26.8753 32.1325 26.4027 32.1138 26.0981 32.3998L17.1382 40.7939C16.8211 41.0861 16.8211 41.5898 17.1382 41.882L26.0981 50.2822C26.4027 50.5683 26.8753 50.5558 27.1551 50.2512ZM47.4998 50.2885L56.4596 41.8882C56.7767 41.596 56.7767 41.0923 56.4596 40.8001L47.4998 32.3936C47.2013 32.1138 46.7288 32.1263 46.4427 32.4247L43.738 35.3098C43.452 35.6145 43.4706 36.0994 43.7877 36.3792L49.4211 41.341L43.7877 46.2966C43.4706 46.5764 43.4458 47.0614 43.738 47.3661L46.4427 50.2512C46.7225 50.5558 47.1951 50.5683 47.4998 50.2885Z" fill="white"/>
</g>
<defs>
<filter id="filter0_d_375_5727" x="8.90039" y="23.4238" width="55.7971" height="47.835" filterUnits="userSpaceOnUse" color-interpolation-filters="sRGB">
<feFlood flood-opacity="0" result="BackgroundImageFix"/>
<feColorMatrix in="SourceAlpha" type="matrix" values="0 0 0 0 0 0 0 0 0 0 0 0 0 0 0 0 0 0 127 0" result="hardAlpha"/>
<feOffset dy="6"/>
<feGaussianBlur stdDeviation="4"/>
<feComposite in2="hardAlpha" operator="out"/>
<feColorMatrix type="matrix" values="0 0 0 0 0.118632 0 0 0 0 0.372589 0 0 0 0 0.812782 0 0 0 0.4 0"/>
<feBlend mode="normal" in2="BackgroundImageFix" result="effect1_dropShadow_375_5727"/>
<feBlend mode="normal" in="SourceGraphic" in2="effect1_dropShadow_375_5727" result="shape"/>
</filter>
<linearGradient id="paint0_linear_375_5727" x1="36.7963" y1="76.5368" x2="36.7963" y2="6.14258" gradientUnits="userSpaceOnUse">
<stop stop-color="#2D7AFF"/>
<stop offset="1" stop-color="#A6C7FF"/>
</linearGradient>
</defs>
</svg>
