<svg width="676" height="583" viewBox="0 0 676 583" fill="none" xmlns="http://www.w3.org/2000/svg">
<g clip-path="url(#clip0_425_25242)">
<rect width="676" height="583" rx="17.8015" fill="#A2C4FF"/>
<rect x="-175" y="-5.50391" width="965.259" height="594.006" fill="url(#paint0_linear_425_25242)"/>
<g clip-path="url(#clip1_425_25242)">
<rect x="28" y="80.0728" width="620" height="423.367" rx="10" fill="white"/>
<rect width="620" height="39.3151" transform="translate(28 80.0728)" fill="white"/>
<path d="M55.9386 105.423C55.8822 104.896 55.6448 104.485 55.2262 104.191C54.8117 103.898 54.2724 103.751 53.6083 103.751C53.1415 103.751 52.741 103.821 52.407 103.962C52.0729 104.103 51.8174 104.294 51.6403 104.536C51.4632 104.777 51.3726 105.053 51.3686 105.363C51.3686 105.62 51.427 105.844 51.5437 106.033C51.6644 106.222 51.8274 106.383 52.0327 106.516C52.2379 106.644 52.4653 106.753 52.7148 106.842C52.9644 106.93 53.2159 107.005 53.4695 107.065L54.6286 107.355C55.0954 107.463 55.5442 107.61 55.9748 107.795C56.4094 107.981 56.7978 108.214 57.1399 108.496C57.486 108.777 57.7597 109.118 57.9609 109.516C58.1622 109.914 58.2628 110.381 58.2628 110.917C58.2628 111.641 58.0777 112.279 57.7074 112.83C57.3371 113.378 56.8018 113.806 56.1016 114.116C55.4053 114.422 54.5621 114.575 53.5721 114.575C52.6102 114.575 51.7751 114.426 51.0668 114.128C50.3625 113.83 49.8111 113.396 49.4126 112.824C49.0182 112.253 48.8049 111.556 48.7727 110.735H50.9762C51.0084 111.166 51.1412 111.524 51.3746 111.81C51.6081 112.096 51.9119 112.309 52.2862 112.45C52.6645 112.591 53.0871 112.661 53.554 112.661C54.041 112.661 54.4676 112.589 54.8338 112.444C55.2041 112.295 55.4938 112.09 55.7031 111.828C55.9124 111.563 56.0191 111.253 56.0231 110.898C56.0191 110.577 55.9245 110.311 55.7393 110.102C55.5542 109.888 55.2946 109.711 54.9606 109.57C54.6306 109.425 54.2442 109.297 53.8015 109.184L52.3949 108.822C51.3767 108.56 50.5717 108.164 49.9801 107.632C49.3925 107.097 49.0987 106.387 49.0987 105.501C49.0987 104.773 49.2959 104.135 49.6903 103.588C50.0888 103.04 50.6301 102.616 51.3143 102.314C51.9985 102.008 52.7732 101.855 53.6385 101.855C54.5159 101.855 55.2846 102.008 55.9446 102.314C56.6087 102.616 57.1299 103.036 57.5082 103.576C57.8865 104.111 58.0817 104.727 58.0938 105.423H55.9386ZM64.2077 114.569C63.282 114.569 62.4871 114.366 61.8231 113.959C61.163 113.553 60.6539 112.991 60.2957 112.275C59.9416 111.554 59.7645 110.725 59.7645 109.788C59.7645 108.846 59.9456 108.015 60.3078 107.294C60.67 106.57 61.1811 106.007 61.8412 105.604C62.5052 105.198 63.29 104.994 64.1956 104.994C64.9482 104.994 65.6143 105.133 66.1938 105.411C66.7774 105.685 67.2422 106.073 67.5883 106.576C67.9345 107.075 68.1317 107.659 68.18 108.327H66.0912C66.0067 107.88 65.8054 107.508 65.4875 107.21C65.1736 106.908 64.753 106.757 64.2258 106.757C63.779 106.757 63.3866 106.878 63.0486 107.119C62.7105 107.357 62.4469 107.699 62.2577 108.146C62.0726 108.592 61.98 109.128 61.98 109.751C61.98 110.383 62.0726 110.927 62.2577 111.381C62.4429 111.832 62.7024 112.18 63.0365 112.426C63.3746 112.667 63.771 112.788 64.2258 112.788C64.5477 112.788 64.8355 112.728 65.089 112.607C65.3466 112.482 65.5619 112.303 65.735 112.07C65.9081 111.836 66.0268 111.552 66.0912 111.218H68.18C68.1276 111.874 67.9345 112.456 67.6004 112.963C67.2664 113.466 66.8116 113.861 66.2361 114.146C65.6605 114.428 64.9844 114.569 64.2077 114.569ZM72.6428 114.575C72.0552 114.575 71.5259 114.47 71.055 114.261C70.5882 114.048 70.2179 113.734 69.9442 113.319C69.6746 112.905 69.5398 112.394 69.5398 111.786C69.5398 111.263 69.6364 110.83 69.8295 110.488C70.0227 110.146 70.2863 109.872 70.6204 109.667C70.9544 109.462 71.3307 109.307 71.7493 109.202C72.1719 109.093 72.6085 109.015 73.0593 108.967C73.6026 108.91 74.0433 108.86 74.3814 108.816C74.7195 108.767 74.965 108.695 75.1179 108.598C75.2749 108.498 75.3533 108.343 75.3533 108.134V108.097C75.3533 107.643 75.2185 107.29 74.9489 107.041C74.6792 106.791 74.2908 106.667 73.7837 106.667C73.2485 106.667 72.8239 106.783 72.5099 107.017C72.2 107.25 71.9908 107.526 71.8821 107.844L69.8416 107.554C70.0026 106.991 70.2682 106.52 70.6385 106.141C71.0088 105.759 71.4615 105.473 71.9968 105.284C72.5321 105.091 73.1237 104.994 73.7717 104.994C74.2184 104.994 74.6631 105.047 75.1058 105.151C75.5485 105.256 75.953 105.429 76.3192 105.67C76.6855 105.908 76.9793 106.232 77.2006 106.642C77.426 107.053 77.5387 107.566 77.5387 108.182V114.388H75.4379V113.114H75.3654C75.2326 113.372 75.0455 113.613 74.804 113.838C74.5665 114.06 74.2667 114.239 73.9045 114.376C73.5463 114.509 73.1257 114.575 72.6428 114.575ZM73.2102 112.969C73.6489 112.969 74.0292 112.883 74.3512 112.71C74.6732 112.532 74.9207 112.299 75.0938 112.009C75.2708 111.719 75.3594 111.404 75.3594 111.061V109.969C75.291 110.025 75.1742 110.077 75.0092 110.126C74.8482 110.174 74.6671 110.216 74.4659 110.253C74.2647 110.289 74.0655 110.321 73.8683 110.349C73.671 110.377 73.5 110.401 73.3551 110.422C73.0291 110.466 72.7373 110.538 72.4798 110.639C72.2222 110.739 72.0189 110.88 71.87 111.061C71.7211 111.239 71.6467 111.468 71.6467 111.75C71.6467 112.152 71.7936 112.456 72.0874 112.661C72.3812 112.867 72.7554 112.969 73.2102 112.969ZM81.9215 102.024V114.388H79.7362V102.024H81.9215ZM84.1688 114.388V105.115H86.3541V114.388H84.1688ZM85.2675 103.799C84.9214 103.799 84.6235 103.684 84.374 103.455C84.1245 103.222 83.9997 102.942 83.9997 102.616C83.9997 102.286 84.1245 102.006 84.374 101.777C84.6235 101.543 84.9214 101.427 85.2675 101.427C85.6176 101.427 85.9155 101.543 86.161 101.777C86.4105 102.006 86.5352 102.286 86.5352 102.616C86.5352 102.942 86.4105 103.222 86.161 103.455C85.9155 103.684 85.6176 103.799 85.2675 103.799ZM90.7868 108.955V114.388H88.6014V105.115H90.6902V106.691H90.7988C91.0121 106.172 91.3522 105.759 91.8191 105.453C92.29 105.147 92.8715 104.994 93.5637 104.994C94.2037 104.994 94.7611 105.131 95.236 105.405C95.7149 105.679 96.0852 106.075 96.3468 106.594C96.6124 107.113 96.7432 107.743 96.7392 108.484V114.388H94.5538V108.822C94.5538 108.202 94.3928 107.717 94.0708 107.367C93.7529 107.017 93.3122 106.842 92.7488 106.842C92.3664 106.842 92.0263 106.926 91.7285 107.095C91.4347 107.26 91.2033 107.5 91.0343 107.814C90.8693 108.128 90.7868 108.508 90.7868 108.955ZM102.993 118.058C102.209 118.058 101.535 117.952 100.971 117.738C100.408 117.529 99.9548 117.247 99.6127 116.893C99.2707 116.539 99.0332 116.147 98.9004 115.716L100.868 115.239C100.957 115.42 101.086 115.599 101.255 115.776C101.424 115.957 101.651 116.106 101.937 116.223C102.227 116.344 102.591 116.404 103.03 116.404C103.649 116.404 104.163 116.253 104.569 115.951C104.976 115.654 105.179 115.163 105.179 114.478V112.722H105.07C104.957 112.947 104.792 113.178 104.575 113.416C104.362 113.653 104.078 113.853 103.724 114.014C103.374 114.175 102.933 114.255 102.402 114.255C101.689 114.255 101.044 114.088 100.464 113.754C99.8884 113.416 99.4296 112.913 99.0875 112.245C98.7495 111.573 98.5804 110.731 98.5804 109.721C98.5804 108.703 98.7495 107.844 99.0875 107.143C99.4296 106.439 99.8904 105.906 100.47 105.544C101.05 105.177 101.695 104.994 102.408 104.994C102.951 104.994 103.398 105.087 103.748 105.272C104.102 105.453 104.384 105.672 104.593 105.93C104.802 106.184 104.961 106.423 105.07 106.648H105.191V105.115H107.346V114.539C107.346 115.332 107.157 115.988 106.779 116.507C106.4 117.026 105.883 117.414 105.227 117.672C104.571 117.929 103.827 118.058 102.993 118.058ZM103.012 112.541C103.474 112.541 103.869 112.428 104.195 112.202C104.521 111.977 104.768 111.653 104.937 111.231C105.106 110.808 105.191 110.301 105.191 109.709C105.191 109.126 105.106 108.614 104.937 108.176C104.772 107.737 104.527 107.397 104.201 107.156C103.879 106.91 103.482 106.787 103.012 106.787C102.525 106.787 102.118 106.914 101.792 107.168C101.466 107.421 101.221 107.769 101.056 108.212C100.891 108.651 100.808 109.15 100.808 109.709C100.808 110.277 100.891 110.774 101.056 111.2C101.225 111.623 101.472 111.953 101.798 112.19C102.128 112.424 102.533 112.541 103.012 112.541ZM113.899 114.388V102.024H118.536C119.485 102.024 120.282 102.201 120.926 102.555C121.574 102.91 122.063 103.397 122.393 104.016C122.727 104.632 122.894 105.332 122.894 106.117C122.894 106.91 122.727 107.614 122.393 108.23C122.059 108.846 121.566 109.331 120.914 109.685C120.262 110.035 119.459 110.21 118.505 110.21H115.433V108.369H118.203C118.759 108.369 119.214 108.272 119.568 108.079C119.922 107.886 120.184 107.62 120.353 107.282C120.526 106.944 120.612 106.556 120.612 106.117C120.612 105.679 120.526 105.292 120.353 104.958C120.184 104.624 119.92 104.364 119.562 104.179C119.208 103.99 118.751 103.896 118.191 103.896H116.139V114.388H113.899ZM128.655 114.569C127.749 114.569 126.965 114.37 126.301 113.971C125.636 113.573 125.121 113.015 124.755 112.299C124.393 111.583 124.212 110.746 124.212 109.788C124.212 108.83 124.393 107.991 124.755 107.27C125.121 106.55 125.636 105.99 126.301 105.592C126.965 105.194 127.749 104.994 128.655 104.994C129.56 104.994 130.345 105.194 131.009 105.592C131.673 105.99 132.187 106.55 132.549 107.27C132.915 107.991 133.098 108.83 133.098 109.788C133.098 110.746 132.915 111.583 132.549 112.299C132.187 113.015 131.673 113.573 131.009 113.971C130.345 114.37 129.56 114.569 128.655 114.569ZM128.667 112.818C129.158 112.818 129.569 112.683 129.899 112.414C130.229 112.14 130.474 111.774 130.635 111.315C130.8 110.856 130.883 110.345 130.883 109.782C130.883 109.214 130.8 108.701 130.635 108.242C130.474 107.779 130.229 107.411 129.899 107.137C129.569 106.864 129.158 106.727 128.667 106.727C128.164 106.727 127.745 106.864 127.411 107.137C127.081 107.411 126.834 107.779 126.669 108.242C126.508 108.701 126.427 109.214 126.427 109.782C126.427 110.345 126.508 110.856 126.669 111.315C126.834 111.774 127.081 112.14 127.411 112.414C127.745 112.683 128.164 112.818 128.667 112.818ZM137.138 102.024V114.388H134.953V102.024H137.138ZM139.386 114.388V105.115H141.571V114.388H139.386ZM140.484 103.799C140.138 103.799 139.84 103.684 139.591 103.455C139.341 103.222 139.217 102.942 139.217 102.616C139.217 102.286 139.341 102.006 139.591 101.777C139.84 101.543 140.138 101.427 140.484 101.427C140.834 101.427 141.132 101.543 141.378 101.777C141.627 102.006 141.752 102.286 141.752 102.616C141.752 102.942 141.627 103.222 141.378 103.455C141.132 103.684 140.834 103.799 140.484 103.799ZM147.863 114.569C146.937 114.569 146.142 114.366 145.478 113.959C144.818 113.553 144.309 112.991 143.951 112.275C143.597 111.554 143.42 110.725 143.42 109.788C143.42 108.846 143.601 108.015 143.963 107.294C144.325 106.57 144.836 106.007 145.496 105.604C146.161 105.198 146.945 104.994 147.851 104.994C148.603 104.994 149.27 105.133 149.849 105.411C150.433 105.685 150.897 106.073 151.244 106.576C151.59 107.075 151.787 107.659 151.835 108.327H149.746C149.662 107.88 149.461 107.508 149.143 107.21C148.829 106.908 148.408 106.757 147.881 106.757C147.434 106.757 147.042 106.878 146.704 107.119C146.366 107.357 146.102 107.699 145.913 108.146C145.728 108.592 145.635 109.128 145.635 109.751C145.635 110.383 145.728 110.927 145.913 111.381C146.098 111.832 146.358 112.18 146.692 112.426C147.03 112.667 147.426 112.788 147.881 112.788C148.203 112.788 148.491 112.728 148.744 112.607C149.002 112.482 149.217 112.303 149.39 112.07C149.563 111.836 149.682 111.552 149.746 111.218H151.835C151.783 111.874 151.59 112.456 151.256 112.963C150.922 113.466 150.467 113.861 149.891 114.146C149.316 114.428 148.64 114.569 147.863 114.569ZM154.988 117.865C154.69 117.865 154.415 117.841 154.161 117.793C153.911 117.748 153.712 117.696 153.563 117.636L154.07 115.933C154.388 116.026 154.672 116.07 154.922 116.066C155.171 116.062 155.39 115.984 155.58 115.831C155.773 115.682 155.936 115.432 156.069 115.082L156.256 114.581L152.893 105.115H155.211L157.348 112.118H157.445L159.588 105.115H161.912L158.2 115.511C158.027 116.002 157.797 116.422 157.511 116.772C157.226 117.127 156.876 117.396 156.461 117.581C156.051 117.771 155.56 117.865 154.988 117.865Z" fill="#181D27"/>
<g filter="url(#filter0_d_425_25242)">
<g clip-path="url(#clip2_425_25242)">
<rect x="48.1846" y="138.763" width="579.63" height="343.149" rx="9.88064" fill="#111111"/>
<path d="M77.8196 239.271V231.831H78.8546L78.9896 232.701H79.0646C79.1946 232.401 79.3896 232.151 79.6496 231.951C79.9196 231.751 80.2446 231.651 80.6246 231.651C81.0046 231.651 81.3246 231.746 81.5846 231.936C81.8546 232.116 82.0496 232.371 82.1696 232.701H82.2296C82.3596 232.401 82.5696 232.151 82.8596 231.951C83.1496 231.751 83.4996 231.651 83.9096 231.651C84.4796 231.651 84.9046 231.846 85.1846 232.236C85.4746 232.616 85.6196 233.126 85.6196 233.766V239.271H84.3896V233.961C84.3896 233.601 84.3146 233.316 84.1646 233.106C84.0246 232.896 83.7946 232.791 83.4746 232.791C83.1446 232.791 82.8746 232.916 82.6646 233.166C82.4546 233.416 82.3496 233.771 82.3496 234.231V239.271H81.1046V233.961C81.1046 233.601 81.0346 233.316 80.8946 233.106C80.7546 232.896 80.5246 232.791 80.2046 232.791C79.8746 232.791 79.5996 232.916 79.3796 233.166C79.1696 233.416 79.0646 233.771 79.0646 234.231V239.271H77.8196ZM90.6688 230.511C90.3688 230.511 90.1188 230.411 89.9188 230.211C89.7188 230.011 89.6188 229.771 89.6188 229.491C89.6188 229.201 89.7188 228.961 89.9188 228.771C90.1188 228.571 90.3688 228.471 90.6688 228.471C90.9588 228.471 91.2038 228.571 91.4038 228.771C91.6138 228.961 91.7188 229.201 91.7188 229.491C91.7188 229.771 91.6138 230.011 91.4038 230.211C91.2038 230.411 90.9588 230.511 90.6688 230.511ZM87.7588 239.271V238.191H90.1288V233.286C90.1288 233.036 90.0038 232.911 89.7538 232.911H88.0138V231.831H90.0538C90.9438 231.831 91.3888 232.276 91.3888 233.166V238.191H93.7588V239.271H87.7588ZM96.5729 239.271V231.831H97.6229L97.7579 232.956H97.8329C98.0329 232.596 98.3479 232.291 98.7779 232.041C99.2079 231.781 99.7029 231.651 100.263 231.651C101.173 231.651 101.853 231.921 102.303 232.461C102.763 233.001 102.993 233.781 102.993 234.801V239.271H101.733V234.951C101.733 234.291 101.588 233.776 101.298 233.406C101.008 233.026 100.558 232.836 99.9479 232.836C99.3579 232.836 98.8579 233.041 98.4479 233.451C98.0379 233.851 97.8329 234.431 97.8329 235.191V239.271H96.5729ZM105.477 239.271V228.771H108.702C109.512 228.771 110.177 228.906 110.697 229.176C111.227 229.446 111.622 229.816 111.882 230.286C112.142 230.746 112.272 231.271 112.272 231.861C112.272 232.551 112.092 233.161 111.732 233.691C111.382 234.211 110.842 234.576 110.112 234.786L112.392 239.271H110.892L108.777 234.966H108.702H106.737V239.271H105.477ZM106.737 233.811H108.657C109.457 233.811 110.042 233.631 110.412 233.271C110.792 232.901 110.982 232.431 110.982 231.861C110.982 231.261 110.797 230.786 110.427 230.436C110.067 230.086 109.472 229.911 108.642 229.911H106.737V233.811ZM117.816 239.451C117.116 239.451 116.496 239.291 115.956 238.971C115.426 238.641 115.006 238.186 114.696 237.606C114.386 237.016 114.231 236.331 114.231 235.551C114.231 234.771 114.381 234.091 114.681 233.511C114.991 232.921 115.416 232.466 115.956 232.146C116.496 231.816 117.126 231.651 117.846 231.651C118.566 231.651 119.181 231.816 119.691 232.146C120.201 232.466 120.591 232.891 120.861 233.421C121.131 233.951 121.266 234.521 121.266 235.131C121.266 235.241 121.261 235.351 121.251 235.461C121.251 235.571 121.251 235.696 121.251 235.836H115.476C115.506 236.386 115.631 236.846 115.851 237.216C116.081 237.576 116.366 237.846 116.706 238.026C117.056 238.206 117.426 238.296 117.816 238.296C118.366 238.296 118.796 238.181 119.106 237.951C119.416 237.721 119.651 237.401 119.811 236.991H121.056C120.886 237.681 120.531 238.266 119.991 238.746C119.451 239.216 118.726 239.451 117.816 239.451ZM117.816 232.776C117.236 232.776 116.726 232.951 116.286 233.301C115.856 233.651 115.591 234.141 115.491 234.771H120.021C119.981 234.151 119.756 233.666 119.346 233.316C118.946 232.956 118.436 232.776 117.816 232.776ZM123.405 242.571V231.831H124.425L124.575 233.061H124.665C124.855 232.661 125.16 232.326 125.58 232.056C126 231.786 126.495 231.651 127.065 231.651C127.665 231.651 128.205 231.801 128.685 232.101C129.175 232.401 129.56 232.846 129.84 233.436C130.12 234.016 130.26 234.726 130.26 235.566C130.26 236.396 130.115 237.101 129.825 237.681C129.545 238.261 129.155 238.701 128.655 239.001C128.165 239.301 127.6 239.451 126.96 239.451C126.39 239.451 125.905 239.331 125.505 239.091C125.115 238.841 124.835 238.551 124.665 238.221V242.571H123.405ZM126.81 238.251C127.44 238.251 127.96 238.031 128.37 237.591C128.78 237.141 128.985 236.461 128.985 235.551C128.985 234.641 128.78 233.966 128.37 233.526C127.96 233.076 127.44 232.851 126.81 232.851C126.18 232.851 125.66 233.076 125.25 233.526C124.84 233.966 124.635 234.641 124.635 235.551C124.635 236.461 124.84 237.141 125.25 237.591C125.66 238.031 126.18 238.251 126.81 238.251ZM132.354 239.271V238.191H134.889V229.926C134.889 229.676 134.764 229.551 134.514 229.551H132.624V228.471H134.814C135.244 228.471 135.574 228.586 135.804 228.816C136.034 229.046 136.149 229.376 136.149 229.806V238.191H138.684V239.271H132.354ZM144.634 230.511C144.334 230.511 144.084 230.411 143.884 230.211C143.684 230.011 143.584 229.771 143.584 229.491C143.584 229.201 143.684 228.961 143.884 228.771C144.084 228.571 144.334 228.471 144.634 228.471C144.924 228.471 145.169 228.571 145.369 228.771C145.579 228.961 145.684 229.201 145.684 229.491C145.684 229.771 145.579 230.011 145.369 230.211C145.169 230.411 144.924 230.511 144.634 230.511ZM141.724 239.271V238.191H144.094V233.286C144.094 233.036 143.969 232.911 143.719 232.911H141.979V231.831H144.019C144.909 231.831 145.354 232.276 145.354 233.166V238.191H147.724V239.271H141.724ZM153.838 239.451C153.168 239.451 152.568 239.296 152.038 238.986C151.518 238.676 151.103 238.231 150.793 237.651C150.483 237.061 150.328 236.361 150.328 235.551C150.328 234.741 150.483 234.046 150.793 233.466C151.103 232.876 151.523 232.426 152.053 232.116C152.593 231.806 153.188 231.651 153.838 231.651C154.758 231.651 155.493 231.881 156.043 232.341C156.593 232.801 156.943 233.416 157.093 234.186H155.803C155.683 233.776 155.453 233.451 155.113 233.211C154.773 232.961 154.343 232.836 153.823 232.836C153.443 232.836 153.083 232.936 152.743 233.136C152.403 233.336 152.128 233.636 151.918 234.036C151.708 234.436 151.603 234.941 151.603 235.551C151.603 236.161 151.708 236.671 151.918 237.081C152.128 237.481 152.403 237.781 152.743 237.981C153.083 238.181 153.443 238.281 153.823 238.281C154.373 238.281 154.808 238.156 155.128 237.906C155.458 237.656 155.683 237.326 155.803 236.916H157.093C156.903 237.706 156.528 238.326 155.968 238.776C155.418 239.226 154.708 239.451 153.838 239.451ZM162.082 239.451C161.492 239.451 161.002 239.346 160.612 239.136C160.222 238.926 159.932 238.651 159.742 238.311C159.552 237.961 159.457 237.581 159.457 237.171C159.457 236.411 159.732 235.836 160.282 235.446C160.842 235.046 161.587 234.846 162.517 234.846H164.557V234.696C164.557 233.396 163.962 232.746 162.772 232.746C162.292 232.746 161.887 232.851 161.557 233.061C161.237 233.271 161.032 233.601 160.942 234.051H159.652C159.702 233.551 159.867 233.121 160.147 232.761C160.437 232.401 160.807 232.126 161.257 231.936C161.707 231.746 162.212 231.651 162.772 231.651C163.832 231.651 164.602 231.931 165.082 232.491C165.572 233.041 165.817 233.776 165.817 234.696V239.271H164.737L164.632 238.116H164.527C164.307 238.476 164.012 238.791 163.642 239.061C163.282 239.321 162.762 239.451 162.082 239.451ZM162.307 238.341C162.787 238.341 163.192 238.226 163.522 237.996C163.862 237.766 164.117 237.461 164.287 237.081C164.467 236.701 164.557 236.286 164.557 235.836H162.622C161.942 235.836 161.462 235.951 161.182 236.181C160.912 236.411 160.777 236.716 160.777 237.096C160.777 237.486 160.907 237.791 161.167 238.011C161.427 238.231 161.807 238.341 162.307 238.341ZM171.781 239.451C170.831 239.451 170.061 239.231 169.471 238.791C168.891 238.341 168.566 237.726 168.496 236.946H169.801C169.861 237.356 170.061 237.691 170.401 237.951C170.751 238.211 171.221 238.341 171.811 238.341C172.371 238.341 172.786 238.221 173.056 237.981C173.336 237.741 173.476 237.466 173.476 237.156C173.476 236.736 173.311 236.451 172.981 236.301C172.651 236.141 172.156 236.021 171.496 235.941C170.706 235.851 170.051 235.636 169.531 235.296C169.011 234.956 168.751 234.446 168.751 233.766C168.751 233.156 169.006 232.651 169.516 232.251C170.026 231.851 170.721 231.651 171.601 231.651C172.471 231.651 173.156 231.851 173.656 232.251C174.156 232.641 174.441 233.201 174.511 233.931H173.266C173.236 233.571 173.061 233.286 172.741 233.076C172.431 232.856 172.041 232.746 171.571 232.746C171.081 232.746 170.701 232.841 170.431 233.031C170.161 233.211 170.026 233.451 170.026 233.751C170.026 234.051 170.176 234.301 170.476 234.501C170.786 234.691 171.271 234.816 171.931 234.876C172.451 234.936 172.926 235.036 173.356 235.176C173.786 235.316 174.126 235.536 174.376 235.836C174.636 236.136 174.766 236.556 174.766 237.096C174.776 237.546 174.651 237.951 174.391 238.311C174.141 238.661 173.791 238.941 173.341 239.151C172.891 239.351 172.371 239.451 171.781 239.451ZM180.7 239.301C180.39 239.301 180.125 239.196 179.905 238.986C179.685 238.776 179.575 238.516 179.575 238.206C179.575 237.906 179.685 237.651 179.905 237.441C180.125 237.231 180.39 237.126 180.7 237.126C181.01 237.126 181.275 237.231 181.495 237.441C181.715 237.651 181.825 237.906 181.825 238.206C181.825 238.516 181.715 238.776 181.495 238.986C181.275 239.196 181.01 239.301 180.7 239.301ZM180.7 233.376C180.39 233.376 180.125 233.271 179.905 233.061C179.685 232.851 179.575 232.591 179.575 232.281C179.575 231.981 179.685 231.726 179.905 231.516C180.125 231.306 180.39 231.201 180.7 231.201C181.01 231.201 181.275 231.306 181.495 231.516C181.715 231.726 181.825 231.981 181.825 232.281C181.825 232.591 181.715 232.851 181.495 233.061C181.275 233.271 181.01 233.376 180.7 233.376ZM77.8196 269.271V261.831H78.8546L78.9896 262.701H79.0646C79.1946 262.401 79.3896 262.151 79.6496 261.951C79.9196 261.751 80.2446 261.651 80.6246 261.651C81.0046 261.651 81.3246 261.746 81.5846 261.936C81.8546 262.116 82.0496 262.371 82.1696 262.701H82.2296C82.3596 262.401 82.5696 262.151 82.8596 261.951C83.1496 261.751 83.4996 261.651 83.9096 261.651C84.4796 261.651 84.9046 261.846 85.1846 262.236C85.4746 262.616 85.6196 263.126 85.6196 263.766V269.271H84.3896V263.961C84.3896 263.601 84.3146 263.316 84.1646 263.106C84.0246 262.896 83.7946 262.791 83.4746 262.791C83.1446 262.791 82.8746 262.916 82.6646 263.166C82.4546 263.416 82.3496 263.771 82.3496 264.231V269.271H81.1046V263.961C81.1046 263.601 81.0346 263.316 80.8946 263.106C80.7546 262.896 80.5246 262.791 80.2046 262.791C79.8746 262.791 79.5996 262.916 79.3796 263.166C79.1696 263.416 79.0646 263.771 79.0646 264.231V269.271H77.8196ZM90.1288 269.451C89.5388 269.451 89.0488 269.346 88.6588 269.136C88.2688 268.926 87.9788 268.651 87.7888 268.311C87.5988 267.961 87.5038 267.581 87.5038 267.171C87.5038 266.411 87.7788 265.836 88.3288 265.446C88.8888 265.046 89.6338 264.846 90.5638 264.846H92.6038V264.696C92.6038 263.396 92.0088 262.746 90.8188 262.746C90.3388 262.746 89.9338 262.851 89.6038 263.061C89.2838 263.271 89.0788 263.601 88.9888 264.051H87.6988C87.7488 263.551 87.9138 263.121 88.1938 262.761C88.4838 262.401 88.8538 262.126 89.3038 261.936C89.7538 261.746 90.2588 261.651 90.8188 261.651C91.8788 261.651 92.6488 261.931 93.1288 262.491C93.6188 263.041 93.8638 263.776 93.8638 264.696V269.271H92.7838L92.6788 268.116H92.5738C92.3538 268.476 92.0588 268.791 91.6888 269.061C91.3288 269.321 90.8088 269.451 90.1288 269.451ZM90.3538 268.341C90.8338 268.341 91.2388 268.226 91.5688 267.996C91.9088 267.766 92.1638 267.461 92.3338 267.081C92.5138 266.701 92.6038 266.286 92.6038 265.836H90.6688C89.9888 265.836 89.5088 265.951 89.2288 266.181C88.9588 266.411 88.8238 266.716 88.8238 267.096C88.8238 267.486 88.9538 267.791 89.2138 268.011C89.4738 268.231 89.8538 268.341 90.3538 268.341ZM96.3479 269.271L98.8829 265.551L96.2879 261.831H97.6829L99.7529 264.831L101.823 261.831H103.218L100.623 265.551L103.158 269.271H101.763L99.7529 266.256L97.7279 269.271H96.3479ZM105.477 269.271V258.771H108.702C109.512 258.771 110.177 258.906 110.697 259.176C111.227 259.446 111.622 259.816 111.882 260.286C112.142 260.746 112.272 261.271 112.272 261.861C112.272 262.551 112.092 263.161 111.732 263.691C111.382 264.211 110.842 264.576 110.112 264.786L112.392 269.271H110.892L108.777 264.966H108.702H106.737V269.271H105.477ZM106.737 263.811H108.657C109.457 263.811 110.042 263.631 110.412 263.271C110.792 262.901 110.982 262.431 110.982 261.861C110.982 261.261 110.797 260.786 110.427 260.436C110.067 260.086 109.472 259.911 108.642 259.911H106.737V263.811ZM117.816 269.451C117.116 269.451 116.496 269.291 115.956 268.971C115.426 268.641 115.006 268.186 114.696 267.606C114.386 267.016 114.231 266.331 114.231 265.551C114.231 264.771 114.381 264.091 114.681 263.511C114.991 262.921 115.416 262.466 115.956 262.146C116.496 261.816 117.126 261.651 117.846 261.651C118.566 261.651 119.181 261.816 119.691 262.146C120.201 262.466 120.591 262.891 120.861 263.421C121.131 263.951 121.266 264.521 121.266 265.131C121.266 265.241 121.261 265.351 121.251 265.461C121.251 265.571 121.251 265.696 121.251 265.836H115.476C115.506 266.386 115.631 266.846 115.851 267.216C116.081 267.576 116.366 267.846 116.706 268.026C117.056 268.206 117.426 268.296 117.816 268.296C118.366 268.296 118.796 268.181 119.106 267.951C119.416 267.721 119.651 267.401 119.811 266.991H121.056C120.886 267.681 120.531 268.266 119.991 268.746C119.451 269.216 118.726 269.451 117.816 269.451ZM117.816 262.776C117.236 262.776 116.726 262.951 116.286 263.301C115.856 263.651 115.591 264.141 115.491 264.771H120.021C119.981 264.151 119.756 263.666 119.346 263.316C118.946 262.956 118.436 262.776 117.816 262.776ZM123.405 272.571V261.831H124.425L124.575 263.061H124.665C124.855 262.661 125.16 262.326 125.58 262.056C126 261.786 126.495 261.651 127.065 261.651C127.665 261.651 128.205 261.801 128.685 262.101C129.175 262.401 129.56 262.846 129.84 263.436C130.12 264.016 130.26 264.726 130.26 265.566C130.26 266.396 130.115 267.101 129.825 267.681C129.545 268.261 129.155 268.701 128.655 269.001C128.165 269.301 127.6 269.451 126.96 269.451C126.39 269.451 125.905 269.331 125.505 269.091C125.115 268.841 124.835 268.551 124.665 268.221V272.571H123.405ZM126.81 268.251C127.44 268.251 127.96 268.031 128.37 267.591C128.78 267.141 128.985 266.461 128.985 265.551C128.985 264.641 128.78 263.966 128.37 263.526C127.96 263.076 127.44 262.851 126.81 262.851C126.18 262.851 125.66 263.076 125.25 263.526C124.84 263.966 124.635 264.641 124.635 265.551C124.635 266.461 124.84 267.141 125.25 267.591C125.66 268.031 126.18 268.251 126.81 268.251ZM132.354 269.271V268.191H134.889V259.926C134.889 259.676 134.764 259.551 134.514 259.551H132.624V258.471H134.814C135.244 258.471 135.574 258.586 135.804 258.816C136.034 259.046 136.149 259.376 136.149 259.806V268.191H138.684V269.271H132.354ZM144.634 260.511C144.334 260.511 144.084 260.411 143.884 260.211C143.684 260.011 143.584 259.771 143.584 259.491C143.584 259.201 143.684 258.961 143.884 258.771C144.084 258.571 144.334 258.471 144.634 258.471C144.924 258.471 145.169 258.571 145.369 258.771C145.579 258.961 145.684 259.201 145.684 259.491C145.684 259.771 145.579 260.011 145.369 260.211C145.169 260.411 144.924 260.511 144.634 260.511ZM141.724 269.271V268.191H144.094V263.286C144.094 263.036 143.969 262.911 143.719 262.911H141.979V261.831H144.019C144.909 261.831 145.354 262.276 145.354 263.166V268.191H147.724V269.271H141.724ZM153.838 269.451C153.168 269.451 152.568 269.296 152.038 268.986C151.518 268.676 151.103 268.231 150.793 267.651C150.483 267.061 150.328 266.361 150.328 265.551C150.328 264.741 150.483 264.046 150.793 263.466C151.103 262.876 151.523 262.426 152.053 262.116C152.593 261.806 153.188 261.651 153.838 261.651C154.758 261.651 155.493 261.881 156.043 262.341C156.593 262.801 156.943 263.416 157.093 264.186H155.803C155.683 263.776 155.453 263.451 155.113 263.211C154.773 262.961 154.343 262.836 153.823 262.836C153.443 262.836 153.083 262.936 152.743 263.136C152.403 263.336 152.128 263.636 151.918 264.036C151.708 264.436 151.603 264.941 151.603 265.551C151.603 266.161 151.708 266.671 151.918 267.081C152.128 267.481 152.403 267.781 152.743 267.981C153.083 268.181 153.443 268.281 153.823 268.281C154.373 268.281 154.808 268.156 155.128 267.906C155.458 267.656 155.683 267.326 155.803 266.916H157.093C156.903 267.706 156.528 268.326 155.968 268.776C155.418 269.226 154.708 269.451 153.838 269.451ZM162.082 269.451C161.492 269.451 161.002 269.346 160.612 269.136C160.222 268.926 159.932 268.651 159.742 268.311C159.552 267.961 159.457 267.581 159.457 267.171C159.457 266.411 159.732 265.836 160.282 265.446C160.842 265.046 161.587 264.846 162.517 264.846H164.557V264.696C164.557 263.396 163.962 262.746 162.772 262.746C162.292 262.746 161.887 262.851 161.557 263.061C161.237 263.271 161.032 263.601 160.942 264.051H159.652C159.702 263.551 159.867 263.121 160.147 262.761C160.437 262.401 160.807 262.126 161.257 261.936C161.707 261.746 162.212 261.651 162.772 261.651C163.832 261.651 164.602 261.931 165.082 262.491C165.572 263.041 165.817 263.776 165.817 264.696V269.271H164.737L164.632 268.116H164.527C164.307 268.476 164.012 268.791 163.642 269.061C163.282 269.321 162.762 269.451 162.082 269.451ZM162.307 268.341C162.787 268.341 163.192 268.226 163.522 267.996C163.862 267.766 164.117 267.461 164.287 267.081C164.467 266.701 164.557 266.286 164.557 265.836H162.622C161.942 265.836 161.462 265.951 161.182 266.181C160.912 266.411 160.777 266.716 160.777 267.096C160.777 267.486 160.907 267.791 161.167 268.011C161.427 268.231 161.807 268.341 162.307 268.341ZM171.781 269.451C170.831 269.451 170.061 269.231 169.471 268.791C168.891 268.341 168.566 267.726 168.496 266.946H169.801C169.861 267.356 170.061 267.691 170.401 267.951C170.751 268.211 171.221 268.341 171.811 268.341C172.371 268.341 172.786 268.221 173.056 267.981C173.336 267.741 173.476 267.466 173.476 267.156C173.476 266.736 173.311 266.451 172.981 266.301C172.651 266.141 172.156 266.021 171.496 265.941C170.706 265.851 170.051 265.636 169.531 265.296C169.011 264.956 168.751 264.446 168.751 263.766C168.751 263.156 169.006 262.651 169.516 262.251C170.026 261.851 170.721 261.651 171.601 261.651C172.471 261.651 173.156 261.851 173.656 262.251C174.156 262.641 174.441 263.201 174.511 263.931H173.266C173.236 263.571 173.061 263.286 172.741 263.076C172.431 262.856 172.041 262.746 171.571 262.746C171.081 262.746 170.701 262.841 170.431 263.031C170.161 263.211 170.026 263.451 170.026 263.751C170.026 264.051 170.176 264.301 170.476 264.501C170.786 264.691 171.271 264.816 171.931 264.876C172.451 264.936 172.926 265.036 173.356 265.176C173.786 265.316 174.126 265.536 174.376 265.836C174.636 266.136 174.766 266.556 174.766 267.096C174.776 267.546 174.651 267.951 174.391 268.311C174.141 268.661 173.791 268.941 173.341 269.151C172.891 269.351 172.371 269.451 171.781 269.451ZM180.7 269.301C180.39 269.301 180.125 269.196 179.905 268.986C179.685 268.776 179.575 268.516 179.575 268.206C179.575 267.906 179.685 267.651 179.905 267.441C180.125 267.231 180.39 267.126 180.7 267.126C181.01 267.126 181.275 267.231 181.495 267.441C181.715 267.651 181.825 267.906 181.825 268.206C181.825 268.516 181.715 268.776 181.495 268.986C181.275 269.196 181.01 269.301 180.7 269.301ZM180.7 263.376C180.39 263.376 180.125 263.271 179.905 263.061C179.685 262.851 179.575 262.591 179.575 262.281C179.575 261.981 179.685 261.726 179.905 261.516C180.125 261.306 180.39 261.201 180.7 261.201C181.01 261.201 181.275 261.306 181.495 261.516C181.715 261.726 181.825 261.981 181.825 262.281C181.825 262.591 181.715 262.851 181.495 263.061C181.275 263.271 181.01 263.376 180.7 263.376ZM77.8196 300.271V292.831H78.8546L78.9896 293.701H79.0646C79.1946 293.401 79.3896 293.151 79.6496 292.951C79.9196 292.751 80.2446 292.651 80.6246 292.651C81.0046 292.651 81.3246 292.746 81.5846 292.936C81.8546 293.116 82.0496 293.371 82.1696 293.701H82.2296C82.3596 293.401 82.5696 293.151 82.8596 292.951C83.1496 292.751 83.4996 292.651 83.9096 292.651C84.4796 292.651 84.9046 292.846 85.1846 293.236C85.4746 293.616 85.6196 294.126 85.6196 294.766V300.271H84.3896V294.961C84.3896 294.601 84.3146 294.316 84.1646 294.106C84.0246 293.896 83.7946 293.791 83.4746 293.791C83.1446 293.791 82.8746 293.916 82.6646 294.166C82.4546 294.416 82.3496 294.771 82.3496 295.231V300.271H81.1046V294.961C81.1046 294.601 81.0346 294.316 80.8946 294.106C80.7546 293.896 80.5246 293.791 80.2046 293.791C79.8746 293.791 79.5996 293.916 79.3796 294.166C79.1696 294.416 79.0646 294.771 79.0646 295.231V300.271H77.8196ZM90.8338 300.451C90.1338 300.451 89.5138 300.291 88.9738 299.971C88.4438 299.641 88.0238 299.186 87.7138 298.606C87.4038 298.016 87.2488 297.331 87.2488 296.551C87.2488 295.771 87.3988 295.091 87.6988 294.511C88.0088 293.921 88.4338 293.466 88.9738 293.146C89.5138 292.816 90.1438 292.651 90.8638 292.651C91.5838 292.651 92.1988 292.816 92.7088 293.146C93.2188 293.466 93.6088 293.891 93.8788 294.421C94.1488 294.951 94.2838 295.521 94.2838 296.131C94.2838 296.241 94.2788 296.351 94.2688 296.461C94.2688 296.571 94.2688 296.696 94.2688 296.836H88.4938C88.5238 297.386 88.6488 297.846 88.8688 298.216C89.0988 298.576 89.3838 298.846 89.7238 299.026C90.0738 299.206 90.4438 299.296 90.8338 299.296C91.3838 299.296 91.8138 299.181 92.1238 298.951C92.4338 298.721 92.6688 298.401 92.8288 297.991H94.0738C93.9038 298.681 93.5488 299.266 93.0088 299.746C92.4688 300.216 91.7438 300.451 90.8338 300.451ZM90.8338 293.776C90.2538 293.776 89.7438 293.951 89.3038 294.301C88.8738 294.651 88.6088 295.141 88.5088 295.771H93.0388C92.9988 295.151 92.7738 294.666 92.3638 294.316C91.9638 293.956 91.4538 293.776 90.8338 293.776ZM100.533 300.271C99.8529 300.271 99.3179 300.106 98.9279 299.776C98.5379 299.446 98.3429 298.851 98.3429 297.991V293.911H96.4529V292.831H97.5779C98.0879 292.831 98.3829 292.581 98.4629 292.081L98.6729 290.926H99.6029V292.831H102.573V293.911H99.6029V297.991C99.6029 298.411 99.6979 298.706 99.8879 298.876C100.088 299.046 100.428 299.131 100.908 299.131H102.573V300.271H100.533ZM105.507 300.271V299.191H107.412V294.286C107.412 294.036 107.292 293.911 107.052 293.911H105.702V292.831H107.517C107.847 292.831 108.112 292.921 108.312 293.101C108.512 293.281 108.612 293.546 108.612 293.896V294.211H108.672C108.792 293.711 109.017 293.326 109.347 293.056C109.687 292.786 110.157 292.651 110.757 292.651H112.122V293.986H110.577C109.967 293.986 109.497 294.191 109.167 294.601C108.837 295.001 108.672 295.516 108.672 296.146V299.191H111.012V300.271H105.507ZM117.651 291.511C117.351 291.511 117.101 291.411 116.901 291.211C116.701 291.011 116.601 290.771 116.601 290.491C116.601 290.201 116.701 289.961 116.901 289.771C117.101 289.571 117.351 289.471 117.651 289.471C117.941 289.471 118.186 289.571 118.386 289.771C118.596 289.961 118.701 290.201 118.701 290.491C118.701 290.771 118.596 291.011 118.386 291.211C118.186 291.411 117.941 291.511 117.651 291.511ZM114.741 300.271V299.191H117.111V294.286C117.111 294.036 116.986 293.911 116.736 293.911H114.996V292.831H117.036C117.926 292.831 118.371 293.276 118.371 294.166V299.191H120.741V300.271H114.741ZM126.855 300.451C126.185 300.451 125.585 300.296 125.055 299.986C124.535 299.676 124.12 299.231 123.81 298.651C123.5 298.061 123.345 297.361 123.345 296.551C123.345 295.741 123.5 295.046 123.81 294.466C124.12 293.876 124.54 293.426 125.07 293.116C125.61 292.806 126.205 292.651 126.855 292.651C127.775 292.651 128.51 292.881 129.06 293.341C129.61 293.801 129.96 294.416 130.11 295.186H128.82C128.7 294.776 128.47 294.451 128.13 294.211C127.79 293.961 127.36 293.836 126.84 293.836C126.46 293.836 126.1 293.936 125.76 294.136C125.42 294.336 125.145 294.636 124.935 295.036C124.725 295.436 124.62 295.941 124.62 296.551C124.62 297.161 124.725 297.671 124.935 298.081C125.145 298.481 125.42 298.781 125.76 298.981C126.1 299.181 126.46 299.281 126.84 299.281C127.39 299.281 127.825 299.156 128.145 298.906C128.475 298.656 128.7 298.326 128.82 297.916H130.11C129.92 298.706 129.545 299.326 128.985 299.776C128.435 300.226 127.725 300.451 126.855 300.451ZM135.804 300.451C134.854 300.451 134.084 300.231 133.494 299.791C132.914 299.341 132.589 298.726 132.519 297.946H133.824C133.884 298.356 134.084 298.691 134.424 298.951C134.774 299.211 135.244 299.341 135.834 299.341C136.394 299.341 136.809 299.221 137.079 298.981C137.359 298.741 137.499 298.466 137.499 298.156C137.499 297.736 137.334 297.451 137.004 297.301C136.674 297.141 136.179 297.021 135.519 296.941C134.729 296.851 134.074 296.636 133.554 296.296C133.034 295.956 132.774 295.446 132.774 294.766C132.774 294.156 133.029 293.651 133.539 293.251C134.049 292.851 134.744 292.651 135.624 292.651C136.494 292.651 137.179 292.851 137.679 293.251C138.179 293.641 138.464 294.201 138.534 294.931H137.289C137.259 294.571 137.084 294.286 136.764 294.076C136.454 293.856 136.064 293.746 135.594 293.746C135.104 293.746 134.724 293.841 134.454 294.031C134.184 294.211 134.049 294.451 134.049 294.751C134.049 295.051 134.199 295.301 134.499 295.501C134.809 295.691 135.294 295.816 135.954 295.876C136.474 295.936 136.949 296.036 137.379 296.176C137.809 296.316 138.149 296.536 138.399 296.836C138.659 297.136 138.789 297.556 138.789 298.096C138.799 298.546 138.674 298.951 138.414 299.311C138.164 299.661 137.814 299.941 137.364 300.151C136.914 300.351 136.394 300.451 135.804 300.451ZM144.724 300.301C144.414 300.301 144.149 300.196 143.929 299.986C143.709 299.776 143.599 299.516 143.599 299.206C143.599 298.906 143.709 298.651 143.929 298.441C144.149 298.231 144.414 298.126 144.724 298.126C145.034 298.126 145.299 298.231 145.519 298.441C145.739 298.651 145.849 298.906 145.849 299.206C145.849 299.516 145.739 299.776 145.519 299.986C145.299 300.196 145.034 300.301 144.724 300.301ZM144.724 294.376C144.414 294.376 144.149 294.271 143.929 294.061C143.709 293.851 143.599 293.591 143.599 293.281C143.599 292.981 143.709 292.726 143.929 292.516C144.149 292.306 144.414 292.201 144.724 292.201C145.034 292.201 145.299 292.306 145.519 292.516C145.739 292.726 145.849 292.981 145.849 293.281C145.849 293.591 145.739 293.851 145.519 294.061C145.299 294.271 145.034 294.376 144.724 294.376Z" fill="#C471FF"/>
<path d="M195.298 239.271V238.281C196.378 237.421 197.318 236.631 198.118 235.911C198.928 235.191 199.553 234.496 199.993 233.826C200.433 233.156 200.653 232.471 200.653 231.771C200.653 231.141 200.473 230.646 200.113 230.286C199.763 229.916 199.288 229.731 198.688 229.731C198.228 229.731 197.838 229.831 197.518 230.031C197.198 230.231 196.958 230.496 196.798 230.826C196.638 231.156 196.558 231.511 196.558 231.891H195.313C195.323 231.201 195.473 230.611 195.763 230.121C196.063 229.621 196.463 229.241 196.963 228.981C197.473 228.721 198.048 228.591 198.688 228.591C199.718 228.591 200.518 228.876 201.088 229.446C201.658 230.016 201.943 230.781 201.943 231.741C201.943 232.371 201.808 232.976 201.538 233.556C201.268 234.126 200.908 234.676 200.458 235.206C200.008 235.736 199.503 236.246 198.943 236.736C198.383 237.226 197.818 237.696 197.248 238.146H202.228V239.271H195.298ZM195.238 269.271V268.131H197.953V260.256L195.388 260.751V259.791L198.373 258.771H199.213V268.131H202.078V269.271H195.238ZM207.683 269.451C206.893 269.451 206.193 269.231 205.583 268.791C204.983 268.351 204.513 267.726 204.173 266.916C203.843 266.106 203.678 265.141 203.678 264.021C203.678 262.901 203.843 261.936 204.173 261.126C204.513 260.316 204.983 259.691 205.583 259.251C206.193 258.811 206.893 258.591 207.683 258.591C208.483 258.591 209.183 258.811 209.783 259.251C210.383 259.691 210.848 260.316 211.178 261.126C211.518 261.936 211.688 262.901 211.688 264.021C211.688 265.141 211.518 266.106 211.178 266.916C210.848 267.726 210.383 268.351 209.783 268.791C209.183 269.231 208.483 269.451 207.683 269.451ZM204.968 264.021C204.968 264.701 205.038 265.316 205.178 265.866C205.328 266.406 205.533 266.861 205.793 267.231L208.703 260.016C208.393 259.846 208.053 259.761 207.683 259.761C207.153 259.761 206.683 259.936 206.273 260.286C205.863 260.626 205.543 261.116 205.313 261.756C205.083 262.386 204.968 263.141 204.968 264.021ZM207.683 268.296C208.213 268.296 208.683 268.126 209.093 267.786C209.503 267.436 209.823 266.941 210.053 266.301C210.283 265.661 210.398 264.901 210.398 264.021C210.398 263.341 210.323 262.731 210.173 262.191C210.033 261.641 209.833 261.181 209.573 260.811L206.648 268.041C206.968 268.211 207.313 268.296 207.683 268.296ZM97.2779 325.561V324.481H102.228V325.561H97.2779ZM168.436 330.271V319.771H171.661C172.471 319.771 173.136 319.906 173.656 320.176C174.186 320.446 174.581 320.816 174.841 321.286C175.101 321.746 175.231 322.271 175.231 322.861C175.231 323.551 175.051 324.161 174.691 324.691C174.341 325.211 173.801 325.576 173.071 325.786L175.351 330.271H173.851L171.736 325.966H171.661H169.696V330.271H168.436ZM169.696 324.811H171.616C172.416 324.811 173.001 324.631 173.371 324.271C173.751 323.901 173.941 323.431 173.941 322.861C173.941 322.261 173.756 321.786 173.386 321.436C173.026 321.086 172.431 320.911 171.601 320.911H169.696V324.811ZM180.775 330.451C180.075 330.451 179.455 330.291 178.915 329.971C178.385 329.641 177.965 329.186 177.655 328.606C177.345 328.016 177.19 327.331 177.19 326.551C177.19 325.771 177.34 325.091 177.64 324.511C177.95 323.921 178.375 323.466 178.915 323.146C179.455 322.816 180.085 322.651 180.805 322.651C181.525 322.651 182.14 322.816 182.65 323.146C183.16 323.466 183.55 323.891 183.82 324.421C184.09 324.951 184.225 325.521 184.225 326.131C184.225 326.241 184.22 326.351 184.21 326.461C184.21 326.571 184.21 326.696 184.21 326.836H178.435C178.465 327.386 178.59 327.846 178.81 328.216C179.04 328.576 179.325 328.846 179.665 329.026C180.015 329.206 180.385 329.296 180.775 329.296C181.325 329.296 181.755 329.181 182.065 328.951C182.375 328.721 182.61 328.401 182.77 327.991H184.015C183.845 328.681 183.49 329.266 182.95 329.746C182.41 330.216 181.685 330.451 180.775 330.451ZM180.775 323.776C180.195 323.776 179.685 323.951 179.245 324.301C178.815 324.651 178.55 325.141 178.45 325.771H182.98C182.94 325.151 182.715 324.666 182.305 324.316C181.905 323.956 181.395 323.776 180.775 323.776ZM189.769 330.451C188.819 330.451 188.049 330.231 187.459 329.791C186.879 329.341 186.554 328.726 186.484 327.946H187.789C187.849 328.356 188.049 328.691 188.389 328.951C188.739 329.211 189.209 329.341 189.799 329.341C190.359 329.341 190.774 329.221 191.044 328.981C191.324 328.741 191.464 328.466 191.464 328.156C191.464 327.736 191.299 327.451 190.969 327.301C190.639 327.141 190.144 327.021 189.484 326.941C188.694 326.851 188.039 326.636 187.519 326.296C186.999 325.956 186.739 325.446 186.739 324.766C186.739 324.156 186.994 323.651 187.504 323.251C188.014 322.851 188.709 322.651 189.589 322.651C190.459 322.651 191.144 322.851 191.644 323.251C192.144 323.641 192.429 324.201 192.499 324.931H191.254C191.224 324.571 191.049 324.286 190.729 324.076C190.419 323.856 190.029 323.746 189.559 323.746C189.069 323.746 188.689 323.841 188.419 324.031C188.149 324.211 188.014 324.451 188.014 324.751C188.014 325.051 188.164 325.301 188.464 325.501C188.774 325.691 189.259 325.816 189.919 325.876C190.439 325.936 190.914 326.036 191.344 326.176C191.774 326.316 192.114 326.536 192.364 326.836C192.624 327.136 192.754 327.556 192.754 328.096C192.764 328.546 192.639 328.951 192.379 329.311C192.129 329.661 191.779 329.941 191.329 330.151C190.879 330.351 190.359 330.451 189.769 330.451ZM198.688 330.451C197.988 330.451 197.368 330.291 196.828 329.971C196.288 329.651 195.863 329.201 195.553 328.621C195.243 328.031 195.088 327.341 195.088 326.551C195.088 325.761 195.243 325.076 195.553 324.496C195.863 323.906 196.288 323.451 196.828 323.131C197.368 322.811 197.988 322.651 198.688 322.651C199.388 322.651 200.008 322.811 200.548 323.131C201.088 323.451 201.513 323.906 201.823 324.496C202.133 325.076 202.288 325.761 202.288 326.551C202.288 327.341 202.133 328.031 201.823 328.621C201.513 329.201 201.088 329.651 200.548 329.971C200.008 330.291 199.388 330.451 198.688 330.451ZM198.688 329.251C199.118 329.251 199.508 329.156 199.858 328.966C200.208 328.776 200.483 328.481 200.683 328.081C200.893 327.681 200.998 327.171 200.998 326.551C200.998 325.931 200.893 325.421 200.683 325.021C200.483 324.621 200.208 324.326 199.858 324.136C199.508 323.946 199.118 323.851 198.688 323.851C198.268 323.851 197.883 323.946 197.533 324.136C197.183 324.326 196.903 324.621 196.693 325.021C196.483 325.421 196.378 325.931 196.378 326.551C196.378 327.481 196.603 328.166 197.053 328.606C197.503 329.036 198.048 329.251 198.688 329.251ZM207.158 330.451C206.258 330.451 205.578 330.181 205.118 329.641C204.658 329.101 204.428 328.321 204.428 327.301V322.831H205.688V327.151C205.688 327.811 205.833 328.331 206.123 328.711C206.423 329.081 206.873 329.266 207.473 329.266C208.073 329.266 208.578 329.066 208.988 328.666C209.398 328.256 209.603 327.671 209.603 326.911V322.831H210.863V330.271H209.813L209.678 329.146H209.603C209.403 329.506 209.088 329.816 208.658 330.076C208.228 330.326 207.728 330.451 207.158 330.451ZM213.437 330.271V329.191H215.342V324.286C215.342 324.036 215.222 323.911 214.982 323.911H213.632V322.831H215.447C215.777 322.831 216.042 322.921 216.242 323.101C216.442 323.281 216.542 323.546 216.542 323.896V324.211H216.602C216.722 323.711 216.947 323.326 217.277 323.056C217.617 322.786 218.087 322.651 218.687 322.651H220.052V323.986H218.507C217.897 323.986 217.427 324.191 217.097 324.601C216.767 325.001 216.602 325.516 216.602 326.146V329.191H218.942V330.271H213.437ZM225.791 330.451C225.121 330.451 224.521 330.296 223.991 329.986C223.471 329.676 223.056 329.231 222.746 328.651C222.436 328.061 222.281 327.361 222.281 326.551C222.281 325.741 222.436 325.046 222.746 324.466C223.056 323.876 223.476 323.426 224.006 323.116C224.546 322.806 225.141 322.651 225.791 322.651C226.711 322.651 227.446 322.881 227.996 323.341C228.546 323.801 228.896 324.416 229.046 325.186H227.756C227.636 324.776 227.406 324.451 227.066 324.211C226.726 323.961 226.296 323.836 225.776 323.836C225.396 323.836 225.036 323.936 224.696 324.136C224.356 324.336 224.081 324.636 223.871 325.036C223.661 325.436 223.556 325.941 223.556 326.551C223.556 327.161 223.661 327.671 223.871 328.081C224.081 328.481 224.356 328.781 224.696 328.981C225.036 329.181 225.396 329.281 225.776 329.281C226.326 329.281 226.761 329.156 227.081 328.906C227.411 328.656 227.636 328.326 227.756 327.916H229.046C228.856 328.706 228.481 329.326 227.921 329.776C227.371 330.226 226.661 330.451 225.791 330.451ZM234.74 330.451C234.04 330.451 233.42 330.291 232.88 329.971C232.35 329.641 231.93 329.186 231.62 328.606C231.31 328.016 231.155 327.331 231.155 326.551C231.155 325.771 231.305 325.091 231.605 324.511C231.915 323.921 232.34 323.466 232.88 323.146C233.42 322.816 234.05 322.651 234.77 322.651C235.49 322.651 236.105 322.816 236.615 323.146C237.125 323.466 237.515 323.891 237.785 324.421C238.055 324.951 238.19 325.521 238.19 326.131C238.19 326.241 238.185 326.351 238.175 326.461C238.175 326.571 238.175 326.696 238.175 326.836H232.4C232.43 327.386 232.555 327.846 232.775 328.216C233.005 328.576 233.29 328.846 233.63 329.026C233.98 329.206 234.35 329.296 234.74 329.296C235.29 329.296 235.72 329.181 236.03 328.951C236.34 328.721 236.575 328.401 236.735 327.991H237.98C237.81 328.681 237.455 329.266 236.915 329.746C236.375 330.216 235.65 330.451 234.74 330.451ZM234.74 323.776C234.16 323.776 233.65 323.951 233.21 324.301C232.78 324.651 232.515 325.141 232.415 325.771H236.945C236.905 325.151 236.68 324.666 236.27 324.316C235.87 323.956 235.36 323.776 234.74 323.776ZM189.814 390.451C189.144 390.451 188.544 390.296 188.014 389.986C187.494 389.676 187.079 389.231 186.769 388.651C186.459 388.061 186.304 387.361 186.304 386.551C186.304 385.741 186.459 385.046 186.769 384.466C187.079 383.876 187.499 383.426 188.029 383.116C188.569 382.806 189.164 382.651 189.814 382.651C190.734 382.651 191.469 382.881 192.019 383.341C192.569 383.801 192.919 384.416 193.069 385.186H191.779C191.659 384.776 191.429 384.451 191.089 384.211C190.749 383.961 190.319 383.836 189.799 383.836C189.419 383.836 189.059 383.936 188.719 384.136C188.379 384.336 188.104 384.636 187.894 385.036C187.684 385.436 187.579 385.941 187.579 386.551C187.579 387.161 187.684 387.671 187.894 388.081C188.104 388.481 188.379 388.781 188.719 388.981C189.059 389.181 189.419 389.281 189.799 389.281C190.349 389.281 190.784 389.156 191.104 388.906C191.434 388.656 191.659 388.326 191.779 387.916H193.069C192.879 388.706 192.504 389.326 191.944 389.776C191.394 390.226 190.684 390.451 189.814 390.451ZM195.358 393.571V382.831H196.378L196.528 384.061H196.618C196.808 383.661 197.113 383.326 197.533 383.056C197.953 382.786 198.448 382.651 199.018 382.651C199.618 382.651 200.158 382.801 200.638 383.101C201.128 383.401 201.513 383.846 201.793 384.436C202.073 385.016 202.213 385.726 202.213 386.566C202.213 387.396 202.068 388.101 201.778 388.681C201.498 389.261 201.108 389.701 200.608 390.001C200.118 390.301 199.553 390.451 198.913 390.451C198.343 390.451 197.858 390.331 197.458 390.091C197.068 389.841 196.788 389.551 196.618 389.221V393.571H195.358ZM198.763 389.251C199.393 389.251 199.913 389.031 200.323 388.591C200.733 388.141 200.938 387.461 200.938 386.551C200.938 385.641 200.733 384.966 200.323 384.526C199.913 384.076 199.393 383.851 198.763 383.851C198.133 383.851 197.613 384.076 197.203 384.526C196.793 384.966 196.588 385.641 196.588 386.551C196.588 387.461 196.793 388.141 197.203 388.591C197.613 389.031 198.133 389.251 198.763 389.251ZM207.158 390.451C206.258 390.451 205.578 390.181 205.118 389.641C204.658 389.101 204.428 388.321 204.428 387.301V382.831H205.688V387.151C205.688 387.811 205.833 388.331 206.123 388.711C206.423 389.081 206.873 389.266 207.473 389.266C208.073 389.266 208.578 389.066 208.988 388.666C209.398 388.256 209.603 387.671 209.603 386.911V382.831H210.863V390.271H209.813L209.678 389.146H209.603C209.403 389.506 209.088 389.816 208.658 390.076C208.228 390.326 207.728 390.451 207.158 390.451ZM367.657 421.271L371.752 411.911H366.022V410.771H373.057V411.776L368.992 421.271H367.657ZM378.571 421.451C377.851 421.451 377.231 421.316 376.711 421.046C376.191 420.776 375.781 420.411 375.481 419.951C375.181 419.491 375.001 418.966 374.941 418.376H376.231C376.321 418.946 376.576 419.411 376.996 419.771C377.416 420.121 377.946 420.296 378.586 420.296C379.336 420.296 379.926 420.056 380.356 419.576C380.786 419.086 381.001 418.471 381.001 417.731C381.001 416.951 380.781 416.341 380.341 415.901C379.901 415.451 379.331 415.226 378.631 415.226C378.071 415.226 377.591 415.356 377.191 415.616C376.801 415.866 376.486 416.186 376.246 416.576H375.046L375.946 410.771H381.556V411.926H376.936L376.381 415.046H376.456C376.686 414.796 376.996 414.576 377.386 414.386C377.786 414.196 378.246 414.101 378.766 414.101C379.456 414.101 380.056 414.251 380.566 414.551C381.086 414.841 381.491 415.261 381.781 415.811C382.071 416.351 382.216 416.986 382.216 417.716C382.216 418.396 382.071 419.021 381.781 419.591C381.501 420.151 381.086 420.601 380.536 420.941C379.996 421.281 379.341 421.451 378.571 421.451Z" fill="white"/>
<path d="M118.521 330.271C117.841 330.271 117.306 330.106 116.916 329.776C116.526 329.446 116.331 328.851 116.331 327.991V323.911H114.441V322.831H115.566C116.076 322.831 116.371 322.581 116.451 322.081L116.661 320.926H117.591V322.831H120.561V323.911H117.591V327.991C117.591 328.411 117.686 328.706 117.876 328.876C118.076 329.046 118.416 329.131 118.896 329.131H120.561V330.271H118.521ZM124.47 333.571L126.3 329.551H125.865L122.925 322.831H124.29L126.735 328.591L129.315 322.831H130.635L125.79 333.571H124.47ZM132.399 333.571V322.831H133.419L133.569 324.061H133.659C133.849 323.661 134.154 323.326 134.574 323.056C134.994 322.786 135.489 322.651 136.059 322.651C136.659 322.651 137.199 322.801 137.679 323.101C138.169 323.401 138.554 323.846 138.834 324.436C139.114 325.016 139.254 325.726 139.254 326.566C139.254 327.396 139.109 328.101 138.819 328.681C138.539 329.261 138.149 329.701 137.649 330.001C137.159 330.301 136.594 330.451 135.954 330.451C135.384 330.451 134.899 330.331 134.499 330.091C134.109 329.841 133.829 329.551 133.659 329.221V333.571H132.399ZM135.804 329.251C136.434 329.251 136.954 329.031 137.364 328.591C137.774 328.141 137.979 327.461 137.979 326.551C137.979 325.641 137.774 324.966 137.364 324.526C136.954 324.076 136.434 323.851 135.804 323.851C135.174 323.851 134.654 324.076 134.244 324.526C133.834 324.966 133.629 325.641 133.629 326.551C133.629 327.461 133.834 328.141 134.244 328.591C134.654 329.031 135.174 329.251 135.804 329.251ZM144.799 330.451C144.099 330.451 143.479 330.291 142.939 329.971C142.409 329.641 141.989 329.186 141.679 328.606C141.369 328.016 141.214 327.331 141.214 326.551C141.214 325.771 141.364 325.091 141.664 324.511C141.974 323.921 142.399 323.466 142.939 323.146C143.479 322.816 144.109 322.651 144.829 322.651C145.549 322.651 146.164 322.816 146.674 323.146C147.184 323.466 147.574 323.891 147.844 324.421C148.114 324.951 148.249 325.521 148.249 326.131C148.249 326.241 148.244 326.351 148.234 326.461C148.234 326.571 148.234 326.696 148.234 326.836H142.459C142.489 327.386 142.614 327.846 142.834 328.216C143.064 328.576 143.349 328.846 143.689 329.026C144.039 329.206 144.409 329.296 144.799 329.296C145.349 329.296 145.779 329.181 146.089 328.951C146.399 328.721 146.634 328.401 146.794 327.991H148.039C147.869 328.681 147.514 329.266 146.974 329.746C146.434 330.216 145.709 330.451 144.799 330.451ZM144.799 323.776C144.219 323.776 143.709 323.951 143.269 324.301C142.839 324.651 142.574 325.141 142.474 325.771H147.004C146.964 325.151 146.739 324.666 146.329 324.316C145.929 323.956 145.419 323.776 144.799 323.776ZM153.718 330.301C153.408 330.301 153.143 330.196 152.923 329.986C152.703 329.776 152.593 329.516 152.593 329.206C152.593 328.906 152.703 328.651 152.923 328.441C153.143 328.231 153.408 328.126 153.718 328.126C154.028 328.126 154.293 328.231 154.513 328.441C154.733 328.651 154.843 328.906 154.843 329.206C154.843 329.516 154.733 329.776 154.513 329.986C154.293 330.196 154.028 330.301 153.718 330.301ZM153.718 324.376C153.408 324.376 153.143 324.271 152.923 324.061C152.703 323.851 152.593 323.591 152.593 323.281C152.593 322.981 152.703 322.726 152.923 322.516C153.143 322.306 153.408 322.201 153.718 322.201C154.028 322.201 154.293 322.306 154.513 322.516C154.733 322.726 154.843 322.981 154.843 323.281C154.843 323.591 154.733 323.851 154.513 324.061C154.293 324.271 154.028 324.376 153.718 324.376ZM114.501 360.271V359.191H116.406V354.286C116.406 354.036 116.286 353.911 116.046 353.911H114.696V352.831H116.511C116.841 352.831 117.106 352.921 117.306 353.101C117.506 353.281 117.606 353.546 117.606 353.896V354.211H117.666C117.786 353.711 118.011 353.326 118.341 353.056C118.681 352.786 119.151 352.651 119.751 352.651H121.116V353.986H119.571C118.961 353.986 118.491 354.191 118.161 354.601C117.831 355.001 117.666 355.516 117.666 356.146V359.191H120.006V360.271H114.501ZM126.81 360.451C126.11 360.451 125.49 360.291 124.95 359.971C124.42 359.641 124 359.186 123.69 358.606C123.38 358.016 123.225 357.331 123.225 356.551C123.225 355.771 123.375 355.091 123.675 354.511C123.985 353.921 124.41 353.466 124.95 353.146C125.49 352.816 126.12 352.651 126.84 352.651C127.56 352.651 128.175 352.816 128.685 353.146C129.195 353.466 129.585 353.891 129.855 354.421C130.125 354.951 130.26 355.521 130.26 356.131C130.26 356.241 130.255 356.351 130.245 356.461C130.245 356.571 130.245 356.696 130.245 356.836H124.47C124.5 357.386 124.625 357.846 124.845 358.216C125.075 358.576 125.36 358.846 125.7 359.026C126.05 359.206 126.42 359.296 126.81 359.296C127.36 359.296 127.79 359.181 128.1 358.951C128.41 358.721 128.645 358.401 128.805 357.991H130.05C129.88 358.681 129.525 359.266 128.985 359.746C128.445 360.216 127.72 360.451 126.81 360.451ZM126.81 353.776C126.23 353.776 125.72 353.951 125.28 354.301C124.85 354.651 124.585 355.141 124.485 355.771H129.015C128.975 355.151 128.75 354.666 128.34 354.316C127.94 353.956 127.43 353.776 126.81 353.776ZM135.804 360.451C134.854 360.451 134.084 360.231 133.494 359.791C132.914 359.341 132.589 358.726 132.519 357.946H133.824C133.884 358.356 134.084 358.691 134.424 358.951C134.774 359.211 135.244 359.341 135.834 359.341C136.394 359.341 136.809 359.221 137.079 358.981C137.359 358.741 137.499 358.466 137.499 358.156C137.499 357.736 137.334 357.451 137.004 357.301C136.674 357.141 136.179 357.021 135.519 356.941C134.729 356.851 134.074 356.636 133.554 356.296C133.034 355.956 132.774 355.446 132.774 354.766C132.774 354.156 133.029 353.651 133.539 353.251C134.049 352.851 134.744 352.651 135.624 352.651C136.494 352.651 137.179 352.851 137.679 353.251C138.179 353.641 138.464 354.201 138.534 354.931H137.289C137.259 354.571 137.084 354.286 136.764 354.076C136.454 353.856 136.064 353.746 135.594 353.746C135.104 353.746 134.724 353.841 134.454 354.031C134.184 354.211 134.049 354.451 134.049 354.751C134.049 355.051 134.199 355.301 134.499 355.501C134.809 355.691 135.294 355.816 135.954 355.876C136.474 355.936 136.949 356.036 137.379 356.176C137.809 356.316 138.149 356.536 138.399 356.836C138.659 357.136 138.789 357.556 138.789 358.096C138.799 358.546 138.674 358.951 138.414 359.311C138.164 359.661 137.814 359.941 137.364 360.151C136.914 360.351 136.394 360.451 135.804 360.451ZM144.724 360.451C144.024 360.451 143.404 360.291 142.864 359.971C142.324 359.651 141.899 359.201 141.589 358.621C141.279 358.031 141.124 357.341 141.124 356.551C141.124 355.761 141.279 355.076 141.589 354.496C141.899 353.906 142.324 353.451 142.864 353.131C143.404 352.811 144.024 352.651 144.724 352.651C145.424 352.651 146.044 352.811 146.584 353.131C147.124 353.451 147.549 353.906 147.859 354.496C148.169 355.076 148.324 355.761 148.324 356.551C148.324 357.341 148.169 358.031 147.859 358.621C147.549 359.201 147.124 359.651 146.584 359.971C146.044 360.291 145.424 360.451 144.724 360.451ZM144.724 359.251C145.154 359.251 145.544 359.156 145.894 358.966C146.244 358.776 146.519 358.481 146.719 358.081C146.929 357.681 147.034 357.171 147.034 356.551C147.034 355.931 146.929 355.421 146.719 355.021C146.519 354.621 146.244 354.326 145.894 354.136C145.544 353.946 145.154 353.851 144.724 353.851C144.304 353.851 143.919 353.946 143.569 354.136C143.219 354.326 142.939 354.621 142.729 355.021C142.519 355.421 142.414 355.931 142.414 356.551C142.414 357.481 142.639 358.166 143.089 358.606C143.539 359.036 144.084 359.251 144.724 359.251ZM153.193 360.451C152.293 360.451 151.613 360.181 151.153 359.641C150.693 359.101 150.463 358.321 150.463 357.301V352.831H151.723V357.151C151.723 357.811 151.868 358.331 152.158 358.711C152.458 359.081 152.908 359.266 153.508 359.266C154.108 359.266 154.613 359.066 155.023 358.666C155.433 358.256 155.638 357.671 155.638 356.911V352.831H156.898V360.271H155.848L155.713 359.146H155.638C155.438 359.506 155.123 359.816 154.693 360.076C154.263 360.326 153.763 360.451 153.193 360.451ZM159.472 360.271V359.191H161.377V354.286C161.377 354.036 161.257 353.911 161.017 353.911H159.667V352.831H161.482C161.812 352.831 162.077 352.921 162.277 353.101C162.477 353.281 162.577 353.546 162.577 353.896V354.211H162.637C162.757 353.711 162.982 353.326 163.312 353.056C163.652 352.786 164.122 352.651 164.722 352.651H166.087V353.986H164.542C163.932 353.986 163.462 354.191 163.132 354.601C162.802 355.001 162.637 355.516 162.637 356.146V359.191H164.977V360.271H159.472ZM171.826 360.451C171.156 360.451 170.556 360.296 170.026 359.986C169.506 359.676 169.091 359.231 168.781 358.651C168.471 358.061 168.316 357.361 168.316 356.551C168.316 355.741 168.471 355.046 168.781 354.466C169.091 353.876 169.511 353.426 170.041 353.116C170.581 352.806 171.176 352.651 171.826 352.651C172.746 352.651 173.481 352.881 174.031 353.341C174.581 353.801 174.931 354.416 175.081 355.186H173.791C173.671 354.776 173.441 354.451 173.101 354.211C172.761 353.961 172.331 353.836 171.811 353.836C171.431 353.836 171.071 353.936 170.731 354.136C170.391 354.336 170.116 354.636 169.906 355.036C169.696 355.436 169.591 355.941 169.591 356.551C169.591 357.161 169.696 357.671 169.906 358.081C170.116 358.481 170.391 358.781 170.731 358.981C171.071 359.181 171.431 359.281 171.811 359.281C172.361 359.281 172.796 359.156 173.116 358.906C173.446 358.656 173.671 358.326 173.791 357.916H175.081C174.891 358.706 174.516 359.326 173.956 359.776C173.406 360.226 172.696 360.451 171.826 360.451ZM180.775 360.451C180.075 360.451 179.455 360.291 178.915 359.971C178.385 359.641 177.965 359.186 177.655 358.606C177.345 358.016 177.19 357.331 177.19 356.551C177.19 355.771 177.34 355.091 177.64 354.511C177.95 353.921 178.375 353.466 178.915 353.146C179.455 352.816 180.085 352.651 180.805 352.651C181.525 352.651 182.14 352.816 182.65 353.146C183.16 353.466 183.55 353.891 183.82 354.421C184.09 354.951 184.225 355.521 184.225 356.131C184.225 356.241 184.22 356.351 184.21 356.461C184.21 356.571 184.21 356.696 184.21 356.836H178.435C178.465 357.386 178.59 357.846 178.81 358.216C179.04 358.576 179.325 358.846 179.665 359.026C180.015 359.206 180.385 359.296 180.775 359.296C181.325 359.296 181.755 359.181 182.065 358.951C182.375 358.721 182.61 358.401 182.77 357.991H184.015C183.845 358.681 183.49 359.266 182.95 359.746C182.41 360.216 181.685 360.451 180.775 360.451ZM180.775 353.776C180.195 353.776 179.685 353.951 179.245 354.301C178.815 354.651 178.55 355.141 178.45 355.771H182.98C182.94 355.151 182.715 354.666 182.305 354.316C181.905 353.956 181.395 353.776 180.775 353.776ZM189.694 360.301C189.384 360.301 189.119 360.196 188.899 359.986C188.679 359.776 188.569 359.516 188.569 359.206C188.569 358.906 188.679 358.651 188.899 358.441C189.119 358.231 189.384 358.126 189.694 358.126C190.004 358.126 190.269 358.231 190.489 358.441C190.709 358.651 190.819 358.906 190.819 359.206C190.819 359.516 190.709 359.776 190.489 359.986C190.269 360.196 190.004 360.301 189.694 360.301ZM189.694 354.376C189.384 354.376 189.119 354.271 188.899 354.061C188.679 353.851 188.569 353.591 188.569 353.281C188.569 352.981 188.679 352.726 188.899 352.516C189.119 352.306 189.384 352.201 189.694 352.201C190.004 352.201 190.269 352.306 190.489 352.516C190.709 352.726 190.819 352.981 190.819 353.281C190.819 353.591 190.709 353.851 190.489 354.061C190.269 354.271 190.004 354.376 189.694 354.376ZM132.549 390.271V382.831H133.599L133.734 383.956H133.809C134.009 383.596 134.324 383.291 134.754 383.041C135.184 382.781 135.679 382.651 136.239 382.651C137.149 382.651 137.829 382.921 138.279 383.461C138.739 384.001 138.969 384.781 138.969 385.801V390.271H137.709V385.951C137.709 385.291 137.564 384.776 137.274 384.406C136.984 384.026 136.534 383.836 135.924 383.836C135.334 383.836 134.834 384.041 134.424 384.451C134.014 384.851 133.809 385.431 133.809 386.191V390.271H132.549ZM144.094 390.451C143.504 390.451 143.014 390.346 142.624 390.136C142.234 389.926 141.944 389.651 141.754 389.311C141.564 388.961 141.469 388.581 141.469 388.171C141.469 387.411 141.744 386.836 142.294 386.446C142.854 386.046 143.599 385.846 144.529 385.846H146.569V385.696C146.569 384.396 145.974 383.746 144.784 383.746C144.304 383.746 143.899 383.851 143.569 384.061C143.249 384.271 143.044 384.601 142.954 385.051H141.664C141.714 384.551 141.879 384.121 142.159 383.761C142.449 383.401 142.819 383.126 143.269 382.936C143.719 382.746 144.224 382.651 144.784 382.651C145.844 382.651 146.614 382.931 147.094 383.491C147.584 384.041 147.829 384.776 147.829 385.696V390.271H146.749L146.644 389.116H146.539C146.319 389.476 146.024 389.791 145.654 390.061C145.294 390.321 144.774 390.451 144.094 390.451ZM144.319 389.341C144.799 389.341 145.204 389.226 145.534 388.996C145.874 388.766 146.129 388.461 146.299 388.081C146.479 387.701 146.569 387.286 146.569 386.836H144.634C143.954 386.836 143.474 386.951 143.194 387.181C142.924 387.411 142.789 387.716 142.789 388.096C142.789 388.486 142.919 388.791 143.179 389.011C143.439 389.231 143.819 389.341 144.319 389.341ZM149.773 390.271V382.831H150.808L150.943 383.701H151.018C151.148 383.401 151.343 383.151 151.603 382.951C151.873 382.751 152.198 382.651 152.578 382.651C152.958 382.651 153.278 382.746 153.538 382.936C153.808 383.116 154.003 383.371 154.123 383.701H154.183C154.313 383.401 154.523 383.151 154.813 382.951C155.103 382.751 155.453 382.651 155.863 382.651C156.433 382.651 156.858 382.846 157.138 383.236C157.428 383.616 157.573 384.126 157.573 384.766V390.271H156.343V384.961C156.343 384.601 156.268 384.316 156.118 384.106C155.978 383.896 155.748 383.791 155.428 383.791C155.098 383.791 154.828 383.916 154.618 384.166C154.408 384.416 154.303 384.771 154.303 385.231V390.271H153.058V384.961C153.058 384.601 152.988 384.316 152.848 384.106C152.708 383.896 152.478 383.791 152.158 383.791C151.828 383.791 151.553 383.916 151.333 384.166C151.123 384.416 151.018 384.771 151.018 385.231V390.271H149.773ZM162.787 390.451C162.087 390.451 161.467 390.291 160.927 389.971C160.397 389.641 159.977 389.186 159.667 388.606C159.357 388.016 159.202 387.331 159.202 386.551C159.202 385.771 159.352 385.091 159.652 384.511C159.962 383.921 160.387 383.466 160.927 383.146C161.467 382.816 162.097 382.651 162.817 382.651C163.537 382.651 164.152 382.816 164.662 383.146C165.172 383.466 165.562 383.891 165.832 384.421C166.102 384.951 166.237 385.521 166.237 386.131C166.237 386.241 166.232 386.351 166.222 386.461C166.222 386.571 166.222 386.696 166.222 386.836H160.447C160.477 387.386 160.602 387.846 160.822 388.216C161.052 388.576 161.337 388.846 161.677 389.026C162.027 389.206 162.397 389.296 162.787 389.296C163.337 389.296 163.767 389.181 164.077 388.951C164.387 388.721 164.622 388.401 164.782 387.991H166.027C165.857 388.681 165.502 389.266 164.962 389.746C164.422 390.216 163.697 390.451 162.787 390.451ZM162.787 383.776C162.207 383.776 161.697 383.951 161.257 384.301C160.827 384.651 160.562 385.141 160.462 385.771H164.992C164.952 385.151 164.727 384.666 164.317 384.316C163.917 383.956 163.407 383.776 162.787 383.776ZM171.706 390.301C171.396 390.301 171.131 390.196 170.911 389.986C170.691 389.776 170.581 389.516 170.581 389.206C170.581 388.906 170.691 388.651 170.911 388.441C171.131 388.231 171.396 388.126 171.706 388.126C172.016 388.126 172.281 388.231 172.501 388.441C172.721 388.651 172.831 388.906 172.831 389.206C172.831 389.516 172.721 389.776 172.501 389.986C172.281 390.196 172.016 390.301 171.706 390.301ZM171.706 384.376C171.396 384.376 171.131 384.271 170.911 384.061C170.691 383.851 170.581 383.591 170.581 383.281C170.581 382.981 170.691 382.726 170.911 382.516C171.131 382.306 171.396 382.201 171.706 382.201C172.016 382.201 172.281 382.306 172.501 382.516C172.721 382.726 172.831 382.981 172.831 383.281C172.831 383.591 172.721 383.851 172.501 384.061C172.281 384.271 172.016 384.376 171.706 384.376ZM136.509 421.271C135.829 421.271 135.294 421.106 134.904 420.776C134.514 420.446 134.319 419.851 134.319 418.991V414.911H132.429V413.831H133.554C134.064 413.831 134.359 413.581 134.439 413.081L134.649 411.926H135.579V413.831H138.549V414.911H135.579V418.991C135.579 419.411 135.674 419.706 135.864 419.876C136.064 420.046 136.404 420.131 136.884 420.131H138.549V421.271H136.509ZM144.094 421.451C143.504 421.451 143.014 421.346 142.624 421.136C142.234 420.926 141.944 420.651 141.754 420.311C141.564 419.961 141.469 419.581 141.469 419.171C141.469 418.411 141.744 417.836 142.294 417.446C142.854 417.046 143.599 416.846 144.529 416.846H146.569V416.696C146.569 415.396 145.974 414.746 144.784 414.746C144.304 414.746 143.899 414.851 143.569 415.061C143.249 415.271 143.044 415.601 142.954 416.051H141.664C141.714 415.551 141.879 415.121 142.159 414.761C142.449 414.401 142.819 414.126 143.269 413.936C143.719 413.746 144.224 413.651 144.784 413.651C145.844 413.651 146.614 413.931 147.094 414.491C147.584 415.041 147.829 415.776 147.829 416.696V421.271H146.749L146.644 420.116H146.539C146.319 420.476 146.024 420.791 145.654 421.061C145.294 421.321 144.774 421.451 144.094 421.451ZM144.319 420.341C144.799 420.341 145.204 420.226 145.534 419.996C145.874 419.766 146.129 419.461 146.299 419.081C146.479 418.701 146.569 418.286 146.569 417.836H144.634C143.954 417.836 143.474 417.951 143.194 418.181C142.924 418.411 142.789 418.716 142.789 419.096C142.789 419.486 142.919 419.791 143.179 420.011C143.439 420.231 143.819 420.341 144.319 420.341ZM150.478 421.271V420.191H152.383V415.286C152.383 415.036 152.263 414.911 152.023 414.911H150.673V413.831H152.488C152.818 413.831 153.083 413.921 153.283 414.101C153.483 414.281 153.583 414.546 153.583 414.896V415.211H153.643C153.763 414.711 153.988 414.326 154.318 414.056C154.658 413.786 155.128 413.651 155.728 413.651H157.093V414.986H155.548C154.938 414.986 154.468 415.191 154.138 415.601C153.808 416.001 153.643 416.516 153.643 417.146V420.191H155.983V421.271H150.478ZM162.577 419.081C162.057 419.081 161.592 418.986 161.182 418.796L160.672 419.411C160.562 419.561 160.532 419.711 160.582 419.861C160.642 420.001 160.787 420.071 161.017 420.071H162.982C163.872 420.071 164.592 420.246 165.142 420.596C165.692 420.936 165.967 421.481 165.967 422.231C165.967 422.681 165.852 423.096 165.622 423.476C165.392 423.856 165.027 424.161 164.527 424.391C164.037 424.631 163.392 424.751 162.592 424.751C161.552 424.751 160.717 424.556 160.087 424.166C159.457 423.776 159.142 423.181 159.142 422.381C159.142 422.091 159.212 421.821 159.352 421.571C159.502 421.331 159.687 421.116 159.907 420.926C159.617 420.746 159.437 420.476 159.367 420.116C159.307 419.756 159.417 419.401 159.697 419.051L160.372 418.211C159.892 417.711 159.652 417.096 159.652 416.366C159.652 415.886 159.767 415.441 159.997 415.031C160.227 414.611 160.557 414.276 160.987 414.026C161.427 413.776 161.957 413.651 162.577 413.651C162.977 413.651 163.347 413.711 163.687 413.831H166.477V414.776L165.082 414.821V414.926C165.342 415.356 165.472 415.836 165.472 416.366C165.472 416.846 165.357 417.296 165.127 417.716C164.907 418.126 164.577 418.456 164.137 418.706C163.707 418.956 163.187 419.081 162.577 419.081ZM162.577 418.001C163.067 418.001 163.467 417.856 163.777 417.566C164.097 417.276 164.257 416.876 164.257 416.366C164.257 415.856 164.097 415.461 163.777 415.181C163.467 414.891 163.067 414.746 162.577 414.746C162.077 414.746 161.667 414.891 161.347 415.181C161.027 415.461 160.867 415.856 160.867 416.366C160.867 416.876 161.027 417.276 161.347 417.566C161.667 417.856 162.077 418.001 162.577 418.001ZM160.387 422.336C160.387 422.776 160.592 423.106 161.002 423.326C161.412 423.546 161.942 423.656 162.592 423.656C163.222 423.656 163.732 423.531 164.122 423.281C164.522 423.031 164.722 422.696 164.722 422.276C164.722 421.946 164.582 421.666 164.302 421.436C164.022 421.216 163.507 421.106 162.757 421.106H161.062C160.612 421.436 160.387 421.846 160.387 422.336ZM171.781 421.451C171.081 421.451 170.461 421.291 169.921 420.971C169.391 420.641 168.971 420.186 168.661 419.606C168.351 419.016 168.196 418.331 168.196 417.551C168.196 416.771 168.346 416.091 168.646 415.511C168.956 414.921 169.381 414.466 169.921 414.146C170.461 413.816 171.091 413.651 171.811 413.651C172.531 413.651 173.146 413.816 173.656 414.146C174.166 414.466 174.556 414.891 174.826 415.421C175.096 415.951 175.231 416.521 175.231 417.131C175.231 417.241 175.226 417.351 175.216 417.461C175.216 417.571 175.216 417.696 175.216 417.836H169.441C169.471 418.386 169.596 418.846 169.816 419.216C170.046 419.576 170.331 419.846 170.671 420.026C171.021 420.206 171.391 420.296 171.781 420.296C172.331 420.296 172.761 420.181 173.071 419.951C173.381 419.721 173.616 419.401 173.776 418.991H175.021C174.851 419.681 174.496 420.266 173.956 420.746C173.416 421.216 172.691 421.451 171.781 421.451ZM171.781 414.776C171.201 414.776 170.691 414.951 170.251 415.301C169.821 415.651 169.556 416.141 169.456 416.771H173.986C173.946 416.151 173.721 415.666 173.311 415.316C172.911 414.956 172.401 414.776 171.781 414.776ZM181.48 421.271C180.8 421.271 180.265 421.106 179.875 420.776C179.485 420.446 179.29 419.851 179.29 418.991V414.911H177.4V413.831H178.525C179.035 413.831 179.33 413.581 179.41 413.081L179.62 411.926H180.55V413.831H183.52V414.911H180.55V418.991C180.55 419.411 180.645 419.706 180.835 419.876C181.035 420.046 181.375 420.131 181.855 420.131H183.52V421.271H181.48ZM185.689 421.271L188.974 410.771H190.429L193.699 421.271H192.319L191.554 418.661H187.834L187.069 421.271H185.689ZM189.664 412.541L188.149 417.611H191.239L189.724 412.541H189.664ZM197.953 421.271L194.683 413.831H196.123L198.688 419.891L201.268 413.831H202.693L199.408 421.271H197.953ZM207.758 421.451C207.058 421.451 206.438 421.291 205.898 420.971C205.368 420.641 204.948 420.186 204.638 419.606C204.328 419.016 204.173 418.331 204.173 417.551C204.173 416.771 204.323 416.091 204.623 415.511C204.933 414.921 205.358 414.466 205.898 414.146C206.438 413.816 207.068 413.651 207.788 413.651C208.508 413.651 209.123 413.816 209.633 414.146C210.143 414.466 210.533 414.891 210.803 415.421C211.073 415.951 211.208 416.521 211.208 417.131C211.208 417.241 211.203 417.351 211.193 417.461C211.193 417.571 211.193 417.696 211.193 417.836H205.418C205.448 418.386 205.573 418.846 205.793 419.216C206.023 419.576 206.308 419.846 206.648 420.026C206.998 420.206 207.368 420.296 207.758 420.296C208.308 420.296 208.738 420.181 209.048 419.951C209.358 419.721 209.593 419.401 209.753 418.991H210.998C210.828 419.681 210.473 420.266 209.933 420.746C209.393 421.216 208.668 421.451 207.758 421.451ZM207.758 414.776C207.178 414.776 206.668 414.951 206.228 415.301C205.798 415.651 205.533 416.141 205.433 416.771H209.963C209.923 416.151 209.698 415.666 209.288 415.316C208.888 414.956 208.378 414.776 207.758 414.776ZM213.437 421.271V420.191H215.342V415.286C215.342 415.036 215.222 414.911 214.982 414.911H213.632V413.831H215.447C215.777 413.831 216.042 413.921 216.242 414.101C216.442 414.281 216.542 414.546 216.542 414.896V415.211H216.602C216.722 414.711 216.947 414.326 217.277 414.056C217.617 413.786 218.087 413.651 218.687 413.651H220.052V414.986H218.507C217.897 414.986 217.427 415.191 217.097 415.601C216.767 416.001 216.602 416.516 216.602 417.146V420.191H218.942V421.271H213.437ZM225.041 421.451C224.451 421.451 223.961 421.346 223.571 421.136C223.181 420.926 222.891 420.651 222.701 420.311C222.511 419.961 222.416 419.581 222.416 419.171C222.416 418.411 222.691 417.836 223.241 417.446C223.801 417.046 224.546 416.846 225.476 416.846H227.516V416.696C227.516 415.396 226.921 414.746 225.731 414.746C225.251 414.746 224.846 414.851 224.516 415.061C224.196 415.271 223.991 415.601 223.901 416.051H222.611C222.661 415.551 222.826 415.121 223.106 414.761C223.396 414.401 223.766 414.126 224.216 413.936C224.666 413.746 225.171 413.651 225.731 413.651C226.791 413.651 227.561 413.931 228.041 414.491C228.531 415.041 228.776 415.776 228.776 416.696V421.271H227.696L227.591 420.116H227.486C227.266 420.476 226.971 420.791 226.601 421.061C226.241 421.321 225.721 421.451 225.041 421.451ZM225.266 420.341C225.746 420.341 226.151 420.226 226.481 419.996C226.821 419.766 227.076 419.461 227.246 419.081C227.426 418.701 227.516 418.286 227.516 417.836H225.581C224.901 417.836 224.421 417.951 224.141 418.181C223.871 418.411 223.736 418.716 223.736 419.096C223.736 419.486 223.866 419.791 224.126 420.011C224.386 420.231 224.766 420.341 225.266 420.341ZM234.53 419.081C234.01 419.081 233.545 418.986 233.135 418.796L232.625 419.411C232.515 419.561 232.485 419.711 232.535 419.861C232.595 420.001 232.74 420.071 232.97 420.071H234.935C235.825 420.071 236.545 420.246 237.095 420.596C237.645 420.936 237.92 421.481 237.92 422.231C237.92 422.681 237.805 423.096 237.575 423.476C237.345 423.856 236.98 424.161 236.48 424.391C235.99 424.631 235.345 424.751 234.545 424.751C233.505 424.751 232.67 424.556 232.04 424.166C231.41 423.776 231.095 423.181 231.095 422.381C231.095 422.091 231.165 421.821 231.305 421.571C231.455 421.331 231.64 421.116 231.86 420.926C231.57 420.746 231.39 420.476 231.32 420.116C231.26 419.756 231.37 419.401 231.65 419.051L232.325 418.211C231.845 417.711 231.605 417.096 231.605 416.366C231.605 415.886 231.72 415.441 231.95 415.031C232.18 414.611 232.51 414.276 232.94 414.026C233.38 413.776 233.91 413.651 234.53 413.651C234.93 413.651 235.3 413.711 235.64 413.831H238.43V414.776L237.035 414.821V414.926C237.295 415.356 237.425 415.836 237.425 416.366C237.425 416.846 237.31 417.296 237.08 417.716C236.86 418.126 236.53 418.456 236.09 418.706C235.66 418.956 235.14 419.081 234.53 419.081ZM234.53 418.001C235.02 418.001 235.42 417.856 235.73 417.566C236.05 417.276 236.21 416.876 236.21 416.366C236.21 415.856 236.05 415.461 235.73 415.181C235.42 414.891 235.02 414.746 234.53 414.746C234.03 414.746 233.62 414.891 233.3 415.181C232.98 415.461 232.82 415.856 232.82 416.366C232.82 416.876 232.98 417.276 233.3 417.566C233.62 417.856 234.03 418.001 234.53 418.001ZM232.34 422.336C232.34 422.776 232.545 423.106 232.955 423.326C233.365 423.546 233.895 423.656 234.545 423.656C235.175 423.656 235.685 423.531 236.075 423.281C236.475 423.031 236.675 422.696 236.675 422.276C236.675 421.946 236.535 421.666 236.255 421.436C235.975 421.216 235.46 421.106 234.71 421.106H233.015C232.565 421.436 232.34 421.846 232.34 422.336ZM243.734 421.451C243.034 421.451 242.414 421.291 241.874 420.971C241.344 420.641 240.924 420.186 240.614 419.606C240.304 419.016 240.149 418.331 240.149 417.551C240.149 416.771 240.299 416.091 240.599 415.511C240.909 414.921 241.334 414.466 241.874 414.146C242.414 413.816 243.044 413.651 243.764 413.651C244.484 413.651 245.099 413.816 245.609 414.146C246.119 414.466 246.509 414.891 246.779 415.421C247.049 415.951 247.184 416.521 247.184 417.131C247.184 417.241 247.179 417.351 247.169 417.461C247.169 417.571 247.169 417.696 247.169 417.836H241.394C241.424 418.386 241.549 418.846 241.769 419.216C241.999 419.576 242.284 419.846 242.624 420.026C242.974 420.206 243.344 420.296 243.734 420.296C244.284 420.296 244.714 420.181 245.024 419.951C245.334 419.721 245.569 419.401 245.729 418.991H246.974C246.804 419.681 246.449 420.266 245.909 420.746C245.369 421.216 244.644 421.451 243.734 421.451ZM243.734 414.776C243.154 414.776 242.644 414.951 242.204 415.301C241.774 415.651 241.509 416.141 241.409 416.771H245.939C245.899 416.151 245.674 415.666 245.264 415.316C244.864 414.956 244.354 414.776 243.734 414.776ZM252.638 421.451C251.938 421.451 251.313 421.306 250.763 421.016C250.223 420.726 249.793 420.286 249.473 419.696C249.163 419.096 249.008 418.346 249.008 417.446V410.771H250.268V417.491C250.268 418.391 250.488 419.086 250.928 419.576C251.368 420.066 251.948 420.311 252.668 420.311C253.388 420.311 253.963 420.066 254.393 419.576C254.823 419.086 255.038 418.391 255.038 417.491V410.771H256.298V417.446C256.298 418.346 256.138 419.096 255.818 419.696C255.498 420.286 255.063 420.726 254.513 421.016C253.963 421.306 253.338 421.451 252.638 421.451ZM262.427 421.271C261.747 421.271 261.212 421.106 260.822 420.776C260.432 420.446 260.237 419.851 260.237 418.991V414.911H258.347V413.831H259.472C259.982 413.831 260.277 413.581 260.357 413.081L260.567 411.926H261.497V413.831H264.467V414.911H261.497V418.991C261.497 419.411 261.592 419.706 261.782 419.876C261.982 420.046 262.322 420.131 262.802 420.131H264.467V421.271H262.427ZM270.552 412.511C270.252 412.511 270.002 412.411 269.802 412.211C269.602 412.011 269.502 411.771 269.502 411.491C269.502 411.201 269.602 410.961 269.802 410.771C270.002 410.571 270.252 410.471 270.552 410.471C270.842 410.471 271.087 410.571 271.287 410.771C271.497 410.961 271.602 411.201 271.602 411.491C271.602 411.771 271.497 412.011 271.287 412.211C271.087 412.411 270.842 412.511 270.552 412.511ZM267.642 421.271V420.191H270.012V415.286C270.012 415.036 269.887 414.911 269.637 414.911H267.897V413.831H269.937C270.827 413.831 271.272 414.276 271.272 415.166V420.191H273.642V421.271H267.642ZM276.261 421.271V420.191H278.796V411.926C278.796 411.676 278.671 411.551 278.421 411.551H276.531V410.471H278.721C279.151 410.471 279.481 410.586 279.711 410.816C279.941 411.046 280.056 411.376 280.056 411.806V420.191H282.591V421.271H276.261ZM288.54 412.511C288.24 412.511 287.99 412.411 287.79 412.211C287.59 412.011 287.49 411.771 287.49 411.491C287.49 411.201 287.59 410.961 287.79 410.771C287.99 410.571 288.24 410.471 288.54 410.471C288.83 410.471 289.075 410.571 289.275 410.771C289.485 410.961 289.59 411.201 289.59 411.491C289.59 411.771 289.485 412.011 289.275 412.211C289.075 412.411 288.83 412.511 288.54 412.511ZM285.63 421.271V420.191H288V415.286C288 415.036 287.875 414.911 287.625 414.911H285.885V413.831H287.925C288.815 413.831 289.26 414.276 289.26 415.166V420.191H291.63V421.271H285.63ZM294.654 421.271V420.116L299.034 415.001H294.729V413.831H300.519V414.986L296.124 420.101H300.594V421.271H294.654ZM305.988 421.451C305.398 421.451 304.908 421.346 304.518 421.136C304.128 420.926 303.838 420.651 303.648 420.311C303.458 419.961 303.363 419.581 303.363 419.171C303.363 418.411 303.638 417.836 304.188 417.446C304.748 417.046 305.493 416.846 306.423 416.846H308.463V416.696C308.463 415.396 307.868 414.746 306.678 414.746C306.198 414.746 305.793 414.851 305.463 415.061C305.143 415.271 304.938 415.601 304.848 416.051H303.558C303.608 415.551 303.773 415.121 304.053 414.761C304.343 414.401 304.713 414.126 305.163 413.936C305.613 413.746 306.118 413.651 306.678 413.651C307.738 413.651 308.508 413.931 308.988 414.491C309.478 415.041 309.723 415.776 309.723 416.696V421.271H308.643L308.538 420.116H308.433C308.213 420.476 307.918 420.791 307.548 421.061C307.188 421.321 306.668 421.451 305.988 421.451ZM306.213 420.341C306.693 420.341 307.098 420.226 307.428 419.996C307.768 419.766 308.023 419.461 308.193 419.081C308.373 418.701 308.463 418.286 308.463 417.836H306.528C305.848 417.836 305.368 417.951 305.088 418.181C304.818 418.411 304.683 418.716 304.683 419.096C304.683 419.486 304.813 419.791 305.073 420.011C305.333 420.231 305.713 420.341 306.213 420.341ZM316.392 421.271C315.712 421.271 315.177 421.106 314.787 420.776C314.397 420.446 314.202 419.851 314.202 418.991V414.911H312.312V413.831H313.437C313.947 413.831 314.242 413.581 314.322 413.081L314.532 411.926H315.462V413.831H318.432V414.911H315.462V418.991C315.462 419.411 315.557 419.706 315.747 419.876C315.947 420.046 316.287 420.131 316.767 420.131H318.432V421.271H316.392ZM324.516 412.511C324.216 412.511 323.966 412.411 323.766 412.211C323.566 412.011 323.466 411.771 323.466 411.491C323.466 411.201 323.566 410.961 323.766 410.771C323.966 410.571 324.216 410.471 324.516 410.471C324.806 410.471 325.051 410.571 325.251 410.771C325.461 410.961 325.566 411.201 325.566 411.491C325.566 411.771 325.461 412.011 325.251 412.211C325.051 412.411 324.806 412.511 324.516 412.511ZM321.606 421.271V420.191H323.976V415.286C323.976 415.036 323.851 414.911 323.601 414.911H321.861V413.831H323.901C324.791 413.831 325.236 414.276 325.236 415.166V420.191H327.606V421.271H321.606ZM333.601 421.451C332.901 421.451 332.281 421.291 331.741 420.971C331.201 420.651 330.776 420.201 330.466 419.621C330.156 419.031 330.001 418.341 330.001 417.551C330.001 416.761 330.156 416.076 330.466 415.496C330.776 414.906 331.201 414.451 331.741 414.131C332.281 413.811 332.901 413.651 333.601 413.651C334.301 413.651 334.921 413.811 335.461 414.131C336.001 414.451 336.426 414.906 336.736 415.496C337.046 416.076 337.201 416.761 337.201 417.551C337.201 418.341 337.046 419.031 336.736 419.621C336.426 420.201 336.001 420.651 335.461 420.971C334.921 421.291 334.301 421.451 333.601 421.451ZM333.601 420.251C334.031 420.251 334.421 420.156 334.771 419.966C335.121 419.776 335.396 419.481 335.596 419.081C335.806 418.681 335.911 418.171 335.911 417.551C335.911 416.931 335.806 416.421 335.596 416.021C335.396 415.621 335.121 415.326 334.771 415.136C334.421 414.946 334.031 414.851 333.601 414.851C333.181 414.851 332.796 414.946 332.446 415.136C332.096 415.326 331.816 415.621 331.606 416.021C331.396 416.421 331.291 416.931 331.291 417.551C331.291 418.481 331.516 419.166 331.966 419.606C332.416 420.036 332.961 420.251 333.601 420.251ZM339.415 421.271V413.831H340.465L340.6 414.956H340.675C340.875 414.596 341.19 414.291 341.62 414.041C342.05 413.781 342.545 413.651 343.105 413.651C344.015 413.651 344.695 413.921 345.145 414.461C345.605 415.001 345.835 415.781 345.835 416.801V421.271H344.575V416.951C344.575 416.291 344.43 415.776 344.14 415.406C343.85 415.026 343.4 414.836 342.79 414.836C342.2 414.836 341.7 415.041 341.29 415.451C340.88 415.851 340.675 416.431 340.675 417.191V421.271H339.415ZM351.589 421.301C351.279 421.301 351.014 421.196 350.794 420.986C350.574 420.776 350.464 420.516 350.464 420.206C350.464 419.906 350.574 419.651 350.794 419.441C351.014 419.231 351.279 419.126 351.589 419.126C351.899 419.126 352.164 419.231 352.384 419.441C352.604 419.651 352.714 419.906 352.714 420.206C352.714 420.516 352.604 420.776 352.384 420.986C352.164 421.196 351.899 421.301 351.589 421.301ZM351.589 415.376C351.279 415.376 351.014 415.271 350.794 415.061C350.574 414.851 350.464 414.591 350.464 414.281C350.464 413.981 350.574 413.726 350.794 413.516C351.014 413.306 351.279 413.201 351.589 413.201C351.899 413.201 352.164 413.306 352.384 413.516C352.604 413.726 352.714 413.981 352.714 414.281C352.714 414.591 352.604 414.851 352.384 415.061C352.164 415.271 351.899 415.376 351.589 415.376Z" fill="#6BA1FF"/>
<mask id="path-9-inside-1_425_25242" fill="white">
<path d="M48.4971 139.069H627.503V194.401H48.4971V139.069Z"/>
</mask>
<path d="M48.4971 139.069H627.503V194.401H48.4971V139.069Z" fill="#1D1D1D"/>
<path d="M627.503 194.401V192.947H48.4971V194.401V195.855H627.503V194.401Z" fill="#4A4A4A" mask="url(#path-9-inside-1_425_25242)"/>
<circle cx="83.3923" cy="167.702" r="5.81608" fill="#FF5F56"/>
<circle cx="101.382" cy="167.702" r="5.81608" fill="#FFBD2F"/>
<circle cx="119.372" cy="167.702" r="5.81608" fill="#29C940"/>
<path d="M319.006 160.615H320.519L323.544 165.707H323.672L326.698 160.615H328.21L324.269 167.028V171.524H322.948V167.028L319.006 160.615ZM329.253 171.524H327.868L331.874 160.615H333.237L337.243 171.524H335.858L332.598 162.34H332.513L329.253 171.524ZM329.764 167.262H335.347V168.434H329.764V167.262ZM338.942 160.615H340.519L344.226 169.67H344.354L348.062 160.615H349.638V171.524H348.403V163.235H348.296L344.887 171.524H343.694L340.285 163.235H340.178V171.524H338.942V160.615ZM352.287 171.524V160.615H353.608V170.352H358.679V171.524H352.287Z" fill="#A5A5A5"/>
</g>
</g>
</g>
<rect x="27.4618" y="79.5346" width="621.076" height="424.443" rx="10.5382" stroke="#E5E5E5" stroke-width="1.07639"/>
<path d="M48 292H628V474C628 479.523 623.523 484 618 484H58C52.4771 484 48 479.523 48 474V292Z" fill="url(#paint1_linear_425_25242)"/>
</g>
<rect x="0.556298" y="0.556298" width="674.887" height="581.887" rx="17.2452" stroke="#E5E5E5" stroke-width="1.1126"/>
<defs>
<filter id="filter0_d_425_25242" x="-33.0952" y="104.012" width="692.753" height="456.272" filterUnits="userSpaceOnUse" color-interpolation-filters="sRGB">
<feFlood flood-opacity="0" result="BackgroundImageFix"/>
<feColorMatrix in="SourceAlpha" type="matrix" values="0 0 0 0 0 0 0 0 0 0 0 0 0 0 0 0 0 0 127 0" result="hardAlpha"/>
<feOffset dx="-24.7184" dy="21.8103"/>
<feGaussianBlur stdDeviation="28.2807"/>
<feComposite in2="hardAlpha" operator="out"/>
<feColorMatrix type="matrix" values="0 0 0 0 0 0 0 0 0 0.0901756 0 0 0 0 0.216421 0 0 0 0.09 0"/>
<feBlend mode="normal" in2="BackgroundImageFix" result="effect1_dropShadow_425_25242"/>
<feBlend mode="normal" in="SourceGraphic" in2="effect1_dropShadow_425_25242" result="shape"/>
</filter>
<linearGradient id="paint0_linear_425_25242" x1="307.63" y1="-5.50392" x2="543.929" y2="522.373" gradientUnits="userSpaceOnUse">
<stop stop-color="#2D7BFF"/>
<stop offset="1" stop-color="white" stop-opacity="0"/>
</linearGradient>
<linearGradient id="paint1_linear_425_25242" x1="338" y1="292" x2="338" y2="484" gradientUnits="userSpaceOnUse">
<stop stop-color="#111111" stop-opacity="0"/>
<stop offset="1" stop-color="#111111"/>
</linearGradient>
<clipPath id="clip0_425_25242">
<rect width="676" height="583" rx="17.8015" fill="white"/>
</clipPath>
<clipPath id="clip1_425_25242">
<rect x="28" y="80.0728" width="620" height="423.367" rx="10" fill="white"/>
</clipPath>
<clipPath id="clip2_425_25242">
<rect x="48.1846" y="138.763" width="579.63" height="343.149" rx="9.88064" fill="white"/>
</clipPath>
</defs>
</svg>
