<svg width="60" height="19" viewBox="0 0 60 19" fill="none" xmlns="http://www.w3.org/2000/svg">
<path d="M18.1335 1.22754H15.9092V15.1929H18.1335V1.22754Z" fill="#061548"/>
<path d="M21.9519 1.22729H19.7275V15.1926H21.9519V1.22729Z" fill="#061548"/>
<path d="M2.5844 3.39299C2.84098 3.16788 3.24447 3.05532 3.78453 3.05532H4.38459V0.889648H3.85902C2.69614 0.889648 1.7588 1.18146 1.07183 1.75467C0.360037 2.34871 0 3.23249 0 4.38307V15.2073H2.22437V7.13028H4.38459V4.93543H2.22437V4.49563C2.22437 3.97453 2.34645 3.60351 2.5844 3.39299Z" fill="#061548"/>
<path d="M50.1321 12.9684L49.6375 13.0664C49.5899 13.0747 49.4265 13.1039 49.3085 13.1039C48.4064 13.1039 47.9346 13.0226 47.9346 11.2696V7.13005H50.0576V4.9352H47.9346V2.52148H45.6357V11.3989C45.6357 14.6109 47.3697 15.2862 48.8243 15.2862C49.2961 15.2862 49.6706 15.2404 49.7762 15.2258L50.1321 15.1737V12.9663V12.9684Z" fill="#061548"/>
<path d="M59.4145 6.82562C59.0234 6.15653 58.5061 5.64169 57.875 5.29985C57.2729 4.9726 56.617 4.80585 55.8721 4.79126C54.6202 4.77042 53.865 4.93925 53.1863 5.41866V1.18945H50.9619V15.1548H53.1863V9.41025C53.1863 8.89957 53.3042 8.40558 53.5091 8.05748C53.7243 7.69272 54.014 7.40507 54.3699 7.20497C54.7278 7.00279 55.1354 6.90065 55.5824 6.90065C56.2383 6.90065 56.7556 7.11326 57.1612 7.5489C57.575 7.99078 57.7757 8.57024 57.7757 9.31853V15.1569H60.0001V9.28101C60.0001 8.3222 59.8014 7.49679 59.4124 6.8277L59.4145 6.82562Z" fill="#061548"/>
<path d="M12.3569 4.93542V10.8155C12.3569 11.5367 12.1624 12.0828 11.7424 12.5309C11.3451 12.9561 10.5878 13.1791 10.0436 13.1791C9.49937 13.1791 8.73999 12.9561 8.34477 12.5309C7.9268 12.0807 7.73023 11.5367 7.73023 10.8155V4.93542H5.50586V10.7988C5.50586 11.7576 5.7045 12.583 6.09351 13.2521C6.48458 13.9212 7.00188 14.436 7.63298 14.7779C8.28063 15.128 9.33591 15.2885 10.0436 15.2885C10.7512 15.2885 11.8086 15.128 12.4562 14.7779C13.0853 14.436 13.6046 13.9233 13.9957 13.2521C14.3868 12.583 14.5833 11.7576 14.5833 10.7988V4.93542H12.359H12.3569Z" fill="#061548"/>
<path d="M25.7555 4.9209H23.5166V18.7028H25.7555V4.9209Z" fill="#061548"/>
<path d="M44.2196 4.9209H41.9932V15.2073H44.2196V4.9209Z" fill="#061548"/>
<path d="M44.1196 10.0377C44.1196 7.20292 41.829 4.89551 39.0149 4.89551C36.3767 4.89551 34.5124 7.31547 33.1509 9.08303L32.946 9.34983C32.8239 9.50616 32.706 9.66248 32.5881 9.81673L32.5508 9.86467C31.092 11.774 30.1257 12.9433 28.7228 12.9433C27.1337 12.9433 25.8405 11.6406 25.8405 10.0398C25.8405 8.43895 27.1337 7.13622 28.7228 7.13622C29.2877 7.13622 30.372 7.44679 31.2348 8.34933L31.7604 8.87459L33.0909 7.15081L32.5653 6.67348C31.3631 5.54792 29.8505 4.89759 28.7228 4.89759C25.9087 4.89759 23.6182 7.205 23.6182 10.0398C23.6182 12.8745 25.9087 15.1819 28.7228 15.1819C31.2907 15.1819 32.8943 13.083 34.3117 11.2299L34.3303 11.2049C34.4524 11.0465 34.5745 10.8881 34.6965 10.7276L34.9055 10.4566C36.0457 8.97672 37.463 7.13413 39.0149 7.13413C40.5668 7.13413 41.8973 8.43687 41.8973 10.0377C41.8973 11.6385 40.6041 12.9412 39.0149 12.9412C38.3714 12.9412 37.2375 12.3326 36.5774 11.5468L36.056 10.9819L34.6572 12.7224L35.1559 13.2956C36.3726 14.5212 37.8148 15.1798 39.0149 15.1798C41.829 15.1798 44.1196 12.8724 44.1196 10.0377Z" fill="#061548"/>
</svg>
