<svg class="logo-svg" viewBox="0 0 800 166" xmlns="http://www.w3.org/2000/svg">
    <defs>
        <linearGradient id="logoGradient1" x1="0%" y1="0%" x2="100%" y2="100%">
            <stop offset="0%" style="stop-color:#6366f1"></stop>
            <stop offset="50%" style="stop-color:#8b5cf6"></stop>
            <stop offset="100%" style="stop-color:#ec4899"></stop>
        </linearGradient>
        <linearGradient id="logoGradient2" x1="0%" y1="0%" x2="100%" y2="100%">
            <stop offset="0%" style="stop-color:#ec4899"></stop>
            <stop offset="50%" style="stop-color:#8b5cf6"></stop>
            <stop offset="100%" style="stop-color:#6366f1"></stop>
        </linearGradient>
    </defs>
    <g fill="#241F21">
        <polygon points="737.8,37.2 737.8,44.4 755.4,36.6 755.4,140.6 763.8,140.6 763.8,26.3"></polygon>
        <polygon points="369.5,25.4 369.5,25.4 324.6,131 280,25.4 270.6,25.4 319.5,140.6 329.2,140.6 378.2,25.4"></polygon>
        <polygon points="395.1,25.4 395.1,25.4 395.1,140.6 403.9,140.6 403.9,25.4"></polygon>
        <path d="M476.1,32.6L476.1,32.6l29.8,69.4h-59.6L476.1,32.6z M508.9,108.9L508.9,108.9l13.6,31.6h9.1L481.1,25.4h-9.7l-50.5,115.1h8.9l13.6-31.6H508.9z"></path>
        <polygon points="119.3,25.4 119.3,124.6 43.7,25.4 36.2,25.4 36.2,140.6 45,140.6 45,41.4 120.4,140.6 127.9,140.6 127.9,25.4"></polygon>
        <polygon points="590,140.6 590,140.6 590,26.3 563.9,37.2 563.9,44.4 581.5,36.6 581.5,140.6"></polygon>
    </g>
    <g>
        <path fill="url(#logoGradient1)" d="M233.6,40.2c14.3,8.9,23.8,24.7,23.8,42.8c0,27.9-22.6,50.4-50.4,50.4c-4.2,0-8.4-0.6-12.3-1.6l-3.8,8.9c5.1,1.4,10.5,2.2,16.1,2.2c33.1,0,60-26.9,60-60c0-22-11.9-41.3-29.6-51.7L233.6,40.2z"></path>
        <path fill="url(#logoGradient2)" d="M207,23c-33.1,0-60,26.9-60,60c0,22,11.9,41.3,29.6,51.7l3.8-8.9c-14.3-8.9-23.8-24.7-23.8-42.8c0-27.9,22.6-50.4,50.4-50.4c4.2,0,8.4,0.6,12.3,1.6l3.8-8.9C218,23.8,212.6,23,207,23z"></path>
        <path fill="url(#logoGradient1)" d="M699.1,40.2c14.3,8.9,23.8,24.7,23.8,42.8c0,27.9-22.6,50.4-50.4,50.4c-4.2,0-8.4-0.6-12.3-1.6l-3.8,8.9c5.1,1.4,10.5,2.2,16.1,2.2c33.1,0,60-26.9,60-60c0-22-11.9-41.3-29.6-51.7L699.1,40.2z"></path>
        <path fill="url(#logoGradient2)" d="M672.5,23c-33.1,0-60,26.9-60,60c0,22,11.9,41.3,29.6,51.7l3.8-8.9C631.6,116.9,622,101.1,622,83c0-27.9,22.6-50.4,50.4-50.4c4.2,0,8.4,0.6,12.3,1.6l3.8-8.9C683.4,23.8,678,23,672.5,23z"></path>
    </g>
</svg>
