<svg width="94" height="25" viewBox="0 0 94 25" fill="none" xmlns="http://www.w3.org/2000/svg">
<path d="M0.814148 11.9465C0.814148 6.78661 4.99688 2.6037 10.1566 2.6037C15.3162 2.6037 19.499 6.78661 19.499 11.9465V12.5C19.499 17.9656 15.0684 22.3963 9.60305 22.3963H0.814148L0.814148 11.9465Z" fill="#EEBF49"/>
<path d="M14.5142 9.96149C14.5142 11.0874 13.6023 12.0002 12.4775 12.0002C11.3526 12.0002 10.4407 11.0874 10.4407 9.96149C10.4407 8.83553 11.3526 7.92276 12.4775 7.92276C13.6023 7.92276 14.5142 8.83553 14.5142 9.96149Z" fill="#1D1D1D"/>
<path d="M12.9651 8.36597C13.1363 8.36597 13.275 8.50487 13.275 8.67621C13.275 8.84755 13.1363 8.98645 12.9651 8.98645C12.9477 8.98645 12.9307 8.98499 12.9141 8.98224C12.8737 9.23584 12.6542 9.42966 12.3895 9.42966C12.096 9.42966 11.8582 9.19154 11.8582 8.89782C11.8582 8.60409 12.096 8.36598 12.3895 8.36597C12.5155 8.36597 12.6313 8.40991 12.7224 8.48329C12.7791 8.41181 12.8668 8.36597 12.9651 8.36597Z" fill="#EAE6DD"/>
<path d="M19.7384 11.4314C20.7436 10.2435 20.7386 9.55864 21.4585 9.06213C21.8854 8.76774 22.4324 8.54823 22.9525 8.45002C22.96 8.46029 22.9671 8.47115 22.9737 8.48267C23.2824 9.01562 23.6189 11.0416 21.1244 12.5131C18.0844 14.3062 16.0745 13.546 15.8762 13.2526C16.9897 12.9784 18.8344 12.4995 19.7384 11.4314Z" fill="#EE6B26"/>
<path d="M18.0968 8.25111C18.8823 7.85272 19.6202 8.91045 21.147 8.66454C21.8397 8.55299 22.7058 8.04214 22.9502 8.45106C22.4308 8.54946 21.8848 8.76812 21.4585 9.06213C20.7386 9.55864 20.7436 10.2435 19.7384 11.4314C18.8344 12.4995 16.9897 12.9784 15.8762 13.2526C15.8761 13.2526 15.8762 13.2527 15.8762 13.2526C15.7437 13.0334 15.3989 12.6531 16.5276 11.5543C17.9384 10.1808 16.8724 8.8721 18.0968 8.25111Z" fill="#FF8F8F"/>
<path d="M80.7804 20.7372C80.1566 20.7372 79.6509 20.2315 79.6509 19.6077V1.62939C79.6509 1.00558 80.1566 0.499878 80.7804 0.499878H84.2916C84.9154 0.499878 85.4211 1.00558 85.4211 1.62939V10.8633C85.4211 10.8821 85.4363 10.8973 85.455 10.8973C85.4683 10.8973 85.4804 10.8895 85.4859 10.8775L87.7395 5.95382C87.9234 5.55204 88.3247 5.2944 88.7666 5.2944H91.8954C92.7494 5.2944 93.2945 6.20566 92.8906 6.95813L90.9648 10.5456C90.6323 11.165 90.9638 11.925 91.5041 12.3746C92.4162 13.1337 92.9474 14.4038 92.9474 16.2493V19.6077C92.9474 20.2315 92.4417 20.7372 91.8179 20.7372H88.3067C87.6829 20.7372 87.1772 20.2315 87.1772 19.6077V16.6396C87.1772 15.8312 86.9264 15.5246 86.1737 15.5246C85.7581 15.5246 85.4211 15.8615 85.4211 16.2772V19.6077C85.4211 20.2315 84.9154 20.7372 84.2916 20.7372H80.7804Z" fill="#EAE6DD"/>
<path d="M76.8841 20.8761C72.3683 20.8761 69.0511 17.9771 69.0511 13.0153C69.0511 8.05356 72.3683 5.15455 76.8841 5.15455C77.16 5.15455 77.4247 5.16584 77.6883 5.18588C78.2515 5.2287 78.6681 5.71503 78.6681 6.27987V9.69316C78.6681 10.2964 78.0448 10.7017 77.4416 10.7017C76.2708 10.7017 75.1001 11.4265 75.1001 13.0153C75.1001 14.6042 76.2708 15.329 77.4416 15.329C78.0448 15.329 78.6681 15.7343 78.6681 16.3375V19.7508C78.6681 20.3156 78.2515 20.802 77.6883 20.8448C77.4247 20.8648 77.16 20.8761 76.8841 20.8761Z" fill="#EAE6DD"/>
<path d="M59.61 20.904C56.5716 20.904 54.6761 18.9527 54.6761 15.7192C54.6761 12.4578 56.6273 10.6459 59.6379 10.6459C60.7485 10.6459 61.7208 10.8948 62.5272 11.3099C62.5336 11.3132 62.5407 11.3149 62.5478 11.3149H62.5648C62.5802 11.3149 62.5927 11.3025 62.5927 11.2871C62.5927 10.0884 61.5892 9.36368 59.8609 9.36368C59.1475 9.36368 58.434 9.47775 57.7603 9.66617C56.9468 9.89369 56.042 9.3354 56.042 8.4907V6.78852C56.042 6.31032 56.342 5.88042 56.8003 5.744C58.3542 5.28154 60.0954 5.01517 61.6728 5.01517C65.9935 5.01517 68.335 7.02217 68.335 11.2871V19.6072C68.335 20.231 67.8293 20.7367 67.2055 20.7367H63.3871C63.1485 20.7367 62.955 20.5433 62.955 20.3047V19.9136C62.955 19.8909 62.9367 19.8726 62.9141 19.8726C62.9045 19.8726 62.8953 19.8759 62.8879 19.882C62.08 20.545 60.914 20.904 59.61 20.904ZM60.056 15.6356C60.056 16.4997 60.6414 17.0572 61.4498 17.0572C62.2582 17.0572 62.8435 16.4997 62.8435 15.6356C62.8435 14.7715 62.2582 14.2139 61.4498 14.2139C60.6414 14.2139 60.056 14.7715 60.056 15.6356Z" fill="#EAE6DD"/>
<path d="M45.4312 20.9876C42.4764 20.9876 40.8039 19.12 40.8039 16.0816V6.42345C40.8039 5.79964 41.3096 5.29394 41.9334 5.29394H45.4167C46.0405 5.29394 46.5462 5.79964 46.5462 6.42345V14.4091C46.5462 15.1896 46.6856 15.6077 47.2989 15.6077C47.8842 15.6077 48.1909 15.1896 48.1909 14.4091V6.42345C48.1909 5.79964 48.6966 5.29394 49.3204 5.29394H52.8316C53.4554 5.29394 53.9611 5.79964 53.9611 6.42345V19.6072C53.9611 20.231 53.4554 20.7367 52.8316 20.7367H49.8355C49.4968 20.7367 49.2223 20.4622 49.2223 20.1235V19.5487C49.2223 19.5275 49.205 19.5102 49.1838 19.5102C49.1728 19.5102 49.1623 19.515 49.155 19.5231C48.2352 20.5453 46.8747 20.9876 45.4312 20.9876Z" fill="#EAE6DD"/>
<path d="M34.9692 24.4999C34.3454 24.4999 33.8397 23.9942 33.8397 23.3704V20.0553C33.8397 20.0314 33.8203 20.012 33.7964 20.012C33.7883 20.012 33.7803 20.0143 33.7734 20.0186C32.8004 20.6272 31.717 20.904 30.5783 20.904C26.8987 20.904 23.9997 17.9214 23.9997 13.0153C23.9997 8.22081 26.6479 5.15455 30.6062 5.15455C32.0222 5.15455 33.3554 5.54176 34.33 6.37128C34.3374 6.37757 34.3468 6.38106 34.3565 6.38106C34.379 6.38106 34.3972 6.36284 34.3972 6.34036V5.83749C34.3972 5.53729 34.6406 5.29393 34.9408 5.29393H38.4804C39.1042 5.29393 39.6099 5.79963 39.6099 6.42344V23.3704C39.6099 23.9942 39.1042 24.4999 38.4804 24.4999H34.9692ZM29.965 12.9596C29.965 14.5485 30.9685 15.3568 32.0835 15.3568C33.1986 15.3568 34.2021 14.5485 34.2021 12.9596C34.2021 11.3986 33.1986 10.5623 32.0835 10.5623C30.9685 10.5623 29.965 11.3986 29.965 12.9596Z" fill="#EAE6DD"/>
</svg>
