<svg width="117" height="36" viewBox="0 0 117 36" fill="none" xmlns="http://www.w3.org/2000/svg">
<g clip-path="url(#clip0_5525_1418)">
<path fill-rule="evenodd" clip-rule="evenodd" d="M59.4958 3.22402C59.3411 4.06032 59.5394 4.94484 60.3575 5.43048C59.524 2.1797 61.5124 0.888104 63.3536 0C61.2085 2.67058 65.5936 2.73987 65.8432 5.80908C66.0558 8.42564 63.9983 10.466 61.6294 11.3562C61.6568 8.71128 58.6396 8.35112 58.3365 6.18764C58.2175 5.3414 58.7686 3.79693 59.4958 3.22402Z" fill="#E11D48"/>
<path d="M9.14569 32.8027V28.082C8.06359 28.8793 6.88787 29.278 5.61852 29.278C3.76649 29.278 2.36706 28.5384 1.42023 27.0592C0.473412 25.5801 0 23.5712 0 21.0326C0 19.7528 0.166475 18.6041 0.499425 17.5865C0.832373 16.569 1.27457 15.7035 1.82602 14.9902C2.37746 14.2768 3.02256 13.7313 3.76128 13.3537C4.5 12.976 5.27514 12.7872 6.08674 12.7872C7.77227 12.7872 9.1873 13.2698 10.3318 14.2349C11.0602 13.4376 12.0486 13.0285 13.2972 13.0075C13.4428 13.1334 13.5937 13.2907 13.7498 13.4796C13.9058 13.6684 14.0515 13.8782 14.1868 14.109C14.322 14.3398 14.4417 14.581 14.5457 14.8328C14.6497 15.0846 14.7226 15.3154 14.7642 15.5252C14.1816 15.9658 13.8902 16.7211 13.8902 17.7911V35.5406L13.6717 35.761H11.7677C10.8104 35.761 10.1342 35.5406 9.73877 35.1C9.34338 34.6595 9.14569 33.8937 9.14569 32.8027ZM6.83586 25.3126C7.68904 25.3126 8.45898 24.9664 9.14569 24.2741V17.4764C8.39657 16.784 7.72026 16.4378 7.11679 16.4378C5.70175 16.4378 4.99426 18.0114 4.99426 21.1584C4.99426 23.9279 5.60812 25.3126 6.83586 25.3126ZM17.6047 23.6446V17.1931C17.6047 15.8294 17.355 14.7804 16.8556 14.046C17.6255 13.3537 18.5619 13.0075 19.6648 13.0075C20.7677 13.0075 21.5168 13.2593 21.9122 13.7628C22.3076 14.2663 22.5053 15.0321 22.5053 16.0602V22.732C22.5053 23.4663 22.5885 24.0013 22.755 24.337C22.9215 24.6727 23.3585 24.8406 24.066 24.8406C24.7527 24.8406 25.4498 24.4839 26.1573 23.7706V13.2593C26.844 13.1334 27.6452 13.0704 28.5608 13.0704C29.4764 13.0704 30.2984 13.1334 31.0267 13.2593V24.4629C31.0267 25.5958 31.318 26.3616 31.9007 26.7603C31.7966 27.1799 31.599 27.6362 31.3076 28.1292C31.0163 28.6223 30.7146 28.9842 30.4024 29.215C28.6961 29.152 27.4683 28.4177 26.7192 27.012C25.0752 28.5017 23.5249 29.2465 22.0683 29.2465C20.6116 29.2465 19.5035 28.7377 18.744 27.7201C17.9845 26.7026 17.6047 25.3441 17.6047 23.6446ZM48.0696 26.6973C47.9656 27.1379 47.7677 27.61 47.4764 28.1135C47.1852 28.617 46.8833 28.9842 46.5711 29.215C45.1147 29.173 43.9907 28.617 43.2 27.547C41.8476 28.8059 40.3805 29.4353 38.799 29.4353C37.9874 29.4353 37.2799 29.3042 36.6764 29.0419C36.0729 28.7796 35.5631 28.4282 35.1469 27.9876C34.7308 27.547 34.4186 27.0383 34.2105 26.4613C34.0024 25.8843 33.8984 25.2812 33.8984 24.6517C33.8984 23.7496 34.0597 22.9576 34.3822 22.2757C34.7047 21.5938 35.1469 21.0273 35.7088 20.5762C36.2706 20.1252 36.9261 19.7842 37.6753 19.5534C38.4244 19.3226 39.2256 19.2073 40.0789 19.2073C40.5574 19.2073 40.9787 19.2125 41.3429 19.223C41.7071 19.2335 42.0245 19.2492 42.2951 19.2702V18.6722C42.2951 17.3505 41.6187 16.6896 40.2662 16.6896C39.392 16.6896 37.8626 17.0253 35.6776 17.6966C35.0533 16.9623 34.6579 15.8189 34.4914 14.2663C34.9909 14.0775 35.5475 13.8992 36.1614 13.7313C36.7753 13.5635 37.4047 13.4166 38.0498 13.2907C38.6949 13.1648 39.3296 13.0652 39.954 12.9918C40.578 12.9183 41.1402 12.8816 41.6393 12.8816C42.3677 12.8816 43.0699 12.9865 43.7463 13.1963C44.4228 13.4061 45.0159 13.7261 45.5257 14.1562C46.0355 14.5863 46.4414 15.1423 46.7429 15.8242C47.0448 16.506 47.1956 17.319 47.1956 18.2631V24.6517C47.1956 25.6168 47.4868 26.2987 48.0696 26.6973ZM38.6429 24.337C38.6429 25.3231 39.2048 25.8162 40.3285 25.8162C40.9113 25.8162 41.5667 25.5119 42.2951 24.9035V22.3858C41.8789 22.3648 41.5302 22.3491 41.2493 22.3386C40.9684 22.3281 40.755 22.3229 40.6094 22.3229C39.2984 22.3229 38.6429 22.9942 38.6429 24.337ZM56.9342 25.3756H57.7773C58.0268 26.0679 58.1518 26.7603 58.1518 27.4526C58.1518 28.145 58.1204 28.5961 58.0582 28.8059C56.8096 29.0157 55.696 29.1206 54.718 29.1206C53.3029 29.1206 52.2992 28.7692 51.706 28.0663C51.1129 27.3635 50.8166 26.2567 50.8166 24.7461V6.02096L51.0038 5.80068H52.9077C53.8857 5.80068 54.5724 6.02096 54.968 6.46156C55.3631 6.90216 55.5607 7.66792 55.5607 8.75892V23.8964C55.5607 24.8825 56.0185 25.3756 56.9342 25.3756ZM66.236 16.8784V28.9632C65.8822 29.0262 65.4973 29.0734 65.0812 29.1048C64.665 29.1363 64.2385 29.1521 63.8013 29.1521C63.3645 29.1521 62.9324 29.1363 62.5059 29.1048C62.0795 29.0734 61.6891 29.0262 61.3356 28.9632V18.5464C61.3356 17.3295 60.8464 16.7211 59.8685 16.7211H59.4003C59.2753 16.3224 59.2131 15.7664 59.2131 15.0531C59.2131 14.3608 59.2753 13.7733 59.4003 13.2907C59.9411 13.2488 60.4405 13.2121 60.8984 13.1806C61.3562 13.1491 61.7724 13.1334 62.1469 13.1334H62.8336C63.8949 13.1334 64.7273 13.4691 65.3307 14.1404C65.9341 14.8118 66.236 15.7245 66.236 16.8784ZM70.6374 28.9632V16.6896L67.9527 16.7211C67.8281 16.1966 67.7655 15.6196 67.7655 14.9902C67.7655 14.3608 67.8281 13.7733 67.9527 13.2278L70.3875 13.2593C70.2835 12.483 70.2316 11.7801 70.2316 11.1507C70.2316 9.57716 70.7362 8.27112 71.7455 7.2326C72.7544 6.19404 74.0708 5.6748 75.6938 5.6748C77.3168 5.6748 78.9089 5.96852 80.4697 6.55596C80.4903 7.10148 80.3967 7.69416 80.1888 8.33408C79.9805 8.974 79.7207 9.46176 79.4084 9.79748C78.4305 9.50376 77.6291 9.35688 77.005 9.35688C75.6105 9.35688 74.9134 10.0807 74.9134 11.5284C74.9134 12.1368 74.9551 12.7243 75.0384 13.2907L79.1275 13.2278C79.2521 13.7733 79.3148 14.3608 79.3148 14.9902C79.3148 15.6196 79.2521 16.1966 79.1275 16.7211L75.3816 16.6581V28.9632C74.6742 29.0891 73.8938 29.1521 73.0408 29.1521C72.1875 29.1521 71.3865 29.0891 70.6374 28.9632ZM88.1794 16.8784V28.9632C87.8256 29.0262 87.4407 29.0734 87.0246 29.1048C86.6084 29.1363 86.1819 29.1521 85.7447 29.1521C85.3079 29.1521 84.8758 29.1363 84.4493 29.1048C84.0229 29.0734 83.6325 29.0262 83.279 28.9632V18.5464C83.279 17.3295 82.7898 16.7211 81.8119 16.7211H81.3437C81.2187 16.3224 81.1564 15.7664 81.1564 15.0531C81.1564 14.3608 81.2187 13.7733 81.3437 13.2907C81.8848 13.2488 82.3839 13.2121 82.8418 13.1806C83.2996 13.1491 83.7158 13.1334 84.0903 13.1334H84.777C85.8383 13.1334 86.6707 13.4691 87.2741 14.1404C87.8779 14.8118 88.1794 15.7245 88.1794 16.8784ZM82.7172 6.9336C83.3206 6.59792 84.101 6.43008 85.0579 6.43008C86.0363 6.43008 86.7956 6.59792 87.3368 6.9336C87.5863 7.50008 87.7113 8.10852 87.7113 8.75892C87.7113 9.40932 87.5863 10.0178 87.3368 10.5842C86.7333 10.899 85.9426 11.0563 84.9643 11.0563C83.9864 11.0563 83.2373 10.899 82.7172 10.5842C82.4673 10.0178 82.3423 9.40932 82.3423 8.75892C82.3423 8.10852 82.4673 7.50008 82.7172 6.9336ZM90.9264 15.5252C91.0304 15.1056 91.228 14.6387 91.5196 14.1247C91.8108 13.6107 92.102 13.2383 92.3936 13.0075C94.3078 13.1544 95.6396 14.109 96.3887 15.8714C97.1794 13.9831 98.4803 13.039 100.291 13.039C100.832 13.039 101.518 13.1229 102.351 13.2907C102.351 13.9411 102.241 14.7122 102.023 15.6038C101.805 16.4955 101.508 17.2561 101.133 17.8855C100.779 17.7596 100.249 17.6547 99.5415 17.5708C98.5009 17.5708 97.6479 18.1058 96.9818 19.1758V28.9632C96.295 29.0891 95.4889 29.1521 94.5629 29.1521C93.6369 29.1521 92.82 29.0891 92.1123 28.9632V18.7982C92.1123 17.2246 91.7171 16.1336 90.9264 15.5252ZM115.929 22.7005H107.782C107.823 23.6446 108.063 24.379 108.5 24.9035C108.937 25.428 109.655 25.6903 110.654 25.6903C111.153 25.6903 111.73 25.6168 112.386 25.47C113.042 25.3231 113.796 25.0818 114.649 24.7461C115.336 25.4595 115.762 26.4246 115.929 27.6414C114.264 28.8374 112.225 29.4353 109.811 29.4353C108.5 29.4353 107.402 29.2255 106.518 28.8059C105.633 28.3863 104.915 27.7988 104.364 27.0435C103.812 26.2882 103.422 25.3965 103.193 24.3685C102.965 23.3404 102.85 22.218 102.85 21.0011C102.85 19.8262 102.99 18.7404 103.272 17.7439C103.553 16.7473 103.979 15.8818 104.551 15.1475C105.124 14.4132 105.852 13.8362 106.736 13.4166C107.621 12.997 108.656 12.7872 109.842 12.7872C110.841 12.7872 111.741 12.955 112.542 13.2907C113.343 13.6264 114.025 14.088 114.587 14.6754C115.148 15.2629 115.58 15.9658 115.882 16.784C116.184 17.6022 116.335 18.4939 116.335 19.459C116.335 20.7388 116.199 21.8194 115.929 22.7005ZM107.751 19.3017H111.871V18.9555C111.871 18.1792 111.699 17.5393 111.356 17.0358C111.012 16.5322 110.497 16.2805 109.811 16.2805C109.145 16.2805 108.651 16.5165 108.328 16.9886C108.005 17.4606 107.813 18.2317 107.751 19.3017Z" fill="white"/>
</g>
<defs>
<clipPath id="clip0_5525_1418">
<rect width="116.64" height="36" fill="white"/>
</clipPath>
</defs>
</svg>
