<svg width="114" height="32" viewBox="0 0 114 32" fill="none" xmlns="http://www.w3.org/2000/svg">
<g clip-path="url(#clip0_64_740)">
<path d="M36.3687 7.16797C36.7416 7.16797 37.0366 7.4685 37.0366 7.83581V17.1577C37.0366 21.8715 44.9727 21.3929 44.9727 17.1577V7.99164C44.9727 7.62432 45.2732 7.3238 45.6405 7.3238H48.1171C48.49 7.3238 48.785 7.61876 48.785 7.99164V24.0476C48.785 26.2403 47.594 28.049 46.7981 28.9172C43.7984 32.1785 38.9455 31.5441 35.1499 30.0136C34.8995 29.9134 34.7436 29.6686 34.7436 29.4014V26.6744C34.7436 26.3461 35.0887 26.129 35.3837 26.2681C37.6543 27.3367 40.5483 28.4887 42.9135 27.3478C44.9727 26.3572 45.123 24.8267 45.123 21.5154C44.3383 23.6246 42.0287 24.5596 39.8526 24.4149C37.0644 24.2368 33.2188 21.8994 33.2188 17.3358V7.84137C33.2188 7.47406 33.5193 7.17353 33.8866 7.17353H36.3632L36.3687 7.16797Z" fill="#0C1C34"/>
<path d="M54.9843 0C55.3571 0 55.6521 0.300527 55.6521 0.667838V9.30521L56.8876 8.01963C60.5162 4.88635 66.9441 7.69127 66.9441 12.739V23.135C66.9441 23.5079 66.6436 23.8029 66.2763 23.8029H64.1225C63.7441 23.8029 63.4435 23.4968 63.4491 23.1183C63.4825 20.8366 63.5326 13.5516 62.798 12.1547C61.2731 9.25513 56.8542 10.2235 55.8858 12.9728C55.513 14.0246 55.4406 23.8029 55.4239 23.8029H52.5077C52.1348 23.8029 51.8398 23.5023 51.8398 23.135V0.667838C51.8398 0.300527 52.1404 0 52.5077 0H54.9843Z" fill="#0C1C34"/>
<path d="M20.5711 0.305664V13.2951C20.5711 13.6346 20.8493 13.9184 21.122 13.7237C21.3446 13.5623 21.5339 13.3118 21.7175 13.1226C23.4205 11.3751 25.0233 9.28252 26.654 7.43484C26.782 7.29014 26.9712 7.20666 27.1715 7.21223L30.2714 7.29014C30.8391 7.30684 31.134 7.98024 30.7556 8.4032L25.2515 14.5974C25.0345 14.8423 25.0233 15.2096 25.2348 15.4656L31.2787 22.8619C31.6349 23.3016 31.3233 23.9583 30.7612 23.9583H27.6835C27.4832 23.9583 27.294 23.8692 27.166 23.7134L21.7732 17.1575C21.6953 17.0628 21.5895 16.9905 21.4782 16.9515C21.0441 16.8013 20.5822 17.1241 20.5822 17.5804V23.2904C20.5822 23.6633 20.2817 23.9583 19.9144 23.9583H17.5936C17.2263 23.9583 16.9258 23.6577 16.9258 23.2904V0.973502C16.9258 0.606191 17.2263 0.305664 17.5936 0.305664H20.5878H20.5711Z" fill="#0C1C34"/>
<path d="M102.489 0.305664C102.856 0.305664 103.156 0.606191 103.156 0.973502V13.3285C103.156 13.6012 103.424 13.7904 103.68 13.6958C103.741 13.6736 103.796 13.6346 103.841 13.5845L109.206 7.47936C109.334 7.3291 109.523 7.24562 109.718 7.25118L112.718 7.30127C113.285 7.3124 113.586 7.97467 113.219 8.40877L107.82 14.731C107.609 14.9814 107.609 15.3432 107.815 15.5936L113.842 22.8563C114.204 23.2904 113.892 23.9527 113.324 23.9527H110.263C110.063 23.9527 109.874 23.8637 109.746 23.7078L104.347 17.1463C104.269 17.0517 104.169 16.9794 104.052 16.9404C103.618 16.7846 103.156 17.1074 103.156 17.5693V23.2793C103.156 23.6522 102.856 23.9471 102.489 23.9471H100.168C99.8005 23.9471 99.5 23.6466 99.5 23.2793V0.973502C99.5 0.606191 99.8005 0.305664 100.168 0.305664H102.489Z" fill="#0C1C34"/>
<path d="M3.55109 18.772C3.57335 18.8332 3.83492 19.5567 4.05196 19.9463C5.1539 21.9442 10.402 21.8941 10.7303 19.54C10.9251 18.1431 9.78424 17.7368 8.69344 17.4363C5.52121 16.5625 0.523551 16.941 0.440071 12.2606C0.317634 5.30391 13.0789 4.65833 14.0974 11.359C14.153 11.7319 13.8469 12.0491 13.4685 12.0491H11.337C11.0977 12.0491 10.8806 11.9211 10.747 11.7207C9.71746 10.1736 8.24822 9.50573 6.31148 9.77286C4.12431 10.0734 3.28952 12.4108 5.76608 13.3458C8.76579 14.4756 14.1141 13.9135 14.5982 18.2488C15.4664 26.0403 0.829644 26.4855 0.000411139 19.4343C-0.0441114 19.0669 0.261981 18.7664 0.629292 18.7664H3.54552L3.55109 18.772Z" fill="#0C1C34"/>
<path d="M80.8381 23.3352C73.0188 27.9934 65.6336 18.3988 71.2657 11.7371C75.4954 7.15127 82.4965 9.53879 83.6875 15.5215C83.8155 15.989 84.066 16.8294 84.194 17.2857C86.0083 22.979 93.694 21.6934 93.8665 15.7942C94.0668 11.5924 89.1916 8.59825 85.9359 11.6647L85.1734 12.3771L82.5522 9.44418C85.1568 6.86744 88.8243 5.88238 92.2358 7.42397C97.2502 9.60558 98.8864 16.412 95.7253 20.7585C91.6515 26.6021 83.0141 24.9714 80.9828 18.2541C80.8436 17.8033 80.6043 16.9518 80.4652 16.4954L80.1702 15.5048C79.3521 12.7555 75.7681 11.7594 73.8703 14.0523C71.2156 17.0353 74.2265 22.339 78.1166 20.3522L79.0405 19.8513L80.8436 23.3463L80.8381 23.3352Z" fill="#0C1C34"/>
</g>
<defs>
<clipPath id="clip0_64_740">
<rect width="114" height="31.2604" fill="white"/>
</clipPath>
</defs>
</svg>