<svg xmlns="http://www.w3.org/2000/svg" width="165" height="40" viewBox="0 0 165 40" fill="none"><path d="M62.8962 39.4995C57.3087 39.5427 53.1405 38.2427 50.4012 35.5995C47.6571 32.9563 46.2709 29.0467 46.233 23.8707L46.0911 4.05889L54.9526 3.99173L55.0945 23.8611C55.1134 26.5522 55.7569 28.591 57.0201 29.9773C58.2833 31.3685 60.2278 32.0497 62.8442 32.0305C65.4795 32.0113 67.4145 31.2965 68.6635 29.891C69.9078 28.4855 70.5229 26.4371 70.504 23.746L70.362 3.8766L79.2235 3.80944L79.3655 23.6213C79.4033 28.8021 78.0739 32.7308 75.3771 35.4124C72.6803 38.0939 68.5216 39.4563 62.901 39.4995H62.8962Z" fill="#1F1017"></path><path d="M82.805 38.377L82.6157 12.07L91.2643 12.0076L90.9994 19.4814L91.3542 20.3161L91.482 38.3146L82.805 38.377ZM102.454 38.2283L102.349 23.9379C102.34 22.8921 102.189 21.9471 101.891 21.1124C101.592 20.2729 101.067 19.6157 100.329 19.136C99.5912 18.6563 98.5598 18.4165 97.2398 18.426C96.1374 18.4356 95.1865 18.6227 94.3869 18.9873C93.5873 19.3519 92.925 19.8412 92.3951 20.4504C91.8652 21.0596 91.4536 21.736 91.1555 22.4748L90.0058 18.2629L91.34 18.2534C91.6334 16.9342 92.1585 15.7445 92.9155 14.6796C93.6725 13.6194 94.7181 12.7703 96.0476 12.1419C97.377 11.5087 99.0471 11.1873 101.058 11.1729C103.3 11.1537 105.15 11.5615 106.608 12.3914C108.065 13.2213 109.153 14.4493 109.877 16.0755C110.601 17.7017 110.97 19.7165 110.989 22.115L111.102 38.1659L102.454 38.2283Z" fill="#1F1017"></path><path d="M118.502 9.03822C116.884 9.04782 115.696 8.69763 114.944 7.98287C114.192 7.26811 113.813 6.28472 113.804 5.04228V4.87918C113.794 3.65114 114.158 2.67254 114.901 1.93379C115.644 1.19985 116.822 0.825677 118.445 0.811286C120.049 0.801691 121.227 1.15667 121.989 1.88103C122.75 2.60538 123.134 3.58398 123.143 4.80723V4.97033C123.152 6.23195 122.783 7.22494 122.031 7.9445C121.279 8.66405 120.101 9.02863 118.502 9.03822ZM114.386 38.1419L114.196 11.8349L122.845 11.7725L123.034 38.0795L114.386 38.1419Z" fill="#1F1017"></path><path d="M124.023 38.07L133.258 23.2231L133.273 25.4441L124.099 11.7629L133.736 11.691L139.248 20.5847H139.806L145.186 11.6094L154.795 11.5375L145.82 25.353L145.805 23.1319L155.254 37.8397L145.593 37.9117L139.863 28.5334H139.305L133.684 37.998L124.018 38.07H124.023Z" fill="#1F1017"></path><path d="M160.359 8.73121C158.741 8.7456 157.553 8.39062 156.801 7.67586C156.049 6.9611 155.67 5.97771 155.661 4.73527V4.57217C155.651 3.34413 156.015 2.36553 156.758 1.62678C157.501 0.892836 158.679 0.518666 160.302 0.504275C161.906 0.494681 163.084 0.849662 163.846 1.57402C164.607 2.29837 164.99 3.27697 165 4.50022V4.66332C165.009 5.92494 164.64 6.91793 163.888 7.63749C163.136 8.35704 161.958 8.72162 160.359 8.73121ZM156.243 37.8301L156.053 11.5231L164.702 11.4607L164.891 37.7677L156.243 37.8301Z" fill="#1F1017"></path><path d="M33.2886 0.499477H5.1428C2.30251 0.499477 0 2.83404 0 5.71387V34.2515C0 37.1313 2.30251 39.4659 5.1428 39.4659H33.2886C36.1289 39.4659 38.4314 37.1313 38.4314 34.2515V5.71387C38.4314 2.83404 36.1289 0.499477 33.2886 0.499477Z" fill="#FF003D"></path><path d="M22.8232 25.3482L20.4907 26.4179V26.4803L22.8232 27.5212V30.0973L19.2275 27.8954L15.6082 30.126V27.4781L17.9075 26.4707V26.4179L15.6082 25.2906V22.7146L19.2275 25.0172L22.8232 22.7434V25.3482Z" fill="white"></path><path d="M22.8232 31.3013H15.6082V33.5463H22.8232V31.3013Z" fill="white"></path><path d="M22.8232 19.2943H15.6082V21.5345H22.8232V19.2943Z" fill="white"></path><path d="M10.3281 12.1659C10.3281 11.4655 10.418 10.8371 10.5931 10.2855C10.7681 9.7338 11.0189 9.25409 11.3453 8.85594C11.6718 8.45778 12.0597 8.12199 12.5139 7.85815C12.9681 7.59431 13.4791 7.39763 14.0516 7.26811C14.6193 7.13859 15.2344 7.07143 15.9015 7.07143H18.3617V10.06H16.0623C15.3716 10.06 14.818 10.1511 14.4017 10.3382C13.9901 10.5205 13.692 10.7748 13.5169 11.0866C13.3419 11.3984 13.252 11.7581 13.252 12.1659C13.252 12.5736 13.3419 12.9478 13.5169 13.2644C13.692 13.5762 13.9853 13.8257 14.3922 14.008C14.7991 14.1903 15.3526 14.2862 16.0576 14.2862H18.3569V17.2748H15.8967C14.132 17.2748 12.7647 16.8478 11.7901 15.9843C10.8154 15.1209 10.3281 13.8497 10.3281 12.1611V12.1659Z" fill="white"></path><path d="M27.8383 14.0655C27.6585 14.622 27.4078 15.0969 27.0861 15.495C26.7596 15.8932 26.3717 16.229 25.9175 16.488C25.4633 16.7519 24.9523 16.9486 24.3846 17.0781C23.8168 17.2028 23.197 17.27 22.5347 17.27H20.0745V14.2814H22.3738C23.0646 14.2814 23.6181 14.1903 24.0297 14.0032C24.4413 13.8209 24.7394 13.5714 24.9145 13.2596C25.0895 12.943 25.1747 12.588 25.1747 12.1803C25.1747 11.7725 25.0848 11.3984 24.9145 11.0818C24.7394 10.77 24.4461 10.5205 24.0392 10.3334C23.6323 10.1511 23.074 10.0552 22.3738 10.0552H20.0745V7.06664H22.5347C24.2994 7.06664 25.6667 7.49837 26.6413 8.35704C27.616 9.22051 28.1033 10.4917 28.1033 12.1755C28.1033 12.8759 28.0181 13.5043 27.8431 14.0559L27.8383 14.0655Z" fill="white"></path></svg>