<svg width="75" height="83" viewBox="0 0 75 83" fill="none" xmlns="http://www.w3.org/2000/svg">
<path d="M4.23082 18.4112L33.7236 1.50174C36.0554 0.166087 38.9393 0.166087 41.2764 1.50174L70.7692 18.4112C73.0795 19.7363 74.5 22.17 74.5 24.7991V58.2009C74.5 60.83 73.0795 63.2637 70.7692 64.5888L41.2764 81.4983C38.9446 82.8339 36.0607 82.8339 33.7236 81.4983L4.23082 64.5888C1.9205 63.2637 0.5 60.83 0.5 58.2009V24.7991C0.5 22.17 1.9205 19.7363 4.23082 18.4112Z" fill="#F7F7F5" fill-opacity="0.59" stroke="#8FB4F5" stroke-miterlimit="10"/>
<path d="M9.62658 21.788L34.337 7.355C36.2911 6.215 38.709 6.215 40.6631 7.355L65.3734 21.788C67.3067 22.9175 68.5 24.9936 68.5 27.2422V55.7578C68.5 58.0064 67.3119 60.0825 65.3734 61.212L40.6631 75.645C38.709 76.785 36.2911 76.785 34.337 75.645L9.62658 61.212C7.69331 60.0825 6.5 58.0064 6.5 55.7578V27.2422C6.5 24.9936 7.6881 22.9175 9.62658 21.788Z" fill="url(#paint0_linear_375_6690)"/>
<g filter="url(#filter0_d_375_6690)">
<path d="M34.9957 28.6548L32.6664 29.5259C32.4811 29.5939 32.3575 29.7731 32.3575 29.9708C32.3575 30.1685 32.4811 30.3477 32.6664 30.4156L34.9957 31.2868L35.8669 33.616C35.9348 33.8014 36.114 33.925 36.3117 33.925C36.5094 33.925 36.6886 33.8014 36.7566 33.616L37.6277 31.2868L39.957 30.4156C40.1423 30.3477 40.2659 30.1685 40.2659 29.9708C40.2659 29.7731 40.1423 29.5939 39.957 29.5259L37.6277 28.6548L36.7566 26.3255C36.6886 26.1402 36.5094 26.0166 36.3117 26.0166C36.114 26.0166 35.9348 26.1402 35.8669 26.3255L34.9957 28.6548ZM23.3432 50.446C22.1879 51.6014 22.1879 53.4796 23.3432 54.6411L25.481 56.7789C26.6363 57.9342 28.5146 57.9342 29.6761 56.7789L53.2344 33.2144C54.3897 32.0591 54.3897 30.1808 53.2344 29.0193L51.0966 26.8878C49.9413 25.7324 48.063 25.7324 46.9015 26.8878L23.3432 50.446ZM50.4355 31.12L43.9482 37.6073L42.5086 36.1677L48.996 29.6804L50.4355 31.12ZM20.9584 33.2577C20.6803 33.3627 20.495 33.6284 20.495 33.925C20.495 34.2215 20.6803 34.4872 20.9584 34.5922L24.4492 35.902L25.759 39.3928C25.864 39.6709 26.1297 39.8562 26.4263 39.8562C26.7228 39.8562 26.9885 39.6709 27.0935 39.3928L28.4034 35.902L31.8941 34.5922C32.1722 34.4872 32.3575 34.2215 32.3575 33.925C32.3575 33.6284 32.1722 33.3627 31.8941 33.2577L28.4034 31.9479L27.0935 28.4571C26.9885 28.179 26.7228 27.9937 26.4263 27.9937C26.1297 27.9937 25.864 28.179 25.759 28.4571L24.4492 31.9479L20.9584 33.2577ZM42.7064 49.0744C42.4283 49.1794 42.243 49.4451 42.243 49.7417C42.243 50.0382 42.4283 50.3039 42.7064 50.4089L46.1972 51.7188L47.507 55.2096C47.612 55.4876 47.8777 55.6729 48.1742 55.6729C48.4708 55.6729 48.7365 55.4876 48.8415 55.2096L50.1513 51.7188L53.6421 50.4089C53.9202 50.3039 54.1055 50.0382 54.1055 49.7417C54.1055 49.4451 53.9202 49.1794 53.6421 49.0744L50.1513 47.7646L48.8415 44.2738C48.7365 43.9958 48.4708 43.8104 48.1742 43.8104C47.8777 43.8104 47.612 43.9958 47.507 44.2738L46.1972 47.7646L42.7064 49.0744Z" fill="white"/>
</g>
<defs>
<filter id="filter0_d_375_6690" x="11.5" y="21.5" width="52" height="52" filterUnits="userSpaceOnUse" color-interpolation-filters="sRGB">
<feFlood flood-opacity="0" result="BackgroundImageFix"/>
<feColorMatrix in="SourceAlpha" type="matrix" values="0 0 0 0 0 0 0 0 0 0 0 0 0 0 0 0 0 0 127 0" result="hardAlpha"/>
<feOffset dy="6"/>
<feGaussianBlur stdDeviation="4"/>
<feComposite in2="hardAlpha" operator="out"/>
<feColorMatrix type="matrix" values="0 0 0 0 0.118632 0 0 0 0 0.372589 0 0 0 0 0.812782 0 0 0 0.4 0"/>
<feBlend mode="normal" in2="BackgroundImageFix" result="effect1_dropShadow_375_6690"/>
<feBlend mode="normal" in="SourceGraphic" in2="effect1_dropShadow_375_6690" result="shape"/>
</filter>
<linearGradient id="paint0_linear_375_6690" x1="37.5" y1="76.5" x2="37.5" y2="6.5" gradientUnits="userSpaceOnUse">
<stop stop-color="#2D7AFF"/>
<stop offset="1" stop-color="#A6C7FF"/>
</linearGradient>
</defs>
</svg>
