<svg width="75" height="83" viewBox="0 0 75 83" fill="none" xmlns="http://www.w3.org/2000/svg">
<path d="M4.23082 18.4112L33.7236 1.50174C36.0554 0.166087 38.9393 0.166087 41.2764 1.50174L70.7692 18.4112C73.0795 19.7363 74.5 22.17 74.5 24.7991V58.2009C74.5 60.83 73.0795 63.2637 70.7692 64.5888L41.2764 81.4983C38.9446 82.8339 36.0607 82.8339 33.7236 81.4983L4.23082 64.5888C1.9205 63.2637 0.5 60.83 0.5 58.2009V24.7991C0.5 22.17 1.9205 19.7363 4.23082 18.4112Z" fill="#F7F7F5" fill-opacity="0.59" stroke="#8FB4F5" stroke-miterlimit="10"/>
<path d="M9.62658 21.788L34.337 7.355C36.2911 6.215 38.709 6.215 40.6631 7.355L65.3734 21.788C67.3067 22.9175 68.5 24.9936 68.5 27.2422V55.7578C68.5 58.0064 67.3119 60.0825 65.3734 61.212L40.6631 75.645C38.709 76.785 36.2911 76.785 34.337 75.645L9.62658 61.212C7.69331 60.0825 6.5 58.0064 6.5 55.7578V27.2422C6.5 24.9936 7.6881 22.9175 9.62658 21.788Z" fill="url(#paint0_linear_375_6680)"/>
<g filter="url(#filter0_d_375_6680)">
<path fill-rule="evenodd" clip-rule="evenodd" d="M37.6157 24.5C35.211 24.5 32.9049 25.4552 31.2045 27.1556C29.5042 28.8559 28.5489 31.1621 28.5489 33.5668V36.3459C27.248 36.9686 26.1256 37.9101 25.2861 39.0829C24.4466 40.2557 23.9173 41.6216 23.7473 43.0539C23.6038 44.3198 23.5 45.6253 23.5 46.9605C23.5 48.2932 23.6038 49.5987 23.7473 50.8621C23.988 52.8829 24.9412 54.7517 26.4357 56.1329C27.9302 57.5142 29.8682 58.3174 31.9017 58.3984C35.7098 58.5339 39.5216 58.5339 43.3297 58.3984C45.3631 58.3174 47.3011 57.5142 48.7957 56.1329C50.2902 54.7517 51.2434 52.8829 51.4841 50.8621C51.6275 49.5987 51.7313 48.2907 51.7313 46.958C51.7313 45.6228 51.6275 44.3198 51.4841 43.0539C51.3138 41.6214 50.7841 40.2552 49.9442 39.0824C49.1042 37.9096 47.9814 36.9683 46.68 36.3459V33.5668C46.68 31.1625 45.7251 28.8567 44.0252 27.1565C42.3254 25.4562 40.0199 24.5007 37.6157 24.5ZM42.9712 35.5052V33.5668C42.9865 32.8536 42.8593 32.1446 42.597 31.4813C42.3346 30.818 41.9425 30.2137 41.4436 29.7039C40.9446 29.1942 40.3489 28.7891 39.6914 28.5126C39.0339 28.2361 38.3277 28.0937 37.6144 28.0937C36.9011 28.0937 36.195 28.2361 35.5375 28.5126C34.8799 28.7891 34.2842 29.1942 33.7853 29.7039C33.2864 30.2137 32.8942 30.818 32.6319 31.4813C32.3696 32.1446 32.2424 32.8536 32.2577 33.5668V35.5052C34.0431 35.4474 35.8293 35.4194 37.6157 35.4212C39.4997 35.4212 41.2602 35.4484 42.9712 35.5052ZM37.6157 43.6646C38.1075 43.6646 38.5792 43.86 38.9269 44.2077C39.2747 44.5555 39.4701 45.0272 39.4701 45.519V47.989C39.4701 48.4809 39.2747 48.9525 38.9269 49.3003C38.5792 49.6481 38.1075 49.8434 37.6157 49.8434C37.1239 49.8434 36.6522 49.6481 36.3044 49.3003C35.9567 48.9525 35.7613 48.4809 35.7613 47.989V45.5165C35.7613 45.0247 35.9567 44.553 36.3044 44.2052C36.6522 43.8575 37.1239 43.6646 37.6157 43.6646Z" fill="white"/>
</g>
<defs>
<filter id="filter0_d_375_6680" x="11.5" y="21.5" width="52" height="52" filterUnits="userSpaceOnUse" color-interpolation-filters="sRGB">
<feFlood flood-opacity="0" result="BackgroundImageFix"/>
<feColorMatrix in="SourceAlpha" type="matrix" values="0 0 0 0 0 0 0 0 0 0 0 0 0 0 0 0 0 0 127 0" result="hardAlpha"/>
<feOffset dy="6"/>
<feGaussianBlur stdDeviation="4"/>
<feComposite in2="hardAlpha" operator="out"/>
<feColorMatrix type="matrix" values="0 0 0 0 0.118632 0 0 0 0 0.372589 0 0 0 0 0.812782 0 0 0 0.4 0"/>
<feBlend mode="normal" in2="BackgroundImageFix" result="effect1_dropShadow_375_6680"/>
<feBlend mode="normal" in="SourceGraphic" in2="effect1_dropShadow_375_6680" result="shape"/>
</filter>
<linearGradient id="paint0_linear_375_6680" x1="37.5" y1="76.5" x2="37.5" y2="6.5" gradientUnits="userSpaceOnUse">
<stop stop-color="#2D7AFF"/>
<stop offset="1" stop-color="#A6C7FF"/>
</linearGradient>
</defs>
</svg>
