<svg width="75" height="83" viewBox="0 0 75 83" fill="none" xmlns="http://www.w3.org/2000/svg">
<path d="M4.23082 18.4112L33.7236 1.50174C36.0554 0.166087 38.9393 0.166087 41.2764 1.50174L70.7692 18.4112C73.0795 19.7363 74.5 22.17 74.5 24.7991V58.2009C74.5 60.83 73.0795 63.2637 70.7692 64.5888L41.2764 81.4983C38.9446 82.8339 36.0607 82.8339 33.7236 81.4983L4.23082 64.5888C1.9205 63.2637 0.5 60.83 0.5 58.2009V24.7991C0.5 22.17 1.9205 19.7363 4.23082 18.4112Z" fill="#F7F7F5" fill-opacity="0.59" stroke="#8FB4F5" stroke-miterlimit="10"/>
<path d="M9.62658 21.788L34.337 7.355C36.2911 6.215 38.709 6.215 40.6631 7.355L65.3734 21.788C67.3067 22.9175 68.5 24.9936 68.5 27.2422V55.7578C68.5 58.0064 67.3119 60.0825 65.3734 61.212L40.6631 75.645C38.709 76.785 36.2911 76.785 34.337 75.645L9.62658 61.212C7.69331 60.0825 6.5 58.0064 6.5 55.7578V27.2422C6.5 24.9936 7.6881 22.9175 9.62658 21.788Z" fill="url(#paint0_linear_375_6665)"/>
<g filter="url(#filter0_d_375_6665)">
<path d="M41.7084 24.5512C43.3992 24.9713 45.0175 25.6422 46.5097 26.5415C46.8087 26.722 47.0468 26.988 47.1931 27.3051C47.3394 27.6223 47.3872 27.976 47.3303 28.3206C47.133 29.5236 47.4316 30.4437 47.9938 31.0059C48.5559 31.5681 49.4778 31.8666 50.679 31.6693C51.0236 31.6125 51.3774 31.6603 51.6945 31.8066C52.0117 31.9528 52.2777 32.1909 52.4581 32.4899C53.3574 33.9821 54.0283 35.6005 54.4485 37.2912C54.5328 37.6305 54.5133 37.9873 54.3925 38.3154C54.2717 38.6435 54.0552 38.9278 53.7711 39.1315C52.7811 39.8421 52.3394 40.7028 52.3394 41.4989C52.3394 42.2951 52.7811 43.1576 53.7711 43.8682C54.0549 44.0717 54.2712 44.3557 54.392 44.6834C54.5127 45.0112 54.5324 45.3676 54.4485 45.7066C54.0283 47.3974 53.3574 49.0158 52.4581 50.508C52.2777 50.807 52.0117 51.0451 51.6945 51.1913C51.3774 51.3376 51.0236 51.3854 50.679 51.3286C49.4761 51.1313 48.5559 51.4316 47.9938 51.992C47.4316 52.5542 47.133 53.4761 47.3303 54.6773C47.3875 55.0221 47.3399 55.3762 47.1936 55.6938C47.0473 56.0113 46.8091 56.2775 46.5097 56.4581C45.0175 57.3574 43.3992 58.0283 41.7084 58.4485C41.3691 58.5328 41.0123 58.5133 40.6842 58.3925C40.3561 58.2717 40.0718 58.0552 39.8682 57.771C39.1576 56.7794 38.2968 56.3394 37.5007 56.3394C36.7045 56.3394 35.8421 56.7794 35.1315 57.771C34.9279 58.0549 34.6439 58.2712 34.3162 58.392C33.9885 58.5127 33.632 58.5324 33.293 58.4485C31.6022 58.0283 29.9838 57.3574 28.4917 56.4581C28.1923 56.2775 27.9541 56.0113 27.8078 55.6938C27.6615 55.3762 27.6138 55.0221 27.6711 54.6773C27.8684 53.4761 27.5681 52.5559 27.0076 51.9938C26.4437 51.4316 25.5236 51.1313 24.3224 51.3303C23.9775 51.3875 23.6234 51.3399 23.3059 51.1936C22.9884 51.0473 22.7221 50.8091 22.5415 50.5097C21.6419 49.0165 20.971 47.3969 20.5512 45.7049C20.4672 45.3659 20.4869 45.0094 20.6077 44.6817C20.7284 44.3539 20.9447 44.07 21.2286 43.8664C22.2203 43.1576 22.6603 42.2951 22.6603 41.4989C22.6603 40.7045 22.2203 39.8403 21.2286 39.1315C20.9447 38.9279 20.7284 38.6439 20.6077 38.3162C20.4869 37.9885 20.4672 37.632 20.5512 37.293C20.9712 35.6016 21.6421 33.9826 22.5415 32.4899C22.7221 32.1906 22.9884 31.9523 23.3059 31.806C23.6234 31.6597 23.9775 31.6121 24.3224 31.6693C25.5236 31.8666 26.4437 31.5681 27.0059 31.0059C27.5681 30.4437 27.8684 29.5218 27.6693 28.3206C27.6125 27.976 27.6603 27.6223 27.8066 27.3051C27.9528 26.988 28.1909 26.722 28.4899 26.5415C29.9826 25.6421 31.6016 24.9712 33.293 24.5512C33.632 24.4672 33.9885 24.4869 34.3162 24.6077C34.6439 24.7284 34.9279 24.9447 35.1315 25.2286C35.8421 26.2185 36.7045 26.6603 37.5007 26.6603C38.2968 26.6603 39.1593 26.2185 39.8682 25.2286C40.0717 24.9447 40.3557 24.7284 40.6834 24.6077C41.0112 24.4869 41.3693 24.4672 41.7084 24.5512ZM37.5007 32.7693C35.1854 32.7693 32.965 33.689 31.3279 35.3261C29.6908 36.9633 28.771 39.1837 28.771 41.4989C28.771 43.8142 29.6908 46.0346 31.3279 47.6718C32.965 49.3089 35.1854 50.2286 37.5007 50.2286C39.8159 50.2286 42.0364 49.3089 43.6735 47.6718C45.3106 46.0346 46.2304 43.8142 46.2304 41.4989C46.2304 39.1837 45.3106 36.9633 43.6735 35.3261C42.0364 33.689 39.8159 32.7693 37.5007 32.7693ZM37.5007 36.2611C38.8898 36.2611 40.2221 36.813 41.2044 37.7953C42.1867 38.7775 42.7385 40.1098 42.7385 41.4989C42.7385 42.8881 42.1867 44.2204 41.2044 45.2026C40.2221 46.1849 38.8898 46.7367 37.5007 46.7367C36.1115 46.7367 34.7793 46.1849 33.797 45.2026C32.8147 44.2204 32.2629 42.8881 32.2629 41.4989C32.2629 40.1098 32.8147 38.7775 33.797 37.7953C34.7793 36.813 36.1115 36.2611 37.5007 36.2611Z" fill="white"/>
</g>
<defs>
<filter id="filter0_d_375_6665" x="11.5" y="21.5" width="52" height="52" filterUnits="userSpaceOnUse" color-interpolation-filters="sRGB">
<feFlood flood-opacity="0" result="BackgroundImageFix"/>
<feColorMatrix in="SourceAlpha" type="matrix" values="0 0 0 0 0 0 0 0 0 0 0 0 0 0 0 0 0 0 127 0" result="hardAlpha"/>
<feOffset dy="6"/>
<feGaussianBlur stdDeviation="4"/>
<feComposite in2="hardAlpha" operator="out"/>
<feColorMatrix type="matrix" values="0 0 0 0 0.118632 0 0 0 0 0.372589 0 0 0 0 0.812782 0 0 0 0.4 0"/>
<feBlend mode="normal" in2="BackgroundImageFix" result="effect1_dropShadow_375_6665"/>
<feBlend mode="normal" in="SourceGraphic" in2="effect1_dropShadow_375_6665" result="shape"/>
</filter>
<linearGradient id="paint0_linear_375_6665" x1="37.5" y1="76.5" x2="37.5" y2="6.5" gradientUnits="userSpaceOnUse">
<stop stop-color="#2D7AFF"/>
<stop offset="1" stop-color="#A6C7FF"/>
</linearGradient>
</defs>
</svg>
