<svg width="75" height="83" viewBox="0 0 75 83" fill="none" xmlns="http://www.w3.org/2000/svg">
<path d="M4.23082 18.4112L33.7236 1.50174C36.0554 0.166087 38.9393 0.166087 41.2764 1.50174L70.7692 18.4112C73.0795 19.7363 74.5 22.17 74.5 24.7991V58.2009C74.5 60.83 73.0795 63.2637 70.7692 64.5888L41.2764 81.4983C38.9446 82.8339 36.0607 82.8339 33.7236 81.4983L4.23082 64.5888C1.9205 63.2637 0.5 60.83 0.5 58.2009V24.7991C0.5 22.17 1.9205 19.7363 4.23082 18.4112Z" fill="#F7F7F5" fill-opacity="0.59" stroke="#8FB4F5" stroke-miterlimit="10"/>
<path d="M9.62658 21.788L34.337 7.355C36.2911 6.215 38.709 6.215 40.6631 7.355L65.3734 21.788C67.3067 22.9175 68.5 24.9936 68.5 27.2422V55.7578C68.5 58.0064 67.3119 60.0825 65.3734 61.212L40.6631 75.645C38.709 76.785 36.2911 76.785 34.337 75.645L9.62658 61.212C7.69331 60.0825 6.5 58.0064 6.5 55.7578V27.2422C6.5 24.9936 7.6881 22.9175 9.62658 21.788Z" fill="url(#paint0_linear_375_6685)"/>
<g filter="url(#filter0_d_375_6685)">
<path fill-rule="evenodd" clip-rule="evenodd" d="M20.5 25.7143C20.5 26.0363 20.6279 26.3452 20.8557 26.5729C21.0834 26.8006 21.3922 26.9286 21.7143 26.9286H53.2857C53.6078 26.9286 53.9166 26.8006 54.1443 26.5729C54.3721 26.3452 54.5 26.0363 54.5 25.7143C54.5 25.3922 54.3721 25.0834 54.1443 24.8557C53.9166 24.6279 53.6078 24.5 53.2857 24.5H21.7143C21.3922 24.5 21.0834 24.6279 20.8557 24.8557C20.6279 25.0834 20.5 25.3922 20.5 25.7143ZM20.5 57.2857C20.5 57.6078 20.6279 57.9166 20.8557 58.1443C21.0834 58.3721 21.3922 58.5 21.7143 58.5H53.2857C53.6078 58.5 53.9166 58.3721 54.1443 58.1443C54.3721 57.9166 54.5 57.6078 54.5 57.2857C54.5 56.9637 54.3721 56.6548 54.1443 56.4271C53.9166 56.1994 53.6078 56.0714 53.2857 56.0714H21.7143C21.3922 56.0714 21.0834 56.1994 20.8557 56.4271C20.6279 56.6548 20.5 56.9637 20.5 57.2857Z" fill="white"/>
<path d="M22.9286 39.0711C22.9286 38.4271 23.1845 37.8093 23.6399 37.3539C24.0953 36.8984 24.7131 36.6426 25.3572 36.6426H49.6429C50.287 36.6426 50.9047 36.8984 51.3601 37.3539C51.8156 37.8093 52.0714 38.4271 52.0714 39.0711V43.9283C52.0714 44.5724 51.8156 45.1901 51.3601 45.6456C50.9047 46.101 50.287 46.3569 49.6429 46.3569H25.3572C24.7131 46.3569 24.0953 46.101 23.6399 45.6456C23.1845 45.1901 22.9286 44.5724 22.9286 43.9283V39.0711Z" fill="white"/>
</g>
<defs>
<filter id="filter0_d_375_6685" x="11.5" y="21.5" width="52" height="52" filterUnits="userSpaceOnUse" color-interpolation-filters="sRGB">
<feFlood flood-opacity="0" result="BackgroundImageFix"/>
<feColorMatrix in="SourceAlpha" type="matrix" values="0 0 0 0 0 0 0 0 0 0 0 0 0 0 0 0 0 0 127 0" result="hardAlpha"/>
<feOffset dy="6"/>
<feGaussianBlur stdDeviation="4"/>
<feComposite in2="hardAlpha" operator="out"/>
<feColorMatrix type="matrix" values="0 0 0 0 0.118632 0 0 0 0 0.372589 0 0 0 0 0.812782 0 0 0 0.4 0"/>
<feBlend mode="normal" in2="BackgroundImageFix" result="effect1_dropShadow_375_6685"/>
<feBlend mode="normal" in="SourceGraphic" in2="effect1_dropShadow_375_6685" result="shape"/>
</filter>
<linearGradient id="paint0_linear_375_6685" x1="37.5" y1="76.5" x2="37.5" y2="6.5" gradientUnits="userSpaceOnUse">
<stop stop-color="#2D7AFF"/>
<stop offset="1" stop-color="#A6C7FF"/>
</linearGradient>
</defs>
</svg>
