<svg width="75" height="83" viewBox="0 0 75 83" fill="none" xmlns="http://www.w3.org/2000/svg">
<path d="M4.23082 18.4112L33.7236 1.50174C36.0554 0.166087 38.9393 0.166087 41.2764 1.50174L70.7692 18.4112C73.0795 19.7363 74.5 22.17 74.5 24.7991V58.2009C74.5 60.83 73.0795 63.2637 70.7692 64.5888L41.2764 81.4983C38.9446 82.8339 36.0607 82.8339 33.7236 81.4983L4.23082 64.5888C1.9205 63.2637 0.5 60.83 0.5 58.2009V24.7991C0.5 22.17 1.9205 19.7363 4.23082 18.4112Z" fill="#F7F7F5" fill-opacity="0.59" stroke="#8FB4F5" stroke-miterlimit="10"/>
<path d="M9.62658 21.788L34.337 7.355C36.2911 6.215 38.709 6.215 40.6631 7.355L65.3734 21.788C67.3067 22.9175 68.5 24.9936 68.5 27.2422V55.7578C68.5 58.0064 67.3119 60.0825 65.3734 61.212L40.6631 75.645C38.709 76.785 36.2911 76.785 34.337 75.645L9.62658 61.212C7.69331 60.0825 6.5 58.0064 6.5 55.7578V27.2422C6.5 24.9936 7.6881 22.9175 9.62658 21.788Z" fill="url(#paint0_linear_375_6675)"/>
<g filter="url(#filter0_d_375_6675)">
<path d="M48.5217 34.9855C50.8015 34.4344 52.5 32.3293 52.5 29.8125C52.5 26.8773 50.1879 24.5 47.3333 24.5C44.5304 24.5 42.2506 26.791 42.1667 29.6465L30.2962 34.534C29.3598 33.5844 28.081 33 26.6667 33C23.8121 33 21.5 35.3773 21.5 38.3125C21.5 41.2477 23.8121 43.625 26.6667 43.625C27.4546 43.625 28.2038 43.4457 28.869 43.1203L38.2723 51.5805C38.1173 52.0852 38.0333 52.6297 38.0333 53.1875C38.0333 56.1227 40.3454 58.5 43.2 58.5C46.0546 58.5 48.3667 56.1227 48.3667 53.1875C48.3667 51.348 47.4625 49.7277 46.0804 48.7781L48.5217 34.9855ZM31.5944 39.9195C31.7365 39.4613 31.8204 38.9766 31.8333 38.4785L43.7037 33.5977C43.9362 33.8301 44.1817 34.0426 44.4529 34.2285L42.0117 48.0145C41.6565 48.1008 41.3142 48.2203 40.9912 48.3797L31.5944 39.9195Z" fill="white"/>
</g>
<defs>
<filter id="filter0_d_375_6675" x="11.5" y="21.5" width="52" height="52" filterUnits="userSpaceOnUse" color-interpolation-filters="sRGB">
<feFlood flood-opacity="0" result="BackgroundImageFix"/>
<feColorMatrix in="SourceAlpha" type="matrix" values="0 0 0 0 0 0 0 0 0 0 0 0 0 0 0 0 0 0 127 0" result="hardAlpha"/>
<feOffset dy="6"/>
<feGaussianBlur stdDeviation="4"/>
<feComposite in2="hardAlpha" operator="out"/>
<feColorMatrix type="matrix" values="0 0 0 0 0.118632 0 0 0 0 0.372589 0 0 0 0 0.812782 0 0 0 0.4 0"/>
<feBlend mode="normal" in2="BackgroundImageFix" result="effect1_dropShadow_375_6675"/>
<feBlend mode="normal" in="SourceGraphic" in2="effect1_dropShadow_375_6675" result="shape"/>
</filter>
<linearGradient id="paint0_linear_375_6675" x1="37.5" y1="76.5" x2="37.5" y2="6.5" gradientUnits="userSpaceOnUse">
<stop stop-color="#2D7AFF"/>
<stop offset="1" stop-color="#A6C7FF"/>
</linearGradient>
</defs>
</svg>
