<svg width="75" height="83" viewBox="0 0 75 83" fill="none" xmlns="http://www.w3.org/2000/svg">
<path d="M4.23082 18.4112L33.7236 1.50174C36.0554 0.166087 38.9393 0.166087 41.2764 1.50174L70.7692 18.4112C73.0795 19.7363 74.5 22.17 74.5 24.7991V58.2009C74.5 60.83 73.0795 63.2637 70.7692 64.5888L41.2764 81.4983C38.9446 82.8339 36.0607 82.8339 33.7236 81.4983L4.23082 64.5888C1.9205 63.2637 0.5 60.83 0.5 58.2009V24.7991C0.5 22.17 1.9205 19.7363 4.23082 18.4112Z" fill="#F7F7F5" fill-opacity="0.59" stroke="#8FB4F5" stroke-miterlimit="10"/>
<path d="M9.62658 21.788L34.337 7.355C36.2911 6.215 38.709 6.215 40.6631 7.355L65.3734 21.788C67.3067 22.9175 68.5 24.9936 68.5 27.2422V55.7578C68.5 58.0064 67.3119 60.0825 65.3734 61.212L40.6631 75.645C38.709 76.785 36.2911 76.785 34.337 75.645L9.62658 61.212C7.69331 60.0825 6.5 58.0064 6.5 55.7578V27.2422C6.5 24.9936 7.6881 22.9175 9.62658 21.788Z" fill="url(#paint0_linear_386_2087)"/>
<g filter="url(#filter0_d_386_2087)">
<path fill-rule="evenodd" clip-rule="evenodd" d="M29.2588 27.7235C30.7902 26.1841 32.7413 25.1358 34.8651 24.7113C36.989 24.2868 39.1904 24.505 41.191 25.3384C43.1915 26.1718 44.9014 27.583 46.1044 29.3934C47.3073 31.2039 47.9494 33.3324 47.9494 35.5097C47.9494 36.8771 48.1698 38.1841 48.5254 39.5716C48.6156 39.8536 48.7132 40.1189 48.8184 40.3674C48.9612 40.7023 49.2492 40.9919 49.8001 41.3494C50.0155 41.4854 50.2359 41.6139 50.4864 41.7574L50.7193 41.8934C51.0549 42.0873 51.428 42.3139 51.7862 42.5808C53.0835 43.5453 53.5593 45.0311 53.4942 46.3707C53.4316 47.6727 52.8505 49.0325 51.7661 49.8534C51.6962 49.9076 51.6235 49.958 51.5482 50.0045C51.3665 50.1216 51.1775 50.2267 50.9822 50.3193C50.2355 50.6622 49.4571 50.9304 48.6581 51.1201C46.4793 51.6741 42.8704 52.2004 37 52.2004C31.1296 52.2004 27.5207 51.6741 25.3419 51.1201C24.5429 50.9304 23.7645 50.6622 23.0178 50.3193C22.7616 50.1977 22.5161 50.0545 22.284 49.8912L22.2339 49.8534C21.1495 49.0325 20.5709 47.6727 20.5058 46.3707C20.4407 45.0311 20.9165 43.5453 22.2138 42.5808C22.5577 42.3337 22.9138 42.1043 23.2807 41.8934L23.5136 41.7574C23.7641 41.6139 23.9845 41.4854 24.1999 41.3469C24.7508 40.9944 25.0388 40.7023 25.1791 40.3674C25.6875 39.1687 26.0506 37.5873 26.0506 35.5072C26.0506 32.5886 27.2052 29.7909 29.2563 27.726M34.0899 54.0538C33.8517 53.972 33.5946 53.9642 33.352 54.0315C33.1094 54.0988 32.8926 54.238 32.7299 54.431C32.5671 54.624 32.466 54.8618 32.4397 55.1134C32.4133 55.3651 32.463 55.6189 32.5822 55.8417C33.0101 56.645 33.6468 57.3165 34.4243 57.7846C35.2019 58.2528 36.0912 58.5 36.9975 58.5C37.9038 58.5 38.7931 58.2528 39.5706 57.7846C40.3482 57.3165 40.9849 56.645 41.4128 55.8417C41.5316 55.6191 41.5811 55.3657 41.5548 55.1144C41.5284 54.8631 41.4276 54.6257 41.2652 54.4328C41.1029 54.24 40.8866 54.1007 40.6445 54.0331C40.4024 53.9655 40.1456 53.9727 39.9076 54.0538C39.2715 54.2703 38.3349 54.4365 36.9975 54.4365C35.6601 54.4365 34.726 54.2703 34.0899 54.0538Z" fill="white"/>
</g>
<defs>
<filter id="filter0_d_386_2087" x="11.5" y="21.5" width="52" height="52" filterUnits="userSpaceOnUse" color-interpolation-filters="sRGB">
<feFlood flood-opacity="0" result="BackgroundImageFix"/>
<feColorMatrix in="SourceAlpha" type="matrix" values="0 0 0 0 0 0 0 0 0 0 0 0 0 0 0 0 0 0 127 0" result="hardAlpha"/>
<feOffset dy="6"/>
<feGaussianBlur stdDeviation="4"/>
<feComposite in2="hardAlpha" operator="out"/>
<feColorMatrix type="matrix" values="0 0 0 0 0.118632 0 0 0 0 0.372589 0 0 0 0 0.812782 0 0 0 0.4 0"/>
<feBlend mode="normal" in2="BackgroundImageFix" result="effect1_dropShadow_386_2087"/>
<feBlend mode="normal" in="SourceGraphic" in2="effect1_dropShadow_386_2087" result="shape"/>
</filter>
<linearGradient id="paint0_linear_386_2087" x1="37.5" y1="76.5" x2="37.5" y2="6.5" gradientUnits="userSpaceOnUse">
<stop stop-color="#2D7AFF"/>
<stop offset="1" stop-color="#A6C7FF"/>
</linearGradient>
</defs>
</svg>
