<svg width="676" height="467" viewBox="0 0 676 467" fill="none" xmlns="http://www.w3.org/2000/svg">
<g clip-path="url(#clip0_384_2847)">
<path d="M0 18C0 8.05887 8.05887 0 18 0H658C667.941 0 676 8.05888 676 18V467H0V18Z" fill="#A2C4FF"/>
<rect x="-176" y="-5.50391" width="965.259" height="594.006" fill="url(#paint0_linear_384_2847)"/>
<g filter="url(#filter0_d_384_2847)">
<rect x="155.149" y="40" width="480.851" height="346.512" rx="10" fill="white"/>
<rect x="155.553" y="40.404" width="480.043" height="345.704" rx="9.59599" stroke="#E9EAEB" stroke-width="0.808026"/>
<path d="M181.881 78.3242H177.692V65.9606H181.966C183.193 65.9606 184.248 66.2081 185.129 66.7031C186.015 67.1941 186.695 67.9004 187.17 68.8221C187.645 69.7437 187.882 70.8465 187.882 72.1303C187.882 73.4182 187.643 74.525 187.164 75.4506C186.689 76.3763 186.002 77.0866 185.105 77.5817C184.212 78.0767 183.137 78.3242 181.881 78.3242ZM179.931 76.3864H181.773C182.634 76.3864 183.352 76.2294 183.928 75.9155C184.503 75.5975 184.936 75.1246 185.226 74.4968C185.515 73.8649 185.66 73.0761 185.66 72.1303C185.66 71.1845 185.515 70.3997 185.226 69.7759C184.936 69.1481 184.507 68.6792 183.94 68.3693C183.376 68.0554 182.676 67.8984 181.839 67.8984H179.931V76.3864ZM194.019 78.5053C193.089 78.5053 192.286 78.3121 191.61 77.9258C190.938 77.5354 190.42 76.984 190.058 76.2717C189.696 75.5553 189.515 74.7121 189.515 73.7422C189.515 72.7884 189.696 71.9512 190.058 71.2308C190.425 70.5064 190.936 69.9429 191.592 69.5405C192.248 69.134 193.018 68.9308 193.904 68.9308C194.475 68.9308 195.015 69.0233 195.522 69.2085C196.033 69.3896 196.484 69.6713 196.874 70.0536C197.268 70.436 197.578 70.9229 197.804 71.5146C198.029 72.1022 198.142 72.8024 198.142 73.6154V74.2855H190.541V72.8125H196.047C196.043 72.3939 195.952 72.0217 195.775 71.6957C195.598 71.3656 195.351 71.1061 195.033 70.9169C194.719 70.7277 194.353 70.6332 193.934 70.6332C193.487 70.6332 193.095 70.7418 192.757 70.9592C192.419 71.1725 192.155 71.4542 191.966 71.8043C191.781 72.1504 191.686 72.5308 191.682 72.9453V74.2312C191.682 74.7705 191.781 75.2333 191.978 75.6197C192.175 76.002 192.451 76.2958 192.805 76.5011C193.159 76.7023 193.574 76.8029 194.049 76.8029C194.367 76.8029 194.654 76.7586 194.912 76.6701C195.17 76.5775 195.393 76.4427 195.582 76.2656C195.771 76.0885 195.914 75.8692 196.011 75.6076L198.051 75.837C197.922 76.3763 197.677 76.8472 197.315 77.2496C196.956 77.6481 196.498 77.958 195.938 78.1793C195.379 78.3967 194.739 78.5053 194.019 78.5053ZM199.991 81.8015V69.0515H202.14V70.5849H202.266C202.379 70.3595 202.538 70.12 202.743 69.8665C202.949 69.6089 203.226 69.3896 203.576 69.2085C203.927 69.0233 204.373 68.9308 204.917 68.9308C205.633 68.9308 206.279 69.1139 206.855 69.4801C207.434 69.8423 207.893 70.3796 208.231 71.092C208.573 71.8003 208.744 72.6696 208.744 73.6999C208.744 74.7182 208.577 75.5835 208.243 76.2958C207.909 77.0082 207.454 77.5515 206.879 77.9258C206.303 78.3001 205.651 78.4872 204.923 78.4872C204.391 78.4872 203.951 78.3987 203.601 78.2216C203.25 78.0445 202.969 77.8312 202.755 77.5817C202.546 77.3281 202.383 77.0887 202.266 76.8633H202.176V81.8015H199.991ZM202.134 73.6879C202.134 74.2875 202.218 74.8127 202.387 75.2635C202.56 75.7143 202.808 76.0664 203.13 76.32C203.456 76.5695 203.85 76.6942 204.313 76.6942C204.796 76.6942 205.2 76.5655 205.526 76.3079C205.852 76.0463 206.098 75.6901 206.263 75.2393C206.432 74.7846 206.516 74.2674 206.516 73.6879C206.516 73.1123 206.434 72.6012 206.269 72.1545C206.104 71.7077 205.858 71.3576 205.532 71.104C205.206 70.8505 204.8 70.7237 204.313 70.7237C203.846 70.7237 203.45 70.8465 203.124 71.092C202.798 71.3375 202.55 71.6816 202.381 72.1243C202.216 72.567 202.134 73.0882 202.134 73.6879ZM212.801 65.9606V78.3242H210.616V65.9606H212.801ZM219.093 78.5053C218.187 78.5053 217.403 78.3061 216.739 77.9077C216.074 77.5092 215.559 76.9518 215.193 76.2354C214.831 75.5191 214.65 74.6819 214.65 73.7241C214.65 72.7662 214.831 71.9271 215.193 71.2067C215.559 70.4863 216.074 69.9268 216.739 69.5284C217.403 69.13 218.187 68.9308 219.093 68.9308C219.998 68.9308 220.783 69.13 221.447 69.5284C222.111 69.9268 222.625 70.4863 222.987 71.2067C223.353 71.9271 223.536 72.7662 223.536 73.7241C223.536 74.6819 223.353 75.5191 222.987 76.2354C222.625 76.9518 222.111 77.5092 221.447 77.9077C220.783 78.3061 219.998 78.5053 219.093 78.5053ZM219.105 76.7546C219.596 76.7546 220.006 76.6198 220.337 76.3501C220.667 76.0765 220.912 75.7102 221.073 75.2514C221.238 74.7926 221.321 74.2815 221.321 73.718C221.321 73.1506 221.238 72.6374 221.073 72.1786C220.912 71.7158 220.667 71.3475 220.337 71.0739C220.006 70.8002 219.596 70.6634 219.105 70.6634C218.602 70.6634 218.183 70.8002 217.849 71.0739C217.519 71.3475 217.272 71.7158 217.107 72.1786C216.946 72.6374 216.865 73.1506 216.865 73.718C216.865 74.2815 216.946 74.7926 217.107 75.2514C217.272 75.7102 217.519 76.0765 217.849 76.3501C218.183 76.6198 218.602 76.7546 219.105 76.7546ZM226.434 81.8015C226.136 81.8015 225.86 81.7773 225.607 81.729C225.357 81.6848 225.158 81.6325 225.009 81.5721L225.516 79.8697C225.834 79.9622 226.118 80.0065 226.367 80.0025C226.617 79.9985 226.836 79.92 227.025 79.767C227.219 79.6181 227.382 79.3686 227.514 79.0185L227.702 78.5174L224.339 69.0515H226.657L228.794 76.0543H228.891L231.034 69.0515H233.358L229.645 79.4471C229.472 79.9381 229.243 80.3587 228.957 80.7088C228.672 81.063 228.321 81.3326 227.907 81.5178C227.496 81.7069 227.005 81.8015 226.434 81.8015ZM234.87 78.3242V69.0515H236.959V70.6271H237.068C237.261 70.0959 237.581 69.6813 238.028 69.3835C238.474 69.0817 239.008 68.9308 239.628 68.9308C240.255 68.9308 240.785 69.0837 241.215 69.3896C241.65 69.6914 241.956 70.1039 242.133 70.6271H242.229C242.435 70.112 242.781 69.7015 243.268 69.3956C243.759 69.0857 244.34 68.9308 245.012 68.9308C245.866 68.9308 246.562 69.2004 247.101 69.7397C247.641 70.279 247.91 71.0658 247.91 72.1001V78.3242H245.719V72.4382C245.719 71.8627 245.566 71.4421 245.26 71.1765C244.954 70.9068 244.58 70.772 244.137 70.772C243.61 70.772 243.197 70.937 242.9 71.267C242.606 71.593 242.459 72.0176 242.459 72.5408V78.3242H240.316V72.3477C240.316 71.8687 240.171 71.4864 239.881 71.2006C239.595 70.9149 239.221 70.772 238.758 70.772C238.444 70.772 238.159 70.8525 237.901 71.0135C237.643 71.1705 237.438 71.3938 237.285 71.6836C237.132 71.9693 237.056 72.3034 237.056 72.6857V78.3242H234.87ZM254.232 78.5053C253.303 78.5053 252.5 78.3121 251.824 77.9258C251.152 77.5354 250.634 76.984 250.272 76.2717C249.91 75.5553 249.729 74.7121 249.729 73.7422C249.729 72.7884 249.91 71.9512 250.272 71.2308C250.638 70.5064 251.15 69.9429 251.806 69.5405C252.462 69.134 253.232 68.9308 254.118 68.9308C254.689 68.9308 255.228 69.0233 255.736 69.2085C256.247 69.3896 256.697 69.6713 257.088 70.0536C257.482 70.436 257.792 70.9229 258.018 71.5146C258.243 72.1022 258.356 72.8024 258.356 73.6154V74.2855H250.755V72.8125H256.261C256.257 72.3939 256.166 72.0217 255.989 71.6957C255.812 71.3656 255.565 71.1061 255.247 70.9169C254.933 70.7277 254.566 70.6332 254.148 70.6332C253.701 70.6332 253.309 70.7418 252.971 70.9592C252.633 71.1725 252.369 71.4542 252.18 71.8043C251.995 72.1504 251.9 72.5308 251.896 72.9453V74.2312C251.896 74.7705 251.995 75.2333 252.192 75.6197C252.389 76.002 252.665 76.2958 253.019 76.5011C253.373 76.7023 253.788 76.8029 254.263 76.8029C254.581 76.8029 254.868 76.7586 255.126 76.6701C255.383 76.5775 255.607 76.4427 255.796 76.2656C255.985 76.0885 256.128 75.8692 256.225 75.6076L258.265 75.837C258.136 76.3763 257.891 76.8472 257.529 77.2496C257.17 77.6481 256.712 77.958 256.152 78.1793C255.593 78.3967 254.953 78.5053 254.232 78.5053ZM262.39 72.891V78.3242H260.204V69.0515H262.293V70.6271H262.402C262.615 70.108 262.955 69.6954 263.422 69.3896C263.893 69.0837 264.475 68.9308 265.167 68.9308C265.807 68.9308 266.364 69.0676 266.839 69.3413C267.318 69.6149 267.688 70.0114 267.95 70.5305C268.215 71.0497 268.346 71.6796 268.342 72.4201V78.3242H266.157V72.7582C266.157 72.1384 265.996 71.6534 265.674 71.3033C265.356 70.9531 264.915 70.7781 264.352 70.7781C263.969 70.7781 263.629 70.8626 263.332 71.0316C263.038 71.1966 262.806 71.4361 262.637 71.75C262.472 72.0639 262.39 72.4442 262.39 72.891ZM275.194 69.0515V70.7418H269.864V69.0515H275.194ZM271.18 66.8299H273.365V75.5352C273.365 75.829 273.409 76.0543 273.498 76.2113C273.59 76.3642 273.711 76.4689 273.86 76.5252C274.009 76.5816 274.174 76.6097 274.355 76.6097C274.492 76.6097 274.617 76.5997 274.729 76.5795C274.846 76.5594 274.935 76.5413 274.995 76.5252L275.363 78.2337C275.246 78.2739 275.079 78.3182 274.862 78.3665C274.649 78.4148 274.387 78.4429 274.077 78.451C273.53 78.4671 273.037 78.3846 272.598 78.2035C272.16 78.0183 271.811 77.7326 271.554 77.3462C271.3 76.9599 271.176 76.4769 271.18 75.8974V66.8299ZM284.218 71.5025L282.226 71.7198C282.169 71.5186 282.071 71.3294 281.93 71.1523C281.793 70.9753 281.608 70.8324 281.374 70.7237C281.141 70.6151 280.855 70.5607 280.517 70.5607C280.062 70.5607 279.68 70.6593 279.37 70.8565C279.064 71.0537 278.913 71.3093 278.917 71.6232C278.913 71.8929 279.012 72.1122 279.213 72.2812C279.418 72.4503 279.757 72.5891 280.227 72.6978L281.809 73.0359C282.686 73.225 283.338 73.5249 283.765 73.9354C284.196 74.3459 284.413 74.8832 284.417 75.5472C284.413 76.1308 284.242 76.646 283.904 77.0927C283.57 77.5354 283.105 77.8815 282.509 78.131C281.914 78.3806 281.23 78.5053 280.457 78.5053C279.322 78.5053 278.408 78.2679 277.716 77.793C277.024 77.314 276.611 76.648 276.478 75.7947L278.61 75.5895C278.706 76.008 278.911 76.324 279.225 76.5373C279.539 76.7506 279.948 76.8572 280.451 76.8572C280.97 76.8572 281.386 76.7506 281.7 76.5373C282.018 76.324 282.177 76.0604 282.177 75.7464C282.177 75.4808 282.075 75.2615 281.869 75.0884C281.668 74.9154 281.354 74.7826 280.928 74.69L279.346 74.358C278.457 74.1728 277.799 73.8609 277.372 73.4222C276.945 72.9795 276.734 72.4201 276.738 71.744C276.734 71.1725 276.889 70.6774 277.203 70.2589C277.521 69.8363 277.962 69.5103 278.525 69.2809C279.092 69.0475 279.746 68.9308 280.487 68.9308C281.574 68.9308 282.429 69.1622 283.053 69.625C283.681 70.0878 284.069 70.7137 284.218 71.5025ZM290.979 72.1424C290.979 70.6332 291.178 69.2467 291.577 67.983C291.979 66.7152 292.577 65.544 293.37 64.4695H295.428C295.123 64.8679 294.837 65.3569 294.571 65.9364C294.306 66.512 294.074 67.1438 293.877 67.832C293.684 68.5162 293.531 69.2266 293.418 69.9631C293.309 70.6996 293.255 71.426 293.255 72.1424C293.255 73.0962 293.35 74.0621 293.539 75.0401C293.732 76.0181 293.992 76.9257 294.318 77.7628C294.648 78.5959 295.018 79.2781 295.428 79.8093H293.37C292.577 78.7347 291.979 77.5656 291.577 76.3018C291.178 75.0341 290.979 73.6476 290.979 72.1424ZM297.223 78.3242V65.9606H299.463V76.4467H304.908V78.3242H297.223ZM309.424 78.5114C308.836 78.5114 308.307 78.4067 307.836 78.1974C307.369 77.9841 306.999 77.6702 306.725 77.2557C306.455 76.8411 306.321 76.33 306.321 75.7223C306.321 75.1991 306.417 74.7665 306.61 74.4244C306.803 74.0823 307.067 73.8086 307.401 73.6033C307.735 73.3981 308.111 73.2431 308.53 73.1385C308.953 73.0298 309.389 72.9513 309.84 72.9031C310.383 72.8467 310.824 72.7964 311.162 72.7521C311.5 72.7038 311.746 72.6314 311.899 72.5348C312.056 72.4342 312.134 72.2792 312.134 72.07V72.0337C312.134 71.579 311.999 71.2268 311.73 70.9773C311.46 70.7277 311.072 70.603 310.564 70.603C310.029 70.603 309.605 70.7197 309.291 70.9531C308.981 71.1866 308.772 71.4622 308.663 71.7802L306.622 71.4904C306.783 70.927 307.049 70.4561 307.419 70.0778C307.79 69.6954 308.242 69.4097 308.778 69.2205C309.313 69.0273 309.904 68.9308 310.552 68.9308C310.999 68.9308 311.444 68.9831 311.887 69.0877C312.329 69.1924 312.734 69.3654 313.1 69.6069C313.466 69.8443 313.76 70.1683 313.981 70.5788C314.207 70.9893 314.319 71.5025 314.319 72.1183V78.3242H312.219V77.0504H312.146C312.013 77.308 311.826 77.5495 311.585 77.7749C311.347 77.9962 311.047 78.1753 310.685 78.3121C310.327 78.445 309.906 78.5114 309.424 78.5114ZM309.991 76.9055C310.43 76.9055 310.81 76.819 311.132 76.646C311.454 76.4689 311.701 76.2354 311.875 75.9457C312.052 75.6559 312.14 75.34 312.14 74.9979V73.9052C312.072 73.9615 311.955 74.0138 311.79 74.0621C311.629 74.1104 311.448 74.1527 311.247 74.1889C311.045 74.2251 310.846 74.2573 310.649 74.2855C310.452 74.3137 310.281 74.3378 310.136 74.358C309.81 74.4022 309.518 74.4747 309.261 74.5753C309.003 74.6759 308.8 74.8168 308.651 74.9979C308.502 75.175 308.427 75.4044 308.427 75.6861C308.427 76.0885 308.574 76.3924 308.868 76.5977C309.162 76.8029 309.536 76.9055 309.991 76.9055ZM323.846 71.5025L321.854 71.7198C321.797 71.5186 321.699 71.3294 321.558 71.1523C321.421 70.9753 321.236 70.8324 321.002 70.7237C320.769 70.6151 320.483 70.5607 320.145 70.5607C319.69 70.5607 319.308 70.6593 318.998 70.8565C318.692 71.0537 318.541 71.3093 318.545 71.6232C318.541 71.8929 318.64 72.1122 318.841 72.2812C319.046 72.4503 319.384 72.5891 319.855 72.6978L321.437 73.0359C322.314 73.225 322.966 73.5249 323.393 73.9354C323.824 74.3459 324.041 74.8832 324.045 75.5472C324.041 76.1308 323.87 76.646 323.532 77.0927C323.198 77.5354 322.733 77.8815 322.137 78.131C321.542 78.3806 320.857 78.5053 320.085 78.5053C318.95 78.5053 318.036 78.2679 317.344 77.793C316.652 77.314 316.239 76.648 316.106 75.7947L318.237 75.5895C318.334 76.008 318.539 76.324 318.853 76.5373C319.167 76.7506 319.576 76.8572 320.079 76.8572C320.598 76.8572 321.014 76.7506 321.328 76.5373C321.646 76.324 321.805 76.0604 321.805 75.7464C321.805 75.4808 321.703 75.2615 321.497 75.0884C321.296 74.9154 320.982 74.7826 320.556 74.69L318.974 74.358C318.085 74.1728 317.426 73.8609 317 73.4222C316.573 72.9795 316.362 72.4201 316.366 71.744C316.362 71.1725 316.517 70.6774 316.831 70.2589C317.149 69.8363 317.589 69.5103 318.153 69.2809C318.72 69.0475 319.374 68.9308 320.115 68.9308C321.202 68.9308 322.057 69.1622 322.681 69.625C323.308 70.0878 323.697 70.7137 323.846 71.5025ZM330.477 69.0515V70.7418H325.147V69.0515H330.477ZM326.463 66.8299H328.648V75.5352C328.648 75.829 328.692 76.0543 328.781 76.2113C328.874 76.3642 328.994 76.4689 329.143 76.5252C329.292 76.5816 329.457 76.6097 329.638 76.6097C329.775 76.6097 329.9 76.5997 330.012 76.5795C330.129 76.5594 330.218 76.5413 330.278 76.5252L330.646 78.2337C330.53 78.2739 330.363 78.3182 330.145 78.3665C329.932 78.4148 329.67 78.4429 329.36 78.451C328.813 78.4671 328.32 78.3846 327.881 78.2035C327.443 78.0183 327.095 77.7326 326.837 77.3462C326.583 76.9599 326.459 76.4769 326.463 75.8974V66.8299ZM341.526 65.9606V78.3242H339.287V68.1399H339.214L336.323 69.9872V67.9347L339.395 65.9606H341.526ZM344.442 76.0302V74.2493L349.688 65.9606H351.173V68.4961H350.268L346.736 74.0923V74.1889H354.059V76.0302H344.442ZM350.34 78.3242V75.4869L350.364 74.69V65.9606H352.477V78.3242H350.34ZM364.515 78.3242H360.325V65.9606H364.6C365.827 65.9606 366.882 66.2081 367.763 66.7031C368.648 67.1941 369.328 67.9004 369.803 68.8221C370.278 69.7437 370.516 70.8465 370.516 72.1303C370.516 73.4182 370.276 74.525 369.797 75.4506C369.322 76.3763 368.636 77.0866 367.739 77.5817C366.845 78.0767 365.771 78.3242 364.515 78.3242ZM362.565 76.3864H364.406C365.268 76.3864 365.986 76.2294 366.562 75.9155C367.137 75.5975 367.57 75.1246 367.86 74.4968C368.149 73.8649 368.294 73.0761 368.294 72.1303C368.294 71.1845 368.149 70.3997 367.86 69.7759C367.57 69.1481 367.141 68.6792 366.574 68.3693C366.01 68.0554 365.31 67.8984 364.473 67.8984H362.565V76.3864ZM375.216 78.5114C374.628 78.5114 374.099 78.4067 373.628 78.1974C373.161 77.9841 372.791 77.6702 372.517 77.2557C372.247 76.8411 372.113 76.33 372.113 75.7223C372.113 75.1991 372.209 74.7665 372.402 74.4244C372.595 74.0823 372.859 73.8086 373.193 73.6033C373.527 73.3981 373.903 73.2431 374.322 73.1385C374.745 73.0298 375.181 72.9513 375.632 72.9031C376.175 72.8467 376.616 72.7964 376.954 72.7521C377.292 72.7038 377.538 72.6314 377.691 72.5348C377.848 72.4342 377.926 72.2792 377.926 72.07V72.0337C377.926 71.579 377.791 71.2268 377.522 70.9773C377.252 70.7277 376.864 70.603 376.356 70.603C375.821 70.603 375.397 70.7197 375.083 70.9531C374.773 71.1866 374.564 71.4622 374.455 71.7802L372.414 71.4904C372.575 70.927 372.841 70.4561 373.211 70.0778C373.582 69.6954 374.034 69.4097 374.57 69.2205C375.105 69.0273 375.696 68.9308 376.344 68.9308C376.791 68.9308 377.236 68.9831 377.679 69.0877C378.121 69.1924 378.526 69.3654 378.892 69.6069C379.258 69.8443 379.552 70.1683 379.773 70.5788C379.999 70.9893 380.111 71.5025 380.111 72.1183V78.3242H378.011V77.0504H377.938C377.805 77.308 377.618 77.5495 377.377 77.7749C377.139 77.9962 376.839 78.1753 376.477 78.3121C376.119 78.445 375.698 78.5114 375.216 78.5114ZM375.783 76.9055C376.222 76.9055 376.602 76.819 376.924 76.646C377.246 76.4689 377.493 76.2354 377.667 75.9457C377.844 75.6559 377.932 75.34 377.932 74.9979V73.9052C377.864 73.9615 377.747 74.0138 377.582 74.0621C377.421 74.1104 377.24 74.1527 377.039 74.1889C376.837 74.2251 376.638 74.2573 376.441 74.2855C376.244 74.3137 376.073 74.3378 375.928 74.358C375.602 74.4022 375.31 74.4747 375.053 74.5753C374.795 74.6759 374.592 74.8168 374.443 74.9979C374.294 75.175 374.219 75.4044 374.219 75.6861C374.219 76.0885 374.366 76.3924 374.66 76.5977C374.954 76.8029 375.328 76.9055 375.783 76.9055ZM383.335 81.8015C383.037 81.8015 382.762 81.7773 382.508 81.729C382.259 81.6848 382.059 81.6325 381.91 81.5721L382.418 79.8697C382.736 79.9622 383.019 80.0065 383.269 80.0025C383.518 79.9985 383.738 79.92 383.927 79.767C384.12 79.6181 384.283 79.3686 384.416 79.0185L384.603 78.5174L381.24 69.0515H383.559L385.696 76.0543H385.792L387.935 69.0515H390.26L386.547 79.4471C386.374 79.9381 386.144 80.3587 385.859 80.7088C385.573 81.063 385.223 81.3326 384.808 81.5178C384.398 81.7069 383.907 81.8015 383.335 81.8015ZM399.101 71.5025L397.108 71.7198C397.052 71.5186 396.953 71.3294 396.813 71.1523C396.676 70.9753 396.491 70.8324 396.257 70.7237C396.024 70.6151 395.738 70.5607 395.4 70.5607C394.945 70.5607 394.563 70.6593 394.253 70.8565C393.947 71.0537 393.796 71.3093 393.8 71.6232C393.796 71.8929 393.895 72.1122 394.096 72.2812C394.301 72.4503 394.639 72.5891 395.11 72.6978L396.692 73.0359C397.569 73.225 398.221 73.5249 398.648 73.9354C399.078 74.3459 399.296 74.8832 399.3 75.5472C399.296 76.1308 399.125 76.646 398.787 77.0927C398.453 77.5354 397.988 77.8815 397.392 78.131C396.797 78.3806 396.112 78.5053 395.34 78.5053C394.205 78.5053 393.291 78.2679 392.599 77.793C391.907 77.314 391.494 76.648 391.361 75.7947L393.492 75.5895C393.589 76.008 393.794 76.324 394.108 76.5373C394.422 76.7506 394.831 76.8572 395.334 76.8572C395.853 76.8572 396.269 76.7506 396.583 76.5373C396.901 76.324 397.06 76.0604 397.06 75.7464C397.06 75.4808 396.958 75.2615 396.752 75.0884C396.551 74.9154 396.237 74.7826 395.811 74.69L394.229 74.358C393.339 74.1728 392.681 73.8609 392.255 73.4222C391.828 72.9795 391.617 72.4201 391.621 71.744C391.617 71.1725 391.772 70.6774 392.086 70.2589C392.404 69.8363 392.844 69.5103 393.408 69.2809C393.975 69.0475 394.629 68.9308 395.37 68.9308C396.456 68.9308 397.312 69.1622 397.936 69.625C398.563 70.0878 398.952 70.7137 399.101 71.5025ZM405.002 73.2834C405.002 74.7886 404.801 76.1751 404.398 77.4428C404 78.7066 403.404 79.8757 402.611 80.9503H400.553C400.862 80.5518 401.148 80.0649 401.41 79.4893C401.675 78.9138 401.905 78.282 402.098 77.5938C402.295 76.9055 402.448 76.1932 402.557 75.4567C402.669 74.7202 402.726 73.9957 402.726 73.2834C402.726 72.3295 402.629 71.3636 402.436 70.3857C402.247 69.4077 401.987 68.5001 401.657 67.663C401.331 66.8259 400.963 66.1417 400.553 65.6104H402.611C403.404 66.685 404 67.8562 404.398 69.1239C404.801 70.3877 405.002 71.7741 405.002 73.2834Z" fill="#181D27"/>
<path d="M176.472 115.32V354.892H613.727" stroke="#E9EAEB" stroke-width="1.06619"/>
<path d="M176.472 115.7V355.272" stroke="#E9EAEB" stroke-width="1.06619"/>
<path d="M231.115 115.7V355.272" stroke="#E9EAEB" stroke-width="1.06619"/>
<path d="M285.756 115.7V355.272" stroke="#E9EAEB" stroke-width="1.06619"/>
<path d="M340.398 115.7V355.272" stroke="#E9EAEB" stroke-width="1.06619"/>
<path d="M395.041 115.7V355.272" stroke="#E9EAEB" stroke-width="1.06619"/>
<path d="M449.683 115.7V355.272" stroke="#E9EAEB" stroke-width="1.06619"/>
<path d="M504.325 115.7V355.272" stroke="#E9EAEB" stroke-width="1.06619"/>
<path d="M558.967 115.7V355.272" stroke="#E9EAEB" stroke-width="1.06619"/>
<path d="M613.61 115.7V355.272" stroke="#E9EAEB" stroke-width="1.06619"/>
<path d="M247.805 309.908L187.513 350.699H613.727V135.283L563.829 164.601L497.298 252.55L461.954 192.641L414.135 221.958L368.395 283.141L330.971 252.55L247.805 309.908Z" fill="url(#paint1_linear_384_2847)"/>
<path d="M187.513 350.699L247.805 309.908L330.971 252.55L368.395 283.141L414.135 221.958L461.954 192.641L497.298 252.55L563.829 164.601L613.727 135.283" stroke="#2D7AFF" stroke-width="3.19857"/>
</g>
<g filter="url(#filter1_d_384_2847)">
<rect x="40" y="180.738" width="327.32" height="314.526" rx="10" fill="white"/>
<g clip-path="url(#clip1_384_2847)">
<path d="M208.648 257.522V371.94L201.031 366.406L119.964 307.512L116.082 304.69L118.903 300.809C139.33 272.705 169.107 257.523 203.851 257.522H208.648Z" fill="#AAC9FF" stroke="white" stroke-width="9.59571" stroke-miterlimit="10"/>
<path d="M125.603 299.747L206.669 358.642L212.012 362.523L206.669 366.405L125.603 425.3L121.72 428.12L118.9 424.237C91.6612 386.736 91.6603 338.3 118.9 300.809L121.721 296.928L125.603 299.747Z" fill="#8ECFE3" stroke="white" stroke-width="9.59571" stroke-miterlimit="10"/>
<path d="M207.732 359.702L266.627 440.77L269.447 444.651L265.565 447.471C218.655 481.55 152.983 471.16 118.902 424.236L116.083 420.354L119.964 417.535L201.031 358.641L204.913 355.821L207.732 359.702Z" fill="#FFDD94" stroke="white" stroke-width="9.59571" stroke-miterlimit="10"/>
<path d="M203.85 257.522C261.845 257.522 308.852 304.529 308.852 362.524C308.852 397.268 293.669 427.056 265.564 447.473L261.683 450.293L258.863 446.411L199.968 365.344L199.052 364.083V257.522H203.85Z" fill="#2D7AFF" stroke="white" stroke-width="9.59571" stroke-miterlimit="10"/>
</g>
<circle cx="203.658" cy="362.522" r="69.6272" fill="white"/>
<path d="M69.2618 210.096C69.2055 209.568 68.968 209.158 68.5494 208.864C68.1349 208.57 67.5956 208.423 66.9316 208.423C66.4647 208.423 66.0642 208.494 65.7302 208.635C65.3962 208.776 65.1406 208.967 64.9635 209.208C64.7864 209.45 64.6959 209.725 64.6919 210.035C64.6919 210.293 64.7502 210.516 64.8669 210.705C64.9877 210.895 65.1507 211.056 65.3559 211.188C65.5612 211.317 65.7886 211.426 66.0381 211.514C66.2876 211.603 66.5392 211.677 66.7927 211.738L67.9518 212.028C68.4186 212.136 68.8674 212.283 69.298 212.468C69.7327 212.653 70.1211 212.887 70.4632 213.169C70.8093 213.45 71.0829 213.79 71.2842 214.189C71.4854 214.587 71.586 215.054 71.586 215.589C71.586 216.314 71.4009 216.952 71.0306 217.503C70.6604 218.05 70.1251 218.479 69.4248 218.789C68.7285 219.095 67.8854 219.248 66.8953 219.248C65.9334 219.248 65.0983 219.099 64.39 218.801C63.6857 218.503 63.1343 218.068 62.7359 217.497C62.3415 216.925 62.1282 216.229 62.096 215.408H64.2994C64.3316 215.839 64.4645 216.197 64.6979 216.483C64.9313 216.769 65.2352 216.982 65.6095 217.123C65.9878 217.264 66.4104 217.334 66.8772 217.334C67.3642 217.334 67.7908 217.262 68.157 217.117C68.5273 216.968 68.8171 216.762 69.0264 216.501C69.2356 216.235 69.3423 215.925 69.3463 215.571C69.3423 215.249 69.2477 214.984 69.0626 214.774C68.8775 214.561 68.6179 214.384 68.2838 214.243C67.9538 214.098 67.5674 213.969 67.1247 213.857L65.7181 213.494C64.6999 213.233 63.895 212.836 63.3034 212.305C62.7158 211.77 62.422 211.06 62.422 210.174C62.422 209.446 62.6192 208.808 63.0136 208.26C63.412 207.713 63.9533 207.289 64.6375 206.987C65.3217 206.681 66.0964 206.528 66.9617 206.528C67.8391 206.528 68.6078 206.681 69.2678 206.987C69.9319 207.289 70.4531 207.709 70.8314 208.248C71.2097 208.784 71.4049 209.399 71.417 210.096H69.2618ZM77.5913 219.242C76.6616 219.242 75.8587 219.048 75.1825 218.662C74.5104 218.272 73.9933 217.72 73.631 217.008C73.2688 216.292 73.0877 215.448 73.0877 214.479C73.0877 213.525 73.2688 212.688 73.631 211.967C73.9973 211.243 74.5084 210.679 75.1644 210.277C75.8204 209.87 76.5911 209.667 77.4766 209.667C78.0481 209.667 78.5874 209.76 79.0945 209.945C79.6056 210.126 80.0563 210.408 80.4467 210.79C80.8411 211.172 81.151 211.659 81.3764 212.251C81.6018 212.838 81.7145 213.539 81.7145 214.352V215.022H74.114V213.549H79.6197C79.6156 213.13 79.5251 212.758 79.348 212.432C79.1709 212.102 78.9234 211.842 78.6055 211.653C78.2915 211.464 77.9253 211.369 77.5067 211.369C77.06 211.369 76.6676 211.478 76.3295 211.695C75.9915 211.909 75.7279 212.191 75.5387 212.541C75.3536 212.887 75.259 213.267 75.255 213.682V214.968C75.255 215.507 75.3536 215.97 75.5508 216.356C75.748 216.738 76.0237 217.032 76.3778 217.237C76.732 217.439 77.1465 217.539 77.6214 217.539C77.9394 217.539 78.2272 217.495 78.4847 217.406C78.7423 217.314 78.9657 217.179 79.1548 217.002C79.344 216.825 79.4869 216.606 79.5835 216.344L81.6239 216.573C81.4951 217.113 81.2496 217.584 80.8874 217.986C80.5292 218.384 80.0704 218.694 79.511 218.916C78.9516 219.133 78.3117 219.242 77.5913 219.242ZM83.5633 219.061V209.788H85.6823V211.333H85.7789C85.9479 210.798 86.2377 210.385 86.6482 210.096C87.0627 209.802 87.5356 209.655 88.0669 209.655C88.1876 209.655 88.3224 209.661 88.4713 209.673C88.6243 209.681 88.751 209.695 88.8517 209.715V211.726C88.7591 211.693 88.6122 211.665 88.411 211.641C88.2137 211.613 88.0226 211.599 87.8374 211.599C87.439 211.599 87.0808 211.685 86.7629 211.858C86.449 212.028 86.2014 212.263 86.0203 212.565C85.8392 212.867 85.7487 213.215 85.7487 213.609V219.061H83.5633ZM98.8684 209.788L95.5662 219.061H93.1515L89.8493 209.788H92.1795L94.3105 216.676H94.4071L96.5442 209.788H98.8684ZM100.381 219.061V209.788H102.566V219.061H100.381ZM101.479 208.472C101.133 208.472 100.835 208.357 100.586 208.128C100.336 207.894 100.212 207.615 100.212 207.289C100.212 206.959 100.336 206.679 100.586 206.449C100.835 206.216 101.133 206.099 101.479 206.099C101.83 206.099 102.127 206.216 102.373 206.449C102.622 206.679 102.747 206.959 102.747 207.289C102.747 207.615 102.622 207.894 102.373 208.128C102.127 208.357 101.83 208.472 101.479 208.472ZM108.858 219.242C107.932 219.242 107.138 219.038 106.473 218.632C105.813 218.225 105.304 217.664 104.946 216.948C104.592 216.227 104.415 215.398 104.415 214.46C104.415 213.519 104.596 212.688 104.958 211.967C105.32 211.243 105.832 210.679 106.492 210.277C107.156 209.87 107.94 209.667 108.846 209.667C109.599 209.667 110.265 209.806 110.844 210.084C111.428 210.357 111.893 210.746 112.239 211.249C112.585 211.748 112.782 212.331 112.83 212.999H110.742C110.657 212.553 110.456 212.18 110.138 211.883C109.824 211.581 109.403 211.43 108.876 211.43C108.429 211.43 108.037 211.551 107.699 211.792C107.361 212.03 107.097 212.372 106.908 212.818C106.723 213.265 106.63 213.8 106.63 214.424C106.63 215.056 106.723 215.599 106.908 216.054C107.093 216.505 107.353 216.853 107.687 217.099C108.025 217.34 108.421 217.461 108.876 217.461C109.198 217.461 109.486 217.4 109.739 217.28C109.997 217.155 110.212 216.976 110.385 216.742C110.558 216.509 110.677 216.225 110.742 215.891H112.83C112.778 216.547 112.585 217.129 112.251 217.636C111.917 218.139 111.462 218.533 110.886 218.819C110.311 219.101 109.635 219.242 108.858 219.242ZM118.73 219.242C117.8 219.242 116.997 219.048 116.321 218.662C115.649 218.272 115.132 217.72 114.77 217.008C114.407 216.292 114.226 215.448 114.226 214.479C114.226 213.525 114.407 212.688 114.77 211.967C115.136 211.243 115.647 210.679 116.303 210.277C116.959 209.87 117.73 209.667 118.615 209.667C119.187 209.667 119.726 209.76 120.233 209.945C120.744 210.126 121.195 210.408 121.585 210.79C121.98 211.172 122.29 211.659 122.515 212.251C122.74 212.838 122.853 213.539 122.853 214.352V215.022H115.253V213.549H120.758C120.754 213.13 120.664 212.758 120.487 212.432C120.31 212.102 120.062 211.842 119.744 211.653C119.43 211.464 119.064 211.369 118.645 211.369C118.199 211.369 117.806 211.478 117.468 211.695C117.13 211.909 116.867 212.191 116.677 212.541C116.492 212.887 116.398 213.267 116.394 213.682V214.968C116.394 215.507 116.492 215.97 116.689 216.356C116.887 216.738 117.162 217.032 117.517 217.237C117.871 217.439 118.285 217.539 118.76 217.539C119.078 217.539 119.366 217.495 119.623 217.406C119.881 217.314 120.104 217.179 120.294 217.002C120.483 216.825 120.626 216.606 120.722 216.344L122.763 216.573C122.634 217.113 122.388 217.584 122.026 217.986C121.668 218.384 121.209 218.694 120.65 218.916C120.09 219.133 119.45 219.242 118.73 219.242ZM128.472 208.574V206.697H138.336V208.574H134.515V219.061H132.293V208.574H128.472ZM140.437 222.538C140.139 222.538 139.864 222.514 139.61 222.465C139.361 222.421 139.161 222.369 139.013 222.308L139.52 220.606C139.838 220.699 140.121 220.743 140.371 220.739C140.62 220.735 140.84 220.656 141.029 220.503C141.222 220.354 141.385 220.105 141.518 219.755L141.705 219.254L138.342 209.788H140.661L142.798 216.791H142.894L145.037 209.788H147.362L143.649 220.183C143.476 220.674 143.246 221.095 142.961 221.445C142.675 221.799 142.325 222.069 141.91 222.254C141.5 222.443 141.009 222.538 140.437 222.538ZM148.874 222.538V209.788H151.023V211.321H151.15C151.262 211.096 151.421 210.856 151.627 210.603C151.832 210.345 152.11 210.126 152.46 209.945C152.81 209.76 153.257 209.667 153.8 209.667C154.516 209.667 155.162 209.85 155.738 210.216C156.317 210.579 156.776 211.116 157.114 211.828C157.456 212.537 157.627 213.406 157.627 214.436C157.627 215.454 157.46 216.32 157.126 217.032C156.792 217.744 156.338 218.288 155.762 218.662C155.186 219.036 154.534 219.224 153.806 219.224C153.275 219.224 152.834 219.135 152.484 218.958C152.134 218.781 151.852 218.568 151.639 218.318C151.429 218.064 151.266 217.825 151.15 217.6H151.059V222.538H148.874ZM151.017 214.424C151.017 215.024 151.101 215.549 151.271 216C151.444 216.451 151.691 216.803 152.013 217.056C152.339 217.306 152.733 217.431 153.196 217.431C153.679 217.431 154.084 217.302 154.41 217.044C154.736 216.783 154.981 216.426 155.146 215.976C155.315 215.521 155.4 215.004 155.4 214.424C155.4 213.849 155.317 213.338 155.152 212.891C154.987 212.444 154.742 212.094 154.416 211.84C154.09 211.587 153.683 211.46 153.196 211.46C152.729 211.46 152.333 211.583 152.007 211.828C151.681 212.074 151.434 212.418 151.264 212.861C151.099 213.303 151.017 213.825 151.017 214.424ZM163.604 219.242C162.674 219.242 161.871 219.048 161.195 218.662C160.523 218.272 160.006 217.72 159.644 217.008C159.282 216.292 159.1 215.448 159.1 214.479C159.1 213.525 159.282 212.688 159.644 211.967C160.01 211.243 160.521 210.679 161.177 210.277C161.833 209.87 162.604 209.667 163.489 209.667C164.061 209.667 164.6 209.76 165.107 209.945C165.618 210.126 166.069 210.408 166.459 210.79C166.854 211.172 167.164 211.659 167.389 212.251C167.614 212.838 167.727 213.539 167.727 214.352V215.022H160.127V213.549H165.632C165.628 213.13 165.538 212.758 165.361 212.432C165.184 212.102 164.936 211.842 164.618 211.653C164.304 211.464 163.938 211.369 163.519 211.369C163.073 211.369 162.68 211.478 162.342 211.695C162.004 211.909 161.741 212.191 161.551 212.541C161.366 212.887 161.272 213.267 161.268 213.682V214.968C161.268 215.507 161.366 215.97 161.563 216.356C161.761 216.738 162.036 217.032 162.391 217.237C162.745 217.439 163.159 217.539 163.634 217.539C163.952 217.539 164.24 217.495 164.497 217.406C164.755 217.314 164.978 217.179 165.168 217.002C165.357 216.825 165.5 216.606 165.596 216.344L167.637 216.573C167.508 217.113 167.262 217.584 166.9 217.986C166.542 218.384 166.083 218.694 165.524 218.916C164.964 219.133 164.324 219.242 163.604 219.242ZM176.905 212.239L174.913 212.456C174.856 212.255 174.758 212.066 174.617 211.889C174.48 211.712 174.295 211.569 174.061 211.46C173.828 211.351 173.542 211.297 173.204 211.297C172.749 211.297 172.367 211.396 172.057 211.593C171.751 211.79 171.6 212.046 171.604 212.36C171.6 212.629 171.699 212.849 171.9 213.018C172.105 213.187 172.444 213.325 172.914 213.434L174.496 213.772C175.373 213.961 176.025 214.261 176.452 214.672C176.883 215.082 177.1 215.619 177.104 216.284C177.1 216.867 176.929 217.382 176.591 217.829C176.257 218.272 175.792 218.618 175.196 218.867C174.601 219.117 173.917 219.242 173.144 219.242C172.009 219.242 171.095 219.004 170.403 218.529C169.711 218.05 169.298 217.384 169.165 216.531L171.297 216.326C171.393 216.744 171.598 217.06 171.912 217.274C172.226 217.487 172.635 217.594 173.138 217.594C173.657 217.594 174.074 217.487 174.387 217.274C174.705 217.06 174.864 216.797 174.864 216.483C174.864 216.217 174.762 215.998 174.556 215.825C174.355 215.652 174.041 215.519 173.615 215.426L172.033 215.094C171.144 214.909 170.486 214.597 170.059 214.159C169.632 213.716 169.421 213.156 169.425 212.48C169.421 211.909 169.576 211.414 169.89 210.995C170.208 210.573 170.649 210.247 171.212 210.017C171.779 209.784 172.433 209.667 173.174 209.667C174.261 209.667 175.116 209.898 175.74 210.361C176.368 210.824 176.756 211.45 176.905 212.239ZM183.219 219.061V206.697H187.952C188.846 206.697 189.588 206.838 190.18 207.119C190.776 207.397 191.22 207.778 191.514 208.26C191.812 208.743 191.961 209.291 191.961 209.903C191.961 210.406 191.864 210.836 191.671 211.194C191.478 211.549 191.218 211.836 190.892 212.058C190.566 212.279 190.202 212.438 189.8 212.535V212.655C190.238 212.68 190.659 212.814 191.061 213.06C191.468 213.301 191.8 213.643 192.058 214.086C192.315 214.529 192.444 215.064 192.444 215.692C192.444 216.332 192.289 216.907 191.979 217.419C191.669 217.926 191.202 218.326 190.578 218.62C189.955 218.914 189.17 219.061 188.224 219.061H183.219ZM185.459 217.189H187.868C188.681 217.189 189.266 217.034 189.625 216.724C189.987 216.41 190.168 216.008 190.168 215.517C190.168 215.151 190.077 214.821 189.896 214.527C189.715 214.229 189.458 213.996 189.124 213.827C188.79 213.653 188.391 213.567 187.928 213.567H185.459V217.189ZM185.459 211.955H187.675C188.061 211.955 188.409 211.885 188.719 211.744C189.029 211.599 189.272 211.396 189.45 211.134C189.631 210.868 189.721 210.555 189.721 210.192C189.721 209.713 189.552 209.319 189.214 209.009C188.88 208.699 188.383 208.544 187.723 208.544H185.459V211.955ZM194.296 219.061V209.788H196.415V211.333H196.511C196.68 210.798 196.97 210.385 197.381 210.096C197.795 209.802 198.268 209.655 198.799 209.655C198.92 209.655 199.055 209.661 199.204 209.673C199.357 209.681 199.483 209.695 199.584 209.715V211.726C199.492 211.693 199.345 211.665 199.143 211.641C198.946 211.613 198.755 211.599 198.57 211.599C198.171 211.599 197.813 211.685 197.495 211.858C197.181 212.028 196.934 212.263 196.753 212.565C196.572 212.867 196.481 213.215 196.481 213.609V219.061H194.296ZM204.759 219.242C203.83 219.242 203.027 219.048 202.35 218.662C201.678 218.272 201.161 217.72 200.799 217.008C200.437 216.292 200.256 215.448 200.256 214.479C200.256 213.525 200.437 212.688 200.799 211.967C201.165 211.243 201.676 210.679 202.332 210.277C202.988 209.87 203.759 209.667 204.645 209.667C205.216 209.667 205.755 209.76 206.262 209.945C206.774 210.126 207.224 210.408 207.615 210.79C208.009 211.172 208.319 211.659 208.544 212.251C208.77 212.838 208.882 213.539 208.882 214.352V215.022H201.282V213.549H206.788C206.784 213.13 206.693 212.758 206.516 212.432C206.339 212.102 206.091 211.842 205.773 211.653C205.46 211.464 205.093 211.369 204.675 211.369C204.228 211.369 203.836 211.478 203.498 211.695C203.159 211.909 202.896 212.191 202.707 212.541C202.522 212.887 202.427 213.267 202.423 213.682V214.968C202.423 215.507 202.522 215.97 202.719 216.356C202.916 216.738 203.192 217.032 203.546 217.237C203.9 217.439 204.315 217.539 204.789 217.539C205.107 217.539 205.395 217.495 205.653 217.406C205.91 217.314 206.134 217.179 206.323 217.002C206.512 216.825 206.655 216.606 206.751 216.344L208.792 216.573C208.663 217.113 208.418 217.584 208.055 217.986C207.697 218.384 207.238 218.694 206.679 218.916C206.12 219.133 205.48 219.242 204.759 219.242ZM213.4 219.248C212.812 219.248 212.283 219.143 211.812 218.934C211.345 218.72 210.975 218.407 210.701 217.992C210.431 217.577 210.297 217.066 210.297 216.459C210.297 215.935 210.393 215.503 210.586 215.161C210.78 214.819 211.043 214.545 211.377 214.34C211.711 214.134 212.088 213.979 212.506 213.875C212.929 213.766 213.365 213.688 213.816 213.639C214.359 213.583 214.8 213.533 215.138 213.488C215.476 213.44 215.722 213.368 215.875 213.271C216.032 213.171 216.11 213.016 216.11 212.806V212.77C216.11 212.315 215.975 211.963 215.706 211.714C215.436 211.464 215.048 211.339 214.541 211.339C214.005 211.339 213.581 211.456 213.267 211.689C212.957 211.923 212.748 212.199 212.639 212.517L210.598 212.227C210.759 211.663 211.025 211.192 211.395 210.814C211.766 210.432 212.218 210.146 212.754 209.957C213.289 209.764 213.881 209.667 214.528 209.667C214.975 209.667 215.42 209.719 215.863 209.824C216.305 209.929 216.71 210.102 217.076 210.343C217.442 210.581 217.736 210.905 217.957 211.315C218.183 211.726 218.296 212.239 218.296 212.855V219.061H216.195V217.787H216.122C215.989 218.044 215.802 218.286 215.561 218.511C215.323 218.733 215.024 218.912 214.661 219.048C214.303 219.181 213.883 219.248 213.4 219.248ZM213.967 217.642C214.406 217.642 214.786 217.555 215.108 217.382C215.43 217.205 215.678 216.972 215.851 216.682C216.028 216.392 216.116 216.076 216.116 215.734V214.642C216.048 214.698 215.931 214.75 215.766 214.798C215.605 214.847 215.424 214.889 215.223 214.925C215.022 214.961 214.822 214.994 214.625 215.022C214.428 215.05 214.257 215.074 214.112 215.094C213.786 215.139 213.494 215.211 213.237 215.312C212.979 215.412 212.776 215.553 212.627 215.734C212.478 215.911 212.403 216.141 212.403 216.422C212.403 216.825 212.55 217.129 212.844 217.334C213.138 217.539 213.512 217.642 213.967 217.642ZM222.485 216.151L222.479 213.513H222.829L226.162 209.788H228.715L224.616 214.352H224.163L222.485 216.151ZM220.493 219.061V206.697H222.678V219.061H220.493ZM226.313 219.061L223.294 214.841L224.767 213.301L228.927 219.061H226.313ZM233.231 219.224C232.502 219.224 231.85 219.036 231.275 218.662C230.699 218.288 230.245 217.744 229.911 217.032C229.577 216.32 229.41 215.454 229.41 214.436C229.41 213.406 229.579 212.537 229.917 211.828C230.259 211.116 230.72 210.579 231.299 210.216C231.879 209.85 232.525 209.667 233.237 209.667C233.78 209.667 234.227 209.76 234.577 209.945C234.927 210.126 235.205 210.345 235.41 210.603C235.616 210.856 235.774 211.096 235.887 211.321H235.978V206.697H238.169V219.061H236.02V217.6H235.887C235.774 217.825 235.611 218.064 235.398 218.318C235.185 218.568 234.903 218.781 234.553 218.958C234.203 219.135 233.762 219.224 233.231 219.224ZM233.841 217.431C234.303 217.431 234.698 217.306 235.024 217.056C235.35 216.803 235.597 216.451 235.766 216C235.935 215.549 236.02 215.024 236.02 214.424C236.02 213.825 235.935 213.303 235.766 212.861C235.601 212.418 235.356 212.074 235.03 211.828C234.708 211.583 234.312 211.46 233.841 211.46C233.354 211.46 232.947 211.587 232.621 211.84C232.295 212.094 232.05 212.444 231.885 212.891C231.72 213.338 231.637 213.849 231.637 214.424C231.637 215.004 231.72 215.521 231.885 215.976C232.054 216.426 232.301 216.783 232.627 217.044C232.957 217.302 233.362 217.431 233.841 217.431ZM244.543 219.242C243.637 219.242 242.852 219.042 242.188 218.644C241.524 218.246 241.009 217.688 240.643 216.972C240.281 216.255 240.099 215.418 240.099 214.46C240.099 213.503 240.281 212.663 240.643 211.943C241.009 211.223 241.524 210.663 242.188 210.265C242.852 209.866 243.637 209.667 244.543 209.667C245.448 209.667 246.233 209.866 246.897 210.265C247.561 210.663 248.074 211.223 248.436 211.943C248.803 212.663 248.986 213.503 248.986 214.46C248.986 215.418 248.803 216.255 248.436 216.972C248.074 217.688 247.561 218.246 246.897 218.644C246.233 219.042 245.448 219.242 244.543 219.242ZM244.555 217.491C245.046 217.491 245.456 217.356 245.786 217.086C246.116 216.813 246.362 216.447 246.523 215.988C246.688 215.529 246.77 215.018 246.77 214.454C246.77 213.887 246.688 213.374 246.523 212.915C246.362 212.452 246.116 212.084 245.786 211.81C245.456 211.537 245.046 211.4 244.555 211.4C244.052 211.4 243.633 211.537 243.299 211.81C242.969 212.084 242.721 212.452 242.556 212.915C242.395 213.374 242.315 213.887 242.315 214.454C242.315 215.018 242.395 215.529 242.556 215.988C242.721 216.447 242.969 216.813 243.299 217.086C243.633 217.356 244.052 217.491 244.555 217.491ZM252.489 219.061L249.869 209.788H252.096L253.726 216.308H253.811L255.477 209.788H257.68L259.347 216.271H259.437L261.043 209.788H263.277L260.651 219.061H258.375L256.636 212.794H256.509L254.771 219.061H252.489ZM266.988 213.627V219.061H264.803V209.788H266.891V211.363H267C267.213 210.844 267.553 210.432 268.02 210.126C268.491 209.82 269.073 209.667 269.765 209.667C270.405 209.667 270.962 209.804 271.437 210.078C271.916 210.351 272.286 210.748 272.548 211.267C272.814 211.786 272.944 212.416 272.94 213.156V219.061H270.755V213.494C270.755 212.875 270.594 212.39 270.272 212.04C269.954 211.689 269.513 211.514 268.95 211.514C268.568 211.514 268.228 211.599 267.93 211.768C267.636 211.933 267.404 212.172 267.235 212.486C267.07 212.8 266.988 213.181 266.988 213.627Z" fill="#181D27"/>
<g filter="url(#filter2_d_384_2847)">
<path d="M291.239 363.137C290.672 361.088 292.867 359.376 294.716 360.425L321.53 375.63C323.379 376.679 323.037 379.44 320.989 380.006L309.804 383.1C309.284 383.244 308.83 383.563 308.519 384.004L308.5 384.031L308.484 384.059L303.551 392.46C302.483 394.277 299.755 393.919 299.193 391.887L291.239 363.137Z" fill="#153A7B" stroke="white" stroke-width="1.59072"/>
</g>
<g filter="url(#filter3_d_384_2847)">
<rect x="210.401" y="288.481" width="126.324" height="38.3238" rx="10.3969" fill="#111111"/>
<path d="M221.556 304.508V303.141H228.738V304.508H225.956V312.144H224.338V304.508H221.556ZM230.268 314.676C230.051 314.676 229.851 314.658 229.666 314.623C229.484 314.591 229.339 314.552 229.231 314.508L229.6 313.269C229.832 313.336 230.038 313.369 230.22 313.366C230.402 313.363 230.561 313.306 230.699 313.194C230.84 313.086 230.958 312.904 231.055 312.649L231.191 312.284L228.743 305.392H230.431L231.987 310.491H232.057L233.618 305.392H235.31L232.607 312.961C232.481 313.319 232.314 313.625 232.106 313.88C231.898 314.138 231.643 314.334 231.341 314.469C231.042 314.607 230.684 314.676 230.268 314.676ZM236.411 314.676V305.392H237.976V306.508H238.068C238.151 306.344 238.266 306.17 238.416 305.985C238.565 305.798 238.767 305.638 239.022 305.506C239.277 305.371 239.603 305.304 239.998 305.304C240.52 305.304 240.99 305.437 241.409 305.704C241.831 305.968 242.165 306.359 242.411 306.877C242.661 307.393 242.785 308.026 242.785 308.776C242.785 309.518 242.664 310.148 242.42 310.667C242.177 311.185 241.846 311.581 241.427 311.853C241.008 312.126 240.533 312.262 240.003 312.262C239.616 312.262 239.295 312.198 239.04 312.069C238.785 311.94 238.58 311.785 238.425 311.603C238.272 311.418 238.153 311.244 238.068 311.08H238.003V314.676H236.411ZM237.972 308.768C237.972 309.204 238.033 309.587 238.156 309.915C238.282 310.243 238.463 310.5 238.697 310.684C238.934 310.866 239.222 310.957 239.559 310.957C239.91 310.957 240.205 310.863 240.442 310.675C240.68 310.485 240.858 310.226 240.978 309.897C241.102 309.566 241.163 309.19 241.163 308.768C241.163 308.349 241.103 307.976 240.983 307.651C240.863 307.326 240.684 307.071 240.447 306.886C240.209 306.702 239.913 306.609 239.559 306.609C239.219 306.609 238.93 306.699 238.693 306.877C238.455 307.056 238.275 307.307 238.152 307.629C238.032 307.951 237.972 308.331 237.972 308.768ZM247.137 312.275C246.46 312.275 245.875 312.135 245.383 311.853C244.894 311.569 244.517 311.168 244.253 310.649C243.99 310.127 243.858 309.513 243.858 308.807C243.858 308.113 243.99 307.503 244.253 306.979C244.52 306.451 244.892 306.041 245.37 305.748C245.848 305.452 246.409 305.304 247.053 305.304C247.47 305.304 247.862 305.371 248.231 305.506C248.604 305.638 248.932 305.843 249.216 306.121C249.503 306.4 249.729 306.754 249.893 307.185C250.057 307.613 250.139 308.123 250.139 308.715V309.203H244.605V308.13H248.614C248.611 307.825 248.545 307.554 248.416 307.317C248.287 307.077 248.107 306.888 247.875 306.75C247.647 306.612 247.38 306.543 247.075 306.543C246.75 306.543 246.464 306.622 246.218 306.781C245.972 306.936 245.78 307.141 245.642 307.396C245.508 307.648 245.439 307.925 245.436 308.227V309.163C245.436 309.556 245.508 309.893 245.651 310.174C245.795 310.453 245.995 310.667 246.253 310.816C246.511 310.963 246.813 311.036 247.159 311.036C247.39 311.036 247.6 311.004 247.787 310.939C247.975 310.872 248.138 310.774 248.275 310.645C248.413 310.516 248.517 310.356 248.588 310.165L250.073 310.333C249.98 310.725 249.801 311.068 249.537 311.361C249.276 311.651 248.942 311.877 248.535 312.038C248.127 312.196 247.661 312.275 247.137 312.275ZM256.448 305.616C256.407 305.232 256.234 304.933 255.93 304.719C255.628 304.505 255.235 304.398 254.751 304.398C254.412 304.398 254.12 304.45 253.877 304.552C253.633 304.655 253.447 304.794 253.318 304.97C253.19 305.146 253.124 305.346 253.121 305.572C253.121 305.759 253.163 305.922 253.248 306.06C253.336 306.198 253.455 306.315 253.604 306.411C253.754 306.505 253.919 306.584 254.101 306.649C254.283 306.713 254.466 306.768 254.65 306.811L255.494 307.022C255.834 307.102 256.161 307.209 256.475 307.343C256.791 307.478 257.074 307.648 257.323 307.853C257.575 308.058 257.774 308.306 257.921 308.596C258.067 308.886 258.141 309.226 258.141 309.616C258.141 310.143 258.006 310.608 257.736 311.009C257.467 311.408 257.077 311.72 256.567 311.946C256.06 312.168 255.446 312.28 254.725 312.28C254.025 312.28 253.417 312.171 252.901 311.955C252.388 311.738 251.987 311.421 251.696 311.005C251.409 310.589 251.254 310.082 251.23 309.484H252.835C252.858 309.798 252.955 310.058 253.125 310.267C253.295 310.475 253.516 310.63 253.789 310.733C254.064 310.835 254.372 310.886 254.712 310.886C255.067 310.886 255.377 310.834 255.644 310.728C255.913 310.62 256.124 310.47 256.277 310.28C256.429 310.086 256.507 309.861 256.51 309.603C256.507 309.368 256.438 309.175 256.303 309.023C256.168 308.867 255.979 308.738 255.736 308.636C255.496 308.53 255.214 308.436 254.892 308.354L253.868 308.091C253.127 307.9 252.54 307.612 252.11 307.225C251.682 306.835 251.468 306.318 251.468 305.673C251.468 305.143 251.611 304.678 251.899 304.28C252.189 303.881 252.583 303.572 253.081 303.352C253.579 303.129 254.143 303.018 254.773 303.018C255.412 303.018 255.972 303.129 256.453 303.352C256.936 303.572 257.316 303.878 257.591 304.271C257.867 304.661 258.009 305.109 258.018 305.616H256.448ZM262.469 312.275C261.795 312.275 261.217 312.127 260.733 311.831C260.252 311.535 259.882 311.127 259.621 310.605C259.363 310.08 259.234 309.477 259.234 308.794C259.234 308.108 259.366 307.503 259.63 306.979C259.893 306.451 260.266 306.041 260.746 305.748C261.23 305.452 261.801 305.304 262.461 305.304C263.009 305.304 263.494 305.405 263.916 305.607C264.34 305.806 264.679 306.089 264.931 306.455C265.183 306.819 265.327 307.244 265.362 307.73H263.841C263.779 307.405 263.633 307.134 263.401 306.917C263.173 306.697 262.866 306.587 262.483 306.587C262.157 306.587 261.872 306.675 261.625 306.851C261.379 307.024 261.187 307.273 261.05 307.598C260.915 307.924 260.847 308.313 260.847 308.768C260.847 309.228 260.915 309.623 261.05 309.954C261.184 310.283 261.373 310.536 261.617 310.715C261.863 310.891 262.151 310.979 262.483 310.979C262.717 310.979 262.926 310.935 263.111 310.847C263.299 310.756 263.455 310.626 263.581 310.456C263.707 310.286 263.794 310.079 263.841 309.836H265.362C265.324 310.313 265.183 310.737 264.94 311.106C264.697 311.472 264.365 311.76 263.946 311.968C263.527 312.173 263.035 312.275 262.469 312.275ZM266.668 312.144V305.392H268.211V306.517H268.282C268.405 306.127 268.616 305.827 268.915 305.616C269.216 305.402 269.561 305.295 269.948 305.295C270.036 305.295 270.134 305.299 270.242 305.308C270.353 305.314 270.446 305.324 270.519 305.339V306.803C270.452 306.779 270.345 306.759 270.198 306.741C270.055 306.721 269.915 306.71 269.781 306.71C269.49 306.71 269.23 306.773 268.998 306.899C268.77 307.022 268.589 307.194 268.457 307.414C268.326 307.634 268.26 307.887 268.26 308.174V312.144H266.668ZM271.576 312.144V305.392H273.168V312.144H271.576ZM272.376 304.433C272.124 304.433 271.907 304.35 271.726 304.183C271.544 304.013 271.453 303.809 271.453 303.572C271.453 303.332 271.544 303.128 271.726 302.961C271.907 302.791 272.124 302.706 272.376 302.706C272.631 302.706 272.848 302.791 273.027 302.961C273.209 303.128 273.299 303.332 273.299 303.572C273.299 303.809 273.209 304.013 273.027 304.183C272.848 304.35 272.631 304.433 272.376 304.433ZM274.804 314.676V305.392H276.369V306.508H276.461C276.543 306.344 276.659 306.17 276.808 305.985C276.958 305.798 277.16 305.638 277.415 305.506C277.67 305.371 277.995 305.304 278.391 305.304C278.912 305.304 279.383 305.437 279.802 305.704C280.224 305.968 280.558 306.359 280.804 306.877C281.053 307.393 281.178 308.026 281.178 308.776C281.178 309.518 281.056 310.148 280.813 310.667C280.57 311.185 280.238 311.581 279.819 311.853C279.4 312.126 278.926 312.262 278.395 312.262C278.008 312.262 277.687 312.198 277.433 312.069C277.178 311.94 276.972 311.785 276.817 311.603C276.665 311.418 276.546 311.244 276.461 311.08H276.395V314.676H274.804ZM276.364 308.768C276.364 309.204 276.426 309.587 276.549 309.915C276.675 310.243 276.855 310.5 277.09 310.684C277.327 310.866 277.614 310.957 277.951 310.957C278.303 310.957 278.597 310.863 278.835 310.675C279.072 310.485 279.251 310.226 279.371 309.897C279.494 309.566 279.556 309.19 279.556 308.768C279.556 308.349 279.496 307.976 279.375 307.651C279.255 307.326 279.077 307.071 278.839 306.886C278.602 306.702 278.306 306.609 277.951 306.609C277.611 306.609 277.323 306.699 277.085 306.877C276.848 307.056 276.668 307.307 276.545 307.629C276.424 307.951 276.364 308.331 276.364 308.768ZM285.912 305.392V306.622H282.03V305.392H285.912ZM282.989 303.774H284.58V310.113C284.58 310.327 284.612 310.491 284.677 310.605C284.744 310.716 284.832 310.793 284.94 310.834C285.049 310.875 285.169 310.895 285.301 310.895C285.401 310.895 285.491 310.888 285.573 310.873C285.658 310.859 285.723 310.845 285.767 310.834L286.035 312.078C285.95 312.107 285.828 312.139 285.67 312.174C285.515 312.209 285.324 312.23 285.099 312.236C284.7 312.248 284.341 312.188 284.022 312.056C283.702 311.921 283.449 311.713 283.261 311.431C283.077 311.15 282.986 310.798 282.989 310.376V303.774ZM295.685 306.987V308.297H289.496V306.987H295.685ZM299.393 310.473V309.176L303.213 303.141H304.294V304.987H303.635L301.063 309.062V309.132H306.395V310.473H299.393ZM303.687 312.144V310.078L303.705 309.497V303.141H305.243V312.144H303.687ZM311.127 312.315C310.403 312.315 309.782 312.132 309.263 311.766C308.748 311.396 308.35 310.864 308.072 310.17C307.797 309.472 307.659 308.633 307.659 307.651C307.662 306.669 307.801 305.834 308.076 305.146C308.355 304.454 308.752 303.926 309.268 303.563C309.786 303.2 310.406 303.018 311.127 303.018C311.848 303.018 312.468 303.2 312.987 303.563C313.505 303.926 313.902 304.454 314.178 305.146C314.456 305.837 314.595 306.672 314.595 307.651C314.595 308.636 314.456 309.477 314.178 310.174C313.902 310.869 313.505 311.399 312.987 311.766C312.471 312.132 311.851 312.315 311.127 312.315ZM311.127 310.939C311.69 310.939 312.134 310.662 312.459 310.108C312.787 309.552 312.951 308.732 312.951 307.651C312.951 306.936 312.877 306.335 312.727 305.849C312.578 305.362 312.367 304.996 312.094 304.75C311.822 304.501 311.499 304.376 311.127 304.376C310.567 304.376 310.125 304.655 309.8 305.211C309.474 305.765 309.31 306.579 309.307 307.651C309.304 308.369 309.376 308.973 309.523 309.462C309.672 309.952 309.883 310.321 310.156 310.57C310.428 310.816 310.752 310.939 311.127 310.939ZM320.869 310.456V309.981C320.869 309.632 320.942 309.311 321.089 309.018C321.238 308.725 321.455 308.489 321.74 308.31C322.024 308.132 322.368 308.042 322.773 308.042C323.189 308.042 323.537 308.132 323.819 308.31C324.1 308.486 324.313 308.721 324.456 309.014C324.603 309.307 324.676 309.629 324.676 309.981V310.456C324.676 310.804 324.603 311.125 324.456 311.418C324.31 311.711 324.094 311.947 323.81 312.126C323.529 312.305 323.183 312.394 322.773 312.394C322.362 312.394 322.015 312.305 321.731 312.126C321.447 311.947 321.231 311.711 321.085 311.418C320.941 311.125 320.869 310.804 320.869 310.456ZM322.016 309.981V310.456C322.016 310.687 322.072 310.9 322.184 311.093C322.295 311.286 322.491 311.383 322.773 311.383C323.057 311.383 323.252 311.288 323.357 311.097C323.466 310.904 323.52 310.69 323.52 310.456V309.981C323.52 309.746 323.469 309.532 323.366 309.339C323.263 309.143 323.066 309.045 322.773 309.045C322.497 309.045 322.302 309.143 322.188 309.339C322.074 309.532 322.016 309.746 322.016 309.981ZM316.293 305.304V304.829C316.293 304.477 316.368 304.155 316.517 303.862C316.667 303.569 316.884 303.334 317.168 303.159C317.452 302.98 317.797 302.89 318.201 302.89C318.614 302.89 318.961 302.98 319.243 303.159C319.527 303.334 319.741 303.569 319.885 303.862C320.028 304.155 320.1 304.477 320.1 304.829V305.304C320.1 305.655 320.027 305.978 319.88 306.271C319.737 306.561 319.523 306.794 319.238 306.97C318.954 307.146 318.608 307.233 318.201 307.233C317.788 307.233 317.439 307.146 317.155 306.97C316.873 306.794 316.66 306.559 316.513 306.266C316.366 305.973 316.293 305.652 316.293 305.304ZM317.449 304.829V305.304C317.449 305.538 317.504 305.752 317.612 305.946C317.723 306.136 317.92 306.231 318.201 306.231C318.482 306.231 318.676 306.136 318.781 305.946C318.89 305.752 318.944 305.538 318.944 305.304V304.829C318.944 304.595 318.893 304.381 318.79 304.187C318.687 303.991 318.491 303.893 318.201 303.893C317.923 303.893 317.728 303.991 317.616 304.187C317.505 304.384 317.449 304.598 317.449 304.829ZM316.794 312.144L322.984 303.141H324.082L317.893 312.144H316.794Z" fill="white"/>
</g>
</g>
</g>
<defs>
<filter id="filter0_d_384_2847" x="153.533" y="39.192" width="484.084" height="349.744" filterUnits="userSpaceOnUse" color-interpolation-filters="sRGB">
<feFlood flood-opacity="0" result="BackgroundImageFix"/>
<feColorMatrix in="SourceAlpha" type="matrix" values="0 0 0 0 0 0 0 0 0 0 0 0 0 0 0 0 0 0 127 0" result="hardAlpha"/>
<feOffset dy="0.808026"/>
<feGaussianBlur stdDeviation="0.808026"/>
<feColorMatrix type="matrix" values="0 0 0 0 0.0392157 0 0 0 0 0.0496732 0 0 0 0 0.0705882 0 0 0 0.05 0"/>
<feBlend mode="normal" in2="BackgroundImageFix" result="effect1_dropShadow_384_2847"/>
<feBlend mode="normal" in="SourceGraphic" in2="effect1_dropShadow_384_2847" result="shape"/>
</filter>
<filter id="filter1_d_384_2847" x="16.6504" y="123.271" width="410.27" height="397.475" filterUnits="userSpaceOnUse" color-interpolation-filters="sRGB">
<feFlood flood-opacity="0" result="BackgroundImageFix"/>
<feColorMatrix in="SourceAlpha" type="matrix" values="0 0 0 0 0 0 0 0 0 0 0 0 0 0 0 0 0 0 127 0" result="hardAlpha"/>
<feOffset dx="18.1252" dy="-15.9928"/>
<feGaussianBlur stdDeviation="20.7374"/>
<feComposite in2="hardAlpha" operator="out"/>
<feColorMatrix type="matrix" values="0 0 0 0 0 0 0 0 0 0.0901756 0 0 0 0 0.216421 0 0 0 0.09 0"/>
<feBlend mode="normal" in2="BackgroundImageFix" result="effect1_dropShadow_384_2847"/>
<feBlend mode="normal" in="SourceGraphic" in2="effect1_dropShadow_384_2847" result="shape"/>
</filter>
<filter id="filter2_d_384_2847" x="269.386" y="347.521" width="75.1145" height="77.0564" filterUnits="userSpaceOnUse" color-interpolation-filters="sRGB">
<feFlood flood-opacity="0" result="BackgroundImageFix"/>
<feColorMatrix in="SourceAlpha" type="matrix" values="0 0 0 0 0 0 0 0 0 0 0 0 0 0 0 0 0 0 127 0" result="hardAlpha"/>
<feOffset dy="9.17847"/>
<feGaussianBlur stdDeviation="10.4829"/>
<feColorMatrix type="matrix" values="0 0 0 0 0 0 0 0 0 0 0 0 0 0 0 0 0 0 0.22 0"/>
<feBlend mode="normal" in2="BackgroundImageFix" result="effect1_dropShadow_384_2847"/>
<feBlend mode="normal" in="SourceGraphic" in2="effect1_dropShadow_384_2847" result="shape"/>
</filter>
<filter id="filter3_d_384_2847" x="150.801" y="231.014" width="209.273" height="121.274" filterUnits="userSpaceOnUse" color-interpolation-filters="sRGB">
<feFlood flood-opacity="0" result="BackgroundImageFix"/>
<feColorMatrix in="SourceAlpha" type="matrix" values="0 0 0 0 0 0 0 0 0 0 0 0 0 0 0 0 0 0 127 0" result="hardAlpha"/>
<feOffset dx="-18.1252" dy="-15.9928"/>
<feGaussianBlur stdDeviation="20.7374"/>
<feComposite in2="hardAlpha" operator="out"/>
<feColorMatrix type="matrix" values="0 0 0 0 0 0 0 0 0 0.0901756 0 0 0 0 0.216421 0 0 0 0.09 0"/>
<feBlend mode="normal" in2="BackgroundImageFix" result="effect1_dropShadow_384_2847"/>
<feBlend mode="normal" in="SourceGraphic" in2="effect1_dropShadow_384_2847" result="shape"/>
</filter>
<linearGradient id="paint0_linear_384_2847" x1="306.63" y1="-5.50392" x2="542.929" y2="522.373" gradientUnits="userSpaceOnUse">
<stop stop-color="#2D7BFF"/>
<stop offset="1" stop-color="white" stop-opacity="0"/>
</linearGradient>
<linearGradient id="paint1_linear_384_2847" x1="400.62" y1="170.64" x2="400.62" y2="506.143" gradientUnits="userSpaceOnUse">
<stop stop-color="#EFF5FF"/>
<stop offset="1" stop-color="white" stop-opacity="0"/>
</linearGradient>
<clipPath id="clip0_384_2847">
<path d="M0 18C0 8.05887 8.05887 0 18 0H658C667.941 0 676 8.05888 676 18V467H0V18Z" fill="white"/>
</clipPath>
<clipPath id="clip1_384_2847">
<rect width="201.355" height="200.978" fill="white" transform="translate(102.982 262.034)"/>
</clipPath>
</defs>
</svg>
