<svg width="75" height="83" viewBox="0 0 75 83" fill="none" xmlns="http://www.w3.org/2000/svg">
<path d="M4.23082 18.4112L33.7236 1.50174C36.0554 0.166087 38.9393 0.166087 41.2764 1.50174L70.7692 18.4112C73.0795 19.7363 74.5 22.17 74.5 24.7991V58.2009C74.5 60.83 73.0795 63.2637 70.7692 64.5888L41.2764 81.4983C38.9446 82.8339 36.0607 82.8339 33.7236 81.4983L4.23082 64.5888C1.9205 63.2637 0.5 60.83 0.5 58.2009V24.7991C0.5 22.17 1.9205 19.7363 4.23082 18.4112Z" fill="#F7F7F5" fill-opacity="0.59" stroke="#8FB4F5" stroke-miterlimit="10"/>
<path d="M9.62658 21.788L34.337 7.355C36.2911 6.215 38.709 6.215 40.6631 7.355L65.3734 21.788C67.3067 22.9175 68.5 24.9936 68.5 27.2422V55.7578C68.5 58.0064 67.3119 60.0825 65.3734 61.212L40.6631 75.645C38.709 76.785 36.2911 76.785 34.337 75.645L9.62658 61.212C7.69331 60.0825 6.5 58.0064 6.5 55.7578V27.2422C6.5 24.9936 7.6881 22.9175 9.62658 21.788Z" fill="url(#paint0_linear_386_2062)"/>
<g filter="url(#filter0_d_386_2062)">
<path d="M21.0858 30.0858C21.8668 29.3047 23.1329 29.3047 23.9139 30.0858L33.9139 40.0858C34.695 40.8668 34.695 42.1329 33.9139 42.9139L23.9139 52.9139C23.1329 53.695 21.8668 53.695 21.0858 52.9139C20.3047 52.1329 20.3047 50.8668 21.0858 50.0858L29.6717 41.4998L21.0858 32.9139C20.3047 32.1329 20.3047 30.8668 21.0858 30.0858ZM52.4998 49.4998C53.6044 49.4998 54.4998 50.3953 54.4998 51.4998C54.4998 52.6044 53.6044 53.4998 52.4998 53.4998H38.4998C37.3953 53.4998 36.4998 52.6044 36.4998 51.4998C36.4998 50.3953 37.3953 49.4998 38.4998 49.4998H52.4998Z" fill="white"/>
</g>
<defs>
<filter id="filter0_d_386_2062" x="11.5" y="21.5" width="52" height="52" filterUnits="userSpaceOnUse" color-interpolation-filters="sRGB">
<feFlood flood-opacity="0" result="BackgroundImageFix"/>
<feColorMatrix in="SourceAlpha" type="matrix" values="0 0 0 0 0 0 0 0 0 0 0 0 0 0 0 0 0 0 127 0" result="hardAlpha"/>
<feOffset dy="6"/>
<feGaussianBlur stdDeviation="4"/>
<feComposite in2="hardAlpha" operator="out"/>
<feColorMatrix type="matrix" values="0 0 0 0 0.118632 0 0 0 0 0.372589 0 0 0 0 0.812782 0 0 0 0.4 0"/>
<feBlend mode="normal" in2="BackgroundImageFix" result="effect1_dropShadow_386_2062"/>
<feBlend mode="normal" in="SourceGraphic" in2="effect1_dropShadow_386_2062" result="shape"/>
</filter>
<linearGradient id="paint0_linear_386_2062" x1="37.5" y1="76.5" x2="37.5" y2="6.5" gradientUnits="userSpaceOnUse">
<stop stop-color="#2D7AFF"/>
<stop offset="1" stop-color="#A6C7FF"/>
</linearGradient>
</defs>
</svg>
