<svg width="75" height="83" viewBox="0 0 75 83" fill="none" xmlns="http://www.w3.org/2000/svg">
<path d="M4.23082 18.4112L33.7236 1.50174C36.0554 0.166087 38.9393 0.166087 41.2764 1.50174L70.7692 18.4112C73.0795 19.7363 74.5 22.17 74.5 24.7991V58.2009C74.5 60.83 73.0795 63.2637 70.7692 64.5888L41.2764 81.4983C38.9446 82.8339 36.0607 82.8339 33.7236 81.4983L4.23082 64.5888C1.9205 63.2637 0.5 60.83 0.5 58.2009V24.7991C0.5 22.17 1.9205 19.7363 4.23082 18.4112Z" fill="#F7F7F5" fill-opacity="0.59" stroke="#8FB4F5" stroke-miterlimit="10"/>
<path d="M9.62658 21.788L34.337 7.355C36.2911 6.215 38.709 6.215 40.6631 7.355L65.3734 21.788C67.3067 22.9175 68.5 24.9936 68.5 27.2422V55.7578C68.5 58.0064 67.3119 60.0825 65.3734 61.212L40.6631 75.645C38.709 76.785 36.2911 76.785 34.337 75.645L9.62658 61.212C7.69331 60.0825 6.5 58.0064 6.5 55.7578V27.2422C6.5 24.9936 7.6881 22.9175 9.62658 21.788Z" fill="url(#paint0_linear_386_2077)"/>
<g filter="url(#filter0_d_386_2077)">
<path d="M37.5 58.5C32.9913 58.5 28.6673 56.7089 25.4792 53.5208C22.2911 50.3327 20.5 46.0087 20.5 41.5C20.5 36.9913 22.2911 32.6673 25.4792 29.4792C28.6673 26.2911 32.9913 24.5 37.5 24.5C42.0087 24.5 46.3327 26.2911 49.5208 29.4792C52.7089 32.6673 54.5 36.9913 54.5 41.5C54.5 46.0087 52.7089 50.3327 49.5208 53.5208C46.3327 56.7089 42.0087 58.5 37.5 58.5ZM38.0312 34.5938C38.0309 33.9042 37.8388 33.2283 37.4764 32.6416C37.114 32.0549 36.5956 31.5805 35.9792 31.2714C35.3627 30.9624 34.6725 30.8308 33.9856 30.8914C33.2986 30.952 32.6421 31.2025 32.0893 31.6147C31.5365 32.027 31.1093 32.5848 30.8552 33.2259C30.6012 33.867 30.5305 34.5661 30.6509 35.2451C30.7713 35.9241 31.0781 36.5563 31.5371 37.0709C31.9961 37.5856 32.5892 37.9625 33.25 38.1595V44.8405C32.394 45.0957 31.6584 45.6505 31.1778 46.4035C30.6973 47.1564 30.5037 48.0572 30.6327 48.9411C30.7617 49.825 31.2045 50.6329 31.8802 51.2172C32.5558 51.8015 33.4192 52.123 34.3125 52.123C35.2058 52.123 36.0692 51.8015 36.7448 51.2172C37.4205 50.6329 37.8633 49.825 37.9923 48.9411C38.1213 48.0572 37.9277 47.1564 37.4472 46.4035C36.9666 45.6505 36.231 45.0957 35.375 44.8405V42.0015C36.5438 43.047 38.0569 43.625 39.625 43.625H40.8384C41.0936 44.481 41.6484 45.2166 42.4014 45.6972C43.1543 46.1777 44.0551 46.3713 44.939 46.2423C45.8229 46.1133 46.6308 45.6705 47.2151 44.9948C47.7993 44.3192 48.1209 43.4558 48.1209 42.5625C48.1209 41.6692 47.7993 40.8058 47.2151 40.1302C46.6308 39.4545 45.8229 39.0117 44.939 38.8827C44.0551 38.7537 43.1543 38.9473 42.4014 39.4278C41.6484 39.9084 41.0936 40.644 40.8384 41.5H39.625C38.6505 41.5002 37.7055 41.1654 36.9484 40.5518C36.1913 39.9383 35.6681 39.0832 35.4664 38.1298C36.2123 37.8863 36.862 37.4132 37.3227 36.778C37.7834 36.1429 38.0314 35.3784 38.0312 34.5938Z" fill="white"/>
</g>
<defs>
<filter id="filter0_d_386_2077" x="11.5" y="21.5" width="52" height="52" filterUnits="userSpaceOnUse" color-interpolation-filters="sRGB">
<feFlood flood-opacity="0" result="BackgroundImageFix"/>
<feColorMatrix in="SourceAlpha" type="matrix" values="0 0 0 0 0 0 0 0 0 0 0 0 0 0 0 0 0 0 127 0" result="hardAlpha"/>
<feOffset dy="6"/>
<feGaussianBlur stdDeviation="4"/>
<feComposite in2="hardAlpha" operator="out"/>
<feColorMatrix type="matrix" values="0 0 0 0 0.118632 0 0 0 0 0.372589 0 0 0 0 0.812782 0 0 0 0.4 0"/>
<feBlend mode="normal" in2="BackgroundImageFix" result="effect1_dropShadow_386_2077"/>
<feBlend mode="normal" in="SourceGraphic" in2="effect1_dropShadow_386_2077" result="shape"/>
</filter>
<linearGradient id="paint0_linear_386_2077" x1="37.5" y1="76.5" x2="37.5" y2="6.5" gradientUnits="userSpaceOnUse">
<stop stop-color="#2D7AFF"/>
<stop offset="1" stop-color="#A6C7FF"/>
</linearGradient>
</defs>
</svg>
