<svg width="75" height="83" viewBox="0 0 75 83" fill="none" xmlns="http://www.w3.org/2000/svg">
<path d="M4.23082 18.4112L33.7236 1.50174C36.0554 0.166087 38.9393 0.166087 41.2764 1.50174L70.7692 18.4112C73.0795 19.7363 74.5 22.17 74.5 24.7991V58.2009C74.5 60.83 73.0795 63.2637 70.7692 64.5888L41.2764 81.4983C38.9446 82.8339 36.0607 82.8339 33.7236 81.4983L4.23082 64.5888C1.9205 63.2637 0.5 60.83 0.5 58.2009V24.7991C0.5 22.17 1.9205 19.7363 4.23082 18.4112Z" fill="#F7F7F5" fill-opacity="0.59" stroke="#8FB4F5" stroke-miterlimit="10"/>
<path d="M9.62658 21.788L34.337 7.355C36.2911 6.215 38.709 6.215 40.6631 7.355L65.3734 21.788C67.3067 22.9175 68.5 24.9936 68.5 27.2422V55.7578C68.5 58.0064 67.3119 60.0825 65.3734 61.212L40.6631 75.645C38.709 76.785 36.2911 76.785 34.337 75.645L9.62658 61.212C7.69331 60.0825 6.5 58.0064 6.5 55.7578V27.2422C6.5 24.9936 7.6881 22.9175 9.62658 21.788Z" fill="url(#paint0_linear_386_2072)"/>
<g filter="url(#filter0_d_386_2072)">
<path d="M45.6526 26.7778C48.1413 28.2583 50.2116 30.3827 51.6584 32.9408C53.1053 35.4989 53.8786 38.402 53.9018 41.3627C53.925 44.3234 53.1973 47.2389 51.7908 49.8208C50.3842 52.4027 48.3475 54.5613 45.8824 56.083C43.4173 57.6046 40.6091 58.4366 37.736 58.4965C34.8629 58.5564 32.0244 57.8422 29.5015 56.4245C26.9786 55.0069 24.8589 52.9349 23.3521 50.4138C21.8453 47.8927 21.0037 45.0098 20.9106 42.0506L20.9023 41.4998L20.9106 40.949C21.003 38.0131 21.8322 35.1519 23.3174 32.6445C24.8025 30.1371 26.893 28.0689 29.3849 26.6416C31.8768 25.2143 34.6852 24.4767 37.5362 24.5006C40.3872 24.5244 43.1836 25.309 45.6526 26.7778ZM45.1692 33.4979C44.8598 33.1792 44.4402 33.0002 44.0026 33.0002C43.5651 33.0002 43.1455 33.1792 42.8361 33.4979L38.5625 37.9009L38.4256 38.0607L38.3134 38.2307C37.8419 38.0911 37.3461 38.0615 36.8621 38.1442C36.3782 38.2268 35.9182 38.4196 35.5156 38.7084C35.1131 38.9973 34.7781 39.375 34.5351 39.8141C34.2921 40.2531 34.1471 40.7425 34.1108 41.2465L34.1025 41.4998L34.1108 41.7548C34.1454 42.2291 34.2763 42.6907 34.4949 43.1097C34.7136 43.5286 35.0151 43.8957 35.38 44.187C35.745 44.4784 36.1652 44.6877 36.6135 44.8012C37.0619 44.9148 37.5284 44.9302 37.9828 44.8464C38.4373 44.7626 38.8697 44.5815 39.2519 44.3147C39.6342 44.048 39.9579 43.7016 40.2021 43.2979C40.4463 42.8942 40.6056 42.4422 40.6696 41.9712C40.7337 41.5001 40.701 41.0204 40.5739 40.5631C40.6911 40.491 40.7992 40.4042 40.8956 40.3047L45.1692 35.9017L45.3061 35.7419C45.5524 35.4148 45.6744 35.0064 45.6492 34.5933C45.6239 34.1801 45.4533 33.7906 45.1692 33.4979ZM37.4025 31.2998C34.7769 31.2998 32.2587 32.3745 30.4021 34.2873C28.5455 36.2002 27.5024 38.7946 27.5024 41.4998C27.5024 41.9507 27.6763 42.3831 27.9857 42.7019C28.2951 43.0207 28.7148 43.1998 29.1524 43.1998C29.5901 43.1998 30.0097 43.0207 30.3192 42.7019C30.6286 42.3831 30.8025 41.9507 30.8025 41.4998C30.8025 39.6963 31.4978 37.9667 32.7356 36.6915C33.9733 35.4162 35.6521 34.6998 37.4025 34.6998C37.8402 34.6998 38.2598 34.5207 38.5693 34.2019C38.8787 33.8831 39.0526 33.4507 39.0526 32.9998C39.0526 32.5489 38.8787 32.1165 38.5693 31.7977C38.2598 31.4789 37.8402 31.2998 37.4025 31.2998Z" fill="white"/>
</g>
<defs>
<filter id="filter0_d_386_2072" x="11.5" y="21.5" width="52" height="52" filterUnits="userSpaceOnUse" color-interpolation-filters="sRGB">
<feFlood flood-opacity="0" result="BackgroundImageFix"/>
<feColorMatrix in="SourceAlpha" type="matrix" values="0 0 0 0 0 0 0 0 0 0 0 0 0 0 0 0 0 0 127 0" result="hardAlpha"/>
<feOffset dy="6"/>
<feGaussianBlur stdDeviation="4"/>
<feComposite in2="hardAlpha" operator="out"/>
<feColorMatrix type="matrix" values="0 0 0 0 0.118632 0 0 0 0 0.372589 0 0 0 0 0.812782 0 0 0 0.4 0"/>
<feBlend mode="normal" in2="BackgroundImageFix" result="effect1_dropShadow_386_2072"/>
<feBlend mode="normal" in="SourceGraphic" in2="effect1_dropShadow_386_2072" result="shape"/>
</filter>
<linearGradient id="paint0_linear_386_2072" x1="37.5" y1="76.5" x2="37.5" y2="6.5" gradientUnits="userSpaceOnUse">
<stop stop-color="#2D7AFF"/>
<stop offset="1" stop-color="#A6C7FF"/>
</linearGradient>
</defs>
</svg>
