<svg width="75" height="83" viewBox="0 0 75 83" fill="none" xmlns="http://www.w3.org/2000/svg">
<path d="M4.23082 18.4112L33.7236 1.50174C36.0554 0.166087 38.9393 0.166087 41.2764 1.50174L70.7692 18.4112C73.0795 19.7363 74.5 22.17 74.5 24.7991V58.2009C74.5 60.83 73.0795 63.2637 70.7692 64.5888L41.2764 81.4983C38.9446 82.8339 36.0607 82.8339 33.7236 81.4983L4.23082 64.5888C1.9205 63.2637 0.5 60.83 0.5 58.2009V24.7991C0.5 22.17 1.9205 19.7363 4.23082 18.4112Z" fill="#F7F7F5" fill-opacity="0.59" stroke="#8FB4F5" stroke-miterlimit="10"/>
<path d="M9.62658 21.788L34.337 7.355C36.2911 6.215 38.709 6.215 40.6631 7.355L65.3734 21.788C67.3067 22.9175 68.5 24.9936 68.5 27.2422V55.7578C68.5 58.0064 67.3119 60.0825 65.3734 61.212L40.6631 75.645C38.709 76.785 36.2911 76.785 34.337 75.645L9.62658 61.212C7.69331 60.0825 6.5 58.0064 6.5 55.7578V27.2422C6.5 24.9936 7.6881 22.9175 9.62658 21.788Z" fill="url(#paint0_linear_386_2067)"/>
<g filter="url(#filter0_d_386_2067)">
<path d="M49.8438 25.5C50.7862 25.5 51.6939 25.8578 52.3828 26.501C53.0715 27.1441 53.4901 28.0248 53.5547 28.9648L53.5635 29.2197V40.8877C51.5153 38.6424 48.5657 37.2335 45.2871 37.2334C39.1017 37.2336 34.0879 42.2481 34.0879 48.4336C34.0879 49.808 34.3361 51.1242 34.7891 52.3408L34.791 54.4316H35.8311C36.4216 55.3606 37.1448 56.1958 37.9746 56.9121H28.3525C28.0386 56.9119 27.7363 56.7924 27.5068 56.5781C27.2773 56.3637 27.1376 56.0693 27.1162 55.7559C27.0949 55.4426 27.1935 55.1332 27.3916 54.8896C27.5899 54.6459 27.8733 54.4862 28.1846 54.4434L28.3525 54.4316H31.2441V50.3018H24.2197C23.2772 50.3019 22.3696 49.944 21.6807 49.3008C20.9919 48.6576 20.5723 47.7771 20.5078 46.8369L20.5 46.582V29.2197C20.4999 28.2772 20.8578 27.3696 21.501 26.6807C22.1441 25.9919 23.0247 25.5724 23.9648 25.5078L24.2197 25.5H49.8438Z" fill="white"/>
<path d="M45.8218 40.4336C50.5344 40.4338 54.355 44.2541 54.355 48.9668C54.3549 53.6794 50.5344 57.4998 45.8218 57.5C41.109 57.5 37.2877 53.6796 37.2876 48.9668C37.2876 44.254 41.1089 40.4336 45.8218 40.4336ZM41.7397 47.3076C41.502 47.3077 41.2741 47.3957 41.106 47.5527C40.9378 47.7099 40.8433 47.9232 40.8433 48.1455V51.6846C40.8434 51.9066 40.938 52.1193 41.106 52.2764C41.2741 52.4335 41.502 52.5224 41.7397 52.5225H42.7368C42.9745 52.5224 43.2025 52.4335 43.3706 52.2764C43.5386 52.1193 43.6332 51.9066 43.6333 51.6846V48.1455C43.6333 47.9232 43.5388 47.7099 43.3706 47.5527C43.2025 47.3957 42.9745 47.3077 42.7368 47.3076H41.7397ZM45.3276 46.1904C45.0898 46.1904 44.8611 46.2784 44.6929 46.4355C44.5248 46.5927 44.4302 46.8061 44.4302 47.0283V51.6846C44.4303 51.9066 44.525 52.1193 44.6929 52.2764C44.8611 52.4335 45.0898 52.5225 45.3276 52.5225H46.3237C46.5616 52.5224 46.7893 52.4335 46.9575 52.2764C47.1256 52.1193 47.2201 51.9067 47.2202 51.6846V47.0283C47.2202 46.806 47.1257 46.5927 46.9575 46.4355C46.7894 46.2784 46.5615 46.1904 46.3237 46.1904H45.3276ZM48.9058 44.7002C48.6679 44.7002 48.4392 44.7881 48.271 44.9453C48.1029 45.1025 48.0083 45.3159 48.0083 45.5381V51.6846C48.0084 51.9065 48.1032 52.1193 48.271 52.2764C48.4392 52.4335 48.6679 52.5225 48.9058 52.5225H49.9019C50.1397 52.5225 50.3675 52.4335 50.5356 52.2764C50.7037 52.1193 50.7982 51.9067 50.7983 51.6846V45.5381C50.7983 45.3158 50.7038 45.1025 50.5356 44.9453C50.3675 44.7883 50.1396 44.7002 49.9019 44.7002H48.9058Z" fill="white"/>
</g>
<defs>
<filter id="filter0_d_386_2067" x="11.5" y="21.5" width="52" height="52" filterUnits="userSpaceOnUse" color-interpolation-filters="sRGB">
<feFlood flood-opacity="0" result="BackgroundImageFix"/>
<feColorMatrix in="SourceAlpha" type="matrix" values="0 0 0 0 0 0 0 0 0 0 0 0 0 0 0 0 0 0 127 0" result="hardAlpha"/>
<feOffset dy="6"/>
<feGaussianBlur stdDeviation="4"/>
<feComposite in2="hardAlpha" operator="out"/>
<feColorMatrix type="matrix" values="0 0 0 0 0.118632 0 0 0 0 0.372589 0 0 0 0 0.812782 0 0 0 0.4 0"/>
<feBlend mode="normal" in2="BackgroundImageFix" result="effect1_dropShadow_386_2067"/>
<feBlend mode="normal" in="SourceGraphic" in2="effect1_dropShadow_386_2067" result="shape"/>
</filter>
<linearGradient id="paint0_linear_386_2067" x1="37.5" y1="76.5" x2="37.5" y2="6.5" gradientUnits="userSpaceOnUse">
<stop stop-color="#2D7AFF"/>
<stop offset="1" stop-color="#A6C7FF"/>
</linearGradient>
</defs>
</svg>
