<svg width="75" height="83" viewBox="0 0 75 83" fill="none" xmlns="http://www.w3.org/2000/svg">
<path d="M4.23082 18.4112L33.7236 1.50174C36.0554 0.166087 38.9393 0.166087 41.2764 1.50174L70.7692 18.4112C73.0795 19.7363 74.5 22.17 74.5 24.7991V58.2009C74.5 60.83 73.0795 63.2637 70.7692 64.5888L41.2764 81.4983C38.9446 82.8339 36.0607 82.8339 33.7236 81.4983L4.23082 64.5888C1.9205 63.2637 0.5 60.83 0.5 58.2009V24.7991C0.5 22.17 1.9205 19.7363 4.23082 18.4112Z" fill="#F7F7F5" fill-opacity="0.59" stroke="#8FB4F5" stroke-miterlimit="10"/>
<path d="M9.62658 21.788L34.337 7.355C36.2911 6.215 38.709 6.215 40.6631 7.355L65.3734 21.788C67.3067 22.9175 68.5 24.9936 68.5 27.2422V55.7578C68.5 58.0064 67.3119 60.0825 65.3734 61.212L40.6631 75.645C38.709 76.785 36.2911 76.785 34.337 75.645L9.62658 61.212C7.69331 60.0825 6.5 58.0064 6.5 55.7578V27.2422C6.5 24.9936 7.6881 22.9175 9.62658 21.788Z" fill="url(#paint0_linear_386_2082)"/>
<g filter="url(#filter0_d_386_2082)">
<path d="M37.4892 58.5C37.7629 58.5 38.1905 58.3978 38.6349 58.1753C48.1955 52.7878 51.4974 50.5301 51.4974 44.3896V31.495C51.4974 29.7335 50.7276 29.1694 49.3083 28.5703C47.3067 27.7494 40.8933 25.4406 38.91 24.7393C38.4481 24.6029 37.9862 24.5 37.49 24.5C37.0113 24.5 36.5494 24.6022 36.0875 24.7393C34.1041 25.4581 27.6907 27.7669 25.6891 28.5703C24.2698 29.1519 23.5 29.7335 23.5 31.495V44.3904C23.5 50.5301 26.818 52.7703 36.3611 58.1746C36.8062 58.3971 37.2156 58.5 37.4892 58.5Z" fill="white"/>
</g>
<defs>
<filter id="filter0_d_386_2082" x="11.5" y="21.5" width="52" height="52" filterUnits="userSpaceOnUse" color-interpolation-filters="sRGB">
<feFlood flood-opacity="0" result="BackgroundImageFix"/>
<feColorMatrix in="SourceAlpha" type="matrix" values="0 0 0 0 0 0 0 0 0 0 0 0 0 0 0 0 0 0 127 0" result="hardAlpha"/>
<feOffset dy="6"/>
<feGaussianBlur stdDeviation="4"/>
<feComposite in2="hardAlpha" operator="out"/>
<feColorMatrix type="matrix" values="0 0 0 0 0.118632 0 0 0 0 0.372589 0 0 0 0 0.812782 0 0 0 0.4 0"/>
<feBlend mode="normal" in2="BackgroundImageFix" result="effect1_dropShadow_386_2082"/>
<feBlend mode="normal" in="SourceGraphic" in2="effect1_dropShadow_386_2082" result="shape"/>
</filter>
<linearGradient id="paint0_linear_386_2082" x1="37.5" y1="76.5" x2="37.5" y2="6.5" gradientUnits="userSpaceOnUse">
<stop stop-color="#2D7AFF"/>
<stop offset="1" stop-color="#A6C7FF"/>
</linearGradient>
</defs>
</svg>
