<svg width="75" height="83" viewBox="0 0 75 83" fill="none" xmlns="http://www.w3.org/2000/svg">
<path d="M4.23082 18.4112L33.7236 1.50174C36.0554 0.166087 38.9393 0.166087 41.2764 1.50174L70.7692 18.4112C73.0795 19.7363 74.5 22.17 74.5 24.7991V58.2009C74.5 60.83 73.0795 63.2637 70.7692 64.5888L41.2764 81.4983C38.9446 82.8339 36.0607 82.8339 33.7236 81.4983L4.23082 64.5888C1.9205 63.2637 0.5 60.83 0.5 58.2009V24.7991C0.5 22.17 1.9205 19.7363 4.23082 18.4112Z" fill="#F7F7F5" fill-opacity="0.59" stroke="#8FB4F5" stroke-miterlimit="10"/>
<path d="M9.62658 21.788L34.337 7.355C36.2911 6.215 38.709 6.215 40.6631 7.355L65.3734 21.788C67.3067 22.9175 68.5 24.9936 68.5 27.2422V55.7578C68.5 58.0064 67.3119 60.0825 65.3734 61.212L40.6631 75.645C38.709 76.785 36.2911 76.785 34.337 75.645L9.62658 61.212C7.69331 60.0825 6.5 58.0064 6.5 55.7578V27.2422C6.5 24.9936 7.6881 22.9175 9.62658 21.788Z" fill="url(#paint0_linear_375_6981)"/>
<g filter="url(#filter0_d_375_6981)">
<path d="M52.3125 57.9062H22.7812C22.2011 57.9062 21.6447 57.6758 21.2345 57.2655C20.8242 56.8553 20.5938 56.2989 20.5938 55.7188V26.1875C20.5938 25.8974 20.709 25.6192 20.9141 25.4141C21.1192 25.209 21.3974 25.0938 21.6875 25.0938C21.9776 25.0938 22.2558 25.209 22.4609 25.4141C22.666 25.6192 22.7812 25.8974 22.7812 26.1875V55.7188H52.3125C52.6026 55.7188 52.8808 55.834 53.0859 56.0391C53.291 56.2442 53.4062 56.5224 53.4062 56.8125C53.4062 57.1026 53.291 57.3808 53.0859 57.5859C52.8808 57.791 52.6026 57.9062 52.3125 57.9062Z" fill="white"/>
<path d="M30.1641 53.5312H27.4297C26.777 53.5312 26.1511 53.272 25.6895 52.8105C25.228 52.3489 24.9688 51.723 24.9688 51.0703V40.6797C24.9688 40.027 25.228 39.4011 25.6895 38.9395C26.1511 38.478 26.777 38.2188 27.4297 38.2188H30.1641C30.8167 38.2188 31.4427 38.478 31.9042 38.9395C32.3657 39.4011 32.625 40.027 32.625 40.6797V51.0703C32.625 51.723 32.3657 52.3489 31.9042 52.8105C31.4427 53.272 30.8167 53.5312 30.1641 53.5312ZM40.0078 53.5312H37.2734C36.6208 53.5312 35.9948 53.272 35.5333 52.8105C35.0718 52.3489 34.8125 51.723 34.8125 51.0703V37.3984C34.8125 36.7458 35.0718 36.1198 35.5333 35.6583C35.9948 35.1968 36.6208 34.9375 37.2734 34.9375H40.0078C40.6605 34.9375 41.2864 35.1968 41.748 35.6583C42.2095 36.1198 42.4688 36.7458 42.4688 37.3984V51.0703C42.4688 51.723 42.2095 52.3489 41.748 52.8105C41.2864 53.272 40.6605 53.5312 40.0078 53.5312ZM49.827 53.5312H47.0926C46.4399 53.5312 45.8139 53.272 45.3524 52.8105C44.8909 52.3489 44.6316 51.723 44.6316 51.0703V33.0234C44.6316 32.3708 44.8909 31.7448 45.3524 31.2833C45.8139 30.8218 46.4399 30.5625 47.0926 30.5625H49.827C50.4796 30.5625 51.1056 30.8218 51.5671 31.2833C52.0286 31.7448 52.2879 32.3708 52.2879 33.0234V51.0703C52.2879 51.723 52.0286 52.3489 51.5671 52.8105C51.1056 53.272 50.4796 53.5312 49.827 53.5312Z" fill="white"/>
</g>
<defs>
<filter id="filter0_d_375_6981" x="11.5" y="21.5" width="52" height="52" filterUnits="userSpaceOnUse" color-interpolation-filters="sRGB">
<feFlood flood-opacity="0" result="BackgroundImageFix"/>
<feColorMatrix in="SourceAlpha" type="matrix" values="0 0 0 0 0 0 0 0 0 0 0 0 0 0 0 0 0 0 127 0" result="hardAlpha"/>
<feOffset dy="6"/>
<feGaussianBlur stdDeviation="4"/>
<feComposite in2="hardAlpha" operator="out"/>
<feColorMatrix type="matrix" values="0 0 0 0 0.118632 0 0 0 0 0.372589 0 0 0 0 0.812782 0 0 0 0.4 0"/>
<feBlend mode="normal" in2="BackgroundImageFix" result="effect1_dropShadow_375_6981"/>
<feBlend mode="normal" in="SourceGraphic" in2="effect1_dropShadow_375_6981" result="shape"/>
</filter>
<linearGradient id="paint0_linear_375_6981" x1="37.5" y1="76.5" x2="37.5" y2="6.5" gradientUnits="userSpaceOnUse">
<stop stop-color="#2D7AFF"/>
<stop offset="1" stop-color="#A6C7FF"/>
</linearGradient>
</defs>
</svg>
