<svg width="75" height="83" viewBox="0 0 75 83" fill="none" xmlns="http://www.w3.org/2000/svg">
<path d="M4.23082 18.4112L33.7236 1.50174C36.0554 0.166087 38.9393 0.166087 41.2764 1.50174L70.7692 18.4112C73.0795 19.7363 74.5 22.17 74.5 24.7991V58.2009C74.5 60.83 73.0795 63.2637 70.7692 64.5888L41.2764 81.4983C38.9446 82.8339 36.0607 82.8339 33.7236 81.4983L4.23082 64.5888C1.9205 63.2637 0.5 60.83 0.5 58.2009V24.7991C0.5 22.17 1.9205 19.7363 4.23082 18.4112Z" fill="#F7F7F5" fill-opacity="0.59" stroke="#8FB4F5" stroke-miterlimit="10"/>
<path d="M9.62658 21.788L34.337 7.355C36.2911 6.215 38.709 6.215 40.6631 7.355L65.3734 21.788C67.3067 22.9175 68.5 24.9936 68.5 27.2422V55.7578C68.5 58.0064 67.3119 60.0825 65.3734 61.212L40.6631 75.645C38.709 76.785 36.2911 76.785 34.337 75.645L9.62658 61.212C7.69331 60.0825 6.5 58.0064 6.5 55.7578V27.2422C6.5 24.9936 7.6881 22.9175 9.62658 21.788Z" fill="url(#paint0_linear_375_6971)"/>
<g filter="url(#filter0_d_375_6971)">
<path d="M51.6924 47.4756C52.1047 47.4756 52.4395 47.8411 52.4395 48.29V55.625C52.4395 56.0747 52.1047 56.4394 51.6924 56.4395H23.3076C22.8953 56.4395 22.5605 56.0747 22.5605 55.625V48.29C22.5605 47.8404 22.8953 47.4756 23.3076 47.4756H51.6924ZM33.0186 49.8965C31.8805 49.8965 30.958 50.819 30.958 51.957C30.958 53.095 31.8805 54.0176 33.0186 54.0176H41.9824C43.1204 54.0175 44.0429 53.095 44.043 51.957C44.043 50.8191 43.1204 49.8966 41.9824 49.8965H33.0186Z" fill="white"/>
<path d="M24.6212 54.3788H50.3788V49.5362H24.6212V54.3788ZM24.6212 33.4638H50.3788V28.6212H24.6212V33.4638ZM54.5 55.6254C54.4999 57.0426 53.4061 58.4998 51.6928 58.5H23.3072C21.5939 58.4998 20.5001 57.0426 20.5 55.6254V48.2895C20.5002 46.8724 21.594 45.4152 23.3072 45.4149H51.6928C53.406 45.4152 54.4998 46.8724 54.5 48.2895V55.6254ZM54.5 34.7105C54.4998 36.1276 53.406 37.5848 51.6928 37.585H23.3072C21.594 37.5848 20.5002 36.1276 20.5 34.7105V27.3746C20.5001 25.9574 21.5939 24.5002 23.3072 24.5H51.6928L51.8518 24.504C53.4745 24.5912 54.4999 26.0037 54.5 27.3746V34.7105Z" fill="white"/>
<path d="M42.9091 47.4756V43.5727L30.0293 43.5667C28.8917 43.5661 27.9697 42.6437 27.9697 41.5061V35.5245C27.9697 34.3864 28.8923 33.4639 30.0303 33.4639C31.1684 33.4639 32.0909 34.3864 32.0909 35.5245V39.4465L44.9707 39.4535C46.1084 39.4541 47.0303 40.3765 47.0303 41.5141V47.4756C47.0303 48.6136 46.1078 49.5362 44.9697 49.5362C43.8317 49.5362 42.9091 48.6136 42.9091 47.4756Z" fill="white"/>
<path d="M51.6924 26.5605C52.1047 26.5606 52.4395 26.9261 52.4395 27.375V34.71C52.4395 35.1596 52.1047 35.5244 51.6924 35.5244H23.3076C22.8953 35.5244 22.5605 35.1596 22.5605 34.71V27.375C22.5605 26.9253 22.8953 26.5605 23.3076 26.5605H51.6924ZM33.0186 28.9814C31.8805 28.9815 30.958 29.904 30.958 31.042C30.958 32.18 31.8805 33.1025 33.0186 33.1025H41.9824C43.1204 33.1024 44.043 32.18 44.043 31.042C44.043 29.904 43.1204 28.9816 41.9824 28.9814H33.0186Z" fill="white"/>
</g>
<defs>
<filter id="filter0_d_375_6971" x="11.5" y="21.5" width="52" height="52" filterUnits="userSpaceOnUse" color-interpolation-filters="sRGB">
<feFlood flood-opacity="0" result="BackgroundImageFix"/>
<feColorMatrix in="SourceAlpha" type="matrix" values="0 0 0 0 0 0 0 0 0 0 0 0 0 0 0 0 0 0 127 0" result="hardAlpha"/>
<feOffset dy="6"/>
<feGaussianBlur stdDeviation="4"/>
<feComposite in2="hardAlpha" operator="out"/>
<feColorMatrix type="matrix" values="0 0 0 0 0.118632 0 0 0 0 0.372589 0 0 0 0 0.812782 0 0 0 0.4 0"/>
<feBlend mode="normal" in2="BackgroundImageFix" result="effect1_dropShadow_375_6971"/>
<feBlend mode="normal" in="SourceGraphic" in2="effect1_dropShadow_375_6971" result="shape"/>
</filter>
<linearGradient id="paint0_linear_375_6971" x1="37.5" y1="76.5" x2="37.5" y2="6.5" gradientUnits="userSpaceOnUse">
<stop stop-color="#2D7AFF"/>
<stop offset="1" stop-color="#A6C7FF"/>
</linearGradient>
</defs>
</svg>
