<svg width="75" height="83" viewBox="0 0 75 83" fill="none" xmlns="http://www.w3.org/2000/svg">
<path d="M4.23082 18.4112L33.7236 1.50174C36.0554 0.166087 38.9393 0.166087 41.2764 1.50174L70.7692 18.4112C73.0795 19.7363 74.5 22.17 74.5 24.7991V58.2009C74.5 60.83 73.0795 63.2637 70.7692 64.5888L41.2764 81.4983C38.9446 82.8339 36.0607 82.8339 33.7236 81.4983L4.23082 64.5888C1.9205 63.2637 0.5 60.83 0.5 58.2009V24.7991C0.5 22.17 1.9205 19.7363 4.23082 18.4112Z" fill="#F7F7F5" fill-opacity="0.59" stroke="#8FB4F5" stroke-miterlimit="10"/>
<path d="M9.62658 21.788L34.337 7.355C36.2911 6.215 38.709 6.215 40.6631 7.355L65.3734 21.788C67.3067 22.9175 68.5 24.9936 68.5 27.2422V55.7578C68.5 58.0064 67.3119 60.0825 65.3734 61.212L40.6631 75.645C38.709 76.785 36.2911 76.785 34.337 75.645L9.62658 61.212C7.69331 60.0825 6.5 58.0064 6.5 55.7578V27.2422C6.5 24.9936 7.6881 22.9175 9.62658 21.788Z" fill="url(#paint0_linear_375_6986)"/>
<g filter="url(#filter0_d_375_6986)">
<path d="M37.3647 24.5C39.2826 24.5 41.0796 24.8644 42.7554 25.5928C44.431 26.3211 45.8978 27.3145 47.1558 28.5732C48.4138 29.8322 49.4079 31.2998 50.1372 32.9756C50.8665 34.6514 51.2309 36.4481 51.23 38.3652C51.23 40.2602 50.8656 42.0513 50.1372 43.7383C49.4088 45.4252 48.4147 46.8983 47.1558 48.1582C45.8968 49.418 44.4292 50.4122 42.7534 51.1396C41.7499 51.5752 40.7028 51.879 39.6128 52.0537V54.6953L49.5601 54.6689C50.62 54.6661 51.481 55.525 51.481 56.585C51.4807 57.6427 50.6227 58.5 49.5649 58.5H26.0552C24.9959 58.5 24.1372 57.6413 24.1372 56.582C24.1372 55.5228 24.996 54.6641 26.0552 54.6641L35.4019 54.665V52.0938C34.2215 51.9276 33.0847 51.6096 31.9917 51.1377C30.3048 50.4093 28.8317 49.4161 27.5728 48.1572C26.3138 46.8983 25.3197 45.4252 24.5913 43.7383C23.8629 42.0513 23.4995 40.2602 23.4995 38.3652C23.4995 36.4472 23.8629 34.6505 24.5913 32.9756C25.3197 31.3007 26.3138 29.8331 27.5728 28.5732C28.8317 27.3134 30.3048 26.3202 31.9917 25.5928C33.6786 24.8653 35.4698 24.5009 37.3647 24.5ZM34.73 43.9111C35.0072 44.9278 35.3652 45.887 35.8042 46.7881C36.2108 47.6227 36.6885 48.427 37.2339 49.2021C37.3166 49.1931 37.4019 49.1895 37.4897 49.1895C37.4943 49.1895 37.4989 49.1894 37.5034 49.1895C38.0451 48.4181 38.5199 47.6182 38.9243 46.7881C39.3633 45.8869 39.7213 44.9278 39.9985 43.9111H34.73ZM27.7974 43.9111C28.4675 45.0665 29.3054 46.0718 30.311 46.9268C31.3167 47.7818 32.4661 48.418 33.7593 48.834C33.3433 48.0714 32.98 47.2788 32.6685 46.458C32.357 45.6373 32.0961 44.7882 31.8872 43.9111H27.7974ZM42.8413 43.9111C42.6333 44.7893 42.3735 45.6391 42.062 46.46C41.7505 47.2807 41.3861 48.0724 40.9692 48.834C42.2633 48.418 43.4137 47.7818 44.4194 46.9268C45.425 46.0718 46.262 45.0664 46.9312 43.9111H42.8413ZM26.6187 35.5918C26.5031 36.0539 26.4172 36.5109 26.3599 36.9619C26.3026 37.413 26.2729 37.8809 26.272 38.3652C26.271 38.8495 26.3007 39.3176 26.3599 39.7695C26.419 40.2215 26.505 40.6783 26.6187 41.1387H31.3335C31.2642 40.6765 31.2114 40.2197 31.1772 39.7695C31.1431 39.3195 31.1264 38.8513 31.1255 38.3652C31.1246 37.879 31.1412 37.4111 31.1772 36.9619C31.2133 36.5127 31.266 36.0558 31.3335 35.5918H26.6187ZM34.106 35.5918C34.0366 36.0539 33.9849 36.5109 33.9507 36.9619C33.9165 37.413 33.8989 37.8809 33.8979 38.3652C33.897 38.8495 33.9146 39.3176 33.9507 39.7695C33.9867 40.2215 34.0385 40.6783 34.106 41.1387H40.6226C40.6919 40.6765 40.7447 40.2197 40.7798 39.7695C40.8149 39.3195 40.8315 38.8513 40.8306 38.3652C40.8296 37.879 40.812 37.4111 40.7778 36.9619C40.7436 36.5127 40.6919 36.0558 40.6226 35.5918H34.106ZM43.396 35.5918C43.4653 36.0539 43.5171 36.5109 43.5522 36.9619C43.5874 37.413 43.6049 37.8809 43.604 38.3652C43.6031 38.8495 43.5855 39.3176 43.5513 39.7695C43.5171 40.2215 43.4653 40.6783 43.396 41.1387H48.1099C48.2254 40.6765 48.3124 40.2197 48.3706 39.7695C48.4288 39.3195 48.4575 38.8513 48.4565 38.3652C48.4556 37.879 48.427 37.4111 48.3706 36.9619C48.3142 36.5127 48.2272 36.0558 48.1099 35.5918H43.396ZM33.7593 27.8975C32.4653 28.3134 31.3157 28.9488 30.3101 29.8037C29.3044 30.6587 28.4666 31.6639 27.7974 32.8193H31.8872C32.0952 31.9412 32.356 31.0913 32.6685 30.2705C32.9808 29.4499 33.3444 28.6589 33.7593 27.8975ZM37.3647 27.3428C36.7639 28.1747 36.2432 29.0412 35.8042 29.9424C35.3652 30.8435 35.0072 31.8027 34.73 32.8193H39.9985C39.7213 31.8026 39.3633 30.8436 38.9243 29.9424C38.4853 29.0413 37.9654 28.1746 37.3647 27.3428ZM40.9692 27.8975C41.3851 28.66 41.7496 29.4517 42.062 30.2725C42.3744 31.0932 42.6343 31.9422 42.8413 32.8193H46.9312C46.2611 31.664 45.4241 30.6587 44.4194 29.8037C43.4147 28.9487 42.2643 28.3134 40.9692 27.8975Z" fill="white"/>
</g>
<defs>
<filter id="filter0_d_375_6986" x="11.5" y="21.5" width="52" height="52" filterUnits="userSpaceOnUse" color-interpolation-filters="sRGB">
<feFlood flood-opacity="0" result="BackgroundImageFix"/>
<feColorMatrix in="SourceAlpha" type="matrix" values="0 0 0 0 0 0 0 0 0 0 0 0 0 0 0 0 0 0 127 0" result="hardAlpha"/>
<feOffset dy="6"/>
<feGaussianBlur stdDeviation="4"/>
<feComposite in2="hardAlpha" operator="out"/>
<feColorMatrix type="matrix" values="0 0 0 0 0.118632 0 0 0 0 0.372589 0 0 0 0 0.812782 0 0 0 0.4 0"/>
<feBlend mode="normal" in2="BackgroundImageFix" result="effect1_dropShadow_375_6986"/>
<feBlend mode="normal" in="SourceGraphic" in2="effect1_dropShadow_375_6986" result="shape"/>
</filter>
<linearGradient id="paint0_linear_375_6986" x1="37.5" y1="76.5" x2="37.5" y2="6.5" gradientUnits="userSpaceOnUse">
<stop stop-color="#2D7AFF"/>
<stop offset="1" stop-color="#A6C7FF"/>
</linearGradient>
</defs>
</svg>
