<svg width="75" height="83" viewBox="0 0 75 83" fill="none" xmlns="http://www.w3.org/2000/svg">
<path d="M4.23082 18.4112L33.7236 1.50174C36.0554 0.166087 38.9393 0.166087 41.2764 1.50174L70.7692 18.4112C73.0795 19.7363 74.5 22.17 74.5 24.7991V58.2009C74.5 60.83 73.0795 63.2637 70.7692 64.5888L41.2764 81.4983C38.9446 82.8339 36.0607 82.8339 33.7236 81.4983L4.23082 64.5888C1.9205 63.2637 0.5 60.83 0.5 58.2009V24.7991C0.5 22.17 1.9205 19.7363 4.23082 18.4112Z" fill="#F7F7F5" fill-opacity="0.59" stroke="#8FB4F5" stroke-miterlimit="10"/>
<path d="M9.62658 21.788L34.337 7.355C36.2911 6.215 38.709 6.215 40.6631 7.355L65.3734 21.788C67.3067 22.9175 68.5 24.9936 68.5 27.2422V55.7578C68.5 58.0064 67.3119 60.0825 65.3734 61.212L40.6631 75.645C38.709 76.785 36.2911 76.785 34.337 75.645L9.62658 61.212C7.69331 60.0825 6.5 58.0064 6.5 55.7578V27.2422C6.5 24.9936 7.6881 22.9175 9.62658 21.788Z" fill="url(#paint0_linear_375_6991)"/>
<g filter="url(#filter0_d_375_6991)">
<path fill-rule="evenodd" clip-rule="evenodd" d="M45.2079 25.1695C45.3329 24.9687 45.5147 24.8094 45.7302 24.7119C45.9457 24.6144 46.1853 24.5829 46.4187 24.6215L52.5707 25.648C52.8835 25.7002 53.1628 25.8744 53.3472 26.1324C53.5316 26.3904 53.6061 26.7111 53.5542 27.0239L52.53 33.1784C52.491 33.4117 52.3836 33.6281 52.2215 33.8004C52.0595 33.9727 51.8499 34.0931 51.6195 34.1464C51.389 34.1996 51.1479 34.1834 50.9267 34.0997C50.7054 34.016 50.514 33.8686 50.3765 33.6761L48.7158 31.355L40.1638 36.8203C39.7991 37.0537 39.3623 37.1473 38.934 37.084C38.5057 37.0207 38.1147 36.8046 37.8331 36.4757L33.0642 30.9004L24.146 35.4827C23.7227 35.7004 23.2302 35.741 22.777 35.5956C22.3238 35.4502 21.9469 35.1307 21.7292 34.7074C21.5115 34.2841 21.4709 33.7917 21.6163 33.3384C21.7617 32.8852 22.0812 32.5083 22.5045 32.2906L32.6861 27.0574C33.0455 26.8728 33.4568 26.8148 33.8533 26.893C34.2498 26.9712 34.6083 27.1809 34.8708 27.4881L39.5464 32.9558L46.6293 28.4285L45.2486 26.4975C45.1113 26.3049 45.0342 26.076 45.0269 25.8396C45.0197 25.6033 45.0827 25.3701 45.2079 25.1695ZM29.5443 38.6425C29.5443 37.8744 28.7144 37.3931 28.0477 37.7744L22.6002 40.8905C22.3259 41.0472 22.0978 41.2736 21.9389 41.5467C21.7801 41.8198 21.6962 42.13 21.6957 42.4459V56.2048C21.6957 57.1955 22.4997 57.9995 23.4903 57.9995H28.5443C29.0965 57.9995 29.5443 57.5517 29.5443 56.9995V38.6425ZM32.5355 55.9992C32.5354 57.1039 33.4309 57.9995 34.5355 57.9995H39.3123C40.4169 57.9995 41.3123 57.104 41.3123 55.9995V43.3169C41.3123 42.5736 40.5302 42.0901 39.8653 42.4224L39.0585 42.8255C38.1092 43.2999 36.9546 42.9502 36.4281 42.0287L33.4231 36.77C33.1396 36.272 32.5377 36.6207 32.5376 37.1937L32.5355 55.9992ZM51.0082 57.9995H46.3034C45.1988 57.9995 44.3034 57.104 44.3034 55.9995V41.4396C44.3034 40.6822 44.7313 39.9898 45.4087 39.6509L50.2066 37.251C50.4802 37.1144 50.7842 37.05 51.0897 37.0639C51.3952 37.0778 51.692 37.1695 51.9521 37.3303C52.2122 37.4912 52.4269 37.7158 52.5758 37.9829C52.7247 38.2501 52.8028 38.5508 52.8028 38.8566V56.2048C52.8028 56.6808 52.6138 57.1373 52.2772 57.4738C51.9406 57.8104 51.4842 57.9995 51.0082 57.9995Z" fill="white"/>
</g>
<defs>
<filter id="filter0_d_375_6991" x="11.5" y="21.5" width="52" height="52" filterUnits="userSpaceOnUse" color-interpolation-filters="sRGB">
<feFlood flood-opacity="0" result="BackgroundImageFix"/>
<feColorMatrix in="SourceAlpha" type="matrix" values="0 0 0 0 0 0 0 0 0 0 0 0 0 0 0 0 0 0 127 0" result="hardAlpha"/>
<feOffset dy="6"/>
<feGaussianBlur stdDeviation="4"/>
<feComposite in2="hardAlpha" operator="out"/>
<feColorMatrix type="matrix" values="0 0 0 0 0.118632 0 0 0 0 0.372589 0 0 0 0 0.812782 0 0 0 0.4 0"/>
<feBlend mode="normal" in2="BackgroundImageFix" result="effect1_dropShadow_375_6991"/>
<feBlend mode="normal" in="SourceGraphic" in2="effect1_dropShadow_375_6991" result="shape"/>
</filter>
<linearGradient id="paint0_linear_375_6991" x1="37.5" y1="76.5" x2="37.5" y2="6.5" gradientUnits="userSpaceOnUse">
<stop stop-color="#2D7AFF"/>
<stop offset="1" stop-color="#A6C7FF"/>
</linearGradient>
</defs>
</svg>
